M48
;Layer_Color=9474304
;FILE_FORMAT=2:4
INCH,TZ
;TYPE=PLATED
T1F00S00C0.0138
T2F00S00C0.0276
T3F00S00C0.0394
T4F00S00C0.0400
T5F00S00C0.0433
T6F00S00C0.0728
T7F00S00C0.0827
;TYPE=NON_PLATED
T8F00S00C0.0650
%
T01
X5467Y5709
X30731Y14075
X32700
X30717Y16890
X23661Y9409
X18307
X14120Y8370
X9685Y7126
X13780Y15803
X11457Y18268
X10709Y21332
Y22047
X14488
X14012Y21181
X6503Y21142
X6063Y22047
X2213Y21929
X2795Y21142
X3898Y20039
X4528Y19406
X5313Y17087
X3110Y17598
X1309
Y14803
X3110
X3992Y15650
X4371Y13268
X5336Y14226
X6503Y13268
X7102Y11909
X7985
X7977Y10626
X7102
Y9154
X7985Y9139
X5597Y9154
X4803Y9139
X4371Y10626
X5597
X3189Y11375
X1309Y11305
X2140Y7725
Y6849
X3858
Y7725
X6688Y6921
X5236Y23465
X4528Y24267
X10709Y24613
Y23858
X15118Y23740
T02
X21358Y22854
Y23642
X31890
Y22854
T03
X17311Y2165
X18311
X19311
X20311
X21311
X22311
X23311
X24311
X25311
X26311
X27311
X28311
X29311
X30311
X31311
X34017Y4716
Y5716
X31311Y8165
X30311
X29311
X28311
X27311
X26311
X25311
X24311
X23311
X22311
X21311
X20311
X19311
X18311
X17311
X21358Y15921
Y18921
T04
X16823Y10433
X17823
X21139Y11122
X22539
T05
X10846Y15354
X14862
T06
X31693Y11909
Y15650
X5315
Y11909
T07
X12854Y14370
X9350Y20354
X16358Y21339
Y24331
T08
X16311Y2165
X32311
Y8165
X16311
M30
