G04*
G04 #@! TF.GenerationSoftware,Altium Limited,Altium Designer,19.1.8 (144)*
G04*
G04 Layer_Color=8388736*
%FSLAX25Y25*%
%MOIN*%
G70*
G01*
G75*
%ADD13R,0.02756X0.09843*%
%ADD14R,0.06693X0.09843*%
%ADD15R,0.03661X0.02854*%
%ADD16R,0.04134X0.03740*%
%ADD17R,0.05906X0.05512*%
%ADD18O,0.03543X0.09055*%
%ADD19R,0.13787X0.10287*%
%ADD20R,0.03740X0.04134*%
%ADD21R,0.01772X0.02362*%
G04:AMPARAMS|DCode=22|XSize=102.36mil|YSize=141.73mil|CornerRadius=51.18mil|HoleSize=0mil|Usage=FLASHONLY|Rotation=90.000|XOffset=0mil|YOffset=0mil|HoleType=Round|Shape=RoundedRectangle|*
%AMROUNDEDRECTD22*
21,1,0.10236,0.03937,0,0,90.0*
21,1,0.00000,0.14173,0,0,90.0*
1,1,0.10236,0.01968,0.00000*
1,1,0.10236,0.01968,0.00000*
1,1,0.10236,-0.01968,0.00000*
1,1,0.10236,-0.01968,0.00000*
%
%ADD22ROUNDEDRECTD22*%
%ADD23C,0.03150*%
D13*
X44331Y73721D02*
D03*
D14*
X37835D02*
D03*
D15*
X20079Y29528D02*
D03*
Y20768D02*
D03*
D16*
X26772Y41929D02*
D03*
Y36811D02*
D03*
X20079Y41929D02*
D03*
Y36811D02*
D03*
D17*
X65354Y41732D02*
D03*
Y35433D02*
D03*
X56693Y41732D02*
D03*
Y35433D02*
D03*
D18*
X33839Y50669D02*
D03*
X48839D02*
D03*
X43839D02*
D03*
X38839D02*
D03*
X48839Y28071D02*
D03*
X43839D02*
D03*
X38839D02*
D03*
X33839D02*
D03*
D19*
X41339Y39370D02*
D03*
D20*
X33071Y17717D02*
D03*
X27953D02*
D03*
D21*
X46004Y73721D02*
D03*
D22*
X9843Y7874D02*
D03*
X72835D02*
D03*
X41339D02*
D03*
D23*
X36673Y41929D02*
D03*
X36654Y36811D02*
D03*
X41180D02*
D03*
X25599Y71260D02*
D03*
X19689D02*
D03*
X25599Y77165D02*
D03*
X13780D02*
D03*
X19689D02*
D03*
X13780Y71260D02*
D03*
X19689Y65354D02*
D03*
X13780D02*
D03*
X25599D02*
D03*
X68512Y65748D02*
D03*
X56693D02*
D03*
X62603D02*
D03*
X56693Y71653D02*
D03*
X62603Y77559D02*
D03*
X56693D02*
D03*
X68512D02*
D03*
X62603Y71653D02*
D03*
X68512D02*
D03*
X41180Y41929D02*
D03*
X45661D02*
D03*
Y36811D02*
D03*
M02*
