G04*
G04 #@! TF.GenerationSoftware,Altium Limited,Altium Designer,19.1.8 (144)*
G04*
G04 Layer_Physical_Order=1*
G04 Layer_Color=255*
%FSLAX25Y25*%
%MOIN*%
G70*
G01*
G75*
%ADD24R,0.02362X0.09449*%
%ADD25R,0.06299X0.09449*%
%ADD26R,0.03268X0.02461*%
%ADD27R,0.03740X0.03347*%
%ADD28R,0.05512X0.05118*%
%ADD29O,0.03150X0.08661*%
%ADD30R,0.13394X0.09894*%
%ADD31R,0.03347X0.03740*%
%ADD32C,0.01968*%
%ADD33R,0.01378X0.01968*%
G04:AMPARAMS|DCode=34|XSize=98.43mil|YSize=137.8mil|CornerRadius=49.21mil|HoleSize=0mil|Usage=FLASHONLY|Rotation=90.000|XOffset=0mil|YOffset=0mil|HoleType=Round|Shape=RoundedRectangle|*
%AMROUNDEDRECTD34*
21,1,0.09843,0.03937,0,0,90.0*
21,1,0.00000,0.13780,0,0,90.0*
1,1,0.09843,0.01968,0.00000*
1,1,0.09843,0.01968,0.00000*
1,1,0.09843,-0.01968,0.00000*
1,1,0.09843,-0.01968,0.00000*
%
%ADD34ROUNDEDRECTD34*%
%ADD35C,0.02756*%
G36*
X41296Y55602D02*
X40895Y55436D01*
X40796Y55421D01*
X40238Y55849D01*
X39563Y56129D01*
X38839Y56224D01*
X38114Y56129D01*
X37439Y55849D01*
X36860Y55404D01*
X36654Y55136D01*
X36024D01*
X35818Y55404D01*
X35238Y55849D01*
X34563Y56129D01*
X33839Y56224D01*
X33114Y56129D01*
X32439Y55849D01*
X31860Y55404D01*
X31415Y54825D01*
X31135Y54150D01*
X31040Y53425D01*
Y52896D01*
X14145D01*
X14145Y52896D01*
X13293Y52727D01*
X12571Y52244D01*
X12571Y52244D01*
X11417Y51091D01*
X10935Y50368D01*
X10765Y49516D01*
X10765Y49516D01*
Y40157D01*
X10765Y40157D01*
X10935Y39305D01*
X11417Y38583D01*
X14764Y35236D01*
X14764Y35236D01*
X15486Y34754D01*
X16339Y34584D01*
X17009D01*
Y33938D01*
X17852D01*
Y31958D01*
X17245D01*
Y27097D01*
X22913D01*
Y31958D01*
X22306D01*
Y33938D01*
X23149D01*
Y39684D01*
X17009D01*
Y39684D01*
X16730Y39569D01*
X15219Y41080D01*
Y48442D01*
X31040D01*
Y47913D01*
X31135Y47189D01*
X31415Y46514D01*
X31860Y45934D01*
X32439Y45490D01*
X33114Y45210D01*
X33839Y45115D01*
X34563Y45210D01*
X35238Y45490D01*
X35818Y45934D01*
X36024Y46203D01*
X36654D01*
X36860Y45934D01*
X37439Y45490D01*
X38114Y45210D01*
X38839Y45115D01*
X39563Y45210D01*
X40238Y45490D01*
X40818Y45934D01*
X41023Y46203D01*
X41654D01*
X41860Y45934D01*
X42439Y45490D01*
X43114Y45210D01*
X43839Y45115D01*
X44563Y45210D01*
X45238Y45490D01*
X45818Y45934D01*
X45884Y46021D01*
X46793D01*
X46860Y45934D01*
X47439Y45490D01*
X48114Y45210D01*
X48839Y45115D01*
X49563Y45210D01*
X50238Y45490D01*
X50818Y45934D01*
X50884Y46021D01*
X78706D01*
Y31932D01*
X69310D01*
Y39192D01*
X61398D01*
Y31932D01*
X60649D01*
Y39192D01*
X52737D01*
Y31932D01*
X51384D01*
X51262Y32226D01*
X50818Y32806D01*
X50238Y33251D01*
X49563Y33530D01*
X48839Y33626D01*
X48114Y33530D01*
X47439Y33251D01*
X46860Y32806D01*
X46654Y32537D01*
X46023D01*
X45818Y32806D01*
X45238Y33251D01*
X44563Y33530D01*
X43839Y33626D01*
X43114Y33530D01*
X42439Y33251D01*
X41860Y32806D01*
X41415Y32226D01*
X41135Y31551D01*
X41108Y31345D01*
X40996Y31177D01*
X40903Y30709D01*
Y14025D01*
X40091D01*
Y14697D01*
X40091Y14697D01*
X39921Y15549D01*
X39438Y16272D01*
X39438Y16272D01*
X36419Y19291D01*
X35944Y19609D01*
Y20787D01*
X25080D01*
Y19944D01*
X24456D01*
X22913Y21487D01*
Y23198D01*
X17245D01*
Y18337D01*
X19763D01*
X21959Y16142D01*
X21959Y16142D01*
X22681Y15659D01*
X23534Y15489D01*
X23534Y15489D01*
X25080D01*
Y14647D01*
X34765D01*
X35636Y13775D01*
Y12729D01*
X35021Y12223D01*
X34256Y11291D01*
X33687Y10228D01*
X33337Y9074D01*
X33219Y7874D01*
X33337Y6674D01*
X33687Y5520D01*
X34256Y4457D01*
X34284Y4423D01*
X34070Y3971D01*
X3971D01*
Y90517D01*
X41296Y90517D01*
Y55602D01*
D02*
G37*
G36*
X78706Y47244D02*
X42520D01*
Y90517D01*
X78706Y90517D01*
Y47244D01*
D02*
G37*
G36*
Y3971D02*
X48607D01*
X48394Y4423D01*
X48421Y4457D01*
X48990Y5520D01*
X49340Y6674D01*
X49458Y7874D01*
X49340Y9074D01*
X48990Y10228D01*
X48421Y11291D01*
X47656Y12223D01*
X46724Y12988D01*
X45661Y13557D01*
X44507Y13907D01*
X43307Y14025D01*
X42126D01*
Y30709D01*
X78706D01*
Y3971D01*
D02*
G37*
%LPC*%
G36*
X29842Y39684D02*
X23702D01*
Y33938D01*
X24545D01*
Y31862D01*
X24545Y31862D01*
X24714Y31010D01*
X25197Y30287D01*
X28988Y26496D01*
X28988Y26496D01*
X29710Y26013D01*
X30563Y25844D01*
X31040D01*
Y25315D01*
X31135Y24591D01*
X31415Y23916D01*
X31860Y23336D01*
X32439Y22891D01*
X33114Y22612D01*
X33839Y22516D01*
X34563Y22612D01*
X35238Y22891D01*
X35818Y23336D01*
X36262Y23916D01*
X36542Y24591D01*
X36637Y25315D01*
Y30827D01*
X36542Y31551D01*
X36262Y32226D01*
X35818Y32806D01*
X35238Y33251D01*
X34563Y33530D01*
X33839Y33626D01*
X33114Y33530D01*
X32439Y33251D01*
X31860Y32806D01*
X31415Y32226D01*
X31135Y31551D01*
X31112Y31378D01*
X30584Y31198D01*
X28999Y32784D01*
Y33938D01*
X29842D01*
Y39684D01*
D02*
G37*
G36*
X46693Y75928D02*
X45315D01*
X44847Y75835D01*
X44450Y75570D01*
X44184Y75173D01*
X44091Y74705D01*
Y72736D01*
X44184Y72268D01*
X44450Y71871D01*
X44847Y71606D01*
X45315Y71513D01*
X46693D01*
X47161Y71606D01*
X47558Y71871D01*
X47823Y72268D01*
X47916Y72736D01*
Y74705D01*
X47823Y75173D01*
X47558Y75570D01*
X47161Y75835D01*
X46693Y75928D01*
D02*
G37*
%LPD*%
D24*
X44331Y73721D02*
D03*
D25*
X37835D02*
D03*
D26*
X20079Y29528D02*
D03*
Y20768D02*
D03*
D27*
X26772Y41929D02*
D03*
Y36811D02*
D03*
X20079Y41929D02*
D03*
Y36811D02*
D03*
D28*
X65354Y41732D02*
D03*
Y35433D02*
D03*
X56693Y41732D02*
D03*
Y35433D02*
D03*
D29*
X33839Y50669D02*
D03*
X48839D02*
D03*
X43839D02*
D03*
X38839D02*
D03*
X48839Y28071D02*
D03*
X43839D02*
D03*
X38839D02*
D03*
X33839D02*
D03*
D30*
X41339Y39370D02*
D03*
D31*
X33071Y17717D02*
D03*
X27953D02*
D03*
D32*
X30563Y28071D02*
X33839D01*
X26772Y31862D02*
X30563Y28071D01*
X55824D02*
X56693Y27202D01*
X48839Y28071D02*
X55824D01*
X43839D02*
X48839D01*
X65354D02*
Y35433D01*
X56693Y27202D02*
Y35433D01*
X16339Y36811D02*
X20079D01*
X12992Y40157D02*
X16339Y36811D01*
X12992Y40157D02*
Y49516D01*
X14145Y50669D01*
X33839D01*
X26772Y31862D02*
Y36811D01*
X20079Y29528D02*
Y36811D01*
X34844Y17717D02*
X37863Y14697D01*
Y11349D02*
Y14697D01*
Y11349D02*
X41339Y7874D01*
X33071Y17717D02*
X34844D01*
X20482Y20768D02*
X23534Y17717D01*
X20079Y20768D02*
X20482D01*
X23534Y17717D02*
X27953D01*
X39370Y7874D02*
X41339D01*
D33*
X46004Y73721D02*
D03*
D34*
X9843Y7874D02*
D03*
X72835D02*
D03*
X41339D02*
D03*
D35*
X36673Y41929D02*
D03*
X36654Y36811D02*
D03*
X41180D02*
D03*
X25599Y71260D02*
D03*
X19689D02*
D03*
X25599Y77165D02*
D03*
X13780D02*
D03*
X19689D02*
D03*
X13780Y71260D02*
D03*
X19689Y65354D02*
D03*
X13780D02*
D03*
X25599D02*
D03*
X68512Y65748D02*
D03*
X56693D02*
D03*
X62603D02*
D03*
X56693Y71653D02*
D03*
X62603Y77559D02*
D03*
X56693D02*
D03*
X68512D02*
D03*
X62603Y71653D02*
D03*
X68512D02*
D03*
X41180Y41929D02*
D03*
X45661D02*
D03*
Y36811D02*
D03*
M02*
