G04*
G04 #@! TF.GenerationSoftware,Altium Limited,Altium Designer,19.1.8 (144)*
G04*
G04 Layer_Physical_Order=2*
G04 Layer_Color=16711680*
%FSLAX25Y25*%
%MOIN*%
G70*
G01*
G75*
G04:AMPARAMS|DCode=34|XSize=98.43mil|YSize=137.8mil|CornerRadius=49.21mil|HoleSize=0mil|Usage=FLASHONLY|Rotation=90.000|XOffset=0mil|YOffset=0mil|HoleType=Round|Shape=RoundedRectangle|*
%AMROUNDEDRECTD34*
21,1,0.09843,0.03937,0,0,90.0*
21,1,0.00000,0.13780,0,0,90.0*
1,1,0.09843,0.01968,0.00000*
1,1,0.09843,0.01968,0.00000*
1,1,0.09843,-0.01968,0.00000*
1,1,0.09843,-0.01968,0.00000*
%
%ADD34ROUNDEDRECTD34*%
%ADD35C,0.02756*%
G36*
X78706Y48031D02*
X42520D01*
Y90517D01*
X78706Y90517D01*
Y48031D01*
D02*
G37*
G36*
X41296D02*
X41389Y47563D01*
X41655Y47166D01*
X42052Y46901D01*
X42520Y46808D01*
X78706D01*
Y13174D01*
X78254Y12960D01*
X78220Y12988D01*
X77157Y13557D01*
X76003Y13907D01*
X74803Y14025D01*
X70866D01*
X69666Y13907D01*
X68512Y13557D01*
X67449Y12988D01*
X66517Y12223D01*
X65752Y11291D01*
X65184Y10228D01*
X64833Y9074D01*
X64715Y7874D01*
X64833Y6674D01*
X65184Y5520D01*
X65752Y4457D01*
X65780Y4423D01*
X65566Y3971D01*
X48607D01*
X48394Y4423D01*
X48421Y4457D01*
X48990Y5520D01*
X49340Y6674D01*
X49458Y7874D01*
X49340Y9074D01*
X48990Y10228D01*
X48421Y11291D01*
X47656Y12223D01*
X46724Y12988D01*
X45661Y13557D01*
X44507Y13907D01*
X43307Y14025D01*
X39370D01*
X38170Y13907D01*
X37016Y13557D01*
X35953Y12988D01*
X35021Y12223D01*
X34256Y11291D01*
X33687Y10228D01*
X33337Y9074D01*
X33219Y7874D01*
X33337Y6674D01*
X33687Y5520D01*
X34256Y4457D01*
X34284Y4423D01*
X34070Y3971D01*
X3971D01*
Y90517D01*
X41296Y90517D01*
Y48031D01*
D02*
G37*
D34*
X9843Y7874D02*
D03*
X72835D02*
D03*
X41339D02*
D03*
D35*
X36673Y41929D02*
D03*
X36654Y36811D02*
D03*
X41180D02*
D03*
X25599Y71260D02*
D03*
X19689D02*
D03*
X25599Y77165D02*
D03*
X13780D02*
D03*
X19689D02*
D03*
X13780Y71260D02*
D03*
X19689Y65354D02*
D03*
X13780D02*
D03*
X25599D02*
D03*
X68512Y65748D02*
D03*
X56693D02*
D03*
X62603D02*
D03*
X56693Y71653D02*
D03*
X62603Y77559D02*
D03*
X56693D02*
D03*
X68512D02*
D03*
X62603Y71653D02*
D03*
X68512D02*
D03*
X41180Y41929D02*
D03*
X45661D02*
D03*
Y36811D02*
D03*
M02*
