G04*
G04 #@! TF.GenerationSoftware,Altium Limited,Altium Designer,19.1.8 (144)*
G04*
G04 Layer_Color=16711935*
%FSLAX25Y25*%
%MOIN*%
G70*
G01*
G75*
%ADD37C,0.00394*%
G36*
X38681Y67815D02*
X34744Y71752D01*
X34744Y67815D01*
X38681D01*
D02*
G37*
D37*
X33071Y35039D02*
X33335Y34055D01*
X34055Y33335D01*
X35039Y33071D01*
X36024Y33335D01*
X36744Y34055D01*
X37008Y35039D01*
X36744Y36024D01*
X36024Y36744D01*
X35039Y37008D01*
X34744Y67815D02*
Y79626D01*
Y67815D02*
X46555D01*
X34744Y79626D02*
X46555D01*
Y67815D02*
Y79626D01*
X22736Y21604D02*
Y28691D01*
X17421Y21604D02*
Y28691D01*
X22736D01*
X17421Y21604D02*
X22736D01*
X24902Y42815D02*
X28642D01*
X24902Y35925D02*
X28642D01*
Y42815D01*
X24902Y35925D02*
Y42815D01*
X62598Y42913D02*
X68110D01*
X62598Y34252D02*
X68110D01*
Y42913D01*
X62598Y34252D02*
Y42913D01*
X51181Y31496D02*
Y47244D01*
X31496Y31496D02*
Y47244D01*
X51181D01*
X31496Y31496D02*
X51181D01*
X33957Y15846D02*
Y19587D01*
X27067Y15846D02*
Y19587D01*
Y15846D02*
X33957D01*
X27067Y19587D02*
X33957D01*
X18209Y42815D02*
X21949D01*
X18209Y35925D02*
X21949D01*
Y42815D01*
X18209Y35925D02*
Y42815D01*
X53937Y42913D02*
X59449D01*
X53937Y34252D02*
X59449D01*
Y42913D01*
X53937Y34252D02*
Y42913D01*
M02*
