G04*
G04 #@! TF.GenerationSoftware,Altium Limited,Altium Designer,19.1.8 (144)*
G04*
G04 Layer_Color=32768*
%FSLAX25Y25*%
%MOIN*%
G70*
G01*
G75*
%ADD11C,0.00787*%
%ADD37C,0.00394*%
%ADD38C,0.00197*%
D11*
X38681Y73721D02*
X42618D01*
X40650Y71752D02*
Y75689D01*
D37*
X33563Y80413D02*
X47736D01*
X33563Y67028D02*
Y80413D01*
Y67028D02*
X47736D01*
Y80413D01*
X18110Y25148D02*
X22047D01*
X20079Y23179D02*
Y27116D01*
X26772Y37500D02*
Y41240D01*
X24902Y39370D02*
X28642D01*
X65354Y36614D02*
Y40551D01*
X63386Y38583D02*
X67323D01*
X39370Y39370D02*
X43307D01*
X41339Y37402D02*
Y41339D01*
X28642Y17717D02*
X32382D01*
X30512Y15846D02*
Y19587D01*
X20079Y37500D02*
Y41240D01*
X18209Y39370D02*
X21949D01*
X56693Y36614D02*
Y40551D01*
X54724Y38583D02*
X58661D01*
D38*
X23425Y18455D02*
Y31841D01*
X16732Y18455D02*
Y31841D01*
X23425D01*
X16732Y18455D02*
X23425D01*
X23819Y44685D02*
X29724D01*
X23819Y34055D02*
X29724D01*
Y44685D01*
X23819Y34055D02*
Y44685D01*
X61614Y45276D02*
X69095D01*
X61614Y31890D02*
X69095D01*
Y45276D01*
X61614Y31890D02*
Y45276D01*
X51968Y22835D02*
Y55905D01*
X30709Y22835D02*
Y55905D01*
X51968D01*
X30709Y22835D02*
X51968D01*
X35827Y14764D02*
Y20669D01*
X25197Y14764D02*
Y20669D01*
Y14764D02*
X35827D01*
X25197Y20669D02*
X35827D01*
X17126Y44685D02*
X23031D01*
X17126Y34055D02*
X23031D01*
Y44685D01*
X17126Y34055D02*
Y44685D01*
X52953Y45276D02*
X60433D01*
X52953Y31890D02*
X60433D01*
Y45276D01*
X52953Y31890D02*
Y45276D01*
M02*
