G04*
G04 #@! TF.GenerationSoftware,Altium Limited,Altium Designer,19.1.8 (144)*
G04*
G04 Layer_Color=2752767*
%FSLAX25Y25*%
%MOIN*%
G70*
G01*
G75*
%ADD39C,0.00200*%
%ADD40C,0.00267*%
D39*
X9042Y7074D02*
Y8674D01*
X10643D01*
Y7074D01*
X9042D01*
X72035D02*
Y8674D01*
X73635D01*
Y7074D01*
X72035D01*
X40539D02*
Y8674D01*
X42139D01*
Y7074D01*
X40539D01*
D40*
X37473Y41929D02*
X36920Y42690D01*
X36026Y42399D01*
Y41459D01*
X36920Y41168D01*
X37473Y41929D01*
X37454Y36811D02*
X36901Y37572D01*
X36007Y37281D01*
Y36341D01*
X36901Y36050D01*
X37454Y36811D01*
X41980D02*
X41428Y37572D01*
X40533Y37281D01*
Y36341D01*
X41428Y36050D01*
X41980Y36811D01*
X26399Y71260D02*
X25846Y72021D01*
X24952Y71730D01*
Y70790D01*
X25846Y70499D01*
X26399Y71260D01*
X20489D02*
X19936Y72021D01*
X19042Y71730D01*
Y70790D01*
X19936Y70499D01*
X20489Y71260D01*
X26399Y77165D02*
X25846Y77926D01*
X24952Y77636D01*
Y76695D01*
X25846Y76405D01*
X26399Y77165D01*
X14580D02*
X14027Y77926D01*
X13132Y77636D01*
Y76695D01*
X14027Y76405D01*
X14580Y77165D01*
X20489D02*
X19936Y77926D01*
X19042Y77636D01*
Y76695D01*
X19936Y76405D01*
X20489Y77165D01*
X14580Y71260D02*
X14027Y72021D01*
X13132Y71730D01*
Y70790D01*
X14027Y70499D01*
X14580Y71260D01*
X20489Y65354D02*
X19936Y66115D01*
X19042Y65825D01*
Y64884D01*
X19936Y64593D01*
X20489Y65354D01*
X14580D02*
X14027Y66115D01*
X13132Y65825D01*
Y64884D01*
X14027Y64593D01*
X14580Y65354D01*
X26399D02*
X25846Y66115D01*
X24952Y65825D01*
Y64884D01*
X25846Y64593D01*
X26399Y65354D01*
X69312Y65748D02*
X68760Y66509D01*
X67865Y66218D01*
Y65278D01*
X68760Y64987D01*
X69312Y65748D01*
X57493D02*
X56940Y66509D01*
X56046Y66218D01*
Y65278D01*
X56940Y64987D01*
X57493Y65748D01*
X63403D02*
X62850Y66509D01*
X61955Y66218D01*
Y65278D01*
X62850Y64987D01*
X63403Y65748D01*
X57493Y71653D02*
X56940Y72414D01*
X56046Y72124D01*
Y71183D01*
X56940Y70893D01*
X57493Y71653D01*
X63403Y77559D02*
X62850Y78320D01*
X61955Y78029D01*
Y77089D01*
X62850Y76798D01*
X63403Y77559D01*
X57493D02*
X56940Y78320D01*
X56046Y78029D01*
Y77089D01*
X56940Y76798D01*
X57493Y77559D01*
X69312D02*
X68760Y78320D01*
X67865Y78029D01*
Y77089D01*
X68760Y76798D01*
X69312Y77559D01*
X63403Y71653D02*
X62850Y72414D01*
X61955Y72124D01*
Y71183D01*
X62850Y70893D01*
X63403Y71653D01*
X69312D02*
X68760Y72414D01*
X67865Y72124D01*
Y71183D01*
X68760Y70893D01*
X69312Y71653D01*
X41980Y41929D02*
X41428Y42690D01*
X40533Y42399D01*
Y41459D01*
X41428Y41168D01*
X41980Y41929D01*
X46461D02*
X45908Y42690D01*
X45014Y42399D01*
Y41459D01*
X45908Y41168D01*
X46461Y41929D01*
Y36811D02*
X45908Y37572D01*
X45014Y37281D01*
Y36341D01*
X45908Y36050D01*
X46461Y36811D01*
M02*
