G04*
G04 #@! TF.GenerationSoftware,Altium Limited,Altium Designer,19.1.8 (144)*
G04*
G04 Layer_Color=255*
%FSLAX25Y25*%
%MOIN*%
G70*
G01*
G75*
%ADD61C,0.06201*%
%ADD62R,0.06201X0.06201*%
%ADD63C,0.06500*%
%ADD64P,0.07036X8X202.5*%
G04:AMPARAMS|DCode=65|XSize=80mil|YSize=60mil|CornerRadius=0mil|HoleSize=0mil|Usage=FLASHONLY|Rotation=180.000|XOffset=0mil|YOffset=0mil|HoleType=Round|Shape=Octagon|*
%AMOCTAGOND65*
4,1,8,-0.04000,0.01500,-0.04000,-0.01500,-0.02500,-0.03000,0.02500,-0.03000,0.04000,-0.01500,0.04000,0.01500,0.02500,0.03000,-0.02500,0.03000,-0.04000,0.01500,0.0*
%
%ADD65OCTAGOND65*%

%ADD66R,0.10925X0.10925*%
%ADD67C,0.10925*%
%ADD68C,0.12268*%
%ADD69C,0.06496*%
%ADD70P,0.09200X8X112.5*%
%ADD71R,0.05937X0.05937*%
%ADD72C,0.05937*%
D61*
X212441Y226575D02*
D03*
X317224D02*
D03*
D62*
X212441Y236417D02*
D03*
X317224D02*
D03*
D63*
X178228Y104331D02*
D03*
X225394Y111221D02*
D03*
X163110Y81653D02*
D03*
Y21654D02*
D03*
X323110Y81653D02*
D03*
Y21654D02*
D03*
D64*
X168228Y104331D02*
D03*
X211394Y111221D02*
D03*
D65*
X146653Y45276D02*
D03*
Y55276D02*
D03*
D66*
X53150Y156496D02*
D03*
X316929Y119095D02*
D03*
D67*
X53150D02*
D03*
X316929Y156496D02*
D03*
D68*
X163583Y243307D02*
D03*
X93504Y203543D02*
D03*
X163583Y213386D02*
D03*
X128543Y143701D02*
D03*
D69*
X148622Y153543D02*
D03*
X108465D02*
D03*
D70*
X213583Y159213D02*
D03*
Y189213D02*
D03*
D71*
X313110Y81653D02*
D03*
D72*
X303110D02*
D03*
X293110D02*
D03*
X283110D02*
D03*
X273110D02*
D03*
X263110D02*
D03*
X253110D02*
D03*
X243110D02*
D03*
X233110D02*
D03*
X223110D02*
D03*
X213110D02*
D03*
X203110D02*
D03*
X193110D02*
D03*
X183110D02*
D03*
X173110D02*
D03*
Y21654D02*
D03*
X183110D02*
D03*
X193110D02*
D03*
X203110D02*
D03*
X213110D02*
D03*
X223110D02*
D03*
X233110D02*
D03*
X243110D02*
D03*
X253110D02*
D03*
X263110D02*
D03*
X273110D02*
D03*
X283110D02*
D03*
X293110D02*
D03*
X303110D02*
D03*
X313110D02*
D03*
M02*
