G04*
G04 #@! TF.GenerationSoftware,Altium Limited,Altium Designer,19.1.8 (144)*
G04*
G04 Layer_Physical_Order=2*
G04 Layer_Color=16711680*
%FSLAX25Y25*%
%MOIN*%
G70*
G01*
G75*
%ADD11C,0.01968*%
%ADD57C,0.03937*%
%ADD60C,0.23622*%
%ADD61C,0.06201*%
%ADD62R,0.06201X0.06201*%
%ADD63C,0.06500*%
%ADD64P,0.07036X8X202.5*%
G04:AMPARAMS|DCode=65|XSize=80mil|YSize=60mil|CornerRadius=0mil|HoleSize=0mil|Usage=FLASHONLY|Rotation=180.000|XOffset=0mil|YOffset=0mil|HoleType=Round|Shape=Octagon|*
%AMOCTAGOND65*
4,1,8,-0.04000,0.01500,-0.04000,-0.01500,-0.02500,-0.03000,0.02500,-0.03000,0.04000,-0.01500,0.04000,0.01500,0.02500,0.03000,-0.02500,0.03000,-0.04000,0.01500,0.0*
%
%ADD65OCTAGOND65*%

%ADD66R,0.10925X0.10925*%
%ADD67C,0.10925*%
%ADD68C,0.12268*%
%ADD69C,0.06496*%
%ADD70P,0.09200X8X112.5*%
%ADD71R,0.05937X0.05937*%
%ADD72C,0.05937*%
%ADD73C,0.02756*%
G36*
X366108Y3971D02*
X3971D01*
Y271620D01*
X366108D01*
Y3971D01*
D02*
G37*
%LPC*%
G36*
X349694Y270905D02*
X348337D01*
X348143Y270866D01*
X347946D01*
X346615Y270601D01*
X346432Y270526D01*
X346238Y270487D01*
X344984Y269968D01*
X344820Y269858D01*
X344637Y269782D01*
X343509Y269028D01*
X343369Y268888D01*
X343205Y268779D01*
X342245Y267819D01*
X342135Y267655D01*
X341995Y267515D01*
X341241Y266387D01*
X341166Y266204D01*
X341056Y266039D01*
X340536Y264786D01*
X340498Y264592D01*
X340422Y264409D01*
X340158Y263078D01*
Y262880D01*
X340119Y262686D01*
Y261329D01*
X340158Y261135D01*
Y260938D01*
X340422Y259607D01*
X340498Y259424D01*
X340536Y259230D01*
X341056Y257976D01*
X341166Y257812D01*
X341241Y257629D01*
X341995Y256501D01*
X342135Y256361D01*
X342245Y256197D01*
X343205Y255237D01*
X343369Y255127D01*
X343509Y254987D01*
X344637Y254233D01*
X344820Y254158D01*
X344984Y254048D01*
X346238Y253529D01*
X346432Y253490D01*
X346615Y253414D01*
X347946Y253150D01*
X348143D01*
X348337Y253111D01*
X349694D01*
X349888Y253150D01*
X350086D01*
X351417Y253414D01*
X351600Y253490D01*
X351794Y253529D01*
X353047Y254048D01*
X353212Y254158D01*
X353394Y254233D01*
X354523Y254987D01*
X354663Y255127D01*
X354827Y255237D01*
X355787Y256197D01*
X355896Y256361D01*
X356036Y256501D01*
X356790Y257629D01*
X356866Y257812D01*
X356976Y257976D01*
X357495Y259230D01*
X357534Y259424D01*
X357609Y259607D01*
X357874Y260938D01*
Y261135D01*
X357913Y261329D01*
Y262686D01*
X357874Y262880D01*
Y263078D01*
X357609Y264409D01*
X357534Y264592D01*
X357495Y264786D01*
X356976Y266039D01*
X356866Y266204D01*
X356790Y266387D01*
X356036Y267515D01*
X355896Y267655D01*
X355787Y267819D01*
X354827Y268779D01*
X354663Y268888D01*
X354523Y269028D01*
X353394Y269782D01*
X353212Y269858D01*
X353047Y269968D01*
X351794Y270487D01*
X351600Y270526D01*
X351417Y270601D01*
X350086Y270866D01*
X349888D01*
X349694Y270905D01*
D02*
G37*
G36*
X21742D02*
X20384D01*
X20190Y270866D01*
X19993D01*
X18662Y270601D01*
X18479Y270526D01*
X18285Y270487D01*
X17031Y269968D01*
X16867Y269858D01*
X16684Y269782D01*
X15556Y269028D01*
X15416Y268888D01*
X15252Y268779D01*
X14292Y267819D01*
X14182Y267655D01*
X14042Y267515D01*
X13288Y266387D01*
X13213Y266204D01*
X13103Y266039D01*
X12584Y264786D01*
X12545Y264592D01*
X12470Y264409D01*
X12205Y263078D01*
Y262880D01*
X12166Y262686D01*
Y261329D01*
X12205Y261135D01*
Y260938D01*
X12470Y259607D01*
X12545Y259424D01*
X12584Y259230D01*
X13103Y257976D01*
X13213Y257812D01*
X13288Y257629D01*
X14042Y256501D01*
X14182Y256361D01*
X14292Y256197D01*
X15252Y255237D01*
X15416Y255127D01*
X15556Y254987D01*
X16684Y254233D01*
X16867Y254158D01*
X17031Y254048D01*
X18285Y253529D01*
X18479Y253490D01*
X18662Y253414D01*
X19993Y253150D01*
X20190D01*
X20384Y253111D01*
X21742D01*
X21935Y253150D01*
X22133D01*
X23464Y253414D01*
X23647Y253490D01*
X23841Y253529D01*
X25095Y254048D01*
X25259Y254158D01*
X25442Y254233D01*
X26570Y254987D01*
X26710Y255127D01*
X26874Y255237D01*
X27834Y256197D01*
X27944Y256361D01*
X28083Y256501D01*
X28837Y257629D01*
X28913Y257812D01*
X29023Y257976D01*
X29542Y259230D01*
X29581Y259424D01*
X29656Y259607D01*
X29921Y260938D01*
Y261135D01*
X29960Y261329D01*
Y262686D01*
X29921Y262880D01*
Y263078D01*
X29656Y264409D01*
X29581Y264592D01*
X29542Y264786D01*
X29023Y266039D01*
X28913Y266204D01*
X28837Y266387D01*
X28083Y267515D01*
X27944Y267655D01*
X27834Y267819D01*
X26874Y268779D01*
X26710Y268888D01*
X26570Y269028D01*
X25442Y269782D01*
X25259Y269858D01*
X25095Y269968D01*
X23841Y270487D01*
X23647Y270526D01*
X23464Y270601D01*
X22133Y270866D01*
X21936D01*
X21742Y270905D01*
D02*
G37*
G36*
X163583Y250676D02*
X162145Y250535D01*
X160763Y250115D01*
X159488Y249434D01*
X158372Y248518D01*
X157455Y247401D01*
X156774Y246127D01*
X156355Y244745D01*
X156213Y243307D01*
X156355Y241869D01*
X156774Y240487D01*
X156924Y240207D01*
X156527Y239888D01*
X155565Y240710D01*
X153716Y241843D01*
X151712Y242673D01*
X149603Y243179D01*
X147441Y243350D01*
X145279Y243179D01*
X145168Y243153D01*
X59720D01*
X59609Y243179D01*
X57446Y243350D01*
X55284Y243179D01*
X53175Y242673D01*
X51171Y241843D01*
X49322Y240710D01*
X47673Y239301D01*
X12633Y204262D01*
X11225Y202613D01*
X10091Y200763D01*
X9262Y198759D01*
X8755Y196651D01*
X8585Y194488D01*
X8619Y194058D01*
Y86614D01*
X8789Y84452D01*
X9295Y82343D01*
X9546Y81736D01*
X9551Y81715D01*
X10119Y80343D01*
X10165Y80275D01*
X10195Y80225D01*
X10235Y80108D01*
X10978Y78821D01*
X11065Y78722D01*
X11124Y78603D01*
X12028Y77425D01*
X12127Y77337D01*
X12201Y77227D01*
X13251Y76177D01*
X13361Y76104D01*
X13448Y76004D01*
X14627Y75100D01*
X14746Y75042D01*
X14845Y74954D01*
X16131Y74212D01*
X16257Y74169D01*
X16367Y74095D01*
X17739Y73527D01*
X17869Y73501D01*
X17987Y73443D01*
X19422Y73058D01*
X19554Y73050D01*
X19680Y73007D01*
X21152Y72813D01*
X21284Y72822D01*
X21414Y72796D01*
X22390D01*
X22441Y72792D01*
X22492Y72796D01*
X45276Y72796D01*
X45339Y72809D01*
X45404Y72800D01*
X45986Y72838D01*
X46178Y72889D01*
X46376Y72901D01*
X47503Y73203D01*
X47681Y73290D01*
X47872Y73341D01*
X48919Y73857D01*
X49076Y73978D01*
X49254Y74066D01*
X50179Y74777D01*
X50310Y74926D01*
X50467Y75046D01*
X51235Y75924D01*
X51334Y76096D01*
X51465Y76246D01*
X51623Y76521D01*
X51719Y76557D01*
X52204Y76529D01*
X52676Y75823D01*
X52816Y75683D01*
X52925Y75519D01*
X53671Y74773D01*
X53836Y74663D01*
X53975Y74523D01*
X54852Y73937D01*
X55035Y73862D01*
X55199Y73752D01*
X56173Y73348D01*
X56367Y73310D01*
X56550Y73234D01*
X57584Y73028D01*
X57782D01*
X57976Y72990D01*
X58503Y72990D01*
X68558Y72990D01*
X69070Y72990D01*
X69262Y73028D01*
X69458Y73027D01*
X70462Y73225D01*
X70643Y73299D01*
X70836Y73337D01*
X71783Y73725D01*
X71947Y73833D01*
X72128Y73907D01*
X72983Y74471D01*
X73122Y74608D01*
X73286Y74716D01*
X74016Y75434D01*
X74126Y75596D01*
X74265Y75734D01*
X74843Y76579D01*
X74919Y76760D01*
X75030Y76921D01*
X75433Y77863D01*
X75473Y78054D01*
X75551Y78234D01*
X75764Y79236D01*
X75767Y79432D01*
X75808Y79623D01*
X75816Y80135D01*
X75905Y85953D01*
X75904Y85961D01*
X75905Y85969D01*
X75989Y97605D01*
X75987Y97613D01*
X75989Y97622D01*
X75977Y109258D01*
X75976Y109266D01*
X75977Y109274D01*
X75870Y120911D01*
X75868Y120919D01*
X75870Y120927D01*
X75768Y126744D01*
X75768Y126744D01*
X75752Y127687D01*
X75710Y127878D01*
X75707Y128073D01*
X75311Y129917D01*
X75234Y130096D01*
X75193Y130288D01*
X74449Y132020D01*
X74338Y132181D01*
X74261Y132361D01*
X73197Y133917D01*
X73057Y134054D01*
X72947Y134215D01*
X71602Y135537D01*
X71439Y135644D01*
X71300Y135782D01*
X69725Y136819D01*
X69544Y136892D01*
X69381Y137000D01*
X67636Y137714D01*
X67444Y137752D01*
X67263Y137826D01*
X65413Y138190D01*
X65218Y138189D01*
X65026Y138227D01*
X64083Y138227D01*
X44094Y138227D01*
X44094Y138227D01*
X43745Y138227D01*
X43551Y138189D01*
X43354D01*
X42669Y138053D01*
X42487Y137977D01*
X42293Y137938D01*
X41648Y137671D01*
X41484Y137562D01*
X41301Y137486D01*
X40721Y137098D01*
X40581Y136958D01*
X40416Y136849D01*
X39923Y136355D01*
X39813Y136191D01*
X39673Y136051D01*
X39286Y135471D01*
X39210Y135288D01*
X39100Y135124D01*
X38833Y134479D01*
X38794Y134285D01*
X38719Y134102D01*
X38583Y133418D01*
Y133220D01*
X38544Y133026D01*
X38544Y132677D01*
X38544Y132677D01*
X38544Y132677D01*
X38544Y116535D01*
X38544Y116147D01*
X38583Y115954D01*
Y115756D01*
X38734Y114995D01*
X38810Y114813D01*
X38848Y114619D01*
X39145Y113902D01*
X39255Y113738D01*
X39331Y113555D01*
X39761Y112910D01*
X39901Y112771D01*
X39913Y112753D01*
X39708Y112253D01*
X36263D01*
Y188797D01*
X62975Y215509D01*
X85736D01*
X85872Y215027D01*
X85379Y214726D01*
X83730Y213317D01*
X82322Y211668D01*
X81188Y209818D01*
X80358Y207815D01*
X79852Y205706D01*
X79682Y203543D01*
Y178347D01*
X79744Y177553D01*
X79773Y176757D01*
X79829Y176473D01*
X79852Y176184D01*
X80038Y175410D01*
X80191Y174629D01*
X80291Y174357D01*
X80358Y174075D01*
X80663Y173340D01*
X80937Y172592D01*
X81077Y172339D01*
X81188Y172071D01*
X81604Y171393D01*
X81992Y170697D01*
X82170Y170469D01*
X82322Y170222D01*
X82839Y169617D01*
X83330Y168990D01*
X102543Y148098D01*
X116648Y132761D01*
X123881Y124896D01*
X124093Y124699D01*
X124281Y124478D01*
X124887Y123961D01*
X125470Y123419D01*
X125710Y123258D01*
X125931Y123070D01*
X126610Y122654D01*
X127270Y122210D01*
X127533Y122088D01*
X127780Y121937D01*
X128516Y121632D01*
X129238Y121297D01*
X129516Y121217D01*
X129784Y121107D01*
X130558Y120921D01*
X131324Y120703D01*
X131611Y120668D01*
X131893Y120600D01*
X132687Y120538D01*
X133477Y120442D01*
X133766Y120453D01*
X134055Y120430D01*
X236007Y120430D01*
X247116Y109321D01*
X248765Y107912D01*
X250615Y106779D01*
X252619Y105949D01*
X254728Y105443D01*
X256890Y105272D01*
X316929D01*
X319091Y105443D01*
X321200Y105949D01*
X323204Y106779D01*
X325054Y107912D01*
X326703Y109321D01*
X328112Y110970D01*
X329245Y112819D01*
X330075Y114823D01*
X330581Y116932D01*
X330751Y119095D01*
X330581Y121257D01*
X330075Y123366D01*
X329245Y125370D01*
X329083Y125633D01*
X344146Y140696D01*
X344777Y141518D01*
X345174Y142476D01*
X345309Y143504D01*
Y226772D01*
X345174Y227799D01*
X344777Y228757D01*
X344146Y229580D01*
X334501Y239225D01*
X333678Y239856D01*
X332721Y240253D01*
X331693Y240388D01*
X321525D01*
Y240718D01*
X312924D01*
Y240388D01*
X216741D01*
Y240718D01*
X208140D01*
Y232117D01*
X216741D01*
Y232446D01*
X312924D01*
Y232117D01*
X321525D01*
Y232446D01*
X330048D01*
X337368Y225127D01*
Y145149D01*
X323468Y131249D01*
X323204Y131410D01*
X321200Y132240D01*
X319091Y132747D01*
X316929Y132917D01*
X262615D01*
X251506Y144026D01*
X249856Y145434D01*
X248007Y146568D01*
X246003Y147398D01*
X243894Y147904D01*
X241732Y148074D01*
X140122Y148074D01*
X136996Y151474D01*
X122891Y166811D01*
X107326Y183736D01*
Y203543D01*
X107156Y205706D01*
X106650Y207815D01*
X105820Y209818D01*
X104686Y211668D01*
X103278Y213317D01*
X101628Y214726D01*
X101136Y215027D01*
X101272Y215509D01*
X141912D01*
X153809Y203612D01*
X155458Y202203D01*
X157308Y201070D01*
X159311Y200240D01*
X161420Y199734D01*
X163583Y199564D01*
X165745Y199734D01*
X167854Y200240D01*
X169858Y201070D01*
X171707Y202203D01*
X173356Y203612D01*
X174765Y205261D01*
X175898Y207111D01*
X176728Y209115D01*
X177235Y211224D01*
X177405Y213386D01*
X177235Y215548D01*
X176728Y217657D01*
X175898Y219661D01*
X174765Y221510D01*
X173356Y223160D01*
X160379Y236137D01*
X160680Y236543D01*
X160763Y236499D01*
X162145Y236079D01*
X163583Y235938D01*
X165020Y236079D01*
X166403Y236499D01*
X167677Y237180D01*
X168794Y238096D01*
X169710Y239213D01*
X170391Y240487D01*
X170810Y241869D01*
X170952Y243307D01*
X170810Y244745D01*
X170391Y246127D01*
X169710Y247401D01*
X168794Y248518D01*
X167677Y249434D01*
X166403Y250115D01*
X165020Y250535D01*
X163583Y250676D01*
D02*
G37*
G36*
X317224Y230912D02*
X316102Y230765D01*
X315056Y230331D01*
X314157Y229642D01*
X313468Y228744D01*
X313035Y227697D01*
X312887Y226575D01*
X313035Y225452D01*
X313468Y224406D01*
X314157Y223508D01*
X315056Y222818D01*
X316102Y222385D01*
X317224Y222237D01*
X318347Y222385D01*
X319393Y222818D01*
X320291Y223508D01*
X320981Y224406D01*
X321414Y225452D01*
X321562Y226575D01*
X321414Y227697D01*
X320981Y228744D01*
X320291Y229642D01*
X319393Y230331D01*
X318347Y230765D01*
X317224Y230912D01*
D02*
G37*
G36*
X216308Y194663D02*
X210858D01*
X208133Y191938D01*
Y186488D01*
X210858Y183763D01*
X216308D01*
X219033Y186488D01*
Y191938D01*
X216308Y194663D01*
D02*
G37*
G36*
Y164663D02*
X210858D01*
X208133Y161938D01*
Y156488D01*
X210858Y153763D01*
X216308D01*
X219033Y156488D01*
Y161938D01*
X216308Y164663D01*
D02*
G37*
G36*
X148622Y158030D02*
X147461Y157877D01*
X146379Y157429D01*
X145450Y156716D01*
X144737Y155787D01*
X144289Y154704D01*
X144136Y153543D01*
X144289Y152382D01*
X144737Y151300D01*
X145450Y150371D01*
X146379Y149658D01*
X147461Y149210D01*
X148622Y149057D01*
X149783Y149210D01*
X150865Y149658D01*
X151794Y150371D01*
X152507Y151300D01*
X152956Y152382D01*
X153109Y153543D01*
X152956Y154704D01*
X152507Y155787D01*
X151794Y156716D01*
X150865Y157429D01*
X149783Y157877D01*
X148622Y158030D01*
D02*
G37*
G36*
X225394Y115709D02*
X224232Y115556D01*
X223149Y115108D01*
X222220Y114394D01*
X221507Y113465D01*
X221058Y112382D01*
X220905Y111221D01*
X221058Y110059D01*
X221507Y108976D01*
X222220Y108047D01*
X223149Y107333D01*
X224232Y106885D01*
X225394Y106732D01*
X226555Y106885D01*
X227638Y107333D01*
X228568Y108047D01*
X229281Y108976D01*
X229729Y110059D01*
X229882Y111221D01*
X229729Y112382D01*
X229281Y113465D01*
X228568Y114394D01*
X227638Y115108D01*
X226555Y115556D01*
X225394Y115709D01*
D02*
G37*
G36*
X178228Y108819D02*
X177067Y108666D01*
X175984Y108218D01*
X175055Y107504D01*
X174341Y106575D01*
X173893Y105492D01*
X173740Y104331D01*
X173893Y103169D01*
X174341Y102086D01*
X175055Y101157D01*
X175984Y100444D01*
X177067Y99995D01*
X178228Y99842D01*
X179390Y99995D01*
X180473Y100444D01*
X181402Y101157D01*
X182115Y102086D01*
X182564Y103169D01*
X182717Y104331D01*
X182564Y105492D01*
X182115Y106575D01*
X181402Y107504D01*
X180473Y108218D01*
X179390Y108666D01*
X178228Y108819D01*
D02*
G37*
G36*
X236614Y98066D02*
X183071D01*
X182043Y97930D01*
X181085Y97534D01*
X180263Y96902D01*
X179632Y96080D01*
X179235Y95122D01*
X179100Y94095D01*
X179235Y93067D01*
X179632Y92109D01*
X180263Y91287D01*
X181085Y90655D01*
X182043Y90259D01*
X183071Y90123D01*
X236614D01*
X237642Y90259D01*
X238600Y90655D01*
X239422Y91287D01*
X240053Y92109D01*
X240450Y93067D01*
X240585Y94095D01*
X240450Y95122D01*
X240053Y96080D01*
X239422Y96902D01*
X238600Y97534D01*
X237642Y97930D01*
X236614Y98066D01*
D02*
G37*
G36*
X273110Y85858D02*
X272022Y85715D01*
X271008Y85295D01*
X270137Y84627D01*
X269469Y83756D01*
X269049Y82742D01*
X268907Y81662D01*
X267633Y80388D01*
X267353Y80496D01*
X267182Y80644D01*
X267315Y81653D01*
X267172Y82742D01*
X266751Y83756D01*
X266083Y84627D01*
X265212Y85295D01*
X264198Y85715D01*
X263110Y85858D01*
X262022Y85715D01*
X261008Y85295D01*
X260137Y84627D01*
X259469Y83756D01*
X259049Y82742D01*
X258906Y81653D01*
X259049Y80565D01*
X259469Y79551D01*
X260137Y78680D01*
X261008Y78012D01*
X262022Y77592D01*
X263110Y77449D01*
X264120Y77582D01*
X264268Y77411D01*
X264375Y77130D01*
X225656Y38411D01*
X74917D01*
X57644Y55685D01*
Y57087D01*
X57542Y57857D01*
X57245Y58576D01*
X56771Y59193D01*
X56154Y59666D01*
X55436Y59963D01*
X54665Y60065D01*
X53895Y59963D01*
X53176Y59666D01*
X52559Y59193D01*
X52086Y58576D01*
X51789Y57857D01*
X51687Y57087D01*
Y54452D01*
X51789Y53681D01*
X52086Y52962D01*
X52559Y52346D01*
X71578Y33327D01*
X72195Y32854D01*
X72913Y32556D01*
X73684Y32455D01*
X73684Y32455D01*
X226890D01*
X227661Y32556D01*
X228379Y32854D01*
X228996Y33327D01*
X273119Y77450D01*
X274198Y77592D01*
X275213Y78012D01*
X276083Y78680D01*
X276751Y79551D01*
X277171Y80565D01*
X277315Y81653D01*
X277171Y82742D01*
X276751Y83756D01*
X276083Y84627D01*
X275213Y85295D01*
X274198Y85715D01*
X273110Y85858D01*
D02*
G37*
G36*
X317279Y85822D02*
X308942D01*
Y77485D01*
X317279D01*
Y85822D01*
D02*
G37*
G36*
X303110Y85858D02*
X302022Y85715D01*
X301008Y85295D01*
X300137Y84627D01*
X299469Y83756D01*
X299049Y82742D01*
X298906Y81653D01*
X299049Y80565D01*
X299469Y79551D01*
X300137Y78680D01*
X301008Y78012D01*
X302022Y77592D01*
X303110Y77449D01*
X304198Y77592D01*
X305212Y78012D01*
X306083Y78680D01*
X306751Y79551D01*
X307172Y80565D01*
X307315Y81653D01*
X307172Y82742D01*
X306751Y83756D01*
X306083Y84627D01*
X305212Y85295D01*
X304198Y85715D01*
X303110Y85858D01*
D02*
G37*
G36*
X293110D02*
X292022Y85715D01*
X291008Y85295D01*
X290137Y84627D01*
X289469Y83756D01*
X289049Y82742D01*
X288906Y81653D01*
X289049Y80565D01*
X289469Y79551D01*
X290137Y78680D01*
X291008Y78012D01*
X292022Y77592D01*
X293110Y77449D01*
X294198Y77592D01*
X295213Y78012D01*
X296083Y78680D01*
X296751Y79551D01*
X297171Y80565D01*
X297315Y81653D01*
X297171Y82742D01*
X296751Y83756D01*
X296083Y84627D01*
X295213Y85295D01*
X294198Y85715D01*
X293110Y85858D01*
D02*
G37*
G36*
X283110D02*
X282022Y85715D01*
X281008Y85295D01*
X280137Y84627D01*
X279469Y83756D01*
X279049Y82742D01*
X278906Y81653D01*
X279049Y80565D01*
X279469Y79551D01*
X280137Y78680D01*
X281008Y78012D01*
X282022Y77592D01*
X283110Y77449D01*
X284198Y77592D01*
X285212Y78012D01*
X286083Y78680D01*
X286751Y79551D01*
X287172Y80565D01*
X287315Y81653D01*
X287172Y82742D01*
X286751Y83756D01*
X286083Y84627D01*
X285212Y85295D01*
X284198Y85715D01*
X283110Y85858D01*
D02*
G37*
G36*
X253110D02*
X252022Y85715D01*
X251008Y85295D01*
X250137Y84627D01*
X249469Y83756D01*
X249049Y82742D01*
X248906Y81653D01*
X249049Y80565D01*
X249469Y79551D01*
X250137Y78680D01*
X251008Y78012D01*
X252022Y77592D01*
X253110Y77449D01*
X254198Y77592D01*
X255212Y78012D01*
X256083Y78680D01*
X256751Y79551D01*
X257172Y80565D01*
X257315Y81653D01*
X257172Y82742D01*
X256751Y83756D01*
X256083Y84627D01*
X255212Y85295D01*
X254198Y85715D01*
X253110Y85858D01*
D02*
G37*
G36*
X243110D02*
X242022Y85715D01*
X241008Y85295D01*
X240137Y84627D01*
X239469Y83756D01*
X239049Y82742D01*
X238906Y81653D01*
X239049Y80565D01*
X239469Y79551D01*
X240137Y78680D01*
X241008Y78012D01*
X242022Y77592D01*
X243110Y77449D01*
X244198Y77592D01*
X245213Y78012D01*
X246083Y78680D01*
X246751Y79551D01*
X247171Y80565D01*
X247315Y81653D01*
X247171Y82742D01*
X246751Y83756D01*
X246083Y84627D01*
X245213Y85295D01*
X244198Y85715D01*
X243110Y85858D01*
D02*
G37*
G36*
X233110D02*
X232022Y85715D01*
X231008Y85295D01*
X230137Y84627D01*
X229469Y83756D01*
X229049Y82742D01*
X228906Y81653D01*
X229049Y80565D01*
X229469Y79551D01*
X230137Y78680D01*
X231008Y78012D01*
X232022Y77592D01*
X233110Y77449D01*
X234198Y77592D01*
X235212Y78012D01*
X236083Y78680D01*
X236751Y79551D01*
X237172Y80565D01*
X237315Y81653D01*
X237172Y82742D01*
X236751Y83756D01*
X236083Y84627D01*
X235212Y85295D01*
X234198Y85715D01*
X233110Y85858D01*
D02*
G37*
G36*
X223110D02*
X222022Y85715D01*
X221008Y85295D01*
X220137Y84627D01*
X219469Y83756D01*
X219049Y82742D01*
X218906Y81653D01*
X219049Y80565D01*
X219469Y79551D01*
X220137Y78680D01*
X221008Y78012D01*
X222022Y77592D01*
X223110Y77449D01*
X224198Y77592D01*
X225213Y78012D01*
X226083Y78680D01*
X226751Y79551D01*
X227171Y80565D01*
X227315Y81653D01*
X227171Y82742D01*
X226751Y83756D01*
X226083Y84627D01*
X225213Y85295D01*
X224198Y85715D01*
X223110Y85858D01*
D02*
G37*
G36*
X213110D02*
X212022Y85715D01*
X211008Y85295D01*
X210137Y84627D01*
X209469Y83756D01*
X209049Y82742D01*
X208906Y81653D01*
X209049Y80565D01*
X209469Y79551D01*
X210137Y78680D01*
X211008Y78012D01*
X212022Y77592D01*
X213110Y77449D01*
X214198Y77592D01*
X215212Y78012D01*
X216083Y78680D01*
X216751Y79551D01*
X217172Y80565D01*
X217315Y81653D01*
X217172Y82742D01*
X216751Y83756D01*
X216083Y84627D01*
X215212Y85295D01*
X214198Y85715D01*
X213110Y85858D01*
D02*
G37*
G36*
X203110D02*
X202022Y85715D01*
X201008Y85295D01*
X200137Y84627D01*
X199469Y83756D01*
X199049Y82742D01*
X198906Y81653D01*
X199049Y80565D01*
X199469Y79551D01*
X200137Y78680D01*
X201008Y78012D01*
X202022Y77592D01*
X203110Y77449D01*
X204198Y77592D01*
X205212Y78012D01*
X206083Y78680D01*
X206751Y79551D01*
X207172Y80565D01*
X207315Y81653D01*
X207172Y82742D01*
X206751Y83756D01*
X206083Y84627D01*
X205212Y85295D01*
X204198Y85715D01*
X203110Y85858D01*
D02*
G37*
G36*
X193110D02*
X192022Y85715D01*
X191008Y85295D01*
X190137Y84627D01*
X189469Y83756D01*
X189049Y82742D01*
X188906Y81653D01*
X189049Y80565D01*
X189469Y79551D01*
X190137Y78680D01*
X191008Y78012D01*
X192022Y77592D01*
X193110Y77449D01*
X194198Y77592D01*
X195212Y78012D01*
X196083Y78680D01*
X196751Y79551D01*
X197171Y80565D01*
X197315Y81653D01*
X197171Y82742D01*
X196751Y83756D01*
X196083Y84627D01*
X195212Y85295D01*
X194198Y85715D01*
X193110Y85858D01*
D02*
G37*
G36*
X173110D02*
X172022Y85715D01*
X171008Y85295D01*
X170137Y84627D01*
X169469Y83756D01*
X169049Y82742D01*
X168906Y81653D01*
X169049Y80565D01*
X169469Y79551D01*
X170137Y78680D01*
X171008Y78012D01*
X172022Y77592D01*
X173110Y77449D01*
X174198Y77592D01*
X175213Y78012D01*
X176083Y78680D01*
X176751Y79551D01*
X177172Y80565D01*
X177315Y81653D01*
X177172Y82742D01*
X176751Y83756D01*
X176083Y84627D01*
X175213Y85295D01*
X174198Y85715D01*
X173110Y85858D01*
D02*
G37*
G36*
X323110Y86142D02*
X321949Y85989D01*
X320866Y85541D01*
X319936Y84827D01*
X319223Y83898D01*
X318775Y82815D01*
X318622Y81653D01*
X318775Y80492D01*
X319223Y79409D01*
X319936Y78480D01*
X320866Y77767D01*
X321949Y77318D01*
X323110Y77165D01*
X324272Y77318D01*
X325354Y77767D01*
X326284Y78480D01*
X326997Y79409D01*
X327446Y80492D01*
X327599Y81653D01*
X327446Y82815D01*
X326997Y83898D01*
X326284Y84827D01*
X325354Y85541D01*
X324272Y85989D01*
X323110Y86142D01*
D02*
G37*
G36*
X163110D02*
X161949Y85989D01*
X160866Y85541D01*
X159936Y84827D01*
X159223Y83898D01*
X158775Y82815D01*
X158622Y81653D01*
X158775Y80492D01*
X159223Y79409D01*
X159936Y78480D01*
X160866Y77767D01*
X161949Y77318D01*
X163110Y77165D01*
X164272Y77318D01*
X165354Y77767D01*
X166284Y78480D01*
X166997Y79409D01*
X167446Y80492D01*
X167599Y81653D01*
X167446Y82815D01*
X166997Y83898D01*
X166284Y84827D01*
X165354Y85541D01*
X164272Y85989D01*
X163110Y86142D01*
D02*
G37*
G36*
X112835Y86680D02*
X112065Y86578D01*
X111346Y86281D01*
X110729Y85807D01*
X110729Y85807D01*
X99160Y74238D01*
X96850D01*
X96080Y74137D01*
X95361Y73839D01*
X94744Y73366D01*
X94271Y72749D01*
X93974Y72031D01*
X93872Y71260D01*
X93974Y70489D01*
X94271Y69771D01*
X94744Y69154D01*
X95361Y68681D01*
X96080Y68383D01*
X96850Y68282D01*
X100394D01*
X101164Y68383D01*
X101883Y68681D01*
X102500Y69154D01*
X114069Y80723D01*
X141200D01*
X141971Y80825D01*
X142689Y81122D01*
X143306Y81595D01*
X143779Y82212D01*
X144077Y82931D01*
X144178Y83701D01*
X144077Y84472D01*
X143779Y85190D01*
X143306Y85807D01*
X142689Y86281D01*
X141971Y86578D01*
X141200Y86680D01*
X112835D01*
X112835Y86680D01*
D02*
G37*
G36*
X149753Y59476D02*
X143553D01*
X141454Y57376D01*
Y53176D01*
X143553Y51076D01*
X149753D01*
X151854Y53176D01*
Y57376D01*
X149753Y59476D01*
D02*
G37*
G36*
X313110Y25858D02*
X312022Y25715D01*
X311008Y25295D01*
X310137Y24627D01*
X309469Y23756D01*
X309049Y22742D01*
X308906Y21654D01*
X309049Y20565D01*
X309469Y19551D01*
X310137Y18680D01*
X311008Y18012D01*
X312022Y17592D01*
X313110Y17449D01*
X314198Y17592D01*
X315212Y18012D01*
X316083Y18680D01*
X316751Y19551D01*
X317172Y20565D01*
X317315Y21654D01*
X317172Y22742D01*
X316751Y23756D01*
X316083Y24627D01*
X315212Y25295D01*
X314198Y25715D01*
X313110Y25858D01*
D02*
G37*
G36*
X303110D02*
X302022Y25715D01*
X301008Y25295D01*
X300137Y24627D01*
X299469Y23756D01*
X299049Y22742D01*
X298906Y21654D01*
X299049Y20565D01*
X299469Y19551D01*
X300137Y18680D01*
X301008Y18012D01*
X302022Y17592D01*
X303110Y17449D01*
X304198Y17592D01*
X305212Y18012D01*
X306083Y18680D01*
X306751Y19551D01*
X307172Y20565D01*
X307315Y21654D01*
X307172Y22742D01*
X306751Y23756D01*
X306083Y24627D01*
X305212Y25295D01*
X304198Y25715D01*
X303110Y25858D01*
D02*
G37*
G36*
X293110D02*
X292022Y25715D01*
X291008Y25295D01*
X290137Y24627D01*
X289469Y23756D01*
X289049Y22742D01*
X288906Y21654D01*
X289049Y20565D01*
X289469Y19551D01*
X290137Y18680D01*
X291008Y18012D01*
X292022Y17592D01*
X293110Y17449D01*
X294198Y17592D01*
X295213Y18012D01*
X296083Y18680D01*
X296751Y19551D01*
X297171Y20565D01*
X297315Y21654D01*
X297171Y22742D01*
X296751Y23756D01*
X296083Y24627D01*
X295213Y25295D01*
X294198Y25715D01*
X293110Y25858D01*
D02*
G37*
G36*
X283110D02*
X282022Y25715D01*
X281008Y25295D01*
X280137Y24627D01*
X279469Y23756D01*
X279049Y22742D01*
X278906Y21654D01*
X279049Y20565D01*
X279469Y19551D01*
X280137Y18680D01*
X281008Y18012D01*
X282022Y17592D01*
X283110Y17449D01*
X284198Y17592D01*
X285212Y18012D01*
X286083Y18680D01*
X286751Y19551D01*
X287172Y20565D01*
X287315Y21654D01*
X287172Y22742D01*
X286751Y23756D01*
X286083Y24627D01*
X285212Y25295D01*
X284198Y25715D01*
X283110Y25858D01*
D02*
G37*
G36*
X273110D02*
X272022Y25715D01*
X271008Y25295D01*
X270137Y24627D01*
X269469Y23756D01*
X269049Y22742D01*
X268906Y21654D01*
X269049Y20565D01*
X269469Y19551D01*
X270137Y18680D01*
X271008Y18012D01*
X272022Y17592D01*
X273110Y17449D01*
X274198Y17592D01*
X275213Y18012D01*
X276083Y18680D01*
X276751Y19551D01*
X277171Y20565D01*
X277315Y21654D01*
X277171Y22742D01*
X276751Y23756D01*
X276083Y24627D01*
X275213Y25295D01*
X274198Y25715D01*
X273110Y25858D01*
D02*
G37*
G36*
X263110D02*
X262022Y25715D01*
X261008Y25295D01*
X260137Y24627D01*
X259469Y23756D01*
X259049Y22742D01*
X258906Y21654D01*
X259049Y20565D01*
X259469Y19551D01*
X260137Y18680D01*
X261008Y18012D01*
X262022Y17592D01*
X263110Y17449D01*
X264198Y17592D01*
X265212Y18012D01*
X266083Y18680D01*
X266751Y19551D01*
X267172Y20565D01*
X267315Y21654D01*
X267172Y22742D01*
X266751Y23756D01*
X266083Y24627D01*
X265212Y25295D01*
X264198Y25715D01*
X263110Y25858D01*
D02*
G37*
G36*
X253110D02*
X252022Y25715D01*
X251008Y25295D01*
X250137Y24627D01*
X249469Y23756D01*
X249049Y22742D01*
X248906Y21654D01*
X249049Y20565D01*
X249469Y19551D01*
X250137Y18680D01*
X251008Y18012D01*
X252022Y17592D01*
X253110Y17449D01*
X254198Y17592D01*
X255212Y18012D01*
X256083Y18680D01*
X256751Y19551D01*
X257172Y20565D01*
X257315Y21654D01*
X257172Y22742D01*
X256751Y23756D01*
X256083Y24627D01*
X255212Y25295D01*
X254198Y25715D01*
X253110Y25858D01*
D02*
G37*
G36*
X243110D02*
X242022Y25715D01*
X241008Y25295D01*
X240137Y24627D01*
X239469Y23756D01*
X239049Y22742D01*
X238906Y21654D01*
X239049Y20565D01*
X239469Y19551D01*
X240137Y18680D01*
X241008Y18012D01*
X242022Y17592D01*
X243110Y17449D01*
X244198Y17592D01*
X245213Y18012D01*
X246083Y18680D01*
X246751Y19551D01*
X247171Y20565D01*
X247315Y21654D01*
X247171Y22742D01*
X246751Y23756D01*
X246083Y24627D01*
X245213Y25295D01*
X244198Y25715D01*
X243110Y25858D01*
D02*
G37*
G36*
X233110D02*
X232022Y25715D01*
X231008Y25295D01*
X230137Y24627D01*
X229469Y23756D01*
X229049Y22742D01*
X228906Y21654D01*
X229049Y20565D01*
X229469Y19551D01*
X230137Y18680D01*
X231008Y18012D01*
X232022Y17592D01*
X233110Y17449D01*
X234198Y17592D01*
X235212Y18012D01*
X236083Y18680D01*
X236751Y19551D01*
X237172Y20565D01*
X237315Y21654D01*
X237172Y22742D01*
X236751Y23756D01*
X236083Y24627D01*
X235212Y25295D01*
X234198Y25715D01*
X233110Y25858D01*
D02*
G37*
G36*
X223110D02*
X222022Y25715D01*
X221008Y25295D01*
X220137Y24627D01*
X219469Y23756D01*
X219049Y22742D01*
X218906Y21654D01*
X219049Y20565D01*
X219469Y19551D01*
X220137Y18680D01*
X221008Y18012D01*
X222022Y17592D01*
X223110Y17449D01*
X224198Y17592D01*
X225213Y18012D01*
X226083Y18680D01*
X226751Y19551D01*
X227171Y20565D01*
X227315Y21654D01*
X227171Y22742D01*
X226751Y23756D01*
X226083Y24627D01*
X225213Y25295D01*
X224198Y25715D01*
X223110Y25858D01*
D02*
G37*
G36*
X213110D02*
X212022Y25715D01*
X211008Y25295D01*
X210137Y24627D01*
X209469Y23756D01*
X209049Y22742D01*
X208906Y21654D01*
X209049Y20565D01*
X209469Y19551D01*
X210137Y18680D01*
X211008Y18012D01*
X212022Y17592D01*
X213110Y17449D01*
X214198Y17592D01*
X215212Y18012D01*
X216083Y18680D01*
X216751Y19551D01*
X217172Y20565D01*
X217315Y21654D01*
X217172Y22742D01*
X216751Y23756D01*
X216083Y24627D01*
X215212Y25295D01*
X214198Y25715D01*
X213110Y25858D01*
D02*
G37*
G36*
X193110D02*
X192022Y25715D01*
X191008Y25295D01*
X190137Y24627D01*
X189469Y23756D01*
X189049Y22742D01*
X188906Y21654D01*
X189049Y20565D01*
X189469Y19551D01*
X190137Y18680D01*
X191008Y18012D01*
X192022Y17592D01*
X193110Y17449D01*
X194198Y17592D01*
X195212Y18012D01*
X196083Y18680D01*
X196751Y19551D01*
X197171Y20565D01*
X197315Y21654D01*
X197171Y22742D01*
X196751Y23756D01*
X196083Y24627D01*
X195212Y25295D01*
X194198Y25715D01*
X193110Y25858D01*
D02*
G37*
G36*
X183110D02*
X182022Y25715D01*
X181008Y25295D01*
X180137Y24627D01*
X179469Y23756D01*
X179049Y22742D01*
X178906Y21654D01*
X179049Y20565D01*
X179469Y19551D01*
X180137Y18680D01*
X181008Y18012D01*
X182022Y17592D01*
X183110Y17449D01*
X184198Y17592D01*
X185213Y18012D01*
X186083Y18680D01*
X186751Y19551D01*
X187171Y20565D01*
X187315Y21654D01*
X187171Y22742D01*
X186751Y23756D01*
X186083Y24627D01*
X185213Y25295D01*
X184198Y25715D01*
X183110Y25858D01*
D02*
G37*
G36*
X173110D02*
X172022Y25715D01*
X171008Y25295D01*
X170137Y24627D01*
X169469Y23756D01*
X169049Y22742D01*
X168906Y21654D01*
X169049Y20565D01*
X169469Y19551D01*
X170137Y18680D01*
X171008Y18012D01*
X172022Y17592D01*
X173110Y17449D01*
X174198Y17592D01*
X175213Y18012D01*
X176083Y18680D01*
X176751Y19551D01*
X177172Y20565D01*
X177315Y21654D01*
X177172Y22742D01*
X176751Y23756D01*
X176083Y24627D01*
X175213Y25295D01*
X174198Y25715D01*
X173110Y25858D01*
D02*
G37*
G36*
X323110Y26142D02*
X321949Y25989D01*
X320866Y25541D01*
X319936Y24827D01*
X319223Y23898D01*
X318775Y22815D01*
X318622Y21654D01*
X318775Y20492D01*
X319223Y19409D01*
X319936Y18480D01*
X320866Y17766D01*
X321949Y17318D01*
X323110Y17165D01*
X324272Y17318D01*
X325354Y17766D01*
X326284Y18480D01*
X326997Y19409D01*
X327446Y20492D01*
X327599Y21654D01*
X327446Y22815D01*
X326997Y23898D01*
X326284Y24827D01*
X325354Y25541D01*
X324272Y25989D01*
X323110Y26142D01*
D02*
G37*
G36*
X163110D02*
X161949Y25989D01*
X160866Y25541D01*
X159936Y24827D01*
X159223Y23898D01*
X158775Y22815D01*
X158622Y21654D01*
X158775Y20492D01*
X159223Y19409D01*
X159936Y18480D01*
X160866Y17766D01*
X161949Y17318D01*
X163110Y17165D01*
X164272Y17318D01*
X165354Y17766D01*
X166284Y18480D01*
X166997Y19409D01*
X167446Y20492D01*
X167599Y21654D01*
X167446Y22815D01*
X166997Y23898D01*
X166284Y24827D01*
X165354Y25541D01*
X164272Y25989D01*
X163110Y26142D01*
D02*
G37*
G36*
X349694Y22479D02*
X348337D01*
X348143Y22441D01*
X347946D01*
X346615Y22176D01*
X346432Y22100D01*
X346238Y22062D01*
X344984Y21543D01*
X344820Y21433D01*
X344637Y21357D01*
X343509Y20603D01*
X343369Y20463D01*
X343205Y20354D01*
X342245Y19394D01*
X342135Y19229D01*
X341995Y19090D01*
X341241Y17961D01*
X341166Y17779D01*
X341056Y17614D01*
X340536Y16360D01*
X340498Y16166D01*
X340422Y15984D01*
X340158Y14653D01*
Y14455D01*
X340119Y14261D01*
Y12904D01*
X340158Y12710D01*
Y12513D01*
X340422Y11181D01*
X340498Y10999D01*
X340536Y10805D01*
X341056Y9551D01*
X341166Y9387D01*
X341241Y9204D01*
X341995Y8076D01*
X342135Y7936D01*
X342245Y7772D01*
X343205Y6812D01*
X343369Y6702D01*
X343509Y6562D01*
X344637Y5808D01*
X344820Y5733D01*
X344984Y5623D01*
X346238Y5103D01*
X346432Y5065D01*
X346615Y4989D01*
X347946Y4724D01*
X348143D01*
X348337Y4686D01*
X349694D01*
X349888Y4724D01*
X350086D01*
X351417Y4989D01*
X351600Y5065D01*
X351794Y5103D01*
X353047Y5623D01*
X353212Y5733D01*
X353394Y5808D01*
X354523Y6562D01*
X354663Y6702D01*
X354827Y6812D01*
X355787Y7772D01*
X355896Y7936D01*
X356036Y8076D01*
X356790Y9204D01*
X356866Y9387D01*
X356976Y9551D01*
X357495Y10805D01*
X357534Y10999D01*
X357609Y11181D01*
X357874Y12513D01*
Y12710D01*
X357913Y12904D01*
Y14261D01*
X357874Y14455D01*
Y14653D01*
X357609Y15984D01*
X357534Y16166D01*
X357495Y16360D01*
X356976Y17614D01*
X356866Y17779D01*
X356790Y17961D01*
X356036Y19090D01*
X355896Y19229D01*
X355787Y19394D01*
X354827Y20354D01*
X354663Y20463D01*
X354523Y20603D01*
X353394Y21357D01*
X353212Y21433D01*
X353047Y21543D01*
X351794Y22062D01*
X351600Y22100D01*
X351417Y22176D01*
X350086Y22441D01*
X349888D01*
X349694Y22479D01*
D02*
G37*
G36*
X21742D02*
X20384D01*
X20190Y22441D01*
X19993D01*
X18662Y22176D01*
X18479Y22100D01*
X18285Y22062D01*
X17031Y21543D01*
X16867Y21433D01*
X16684Y21357D01*
X15556Y20603D01*
X15416Y20463D01*
X15252Y20354D01*
X14292Y19394D01*
X14182Y19229D01*
X14042Y19090D01*
X13288Y17961D01*
X13213Y17779D01*
X13103Y17614D01*
X12584Y16360D01*
X12545Y16166D01*
X12470Y15984D01*
X12205Y14653D01*
Y14455D01*
X12166Y14261D01*
Y12904D01*
X12205Y12710D01*
Y12513D01*
X12470Y11181D01*
X12545Y10999D01*
X12584Y10805D01*
X13103Y9551D01*
X13213Y9387D01*
X13288Y9204D01*
X14042Y8076D01*
X14182Y7936D01*
X14292Y7772D01*
X15252Y6812D01*
X15416Y6702D01*
X15556Y6562D01*
X16684Y5808D01*
X16867Y5733D01*
X17031Y5623D01*
X18285Y5103D01*
X18479Y5065D01*
X18662Y4989D01*
X19993Y4724D01*
X20190D01*
X20384Y4686D01*
X21742D01*
X21935Y4724D01*
X22133D01*
X23464Y4989D01*
X23647Y5065D01*
X23841Y5103D01*
X25095Y5623D01*
X25259Y5733D01*
X25442Y5808D01*
X26570Y6562D01*
X26710Y6702D01*
X26874Y6812D01*
X27834Y7772D01*
X27944Y7936D01*
X28083Y8076D01*
X28837Y9204D01*
X28913Y9387D01*
X29023Y9551D01*
X29542Y10805D01*
X29581Y10999D01*
X29656Y11181D01*
X29921Y12513D01*
Y12710D01*
X29960Y12904D01*
Y14261D01*
X29921Y14455D01*
Y14653D01*
X29656Y15984D01*
X29581Y16166D01*
X29542Y16360D01*
X29023Y17614D01*
X28913Y17779D01*
X28837Y17961D01*
X28083Y19090D01*
X27944Y19229D01*
X27834Y19394D01*
X26874Y20354D01*
X26710Y20463D01*
X26570Y20603D01*
X25442Y21357D01*
X25259Y21433D01*
X25095Y21543D01*
X23841Y22062D01*
X23647Y22100D01*
X23464Y22176D01*
X22133Y22441D01*
X21936D01*
X21742Y22479D01*
D02*
G37*
%LPD*%
G36*
X66876Y135857D02*
X68621Y135143D01*
X70196Y134106D01*
X71540Y132784D01*
X72605Y131228D01*
X73349Y129495D01*
X73745Y127652D01*
X73761Y126709D01*
X73761D01*
X73863Y120892D01*
X73970Y109256D01*
X73982Y97620D01*
X73898Y85983D01*
X73809Y80166D01*
X73801Y79654D01*
X73588Y78652D01*
X73185Y77711D01*
X72608Y76865D01*
X71878Y76146D01*
X71023Y75582D01*
X70075Y75194D01*
X69070Y74997D01*
X68558Y74997D01*
X68558Y74997D01*
X68558Y74997D01*
X58503Y74997D01*
X57976Y74997D01*
X56942Y75203D01*
X55967Y75606D01*
X55090Y76192D01*
X54345Y76938D01*
X53759Y77815D01*
X53355Y78789D01*
X53150Y79823D01*
X53150Y80351D01*
Y108244D01*
X53129Y108671D01*
X52962Y109508D01*
X52635Y110297D01*
X52161Y111006D01*
X51557Y111610D01*
X50848Y112084D01*
X50059Y112411D01*
X49281Y112565D01*
X49222Y112577D01*
X48795Y112598D01*
X48795D01*
X48795D01*
X48795Y112598D01*
X48795Y112598D01*
X44488Y112598D01*
X44100Y112598D01*
X43340Y112750D01*
X42623Y113046D01*
X41978Y113477D01*
X41430Y114025D01*
X40999Y114670D01*
X40703Y115387D01*
X40551Y116147D01*
X40551Y116535D01*
X40551Y132677D01*
X40551Y133026D01*
X40687Y133711D01*
X40955Y134355D01*
X41342Y134936D01*
X41836Y135429D01*
X42416Y135817D01*
X43061Y136084D01*
X43745Y136220D01*
X44094Y136220D01*
X44094Y136221D01*
X64083Y136221D01*
X65026Y136221D01*
X66876Y135857D01*
D02*
G37*
G36*
X45285Y109924D02*
X46758Y109292D01*
X48073Y108377D01*
X49178Y107215D01*
X50026Y105856D01*
X50584Y104353D01*
X50827Y102769D01*
X50787Y101969D01*
X50787D01*
X50787Y101969D01*
X50787Y81102D01*
X50828Y80520D01*
X50679Y79363D01*
X50306Y78258D01*
X49725Y77246D01*
X48957Y76368D01*
X48031Y75657D01*
X46985Y75142D01*
X45858Y74840D01*
X45276Y74803D01*
X45276Y74803D01*
X45276Y74803D01*
X22156Y74803D01*
X21414D01*
X19941Y74997D01*
X18507Y75381D01*
X17135Y75950D01*
X15849Y76692D01*
X14670Y77596D01*
X13620Y78647D01*
X12716Y79825D01*
X11973Y81111D01*
X11405Y82483D01*
X11021Y83918D01*
X10827Y85390D01*
X10827Y86133D01*
X10827Y96654D01*
Y97544D01*
X11059Y99311D01*
X11521Y101032D01*
X12202Y102678D01*
X13093Y104221D01*
X14178Y105635D01*
X15438Y106895D01*
X16851Y107980D01*
X18395Y108870D01*
X20041Y109552D01*
X21762Y110013D01*
X23528Y110246D01*
X24419D01*
Y110246D01*
X42913Y110246D01*
X43715Y110246D01*
X45285Y109924D01*
D02*
G37*
D11*
X226890Y35433D02*
X273110Y81653D01*
X73684Y35433D02*
X226890D01*
X54665Y54452D02*
X73684Y35433D01*
X96850Y71260D02*
X100394D01*
X112835Y83701D01*
X141200D01*
X54665Y54452D02*
Y57087D01*
D57*
X318898Y236417D02*
X331693D01*
X213583D02*
X318898D01*
X316929Y119095D02*
X341339Y143504D01*
Y226772D01*
X331693Y236417D02*
X341339Y226772D01*
X183071Y94095D02*
X236614D01*
D60*
X112717Y157454D02*
X126822Y142118D01*
X93504Y178347D02*
X112717Y157454D01*
X126822Y142118D02*
X134055Y134252D01*
X22407Y194488D02*
X57446Y229528D01*
X22441Y86614D02*
Y194488D01*
X57480Y229331D02*
X147441D01*
Y229528D02*
X163583Y213386D01*
X256890Y119095D02*
X316929D01*
X241732Y134252D02*
X256890Y119095D01*
X134055Y134252D02*
X241732Y134252D01*
X93504Y178347D02*
Y203543D01*
D61*
X212441Y226575D02*
D03*
X317224D02*
D03*
D62*
X212441Y236417D02*
D03*
X317224D02*
D03*
D63*
X178228Y104331D02*
D03*
X225394Y111221D02*
D03*
X163110Y81653D02*
D03*
Y21654D02*
D03*
X323110Y81653D02*
D03*
Y21654D02*
D03*
D64*
X168228Y104331D02*
D03*
X211394Y111221D02*
D03*
D65*
X146653Y45276D02*
D03*
Y55276D02*
D03*
D66*
X53150Y156496D02*
D03*
X316929Y119095D02*
D03*
D67*
X53150D02*
D03*
X316929Y156496D02*
D03*
D68*
X163583Y243307D02*
D03*
X93504Y203543D02*
D03*
X163583Y213386D02*
D03*
X128543Y143701D02*
D03*
D69*
X148622Y153543D02*
D03*
X108465D02*
D03*
D70*
X213583Y159213D02*
D03*
Y189213D02*
D03*
D71*
X313110Y81653D02*
D03*
D72*
X303110D02*
D03*
X293110D02*
D03*
X283110D02*
D03*
X273110D02*
D03*
X263110D02*
D03*
X253110D02*
D03*
X243110D02*
D03*
X233110D02*
D03*
X223110D02*
D03*
X213110D02*
D03*
X203110D02*
D03*
X193110D02*
D03*
X183110D02*
D03*
X173110D02*
D03*
Y21654D02*
D03*
X183110D02*
D03*
X193110D02*
D03*
X203110D02*
D03*
X213110D02*
D03*
X223110D02*
D03*
X233110D02*
D03*
X243110D02*
D03*
X253110D02*
D03*
X263110D02*
D03*
X273110D02*
D03*
X283110D02*
D03*
X293110D02*
D03*
X303110D02*
D03*
X313110D02*
D03*
D73*
X96850Y71260D02*
D03*
X79852Y91393D02*
D03*
X79773Y106265D02*
D03*
X79852Y119095D02*
D03*
X22133Y219291D02*
D03*
X45285Y242673D02*
D03*
X107087Y246127D02*
D03*
Y213317D02*
D03*
X66876Y69206D02*
D03*
X38583Y68487D02*
D03*
X21402D02*
D03*
X45285Y194058D02*
D03*
X65026Y211417D02*
D03*
X140122Y211811D02*
D03*
X137795Y158030D02*
D03*
X114567Y182677D02*
D03*
X326997Y140748D02*
D03*
X53355Y142263D02*
D03*
X39923Y156496D02*
D03*
X53129Y170866D02*
D03*
X307315Y140748D02*
D03*
X307172Y168898D02*
D03*
X141200Y83701D02*
D03*
X183071Y94095D02*
D03*
X236614D02*
D03*
X54665Y57087D02*
D03*
X71023Y119095D02*
D03*
Y106265D02*
D03*
Y91535D02*
D03*
X55967D02*
D03*
Y106265D02*
D03*
X65026Y132677D02*
D03*
X43715D02*
D03*
X144882Y220472D02*
D03*
X151181Y237402D02*
D03*
X107087Y220472D02*
D03*
Y238583D02*
D03*
X60630Y220472D02*
D03*
X52362Y234646D02*
D03*
X27953Y211417D02*
D03*
X38976Y200394D02*
D03*
X13093Y175984D02*
D03*
X31102D02*
D03*
X13093Y148031D02*
D03*
X31102D02*
D03*
X31890Y113751D02*
D03*
X13093Y113046D02*
D03*
X48031Y91393D02*
D03*
X21402Y77246D02*
D03*
X38583D02*
D03*
X43715Y106265D02*
D03*
M02*
