G04*
G04 #@! TF.GenerationSoftware,Altium Limited,Altium Designer,19.1.8 (144)*
G04*
G04 Layer_Color=16711935*
%FSLAX25Y25*%
%MOIN*%
G70*
G01*
G75*
G04:AMPARAMS|DCode=32|XSize=83.94mil|YSize=63.94mil|CornerRadius=0mil|HoleSize=0mil|Usage=FLASHONLY|Rotation=180.000|XOffset=0mil|YOffset=0mil|HoleType=Round|Shape=Octagon|*
%AMOCTAGOND32*
4,1,8,-0.04197,0.01598,-0.04197,-0.01598,-0.02598,-0.03197,0.02598,-0.03197,0.04197,-0.01598,0.04197,0.01598,0.02598,0.03197,-0.02598,0.03197,-0.04197,0.01598,0.0*
%
%ADD32OCTAGOND32*%

%ADD33R,0.11319X0.11319*%
%ADD34C,0.11319*%
%ADD35C,0.12661*%
%ADD36C,0.06890*%
%ADD37C,0.06894*%
%ADD38P,0.07462X8X202.5*%
%ADD39P,0.09627X8X112.5*%
%ADD40R,0.06331X0.06331*%
%ADD41C,0.06331*%
%ADD42O,0.10236X0.06299*%
%ADD43C,0.03150*%
%ADD56C,0.03937*%
%ADD59C,0.23622*%
D32*
X146653Y45276D02*
D03*
Y55276D02*
D03*
D33*
X53150Y156496D02*
D03*
X316929Y119095D02*
D03*
D34*
X53150D02*
D03*
X316929Y156496D02*
D03*
D35*
X163583Y243307D02*
D03*
X93504Y203543D02*
D03*
X163583Y213386D02*
D03*
X128543Y143701D02*
D03*
D36*
X148622Y153543D02*
D03*
X108465D02*
D03*
D37*
X225394Y111221D02*
D03*
X178228Y104331D02*
D03*
X163110Y81653D02*
D03*
Y21654D02*
D03*
X323110Y81653D02*
D03*
Y21654D02*
D03*
D38*
X211394Y111221D02*
D03*
X168228Y104331D02*
D03*
D39*
X213583Y159213D02*
D03*
Y189213D02*
D03*
D40*
X313110Y81653D02*
D03*
D41*
X303110D02*
D03*
X293110D02*
D03*
X283110D02*
D03*
X273110D02*
D03*
X263110D02*
D03*
X253110D02*
D03*
X243110D02*
D03*
X233110D02*
D03*
X223110D02*
D03*
X213110D02*
D03*
X203110D02*
D03*
X193110D02*
D03*
X183110D02*
D03*
X173110D02*
D03*
Y21654D02*
D03*
X183110D02*
D03*
X193110D02*
D03*
X203110D02*
D03*
X213110D02*
D03*
X223110D02*
D03*
X233110D02*
D03*
X243110D02*
D03*
X253110D02*
D03*
X263110D02*
D03*
X273110D02*
D03*
X283110D02*
D03*
X293110D02*
D03*
X303110D02*
D03*
X313110D02*
D03*
D42*
X213583Y228543D02*
D03*
Y236417D02*
D03*
X318898Y228543D02*
D03*
Y236417D02*
D03*
D43*
X96850Y71260D02*
D03*
X79852Y91393D02*
D03*
X79773Y106265D02*
D03*
X79852Y119095D02*
D03*
X22133Y219291D02*
D03*
X45285Y242673D02*
D03*
X107087Y246127D02*
D03*
Y213317D02*
D03*
X66876Y69206D02*
D03*
X38583Y68487D02*
D03*
X21402D02*
D03*
X45285Y194058D02*
D03*
X65026Y211417D02*
D03*
X140122Y211811D02*
D03*
X137795Y158030D02*
D03*
X114567Y182677D02*
D03*
X326997Y140748D02*
D03*
X53355Y142263D02*
D03*
X39923Y156496D02*
D03*
X53129Y170866D02*
D03*
X307315Y140748D02*
D03*
X307172Y168898D02*
D03*
X141200Y83701D02*
D03*
X183071Y94095D02*
D03*
X236614D02*
D03*
X54665Y57087D02*
D03*
X71023Y119095D02*
D03*
Y106265D02*
D03*
Y91535D02*
D03*
X55967D02*
D03*
Y106265D02*
D03*
X65026Y132677D02*
D03*
X43715D02*
D03*
X144882Y220472D02*
D03*
X151181Y237402D02*
D03*
X107087Y220472D02*
D03*
Y238583D02*
D03*
X60630Y220472D02*
D03*
X52362Y234646D02*
D03*
X27953Y211417D02*
D03*
X38976Y200394D02*
D03*
X13093Y175984D02*
D03*
X31102D02*
D03*
X13093Y148031D02*
D03*
X31102D02*
D03*
X31890Y113751D02*
D03*
X13093Y113046D02*
D03*
X48031Y91393D02*
D03*
X21402Y77246D02*
D03*
X38583D02*
D03*
X43715Y106265D02*
D03*
D56*
X213583Y236417D02*
X318898D01*
X316929Y119095D02*
X341339Y143504D01*
Y226772D01*
X331693Y236417D02*
X341339Y226772D01*
X318898Y236417D02*
X331693D01*
D59*
X112717Y157454D02*
X126822Y142118D01*
X93504Y178347D02*
X112717Y157454D01*
X126822Y142118D02*
X134055Y134252D01*
X22407Y194488D02*
X57446Y229528D01*
X22441Y86614D02*
Y194488D01*
X57480Y229331D02*
X147441D01*
Y229528D02*
X163583Y213386D01*
X256890Y119095D02*
X316929D01*
X241732Y134252D02*
X256890Y119095D01*
X134055Y134252D02*
X241732Y134252D01*
X93504Y178347D02*
Y203543D01*
M02*
