G04*
G04 #@! TF.GenerationSoftware,Altium Limited,Altium Designer,19.1.8 (144)*
G04*
G04 Layer_Color=255*
%FSLAX25Y25*%
%MOIN*%
G70*
G01*
G75*
%ADD45R,0.05315X0.04528*%
G04:AMPARAMS|DCode=46|XSize=77.56mil|YSize=23.62mil|CornerRadius=2.95mil|HoleSize=0mil|Usage=FLASHONLY|Rotation=270.000|XOffset=0mil|YOffset=0mil|HoleType=Round|Shape=RoundedRectangle|*
%AMROUNDEDRECTD46*
21,1,0.07756,0.01772,0,0,270.0*
21,1,0.07165,0.02362,0,0,270.0*
1,1,0.00591,-0.00886,-0.03583*
1,1,0.00591,-0.00886,0.03583*
1,1,0.00591,0.00886,0.03583*
1,1,0.00591,0.00886,-0.03583*
%
%ADD46ROUNDEDRECTD46*%
%ADD47R,0.03150X0.03543*%
%ADD48O,0.05512X0.08268*%
%ADD49R,0.04724X0.04724*%
%ADD50R,0.06693X0.09843*%
%ADD51R,0.03543X0.03150*%
%ADD52R,0.02362X0.06496*%
%ADD53R,0.05512X0.05118*%
%ADD54R,0.06496X0.02362*%
%ADD55R,0.04724X0.04724*%
%ADD56R,0.04528X0.05315*%
%ADD61C,0.06201*%
%ADD62R,0.06201X0.06201*%
%ADD63C,0.06500*%
%ADD64P,0.07036X8X202.5*%
G04:AMPARAMS|DCode=65|XSize=80mil|YSize=60mil|CornerRadius=0mil|HoleSize=0mil|Usage=FLASHONLY|Rotation=180.000|XOffset=0mil|YOffset=0mil|HoleType=Round|Shape=Octagon|*
%AMOCTAGOND65*
4,1,8,-0.04000,0.01500,-0.04000,-0.01500,-0.02500,-0.03000,0.02500,-0.03000,0.04000,-0.01500,0.04000,0.01500,0.02500,0.03000,-0.02500,0.03000,-0.04000,0.01500,0.0*
%
%ADD65OCTAGOND65*%

%ADD66R,0.10925X0.10925*%
%ADD67C,0.10925*%
%ADD68C,0.12268*%
%ADD69C,0.06496*%
%ADD70P,0.09200X8X112.5*%
%ADD71R,0.05937X0.05937*%
%ADD72C,0.05937*%
D45*
X135236Y57284D02*
D03*
Y50394D02*
D03*
X290551Y226378D02*
D03*
Y233268D02*
D03*
X290354Y114665D02*
D03*
Y107776D02*
D03*
Y131890D02*
D03*
Y125000D02*
D03*
X278543Y160658D02*
D03*
Y153768D02*
D03*
X58681Y43799D02*
D03*
Y50689D02*
D03*
D46*
X59665Y83563D02*
D03*
X54665D02*
D03*
X49665D02*
D03*
X44665D02*
D03*
Y64075D02*
D03*
X49665D02*
D03*
X54665D02*
D03*
X59665D02*
D03*
D47*
X140748Y111221D02*
D03*
X144488Y103347D02*
D03*
X137008D02*
D03*
D48*
X105236Y67716D02*
D03*
X115236D02*
D03*
X105236Y103543D02*
D03*
X115236D02*
D03*
X249921Y192717D02*
D03*
X259921D02*
D03*
X249921Y228543D02*
D03*
X259921D02*
D03*
D49*
X68327Y43110D02*
D03*
Y51378D02*
D03*
X268898Y160039D02*
D03*
Y151772D02*
D03*
D50*
X270669Y124016D02*
D03*
Y108268D02*
D03*
D51*
X279528Y213386D02*
D03*
Y205906D02*
D03*
X287402Y209646D02*
D03*
X232283Y140748D02*
D03*
X240158Y144488D02*
D03*
Y137008D02*
D03*
D52*
X120866Y121063D02*
D03*
X136221D02*
D03*
D53*
X39980Y44094D02*
D03*
Y50394D02*
D03*
X155512Y102756D02*
D03*
Y96457D02*
D03*
X190748Y110433D02*
D03*
Y104134D02*
D03*
X243110Y113583D02*
D03*
Y107283D02*
D03*
X251969Y113583D02*
D03*
Y107283D02*
D03*
X49823Y44094D02*
D03*
Y50394D02*
D03*
D54*
X250000Y175000D02*
D03*
Y159646D02*
D03*
X279528Y237283D02*
D03*
Y221929D02*
D03*
D55*
X105905Y55118D02*
D03*
X114173D02*
D03*
D56*
X255807Y142520D02*
D03*
X248917D02*
D03*
X260650Y247047D02*
D03*
X253760D02*
D03*
X270177Y184055D02*
D03*
X277067D02*
D03*
X283957Y247047D02*
D03*
X290846D02*
D03*
X133366Y83563D02*
D03*
X126476D02*
D03*
Y92520D02*
D03*
X133366D02*
D03*
D61*
X212441Y226575D02*
D03*
X317224D02*
D03*
D62*
X212441Y236417D02*
D03*
X317224D02*
D03*
D63*
X178228Y104331D02*
D03*
X225394Y111221D02*
D03*
X163110Y81653D02*
D03*
Y21654D02*
D03*
X323110Y81653D02*
D03*
Y21654D02*
D03*
D64*
X168228Y104331D02*
D03*
X211394Y111221D02*
D03*
D65*
X146653Y45276D02*
D03*
Y55276D02*
D03*
D66*
X53150Y156496D02*
D03*
X316929Y119095D02*
D03*
D67*
X53150D02*
D03*
X316929Y156496D02*
D03*
D68*
X163583Y243307D02*
D03*
X93504Y203543D02*
D03*
X163583Y213386D02*
D03*
X128543Y143701D02*
D03*
D69*
X148622Y153543D02*
D03*
X108465D02*
D03*
D70*
X213583Y159213D02*
D03*
Y189213D02*
D03*
D71*
X313110Y81653D02*
D03*
D72*
X303110D02*
D03*
X293110D02*
D03*
X283110D02*
D03*
X273110D02*
D03*
X263110D02*
D03*
X253110D02*
D03*
X243110D02*
D03*
X233110D02*
D03*
X223110D02*
D03*
X213110D02*
D03*
X203110D02*
D03*
X193110D02*
D03*
X183110D02*
D03*
X173110D02*
D03*
Y21654D02*
D03*
X183110D02*
D03*
X193110D02*
D03*
X203110D02*
D03*
X213110D02*
D03*
X223110D02*
D03*
X233110D02*
D03*
X243110D02*
D03*
X253110D02*
D03*
X263110D02*
D03*
X273110D02*
D03*
X283110D02*
D03*
X293110D02*
D03*
X303110D02*
D03*
X313110D02*
D03*
M02*
