G04*
G04 #@! TF.GenerationSoftware,Altium Limited,Altium Designer,19.1.8 (144)*
G04*
G04 Layer_Color=16711935*
%FSLAX25Y25*%
%MOIN*%
G70*
G01*
G75*
%ADD72C,0.00050*%
D72*
X355906Y13583D02*
X355832Y14586D01*
X355613Y15568D01*
X355254Y16507D01*
X354762Y17384D01*
X354147Y18180D01*
X353423Y18879D01*
X352605Y19464D01*
X351710Y19924D01*
X350758Y20248D01*
X349769Y20431D01*
X348764Y20468D01*
X347764Y20358D01*
X346791Y20103D01*
X345866Y19710D01*
X345007Y19186D01*
X344234Y18543D01*
X343563Y17794D01*
X343007Y16955D01*
X342581Y16044D01*
X342291Y15081D01*
X342144Y14086D01*
Y13080D01*
X342291Y12085D01*
X342581Y11121D01*
X343007Y10211D01*
X343563Y9372D01*
X344234Y8623D01*
X345007Y7979D01*
X345866Y7455D01*
X346791Y7062D01*
X347764Y6808D01*
X348764Y6697D01*
X349769Y6734D01*
X350758Y6917D01*
X351710Y7242D01*
X352605Y7702D01*
X353423Y8287D01*
X354147Y8985D01*
X354762Y9781D01*
X355254Y10658D01*
X355613Y11598D01*
X355832Y12580D01*
X355906Y13583D01*
X27953Y262008D02*
X27879Y263011D01*
X27661Y263993D01*
X27301Y264932D01*
X26809Y265809D01*
X26194Y266605D01*
X25470Y267304D01*
X24652Y267889D01*
X23758Y268349D01*
X22806Y268674D01*
X21816Y268856D01*
X20811Y268893D01*
X19812Y268783D01*
X18838Y268529D01*
X17913Y268135D01*
X17054Y267611D01*
X16281Y266968D01*
X15610Y266219D01*
X15055Y265380D01*
X14628Y264469D01*
X14338Y263506D01*
X14192Y262511D01*
Y261505D01*
X14338Y260510D01*
X14628Y259547D01*
X15055Y258636D01*
X15610Y257797D01*
X16281Y257048D01*
X17054Y256404D01*
X17913Y255880D01*
X18838Y255487D01*
X19812Y255233D01*
X20811Y255123D01*
X21817Y255159D01*
X22806Y255342D01*
X23758Y255667D01*
X24652Y256127D01*
X25470Y256712D01*
X26194Y257410D01*
X26809Y258206D01*
X27301Y259084D01*
X27661Y260023D01*
X27879Y261005D01*
X27953Y262008D01*
Y13583D02*
X27879Y14586D01*
X27661Y15568D01*
X27301Y16507D01*
X26809Y17384D01*
X26194Y18180D01*
X25470Y18879D01*
X24652Y19464D01*
X23758Y19924D01*
X22806Y20248D01*
X21816Y20431D01*
X20811Y20468D01*
X19812Y20358D01*
X18838Y20103D01*
X17913Y19710D01*
X17054Y19186D01*
X16281Y18543D01*
X15610Y17794D01*
X15055Y16955D01*
X14628Y16044D01*
X14338Y15081D01*
X14192Y14086D01*
Y13080D01*
X14338Y12085D01*
X14628Y11121D01*
X15055Y10211D01*
X15610Y9372D01*
X16281Y8623D01*
X17054Y7979D01*
X17913Y7455D01*
X18838Y7062D01*
X19812Y6808D01*
X20811Y6697D01*
X21817Y6734D01*
X22806Y6917D01*
X23758Y7242D01*
X24652Y7702D01*
X25470Y8287D01*
X26194Y8985D01*
X26809Y9781D01*
X27301Y10658D01*
X27661Y11598D01*
X27879Y12580D01*
X27953Y13583D01*
X355906Y262008D02*
X355832Y263011D01*
X355613Y263993D01*
X355254Y264932D01*
X354762Y265809D01*
X354147Y266605D01*
X353423Y267304D01*
X352605Y267889D01*
X351710Y268349D01*
X350758Y268674D01*
X349769Y268856D01*
X348764Y268893D01*
X347764Y268783D01*
X346791Y268529D01*
X345866Y268135D01*
X345007Y267611D01*
X344234Y266968D01*
X343563Y266219D01*
X343007Y265380D01*
X342581Y264469D01*
X342291Y263506D01*
X342144Y262511D01*
Y261505D01*
X342291Y260510D01*
X342581Y259547D01*
X343007Y258636D01*
X343563Y257797D01*
X344234Y257048D01*
X345007Y256404D01*
X345866Y255880D01*
X346791Y255487D01*
X347764Y255233D01*
X348764Y255123D01*
X349769Y255159D01*
X350758Y255342D01*
X351710Y255667D01*
X352605Y256127D01*
X353423Y256712D01*
X354147Y257410D01*
X354762Y258206D01*
X355254Y259084D01*
X355613Y260023D01*
X355832Y261005D01*
X355906Y262008D01*
X0Y0D02*
X370079D01*
X0D02*
Y275590D01*
X370079D01*
Y0D02*
Y275590D01*
M02*
