G04*
G04 #@! TF.GenerationSoftware,Altium Limited,Altium Designer,19.1.8 (144)*
G04*
G04 Layer_Color=16711935*
%FSLAX25Y25*%
%MOIN*%
G70*
G01*
G75*
%ADD11C,0.00787*%
%ADD17C,0.00500*%
%ADD73C,0.00394*%
%ADD74R,0.11496X0.02436*%
D11*
X73543Y157295D02*
X72756D01*
X73543D01*
X62421Y91024D02*
X61634D01*
X62421D01*
X314370Y90039D02*
X313583D01*
X314370D01*
X118307Y121063D02*
X117520D01*
X118307D01*
X250394Y177953D02*
X249606D01*
X250394D01*
X279921Y240236D02*
X279134D01*
X279921D01*
X297323Y118295D02*
X296535D01*
X297323D01*
X202559Y244094D02*
X220276D01*
X202559Y220866D02*
Y244094D01*
Y220866D02*
X220276D01*
Y244094D01*
X307874D02*
X325590D01*
X307874Y220866D02*
Y244094D01*
Y220866D02*
X325590D01*
Y244094D01*
D17*
X2650Y179795D02*
X68650D01*
Y96795D02*
Y179795D01*
X2650Y96795D02*
X68650D01*
X2650D02*
Y179795D01*
X62008Y65945D02*
Y81693D01*
X42323Y65945D02*
Y81693D01*
X62008D01*
X42323Y65945D02*
X62008D01*
X76181Y127953D02*
Y253937D01*
Y127953D02*
X184843D01*
Y253937D01*
X76181D02*
X184843D01*
X328110Y16654D02*
Y86654D01*
X158110D02*
X328110D01*
X158110Y16654D02*
X328110D01*
X158110D02*
Y86654D01*
X121378Y118110D02*
Y124016D01*
X135709Y118110D02*
Y124016D01*
X125315Y118110D02*
Y124016D01*
X125709Y118110D02*
Y124016D01*
X121378D02*
X135709D01*
X121378Y118110D02*
X135709D01*
X247047Y174488D02*
X252953D01*
X247047Y160158D02*
X252953D01*
X247047Y170551D02*
X252953D01*
X247047Y170158D02*
X252953D01*
Y160158D02*
Y174488D01*
X247047Y160158D02*
Y174488D01*
X276575Y236772D02*
X282480D01*
X276575Y222441D02*
X282480D01*
X276575Y232835D02*
X282480D01*
X276575Y232441D02*
X282480D01*
Y222441D02*
Y236772D01*
X276575Y222441D02*
Y236772D01*
X301429Y95795D02*
X367429D01*
X301429D02*
Y178795D01*
X367429D01*
Y95795D02*
Y178795D01*
D73*
X105709Y75394D02*
X105445Y76378D01*
X104724Y77099D01*
X103740Y77362D01*
X102756Y77099D01*
X102035Y76378D01*
X101772Y75394D01*
X102035Y74410D01*
X102756Y73689D01*
X103740Y73425D01*
X104724Y73689D01*
X105445Y74410D01*
X105709Y75394D01*
X250394Y200394D02*
X250130Y201378D01*
X249410Y202098D01*
X248425Y202362D01*
X247441Y202098D01*
X246720Y201378D01*
X246457Y200394D01*
X246720Y199409D01*
X247441Y198689D01*
X248425Y198425D01*
X249410Y198689D01*
X250130Y199409D01*
X250394Y200394D01*
X137894Y49508D02*
Y58169D01*
X132579Y49508D02*
Y58169D01*
X137894D01*
X132579Y49508D02*
X137894D01*
X146457Y104528D02*
Y110039D01*
X135039Y104528D02*
Y110039D01*
X146457D01*
X135039Y104528D02*
X146457D01*
X100197Y71850D02*
X120276D01*
X100197Y99409D02*
X120276D01*
X100197Y71850D02*
Y99409D01*
X120276Y71850D02*
Y99409D01*
X65669Y42913D02*
X70984D01*
X65669Y51575D02*
X70984D01*
X65669Y42913D02*
Y51575D01*
X70984Y42913D02*
Y51575D01*
X276417Y107087D02*
Y125197D01*
X264921Y107087D02*
Y125197D01*
X276417D01*
X264921Y107087D02*
X276417D01*
X280709Y204134D02*
Y215158D01*
X286221Y204134D02*
Y215158D01*
X280709D02*
X286221D01*
X280709Y204134D02*
X286221D01*
X37224Y42913D02*
X42736D01*
X37224Y51575D02*
X42736D01*
X37224Y42913D02*
Y51575D01*
X42736Y42913D02*
Y51575D01*
X152756Y103937D02*
X158268D01*
X152756Y95276D02*
X158268D01*
Y103937D01*
X152756Y95276D02*
Y103937D01*
X187992Y111614D02*
X193504D01*
X187992Y102953D02*
X193504D01*
Y111614D01*
X187992Y102953D02*
Y111614D01*
X240354Y114764D02*
X245866D01*
X240354Y106102D02*
X245866D01*
Y114764D01*
X240354Y106102D02*
Y114764D01*
X249213D02*
X254724D01*
X249213Y106102D02*
X254724D01*
Y114764D01*
X249213Y106102D02*
Y114764D01*
X47067Y42913D02*
X52579D01*
X47067Y51575D02*
X52579D01*
X47067Y42913D02*
Y51575D01*
X52579Y42913D02*
Y51575D01*
X244882Y196850D02*
X264961D01*
X244882Y224409D02*
X264961D01*
X244882Y196850D02*
Y224409D01*
X264961Y196850D02*
Y224409D01*
X105709Y52461D02*
Y57776D01*
X114370Y52461D02*
Y57776D01*
X105709D02*
X114370D01*
X105709Y52461D02*
X114370D01*
X233465Y146457D02*
X238976D01*
X233465Y135039D02*
X238976D01*
X233465D02*
Y146457D01*
X238976Y135039D02*
Y146457D01*
X256693Y139862D02*
Y145177D01*
X248031Y139862D02*
Y145177D01*
Y139862D02*
X256693D01*
X248031Y145177D02*
X256693D01*
X261535Y244390D02*
Y249705D01*
X252874Y244390D02*
Y249705D01*
Y244390D02*
X261535D01*
X252874Y249705D02*
X261535D01*
X269291Y181398D02*
Y186713D01*
X277953Y181398D02*
Y186713D01*
X269291D02*
X277953D01*
X269291Y181398D02*
X277953D01*
X283071Y244390D02*
Y249705D01*
X291732Y244390D02*
Y249705D01*
X283071D02*
X291732D01*
X283071Y244390D02*
X291732D01*
X287894Y225492D02*
X293209D01*
X287894Y234154D02*
X293209D01*
X287894Y225492D02*
Y234154D01*
X293209Y225492D02*
Y234154D01*
X287697Y115551D02*
X293012D01*
X287697Y106890D02*
X293012D01*
Y115551D01*
X287697Y106890D02*
Y115551D01*
Y132776D02*
X293012D01*
X287697Y124114D02*
X293012D01*
Y132776D01*
X287697Y124114D02*
Y132776D01*
X134252Y80905D02*
Y86221D01*
X125591Y80905D02*
Y86221D01*
Y80905D02*
X134252D01*
X125591Y86221D02*
X134252D01*
X125591Y89862D02*
Y95177D01*
X134252Y89862D02*
Y95177D01*
X125591D02*
X134252D01*
X125591Y89862D02*
X134252D01*
X266240Y160236D02*
X271555D01*
X266240Y151575D02*
X271555D01*
Y160236D01*
X266240Y151575D02*
Y160236D01*
X275886Y161543D02*
X281201D01*
X275886Y152882D02*
X281201D01*
Y161543D01*
X275886Y152882D02*
Y161543D01*
X56024Y42913D02*
X61339D01*
X56024Y51575D02*
X61339D01*
X56024Y42913D02*
Y51575D01*
X61339Y42913D02*
Y51575D01*
D74*
X270669Y123979D02*
D03*
M02*
