G04*
G04 #@! TF.GenerationSoftware,Altium Limited,Altium Designer,19.1.8 (144)*
G04*
G04 Layer_Color=32768*
%FSLAX25Y25*%
%MOIN*%
G70*
G01*
G75*
%ADD11C,0.00787*%
%ADD73C,0.00394*%
%ADD75C,0.00197*%
D11*
X200984Y245866D02*
X221850D01*
Y219094D02*
Y245866D01*
X200984Y219094D02*
X221850D01*
X200984D02*
Y245866D01*
X213583Y230512D02*
Y234449D01*
X211614Y232480D02*
X215551D01*
X306299Y245866D02*
X327165D01*
Y219094D02*
Y245866D01*
X306299Y219094D02*
X327165D01*
X306299D02*
Y245866D01*
X318898Y230512D02*
Y234449D01*
X316929Y232480D02*
X320866D01*
D73*
X133268Y53839D02*
X137205D01*
X135236Y51870D02*
Y55807D01*
X138779Y107283D02*
X142717D01*
X140748Y105315D02*
Y109252D01*
X110236Y83661D02*
Y87598D01*
X108268Y85630D02*
X112205D01*
X68327Y45276D02*
Y49213D01*
X66358Y47244D02*
X70295D01*
X268701Y116142D02*
X272638D01*
X270669Y114173D02*
Y118110D01*
X281496Y209646D02*
X285433D01*
X283465Y207677D02*
Y211614D01*
X39980Y45276D02*
Y49213D01*
X38012Y47244D02*
X41949D01*
X155512Y97638D02*
Y101575D01*
X153543Y99606D02*
X157480D01*
X190748Y105315D02*
Y109252D01*
X188779Y107283D02*
X192717D01*
X243110Y108465D02*
Y112402D01*
X241142Y110433D02*
X245079D01*
X251969Y108465D02*
Y112402D01*
X250000Y110433D02*
X253937D01*
X49823Y45276D02*
Y49213D01*
X47854Y47244D02*
X51791D01*
X254921Y208661D02*
Y212598D01*
X252953Y210630D02*
X256890D01*
X108071Y55118D02*
X112008D01*
X110039Y53150D02*
Y57087D01*
X236221Y138779D02*
Y142717D01*
X234252Y140748D02*
X238189D01*
X250394Y142520D02*
X254331D01*
X252362Y140551D02*
Y144488D01*
X255236Y247047D02*
X259173D01*
X257205Y245079D02*
Y249016D01*
X271654Y184055D02*
X275591D01*
X273622Y182087D02*
Y186024D01*
X285433Y247047D02*
X289370D01*
X287402Y245079D02*
Y249016D01*
X290551Y227854D02*
Y231791D01*
X288583Y229823D02*
X292520D01*
X290354Y109252D02*
Y113189D01*
X288386Y111221D02*
X292323D01*
X290354Y126476D02*
Y130413D01*
X288386Y128445D02*
X292323D01*
X127953Y83563D02*
X131890D01*
X129921Y81595D02*
Y85532D01*
X127953Y92520D02*
X131890D01*
X129921Y90551D02*
Y94488D01*
X268898Y153937D02*
Y157874D01*
X266929Y155905D02*
X270866D01*
X278543Y155244D02*
Y159181D01*
X276575Y157213D02*
X280512D01*
X58681Y45276D02*
Y49213D01*
X56713Y47244D02*
X60650D01*
D75*
X138976Y47146D02*
Y60532D01*
X131496Y47146D02*
Y60532D01*
X138976D01*
X131496Y47146D02*
X138976D01*
X68650Y96795D02*
Y179795D01*
X2650Y96795D02*
Y179795D01*
X68650D01*
X2650Y96795D02*
X68650D01*
X62992Y59213D02*
Y88425D01*
X41339Y59213D02*
Y88425D01*
X62992D01*
X41339Y59213D02*
X62992D01*
X75197Y126969D02*
Y254921D01*
Y126969D02*
X185827D01*
Y254921D01*
X75197D02*
X185827D01*
X329095Y15669D02*
Y87638D01*
X157126Y15669D02*
X329095D01*
X157126D02*
Y87638D01*
X329095D01*
X147441Y100591D02*
Y113976D01*
X134055Y100591D02*
Y113976D01*
X147441D01*
X134055Y100591D02*
X147441D01*
X99213Y62598D02*
X121260D01*
X99213Y108661D02*
X121260D01*
X99213Y62598D02*
Y108661D01*
X121260Y62598D02*
Y108661D01*
X64587Y39744D02*
X72067D01*
X64587Y54744D02*
X72067D01*
X64587Y39744D02*
Y54744D01*
X72067Y39744D02*
Y54744D01*
X277559Y102142D02*
Y130142D01*
X263779Y102142D02*
Y130142D01*
X277559D01*
X263779Y102142D02*
X277559D01*
X276772Y202953D02*
Y216339D01*
X290158Y202953D02*
Y216339D01*
X276772D02*
X290158D01*
X276772Y202953D02*
X290158D01*
X118701Y116831D02*
Y125295D01*
X138386D01*
Y116831D02*
Y125295D01*
X118701Y116831D02*
X138386D01*
X36240Y40551D02*
X43720D01*
X36240Y53937D02*
X43720D01*
X36240Y40551D02*
Y53937D01*
X43720Y40551D02*
Y53937D01*
X151772Y106299D02*
X159252D01*
X151772Y92913D02*
X159252D01*
Y106299D01*
X151772Y92913D02*
Y106299D01*
X187008Y113976D02*
X194488D01*
X187008Y100591D02*
X194488D01*
Y113976D01*
X187008Y100591D02*
Y113976D01*
X239370Y117126D02*
X246850D01*
X239370Y103740D02*
X246850D01*
Y117126D01*
X239370Y103740D02*
Y117126D01*
X248228D02*
X255709D01*
X248228Y103740D02*
X255709D01*
Y117126D01*
X248228Y103740D02*
Y117126D01*
X46083Y40551D02*
X53563D01*
X46083Y53937D02*
X53563D01*
X46083Y40551D02*
Y53937D01*
X53563Y40551D02*
Y53937D01*
X245768Y177165D02*
X254232D01*
Y157480D02*
Y177165D01*
X245768Y157480D02*
X254232D01*
X245768D02*
Y177165D01*
X243898Y187598D02*
X265945D01*
X243898Y233661D02*
X265945D01*
X243898Y187598D02*
Y233661D01*
X265945Y187598D02*
Y233661D01*
X275295Y239449D02*
X283760D01*
Y219764D02*
Y239449D01*
X275295Y219764D02*
X283760D01*
X275295D02*
Y239449D01*
X102539Y51378D02*
Y58858D01*
X117539Y51378D02*
Y58858D01*
X102539D02*
X117539D01*
X102539Y51378D02*
X117539D01*
X301429Y95795D02*
Y178795D01*
X367429Y95795D02*
Y178795D01*
X301429Y95795D02*
X367429D01*
X301429Y178795D02*
X367429D01*
X229528Y147441D02*
X242913D01*
X229528Y134055D02*
X242913D01*
X229528D02*
Y147441D01*
X242913Y134055D02*
Y147441D01*
X259055Y138779D02*
Y146260D01*
X245669Y138779D02*
Y146260D01*
Y138779D02*
X259055D01*
X245669Y146260D02*
X259055D01*
X263898Y243307D02*
Y250787D01*
X250512Y243307D02*
Y250787D01*
Y243307D02*
X263898D01*
X250512Y250787D02*
X263898D01*
X266929Y180315D02*
Y187795D01*
X280315Y180315D02*
Y187795D01*
X266929D02*
X280315D01*
X266929Y180315D02*
X280315D01*
X280709Y243307D02*
Y250787D01*
X294094Y243307D02*
Y250787D01*
X280709D02*
X294094D01*
X280709Y243307D02*
X294094D01*
X286811Y223130D02*
X294291D01*
X286811Y236516D02*
X294291D01*
X286811Y223130D02*
Y236516D01*
X294291Y223130D02*
Y236516D01*
X286614Y117913D02*
X294094D01*
X286614Y104527D02*
X294094D01*
Y117913D01*
X286614Y104527D02*
Y117913D01*
Y135138D02*
X294094D01*
X286614Y121752D02*
X294094D01*
Y135138D01*
X286614Y121752D02*
Y135138D01*
X136614Y79823D02*
Y87303D01*
X123228Y79823D02*
Y87303D01*
Y79823D02*
X136614D01*
X123228Y87303D02*
X136614D01*
X123228Y88779D02*
Y96260D01*
X136614Y88779D02*
Y96260D01*
X123228D02*
X136614D01*
X123228Y88779D02*
X136614D01*
X265158Y163406D02*
X272638D01*
X265158Y148406D02*
X272638D01*
Y163406D01*
X265158Y148406D02*
Y163406D01*
X274803Y163906D02*
X282283D01*
X274803Y150520D02*
X282283D01*
Y163906D01*
X274803Y150520D02*
Y163906D01*
X54941Y40551D02*
X62421D01*
X54941Y53937D02*
X62421D01*
X54941Y40551D02*
Y53937D01*
X62421Y40551D02*
Y53937D01*
M02*
