G04*
G04 #@! TF.GenerationSoftware,Altium Limited,Altium Designer,19.1.8 (144)*
G04*
G04 Layer_Physical_Order=1*
G04 Layer_Color=255*
%FSLAX25Y25*%
%MOIN*%
G70*
G01*
G75*
%ADD10C,0.01968*%
G04:AMPARAMS|DCode=43|XSize=77.56mil|YSize=23.62mil|CornerRadius=2.95mil|HoleSize=0mil|Usage=FLASHONLY|Rotation=270.000|XOffset=0mil|YOffset=0mil|HoleType=Round|Shape=RoundedRectangle|*
%AMROUNDEDRECTD43*
21,1,0.07756,0.01772,0,0,270.0*
21,1,0.07165,0.02362,0,0,270.0*
1,1,0.00591,-0.00886,-0.03583*
1,1,0.00591,-0.00886,0.03583*
1,1,0.00591,0.00886,0.03583*
1,1,0.00591,0.00886,-0.03583*
%
%ADD43ROUNDEDRECTD43*%
%ADD44R,0.04528X0.05315*%
%ADD45R,0.03150X0.03543*%
%ADD46O,0.05512X0.08268*%
%ADD47R,0.04724X0.04724*%
%ADD48R,0.06693X0.09843*%
%ADD49R,0.03543X0.03150*%
%ADD50R,0.02362X0.06496*%
%ADD51R,0.05512X0.05118*%
%ADD52R,0.06496X0.02362*%
%ADD53R,0.04724X0.04724*%
%ADD54R,0.05315X0.04528*%
%ADD55C,0.03937*%
%ADD56C,0.01181*%
%ADD57C,0.01000*%
%ADD58C,0.23622*%
%ADD59R,0.10925X0.10925*%
%ADD60C,0.10925*%
%ADD61C,0.12268*%
%ADD62C,0.06496*%
%ADD63C,0.06500*%
%ADD64P,0.07036X8X202.5*%
%ADD65P,0.09200X8X112.5*%
G04:AMPARAMS|DCode=66|XSize=80mil|YSize=60mil|CornerRadius=0mil|HoleSize=0mil|Usage=FLASHONLY|Rotation=180.000|XOffset=0mil|YOffset=0mil|HoleType=Round|Shape=Octagon|*
%AMOCTAGOND66*
4,1,8,-0.04000,0.01500,-0.04000,-0.01500,-0.02500,-0.03000,0.02500,-0.03000,0.04000,-0.01500,0.04000,0.01500,0.02500,0.03000,-0.02500,0.03000,-0.04000,0.01500,0.0*
%
%ADD66OCTAGOND66*%

%ADD67R,0.05937X0.05937*%
%ADD68C,0.05937*%
%ADD69O,0.09843X0.05906*%
%ADD70C,0.02756*%
G36*
X366108Y3971D02*
X3971D01*
Y271620D01*
X366108D01*
Y3971D01*
D02*
G37*
%LPC*%
G36*
X349694Y270905D02*
X348337D01*
X348143Y270866D01*
X347946D01*
X346615Y270601D01*
X346432Y270526D01*
X346238Y270487D01*
X344984Y269968D01*
X344820Y269858D01*
X344637Y269782D01*
X343509Y269028D01*
X343369Y268888D01*
X343205Y268779D01*
X342245Y267819D01*
X342135Y267655D01*
X341995Y267515D01*
X341241Y266387D01*
X341166Y266204D01*
X341056Y266039D01*
X340536Y264786D01*
X340498Y264592D01*
X340422Y264409D01*
X340158Y263078D01*
Y262880D01*
X340119Y262686D01*
Y261329D01*
X340158Y261135D01*
Y260938D01*
X340422Y259607D01*
X340498Y259424D01*
X340536Y259230D01*
X341056Y257976D01*
X341166Y257812D01*
X341241Y257629D01*
X341995Y256501D01*
X342135Y256361D01*
X342245Y256197D01*
X343205Y255237D01*
X343369Y255127D01*
X343509Y254987D01*
X344637Y254233D01*
X344820Y254158D01*
X344984Y254048D01*
X346238Y253529D01*
X346432Y253490D01*
X346615Y253414D01*
X347946Y253150D01*
X348143D01*
X348337Y253111D01*
X349694D01*
X349888Y253150D01*
X350086D01*
X351417Y253414D01*
X351600Y253490D01*
X351794Y253529D01*
X353047Y254048D01*
X353212Y254158D01*
X353394Y254233D01*
X354523Y254987D01*
X354663Y255127D01*
X354827Y255237D01*
X355787Y256197D01*
X355896Y256361D01*
X356036Y256501D01*
X356790Y257629D01*
X356866Y257812D01*
X356976Y257976D01*
X357495Y259230D01*
X357534Y259424D01*
X357609Y259607D01*
X357874Y260938D01*
Y261135D01*
X357913Y261329D01*
Y262686D01*
X357874Y262880D01*
Y263078D01*
X357609Y264409D01*
X357534Y264592D01*
X357495Y264786D01*
X356976Y266039D01*
X356866Y266204D01*
X356790Y266387D01*
X356036Y267515D01*
X355896Y267655D01*
X355787Y267819D01*
X354827Y268779D01*
X354663Y268888D01*
X354523Y269028D01*
X353394Y269782D01*
X353212Y269858D01*
X353047Y269968D01*
X351794Y270487D01*
X351600Y270526D01*
X351417Y270601D01*
X350086Y270866D01*
X349888D01*
X349694Y270905D01*
D02*
G37*
G36*
X21742D02*
X20384D01*
X20190Y270866D01*
X19993D01*
X18662Y270601D01*
X18479Y270526D01*
X18285Y270487D01*
X17031Y269968D01*
X16867Y269858D01*
X16684Y269782D01*
X15556Y269028D01*
X15416Y268888D01*
X15252Y268779D01*
X14292Y267819D01*
X14182Y267655D01*
X14042Y267515D01*
X13288Y266387D01*
X13213Y266204D01*
X13103Y266039D01*
X12584Y264786D01*
X12545Y264592D01*
X12470Y264409D01*
X12205Y263078D01*
Y262880D01*
X12166Y262686D01*
Y261329D01*
X12205Y261135D01*
Y260938D01*
X12470Y259607D01*
X12545Y259424D01*
X12584Y259230D01*
X13103Y257976D01*
X13213Y257812D01*
X13288Y257629D01*
X14042Y256501D01*
X14182Y256361D01*
X14292Y256197D01*
X15252Y255237D01*
X15416Y255127D01*
X15556Y254987D01*
X16684Y254233D01*
X16867Y254158D01*
X17031Y254048D01*
X18285Y253529D01*
X18479Y253490D01*
X18662Y253414D01*
X19993Y253150D01*
X20190D01*
X20384Y253111D01*
X21742D01*
X21935Y253150D01*
X22133D01*
X23464Y253414D01*
X23647Y253490D01*
X23841Y253529D01*
X25095Y254048D01*
X25259Y254158D01*
X25442Y254233D01*
X26570Y254987D01*
X26710Y255127D01*
X26874Y255237D01*
X27834Y256197D01*
X27944Y256361D01*
X28083Y256501D01*
X28837Y257629D01*
X28913Y257812D01*
X29023Y257976D01*
X29542Y259230D01*
X29581Y259424D01*
X29656Y259607D01*
X29921Y260938D01*
Y261135D01*
X29960Y261329D01*
Y262686D01*
X29921Y262880D01*
Y263078D01*
X29656Y264409D01*
X29581Y264592D01*
X29542Y264786D01*
X29023Y266039D01*
X28913Y266204D01*
X28837Y266387D01*
X28083Y267515D01*
X27944Y267655D01*
X27834Y267819D01*
X26874Y268779D01*
X26710Y268888D01*
X26570Y269028D01*
X25442Y269782D01*
X25259Y269858D01*
X25095Y269968D01*
X23841Y270487D01*
X23647Y270526D01*
X23464Y270601D01*
X22133Y270866D01*
X21936D01*
X21742Y270905D01*
D02*
G37*
G36*
X163583Y250676D02*
X162145Y250535D01*
X160763Y250115D01*
X159488Y249434D01*
X158372Y248518D01*
X157455Y247401D01*
X156774Y246127D01*
X156355Y244745D01*
X156213Y243307D01*
X156355Y241869D01*
X156774Y240487D01*
X156952Y240154D01*
X156556Y239836D01*
X155762Y240513D01*
X153913Y241646D01*
X151909Y242476D01*
X149800Y242983D01*
X147638Y243153D01*
X57797D01*
X55634Y242983D01*
X53525Y242476D01*
X51521Y241646D01*
X49672Y240513D01*
X48023Y239104D01*
X12633Y203715D01*
X11225Y202066D01*
X10091Y200217D01*
X9262Y198213D01*
X8755Y196104D01*
X8585Y193941D01*
Y86614D01*
X8755Y84452D01*
X9262Y82343D01*
X10091Y80339D01*
X10265Y80056D01*
X10978Y78821D01*
X11065Y78722D01*
X11124Y78603D01*
X12028Y77425D01*
X12127Y77337D01*
X12201Y77227D01*
X13251Y76177D01*
X13361Y76104D01*
X13448Y76004D01*
X14627Y75100D01*
X14745Y75041D01*
X14845Y74954D01*
X16131Y74212D01*
X16257Y74169D01*
X16367Y74095D01*
X17739Y73527D01*
X17869Y73501D01*
X17987Y73443D01*
X19422Y73058D01*
X19554Y73050D01*
X19679Y73007D01*
X21152Y72813D01*
X21284Y72822D01*
X21414Y72796D01*
X22356D01*
X22407Y72792D01*
X22458Y72796D01*
X45275Y72796D01*
X45339Y72809D01*
X45404Y72800D01*
X45986Y72838D01*
X46178Y72889D01*
X46376Y72901D01*
X47503Y73203D01*
X47681Y73290D01*
X47872Y73341D01*
X48919Y73857D01*
X49076Y73978D01*
X49254Y74066D01*
X50179Y74776D01*
X50310Y74926D01*
X50467Y75046D01*
X51235Y75924D01*
X51334Y76096D01*
X51465Y76246D01*
X51623Y76521D01*
X51719Y76557D01*
X52204Y76529D01*
X52676Y75823D01*
X52816Y75683D01*
X52925Y75519D01*
X53671Y74773D01*
X53836Y74663D01*
X53975Y74523D01*
X54852Y73937D01*
X55035Y73862D01*
X55199Y73752D01*
X56173Y73348D01*
X56367Y73310D01*
X56550Y73234D01*
X57584Y73028D01*
X57782D01*
X57976Y72990D01*
X58503Y72990D01*
X68558Y72990D01*
X69070Y72990D01*
X69262Y73028D01*
X69458Y73027D01*
X70462Y73225D01*
X70643Y73299D01*
X70836Y73337D01*
X71783Y73725D01*
X71947Y73833D01*
X72128Y73907D01*
X72983Y74471D01*
X73122Y74608D01*
X73286Y74716D01*
X74016Y75434D01*
X74126Y75596D01*
X74265Y75734D01*
X74843Y76579D01*
X74919Y76760D01*
X75030Y76921D01*
X75433Y77863D01*
X75473Y78054D01*
X75551Y78234D01*
X75764Y79236D01*
X75767Y79432D01*
X75808Y79623D01*
X75816Y80135D01*
X75816Y80135D01*
X75905Y85953D01*
X75904Y85961D01*
X75905Y85969D01*
X75989Y97605D01*
X75987Y97613D01*
X75989Y97622D01*
X75977Y109258D01*
X75976Y109266D01*
X75977Y109274D01*
X75870Y120911D01*
X75868Y120919D01*
X75870Y120927D01*
X75768Y126744D01*
X75768Y126744D01*
X75752Y127687D01*
X75710Y127878D01*
X75707Y128073D01*
X75311Y129917D01*
X75234Y130096D01*
X75193Y130288D01*
X74449Y132020D01*
X74338Y132181D01*
X74261Y132361D01*
X73197Y133917D01*
X73057Y134054D01*
X72947Y134215D01*
X71602Y135537D01*
X71439Y135644D01*
X71300Y135782D01*
X69725Y136819D01*
X69544Y136892D01*
X69381Y137000D01*
X67636Y137714D01*
X67444Y137752D01*
X67263Y137826D01*
X65413Y138190D01*
X65218Y138189D01*
X65026Y138227D01*
X64083Y138227D01*
X44094Y138227D01*
X44093Y138227D01*
X43745Y138227D01*
X43551Y138189D01*
X43354D01*
X42669Y138053D01*
X42487Y137977D01*
X42293Y137938D01*
X41648Y137671D01*
X41484Y137562D01*
X41301Y137486D01*
X40721Y137098D01*
X40581Y136958D01*
X40416Y136848D01*
X39923Y136355D01*
X39813Y136191D01*
X39673Y136051D01*
X39286Y135470D01*
X39210Y135288D01*
X39100Y135124D01*
X38833Y134479D01*
X38794Y134285D01*
X38719Y134102D01*
X38583Y133418D01*
Y133220D01*
X38544Y133026D01*
X38544Y132677D01*
X38544Y116535D01*
X38544Y116147D01*
X38583Y115954D01*
Y115756D01*
X38734Y114995D01*
X38810Y114813D01*
X38848Y114619D01*
X39145Y113902D01*
X39255Y113738D01*
X39331Y113555D01*
X39761Y112910D01*
X39901Y112771D01*
X39913Y112753D01*
X39708Y112253D01*
X36229D01*
Y188216D01*
X63522Y215509D01*
X141912D01*
X153809Y203612D01*
X155458Y202203D01*
X157308Y201070D01*
X159311Y200240D01*
X161420Y199734D01*
X163583Y199564D01*
X165745Y199734D01*
X167854Y200240D01*
X169858Y201070D01*
X171707Y202203D01*
X173356Y203612D01*
X174765Y205261D01*
X175898Y207111D01*
X176728Y209115D01*
X177235Y211224D01*
X177405Y213386D01*
X177235Y215548D01*
X176728Y217657D01*
X175898Y219661D01*
X174765Y221510D01*
X173356Y223160D01*
X160379Y236137D01*
X160680Y236543D01*
X160763Y236499D01*
X162145Y236079D01*
X163583Y235938D01*
X165020Y236079D01*
X166403Y236499D01*
X167677Y237180D01*
X168794Y238096D01*
X169710Y239213D01*
X170391Y240487D01*
X170810Y241869D01*
X170952Y243307D01*
X170810Y244745D01*
X170391Y246127D01*
X169710Y247401D01*
X168794Y248518D01*
X167677Y249434D01*
X166403Y250115D01*
X165020Y250535D01*
X163583Y250676D01*
D02*
G37*
G36*
X294310Y250905D02*
X280493D01*
Y243190D01*
X280880D01*
Y240781D01*
X280361Y240262D01*
X267284D01*
X266513Y240160D01*
X265794Y239863D01*
X265178Y239389D01*
X259666Y233878D01*
X258889Y233775D01*
X258557Y233638D01*
X258274Y234062D01*
X262755Y238544D01*
X262755Y238544D01*
X263229Y239160D01*
X263526Y239879D01*
X263628Y240650D01*
Y243190D01*
X264113D01*
Y250905D01*
X250296D01*
Y247402D01*
X242290Y239396D01*
X218492D01*
X217646Y240045D01*
X216635Y240463D01*
X215551Y240606D01*
X211614D01*
X210530Y240463D01*
X209520Y240045D01*
X208652Y239379D01*
X207987Y238512D01*
X207568Y237501D01*
X207426Y236417D01*
X207568Y235333D01*
X207987Y234323D01*
X208652Y233455D01*
X209520Y232790D01*
X210530Y232371D01*
X211614Y232229D01*
X215551D01*
X216635Y232371D01*
X217646Y232790D01*
X218492Y233439D01*
X243524D01*
X244294Y233541D01*
X245013Y233838D01*
X245630Y234311D01*
X254508Y243190D01*
X257671D01*
Y241883D01*
X249666Y233878D01*
X248889Y233775D01*
X247926Y233377D01*
X247100Y232743D01*
X246466Y231916D01*
X246067Y230954D01*
X245931Y229921D01*
Y227165D01*
X246067Y226133D01*
X246466Y225170D01*
X247100Y224344D01*
X247926Y223710D01*
X248889Y223311D01*
X249921Y223175D01*
X250954Y223311D01*
X251916Y223710D01*
X252743Y224344D01*
X253377Y225170D01*
X253775Y226133D01*
X253911Y227165D01*
Y229699D01*
X255781Y231569D01*
X256205Y231286D01*
X256067Y230954D01*
X255931Y229921D01*
Y227165D01*
X256067Y226133D01*
X256466Y225170D01*
X257100Y224344D01*
X257926Y223710D01*
X258889Y223311D01*
X259921Y223175D01*
X260954Y223311D01*
X261916Y223710D01*
X262743Y224344D01*
X263377Y225170D01*
X263775Y226133D01*
X263911Y227165D01*
Y229699D01*
X268517Y234305D01*
X275464D01*
Y234134D01*
X275526Y233822D01*
X275703Y233557D01*
X275967Y233380D01*
X276279Y233318D01*
X278543D01*
X278855Y233380D01*
X279120Y233557D01*
X279259Y233766D01*
X279528Y233796D01*
X279796Y233766D01*
X279935Y233557D01*
X280200Y233380D01*
X280512Y233318D01*
X282776D01*
X283088Y233380D01*
X283352Y233557D01*
X283529Y233822D01*
X283591Y234134D01*
Y234902D01*
X283976D01*
Y235453D01*
X285964Y237441D01*
X286438Y238058D01*
X286735Y238776D01*
X286837Y239547D01*
X286837Y239547D01*
Y243190D01*
X287573D01*
Y236732D01*
X286694D01*
Y229804D01*
X293675D01*
Y222297D01*
X287743Y216364D01*
X281398D01*
X280692Y216656D01*
X279921Y216758D01*
X279151Y216656D01*
X278432Y216359D01*
X278174Y216161D01*
X276556D01*
Y213436D01*
X276549Y213386D01*
X276556Y213336D01*
Y210611D01*
X278511D01*
X278757Y210509D01*
X279528Y210408D01*
X284430D01*
Y209696D01*
X284423Y209646D01*
X284430Y209596D01*
Y206871D01*
X286385D01*
X286631Y206769D01*
X287402Y206667D01*
X298031D01*
X298802Y206769D01*
X299521Y207066D01*
X300137Y207540D01*
X316952Y224355D01*
X320866D01*
X321950Y224497D01*
X322960Y224916D01*
X323828Y225582D01*
X324494Y226449D01*
X324912Y227459D01*
X325055Y228543D01*
X324912Y229627D01*
X324494Y230638D01*
X323828Y231505D01*
X322960Y232171D01*
X322817Y232230D01*
Y232730D01*
X322960Y232790D01*
X323828Y233455D01*
X324494Y234323D01*
X324912Y235333D01*
X325055Y236417D01*
X324912Y237501D01*
X324494Y238512D01*
X323828Y239379D01*
X322960Y240045D01*
X321950Y240463D01*
X320866Y240606D01*
X316929D01*
X315845Y240463D01*
X314835Y240045D01*
X313967Y239379D01*
X313302Y238512D01*
X312883Y237501D01*
X312740Y236417D01*
X312883Y235333D01*
X313302Y234323D01*
X313967Y233455D01*
X314835Y232790D01*
X314979Y232730D01*
Y232230D01*
X314835Y232171D01*
X313967Y231505D01*
X313302Y230638D01*
X312883Y229627D01*
X312744Y228570D01*
X296798Y212624D01*
X293080D01*
X292888Y213086D01*
X298760Y218957D01*
X299233Y219574D01*
X299530Y220292D01*
X299632Y221063D01*
X299632Y221063D01*
Y232115D01*
X299530Y232885D01*
X299233Y233604D01*
X298760Y234221D01*
X297606Y235374D01*
X296989Y235847D01*
X296271Y236144D01*
X295500Y236246D01*
X294409D01*
Y236732D01*
X293529D01*
Y243190D01*
X294310D01*
Y250905D01*
D02*
G37*
G36*
X93504Y210913D02*
X92066Y210771D01*
X90684Y210352D01*
X89410Y209671D01*
X88293Y208754D01*
X87377Y207638D01*
X86696Y206363D01*
X86276Y204981D01*
X86135Y203543D01*
X86276Y202106D01*
X86696Y200723D01*
X87377Y199449D01*
X88293Y198332D01*
X89410Y197416D01*
X90684Y196735D01*
X92066Y196316D01*
X93504Y196174D01*
X94942Y196316D01*
X96324Y196735D01*
X97598Y197416D01*
X98715Y198332D01*
X99631Y199449D01*
X100312Y200723D01*
X100732Y202106D01*
X100873Y203543D01*
X100732Y204981D01*
X100312Y206363D01*
X99631Y207638D01*
X98715Y208754D01*
X97598Y209671D01*
X96324Y210352D01*
X94942Y210771D01*
X93504Y210913D01*
D02*
G37*
G36*
X249921Y198084D02*
X248889Y197949D01*
X247926Y197550D01*
X247100Y196916D01*
X246466Y196089D01*
X246067Y195127D01*
X245931Y194095D01*
Y191339D01*
X246067Y190306D01*
X246466Y189344D01*
X247100Y188517D01*
X247926Y187883D01*
X248889Y187485D01*
X249666Y187382D01*
X255099Y181949D01*
X255716Y181476D01*
X256434Y181178D01*
X257205Y181077D01*
X257205Y181077D01*
X266713D01*
Y180198D01*
X272373D01*
X272543Y179698D01*
X272500Y179665D01*
X258524Y165689D01*
X258051Y165072D01*
X257753Y164354D01*
X257652Y163583D01*
Y151334D01*
X253701Y147383D01*
X253228Y146766D01*
X253067Y146377D01*
X245454D01*
Y142874D01*
X242566Y139986D01*
X240158D01*
X239387Y139885D01*
X239141Y139783D01*
X237186D01*
Y137058D01*
X237179Y137008D01*
X237186Y136958D01*
Y134233D01*
X239141D01*
X239387Y134131D01*
X240158Y134030D01*
X243799D01*
X244570Y134131D01*
X245288Y134429D01*
X245905Y134902D01*
X249665Y138662D01*
X259271D01*
Y144529D01*
X262736Y147994D01*
X262736Y147994D01*
X263209Y148611D01*
X263507Y149329D01*
X263608Y150100D01*
X263608Y150100D01*
Y162349D01*
X264835Y163576D01*
X265335Y163369D01*
X265335Y163198D01*
Y156477D01*
X272460D01*
Y157679D01*
X274686D01*
Y153913D01*
X274572Y153051D01*
Y138556D01*
X267861Y131845D01*
X267230Y131023D01*
X266863Y130137D01*
X266123D01*
Y127987D01*
X262936D01*
X261908Y127851D01*
X260951Y127455D01*
X260128Y126824D01*
X257822Y124517D01*
X257191Y123695D01*
X256794Y122737D01*
X256659Y121710D01*
Y98889D01*
X255836Y98066D01*
X236614D01*
X235586Y97930D01*
X234629Y97534D01*
X233806Y96902D01*
X233175Y96080D01*
X232779Y95122D01*
X232643Y94095D01*
X232779Y93067D01*
X233175Y92109D01*
X233806Y91287D01*
X234629Y90655D01*
X235586Y90259D01*
X236614Y90123D01*
X257480D01*
X258508Y90259D01*
X259466Y90655D01*
X260288Y91287D01*
X263438Y94436D01*
X264069Y95259D01*
X264466Y96216D01*
X264601Y97244D01*
Y120045D01*
X266123D01*
Y117894D01*
X275216D01*
Y127968D01*
X281351Y134103D01*
X281982Y134925D01*
X282379Y135883D01*
X282514Y136911D01*
Y153051D01*
X282401Y153913D01*
Y157194D01*
Y164121D01*
X274686D01*
Y163636D01*
X269516D01*
X269516Y163636D01*
X269256Y163602D01*
X265756D01*
X265568Y163602D01*
X265361Y164102D01*
X275840Y174581D01*
X317270D01*
X352403Y139448D01*
Y50232D01*
X337432Y35262D01*
X303740D01*
X303740Y35262D01*
X302969Y35160D01*
X302251Y34863D01*
X301634Y34389D01*
X301634Y34389D01*
X293102Y25857D01*
X292101Y25725D01*
X291952Y25897D01*
X291845Y26177D01*
X319847Y54178D01*
X335852D01*
X337074Y52956D01*
X343274D01*
X345374Y55057D01*
Y58163D01*
X345788Y58702D01*
X346085Y59421D01*
X346187Y60191D01*
Y73308D01*
X346672D01*
Y81023D01*
X332855D01*
Y77520D01*
X328392Y73057D01*
X205758Y73057D01*
X205551Y73557D01*
X205918Y73924D01*
X206549Y74747D01*
X206946Y75704D01*
X207081Y76732D01*
Y80348D01*
X207172Y80565D01*
X207315Y81653D01*
X207172Y82742D01*
X207081Y82960D01*
Y92450D01*
X211448Y96816D01*
X214961D01*
X215988Y96952D01*
X216946Y97348D01*
X217769Y97979D01*
X225741Y105951D01*
X227216Y104476D01*
X228039Y103844D01*
X228996Y103448D01*
X230024Y103313D01*
X251969D01*
X252996Y103448D01*
X253181Y103524D01*
X255924D01*
Y107169D01*
X255940Y107283D01*
X255924Y107398D01*
Y111042D01*
X253181D01*
X252996Y111119D01*
X251969Y111254D01*
X231669D01*
X228895Y114028D01*
X228781Y114116D01*
X228568Y114394D01*
X227638Y115108D01*
X226555Y115556D01*
X225394Y115709D01*
X225149Y115677D01*
X201246Y139580D01*
Y173806D01*
X211203Y183763D01*
X216308D01*
X218779Y186234D01*
X232487D01*
X245552Y173169D01*
Y172619D01*
X245936D01*
Y171850D01*
X245998Y171538D01*
X246175Y171274D01*
X246440Y171097D01*
X246752Y171035D01*
X249016D01*
X249328Y171097D01*
X249592Y171274D01*
X249732Y171482D01*
X250000Y171512D01*
X250268Y171482D01*
X250408Y171274D01*
X250672Y171097D01*
X250984Y171035D01*
X253248D01*
X253560Y171097D01*
X253825Y171274D01*
X254002Y171538D01*
X254064Y171850D01*
Y172619D01*
X254448D01*
Y177381D01*
X251747D01*
X251489Y177579D01*
X250771Y177877D01*
X250000Y177978D01*
X249167D01*
X235826Y191319D01*
X235210Y191792D01*
X234491Y192089D01*
X233720Y192191D01*
X218779D01*
X216308Y194663D01*
X210858D01*
X208133Y191938D01*
Y189116D01*
X196162Y177145D01*
X195688Y176529D01*
X195391Y175810D01*
X195290Y175039D01*
Y138347D01*
X195391Y137576D01*
X195688Y136857D01*
X196162Y136240D01*
X220480Y111922D01*
X213316Y104758D01*
X209803D01*
X208775Y104623D01*
X207818Y104226D01*
X206995Y103595D01*
X200302Y96902D01*
X199671Y96080D01*
X199275Y95122D01*
X199139Y94095D01*
Y82960D01*
X199049Y82742D01*
X198906Y81653D01*
X199049Y80565D01*
X199139Y80348D01*
Y78377D01*
X195993Y75231D01*
X133668D01*
X130447Y78452D01*
Y79706D01*
X136830D01*
Y80654D01*
X141131D01*
X141902Y80755D01*
X142620Y81053D01*
X143237Y81526D01*
X143306Y81595D01*
X143779Y82212D01*
X144077Y82931D01*
X144178Y83701D01*
X144077Y84472D01*
X143779Y85190D01*
X143306Y85807D01*
X142689Y86281D01*
X141971Y86578D01*
X141200Y86680D01*
X140674Y86610D01*
X136830D01*
Y87420D01*
X127338D01*
X126476Y87534D01*
X125614Y87420D01*
X123013D01*
Y86541D01*
X93470D01*
X92699Y86440D01*
X91981Y86142D01*
X91364Y85669D01*
X91364Y85669D01*
X72926Y67231D01*
X62076D01*
Y67658D01*
X61960Y68241D01*
X61629Y68735D01*
X61135Y69066D01*
X60551Y69182D01*
X58780D01*
X58196Y69066D01*
X57701Y68735D01*
X57443Y68349D01*
X57268Y68310D01*
X57063D01*
X56888Y68349D01*
X56629Y68735D01*
X56135Y69066D01*
X55551Y69182D01*
X53780D01*
X53196Y69066D01*
X52701Y68735D01*
X52443Y68349D01*
X52268Y68310D01*
X52063D01*
X51888Y68349D01*
X51629Y68735D01*
X51135Y69066D01*
X50551Y69182D01*
X48779D01*
X48196Y69066D01*
X47701Y68735D01*
X47371Y68241D01*
X47255Y67658D01*
Y65784D01*
X47086Y65564D01*
X46789Y64846D01*
X46687Y64075D01*
Y61330D01*
X46406Y61049D01*
X42573D01*
X41802Y60948D01*
X41084Y60650D01*
X40467Y60177D01*
X40467Y60177D01*
X37874Y57584D01*
X37401Y56967D01*
X37104Y56249D01*
X37002Y55478D01*
Y54153D01*
X36024D01*
Y46635D01*
X43936D01*
Y54153D01*
X43574D01*
X43367Y54653D01*
X43807Y55093D01*
X47639D01*
X48410Y55194D01*
X49128Y55492D01*
X49745Y55965D01*
X51225Y57445D01*
X51687Y57253D01*
Y57087D01*
X51789Y56316D01*
X52086Y55598D01*
X52559Y54981D01*
X52987Y54653D01*
X52817Y54153D01*
X45867D01*
Y46635D01*
X53779D01*
Y48108D01*
X54824D01*
Y40335D01*
X58353D01*
X58599Y40233D01*
X59370Y40132D01*
X64765D01*
Y39548D01*
X71889D01*
Y46672D01*
X64765D01*
Y46088D01*
X62539D01*
Y47225D01*
Y54153D01*
X62247D01*
Y61275D01*
X74160D01*
X74931Y61376D01*
X75649Y61674D01*
X76266Y62147D01*
X94704Y80585D01*
X122505D01*
Y76807D01*
X122641Y75779D01*
X123037Y74822D01*
X123669Y73999D01*
X129216Y68452D01*
X130038Y67821D01*
X130996Y67424D01*
X132024Y67289D01*
X197638D01*
X198666Y67424D01*
X199623Y67821D01*
X200446Y68452D01*
X201076Y69082D01*
X202185Y67973D01*
X202185Y67973D01*
X202802Y67500D01*
X203520Y67202D01*
X204291Y67101D01*
X204291Y67101D01*
X329626Y67101D01*
X330397Y67202D01*
X331115Y67500D01*
X331732Y67973D01*
X337067Y73308D01*
X340230D01*
Y61425D01*
X340162Y61357D01*
X337074D01*
X335852Y60135D01*
X318613D01*
X317842Y60033D01*
X317124Y59736D01*
X316507Y59262D01*
X283102Y25857D01*
X282022Y25715D01*
X281008Y25295D01*
X280137Y24627D01*
X279469Y23756D01*
X279049Y22742D01*
X278906Y21654D01*
X279049Y20565D01*
X279469Y19551D01*
X280137Y18680D01*
X281008Y18012D01*
X282022Y17592D01*
X283110Y17449D01*
X284198Y17592D01*
X285212Y18012D01*
X286083Y18680D01*
X286751Y19551D01*
X287172Y20565D01*
X287314Y21645D01*
X288587Y22919D01*
X288867Y22811D01*
X289039Y22663D01*
X288906Y21654D01*
X289049Y20565D01*
X289469Y19551D01*
X290137Y18680D01*
X291008Y18012D01*
X292022Y17592D01*
X293110Y17449D01*
X294120Y17582D01*
X294268Y17411D01*
X294375Y17130D01*
X288491Y11246D01*
X162257D01*
X117735Y55768D01*
Y58680D01*
X110611D01*
Y51556D01*
X113524D01*
X158918Y6162D01*
X158918Y6162D01*
X159535Y5689D01*
X160253Y5391D01*
X161024Y5289D01*
X161024Y5289D01*
X289724D01*
X290495Y5391D01*
X291213Y5689D01*
X291830Y6162D01*
X303119Y17450D01*
X304198Y17592D01*
X305212Y18012D01*
X306083Y18680D01*
X306751Y19551D01*
X307172Y20565D01*
X307315Y21654D01*
X307172Y22742D01*
X306751Y23756D01*
X306083Y24627D01*
X305212Y25295D01*
X304198Y25715D01*
X303110Y25858D01*
X302101Y25725D01*
X301952Y25897D01*
X301845Y26177D01*
X304974Y29305D01*
X317340D01*
X317510Y28805D01*
X317495Y28794D01*
X317495Y28794D01*
X314352Y25651D01*
X314198Y25715D01*
X313110Y25858D01*
X312022Y25715D01*
X311008Y25295D01*
X310137Y24627D01*
X309469Y23756D01*
X309049Y22742D01*
X308906Y21654D01*
X309049Y20565D01*
X309469Y19551D01*
X310137Y18680D01*
X311008Y18012D01*
X312022Y17592D01*
X313110Y17449D01*
X314198Y17592D01*
X315212Y18012D01*
X316083Y18680D01*
X316751Y19551D01*
X316804Y19679D01*
X318240Y21115D01*
X318714Y20954D01*
X318775Y20492D01*
X319223Y19409D01*
X319936Y18480D01*
X320866Y17766D01*
X321949Y17318D01*
X323110Y17165D01*
X324272Y17318D01*
X325354Y17766D01*
X326284Y18480D01*
X326997Y19409D01*
X327446Y20492D01*
X327599Y21654D01*
X327446Y22815D01*
X327248Y23294D01*
X327525Y23710D01*
X341648D01*
X342419Y23811D01*
X343138Y24109D01*
X343754Y24582D01*
X363523Y44351D01*
X363523Y44351D01*
X363997Y44968D01*
X364294Y45686D01*
X364396Y46457D01*
X364396Y46457D01*
Y139862D01*
X364294Y140633D01*
X363997Y141351D01*
X363523Y141968D01*
X363523Y141968D01*
X319330Y186161D01*
X318713Y186634D01*
X317995Y186932D01*
X317224Y187033D01*
X280531D01*
Y187913D01*
X266713D01*
Y187033D01*
X258438D01*
X253911Y191560D01*
Y194095D01*
X253775Y195127D01*
X253377Y196089D01*
X252743Y196916D01*
X251916Y197550D01*
X250954Y197949D01*
X249921Y198084D01*
D02*
G37*
G36*
X216308Y164663D02*
X210858D01*
X208133Y161938D01*
Y156488D01*
X210604Y154016D01*
Y150276D01*
X210706Y149505D01*
X211003Y148786D01*
X211477Y148170D01*
X221004Y138642D01*
X221004Y138642D01*
X221621Y138169D01*
X222339Y137871D01*
X223110Y137770D01*
X232283D01*
X233054Y137871D01*
X233300Y137973D01*
X235255D01*
Y140698D01*
X235262Y140748D01*
Y146010D01*
X245919Y156667D01*
X250000D01*
X250771Y156769D01*
X251489Y157066D01*
X251747Y157265D01*
X254448D01*
Y162027D01*
X254064D01*
Y162795D01*
X254002Y163107D01*
X253825Y163372D01*
X253560Y163549D01*
X253248Y163611D01*
X250984D01*
X250672Y163549D01*
X250408Y163372D01*
X250268Y163163D01*
X250000Y163133D01*
X249732Y163163D01*
X249592Y163372D01*
X249328Y163549D01*
X249016Y163611D01*
X246752D01*
X246440Y163549D01*
X246175Y163372D01*
X245998Y163107D01*
X245936Y162795D01*
Y162624D01*
X244685D01*
X244685Y162624D01*
X244300Y162573D01*
X243914Y162522D01*
X243196Y162225D01*
X242579Y161752D01*
X230177Y149350D01*
X229704Y148733D01*
X229407Y148015D01*
X229305Y147244D01*
Y143726D01*
X224344D01*
X216561Y151509D01*
Y154016D01*
X219033Y156488D01*
Y161938D01*
X216308Y164663D01*
D02*
G37*
G36*
X128543Y151070D02*
X127106Y150928D01*
X125723Y150509D01*
X124449Y149828D01*
X123332Y148912D01*
X122416Y147795D01*
X121735Y146521D01*
X121316Y145139D01*
X121174Y143701D01*
X121316Y142263D01*
X121683Y141052D01*
X118760Y138129D01*
X118287Y137513D01*
X117989Y136794D01*
X117888Y136024D01*
Y121063D01*
X117989Y120292D01*
X118287Y119574D01*
X118485Y119316D01*
Y116615D01*
X123247D01*
Y116999D01*
X124016D01*
X124328Y117061D01*
X124592Y117238D01*
X124769Y117503D01*
X124831Y117815D01*
Y120079D01*
X124769Y120391D01*
X124592Y120656D01*
X124384Y120795D01*
X124354Y121063D01*
X124384Y121331D01*
X124592Y121470D01*
X124769Y121735D01*
X124831Y122047D01*
Y124311D01*
X124769Y124623D01*
X124592Y124888D01*
X124328Y125065D01*
X124016Y125127D01*
X123844D01*
Y134790D01*
X125895Y136840D01*
X127106Y136473D01*
X128543Y136331D01*
X129981Y136473D01*
X131363Y136892D01*
X132638Y137573D01*
X133754Y138490D01*
X134671Y139607D01*
X135352Y140881D01*
X135771Y142263D01*
X135913Y143701D01*
X135771Y145139D01*
X135352Y146521D01*
X134671Y147795D01*
X133754Y148912D01*
X132638Y149828D01*
X131363Y150509D01*
X129981Y150928D01*
X128543Y151070D01*
D02*
G37*
G36*
X304331Y132506D02*
X303560Y132404D01*
X302842Y132107D01*
X302225Y131633D01*
X302225Y131633D01*
X298569Y127978D01*
X294212D01*
Y128464D01*
X286497D01*
Y121536D01*
X287376D01*
Y118129D01*
X286497D01*
Y111747D01*
X275216D01*
Y114389D01*
X266123D01*
Y102146D01*
X275216D01*
Y103805D01*
X296327D01*
X296418Y103620D01*
X296462Y103305D01*
X295926Y102893D01*
X295925Y102893D01*
X281260Y88228D01*
X280787Y87611D01*
X280489Y86893D01*
X280388Y86122D01*
Y84819D01*
X280137Y84627D01*
X279469Y83756D01*
X279049Y82742D01*
X278906Y81653D01*
X279049Y80565D01*
X279469Y79551D01*
X280137Y78680D01*
X281008Y78012D01*
X282022Y77592D01*
X283110Y77449D01*
X284198Y77592D01*
X285212Y78012D01*
X286083Y78680D01*
X286751Y79551D01*
X287172Y80565D01*
X287315Y81653D01*
X287172Y82742D01*
X286751Y83756D01*
X286344Y84286D01*
Y84888D01*
X299265Y97809D01*
X313779D01*
X314550Y97911D01*
X315269Y98208D01*
X315885Y98681D01*
X330846Y113642D01*
X330846Y113642D01*
X331319Y114259D01*
X331617Y114977D01*
X331718Y115748D01*
X331718Y115748D01*
Y125591D01*
X331617Y126361D01*
X331319Y127080D01*
X330846Y127697D01*
X330846Y127697D01*
X326909Y131633D01*
X326292Y132107D01*
X325574Y132404D01*
X324803Y132506D01*
X304331D01*
X304331Y132506D01*
D02*
G37*
G36*
X148622Y158030D02*
X147461Y157877D01*
X146379Y157429D01*
X145450Y156716D01*
X144737Y155787D01*
X144289Y154704D01*
X144136Y153543D01*
X144289Y152382D01*
X144737Y151300D01*
X145450Y150371D01*
X145644Y150222D01*
Y138046D01*
X134115Y126517D01*
X133641Y125900D01*
X133344Y125182D01*
X133336Y125127D01*
X133071D01*
X132759Y125065D01*
X132494Y124888D01*
X132317Y124623D01*
X132255Y124311D01*
Y122047D01*
X132317Y121735D01*
X132494Y121470D01*
X132703Y121331D01*
X132733Y121063D01*
X132703Y120795D01*
X132494Y120656D01*
X132317Y120391D01*
X132255Y120079D01*
Y117815D01*
X132317Y117503D01*
X132494Y117238D01*
X132759Y117061D01*
X133071Y116999D01*
X133242D01*
Y115802D01*
X133344Y115031D01*
X133641Y114313D01*
X134115Y113696D01*
X137973Y109838D01*
Y108249D01*
X140698D01*
X140748Y108242D01*
X140798Y108249D01*
X143523D01*
Y110204D01*
X143625Y110450D01*
X143726Y111221D01*
Y111275D01*
X143726Y111275D01*
X143726Y111275D01*
Y111417D01*
X143625Y112188D01*
X143523Y112434D01*
Y114192D01*
X142043D01*
X139199Y117036D01*
Y121063D01*
Y123177D01*
X150728Y134707D01*
X151201Y135324D01*
X151499Y136042D01*
X151600Y136813D01*
X151600Y136813D01*
Y150222D01*
X151794Y150371D01*
X152507Y151300D01*
X152956Y152382D01*
X153109Y153543D01*
X152956Y154704D01*
X152507Y155787D01*
X151794Y156716D01*
X150865Y157429D01*
X149783Y157877D01*
X148622Y158030D01*
D02*
G37*
G36*
X108465D02*
X107303Y157877D01*
X106221Y157429D01*
X105292Y156716D01*
X104579Y155787D01*
X104131Y154704D01*
X103978Y153543D01*
X104131Y152382D01*
X104185Y152251D01*
X103130Y151196D01*
X102657Y150579D01*
X102359Y149861D01*
X102258Y149090D01*
Y107538D01*
X101781Y106916D01*
X101382Y105954D01*
X101246Y104921D01*
Y102165D01*
X101382Y101133D01*
X101781Y100170D01*
X102415Y99344D01*
X103241Y98710D01*
X104203Y98311D01*
X105236Y98175D01*
X106269Y98311D01*
X107231Y98710D01*
X108058Y99344D01*
X108692Y100170D01*
X109090Y101133D01*
X109226Y102165D01*
Y104921D01*
X109090Y105954D01*
X108692Y106916D01*
X108214Y107538D01*
Y147856D01*
X109559Y149201D01*
X109626Y149210D01*
X110708Y149658D01*
X111637Y150371D01*
X112350Y151300D01*
X112798Y152382D01*
X112951Y153543D01*
X112798Y154704D01*
X112350Y155787D01*
X111637Y156716D01*
X110708Y157429D01*
X109626Y157877D01*
X108465Y158030D01*
D02*
G37*
G36*
X178228Y108819D02*
X177067Y108666D01*
X175984Y108218D01*
X175055Y107504D01*
X174341Y106575D01*
X173893Y105492D01*
X173740Y104331D01*
X173893Y103169D01*
X174257Y102289D01*
Y96820D01*
X171848Y94411D01*
X168685D01*
X163831Y99265D01*
X163009Y99896D01*
X162051Y100292D01*
X161024Y100428D01*
X155512D01*
X154484Y100292D01*
X154299Y100216D01*
X151556D01*
Y96571D01*
X151541Y96457D01*
X151556Y96342D01*
Y92698D01*
X154299D01*
X154484Y92621D01*
X155512Y92486D01*
X159379D01*
X164233Y87632D01*
X165055Y87001D01*
X166013Y86604D01*
X167041Y86469D01*
X169522D01*
Y83825D01*
X169469Y83756D01*
X169049Y82742D01*
X168906Y81653D01*
X169049Y80565D01*
X169469Y79551D01*
X170137Y78680D01*
X171008Y78012D01*
X172022Y77592D01*
X173110Y77449D01*
X174198Y77592D01*
X175213Y78012D01*
X176083Y78680D01*
X176751Y79551D01*
X177172Y80565D01*
X177184Y80659D01*
X177329Y81008D01*
X177464Y82036D01*
Y88795D01*
X178793Y90123D01*
X183071D01*
X184099Y90259D01*
X185056Y90655D01*
X185879Y91287D01*
X186510Y92109D01*
X186907Y93067D01*
X187042Y94095D01*
X186907Y95122D01*
X186510Y96080D01*
X185879Y96902D01*
X185056Y97534D01*
X184099Y97930D01*
X183071Y98066D01*
X182199D01*
Y100163D01*
X190748D01*
X191776Y100298D01*
X191961Y100375D01*
X194704D01*
Y104019D01*
X194719Y104134D01*
X194704Y104248D01*
Y107893D01*
X191961D01*
X191776Y107969D01*
X190748Y108105D01*
X180620D01*
X180473Y108218D01*
X179390Y108666D01*
X178228Y108819D01*
D02*
G37*
G36*
X115236Y108911D02*
X114204Y108775D01*
X113241Y108377D01*
X112415Y107743D01*
X111781Y106916D01*
X111382Y105954D01*
X111246Y104921D01*
Y102165D01*
X111382Y101133D01*
X111781Y100170D01*
X112415Y99344D01*
X113241Y98710D01*
X114204Y98311D01*
X115236Y98175D01*
X116269Y98311D01*
X117231Y98710D01*
X118058Y99344D01*
X118692Y100170D01*
X118855Y100565D01*
X120618D01*
X123498Y97685D01*
Y96377D01*
X123013D01*
Y88662D01*
X136830D01*
Y94529D01*
X139114Y96813D01*
X139114Y96813D01*
X139587Y97430D01*
X139885Y98148D01*
X139986Y98919D01*
Y103347D01*
X139885Y104117D01*
X139783Y104363D01*
Y106318D01*
X137058D01*
X137008Y106325D01*
X136958Y106318D01*
X134233D01*
Y104363D01*
X134131Y104117D01*
X134030Y103347D01*
Y100153D01*
X131260Y97383D01*
X130787Y96766D01*
X130626Y96377D01*
X129455D01*
Y98919D01*
X129455Y98919D01*
X129404Y99304D01*
X129353Y99690D01*
X129056Y100408D01*
X128582Y101025D01*
X123958Y105649D01*
X123341Y106123D01*
X122623Y106420D01*
X121852Y106521D01*
X118855D01*
X118692Y106916D01*
X118058Y107743D01*
X117231Y108377D01*
X116269Y108775D01*
X115236Y108911D01*
D02*
G37*
G36*
X313110Y85858D02*
X312022Y85715D01*
X311008Y85295D01*
X310137Y84627D01*
X309469Y83756D01*
X309049Y82742D01*
X308906Y81653D01*
X309049Y80565D01*
X309469Y79551D01*
X310137Y78680D01*
X311008Y78012D01*
X312022Y77592D01*
X313110Y77449D01*
X314198Y77592D01*
X315212Y78012D01*
X316083Y78680D01*
X316751Y79551D01*
X317172Y80565D01*
X317315Y81653D01*
X317172Y82742D01*
X316751Y83756D01*
X316083Y84627D01*
X315212Y85295D01*
X314198Y85715D01*
X313110Y85858D01*
D02*
G37*
G36*
X303110D02*
X302022Y85715D01*
X301008Y85295D01*
X300137Y84627D01*
X299469Y83756D01*
X299049Y82742D01*
X298906Y81653D01*
X299049Y80565D01*
X299469Y79551D01*
X300137Y78680D01*
X301008Y78012D01*
X302022Y77592D01*
X303110Y77449D01*
X304198Y77592D01*
X305212Y78012D01*
X306083Y78680D01*
X306751Y79551D01*
X307172Y80565D01*
X307315Y81653D01*
X307172Y82742D01*
X306751Y83756D01*
X306083Y84627D01*
X305212Y85295D01*
X304198Y85715D01*
X303110Y85858D01*
D02*
G37*
G36*
X293110D02*
X292022Y85715D01*
X291008Y85295D01*
X290137Y84627D01*
X289469Y83756D01*
X289049Y82742D01*
X288906Y81653D01*
X289049Y80565D01*
X289469Y79551D01*
X290137Y78680D01*
X291008Y78012D01*
X292022Y77592D01*
X293110Y77449D01*
X294198Y77592D01*
X295213Y78012D01*
X296083Y78680D01*
X296751Y79551D01*
X297171Y80565D01*
X297315Y81653D01*
X297171Y82742D01*
X296751Y83756D01*
X296083Y84627D01*
X295213Y85295D01*
X294198Y85715D01*
X293110Y85858D01*
D02*
G37*
G36*
X273110D02*
X272022Y85715D01*
X271008Y85295D01*
X270137Y84627D01*
X269469Y83756D01*
X269049Y82742D01*
X268906Y81653D01*
X269049Y80565D01*
X269469Y79551D01*
X270137Y78680D01*
X271008Y78012D01*
X272022Y77592D01*
X273110Y77449D01*
X274198Y77592D01*
X275213Y78012D01*
X276083Y78680D01*
X276751Y79551D01*
X277171Y80565D01*
X277315Y81653D01*
X277171Y82742D01*
X276751Y83756D01*
X276083Y84627D01*
X275213Y85295D01*
X274198Y85715D01*
X273110Y85858D01*
D02*
G37*
G36*
X263110D02*
X262022Y85715D01*
X261008Y85295D01*
X260137Y84627D01*
X259469Y83756D01*
X259049Y82742D01*
X258906Y81653D01*
X259049Y80565D01*
X259469Y79551D01*
X260137Y78680D01*
X261008Y78012D01*
X262022Y77592D01*
X263110Y77449D01*
X264198Y77592D01*
X265212Y78012D01*
X266083Y78680D01*
X266751Y79551D01*
X267172Y80565D01*
X267315Y81653D01*
X267172Y82742D01*
X266751Y83756D01*
X266083Y84627D01*
X265212Y85295D01*
X264198Y85715D01*
X263110Y85858D01*
D02*
G37*
G36*
X253110D02*
X252022Y85715D01*
X251008Y85295D01*
X250137Y84627D01*
X249469Y83756D01*
X249049Y82742D01*
X248906Y81653D01*
X249049Y80565D01*
X249469Y79551D01*
X250137Y78680D01*
X251008Y78012D01*
X252022Y77592D01*
X253110Y77449D01*
X254198Y77592D01*
X255212Y78012D01*
X256083Y78680D01*
X256751Y79551D01*
X257172Y80565D01*
X257315Y81653D01*
X257172Y82742D01*
X256751Y83756D01*
X256083Y84627D01*
X255212Y85295D01*
X254198Y85715D01*
X253110Y85858D01*
D02*
G37*
G36*
X243110D02*
X242022Y85715D01*
X241008Y85295D01*
X240137Y84627D01*
X239469Y83756D01*
X239049Y82742D01*
X238906Y81653D01*
X239049Y80565D01*
X239469Y79551D01*
X240137Y78680D01*
X241008Y78012D01*
X242022Y77592D01*
X243110Y77449D01*
X244198Y77592D01*
X245213Y78012D01*
X246083Y78680D01*
X246751Y79551D01*
X247171Y80565D01*
X247315Y81653D01*
X247171Y82742D01*
X246751Y83756D01*
X246083Y84627D01*
X245213Y85295D01*
X244198Y85715D01*
X243110Y85858D01*
D02*
G37*
G36*
X233110D02*
X232022Y85715D01*
X231008Y85295D01*
X230137Y84627D01*
X229469Y83756D01*
X229049Y82742D01*
X228906Y81653D01*
X229049Y80565D01*
X229469Y79551D01*
X230137Y78680D01*
X231008Y78012D01*
X232022Y77592D01*
X233110Y77449D01*
X234198Y77592D01*
X235212Y78012D01*
X236083Y78680D01*
X236751Y79551D01*
X237172Y80565D01*
X237315Y81653D01*
X237172Y82742D01*
X236751Y83756D01*
X236083Y84627D01*
X235212Y85295D01*
X234198Y85715D01*
X233110Y85858D01*
D02*
G37*
G36*
X223110D02*
X222022Y85715D01*
X221008Y85295D01*
X220137Y84627D01*
X219469Y83756D01*
X219049Y82742D01*
X218906Y81653D01*
X219049Y80565D01*
X219469Y79551D01*
X220137Y78680D01*
X221008Y78012D01*
X222022Y77592D01*
X223110Y77449D01*
X224198Y77592D01*
X225213Y78012D01*
X226083Y78680D01*
X226751Y79551D01*
X227171Y80565D01*
X227315Y81653D01*
X227171Y82742D01*
X226751Y83756D01*
X226083Y84627D01*
X225213Y85295D01*
X224198Y85715D01*
X223110Y85858D01*
D02*
G37*
G36*
X213110D02*
X212022Y85715D01*
X211008Y85295D01*
X210137Y84627D01*
X209469Y83756D01*
X209049Y82742D01*
X208906Y81653D01*
X209049Y80565D01*
X209469Y79551D01*
X210137Y78680D01*
X211008Y78012D01*
X212022Y77592D01*
X213110Y77449D01*
X214198Y77592D01*
X215212Y78012D01*
X216083Y78680D01*
X216751Y79551D01*
X217172Y80565D01*
X217315Y81653D01*
X217172Y82742D01*
X216751Y83756D01*
X216083Y84627D01*
X215212Y85295D01*
X214198Y85715D01*
X213110Y85858D01*
D02*
G37*
G36*
X193110D02*
X192022Y85715D01*
X191008Y85295D01*
X190137Y84627D01*
X189469Y83756D01*
X189049Y82742D01*
X188906Y81653D01*
X189049Y80565D01*
X189469Y79551D01*
X190137Y78680D01*
X191008Y78012D01*
X192022Y77592D01*
X193110Y77449D01*
X194198Y77592D01*
X195212Y78012D01*
X196083Y78680D01*
X196751Y79551D01*
X197171Y80565D01*
X197315Y81653D01*
X197171Y82742D01*
X196751Y83756D01*
X196083Y84627D01*
X195212Y85295D01*
X194198Y85715D01*
X193110Y85858D01*
D02*
G37*
G36*
X323110Y86142D02*
X321949Y85989D01*
X320866Y85541D01*
X319936Y84827D01*
X319223Y83898D01*
X318775Y82815D01*
X318622Y81653D01*
X318775Y80492D01*
X319223Y79409D01*
X319936Y78480D01*
X320866Y77767D01*
X321949Y77318D01*
X323110Y77165D01*
X324272Y77318D01*
X325354Y77767D01*
X326284Y78480D01*
X326997Y79409D01*
X327446Y80492D01*
X327599Y81653D01*
X327446Y82815D01*
X326997Y83898D01*
X326284Y84827D01*
X325354Y85541D01*
X324272Y85989D01*
X323110Y86142D01*
D02*
G37*
G36*
X163110D02*
X161949Y85989D01*
X160866Y85541D01*
X159936Y84827D01*
X159223Y83898D01*
X158775Y82815D01*
X158622Y81653D01*
X158775Y80492D01*
X159223Y79409D01*
X159936Y78480D01*
X160866Y77767D01*
X161949Y77318D01*
X163110Y77165D01*
X164272Y77318D01*
X165354Y77767D01*
X166284Y78480D01*
X166997Y79409D01*
X167446Y80492D01*
X167599Y81653D01*
X167446Y82815D01*
X166997Y83898D01*
X166284Y84827D01*
X165354Y85541D01*
X164272Y85989D01*
X163110Y86142D01*
D02*
G37*
G36*
X97063Y74238D02*
X96850D01*
X96080Y74137D01*
X95361Y73839D01*
X94744Y73366D01*
X94271Y72749D01*
X93974Y72031D01*
X93872Y71260D01*
X93974Y70489D01*
X94271Y69771D01*
X94744Y69154D01*
X95361Y68681D01*
X95480Y68631D01*
X97422Y66690D01*
X97422Y66690D01*
X98038Y66217D01*
X98757Y65919D01*
X99528Y65817D01*
X99528Y65818D01*
X101315D01*
X101382Y65306D01*
X101781Y64344D01*
X102415Y63517D01*
X103241Y62883D01*
X104203Y62485D01*
X104456Y62451D01*
X104616Y61978D01*
X103800Y61161D01*
X103326Y60544D01*
X103029Y59826D01*
X102927Y59055D01*
Y58680D01*
X102343D01*
Y51556D01*
X109468D01*
Y58406D01*
X113739Y62677D01*
X114204Y62485D01*
X115236Y62349D01*
X116269Y62485D01*
X117231Y62883D01*
X118058Y63517D01*
X118692Y64344D01*
X119090Y65306D01*
X119226Y66339D01*
Y69095D01*
X119090Y70127D01*
X118692Y71090D01*
X118058Y71916D01*
X117231Y72550D01*
X116269Y72949D01*
X115236Y73084D01*
X114204Y72949D01*
X113241Y72550D01*
X112415Y71916D01*
X111781Y71090D01*
X111382Y70127D01*
X111246Y69095D01*
Y68570D01*
X111083Y68445D01*
X109688Y67050D01*
X109226Y67241D01*
Y69095D01*
X109090Y70127D01*
X108692Y71090D01*
X108058Y71916D01*
X107231Y72550D01*
X106269Y72949D01*
X105236Y73084D01*
X104203Y72949D01*
X103241Y72550D01*
X102415Y71916D01*
X102306Y71774D01*
X100761D01*
X99169Y73366D01*
X98553Y73839D01*
X97834Y74137D01*
X97063Y74238D01*
D02*
G37*
G36*
X177279Y25822D02*
X168942D01*
Y17485D01*
X177279D01*
Y25822D01*
D02*
G37*
G36*
X273110Y25858D02*
X272022Y25715D01*
X271008Y25295D01*
X270137Y24627D01*
X269469Y23756D01*
X269049Y22742D01*
X268906Y21654D01*
X269049Y20565D01*
X269469Y19551D01*
X270137Y18680D01*
X271008Y18012D01*
X272022Y17592D01*
X273110Y17449D01*
X274198Y17592D01*
X275213Y18012D01*
X276083Y18680D01*
X276751Y19551D01*
X277171Y20565D01*
X277315Y21654D01*
X277171Y22742D01*
X276751Y23756D01*
X276083Y24627D01*
X275213Y25295D01*
X274198Y25715D01*
X273110Y25858D01*
D02*
G37*
G36*
X263110D02*
X262022Y25715D01*
X261008Y25295D01*
X260137Y24627D01*
X259469Y23756D01*
X259049Y22742D01*
X258906Y21654D01*
X259049Y20565D01*
X259469Y19551D01*
X260137Y18680D01*
X261008Y18012D01*
X262022Y17592D01*
X263110Y17449D01*
X264198Y17592D01*
X265212Y18012D01*
X266083Y18680D01*
X266751Y19551D01*
X267172Y20565D01*
X267315Y21654D01*
X267172Y22742D01*
X266751Y23756D01*
X266083Y24627D01*
X265212Y25295D01*
X264198Y25715D01*
X263110Y25858D01*
D02*
G37*
G36*
X253110D02*
X252022Y25715D01*
X251008Y25295D01*
X250137Y24627D01*
X249469Y23756D01*
X249049Y22742D01*
X248906Y21654D01*
X249049Y20565D01*
X249469Y19551D01*
X250137Y18680D01*
X251008Y18012D01*
X252022Y17592D01*
X253110Y17449D01*
X254198Y17592D01*
X255212Y18012D01*
X256083Y18680D01*
X256751Y19551D01*
X257172Y20565D01*
X257315Y21654D01*
X257172Y22742D01*
X256751Y23756D01*
X256083Y24627D01*
X255212Y25295D01*
X254198Y25715D01*
X253110Y25858D01*
D02*
G37*
G36*
X243110D02*
X242022Y25715D01*
X241008Y25295D01*
X240137Y24627D01*
X239469Y23756D01*
X239049Y22742D01*
X238906Y21654D01*
X239049Y20565D01*
X239469Y19551D01*
X240137Y18680D01*
X241008Y18012D01*
X242022Y17592D01*
X243110Y17449D01*
X244198Y17592D01*
X245213Y18012D01*
X246083Y18680D01*
X246751Y19551D01*
X247171Y20565D01*
X247315Y21654D01*
X247171Y22742D01*
X246751Y23756D01*
X246083Y24627D01*
X245213Y25295D01*
X244198Y25715D01*
X243110Y25858D01*
D02*
G37*
G36*
X233110D02*
X232022Y25715D01*
X231008Y25295D01*
X230137Y24627D01*
X229469Y23756D01*
X229049Y22742D01*
X228906Y21654D01*
X229049Y20565D01*
X229469Y19551D01*
X230137Y18680D01*
X231008Y18012D01*
X232022Y17592D01*
X233110Y17449D01*
X234198Y17592D01*
X235212Y18012D01*
X236083Y18680D01*
X236751Y19551D01*
X237172Y20565D01*
X237315Y21654D01*
X237172Y22742D01*
X236751Y23756D01*
X236083Y24627D01*
X235212Y25295D01*
X234198Y25715D01*
X233110Y25858D01*
D02*
G37*
G36*
X223110D02*
X222022Y25715D01*
X221008Y25295D01*
X220137Y24627D01*
X219469Y23756D01*
X219049Y22742D01*
X218906Y21654D01*
X219049Y20565D01*
X219469Y19551D01*
X220137Y18680D01*
X221008Y18012D01*
X222022Y17592D01*
X223110Y17449D01*
X224198Y17592D01*
X225213Y18012D01*
X226083Y18680D01*
X226751Y19551D01*
X227171Y20565D01*
X227315Y21654D01*
X227171Y22742D01*
X226751Y23756D01*
X226083Y24627D01*
X225213Y25295D01*
X224198Y25715D01*
X223110Y25858D01*
D02*
G37*
G36*
X213110D02*
X212022Y25715D01*
X211008Y25295D01*
X210137Y24627D01*
X209469Y23756D01*
X209049Y22742D01*
X208906Y21654D01*
X209049Y20565D01*
X209469Y19551D01*
X210137Y18680D01*
X211008Y18012D01*
X212022Y17592D01*
X213110Y17449D01*
X214198Y17592D01*
X215212Y18012D01*
X216083Y18680D01*
X216751Y19551D01*
X217172Y20565D01*
X217315Y21654D01*
X217172Y22742D01*
X216751Y23756D01*
X216083Y24627D01*
X215212Y25295D01*
X214198Y25715D01*
X213110Y25858D01*
D02*
G37*
G36*
X193110D02*
X192022Y25715D01*
X191008Y25295D01*
X190137Y24627D01*
X189469Y23756D01*
X189049Y22742D01*
X188906Y21654D01*
X189049Y20565D01*
X189469Y19551D01*
X190137Y18680D01*
X191008Y18012D01*
X192022Y17592D01*
X193110Y17449D01*
X194198Y17592D01*
X195212Y18012D01*
X196083Y18680D01*
X196751Y19551D01*
X197171Y20565D01*
X197315Y21654D01*
X197171Y22742D01*
X196751Y23756D01*
X196083Y24627D01*
X195212Y25295D01*
X194198Y25715D01*
X193110Y25858D01*
D02*
G37*
G36*
X183110D02*
X182022Y25715D01*
X181008Y25295D01*
X180137Y24627D01*
X179469Y23756D01*
X179049Y22742D01*
X178906Y21654D01*
X179049Y20565D01*
X179469Y19551D01*
X180137Y18680D01*
X181008Y18012D01*
X182022Y17592D01*
X183110Y17449D01*
X184198Y17592D01*
X185213Y18012D01*
X186083Y18680D01*
X186751Y19551D01*
X187171Y20565D01*
X187315Y21654D01*
X187171Y22742D01*
X186751Y23756D01*
X186083Y24627D01*
X185213Y25295D01*
X184198Y25715D01*
X183110Y25858D01*
D02*
G37*
G36*
X163110Y26142D02*
X161949Y25989D01*
X160866Y25541D01*
X159936Y24827D01*
X159223Y23898D01*
X158775Y22815D01*
X158622Y21654D01*
X158775Y20492D01*
X159223Y19409D01*
X159936Y18480D01*
X160866Y17766D01*
X161949Y17318D01*
X163110Y17165D01*
X164272Y17318D01*
X165354Y17766D01*
X166284Y18480D01*
X166997Y19409D01*
X167446Y20492D01*
X167599Y21654D01*
X167446Y22815D01*
X166997Y23898D01*
X166284Y24827D01*
X165354Y25541D01*
X164272Y25989D01*
X163110Y26142D01*
D02*
G37*
G36*
X349694Y22479D02*
X348337D01*
X348143Y22441D01*
X347946D01*
X346615Y22176D01*
X346432Y22100D01*
X346238Y22062D01*
X344984Y21543D01*
X344820Y21433D01*
X344637Y21357D01*
X343509Y20603D01*
X343369Y20463D01*
X343205Y20354D01*
X342245Y19394D01*
X342135Y19229D01*
X341995Y19090D01*
X341241Y17961D01*
X341166Y17779D01*
X341056Y17614D01*
X340536Y16360D01*
X340498Y16166D01*
X340422Y15984D01*
X340158Y14653D01*
Y14455D01*
X340119Y14261D01*
Y12904D01*
X340158Y12710D01*
Y12513D01*
X340422Y11181D01*
X340498Y10999D01*
X340536Y10805D01*
X341056Y9551D01*
X341166Y9387D01*
X341241Y9204D01*
X341995Y8076D01*
X342135Y7936D01*
X342245Y7772D01*
X343205Y6812D01*
X343369Y6702D01*
X343509Y6562D01*
X344637Y5808D01*
X344820Y5733D01*
X344984Y5623D01*
X346238Y5103D01*
X346432Y5065D01*
X346615Y4989D01*
X347946Y4724D01*
X348143D01*
X348337Y4686D01*
X349694D01*
X349888Y4724D01*
X350086D01*
X351417Y4989D01*
X351600Y5065D01*
X351794Y5103D01*
X353047Y5623D01*
X353212Y5733D01*
X353394Y5808D01*
X354523Y6562D01*
X354663Y6702D01*
X354827Y6812D01*
X355787Y7772D01*
X355896Y7936D01*
X356036Y8076D01*
X356790Y9204D01*
X356866Y9387D01*
X356976Y9551D01*
X357495Y10805D01*
X357534Y10999D01*
X357609Y11181D01*
X357874Y12513D01*
Y12710D01*
X357913Y12904D01*
Y14261D01*
X357874Y14455D01*
Y14653D01*
X357609Y15984D01*
X357534Y16166D01*
X357495Y16360D01*
X356976Y17614D01*
X356866Y17779D01*
X356790Y17961D01*
X356036Y19090D01*
X355896Y19229D01*
X355787Y19394D01*
X354827Y20354D01*
X354663Y20463D01*
X354523Y20603D01*
X353394Y21357D01*
X353212Y21433D01*
X353047Y21543D01*
X351794Y22062D01*
X351600Y22100D01*
X351417Y22176D01*
X350086Y22441D01*
X349888D01*
X349694Y22479D01*
D02*
G37*
G36*
X21742D02*
X20384D01*
X20190Y22441D01*
X19993D01*
X18662Y22176D01*
X18479Y22100D01*
X18285Y22062D01*
X17031Y21543D01*
X16867Y21433D01*
X16684Y21357D01*
X15556Y20603D01*
X15416Y20463D01*
X15252Y20354D01*
X14292Y19394D01*
X14182Y19229D01*
X14042Y19090D01*
X13288Y17961D01*
X13213Y17779D01*
X13103Y17614D01*
X12584Y16360D01*
X12545Y16166D01*
X12470Y15984D01*
X12205Y14653D01*
Y14455D01*
X12166Y14261D01*
Y12904D01*
X12205Y12710D01*
Y12513D01*
X12470Y11181D01*
X12545Y10999D01*
X12584Y10805D01*
X13103Y9551D01*
X13213Y9387D01*
X13288Y9204D01*
X14042Y8076D01*
X14182Y7936D01*
X14292Y7772D01*
X15252Y6812D01*
X15416Y6702D01*
X15556Y6562D01*
X16684Y5808D01*
X16867Y5733D01*
X17031Y5623D01*
X18285Y5103D01*
X18479Y5065D01*
X18662Y4989D01*
X19993Y4724D01*
X20190D01*
X20384Y4686D01*
X21742D01*
X21935Y4724D01*
X22133D01*
X23464Y4989D01*
X23647Y5065D01*
X23841Y5103D01*
X25095Y5623D01*
X25259Y5733D01*
X25442Y5808D01*
X26570Y6562D01*
X26710Y6702D01*
X26874Y6812D01*
X27834Y7772D01*
X27944Y7936D01*
X28083Y8076D01*
X28837Y9204D01*
X28913Y9387D01*
X29023Y9551D01*
X29542Y10805D01*
X29581Y10999D01*
X29656Y11181D01*
X29921Y12513D01*
Y12710D01*
X29960Y12904D01*
Y14261D01*
X29921Y14455D01*
Y14653D01*
X29656Y15984D01*
X29581Y16166D01*
X29542Y16360D01*
X29023Y17614D01*
X28913Y17779D01*
X28837Y17961D01*
X28083Y19090D01*
X27944Y19229D01*
X27834Y19394D01*
X26874Y20354D01*
X26710Y20463D01*
X26570Y20603D01*
X25442Y21357D01*
X25259Y21433D01*
X25095Y21543D01*
X23841Y22062D01*
X23647Y22100D01*
X23464Y22176D01*
X22133Y22441D01*
X21936D01*
X21742Y22479D01*
D02*
G37*
%LPD*%
G36*
X66876Y135857D02*
X68621Y135143D01*
X70196Y134106D01*
X71540Y132784D01*
X72605Y131228D01*
X73349Y129495D01*
X73745Y127652D01*
X73761Y126709D01*
X73761D01*
X73761Y126709D01*
X73863Y120892D01*
X73970Y109256D01*
X73982Y97620D01*
X73898Y85983D01*
X73809Y80166D01*
X73809Y80166D01*
X73809Y80166D01*
X73801Y79654D01*
X73588Y78652D01*
X73185Y77711D01*
X72607Y76865D01*
X71878Y76146D01*
X71023Y75582D01*
X70075Y75194D01*
X69070Y74997D01*
X68558Y74997D01*
X68558Y74997D01*
X68558Y74997D01*
X58503Y74997D01*
X57976Y74997D01*
X56942Y75203D01*
X55967Y75606D01*
X55090Y76192D01*
X54345Y76938D01*
X53759Y77815D01*
X53355Y78789D01*
X53150Y79823D01*
X53150Y80350D01*
Y108244D01*
X53129Y108671D01*
X52962Y109508D01*
X52635Y110297D01*
X52161Y111006D01*
X51557Y111610D01*
X50848Y112084D01*
X50059Y112411D01*
X49260Y112570D01*
X49222Y112577D01*
X48796Y112598D01*
X48795Y112598D01*
X48795Y112598D01*
X48795Y112598D01*
X44488Y112598D01*
X44100Y112598D01*
X43340Y112750D01*
X42623Y113046D01*
X41978Y113477D01*
X41430Y114025D01*
X40999Y114670D01*
X40703Y115387D01*
X40551Y116147D01*
X40551Y116535D01*
X40551Y132677D01*
X40551Y133026D01*
X40687Y133711D01*
X40954Y134355D01*
X41342Y134936D01*
X41836Y135429D01*
X42416Y135817D01*
X43061Y136084D01*
X43745Y136220D01*
X44094Y136220D01*
X44094Y136221D01*
X64083Y136221D01*
X65026Y136221D01*
X66876Y135857D01*
D02*
G37*
G36*
X45285Y109924D02*
X46758Y109292D01*
X48073Y108377D01*
X49178Y107215D01*
X50026Y105856D01*
X50584Y104353D01*
X50827Y102769D01*
X50787Y101969D01*
X50787D01*
X50787Y101968D01*
X50787Y81102D01*
X50828Y80520D01*
X50679Y79363D01*
X50306Y78258D01*
X49725Y77246D01*
X48957Y76368D01*
X48031Y75657D01*
X46985Y75142D01*
X45858Y74840D01*
X45275Y74803D01*
X45275Y74803D01*
X45275Y74803D01*
X22156Y74803D01*
X21414D01*
X19941Y74997D01*
X18507Y75381D01*
X17135Y75950D01*
X15848Y76692D01*
X14670Y77596D01*
X13620Y78647D01*
X12716Y79825D01*
X11973Y81111D01*
X11405Y82483D01*
X11021Y83918D01*
X10827Y85390D01*
X10827Y86133D01*
X10827Y96653D01*
Y97544D01*
X11059Y99311D01*
X11520Y101032D01*
X12202Y102678D01*
X13093Y104221D01*
X14178Y105635D01*
X15438Y106895D01*
X16851Y107980D01*
X18395Y108870D01*
X20041Y109552D01*
X21762Y110013D01*
X23528Y110246D01*
X24419D01*
Y110246D01*
X42913Y110246D01*
X43715Y110246D01*
X45285Y109924D01*
D02*
G37*
G36*
X282776Y234134D02*
X280512D01*
Y236102D01*
X278543D01*
Y234134D01*
X276279D01*
Y238425D01*
X282776D01*
Y234134D01*
D02*
G37*
G36*
X253248Y171850D02*
X250984D01*
Y173819D01*
X249016D01*
Y171850D01*
X246752D01*
Y176142D01*
X253248D01*
Y171850D01*
D02*
G37*
G36*
Y158465D02*
X246752D01*
Y162795D01*
X249016D01*
Y160827D01*
X250984D01*
Y162795D01*
X253248D01*
Y158465D01*
D02*
G37*
G36*
X124016Y122047D02*
X122047D01*
Y120079D01*
X124016D01*
Y117815D01*
X119724D01*
Y124311D01*
X124016D01*
Y122047D01*
D02*
G37*
G36*
X137402Y117815D02*
X133071D01*
Y120079D01*
X135039D01*
Y122047D01*
X133071D01*
Y124311D01*
X137402D01*
Y117815D01*
D02*
G37*
D10*
X318613Y57156D02*
X340174D01*
X283110Y21654D02*
X318613Y57156D01*
X338666Y32283D02*
X355381Y48999D01*
X303740Y32283D02*
X338666D01*
X293110Y21654D02*
X303740Y32283D01*
X318504Y177559D02*
X355381Y140682D01*
Y48999D02*
Y140682D01*
X342266Y59249D02*
X343209Y60191D01*
X342266Y59172D02*
Y59249D01*
X340250Y57156D02*
X342266Y59172D01*
X340174Y57156D02*
X340250D01*
X343209Y60191D02*
Y77165D01*
X200374Y73996D02*
X204291Y70079D01*
X329626Y70079D01*
X336319Y76772D02*
Y77165D01*
X329626Y70079D02*
X336319Y76772D01*
X313110Y21654D02*
X314567D01*
X319601Y26688D01*
X341648D01*
X361417Y46457D01*
Y139862D01*
X141131Y83632D02*
X141200Y83701D01*
X133435Y83632D02*
X141131D01*
X133366Y83563D02*
X133435Y83632D01*
X96850Y71260D02*
X97063D01*
X99528Y68796D01*
X104157D01*
X105236Y67716D01*
X317224Y184055D02*
X361417Y139862D01*
X113189Y66339D02*
X115236D01*
X105905Y59055D02*
X113189Y66339D01*
X105905Y55118D02*
Y59055D01*
X272047Y217797D02*
X276180Y221929D01*
X272047Y207244D02*
Y217797D01*
X276180Y221929D02*
X279528D01*
X272047Y207244D02*
X273386Y205906D01*
X279528D01*
Y213386D02*
X288976D01*
X290551Y233268D02*
X295500D01*
X296654Y232115D01*
Y221063D02*
Y232115D01*
X288976Y213386D02*
X296654Y221063D01*
X287402Y209646D02*
X298031D01*
X316929Y228543D01*
X279528Y213386D02*
X279921Y213779D01*
X290551Y233268D02*
Y247047D01*
X316929Y228543D02*
X318898D01*
X59843Y64253D02*
X74160D01*
X59665Y64075D02*
X59843Y64253D01*
X283858Y239547D02*
Y247047D01*
X115236Y66339D02*
Y67716D01*
X59370Y43110D02*
X68327D01*
X58681Y43799D02*
X59370Y43110D01*
X74160Y64253D02*
X93470Y83563D01*
X126476D01*
Y92520D02*
Y98919D01*
X121852Y103543D02*
X126476Y98919D01*
X115236Y103543D02*
X121852D01*
X133366Y95277D02*
X137008Y98919D01*
Y103347D01*
X133366Y92520D02*
Y95277D01*
X140748Y111275D02*
Y111417D01*
Y111221D02*
Y111275D01*
X136221Y115802D02*
X140748Y111275D01*
X136221Y115802D02*
Y121063D01*
X105236Y103543D02*
Y149090D01*
X108465Y152318D01*
Y153543D01*
X136221Y124411D02*
X148622Y136813D01*
Y153543D01*
X136221Y121063D02*
Y124411D01*
X120866Y121063D02*
Y136024D01*
X128543Y143701D01*
X253760Y246654D02*
Y247047D01*
X243524Y236417D02*
X253760Y246654D01*
X213583Y236417D02*
X243524D01*
X249921Y229921D02*
X260650Y240650D01*
X249921Y228543D02*
Y229921D01*
X260650Y240650D02*
Y247047D01*
X259921Y229921D02*
X267284Y237283D01*
X259921Y228543D02*
Y229921D01*
X267284Y237283D02*
X279528D01*
X281594D02*
X283858Y239547D01*
X279528Y237283D02*
X281594D01*
X274606Y177559D02*
X318504D01*
X260630Y163583D02*
X274606Y177559D01*
X260630Y150100D02*
Y163583D01*
X255807Y145277D02*
X260630Y150100D01*
X255807Y142520D02*
Y145277D01*
X249921Y191339D02*
X257205Y184055D01*
X249921Y191339D02*
Y192717D01*
X257205Y184055D02*
X270177D01*
X269516Y160658D02*
X278543D01*
X268898Y160039D02*
X269516Y160658D01*
X240158Y137008D02*
X243799D01*
X248917Y142126D01*
Y142520D01*
X244685Y159646D02*
X250000D01*
X232283Y147244D02*
X244685Y159646D01*
X232283Y140748D02*
Y147244D01*
X212441Y189213D02*
X213583D01*
X198268Y175039D02*
X212441Y189213D01*
X198268Y138347D02*
Y175039D01*
X213583Y150276D02*
X223110Y140748D01*
X232283D01*
X213583Y150276D02*
Y159213D01*
X198268Y138347D02*
X225394Y111221D01*
X213583Y189213D02*
X233720D01*
X247933Y175000D01*
X250000D01*
X277067Y184055D02*
X317224D01*
X161024Y8268D02*
X289724D01*
X303110Y21654D01*
X114173Y55118D02*
X161024Y8268D01*
X283366Y86122D02*
X298031Y100787D01*
X283366Y81910D02*
Y86122D01*
X283110Y81653D02*
X283366Y81910D01*
X298031Y100787D02*
X313779D01*
X328740Y115748D01*
Y125591D01*
X324803Y129528D02*
X328740Y125591D01*
X304331Y129528D02*
X324803D01*
X299803Y125000D02*
X304331Y129528D01*
X290354Y125000D02*
X299803D01*
X290354Y114665D02*
Y125000D01*
X54665Y57087D02*
Y64075D01*
X54718Y64127D01*
X47639Y58071D02*
X49665Y60097D01*
X42573Y58071D02*
X47639D01*
X49665Y60097D02*
Y64075D01*
X39980Y55478D02*
X42573Y58071D01*
X39980Y50394D02*
Y55478D01*
D43*
X59665Y83563D02*
D03*
X54665D02*
D03*
X49665D02*
D03*
X44665D02*
D03*
Y64075D02*
D03*
X49665D02*
D03*
X54665D02*
D03*
X59665D02*
D03*
D44*
X343209Y77165D02*
D03*
X336319D02*
D03*
X255807Y142520D02*
D03*
X248917D02*
D03*
X260650Y247047D02*
D03*
X253760D02*
D03*
X270177Y184055D02*
D03*
X277067D02*
D03*
X283957Y247047D02*
D03*
X290846D02*
D03*
X133366Y83563D02*
D03*
X126476D02*
D03*
Y92520D02*
D03*
X133366D02*
D03*
D45*
X140748Y111221D02*
D03*
X144488Y103347D02*
D03*
X137008D02*
D03*
D46*
X105236Y67716D02*
D03*
X115236D02*
D03*
X105236Y103543D02*
D03*
X115236D02*
D03*
X249921Y192717D02*
D03*
X259921D02*
D03*
X249921Y228543D02*
D03*
X259921D02*
D03*
D47*
X68327Y43110D02*
D03*
Y51378D02*
D03*
X268898Y160039D02*
D03*
Y151772D02*
D03*
D48*
X270669Y124016D02*
D03*
Y108268D02*
D03*
D49*
X279528Y213386D02*
D03*
Y205906D02*
D03*
X287402Y209646D02*
D03*
X232283Y140748D02*
D03*
X240158Y144488D02*
D03*
Y137008D02*
D03*
D50*
X120866Y121063D02*
D03*
X136221D02*
D03*
D51*
X39980Y44094D02*
D03*
Y50394D02*
D03*
X155512Y102756D02*
D03*
Y96457D02*
D03*
X190748Y110433D02*
D03*
Y104134D02*
D03*
X243110Y113583D02*
D03*
Y107283D02*
D03*
X251969Y113583D02*
D03*
Y107283D02*
D03*
X49823Y44094D02*
D03*
Y50394D02*
D03*
D52*
X250000Y175000D02*
D03*
Y159646D02*
D03*
X279528Y237283D02*
D03*
Y221929D02*
D03*
D53*
X105905Y55118D02*
D03*
X114173D02*
D03*
D54*
X290551Y226378D02*
D03*
Y233268D02*
D03*
X290354Y114665D02*
D03*
Y107776D02*
D03*
Y131890D02*
D03*
Y125000D02*
D03*
X278543Y160658D02*
D03*
Y153768D02*
D03*
X58681Y43799D02*
D03*
Y50689D02*
D03*
D55*
X200374Y73996D02*
X203110Y76732D01*
X197638Y71260D02*
X200374Y73996D01*
X203110Y76732D02*
Y81653D01*
X132024Y71260D02*
X197638D01*
X126476Y76807D02*
X132024Y71260D01*
X126476Y76807D02*
Y83563D01*
X161024Y96457D02*
X167041Y90440D01*
X155512Y96457D02*
X161024D01*
X167041Y90440D02*
X173493D01*
X270669Y129037D02*
X278543Y136911D01*
Y153051D01*
X270669Y124016D02*
Y129037D01*
X177148Y94095D02*
X178228Y95175D01*
X173493Y90440D02*
X177148Y94095D01*
X183071D01*
X178228Y95175D02*
Y104331D01*
X236614Y94095D02*
X257480D01*
X260630Y97244D01*
Y121710D01*
X262936Y124016D01*
X270669D01*
X178425Y104134D02*
X190748D01*
X203110Y94095D02*
X209803Y100787D01*
X214961D01*
X225394Y111221D01*
X203110Y81653D02*
Y94095D01*
X173493Y82036D02*
Y90440D01*
X173110Y81653D02*
X173493Y82036D01*
X243110Y107283D02*
X251969D01*
X230024D02*
X243110D01*
X226087Y111221D02*
X230024Y107283D01*
X225394Y111221D02*
X226087D01*
X270669Y108268D02*
X271161Y107776D01*
X290354D01*
X305610D01*
X316929Y119095D01*
D56*
X49823Y50394D02*
X50118Y50689D01*
X58681D01*
X59665Y51673D02*
Y64075D01*
X58681Y50689D02*
X59665Y51673D01*
D57*
X178228Y104331D02*
X178425Y104134D01*
D58*
X22407Y86614D02*
Y193941D01*
X147638Y229331D02*
X163583Y213386D01*
X57797Y229331D02*
X147638D01*
X22407Y193941D02*
X57797Y229331D01*
D59*
X53150Y156496D02*
D03*
X316929Y119095D02*
D03*
D60*
X53150D02*
D03*
X316929Y156496D02*
D03*
D61*
X163583Y243307D02*
D03*
X93504Y203543D02*
D03*
X163583Y213386D02*
D03*
X128543Y143701D02*
D03*
D62*
X148622Y153543D02*
D03*
X108465D02*
D03*
D63*
X225394Y111221D02*
D03*
X178228Y104331D02*
D03*
X323110Y21654D02*
D03*
Y81653D02*
D03*
X163110Y21654D02*
D03*
Y81653D02*
D03*
D64*
X211394Y111221D02*
D03*
X168228Y104331D02*
D03*
D65*
X213583Y159213D02*
D03*
Y189213D02*
D03*
D66*
X340174Y57156D02*
D03*
Y47157D02*
D03*
D67*
X173110Y21654D02*
D03*
D68*
X183110D02*
D03*
X193110D02*
D03*
X203110D02*
D03*
X213110D02*
D03*
X223110D02*
D03*
X233110D02*
D03*
X243110D02*
D03*
X253110D02*
D03*
X263110D02*
D03*
X273110D02*
D03*
X283110D02*
D03*
X293110D02*
D03*
X303110D02*
D03*
X313110D02*
D03*
Y81653D02*
D03*
X303110D02*
D03*
X293110D02*
D03*
X283110D02*
D03*
X273110D02*
D03*
X263110D02*
D03*
X253110D02*
D03*
X243110D02*
D03*
X233110D02*
D03*
X223110D02*
D03*
X213110D02*
D03*
X203110D02*
D03*
X193110D02*
D03*
X183110D02*
D03*
X173110D02*
D03*
D69*
X213583Y228543D02*
D03*
Y236417D02*
D03*
X318898Y228543D02*
D03*
Y236417D02*
D03*
D70*
X96850Y71260D02*
D03*
X79852Y91393D02*
D03*
X79773Y106265D02*
D03*
X79852Y119095D02*
D03*
X22133Y219291D02*
D03*
X45285Y242673D02*
D03*
X107087Y246127D02*
D03*
Y213317D02*
D03*
X66876Y69206D02*
D03*
X38583Y68487D02*
D03*
X21402D02*
D03*
X45285Y194058D02*
D03*
X65026Y211417D02*
D03*
X140122Y211811D02*
D03*
X137795Y158030D02*
D03*
X114567Y182677D02*
D03*
X326997Y140748D02*
D03*
X53355Y142263D02*
D03*
X39923Y156496D02*
D03*
X53129Y170866D02*
D03*
X307315Y140748D02*
D03*
X307172Y168898D02*
D03*
X141200Y83701D02*
D03*
X183071Y94095D02*
D03*
X236614D02*
D03*
X54665Y57087D02*
D03*
X71023Y119095D02*
D03*
Y106265D02*
D03*
Y91535D02*
D03*
X55967D02*
D03*
Y106265D02*
D03*
X65026Y132677D02*
D03*
X43715D02*
D03*
X144882Y220472D02*
D03*
X151181Y237402D02*
D03*
X107087Y220472D02*
D03*
Y238583D02*
D03*
X60630Y220472D02*
D03*
X52362Y234646D02*
D03*
X27953Y211417D02*
D03*
X38976Y200394D02*
D03*
X13093Y175984D02*
D03*
X31102D02*
D03*
X13093Y148031D02*
D03*
X31102D02*
D03*
X31890Y113751D02*
D03*
X13093Y113046D02*
D03*
X48031Y91393D02*
D03*
X21402Y77246D02*
D03*
X38583D02*
D03*
X43715Y106265D02*
D03*
M02*
