G04*
G04 #@! TF.GenerationSoftware,Altium Limited,Altium Designer,19.1.8 (144)*
G04*
G04 Layer_Color=2752767*
%FSLAX25Y25*%
%MOIN*%
G70*
G01*
G75*
%ADD75C,0.00200*%
%ADD76C,0.00267*%
D75*
X52350Y155696D02*
Y157296D01*
X53950D01*
Y155696D01*
X52350D01*
Y118295D02*
Y119895D01*
X53950D01*
Y118295D01*
X52350D01*
X148622Y152743D02*
X147822Y154343D01*
X149422D01*
X148622Y152743D01*
X108465D02*
X107665Y154343D01*
X109265D01*
X108465Y152743D01*
X225394Y110421D02*
X225794Y110820D01*
X226194D01*
X225794Y111221D01*
X226194Y111620D01*
X225794D01*
X225394Y112021D01*
X224994Y111620D01*
X224594D01*
X224994Y111221D01*
X224594Y110820D01*
X224994D01*
X225394Y110421D01*
X211394D02*
X211794Y110820D01*
X212194D01*
X211794Y111221D01*
X212194Y111620D01*
X211794D01*
X211394Y112021D01*
X210994Y111620D01*
X210594D01*
X210994Y111221D01*
X210594Y110820D01*
X210994D01*
X211394Y110421D01*
X178228Y103531D02*
X178628Y103931D01*
X179028D01*
X178628Y104331D01*
X179028Y104731D01*
X178628D01*
X178228Y105131D01*
X177828Y104731D01*
X177428D01*
X177828Y104331D01*
X177428Y103931D01*
X177828D01*
X178228Y103531D01*
X168228D02*
X168628Y103931D01*
X169028D01*
X168628Y104331D01*
X169028Y104731D01*
X168628D01*
X168228Y105131D01*
X167828Y104731D01*
X167428D01*
X167828Y104331D01*
X167428Y103931D01*
X167828D01*
X168228Y103531D01*
X212783Y158413D02*
X213183Y159213D01*
X212783Y160013D01*
X213583Y159613D01*
X214383Y160013D01*
X213983Y159213D01*
X214383Y158413D01*
X213583Y158813D01*
X212783Y158413D01*
Y188413D02*
X213183Y189213D01*
X212783Y190013D01*
X213583Y189613D01*
X214383Y190013D01*
X213983Y189213D01*
X214383Y188413D01*
X213583Y188813D01*
X212783Y188413D01*
X339374Y56357D02*
X339774Y57156D01*
X339374Y57956D01*
X340174Y57556D01*
X340974Y57956D01*
X340574Y57156D01*
X340974Y56357D01*
X340174Y56757D01*
X339374Y56357D01*
Y46356D02*
X339774Y47157D01*
X339374Y47956D01*
X340174Y47556D01*
X340974Y47956D01*
X340574Y47157D01*
X340974Y46356D01*
X340174Y46757D01*
X339374Y46356D01*
X172310Y20854D02*
X172710Y21654D01*
X172310Y22454D01*
X173110Y22053D01*
X173910Y22454D01*
X173510Y21654D01*
X173910Y20854D01*
X173110Y21253D01*
X172310Y20854D01*
X182310D02*
X182710Y21654D01*
X182310Y22454D01*
X183110Y22053D01*
X183910Y22454D01*
X183510Y21654D01*
X183910Y20854D01*
X183110Y21253D01*
X182310Y20854D01*
X192310D02*
X192710Y21654D01*
X192310Y22454D01*
X193110Y22053D01*
X193910Y22454D01*
X193510Y21654D01*
X193910Y20854D01*
X193110Y21253D01*
X192310Y20854D01*
X202310D02*
X202710Y21654D01*
X202310Y22454D01*
X203110Y22053D01*
X203910Y22454D01*
X203510Y21654D01*
X203910Y20854D01*
X203110Y21253D01*
X202310Y20854D01*
X212310D02*
X212710Y21654D01*
X212310Y22454D01*
X213110Y22053D01*
X213910Y22454D01*
X213510Y21654D01*
X213910Y20854D01*
X213110Y21253D01*
X212310Y20854D01*
X222310D02*
X222710Y21654D01*
X222310Y22454D01*
X223110Y22053D01*
X223910Y22454D01*
X223510Y21654D01*
X223910Y20854D01*
X223110Y21253D01*
X222310Y20854D01*
X232310D02*
X232710Y21654D01*
X232310Y22454D01*
X233110Y22053D01*
X233910Y22454D01*
X233510Y21654D01*
X233910Y20854D01*
X233110Y21253D01*
X232310Y20854D01*
X242310D02*
X242710Y21654D01*
X242310Y22454D01*
X243110Y22053D01*
X243910Y22454D01*
X243510Y21654D01*
X243910Y20854D01*
X243110Y21253D01*
X242310Y20854D01*
X252310D02*
X252710Y21654D01*
X252310Y22454D01*
X253110Y22053D01*
X253910Y22454D01*
X253510Y21654D01*
X253910Y20854D01*
X253110Y21253D01*
X252310Y20854D01*
X262310D02*
X262710Y21654D01*
X262310Y22454D01*
X263110Y22053D01*
X263910Y22454D01*
X263510Y21654D01*
X263910Y20854D01*
X263110Y21253D01*
X262310Y20854D01*
X272310D02*
X272710Y21654D01*
X272310Y22454D01*
X273110Y22053D01*
X273910Y22454D01*
X273510Y21654D01*
X273910Y20854D01*
X273110Y21253D01*
X272310Y20854D01*
X282310D02*
X282710Y21654D01*
X282310Y22454D01*
X283110Y22053D01*
X283910Y22454D01*
X283510Y21654D01*
X283910Y20854D01*
X283110Y21253D01*
X282310Y20854D01*
X292310D02*
X292710Y21654D01*
X292310Y22454D01*
X293110Y22053D01*
X293910Y22454D01*
X293510Y21654D01*
X293910Y20854D01*
X293110Y21253D01*
X292310Y20854D01*
X302310D02*
X302710Y21654D01*
X302310Y22454D01*
X303110Y22053D01*
X303910Y22454D01*
X303510Y21654D01*
X303910Y20854D01*
X303110Y21253D01*
X302310Y20854D01*
X312310D02*
X312710Y21654D01*
X312310Y22454D01*
X313110Y22053D01*
X313910Y22454D01*
X313510Y21654D01*
X313910Y20854D01*
X313110Y21253D01*
X312310Y20854D01*
Y80853D02*
X312710Y81653D01*
X312310Y82454D01*
X313110Y82054D01*
X313910Y82454D01*
X313510Y81653D01*
X313910Y80853D01*
X313110Y81253D01*
X312310Y80853D01*
X302310D02*
X302710Y81653D01*
X302310Y82454D01*
X303110Y82054D01*
X303910Y82454D01*
X303510Y81653D01*
X303910Y80853D01*
X303110Y81253D01*
X302310Y80853D01*
X292310D02*
X292710Y81653D01*
X292310Y82454D01*
X293110Y82054D01*
X293910Y82454D01*
X293510Y81653D01*
X293910Y80853D01*
X293110Y81253D01*
X292310Y80853D01*
X282310D02*
X282710Y81653D01*
X282310Y82454D01*
X283110Y82054D01*
X283910Y82454D01*
X283510Y81653D01*
X283910Y80853D01*
X283110Y81253D01*
X282310Y80853D01*
X272310D02*
X272710Y81653D01*
X272310Y82454D01*
X273110Y82054D01*
X273910Y82454D01*
X273510Y81653D01*
X273910Y80853D01*
X273110Y81253D01*
X272310Y80853D01*
X262310D02*
X262710Y81653D01*
X262310Y82454D01*
X263110Y82054D01*
X263910Y82454D01*
X263510Y81653D01*
X263910Y80853D01*
X263110Y81253D01*
X262310Y80853D01*
X252310D02*
X252710Y81653D01*
X252310Y82454D01*
X253110Y82054D01*
X253910Y82454D01*
X253510Y81653D01*
X253910Y80853D01*
X253110Y81253D01*
X252310Y80853D01*
X242310D02*
X242710Y81653D01*
X242310Y82454D01*
X243110Y82054D01*
X243910Y82454D01*
X243510Y81653D01*
X243910Y80853D01*
X243110Y81253D01*
X242310Y80853D01*
X232310D02*
X232710Y81653D01*
X232310Y82454D01*
X233110Y82054D01*
X233910Y82454D01*
X233510Y81653D01*
X233910Y80853D01*
X233110Y81253D01*
X232310Y80853D01*
X222310D02*
X222710Y81653D01*
X222310Y82454D01*
X223110Y82054D01*
X223910Y82454D01*
X223510Y81653D01*
X223910Y80853D01*
X223110Y81253D01*
X222310Y80853D01*
X212310D02*
X212710Y81653D01*
X212310Y82454D01*
X213110Y82054D01*
X213910Y82454D01*
X213510Y81653D01*
X213910Y80853D01*
X213110Y81253D01*
X212310Y80853D01*
X202310D02*
X202710Y81653D01*
X202310Y82454D01*
X203110Y82054D01*
X203910Y82454D01*
X203510Y81653D01*
X203910Y80853D01*
X203110Y81253D01*
X202310Y80853D01*
X192310D02*
X192710Y81653D01*
X192310Y82454D01*
X193110Y82054D01*
X193910Y82454D01*
X193510Y81653D01*
X193910Y80853D01*
X193110Y81253D01*
X192310Y80853D01*
X182310D02*
X182710Y81653D01*
X182310Y82454D01*
X183110Y82054D01*
X183910Y82454D01*
X183510Y81653D01*
X183910Y80853D01*
X183110Y81253D01*
X182310Y80853D01*
X172310D02*
X172710Y81653D01*
X172310Y82454D01*
X173110Y82054D01*
X173910Y82454D01*
X173510Y81653D01*
X173910Y80853D01*
X173110Y81253D01*
X172310Y80853D01*
X322710Y21253D02*
Y20854D01*
X323510D01*
Y21253D01*
X323910D01*
Y22053D01*
X323510D01*
Y22454D01*
X322710D01*
Y22053D01*
X322310D01*
Y21253D01*
X322710D01*
Y81253D02*
Y80853D01*
X323510D01*
Y81253D01*
X323910D01*
Y82054D01*
X323510D01*
Y82454D01*
X322710D01*
Y82054D01*
X322310D01*
Y81253D01*
X322710D01*
X162710Y21253D02*
Y20854D01*
X163510D01*
Y21253D01*
X163910D01*
Y22053D01*
X163510D01*
Y22454D01*
X162710D01*
Y22053D01*
X162310D01*
Y21253D01*
X162710D01*
Y81253D02*
Y80853D01*
X163510D01*
Y81253D01*
X163910D01*
Y82054D01*
X163510D01*
Y82454D01*
X162710D01*
Y82054D01*
X162310D01*
Y81253D01*
X162710D01*
X212783Y227743D02*
X213183D01*
X213583Y228143D01*
X213983Y227743D01*
X214383D01*
Y228143D01*
X213983Y228543D01*
X214383Y228943D01*
Y229343D01*
X213983D01*
X213583Y228943D01*
X213183Y229343D01*
X212783D01*
Y228943D01*
X213183Y228543D01*
X212783Y228143D01*
Y227743D01*
Y235617D02*
X213183D01*
X213583Y236017D01*
X213983Y235617D01*
X214383D01*
Y236017D01*
X213983Y236417D01*
X214383Y236817D01*
Y237217D01*
X213983D01*
X213583Y236817D01*
X213183Y237217D01*
X212783D01*
Y236817D01*
X213183Y236417D01*
X212783Y236017D01*
Y235617D01*
X318098Y227743D02*
X318498D01*
X318898Y228143D01*
X319298Y227743D01*
X319698D01*
Y228143D01*
X319298Y228543D01*
X319698Y228943D01*
Y229343D01*
X319298D01*
X318898Y228943D01*
X318498Y229343D01*
X318098D01*
Y228943D01*
X318498Y228543D01*
X318098Y228143D01*
Y227743D01*
Y235617D02*
X318498D01*
X318898Y236017D01*
X319298Y235617D01*
X319698D01*
Y236017D01*
X319298Y236417D01*
X319698Y236817D01*
Y237217D01*
X319298D01*
X318898Y236817D01*
X318498Y237217D01*
X318098D01*
Y236817D01*
X318498Y236417D01*
X318098Y236017D01*
Y235617D01*
X316129Y118295D02*
Y119895D01*
X317729D01*
Y118295D01*
X316129D01*
Y155696D02*
Y157296D01*
X317729D01*
Y155696D01*
X316129D01*
X96050Y71260D02*
X96850Y72060D01*
X97650Y71260D01*
X96850Y70460D01*
X96050Y71260D01*
X79052Y91393D02*
X79852Y92193D01*
X80652Y91393D01*
X79852Y90593D01*
X79052Y91393D01*
X78974Y106265D02*
X79773Y107065D01*
X80573Y106265D01*
X79773Y105465D01*
X78974Y106265D01*
X79052Y119095D02*
X79852Y119895D01*
X80652Y119095D01*
X79852Y118295D01*
X79052Y119095D01*
X21333Y219291D02*
X22133Y220091D01*
X22933Y219291D01*
X22133Y218491D01*
X21333Y219291D01*
X44485Y242673D02*
X45285Y243473D01*
X46085Y242673D01*
X45285Y241873D01*
X44485Y242673D01*
X106287Y246127D02*
X107087Y246927D01*
X107887Y246127D01*
X107087Y245327D01*
X106287Y246127D01*
Y213317D02*
X107087Y214117D01*
X107887Y213317D01*
X107087Y212517D01*
X106287Y213317D01*
X66076Y69206D02*
X66876Y70006D01*
X67676Y69206D01*
X66876Y68406D01*
X66076Y69206D01*
X37783Y68487D02*
X38583Y69287D01*
X39383Y68487D01*
X38583Y67687D01*
X37783Y68487D01*
X20602D02*
X21402Y69287D01*
X22202Y68487D01*
X21402Y67687D01*
X20602Y68487D01*
X44485Y194058D02*
X45285Y194858D01*
X46085Y194058D01*
X45285Y193258D01*
X44485Y194058D01*
X64226Y211417D02*
X65026Y212217D01*
X65826Y211417D01*
X65026Y210617D01*
X64226Y211417D01*
X139322Y211811D02*
X140122Y212611D01*
X140922Y211811D01*
X140122Y211011D01*
X139322Y211811D01*
X136995Y158030D02*
X137795Y158830D01*
X138595Y158030D01*
X137795Y157230D01*
X136995Y158030D01*
X113767Y182677D02*
X114567Y183477D01*
X115367Y182677D01*
X114567Y181877D01*
X113767Y182677D01*
X326197Y140748D02*
X326997Y141548D01*
X327797Y140748D01*
X326997Y139948D01*
X326197Y140748D01*
X52555Y142263D02*
X53355Y143063D01*
X54155Y142263D01*
X53355Y141463D01*
X52555Y142263D01*
X39123Y156496D02*
X39923Y157296D01*
X40723Y156496D01*
X39923Y155696D01*
X39123Y156496D01*
X52329Y170866D02*
X53129Y171666D01*
X53929Y170866D01*
X53129Y170066D01*
X52329Y170866D01*
X306515Y140748D02*
X307315Y141548D01*
X308115Y140748D01*
X307315Y139948D01*
X306515Y140748D01*
X306371Y168898D02*
X307172Y169698D01*
X307972Y168898D01*
X307172Y168098D01*
X306371Y168898D01*
X140400Y83701D02*
X141200Y84501D01*
X142000Y83701D01*
X141200Y82901D01*
X140400Y83701D01*
X182271Y94095D02*
X183071Y94894D01*
X183871Y94095D01*
X183071Y93295D01*
X182271Y94095D01*
X235814D02*
X236614Y94894D01*
X237414Y94095D01*
X236614Y93295D01*
X235814Y94095D01*
X53865Y57087D02*
X54665Y57887D01*
X55465Y57087D01*
X54665Y56287D01*
X53865Y57087D01*
X70223Y119095D02*
X71023Y119895D01*
X71823Y119095D01*
X71023Y118295D01*
X70223Y119095D01*
Y106265D02*
X71023Y107065D01*
X71823Y106265D01*
X71023Y105465D01*
X70223Y106265D01*
Y91535D02*
X71023Y92335D01*
X71823Y91535D01*
X71023Y90735D01*
X70223Y91535D01*
X55167D02*
X55967Y92335D01*
X56767Y91535D01*
X55967Y90735D01*
X55167Y91535D01*
Y106265D02*
X55967Y107065D01*
X56767Y106265D01*
X55967Y105465D01*
X55167Y106265D01*
X64226Y132677D02*
X65026Y133477D01*
X65826Y132677D01*
X65026Y131877D01*
X64226Y132677D01*
X42915D02*
X43715Y133477D01*
X44515Y132677D01*
X43715Y131877D01*
X42915Y132677D01*
X144082Y220472D02*
X144882Y221272D01*
X145682Y220472D01*
X144882Y219672D01*
X144082Y220472D01*
X150381Y237402D02*
X151181Y238202D01*
X151981Y237402D01*
X151181Y236602D01*
X150381Y237402D01*
X106287Y220472D02*
X107087Y221272D01*
X107887Y220472D01*
X107087Y219672D01*
X106287Y220472D01*
Y238583D02*
X107087Y239383D01*
X107887Y238583D01*
X107087Y237783D01*
X106287Y238583D01*
X59830Y220472D02*
X60630Y221272D01*
X61430Y220472D01*
X60630Y219672D01*
X59830Y220472D01*
X51562Y234646D02*
X52362Y235446D01*
X53162Y234646D01*
X52362Y233846D01*
X51562Y234646D01*
X27153Y211417D02*
X27953Y212217D01*
X28753Y211417D01*
X27953Y210617D01*
X27153Y211417D01*
X38176Y200394D02*
X38976Y201194D01*
X39776Y200394D01*
X38976Y199594D01*
X38176Y200394D01*
X12293Y175984D02*
X13093Y176784D01*
X13893Y175984D01*
X13093Y175184D01*
X12293Y175984D01*
X30302D02*
X31102Y176784D01*
X31902Y175984D01*
X31102Y175184D01*
X30302Y175984D01*
X12293Y148031D02*
X13093Y148831D01*
X13893Y148031D01*
X13093Y147231D01*
X12293Y148031D01*
X30302D02*
X31102Y148831D01*
X31902Y148031D01*
X31102Y147231D01*
X30302Y148031D01*
X31090Y113751D02*
X31890Y114551D01*
X32690Y113751D01*
X31890Y112951D01*
X31090Y113751D01*
X12293Y113046D02*
X13093Y113846D01*
X13893Y113046D01*
X13093Y112246D01*
X12293Y113046D01*
X47231Y91393D02*
X48031Y92193D01*
X48831Y91393D01*
X48031Y90593D01*
X47231Y91393D01*
X20602Y77246D02*
X21402Y78046D01*
X22202Y77246D01*
X21402Y76446D01*
X20602Y77246D01*
X37783D02*
X38583Y78046D01*
X39383Y77246D01*
X38583Y76446D01*
X37783Y77246D01*
X42915Y106265D02*
X43715Y107065D01*
X44515Y106265D01*
X43715Y105465D01*
X42915Y106265D01*
D76*
X164383Y243307D02*
X163830Y244068D01*
X162935Y243777D01*
Y242837D01*
X163830Y242546D01*
X164383Y243307D01*
X94304Y203543D02*
X93751Y204304D01*
X92857Y204013D01*
Y203073D01*
X93751Y202783D01*
X94304Y203543D01*
X164383Y213386D02*
X163830Y214147D01*
X162935Y213856D01*
Y212916D01*
X163830Y212625D01*
X164383Y213386D01*
X129343Y143701D02*
X128790Y144462D01*
X127896Y144171D01*
Y143231D01*
X128790Y142940D01*
X129343Y143701D01*
M02*
