G04*
G04 #@! TF.GenerationSoftware,Altium Limited,Altium Designer,19.1.8 (144)*
G04*
G04 Layer_Color=8388736*
%FSLAX25Y25*%
%MOIN*%
G70*
G01*
G75*
%ADD58C,0.01000*%
G36*
X396750Y148164D02*
X396841D01*
X396932Y148155D01*
X397147Y148139D01*
X397371Y148114D01*
X397611Y148081D01*
X397834Y148039D01*
X397843D01*
X397859Y148031D01*
X397892Y148023D01*
X397934Y148015D01*
X397984Y148006D01*
X398042Y147990D01*
X398174Y147940D01*
X398323Y147890D01*
X398489Y147816D01*
X398646Y147741D01*
X398803Y147642D01*
X398812D01*
X398820Y147634D01*
X398869Y147592D01*
X398936Y147534D01*
X399019Y147452D01*
X399118Y147352D01*
X399217Y147228D01*
X399308Y147087D01*
X399391Y146930D01*
Y146922D01*
X399399Y146913D01*
X399408Y146889D01*
X399424Y146855D01*
X399441Y146814D01*
X399457Y146764D01*
X399490Y146632D01*
X399524Y146483D01*
X399557Y146301D01*
X399582Y146094D01*
X399590Y145862D01*
Y145754D01*
X399582Y145704D01*
Y145638D01*
X399565Y145489D01*
X399540Y145324D01*
X399507Y145150D01*
X399457Y144968D01*
X399391Y144794D01*
Y144785D01*
X399383Y144777D01*
X399366Y144752D01*
X399350Y144719D01*
X399308Y144645D01*
X399242Y144537D01*
X399159Y144429D01*
X399052Y144305D01*
X398936Y144189D01*
X398795Y144082D01*
X398787D01*
X398778Y144073D01*
X398754Y144057D01*
X398729Y144040D01*
X398638Y143991D01*
X398530Y143933D01*
X398389Y143866D01*
X398224Y143800D01*
X398033Y143734D01*
X397826Y143684D01*
X397818D01*
X397801Y143676D01*
X397768D01*
X397727Y143668D01*
X397669Y143659D01*
X397603Y143643D01*
X397528Y143634D01*
X397437Y143626D01*
X397346Y143610D01*
X397238Y143601D01*
X397015Y143577D01*
X396758Y143568D01*
X396477Y143560D01*
X396468D01*
X396444D01*
X396402D01*
X396344D01*
X396278D01*
X396195Y143568D01*
X396104D01*
X396005Y143577D01*
X395798Y143585D01*
X395566Y143610D01*
X395342Y143634D01*
X395119Y143676D01*
X395110D01*
X395094Y143684D01*
X395061Y143693D01*
X395028Y143701D01*
X394978Y143717D01*
X394920Y143734D01*
X394788Y143775D01*
X394638Y143833D01*
X394473Y143900D01*
X394307Y143991D01*
X394150Y144090D01*
X394142D01*
X394133Y144106D01*
X394084Y144140D01*
X394017Y144206D01*
X393926Y144289D01*
X393827Y144388D01*
X393728Y144512D01*
X393636Y144653D01*
X393554Y144810D01*
Y144819D01*
X393546Y144827D01*
X393537Y144852D01*
X393521Y144885D01*
X393504Y144934D01*
X393488Y144984D01*
X393454Y145108D01*
X393421Y145257D01*
X393388Y145440D01*
X393363Y145638D01*
X393355Y145862D01*
Y145969D01*
X393363Y146028D01*
Y146085D01*
X393380Y146243D01*
X393405Y146408D01*
X393446Y146590D01*
X393496Y146773D01*
X393562Y146938D01*
Y146947D01*
X393570Y146955D01*
X393587Y146980D01*
X393603Y147013D01*
X393645Y147087D01*
X393711Y147187D01*
X393802Y147303D01*
X393901Y147418D01*
X394026Y147543D01*
X394166Y147650D01*
X394175D01*
X394183Y147659D01*
X394208Y147675D01*
X394241Y147692D01*
X394324Y147741D01*
X394440Y147799D01*
X394581Y147866D01*
X394746Y147932D01*
X394936Y147998D01*
X395144Y148048D01*
X395152D01*
X395168Y148056D01*
X395201D01*
X395243Y148064D01*
X395301Y148081D01*
X395367Y148089D01*
X395442Y148098D01*
X395524Y148114D01*
X395624Y148122D01*
X395723Y148131D01*
X395947Y148155D01*
X396203Y148164D01*
X396477Y148172D01*
X396485D01*
X396510D01*
X396551D01*
X396609D01*
X396675D01*
X396750Y148164D01*
D02*
G37*
G36*
Y142922D02*
X396841D01*
X396932Y142914D01*
X397147Y142898D01*
X397371Y142873D01*
X397611Y142840D01*
X397834Y142798D01*
X397843D01*
X397859Y142790D01*
X397892Y142782D01*
X397934Y142773D01*
X397984Y142765D01*
X398042Y142749D01*
X398174Y142699D01*
X398323Y142649D01*
X398489Y142575D01*
X398646Y142500D01*
X398803Y142401D01*
X398812D01*
X398820Y142393D01*
X398869Y142351D01*
X398936Y142293D01*
X399019Y142210D01*
X399118Y142111D01*
X399217Y141987D01*
X399308Y141846D01*
X399391Y141689D01*
Y141681D01*
X399399Y141672D01*
X399408Y141647D01*
X399424Y141614D01*
X399441Y141573D01*
X399457Y141523D01*
X399490Y141391D01*
X399524Y141242D01*
X399557Y141060D01*
X399582Y140852D01*
X399590Y140621D01*
Y140513D01*
X399582Y140463D01*
Y140397D01*
X399565Y140248D01*
X399540Y140082D01*
X399507Y139909D01*
X399457Y139726D01*
X399391Y139552D01*
Y139544D01*
X399383Y139536D01*
X399366Y139511D01*
X399350Y139478D01*
X399308Y139403D01*
X399242Y139296D01*
X399159Y139188D01*
X399052Y139064D01*
X398936Y138948D01*
X398795Y138840D01*
X398787D01*
X398778Y138832D01*
X398754Y138816D01*
X398729Y138799D01*
X398638Y138749D01*
X398530Y138691D01*
X398389Y138625D01*
X398224Y138559D01*
X398033Y138493D01*
X397826Y138443D01*
X397818D01*
X397801Y138435D01*
X397768D01*
X397727Y138426D01*
X397669Y138418D01*
X397603Y138402D01*
X397528Y138393D01*
X397437Y138385D01*
X397346Y138368D01*
X397238Y138360D01*
X397015Y138335D01*
X396758Y138327D01*
X396477Y138319D01*
X396468D01*
X396444D01*
X396402D01*
X396344D01*
X396278D01*
X396195Y138327D01*
X396104D01*
X396005Y138335D01*
X395798Y138344D01*
X395566Y138368D01*
X395342Y138393D01*
X395119Y138435D01*
X395110D01*
X395094Y138443D01*
X395061Y138451D01*
X395028Y138460D01*
X394978Y138476D01*
X394920Y138493D01*
X394788Y138534D01*
X394638Y138592D01*
X394473Y138658D01*
X394307Y138749D01*
X394150Y138849D01*
X394142D01*
X394133Y138865D01*
X394084Y138898D01*
X394017Y138965D01*
X393926Y139047D01*
X393827Y139147D01*
X393728Y139271D01*
X393636Y139412D01*
X393554Y139569D01*
Y139577D01*
X393546Y139586D01*
X393537Y139611D01*
X393521Y139644D01*
X393504Y139693D01*
X393488Y139743D01*
X393454Y139867D01*
X393421Y140016D01*
X393388Y140198D01*
X393363Y140397D01*
X393355Y140621D01*
Y140728D01*
X393363Y140786D01*
Y140844D01*
X393380Y141001D01*
X393405Y141167D01*
X393446Y141349D01*
X393496Y141531D01*
X393562Y141697D01*
Y141705D01*
X393570Y141714D01*
X393587Y141738D01*
X393603Y141772D01*
X393645Y141846D01*
X393711Y141945D01*
X393802Y142061D01*
X393901Y142177D01*
X394026Y142301D01*
X394166Y142409D01*
X394175D01*
X394183Y142417D01*
X394208Y142434D01*
X394241Y142450D01*
X394324Y142500D01*
X394440Y142558D01*
X394581Y142624D01*
X394746Y142691D01*
X394936Y142757D01*
X395144Y142806D01*
X395152D01*
X395168Y142815D01*
X395201D01*
X395243Y142823D01*
X395301Y142840D01*
X395367Y142848D01*
X395442Y142856D01*
X395524Y142873D01*
X395624Y142881D01*
X395723Y142889D01*
X395947Y142914D01*
X396203Y142922D01*
X396477Y142931D01*
X396485D01*
X396510D01*
X396551D01*
X396609D01*
X396675D01*
X396750Y142922D01*
D02*
G37*
G36*
X400948Y136265D02*
Y135413D01*
X397884Y136199D01*
Y137673D01*
X400948Y136265D01*
D02*
G37*
G36*
X396750Y135106D02*
X396841D01*
X396932Y135098D01*
X397147Y135081D01*
X397371Y135056D01*
X397611Y135023D01*
X397834Y134982D01*
X397843D01*
X397859Y134974D01*
X397892Y134965D01*
X397934Y134957D01*
X397984Y134949D01*
X398042Y134932D01*
X398174Y134883D01*
X398323Y134833D01*
X398489Y134758D01*
X398646Y134684D01*
X398803Y134584D01*
X398812D01*
X398820Y134576D01*
X398869Y134535D01*
X398936Y134477D01*
X399019Y134394D01*
X399118Y134295D01*
X399217Y134170D01*
X399308Y134030D01*
X399391Y133872D01*
Y133864D01*
X399399Y133856D01*
X399408Y133831D01*
X399424Y133798D01*
X399441Y133756D01*
X399457Y133707D01*
X399490Y133574D01*
X399524Y133425D01*
X399557Y133243D01*
X399582Y133036D01*
X399590Y132804D01*
Y132697D01*
X399582Y132647D01*
Y132581D01*
X399565Y132432D01*
X399540Y132266D01*
X399507Y132092D01*
X399457Y131910D01*
X399391Y131736D01*
Y131728D01*
X399383Y131720D01*
X399366Y131695D01*
X399350Y131662D01*
X399308Y131587D01*
X399242Y131480D01*
X399159Y131372D01*
X399052Y131248D01*
X398936Y131132D01*
X398795Y131024D01*
X398787D01*
X398778Y131016D01*
X398754Y130999D01*
X398729Y130983D01*
X398638Y130933D01*
X398530Y130875D01*
X398389Y130809D01*
X398224Y130743D01*
X398033Y130676D01*
X397826Y130627D01*
X397818D01*
X397801Y130618D01*
X397768D01*
X397727Y130610D01*
X397669Y130602D01*
X397603Y130585D01*
X397528Y130577D01*
X397437Y130569D01*
X397346Y130552D01*
X397238Y130544D01*
X397015Y130519D01*
X396758Y130511D01*
X396477Y130502D01*
X396468D01*
X396444D01*
X396402D01*
X396344D01*
X396278D01*
X396195Y130511D01*
X396104D01*
X396005Y130519D01*
X395798Y130527D01*
X395566Y130552D01*
X395342Y130577D01*
X395119Y130618D01*
X395110D01*
X395094Y130627D01*
X395061Y130635D01*
X395028Y130643D01*
X394978Y130660D01*
X394920Y130676D01*
X394788Y130718D01*
X394638Y130776D01*
X394473Y130842D01*
X394307Y130933D01*
X394150Y131032D01*
X394142D01*
X394133Y131049D01*
X394084Y131082D01*
X394017Y131148D01*
X393926Y131231D01*
X393827Y131331D01*
X393728Y131455D01*
X393636Y131595D01*
X393554Y131753D01*
Y131761D01*
X393546Y131769D01*
X393537Y131794D01*
X393521Y131827D01*
X393504Y131877D01*
X393488Y131927D01*
X393454Y132051D01*
X393421Y132200D01*
X393388Y132382D01*
X393363Y132581D01*
X393355Y132804D01*
Y132912D01*
X393363Y132970D01*
Y133028D01*
X393380Y133185D01*
X393405Y133351D01*
X393446Y133533D01*
X393496Y133715D01*
X393562Y133881D01*
Y133889D01*
X393570Y133897D01*
X393587Y133922D01*
X393603Y133955D01*
X393645Y134030D01*
X393711Y134129D01*
X393802Y134245D01*
X393901Y134361D01*
X394026Y134485D01*
X394166Y134593D01*
X394175D01*
X394183Y134601D01*
X394208Y134618D01*
X394241Y134634D01*
X394324Y134684D01*
X394440Y134742D01*
X394581Y134808D01*
X394746Y134874D01*
X394936Y134941D01*
X395144Y134990D01*
X395152D01*
X395168Y134999D01*
X395201D01*
X395243Y135007D01*
X395301Y135023D01*
X395367Y135032D01*
X395442Y135040D01*
X395524Y135056D01*
X395624Y135065D01*
X395723Y135073D01*
X395947Y135098D01*
X396203Y135106D01*
X396477Y135114D01*
X396485D01*
X396510D01*
X396551D01*
X396609D01*
X396675D01*
X396750Y135106D01*
D02*
G37*
G36*
X399466Y127265D02*
Y125601D01*
X394605Y128259D01*
Y125419D01*
X393479D01*
Y129815D01*
X394672D01*
X399466Y127265D01*
D02*
G37*
G36*
X174956Y-12458D02*
X175014D01*
X175138Y-12466D01*
X175279Y-12483D01*
X175436Y-12516D01*
X175594Y-12549D01*
X175751Y-12599D01*
X175759D01*
X175768Y-12607D01*
X175817Y-12623D01*
X175892Y-12665D01*
X175991Y-12706D01*
X176099Y-12772D01*
X176215Y-12847D01*
X176331Y-12938D01*
X176447Y-13046D01*
X176463Y-13062D01*
X176505Y-13112D01*
X176562Y-13186D01*
X176637Y-13286D01*
X176720Y-13418D01*
X176803Y-13567D01*
X176877Y-13741D01*
X176952Y-13932D01*
Y-13940D01*
X176960Y-13957D01*
X176968Y-13990D01*
X176977Y-14031D01*
X176993Y-14081D01*
X177010Y-14139D01*
X177026Y-14213D01*
X177043Y-14296D01*
X177059Y-14387D01*
X177076Y-14486D01*
X177109Y-14710D01*
X177126Y-14958D01*
X177134Y-15232D01*
Y-15240D01*
Y-15265D01*
Y-15306D01*
Y-15364D01*
X177126Y-15430D01*
Y-15505D01*
X177117Y-15596D01*
X177109Y-15695D01*
X177093Y-15911D01*
X177059Y-16142D01*
X177010Y-16391D01*
X176952Y-16631D01*
Y-16639D01*
X176943Y-16656D01*
X176935Y-16689D01*
X176919Y-16739D01*
X176902Y-16796D01*
X176877Y-16854D01*
X176819Y-17004D01*
X176745Y-17177D01*
X176645Y-17360D01*
X176538Y-17550D01*
X176405Y-17724D01*
X176397Y-17732D01*
X176389Y-17740D01*
X176364Y-17765D01*
X176339Y-17798D01*
X176256Y-17881D01*
X176140Y-17989D01*
X175999Y-18105D01*
X175834Y-18221D01*
X175652Y-18337D01*
X175445Y-18436D01*
X175436D01*
X175420Y-18444D01*
X175387Y-18461D01*
X175345Y-18469D01*
X175287Y-18494D01*
X175221Y-18510D01*
X175147Y-18535D01*
X175056Y-18552D01*
X174956Y-18577D01*
X174849Y-18602D01*
X174733Y-18618D01*
X174608Y-18635D01*
X174335Y-18668D01*
X174037Y-18676D01*
X173930D01*
X173855Y-18668D01*
X173772D01*
X173673Y-18659D01*
X173565Y-18651D01*
X173449Y-18635D01*
X173433D01*
X173400Y-18626D01*
X173350Y-18618D01*
X173292Y-18610D01*
X173159Y-18593D01*
X173101Y-18577D01*
X173052Y-18568D01*
Y-17401D01*
X173176D01*
X173184Y-17409D01*
X173209Y-17426D01*
X173250Y-17434D01*
X173292Y-17459D01*
X173350Y-17476D01*
X173408Y-17500D01*
X173482Y-17525D01*
X173491D01*
X173524Y-17533D01*
X173565Y-17542D01*
X173631Y-17550D01*
X173714Y-17567D01*
X173814Y-17575D01*
X173921Y-17583D01*
X174103D01*
X174161Y-17575D01*
X174236D01*
X174319Y-17567D01*
X174410Y-17550D01*
X174617Y-17509D01*
X174625D01*
X174666Y-17492D01*
X174716Y-17476D01*
X174782Y-17451D01*
X174849Y-17417D01*
X174931Y-17376D01*
X175014Y-17318D01*
X175089Y-17260D01*
X175097Y-17252D01*
X175122Y-17227D01*
X175163Y-17194D01*
X175213Y-17136D01*
X175263Y-17078D01*
X175320Y-17004D01*
X175379Y-16912D01*
X175428Y-16821D01*
X175436Y-16805D01*
X175453Y-16772D01*
X175478Y-16714D01*
X175503Y-16639D01*
X175536Y-16540D01*
X175569Y-16424D01*
X175594Y-16300D01*
X175619Y-16151D01*
X175602Y-16159D01*
X175561Y-16184D01*
X175503Y-16225D01*
X175420Y-16267D01*
X175329Y-16316D01*
X175229Y-16374D01*
X175122Y-16424D01*
X175014Y-16465D01*
X175006D01*
X174964Y-16482D01*
X174907Y-16498D01*
X174824Y-16515D01*
X174733Y-16532D01*
X174617Y-16548D01*
X174484Y-16556D01*
X174335Y-16565D01*
X174285D01*
X174219Y-16556D01*
X174145D01*
X174054Y-16548D01*
X173954Y-16532D01*
X173739Y-16490D01*
X173731Y-16482D01*
X173689Y-16474D01*
X173640Y-16457D01*
X173574Y-16424D01*
X173491Y-16391D01*
X173408Y-16349D01*
X173317Y-16291D01*
X173226Y-16233D01*
X173209Y-16225D01*
X173176Y-16192D01*
X173118Y-16134D01*
X173052Y-16068D01*
X172969Y-15977D01*
X172895Y-15869D01*
X172812Y-15745D01*
X172737Y-15612D01*
Y-15604D01*
X172729Y-15596D01*
X172721Y-15571D01*
X172712Y-15546D01*
X172679Y-15463D01*
X172654Y-15348D01*
X172621Y-15207D01*
X172588Y-15033D01*
X172572Y-14842D01*
X172563Y-14627D01*
Y-14619D01*
Y-14602D01*
Y-14578D01*
Y-14544D01*
X172572Y-14453D01*
X172580Y-14346D01*
X172605Y-14213D01*
X172629Y-14064D01*
X172671Y-13915D01*
X172721Y-13766D01*
Y-13758D01*
X172729Y-13749D01*
X172754Y-13700D01*
X172787Y-13625D01*
X172836Y-13526D01*
X172903Y-13418D01*
X172977Y-13302D01*
X173068Y-13186D01*
X173168Y-13070D01*
X173184Y-13054D01*
X173217Y-13021D01*
X173284Y-12971D01*
X173366Y-12905D01*
X173466Y-12830D01*
X173590Y-12756D01*
X173731Y-12681D01*
X173880Y-12615D01*
X173888D01*
X173896Y-12607D01*
X173921Y-12599D01*
X173954Y-12590D01*
X174037Y-12565D01*
X174153Y-12532D01*
X174294Y-12499D01*
X174459Y-12474D01*
X174633Y-12458D01*
X174824Y-12449D01*
X174915D01*
X174956Y-12458D01*
D02*
G37*
G36*
X181796Y-16093D02*
X182607D01*
Y-17169D01*
X181796D01*
Y-18577D01*
X180338D01*
Y-17169D01*
X177713D01*
Y-16060D01*
X180289Y-12574D01*
X181796D01*
Y-16093D01*
D02*
G37*
G36*
X193371Y-12458D02*
X193429D01*
X193586Y-12474D01*
X193752Y-12499D01*
X193934Y-12541D01*
X194116Y-12590D01*
X194282Y-12656D01*
X194290D01*
X194298Y-12665D01*
X194323Y-12681D01*
X194356Y-12698D01*
X194431Y-12739D01*
X194530Y-12806D01*
X194646Y-12897D01*
X194762Y-12996D01*
X194886Y-13120D01*
X194994Y-13261D01*
Y-13269D01*
X195002Y-13277D01*
X195019Y-13302D01*
X195035Y-13336D01*
X195085Y-13418D01*
X195143Y-13534D01*
X195209Y-13675D01*
X195275Y-13841D01*
X195342Y-14031D01*
X195391Y-14238D01*
Y-14246D01*
X195399Y-14263D01*
Y-14296D01*
X195408Y-14337D01*
X195424Y-14395D01*
X195433Y-14462D01*
X195441Y-14536D01*
X195457Y-14619D01*
X195466Y-14718D01*
X195474Y-14818D01*
X195499Y-15041D01*
X195507Y-15298D01*
X195516Y-15571D01*
Y-15579D01*
Y-15604D01*
Y-15646D01*
Y-15704D01*
Y-15770D01*
X195507Y-15844D01*
Y-15935D01*
X195499Y-16026D01*
X195482Y-16242D01*
X195457Y-16465D01*
X195424Y-16705D01*
X195383Y-16929D01*
Y-16937D01*
X195375Y-16954D01*
X195366Y-16987D01*
X195358Y-17028D01*
X195350Y-17078D01*
X195333Y-17136D01*
X195284Y-17268D01*
X195234Y-17417D01*
X195159Y-17583D01*
X195085Y-17740D01*
X194985Y-17898D01*
Y-17906D01*
X194977Y-17914D01*
X194936Y-17964D01*
X194878Y-18030D01*
X194795Y-18113D01*
X194696Y-18212D01*
X194571Y-18312D01*
X194431Y-18403D01*
X194273Y-18486D01*
X194265D01*
X194257Y-18494D01*
X194232Y-18502D01*
X194199Y-18519D01*
X194158Y-18535D01*
X194108Y-18552D01*
X193975Y-18585D01*
X193826Y-18618D01*
X193644Y-18651D01*
X193437Y-18676D01*
X193205Y-18684D01*
X193098D01*
X193048Y-18676D01*
X192982D01*
X192833Y-18659D01*
X192667Y-18635D01*
X192493Y-18602D01*
X192311Y-18552D01*
X192137Y-18486D01*
X192129D01*
X192121Y-18477D01*
X192096Y-18461D01*
X192063Y-18444D01*
X191988Y-18403D01*
X191881Y-18337D01*
X191773Y-18254D01*
X191649Y-18146D01*
X191533Y-18030D01*
X191425Y-17889D01*
Y-17881D01*
X191417Y-17873D01*
X191400Y-17848D01*
X191384Y-17823D01*
X191334Y-17732D01*
X191276Y-17625D01*
X191210Y-17484D01*
X191144Y-17318D01*
X191077Y-17128D01*
X191028Y-16921D01*
Y-16912D01*
X191019Y-16896D01*
Y-16863D01*
X191011Y-16821D01*
X191003Y-16763D01*
X190986Y-16697D01*
X190978Y-16623D01*
X190970Y-16532D01*
X190953Y-16441D01*
X190945Y-16333D01*
X190920Y-16109D01*
X190912Y-15853D01*
X190903Y-15571D01*
Y-15563D01*
Y-15538D01*
Y-15497D01*
Y-15439D01*
Y-15372D01*
X190912Y-15290D01*
Y-15199D01*
X190920Y-15099D01*
X190928Y-14892D01*
X190953Y-14660D01*
X190978Y-14437D01*
X191019Y-14213D01*
Y-14205D01*
X191028Y-14188D01*
X191036Y-14155D01*
X191044Y-14122D01*
X191061Y-14072D01*
X191077Y-14014D01*
X191119Y-13882D01*
X191177Y-13733D01*
X191243Y-13567D01*
X191334Y-13402D01*
X191433Y-13244D01*
Y-13236D01*
X191450Y-13228D01*
X191483Y-13178D01*
X191549Y-13112D01*
X191632Y-13021D01*
X191732Y-12922D01*
X191856Y-12822D01*
X191997Y-12731D01*
X192154Y-12648D01*
X192162D01*
X192170Y-12640D01*
X192195Y-12632D01*
X192228Y-12615D01*
X192278Y-12599D01*
X192328Y-12582D01*
X192452Y-12549D01*
X192601Y-12516D01*
X192783Y-12483D01*
X192982Y-12458D01*
X193205Y-12449D01*
X193313D01*
X193371Y-12458D01*
D02*
G37*
G36*
X188130D02*
X188188D01*
X188345Y-12474D01*
X188511Y-12499D01*
X188693Y-12541D01*
X188875Y-12590D01*
X189041Y-12656D01*
X189049D01*
X189057Y-12665D01*
X189082Y-12681D01*
X189115Y-12698D01*
X189190Y-12739D01*
X189289Y-12806D01*
X189405Y-12897D01*
X189521Y-12996D01*
X189645Y-13120D01*
X189753Y-13261D01*
Y-13269D01*
X189761Y-13277D01*
X189777Y-13302D01*
X189794Y-13336D01*
X189844Y-13418D01*
X189902Y-13534D01*
X189968Y-13675D01*
X190034Y-13841D01*
X190100Y-14031D01*
X190150Y-14238D01*
Y-14246D01*
X190158Y-14263D01*
Y-14296D01*
X190167Y-14337D01*
X190183Y-14395D01*
X190191Y-14462D01*
X190200Y-14536D01*
X190216Y-14619D01*
X190225Y-14718D01*
X190233Y-14818D01*
X190258Y-15041D01*
X190266Y-15298D01*
X190274Y-15571D01*
Y-15579D01*
Y-15604D01*
Y-15646D01*
Y-15704D01*
Y-15770D01*
X190266Y-15844D01*
Y-15935D01*
X190258Y-16026D01*
X190241Y-16242D01*
X190216Y-16465D01*
X190183Y-16705D01*
X190142Y-16929D01*
Y-16937D01*
X190133Y-16954D01*
X190125Y-16987D01*
X190117Y-17028D01*
X190109Y-17078D01*
X190092Y-17136D01*
X190042Y-17268D01*
X189993Y-17417D01*
X189918Y-17583D01*
X189844Y-17740D01*
X189744Y-17898D01*
Y-17906D01*
X189736Y-17914D01*
X189695Y-17964D01*
X189637Y-18030D01*
X189554Y-18113D01*
X189454Y-18212D01*
X189330Y-18312D01*
X189190Y-18403D01*
X189032Y-18486D01*
X189024D01*
X189016Y-18494D01*
X188991Y-18502D01*
X188958Y-18519D01*
X188916Y-18535D01*
X188867Y-18552D01*
X188734Y-18585D01*
X188585Y-18618D01*
X188403Y-18651D01*
X188196Y-18676D01*
X187964Y-18684D01*
X187856D01*
X187807Y-18676D01*
X187741D01*
X187592Y-18659D01*
X187426Y-18635D01*
X187252Y-18602D01*
X187070Y-18552D01*
X186896Y-18486D01*
X186888D01*
X186879Y-18477D01*
X186855Y-18461D01*
X186821Y-18444D01*
X186747Y-18403D01*
X186639Y-18337D01*
X186532Y-18254D01*
X186407Y-18146D01*
X186292Y-18030D01*
X186184Y-17889D01*
Y-17881D01*
X186176Y-17873D01*
X186159Y-17848D01*
X186143Y-17823D01*
X186093Y-17732D01*
X186035Y-17625D01*
X185969Y-17484D01*
X185902Y-17318D01*
X185836Y-17128D01*
X185786Y-16921D01*
Y-16912D01*
X185778Y-16896D01*
Y-16863D01*
X185770Y-16821D01*
X185762Y-16763D01*
X185745Y-16697D01*
X185737Y-16623D01*
X185729Y-16532D01*
X185712Y-16441D01*
X185704Y-16333D01*
X185679Y-16109D01*
X185670Y-15853D01*
X185662Y-15571D01*
Y-15563D01*
Y-15538D01*
Y-15497D01*
Y-15439D01*
Y-15372D01*
X185670Y-15290D01*
Y-15199D01*
X185679Y-15099D01*
X185687Y-14892D01*
X185712Y-14660D01*
X185737Y-14437D01*
X185778Y-14213D01*
Y-14205D01*
X185786Y-14188D01*
X185795Y-14155D01*
X185803Y-14122D01*
X185820Y-14072D01*
X185836Y-14014D01*
X185878Y-13882D01*
X185935Y-13733D01*
X186002Y-13567D01*
X186093Y-13402D01*
X186192Y-13244D01*
Y-13236D01*
X186209Y-13228D01*
X186242Y-13178D01*
X186308Y-13112D01*
X186391Y-13021D01*
X186490Y-12922D01*
X186615Y-12822D01*
X186755Y-12731D01*
X186913Y-12648D01*
X186921D01*
X186929Y-12640D01*
X186954Y-12632D01*
X186987Y-12615D01*
X187037Y-12599D01*
X187086Y-12582D01*
X187211Y-12549D01*
X187360Y-12516D01*
X187542Y-12483D01*
X187741Y-12458D01*
X187964Y-12449D01*
X188072D01*
X188130Y-12458D01*
D02*
G37*
G36*
X183609Y-20042D02*
X182756D01*
X183543Y-16979D01*
X185016D01*
X183609Y-20042D01*
D02*
G37*
%LPC*%
G36*
X396675Y146665D02*
X396477D01*
X396460D01*
X396427D01*
X396369D01*
X396294D01*
X396203Y146657D01*
X396096D01*
X395988Y146649D01*
X395864Y146640D01*
X395599Y146615D01*
X395342Y146582D01*
X395218Y146566D01*
X395110Y146541D01*
X395003Y146508D01*
X394912Y146475D01*
X394903D01*
X394895Y146466D01*
X394837Y146441D01*
X394771Y146392D01*
X394680Y146334D01*
X394597Y146243D01*
X394531Y146143D01*
X394473Y146011D01*
X394465Y145936D01*
X394456Y145862D01*
Y145845D01*
X394465Y145796D01*
X394481Y145713D01*
X394514Y145622D01*
X394564Y145522D01*
X394647Y145423D01*
X394696Y145373D01*
X394763Y145332D01*
X394829Y145282D01*
X394912Y145249D01*
X394920D01*
X394936Y145241D01*
X394961Y145233D01*
X395003Y145224D01*
X395052Y145208D01*
X395110Y145191D01*
X395185Y145175D01*
X395276Y145158D01*
X395375Y145141D01*
X395491Y145125D01*
X395616Y145108D01*
X395756Y145092D01*
X395914Y145083D01*
X396087Y145075D01*
X396278Y145067D01*
X396477D01*
X396485D01*
X396526D01*
X396584D01*
X396659D01*
X396742Y145075D01*
X396849D01*
X396965Y145083D01*
X397081Y145092D01*
X397338Y145108D01*
X397594Y145141D01*
X397719Y145166D01*
X397834Y145191D01*
X397942Y145216D01*
X398033Y145249D01*
X398042D01*
X398050Y145257D01*
X398108Y145282D01*
X398174Y145332D01*
X398257Y145398D01*
X398348Y145481D01*
X398414Y145589D01*
X398472Y145713D01*
X398480Y145787D01*
X398489Y145862D01*
Y145878D01*
X398480Y145936D01*
X398464Y146011D01*
X398431Y146102D01*
X398381Y146201D01*
X398298Y146301D01*
X398240Y146350D01*
X398182Y146400D01*
X398116Y146441D01*
X398033Y146475D01*
X398025D01*
X398008Y146483D01*
X397984Y146491D01*
X397942Y146508D01*
X397892Y146516D01*
X397834Y146532D01*
X397752Y146549D01*
X397669Y146574D01*
X397569Y146590D01*
X397454Y146607D01*
X397329Y146624D01*
X397180Y146632D01*
X397031Y146649D01*
X396858Y146657D01*
X396675Y146665D01*
D02*
G37*
G36*
Y141424D02*
X396477D01*
X396460D01*
X396427D01*
X396369D01*
X396294D01*
X396203Y141416D01*
X396096D01*
X395988Y141407D01*
X395864Y141399D01*
X395599Y141374D01*
X395342Y141341D01*
X395218Y141324D01*
X395110Y141300D01*
X395003Y141267D01*
X394912Y141233D01*
X394903D01*
X394895Y141225D01*
X394837Y141200D01*
X394771Y141150D01*
X394680Y141093D01*
X394597Y141001D01*
X394531Y140902D01*
X394473Y140770D01*
X394465Y140695D01*
X394456Y140621D01*
Y140604D01*
X394465Y140554D01*
X394481Y140472D01*
X394514Y140381D01*
X394564Y140281D01*
X394647Y140182D01*
X394696Y140132D01*
X394763Y140091D01*
X394829Y140041D01*
X394912Y140008D01*
X394920D01*
X394936Y140000D01*
X394961Y139991D01*
X395003Y139983D01*
X395052Y139966D01*
X395110Y139950D01*
X395185Y139933D01*
X395276Y139917D01*
X395375Y139900D01*
X395491Y139884D01*
X395616Y139867D01*
X395756Y139851D01*
X395914Y139842D01*
X396087Y139834D01*
X396278Y139826D01*
X396477D01*
X396485D01*
X396526D01*
X396584D01*
X396659D01*
X396742Y139834D01*
X396849D01*
X396965Y139842D01*
X397081Y139851D01*
X397338Y139867D01*
X397594Y139900D01*
X397719Y139925D01*
X397834Y139950D01*
X397942Y139975D01*
X398033Y140008D01*
X398042D01*
X398050Y140016D01*
X398108Y140041D01*
X398174Y140091D01*
X398257Y140157D01*
X398348Y140240D01*
X398414Y140347D01*
X398472Y140472D01*
X398480Y140546D01*
X398489Y140621D01*
Y140637D01*
X398480Y140695D01*
X398464Y140770D01*
X398431Y140861D01*
X398381Y140960D01*
X398298Y141060D01*
X398240Y141109D01*
X398182Y141159D01*
X398116Y141200D01*
X398033Y141233D01*
X398025D01*
X398008Y141242D01*
X397984Y141250D01*
X397942Y141267D01*
X397892Y141275D01*
X397834Y141291D01*
X397752Y141308D01*
X397669Y141333D01*
X397569Y141349D01*
X397454Y141366D01*
X397329Y141382D01*
X397180Y141391D01*
X397031Y141407D01*
X396858Y141416D01*
X396675Y141424D01*
D02*
G37*
G36*
Y133607D02*
X396477D01*
X396460D01*
X396427D01*
X396369D01*
X396294D01*
X396203Y133599D01*
X396096D01*
X395988Y133591D01*
X395864Y133583D01*
X395599Y133558D01*
X395342Y133525D01*
X395218Y133508D01*
X395110Y133483D01*
X395003Y133450D01*
X394912Y133417D01*
X394903D01*
X394895Y133409D01*
X394837Y133384D01*
X394771Y133334D01*
X394680Y133276D01*
X394597Y133185D01*
X394531Y133086D01*
X394473Y132953D01*
X394465Y132879D01*
X394456Y132804D01*
Y132788D01*
X394465Y132738D01*
X394481Y132655D01*
X394514Y132564D01*
X394564Y132465D01*
X394647Y132366D01*
X394696Y132316D01*
X394763Y132274D01*
X394829Y132225D01*
X394912Y132192D01*
X394920D01*
X394936Y132183D01*
X394961Y132175D01*
X395003Y132167D01*
X395052Y132150D01*
X395110Y132134D01*
X395185Y132117D01*
X395276Y132100D01*
X395375Y132084D01*
X395491Y132067D01*
X395616Y132051D01*
X395756Y132034D01*
X395914Y132026D01*
X396087Y132018D01*
X396278Y132009D01*
X396477D01*
X396485D01*
X396526D01*
X396584D01*
X396659D01*
X396742Y132018D01*
X396849D01*
X396965Y132026D01*
X397081Y132034D01*
X397338Y132051D01*
X397594Y132084D01*
X397719Y132109D01*
X397834Y132134D01*
X397942Y132159D01*
X398033Y132192D01*
X398042D01*
X398050Y132200D01*
X398108Y132225D01*
X398174Y132274D01*
X398257Y132341D01*
X398348Y132423D01*
X398414Y132531D01*
X398472Y132655D01*
X398480Y132730D01*
X398489Y132804D01*
Y132821D01*
X398480Y132879D01*
X398464Y132953D01*
X398431Y133044D01*
X398381Y133144D01*
X398298Y133243D01*
X398240Y133293D01*
X398182Y133343D01*
X398116Y133384D01*
X398033Y133417D01*
X398025D01*
X398008Y133425D01*
X397984Y133434D01*
X397942Y133450D01*
X397892Y133458D01*
X397834Y133475D01*
X397752Y133492D01*
X397669Y133516D01*
X397569Y133533D01*
X397454Y133549D01*
X397329Y133566D01*
X397180Y133574D01*
X397031Y133591D01*
X396858Y133599D01*
X396675Y133607D01*
D02*
G37*
G36*
X174815Y-13468D02*
X174766D01*
X174733Y-13476D01*
X174650Y-13493D01*
X174550Y-13526D01*
X174542D01*
X174526Y-13534D01*
X174509Y-13551D01*
X174476Y-13567D01*
X174393Y-13634D01*
X174310Y-13716D01*
X174302Y-13725D01*
X174294Y-13741D01*
X174277Y-13766D01*
X174252Y-13799D01*
X174228Y-13849D01*
X174195Y-13907D01*
X174170Y-13973D01*
X174136Y-14056D01*
Y-14064D01*
X174128Y-14097D01*
X174120Y-14139D01*
X174103Y-14205D01*
X174095Y-14271D01*
X174079Y-14362D01*
X174070Y-14453D01*
Y-14553D01*
Y-14569D01*
Y-14602D01*
Y-14652D01*
X174079Y-14718D01*
X174087Y-14801D01*
X174095Y-14876D01*
X174112Y-14958D01*
X174136Y-15033D01*
Y-15041D01*
X174153Y-15066D01*
X174170Y-15099D01*
X174195Y-15141D01*
X174252Y-15232D01*
X174344Y-15331D01*
X174352Y-15339D01*
X174368Y-15348D01*
X174393Y-15364D01*
X174426Y-15389D01*
X174517Y-15439D01*
X174633Y-15480D01*
X174642D01*
X174666Y-15488D01*
X174699Y-15497D01*
X174741D01*
X174799Y-15505D01*
X174857Y-15513D01*
X174998Y-15521D01*
X175056D01*
X175105Y-15513D01*
X175213Y-15505D01*
X175337Y-15480D01*
X175345D01*
X175370Y-15472D01*
X175403Y-15463D01*
X175445Y-15447D01*
X175536Y-15414D01*
X175627Y-15381D01*
Y-15372D01*
Y-15348D01*
Y-15314D01*
X175635Y-15256D01*
Y-15240D01*
X175644Y-15190D01*
Y-15116D01*
Y-15008D01*
Y-15000D01*
Y-14983D01*
Y-14958D01*
Y-14925D01*
Y-14834D01*
X175635Y-14727D01*
X175627Y-14594D01*
X175610Y-14462D01*
X175585Y-14329D01*
X175561Y-14205D01*
Y-14188D01*
X175544Y-14155D01*
X175528Y-14097D01*
X175503Y-14023D01*
X175428Y-13865D01*
X175379Y-13791D01*
X175329Y-13716D01*
X175320Y-13708D01*
X175312Y-13691D01*
X175263Y-13642D01*
X175180Y-13584D01*
X175089Y-13526D01*
X175080D01*
X175064Y-13518D01*
X175039Y-13509D01*
X175006Y-13493D01*
X174923Y-13476D01*
X174815Y-13468D01*
D02*
G37*
G36*
X180338Y-14056D02*
X178823Y-16093D01*
X180338D01*
Y-14056D01*
D02*
G37*
G36*
X193205Y-13551D02*
X193189D01*
X193139Y-13559D01*
X193056Y-13576D01*
X192965Y-13609D01*
X192866Y-13658D01*
X192766Y-13741D01*
X192717Y-13791D01*
X192675Y-13857D01*
X192626Y-13923D01*
X192593Y-14006D01*
Y-14014D01*
X192584Y-14031D01*
X192576Y-14056D01*
X192568Y-14097D01*
X192551Y-14147D01*
X192535Y-14205D01*
X192518Y-14279D01*
X192501Y-14370D01*
X192485Y-14470D01*
X192468Y-14586D01*
X192452Y-14710D01*
X192435Y-14851D01*
X192427Y-15008D01*
X192419Y-15182D01*
X192410Y-15372D01*
Y-15571D01*
Y-15579D01*
Y-15621D01*
Y-15679D01*
Y-15753D01*
X192419Y-15836D01*
Y-15944D01*
X192427Y-16060D01*
X192435Y-16175D01*
X192452Y-16432D01*
X192485Y-16689D01*
X192510Y-16813D01*
X192535Y-16929D01*
X192560Y-17037D01*
X192593Y-17128D01*
Y-17136D01*
X192601Y-17144D01*
X192626Y-17202D01*
X192675Y-17268D01*
X192742Y-17351D01*
X192824Y-17442D01*
X192932Y-17509D01*
X193056Y-17567D01*
X193131Y-17575D01*
X193205Y-17583D01*
X193222D01*
X193280Y-17575D01*
X193354Y-17558D01*
X193446Y-17525D01*
X193545Y-17476D01*
X193644Y-17393D01*
X193694Y-17335D01*
X193744Y-17277D01*
X193785Y-17210D01*
X193818Y-17128D01*
Y-17119D01*
X193826Y-17103D01*
X193835Y-17078D01*
X193851Y-17037D01*
X193859Y-16987D01*
X193876Y-16929D01*
X193893Y-16846D01*
X193917Y-16763D01*
X193934Y-16664D01*
X193950Y-16548D01*
X193967Y-16424D01*
X193975Y-16275D01*
X193992Y-16126D01*
X194000Y-15952D01*
X194009Y-15770D01*
Y-15571D01*
Y-15554D01*
Y-15521D01*
Y-15463D01*
Y-15389D01*
X194000Y-15298D01*
Y-15190D01*
X193992Y-15083D01*
X193984Y-14958D01*
X193959Y-14693D01*
X193926Y-14437D01*
X193909Y-14312D01*
X193884Y-14205D01*
X193851Y-14097D01*
X193818Y-14006D01*
Y-13998D01*
X193810Y-13990D01*
X193785Y-13932D01*
X193735Y-13865D01*
X193677Y-13774D01*
X193586Y-13691D01*
X193487Y-13625D01*
X193354Y-13567D01*
X193280Y-13559D01*
X193205Y-13551D01*
D02*
G37*
G36*
X187964D02*
X187947D01*
X187898Y-13559D01*
X187815Y-13576D01*
X187724Y-13609D01*
X187625Y-13658D01*
X187525Y-13741D01*
X187476Y-13791D01*
X187434Y-13857D01*
X187384Y-13923D01*
X187351Y-14006D01*
Y-14014D01*
X187343Y-14031D01*
X187335Y-14056D01*
X187327Y-14097D01*
X187310Y-14147D01*
X187293Y-14205D01*
X187277Y-14279D01*
X187260Y-14370D01*
X187244Y-14470D01*
X187227Y-14586D01*
X187211Y-14710D01*
X187194Y-14851D01*
X187186Y-15008D01*
X187178Y-15182D01*
X187169Y-15372D01*
Y-15571D01*
Y-15579D01*
Y-15621D01*
Y-15679D01*
Y-15753D01*
X187178Y-15836D01*
Y-15944D01*
X187186Y-16060D01*
X187194Y-16175D01*
X187211Y-16432D01*
X187244Y-16689D01*
X187269Y-16813D01*
X187293Y-16929D01*
X187318Y-17037D01*
X187351Y-17128D01*
Y-17136D01*
X187360Y-17144D01*
X187384Y-17202D01*
X187434Y-17268D01*
X187500Y-17351D01*
X187583Y-17442D01*
X187691Y-17509D01*
X187815Y-17567D01*
X187890Y-17575D01*
X187964Y-17583D01*
X187981D01*
X188039Y-17575D01*
X188113Y-17558D01*
X188204Y-17525D01*
X188304Y-17476D01*
X188403Y-17393D01*
X188453Y-17335D01*
X188502Y-17277D01*
X188544Y-17210D01*
X188577Y-17128D01*
Y-17119D01*
X188585Y-17103D01*
X188593Y-17078D01*
X188610Y-17037D01*
X188618Y-16987D01*
X188635Y-16929D01*
X188651Y-16846D01*
X188676Y-16763D01*
X188693Y-16664D01*
X188709Y-16548D01*
X188726Y-16424D01*
X188734Y-16275D01*
X188751Y-16126D01*
X188759Y-15952D01*
X188767Y-15770D01*
Y-15571D01*
Y-15554D01*
Y-15521D01*
Y-15463D01*
Y-15389D01*
X188759Y-15298D01*
Y-15190D01*
X188751Y-15083D01*
X188742Y-14958D01*
X188718Y-14693D01*
X188684Y-14437D01*
X188668Y-14312D01*
X188643Y-14205D01*
X188610Y-14097D01*
X188577Y-14006D01*
Y-13998D01*
X188568Y-13990D01*
X188544Y-13932D01*
X188494Y-13865D01*
X188436Y-13774D01*
X188345Y-13691D01*
X188246Y-13625D01*
X188113Y-13567D01*
X188039Y-13559D01*
X187964Y-13551D01*
D02*
G37*
%LPD*%
D58*
X395669Y275590D02*
X397669Y269590D01*
X393669D02*
X395669Y275590D01*
X393669Y6000D02*
X395669Y0D01*
X397669Y6000D01*
X395669Y149172D02*
Y275590D01*
Y0D02*
Y124418D01*
X371104Y275590D02*
X396669D01*
X371104Y0D02*
X396669D01*
X0Y-14764D02*
X6000Y-12764D01*
X0Y-14764D02*
X6000Y-16764D01*
X364079D02*
X370079Y-14764D01*
X364079Y-12764D02*
X370079Y-14764D01*
X0D02*
X171563D01*
X196516D02*
X370079D01*
X0Y-15764D02*
Y-1025D01*
X370079Y-15764D02*
Y-1025D01*
M02*
