G04*
G04 #@! TF.GenerationSoftware,Altium Limited,Altium Designer,19.1.8 (144)*
G04*
G04 Layer_Color=65535*
%FSLAX25Y25*%
%MOIN*%
G70*
G01*
G75*
%ADD10C,0.01000*%
%ADD11C,0.00787*%
%ADD12C,0.01575*%
%ADD13C,0.01000*%
%ADD14C,0.00591*%
G36*
X84547Y19094D02*
X83366D01*
X83629Y19882D01*
X84547D01*
Y19094D01*
D02*
G37*
G36*
X111339Y4724D02*
X110460D01*
Y6837D01*
X111339D01*
Y4724D01*
D02*
G37*
G36*
X15442Y32393D02*
X14812D01*
Y32913D01*
X12457D01*
Y32393D01*
X11827D01*
Y34343D01*
X12457D01*
Y33823D01*
X14812D01*
Y34343D01*
X15442D01*
Y32393D01*
D02*
G37*
G36*
Y30688D02*
X13367Y29533D01*
X15442D01*
Y28703D01*
X11827D01*
Y29578D01*
X14347Y30968D01*
X11827D01*
Y31798D01*
X15442D01*
Y30688D01*
D02*
G37*
G36*
X13757Y26468D02*
X13087D01*
Y28078D01*
X13757D01*
Y26468D01*
D02*
G37*
G36*
X111318Y33376D02*
X112558D01*
Y32736D01*
X111318D01*
Y31496D01*
X110693D01*
Y32736D01*
X109453D01*
Y33376D01*
X110693D01*
Y34616D01*
X111318D01*
Y33376D01*
D02*
G37*
G36*
X15442Y10255D02*
X14812D01*
Y10775D01*
X12457D01*
Y10255D01*
X11827D01*
Y12205D01*
X12457D01*
Y11685D01*
X14812D01*
Y12205D01*
X15442D01*
Y10255D01*
D02*
G37*
G36*
Y8550D02*
X13367Y7395D01*
X15442D01*
Y6565D01*
X11827D01*
Y7440D01*
X14347Y8830D01*
X11827D01*
Y9660D01*
X15442D01*
Y8550D01*
D02*
G37*
G36*
X13732Y4490D02*
X14972D01*
Y3850D01*
X13732D01*
Y2610D01*
X13107D01*
Y3850D01*
X11867D01*
Y4490D01*
X13107D01*
Y5730D01*
X13732D01*
Y4490D01*
D02*
G37*
D10*
X53937Y15761D02*
X53150D01*
X53937D01*
D11*
X84547Y20079D02*
X83851Y19791D01*
X83563Y19094D01*
X89859Y18759D02*
X89072D01*
X89859D01*
X63862Y18044D02*
X64862D01*
Y28044D01*
X63862Y28241D02*
X64862D01*
X53248Y18044D02*
X54248D01*
X53248Y18241D02*
Y28241D01*
X54248D01*
X84547Y19094D02*
Y25394D01*
X83169D02*
X84547D01*
X83169Y19094D02*
Y25394D01*
Y19094D02*
X84547D01*
X100394Y27992D02*
X103543D01*
X100394Y11850D02*
X103543D01*
X27559Y25894D02*
X33858D01*
X27559Y14673D02*
Y25894D01*
Y14673D02*
X32874D01*
X33858Y15657D01*
Y25894D01*
X20276Y16048D02*
Y24710D01*
X8465Y16048D02*
X20276D01*
X8465D02*
Y24710D01*
X20276D01*
D12*
X35433Y13295D02*
X34646D01*
X35433D01*
D13*
X21990Y16934D02*
D03*
D14*
X35512Y32689D02*
Y33445D01*
X25512D02*
X35512D01*
X25512Y32689D02*
Y33445D01*
Y27933D02*
Y28689D01*
Y27933D02*
X35512D01*
Y28689D01*
X30512Y27933D02*
Y33445D01*
X76772Y7874D02*
Y9449D01*
X90158D01*
Y7874D02*
Y9449D01*
Y2362D02*
Y3937D01*
X76772Y2362D02*
X90158D01*
X76772D02*
Y3937D01*
X83465Y2362D02*
Y9449D01*
X103839Y30315D02*
Y35827D01*
X98327Y34646D02*
Y35827D01*
X109350D01*
Y34646D02*
Y35827D01*
Y30315D02*
Y31496D01*
X98327Y30315D02*
X109350D01*
X98327D02*
Y31496D01*
X52331Y11024D02*
Y12598D01*
X65716D01*
Y11024D02*
Y12598D01*
Y5512D02*
Y7087D01*
X52331Y5512D02*
X65716D01*
X52331D02*
Y7087D01*
X59024Y5512D02*
Y12598D01*
X94882Y7874D02*
Y9449D01*
X108268D01*
Y7874D02*
Y9449D01*
Y2362D02*
Y3937D01*
X94882Y2362D02*
X108268D01*
X94882D02*
Y3937D01*
X101575Y2362D02*
Y9449D01*
X120079Y26614D02*
X121653D01*
Y13228D02*
Y26614D01*
X120079Y13228D02*
X121653D01*
X114567D02*
X116142D01*
X114567D02*
Y26614D01*
X116142D01*
X114567Y19921D02*
X121653D01*
X23491Y7752D02*
Y9327D01*
X36876D01*
Y7752D02*
Y9327D01*
Y2240D02*
Y3815D01*
X23491Y2240D02*
X36876D01*
X23491D02*
Y3815D01*
X30184Y2240D02*
Y9327D01*
X46457Y26260D02*
X47213D01*
X46457Y16260D02*
Y26260D01*
Y16260D02*
X47213D01*
X51213D02*
X51968D01*
Y26260D01*
X51213D02*
X51968D01*
X46457Y21260D02*
X51968D01*
X16142Y14751D02*
X16898D01*
X16142Y4751D02*
Y14751D01*
Y4751D02*
X16898D01*
X20898D02*
X21654D01*
Y14751D01*
X20898D02*
X21654D01*
X16142Y9751D02*
X21654D01*
X75906Y30315D02*
Y31071D01*
Y30315D02*
X85905D01*
Y31071D01*
Y35071D02*
Y35827D01*
X75906D02*
X85905D01*
X75906Y35071D02*
Y35827D01*
X80905Y30315D02*
Y35827D01*
X97024Y35071D02*
Y35827D01*
X87024D02*
X97024D01*
X87024Y35071D02*
Y35827D01*
Y30315D02*
Y31071D01*
Y30315D02*
X97024D01*
Y31071D01*
X92024Y30315D02*
Y35827D01*
X78504Y11811D02*
Y12567D01*
Y11811D02*
X88504D01*
Y12567D01*
Y16567D02*
Y17323D01*
X78504D02*
X88504D01*
X78504Y16567D02*
Y17323D01*
X83504Y11811D02*
Y17323D01*
M02*
