G04*
G04 #@! TF.GenerationSoftware,Altium Limited,Altium Designer,19.1.8 (144)*
G04*
G04 Layer_Color=255*
%FSLAX25Y25*%
%MOIN*%
G70*
G01*
G75*
%ADD30R,0.09843X0.07874*%
%ADD31R,0.01181X0.03937*%
%ADD32R,0.03150X0.03937*%
%ADD33R,0.02638X0.01181*%
%ADD34R,0.04724X0.14567*%
%ADD35R,0.03937X0.02756*%
%ADD36R,0.03347X0.03740*%
%ADD37R,0.03150X0.02559*%
%ADD38R,0.05118X0.05512*%
%ADD39R,0.03543X0.03937*%
%ADD40R,0.05512X0.05118*%
%ADD41R,0.03740X0.03347*%
%ADD47R,0.04724X0.08661*%
D30*
X118110Y33071D02*
D03*
Y6693D02*
D03*
X5906Y7874D02*
D03*
Y31496D02*
D03*
D31*
X62173Y15576D02*
D03*
X58000D02*
D03*
X55913D02*
D03*
D32*
X61189Y29946D02*
D03*
X56898D02*
D03*
D33*
X80945Y20276D02*
D03*
Y22244D02*
D03*
Y24213D02*
D03*
X86772D02*
D03*
Y22244D02*
D03*
Y20276D02*
D03*
D34*
X96457Y19921D02*
D03*
X107480D02*
D03*
D35*
X35433Y20382D02*
D03*
X25984Y24122D02*
D03*
Y20382D02*
D03*
Y16642D02*
D03*
X35433D02*
D03*
Y24122D02*
D03*
D36*
X27953Y30689D02*
D03*
X33071D02*
D03*
X83465Y33071D02*
D03*
X78347D02*
D03*
X89465D02*
D03*
X94583D02*
D03*
X86063Y14567D02*
D03*
X80945D02*
D03*
D37*
X11417Y18706D02*
D03*
X17323D02*
D03*
X11417Y22052D02*
D03*
X17323D02*
D03*
D38*
X80315Y5906D02*
D03*
X86614D02*
D03*
X55874Y9055D02*
D03*
X62173D02*
D03*
X98425Y5906D02*
D03*
X104724D02*
D03*
X27034Y5784D02*
D03*
X33333D02*
D03*
D39*
X106496Y33071D02*
D03*
X101181D02*
D03*
D40*
X118110Y23071D02*
D03*
Y16772D02*
D03*
D41*
X49213Y18701D02*
D03*
Y23819D02*
D03*
X18898Y7192D02*
D03*
Y12310D02*
D03*
D47*
X3543Y20382D02*
D03*
M02*
