G04*
G04 #@! TF.GenerationSoftware,Altium Limited,Altium Designer,19.1.8 (144)*
G04*
G04 Layer_Color=32768*
%FSLAX25Y25*%
%MOIN*%
G70*
G01*
G75*
%ADD50C,0.00394*%
%ADD51C,0.00197*%
D50*
X53150Y28359D02*
X64961D01*
Y18123D02*
Y28359D01*
X53150Y18123D02*
X64961D01*
X53150D02*
Y28359D01*
X83858Y20276D02*
Y24213D01*
X81890Y22244D02*
X85827D01*
X101969Y18740D02*
Y21102D01*
X100787Y19921D02*
X103150D01*
X30512Y28819D02*
Y32559D01*
X28642Y30689D02*
X32382D01*
X83465Y3937D02*
Y7874D01*
X81496Y5906D02*
X85433D01*
X103839Y31201D02*
Y34941D01*
X101969Y33071D02*
X105709D01*
X59024Y7087D02*
Y11024D01*
X57055Y9055D02*
X60992D01*
X101575Y3937D02*
Y7874D01*
X99606Y5906D02*
X103543D01*
X116142Y19921D02*
X120079D01*
X118110Y17953D02*
Y21890D01*
X30184Y3815D02*
Y7752D01*
X28215Y5784D02*
X32152D01*
X47343Y21260D02*
X51083D01*
X49213Y19390D02*
Y23130D01*
X17028Y9751D02*
X20768D01*
X18898Y7881D02*
Y11621D01*
X80905Y31201D02*
Y34941D01*
X79035Y33071D02*
X82776D01*
X92024Y31201D02*
Y34941D01*
X90154Y33071D02*
X93894D01*
X83504Y12697D02*
Y16437D01*
X81634Y14567D02*
X85374D01*
D51*
X78740Y26181D02*
X88976D01*
X78740Y18307D02*
X88976D01*
X78740D02*
Y26181D01*
X88976Y18307D02*
Y26181D01*
X93110Y11063D02*
Y28780D01*
X101772D01*
X110827D01*
Y15000D02*
Y28780D01*
Y11063D02*
Y15000D01*
X93110Y11063D02*
X110827D01*
X25197Y33642D02*
X35827D01*
X25197Y27736D02*
X35827D01*
X25197D02*
Y33642D01*
X35827Y27736D02*
Y33642D01*
X76772Y9646D02*
X90158D01*
X76772Y2165D02*
X90158D01*
X76772D02*
Y9646D01*
X90158Y2165D02*
Y9646D01*
X98524Y30118D02*
X109153D01*
X98524Y36024D02*
X109153D01*
Y30118D02*
Y36024D01*
X98524Y30118D02*
Y36024D01*
X52331Y12795D02*
X65716D01*
X52331Y5315D02*
X65716D01*
X52331D02*
Y12795D01*
X65716Y5315D02*
Y12795D01*
X94882Y9646D02*
X108268D01*
X94882Y2165D02*
X108268D01*
X94882D02*
Y9646D01*
X108268Y2165D02*
Y9646D01*
X121850Y13228D02*
Y26614D01*
X114370Y13228D02*
Y26614D01*
X121850D01*
X114370Y13228D02*
X121850D01*
X23491Y9524D02*
X36876D01*
X23491Y2044D02*
X36876D01*
X23491D02*
Y9524D01*
X36876Y2044D02*
Y9524D01*
X46260Y15945D02*
Y26575D01*
X52165Y15945D02*
Y26575D01*
X46260Y15945D02*
X52165D01*
X46260Y26575D02*
X52165D01*
X15945Y4436D02*
Y15066D01*
X21850Y4436D02*
Y15066D01*
X15945Y4436D02*
X21850D01*
X15945Y15066D02*
X21850D01*
X75590Y30118D02*
X86221D01*
X75590Y36024D02*
X86221D01*
Y30118D02*
Y36024D01*
X75590Y30118D02*
Y36024D01*
X86709Y36024D02*
X97339D01*
X86709Y30118D02*
X97339D01*
X86709D02*
Y36024D01*
X97339Y30118D02*
Y36024D01*
X78189Y11614D02*
X88819D01*
X78189Y17520D02*
X88819D01*
Y11614D02*
Y17520D01*
X78189Y11614D02*
Y17520D01*
M02*
