G04*
G04 #@! TF.GenerationSoftware,Altium Limited,Altium Designer,19.1.8 (144)*
G04*
G04 Layer_Physical_Order=2*
G04 Layer_Color=16711680*
%FSLAX25Y25*%
%MOIN*%
G70*
G01*
G75*
%ADD10C,0.01000*%
%ADD30R,0.09843X0.07874*%
%ADD43C,0.01968*%
%ADD44C,0.01500*%
%ADD47R,0.04724X0.08661*%
%ADD48C,0.03937*%
%ADD49C,0.02756*%
G36*
X125181Y803D02*
X75384D01*
X75202Y1303D01*
X75548Y1753D01*
X75827Y2427D01*
X75922Y3150D01*
X75827Y3872D01*
X75548Y4546D01*
X75104Y5124D01*
X74526Y5568D01*
X73853Y5847D01*
X73130Y5942D01*
X72407Y5847D01*
X71734Y5568D01*
X71155Y5124D01*
X70712Y4546D01*
X70561Y4181D01*
X48501D01*
X48383Y4681D01*
X48431Y4718D01*
X48875Y5297D01*
X49154Y5970D01*
X49249Y6693D01*
X49154Y7416D01*
X48875Y8089D01*
X48431Y8667D01*
X47853Y9111D01*
X47179Y9390D01*
X46457Y9485D01*
X45734Y9390D01*
X45061Y9111D01*
X44482Y8667D01*
X44038Y8089D01*
X43759Y7416D01*
X43664Y6693D01*
X43759Y5970D01*
X44038Y5297D01*
X44482Y4718D01*
X44530Y4681D01*
X44412Y4181D01*
X13155D01*
X11627Y5710D01*
Y12611D01*
X803D01*
Y15251D01*
X6706D01*
Y18563D01*
X36912D01*
X36912Y18563D01*
X37608Y18701D01*
X38199Y19095D01*
X54593Y35489D01*
X70913D01*
X71061Y35217D01*
X71112Y34989D01*
X70712Y34467D01*
X70433Y33794D01*
X70337Y33071D01*
X70433Y32348D01*
X70712Y31675D01*
X71155Y31096D01*
X71734Y30653D01*
X72407Y30374D01*
X73130Y30279D01*
X73853Y30374D01*
X74526Y30653D01*
X75104Y31096D01*
X75359Y31113D01*
X79806Y26666D01*
X80396Y26272D01*
X81093Y26133D01*
X81093Y26134D01*
X81371D01*
X81490Y25978D01*
X82068Y25534D01*
X82742Y25256D01*
X83465Y25160D01*
X84187Y25256D01*
X84861Y25534D01*
X85439Y25978D01*
X85883Y26557D01*
X86162Y27230D01*
X86257Y27953D01*
X86162Y28675D01*
X85883Y29349D01*
X85439Y29927D01*
X84861Y30371D01*
X84187Y30650D01*
X83465Y30745D01*
X82742Y30650D01*
X82068Y30371D01*
X81604Y30014D01*
X77261Y34357D01*
X76671Y34752D01*
X75974Y34890D01*
X75974Y34890D01*
X75638D01*
X75504Y34989D01*
X75501Y35060D01*
X75799Y35489D01*
X101979D01*
X109915Y27553D01*
X109997Y27143D01*
X110478Y26423D01*
X111198Y25941D01*
X112048Y25772D01*
X112898Y25941D01*
X113618Y26423D01*
X114100Y27143D01*
X114269Y27993D01*
X114100Y28843D01*
X113618Y29563D01*
X112898Y30045D01*
X112488Y30126D01*
X104509Y38105D01*
X104700Y38567D01*
X125181D01*
Y803D01*
D02*
G37*
G36*
X52063Y38105D02*
X36159Y22201D01*
X6706D01*
Y25513D01*
X803D01*
Y26559D01*
X4905D01*
Y31496D01*
Y36433D01*
X803D01*
Y38567D01*
X51872D01*
X52063Y38105D01*
D02*
G37*
%LPC*%
G36*
X90945Y30342D02*
X90222Y30246D01*
X89549Y29967D01*
X88970Y29524D01*
X88527Y28945D01*
X88248Y28272D01*
X88152Y27549D01*
X88248Y26827D01*
X88527Y26153D01*
X88970Y25575D01*
X89364Y25272D01*
Y16846D01*
X88970Y16544D01*
X88668Y16150D01*
X82566D01*
X72021Y26695D01*
X71989Y26943D01*
X71710Y27617D01*
X71266Y28195D01*
X70688Y28639D01*
X70014Y28918D01*
X69291Y29013D01*
X68569Y28918D01*
X67895Y28639D01*
X67317Y28195D01*
X66873Y27617D01*
X66594Y26943D01*
X66499Y26221D01*
X66594Y25498D01*
X66873Y24824D01*
X67317Y24246D01*
X67895Y23802D01*
X68569Y23523D01*
X69291Y23428D01*
X70014Y23523D01*
X70515Y23731D01*
X80794Y13452D01*
X81307Y13109D01*
X81912Y12989D01*
X88668D01*
X88970Y12595D01*
X89549Y12151D01*
X90222Y11872D01*
X90945Y11777D01*
X91668Y11872D01*
X92341Y12151D01*
X92919Y12595D01*
X93363Y13173D01*
X93642Y13847D01*
X93737Y14569D01*
X93642Y15292D01*
X93363Y15966D01*
X92919Y16544D01*
X92525Y16846D01*
Y25272D01*
X92919Y25575D01*
X93363Y26153D01*
X93642Y26827D01*
X93737Y27549D01*
X93642Y28272D01*
X93363Y28945D01*
X92919Y29524D01*
X92341Y29967D01*
X91668Y30246D01*
X90945Y30342D01*
D02*
G37*
G36*
X40445Y19434D02*
X39722Y19339D01*
X39049Y19060D01*
X38470Y18616D01*
X38027Y18038D01*
X37997Y17967D01*
X28453D01*
X27946Y17866D01*
X27516Y17579D01*
X24873Y14936D01*
X24409Y14997D01*
X23687Y14902D01*
X23013Y14623D01*
X22435Y14179D01*
X21991Y13601D01*
X21712Y12927D01*
X21617Y12205D01*
X21712Y11482D01*
X21991Y10808D01*
X22435Y10230D01*
X23013Y9786D01*
X23687Y9507D01*
X24409Y9412D01*
X25132Y9507D01*
X25806Y9786D01*
X26384Y10230D01*
X26828Y10808D01*
X27107Y11482D01*
X27202Y12205D01*
X27107Y12927D01*
X26962Y13276D01*
X29002Y15316D01*
X37997D01*
X38027Y15246D01*
X38470Y14667D01*
X39049Y14223D01*
X39722Y13945D01*
X40445Y13849D01*
X41168Y13945D01*
X41841Y14223D01*
X42419Y14667D01*
X42863Y15246D01*
X43142Y15919D01*
X43237Y16642D01*
X43142Y17364D01*
X42863Y18038D01*
X42419Y18616D01*
X41841Y19060D01*
X41168Y19339D01*
X40445Y19434D01*
D02*
G37*
G36*
X11827Y36433D02*
X6905D01*
Y32496D01*
X11827D01*
Y36433D01*
D02*
G37*
G36*
Y30496D02*
X6905D01*
Y26559D01*
X11827D01*
Y30496D01*
D02*
G37*
%LPD*%
D10*
X24409Y12205D02*
Y12598D01*
X28453Y16642D01*
X40445D01*
D30*
X5906Y7874D02*
D03*
Y31496D02*
D03*
D43*
X65539Y31378D02*
X67716Y33556D01*
X65539Y11233D02*
Y31378D01*
Y11233D02*
X67716Y9055D01*
X73130Y33071D02*
X75974D01*
X81093Y27953D01*
X36912Y20382D02*
X53839Y37309D01*
X102733D02*
X112048Y27993D01*
X53839Y37309D02*
X102733D01*
X46457Y2362D02*
X72342D01*
X12402D02*
X46457D01*
Y6693D01*
X72342Y2362D02*
X73130Y3150D01*
X6890Y7874D02*
X12402Y2362D01*
X21260Y36614D02*
X44882D01*
X16142Y31496D02*
X21260Y36614D01*
X5906Y31496D02*
X16142D01*
X5906Y7874D02*
X6890D01*
X3543Y20382D02*
X36912D01*
X81093Y27953D02*
X83465D01*
D44*
X70261Y26221D02*
X81912Y14569D01*
X69291Y26221D02*
X70261D01*
X81912Y14569D02*
X90945D01*
Y27549D01*
D47*
X3543Y20382D02*
D03*
D48*
X67716Y33556D02*
D03*
X69291Y26221D02*
D03*
X73130Y33071D02*
D03*
X67716Y9055D02*
D03*
X46457Y6693D02*
D03*
X73130Y3150D02*
D03*
X44882Y36614D02*
D03*
X24409Y12205D02*
D03*
X40445Y16642D02*
D03*
X83465Y27953D02*
D03*
X90945Y27549D02*
D03*
Y14569D02*
D03*
D49*
X112048Y27993D02*
D03*
M02*
