G04*
G04 #@! TF.GenerationSoftware,Altium Limited,Altium Designer,19.1.8 (144)*
G04*
G04 Layer_Color=2752767*
%FSLAX25Y25*%
%MOIN*%
G70*
G01*
G75*
%ADD52C,0.00200*%
%ADD53C,0.00267*%
D52*
X2743Y19582D02*
Y21182D01*
X4343D01*
Y19582D01*
X2743D01*
X66917Y32756D02*
Y34356D01*
X68516D01*
Y32756D01*
X66917D01*
X68491Y25420D02*
Y27020D01*
X70091D01*
Y25420D01*
X68491D01*
X72330Y32271D02*
Y33871D01*
X73930D01*
Y32271D01*
X72330D01*
X66917Y8255D02*
Y9855D01*
X68516D01*
Y8255D01*
X66917D01*
X45657Y5893D02*
Y7493D01*
X47257D01*
Y5893D01*
X45657D01*
X72330Y2350D02*
Y3950D01*
X73930D01*
Y2350D01*
X72330D01*
X44082Y35814D02*
Y37414D01*
X45682D01*
Y35814D01*
X44082D01*
X23609Y11405D02*
Y13005D01*
X25209D01*
Y11405D01*
X23609D01*
X39645Y15842D02*
Y17442D01*
X41245D01*
Y15842D01*
X39645D01*
X82665Y27153D02*
Y28753D01*
X84265D01*
Y27153D01*
X82665D01*
X90145Y26749D02*
Y28349D01*
X91745D01*
Y26749D01*
X90145D01*
Y13769D02*
Y15369D01*
X91745D01*
Y13769D01*
X90145D01*
D53*
X112848Y27993D02*
X112295Y28754D01*
X111401Y28463D01*
Y27523D01*
X112295Y27232D01*
X112848Y27993D01*
M02*
