G04*
G04 #@! TF.GenerationSoftware,Altium Limited,Altium Designer,19.1.8 (144)*
G04*
G04 Layer_Color=16711935*
%FSLAX25Y25*%
%MOIN*%
G70*
G01*
G75*
%ADD50C,0.00394*%
D50*
X81496Y25394D02*
X86221D01*
X81496Y19094D02*
X86221D01*
X81496D02*
Y25394D01*
X86221Y19094D02*
Y25394D01*
X93897Y11851D02*
Y27993D01*
X110038D01*
Y11851D02*
Y27993D01*
X93897Y11851D02*
X110038D01*
X27067Y32559D02*
X33957D01*
X27067Y28819D02*
X33957D01*
X27067D02*
Y32559D01*
X33957Y28819D02*
Y32559D01*
X79134Y8661D02*
X87795D01*
X79134Y3150D02*
X87795D01*
X79134D02*
Y8661D01*
X87795Y3150D02*
Y8661D01*
X100394Y31201D02*
X107283D01*
X100394Y34941D02*
X107283D01*
Y31201D02*
Y34941D01*
X100394Y31201D02*
Y34941D01*
X54693Y11811D02*
X63354D01*
X54693Y6299D02*
X63354D01*
X54693D02*
Y11811D01*
X63354Y6299D02*
Y11811D01*
X97244Y8661D02*
X105905D01*
X97244Y3150D02*
X105905D01*
X97244D02*
Y8661D01*
X105905Y3150D02*
Y8661D01*
X120866Y15590D02*
Y24252D01*
X115354Y15590D02*
Y24252D01*
X120866D01*
X115354Y15590D02*
X120866D01*
X25853Y8540D02*
X34514D01*
X25853Y3028D02*
X34514D01*
X25853D02*
Y8540D01*
X34514Y3028D02*
Y8540D01*
X47343Y17815D02*
Y24705D01*
X51083Y17815D02*
Y24705D01*
X47343Y17815D02*
X51083D01*
X47343Y24705D02*
X51083D01*
X17028Y6306D02*
Y13196D01*
X20768Y6306D02*
Y13196D01*
X17028Y6306D02*
X20768D01*
X17028Y13196D02*
X20768D01*
X77461Y31201D02*
X84350D01*
X77461Y34941D02*
X84350D01*
Y31201D02*
Y34941D01*
X77461Y31201D02*
Y34941D01*
X88579D02*
X95469D01*
X88579Y31201D02*
X95469D01*
X88579D02*
Y34941D01*
X95469Y31201D02*
Y34941D01*
X80059Y12697D02*
X86949D01*
X80059Y16437D02*
X86949D01*
Y12697D02*
Y16437D01*
X80059Y12697D02*
Y16437D01*
M02*
