G04*
G04 #@! TF.GenerationSoftware,Altium Limited,Altium Designer,19.1.8 (144)*
G04*
G04 Layer_Color=65535*
%FSLAX25Y25*%
%MOIN*%
G70*
G01*
G75*
G36*
X13757Y36302D02*
X13087D01*
Y37912D01*
X13757D01*
Y36302D01*
D02*
G37*
G36*
X15442Y32992D02*
X14752D01*
Y34062D01*
X11827D01*
Y34972D01*
X14752D01*
Y36042D01*
X15442D01*
Y32992D01*
D02*
G37*
G36*
Y31782D02*
Y30797D01*
X11827Y29577D01*
Y30482D01*
X12562Y30707D01*
Y31847D01*
X11827Y32072D01*
Y33007D01*
X15442Y31782D01*
D02*
G37*
G36*
X13062Y29437D02*
X13177Y29417D01*
X13277Y29382D01*
X13357Y29347D01*
X13427Y29307D01*
X13472Y29272D01*
X13502Y29252D01*
X13512Y29242D01*
X13587Y29162D01*
X13652Y29072D01*
X13702Y28987D01*
X13742Y28902D01*
X13767Y28822D01*
X13777Y28792D01*
X13787Y28762D01*
X13792Y28737D01*
X13797Y28722D01*
X13802Y28712D01*
Y28707D01*
X13822D01*
X13862Y28792D01*
X13912Y28862D01*
X13962Y28927D01*
X14012Y28977D01*
X14057Y29017D01*
X14092Y29047D01*
X14117Y29067D01*
X14127Y29072D01*
X14207Y29117D01*
X14287Y29152D01*
X14367Y29172D01*
X14437Y29192D01*
X14502Y29202D01*
X14552Y29207D01*
X14572D01*
X14587D01*
X14592D01*
X14597D01*
X14682Y29202D01*
X14757Y29192D01*
X14827Y29177D01*
X14887Y29157D01*
X14937Y29137D01*
X14972Y29122D01*
X14992Y29112D01*
X15002Y29107D01*
X15062Y29067D01*
X15122Y29022D01*
X15167Y28972D01*
X15207Y28927D01*
X15242Y28882D01*
X15262Y28847D01*
X15277Y28827D01*
X15282Y28817D01*
X15317Y28747D01*
X15342Y28682D01*
X15362Y28617D01*
X15382Y28557D01*
X15392Y28507D01*
X15402Y28467D01*
X15407Y28442D01*
Y28432D01*
X15417Y28347D01*
X15427Y28252D01*
X15432Y28152D01*
X15437Y28057D01*
X15442Y27967D01*
Y26557D01*
X11827D01*
Y28002D01*
X11832Y28137D01*
X11837Y28257D01*
X11847Y28362D01*
X11862Y28452D01*
X11872Y28527D01*
X11877Y28552D01*
X11882Y28577D01*
X11887Y28597D01*
Y28612D01*
X11892Y28617D01*
Y28622D01*
X11922Y28712D01*
X11957Y28797D01*
X11997Y28872D01*
X12032Y28937D01*
X12067Y28992D01*
X12097Y29032D01*
X12117Y29057D01*
X12122Y29067D01*
X12172Y29127D01*
X12227Y29182D01*
X12287Y29232D01*
X12337Y29272D01*
X12387Y29302D01*
X12422Y29322D01*
X12447Y29337D01*
X12457Y29342D01*
X12537Y29377D01*
X12617Y29402D01*
X12697Y29422D01*
X12772Y29432D01*
X12837Y29442D01*
X12887Y29447D01*
X12907D01*
X12922D01*
X12927D01*
X12932D01*
X13062Y29437D01*
D02*
G37*
G36*
X13732Y14185D02*
X14972D01*
Y13545D01*
X13732D01*
Y12305D01*
X13107D01*
Y13545D01*
X11867D01*
Y14185D01*
X13107D01*
Y15425D01*
X13732D01*
Y14185D01*
D02*
G37*
G36*
X15442Y8785D02*
X14752D01*
Y9855D01*
X11827D01*
Y10765D01*
X14752D01*
Y11835D01*
X15442D01*
Y8785D01*
D02*
G37*
G36*
Y7575D02*
Y6590D01*
X11827Y5370D01*
Y6275D01*
X12562Y6500D01*
Y7640D01*
X11827Y7865D01*
Y8800D01*
X15442Y7575D01*
D02*
G37*
G36*
X13062Y5230D02*
X13177Y5210D01*
X13277Y5175D01*
X13357Y5140D01*
X13427Y5100D01*
X13472Y5065D01*
X13502Y5045D01*
X13512Y5035D01*
X13587Y4955D01*
X13652Y4865D01*
X13702Y4780D01*
X13742Y4695D01*
X13767Y4615D01*
X13777Y4585D01*
X13787Y4555D01*
X13792Y4530D01*
X13797Y4515D01*
X13802Y4505D01*
Y4500D01*
X13822D01*
X13862Y4585D01*
X13912Y4655D01*
X13962Y4720D01*
X14012Y4770D01*
X14057Y4810D01*
X14092Y4840D01*
X14117Y4860D01*
X14127Y4865D01*
X14207Y4910D01*
X14287Y4945D01*
X14367Y4965D01*
X14437Y4985D01*
X14502Y4995D01*
X14552Y5000D01*
X14572D01*
X14587D01*
X14592D01*
X14597D01*
X14682Y4995D01*
X14757Y4985D01*
X14827Y4970D01*
X14887Y4950D01*
X14937Y4930D01*
X14972Y4915D01*
X14992Y4905D01*
X15002Y4900D01*
X15062Y4860D01*
X15122Y4815D01*
X15167Y4765D01*
X15207Y4720D01*
X15242Y4675D01*
X15262Y4640D01*
X15277Y4620D01*
X15282Y4610D01*
X15317Y4540D01*
X15342Y4475D01*
X15362Y4410D01*
X15382Y4350D01*
X15392Y4300D01*
X15402Y4260D01*
X15407Y4235D01*
Y4225D01*
X15417Y4140D01*
X15427Y4045D01*
X15432Y3945D01*
X15437Y3850D01*
X15442Y3760D01*
Y2350D01*
X11827D01*
Y3795D01*
X11832Y3930D01*
X11837Y4050D01*
X11847Y4155D01*
X11862Y4245D01*
X11872Y4320D01*
X11877Y4345D01*
X11882Y4370D01*
X11887Y4390D01*
Y4405D01*
X11892Y4410D01*
Y4415D01*
X11922Y4505D01*
X11957Y4590D01*
X11997Y4665D01*
X12032Y4730D01*
X12067Y4785D01*
X12097Y4825D01*
X12117Y4850D01*
X12122Y4860D01*
X12172Y4920D01*
X12227Y4975D01*
X12287Y5025D01*
X12337Y5065D01*
X12387Y5095D01*
X12422Y5115D01*
X12447Y5130D01*
X12457Y5135D01*
X12537Y5170D01*
X12617Y5195D01*
X12697Y5215D01*
X12772Y5225D01*
X12837Y5235D01*
X12887Y5240D01*
X12907D01*
X12922D01*
X12927D01*
X12932D01*
X13062Y5230D01*
D02*
G37*
%LPC*%
G36*
X13222Y31647D02*
Y30907D01*
X14412Y31277D01*
X13222Y31647D01*
D02*
G37*
G36*
X14452Y28287D02*
X14432D01*
X14422D01*
X14417D01*
X14332Y28282D01*
X14297Y28272D01*
X14267Y28267D01*
X14242Y28257D01*
X14222Y28247D01*
X14212Y28242D01*
X14207D01*
X14177Y28222D01*
X14147Y28202D01*
X14102Y28152D01*
X14087Y28127D01*
X14077Y28112D01*
X14067Y28097D01*
Y28092D01*
X14037Y28022D01*
X14022Y27957D01*
X14017Y27932D01*
X14012Y27912D01*
Y27462D01*
X14782D01*
Y27797D01*
X14777Y27837D01*
Y27887D01*
X14767Y27972D01*
X14762Y28012D01*
X14752Y28042D01*
X14747Y28067D01*
X14737Y28087D01*
X14732Y28097D01*
Y28102D01*
X14717Y28137D01*
X14692Y28162D01*
X14652Y28207D01*
X14627Y28222D01*
X14612Y28232D01*
X14602Y28242D01*
X14597D01*
X14532Y28267D01*
X14472Y28282D01*
X14452Y28287D01*
D02*
G37*
G36*
X12972Y28512D02*
X12952D01*
X12947D01*
X12902D01*
X12857Y28502D01*
X12817Y28492D01*
X12782Y28482D01*
X12752Y28472D01*
X12732Y28462D01*
X12717Y28457D01*
X12712Y28452D01*
X12677Y28427D01*
X12642Y28402D01*
X12617Y28372D01*
X12597Y28342D01*
X12577Y28317D01*
X12567Y28292D01*
X12562Y28277D01*
X12557Y28272D01*
X12537Y28222D01*
X12517Y28172D01*
X12507Y28122D01*
X12497Y28082D01*
X12492Y28047D01*
X12487Y28022D01*
Y27462D01*
X13392D01*
Y27912D01*
X13387Y27952D01*
Y28012D01*
X13382Y28062D01*
Y28107D01*
X13372Y28147D01*
X13367Y28177D01*
X13362Y28202D01*
X13357Y28222D01*
X13352Y28232D01*
Y28237D01*
X13332Y28287D01*
X13307Y28327D01*
X13282Y28362D01*
X13262Y28392D01*
X13242Y28412D01*
X13222Y28427D01*
X13212Y28437D01*
X13207Y28442D01*
X13167Y28467D01*
X13127Y28482D01*
X13042Y28502D01*
X13002Y28507D01*
X12972Y28512D01*
D02*
G37*
G36*
X13222Y7440D02*
Y6700D01*
X14412Y7070D01*
X13222Y7440D01*
D02*
G37*
G36*
X14452Y4080D02*
X14432D01*
X14422D01*
X14417D01*
X14332Y4075D01*
X14297Y4065D01*
X14267Y4060D01*
X14242Y4050D01*
X14222Y4040D01*
X14212Y4035D01*
X14207D01*
X14177Y4015D01*
X14147Y3995D01*
X14102Y3945D01*
X14087Y3920D01*
X14077Y3905D01*
X14067Y3890D01*
Y3885D01*
X14037Y3815D01*
X14022Y3750D01*
X14017Y3725D01*
X14012Y3705D01*
Y3255D01*
X14782D01*
Y3590D01*
X14777Y3630D01*
Y3680D01*
X14767Y3765D01*
X14762Y3805D01*
X14752Y3835D01*
X14747Y3860D01*
X14737Y3880D01*
X14732Y3890D01*
Y3895D01*
X14717Y3930D01*
X14692Y3955D01*
X14652Y4000D01*
X14627Y4015D01*
X14612Y4025D01*
X14602Y4035D01*
X14597D01*
X14532Y4060D01*
X14472Y4075D01*
X14452Y4080D01*
D02*
G37*
G36*
X12972Y4305D02*
X12952D01*
X12947D01*
X12902D01*
X12857Y4295D01*
X12817Y4285D01*
X12782Y4275D01*
X12752Y4265D01*
X12732Y4255D01*
X12717Y4250D01*
X12712Y4245D01*
X12677Y4220D01*
X12642Y4195D01*
X12617Y4165D01*
X12597Y4135D01*
X12577Y4110D01*
X12567Y4085D01*
X12562Y4070D01*
X12557Y4065D01*
X12537Y4015D01*
X12517Y3965D01*
X12507Y3915D01*
X12497Y3875D01*
X12492Y3840D01*
X12487Y3815D01*
Y3255D01*
X13392D01*
Y3705D01*
X13387Y3745D01*
Y3805D01*
X13382Y3855D01*
Y3900D01*
X13372Y3940D01*
X13367Y3970D01*
X13362Y3995D01*
X13357Y4015D01*
X13352Y4025D01*
Y4030D01*
X13332Y4080D01*
X13307Y4120D01*
X13282Y4155D01*
X13262Y4185D01*
X13242Y4205D01*
X13222Y4220D01*
X13212Y4230D01*
X13207Y4235D01*
X13167Y4260D01*
X13127Y4275D01*
X13042Y4295D01*
X13002Y4300D01*
X12972Y4305D01*
D02*
G37*
%LPD*%
M02*
