G04*
G04 #@! TF.GenerationSoftware,Altium Limited,Altium Designer,19.1.8 (144)*
G04*
G04 Layer_Color=32896*
%FSLAX25Y25*%
%MOIN*%
G70*
G01*
G75*
G36*
X28422Y7534D02*
X28346D01*
Y7534D01*
X26597D01*
X26632Y7539D01*
X26676D01*
X26726Y7544D01*
X26787Y7554D01*
X26847Y7564D01*
X26992Y7589D01*
X27141Y7629D01*
X27297Y7684D01*
X27376Y7719D01*
X27452Y7759D01*
X27457D01*
X27466Y7769D01*
X27492Y7779D01*
X27516Y7799D01*
X27551Y7819D01*
X27586Y7844D01*
X27676Y7909D01*
X27771Y7989D01*
X27876Y8084D01*
X27972Y8194D01*
X28062Y8314D01*
Y8319D01*
X28071Y8329D01*
X28076Y8344D01*
X28091Y8364D01*
X28106Y8389D01*
X28122Y8419D01*
X28161Y8494D01*
X28201Y8589D01*
X28236Y8689D01*
X28271Y8804D01*
X28297Y8929D01*
Y8944D01*
X28302Y8964D01*
X28306Y8984D01*
Y9019D01*
X28311Y9054D01*
X28317Y9094D01*
X28321Y9139D01*
X28332Y9244D01*
X28337Y9364D01*
X28346Y9494D01*
Y7919D01*
Y10759D01*
X24732D01*
Y9499D01*
X24736Y9459D01*
Y9409D01*
X24742Y9299D01*
X24751Y9179D01*
X24767Y9054D01*
X24781Y8929D01*
Y8914D01*
X24787Y8894D01*
X24791Y8874D01*
X24796Y8844D01*
X24806Y8809D01*
X24832Y8724D01*
X24861Y8629D01*
X24902Y8524D01*
X24951Y8414D01*
X25016Y8304D01*
X25021Y8299D01*
X25027Y8289D01*
X25041Y8269D01*
X25056Y8244D01*
X25082Y8214D01*
X25111Y8179D01*
X25181Y8099D01*
X25267Y8009D01*
X25376Y7919D01*
X25497Y7829D01*
X25637Y7744D01*
X25642Y7739D01*
X25651Y7734D01*
X25677Y7724D01*
X25706Y7709D01*
X25741Y7694D01*
X25787Y7679D01*
X25837Y7659D01*
X25896Y7639D01*
X25956Y7619D01*
X26026Y7599D01*
X26101Y7584D01*
X26182Y7569D01*
X26357Y7544D01*
X26546Y7534D01*
X24732D01*
Y7534D01*
X24656D01*
Y15274D01*
X24656D01*
Y16539D01*
X24661Y16499D01*
Y16409D01*
X24667Y16354D01*
X24677Y16239D01*
X24697Y16114D01*
X24716Y15994D01*
X24746Y15879D01*
Y15874D01*
X24751Y15864D01*
X24757Y15849D01*
X24761Y15829D01*
X24771Y15804D01*
X24781Y15774D01*
X24806Y15699D01*
X24841Y15609D01*
X24882Y15509D01*
X24927Y15404D01*
X24976Y15289D01*
X25822D01*
Y15379D01*
X25811Y15384D01*
X25802Y15399D01*
X25787Y15424D01*
X25767Y15449D01*
X25741Y15479D01*
X25712Y15519D01*
X25681Y15564D01*
X25677Y15569D01*
X25666Y15584D01*
X25646Y15609D01*
X25627Y15639D01*
X25602Y15674D01*
X25572Y15714D01*
X25521Y15799D01*
X25517Y15804D01*
X25506Y15824D01*
X25497Y15854D01*
X25477Y15889D01*
X25457Y15939D01*
X25436Y15994D01*
X25411Y16054D01*
X25392Y16119D01*
X25387Y16129D01*
X25381Y16149D01*
X25372Y16184D01*
X25361Y16229D01*
X25352Y16289D01*
X25341Y16349D01*
X25332Y16419D01*
Y16534D01*
X25337Y16579D01*
X25341Y16634D01*
X25352Y16699D01*
X25361Y16769D01*
X25381Y16844D01*
X25407Y16919D01*
X25411Y16929D01*
X25422Y16949D01*
X25436Y16989D01*
X25462Y17034D01*
X25497Y17084D01*
X25532Y17144D01*
X25576Y17199D01*
X25631Y17259D01*
X25637Y17264D01*
X25657Y17284D01*
X25692Y17309D01*
X25732Y17344D01*
X25787Y17379D01*
X25846Y17419D01*
X25921Y17454D01*
X26002Y17489D01*
X26011Y17494D01*
X26041Y17499D01*
X26087Y17514D01*
X26151Y17529D01*
X26226Y17544D01*
X26316Y17554D01*
X26417Y17564D01*
X26522Y17569D01*
X26526D01*
X26551D01*
X26581D01*
X26627Y17564D01*
X26676Y17559D01*
X26741Y17554D01*
X26807Y17544D01*
X26877Y17529D01*
X27031Y17494D01*
X27112Y17464D01*
X27187Y17434D01*
X27261Y17399D01*
X27336Y17359D01*
X27402Y17309D01*
X27461Y17254D01*
X27466Y17249D01*
X27477Y17239D01*
X27492Y17219D01*
X27507Y17194D01*
X27531Y17164D01*
X27556Y17124D01*
X27582Y17079D01*
X27612Y17024D01*
X27641Y16964D01*
X27667Y16899D01*
X27692Y16829D01*
X27716Y16754D01*
X27731Y16669D01*
X27746Y16579D01*
X27757Y16484D01*
X27762Y16384D01*
Y16194D01*
X27757Y16154D01*
X27036D01*
Y16854D01*
X26357D01*
Y15274D01*
X28422D01*
X28141D01*
Y15279D01*
X28146Y15284D01*
X28152Y15299D01*
X28157Y15319D01*
X28166Y15339D01*
X28177Y15369D01*
X28201Y15439D01*
X28231Y15529D01*
X28262Y15639D01*
X28297Y15759D01*
X28332Y15894D01*
Y15899D01*
X28337Y15909D01*
X28341Y15929D01*
X28346Y15959D01*
X28352Y15994D01*
X28361Y16034D01*
X28367Y16079D01*
X28376Y16129D01*
X28392Y16244D01*
X28407Y16369D01*
X28416Y16504D01*
X28422Y16644D01*
Y16724D01*
Y16679D01*
X28416Y16724D01*
X28411Y16784D01*
X28407Y16854D01*
X28396Y16939D01*
X28381Y17034D01*
X28361Y17134D01*
X28337Y17239D01*
X28302Y17349D01*
X28262Y17459D01*
X28216Y17574D01*
X28157Y17684D01*
X28091Y17794D01*
X28016Y17899D01*
X27931Y17999D01*
X27926Y18004D01*
X27907Y18019D01*
X27882Y18044D01*
X27841Y18079D01*
X27792Y18114D01*
X27727Y18159D01*
X27656Y18204D01*
X27571Y18249D01*
X27481Y18299D01*
X27376Y18344D01*
X27261Y18389D01*
X27136Y18424D01*
X27002Y18459D01*
X26856Y18484D01*
X26702Y18499D01*
X26537Y18504D01*
X28422D01*
X26496D01*
X26456Y18499D01*
X26397Y18494D01*
X26322Y18489D01*
X26241Y18479D01*
X26147Y18464D01*
X26046Y18439D01*
X25942Y18414D01*
X25831Y18379D01*
X25717Y18339D01*
X25602Y18289D01*
X25486Y18234D01*
X25376Y18164D01*
X25271Y18089D01*
X25172Y17999D01*
X25166Y17994D01*
X25152Y17974D01*
X25122Y17944D01*
X25091Y17904D01*
X25052Y17854D01*
X25006Y17794D01*
X24961Y17719D01*
X24912Y17634D01*
X24867Y17544D01*
X24822Y17439D01*
X24777Y17324D01*
X24736Y17199D01*
X24701Y17069D01*
X24677Y16924D01*
X24661Y16774D01*
X24656Y16614D01*
Y18504D01*
X26365D01*
X24656D01*
Y18504D01*
X28422D01*
Y7534D01*
D02*
G37*
G36*
X27667Y9654D02*
X27661Y9574D01*
Y9404D01*
X27656Y9324D01*
Y9314D01*
X27652Y9289D01*
X27646Y9249D01*
X27637Y9194D01*
X27621Y9134D01*
X27597Y9064D01*
X27566Y8994D01*
X27527Y8924D01*
Y8919D01*
X27521Y8914D01*
X27501Y8889D01*
X27472Y8849D01*
X27426Y8799D01*
X27371Y8744D01*
X27307Y8689D01*
X27226Y8634D01*
X27141Y8589D01*
X27136D01*
X27132Y8584D01*
X27117Y8579D01*
X27097Y8569D01*
X27071Y8559D01*
X27042Y8549D01*
X26972Y8529D01*
X26882Y8509D01*
X26781Y8489D01*
X26667Y8474D01*
X26537Y8469D01*
X26531D01*
X26522D01*
X26502D01*
X26476D01*
X26447Y8474D01*
X26412D01*
X26327Y8484D01*
X26232Y8499D01*
X26131Y8524D01*
X26026Y8554D01*
X25927Y8594D01*
X25921D01*
X25916Y8599D01*
X25886Y8619D01*
X25837Y8644D01*
X25782Y8684D01*
X25717Y8739D01*
X25651Y8804D01*
X25587Y8879D01*
X25532Y8969D01*
X25526Y8979D01*
X25517Y8999D01*
X25497Y9039D01*
X25477Y9084D01*
X25457Y9144D01*
X25436Y9209D01*
X25427Y9279D01*
X25416Y9354D01*
Y9389D01*
X25411Y9434D01*
Y9559D01*
X25407Y9639D01*
Y9849D01*
X27667D01*
Y9654D01*
D02*
G37*
G36*
X26456Y34624D02*
X26397Y34619D01*
X26327Y34614D01*
X26241Y34604D01*
X26147Y34589D01*
X26046Y34569D01*
X25942Y34544D01*
X25826Y34514D01*
X25717Y34474D01*
X25602Y34429D01*
X25486Y34374D01*
X25376Y34309D01*
X25271Y34239D01*
X25172Y34154D01*
X25166Y34149D01*
X25152Y34134D01*
X25122Y34104D01*
X25091Y34064D01*
X25052Y34019D01*
X25006Y33959D01*
X24961Y33889D01*
X24912Y33814D01*
X24867Y33724D01*
X24822Y33629D01*
X24777Y33524D01*
X24736Y33409D01*
X24701Y33284D01*
X24677Y33154D01*
X24661Y33014D01*
X24656Y32864D01*
Y34629D01*
X26502D01*
X26456Y34624D01*
D02*
G37*
G36*
X28416Y31639D02*
X28106D01*
Y31644D01*
X28117Y31659D01*
X28126Y31679D01*
X28137Y31704D01*
X28157Y31739D01*
X28172Y31779D01*
X28216Y31874D01*
Y31879D01*
X28227Y31894D01*
X28236Y31924D01*
X28251Y31954D01*
X28267Y31994D01*
X28282Y32039D01*
X28317Y32139D01*
Y32144D01*
X28321Y32169D01*
X28332Y32199D01*
X28341Y32244D01*
X28352Y32294D01*
X28367Y32344D01*
X28387Y32459D01*
Y32464D01*
X28392Y32484D01*
X28396Y32519D01*
X28401Y32564D01*
X28407Y32619D01*
X28411Y32689D01*
X28416Y32774D01*
Y31639D01*
D02*
G37*
G36*
X28416Y28324D02*
X28416D01*
Y28324D01*
X28106D01*
Y28329D01*
X28117Y28344D01*
X28126Y28364D01*
X28137Y28389D01*
X28157Y28424D01*
X28172Y28464D01*
X28216Y28559D01*
Y28564D01*
X28227Y28579D01*
X28236Y28609D01*
X28251Y28639D01*
X28267Y28679D01*
X28282Y28724D01*
X28317Y28824D01*
Y28829D01*
X28321Y28854D01*
X28332Y28884D01*
X28341Y28929D01*
X28352Y28979D01*
X28367Y29029D01*
X28387Y29144D01*
Y29149D01*
X28392Y29169D01*
X28396Y29204D01*
X28401Y29249D01*
X28407Y29304D01*
X28411Y29374D01*
X28416Y29459D01*
Y28929D01*
Y29679D01*
Y29584D01*
X28411Y29629D01*
X28407Y29684D01*
X28401Y29754D01*
X28392Y29834D01*
X28376Y29919D01*
X28357Y30014D01*
X28332Y30119D01*
X28297Y30224D01*
X28256Y30329D01*
X28212Y30439D01*
X28152Y30544D01*
X28087Y30649D01*
X28012Y30744D01*
X27926Y30839D01*
X27922Y30844D01*
X27902Y30859D01*
X27876Y30884D01*
X27836Y30914D01*
X27786Y30949D01*
X27727Y30989D01*
X27652Y31034D01*
X27571Y31074D01*
X27477Y31119D01*
X27371Y31164D01*
X27261Y31204D01*
X27136Y31239D01*
X27002Y31269D01*
X26856Y31294D01*
X26706Y31309D01*
X26542Y31314D01*
X28416D01*
X24656D01*
Y31639D01*
X24656D01*
Y32789D01*
X24661Y32734D01*
Y32674D01*
X24667Y32609D01*
X24681Y32479D01*
Y32469D01*
X24687Y32449D01*
X24691Y32414D01*
X24701Y32369D01*
X24712Y32319D01*
X24722Y32264D01*
X24751Y32144D01*
Y32139D01*
X24757Y32124D01*
X24767Y32099D01*
X24777Y32064D01*
X24791Y32024D01*
X24806Y31979D01*
X24851Y31879D01*
X24857Y31874D01*
X24861Y31854D01*
X24871Y31829D01*
X24886Y31794D01*
X24922Y31714D01*
X24941Y31674D01*
X24961Y31639D01*
X24952D01*
X25817D01*
Y31734D01*
X25811Y31739D01*
X25806Y31744D01*
X25796Y31759D01*
X25776Y31779D01*
X25736Y31829D01*
X25681Y31899D01*
X25677Y31904D01*
X25666Y31914D01*
X25651Y31939D01*
X25631Y31964D01*
X25607Y31999D01*
X25581Y32034D01*
X25521Y32124D01*
X25517Y32129D01*
X25506Y32144D01*
X25497Y32174D01*
X25477Y32204D01*
X25457Y32249D01*
X25436Y32294D01*
X25411Y32349D01*
X25392Y32404D01*
X25387Y32409D01*
X25381Y32429D01*
X25372Y32459D01*
X25361Y32499D01*
X25352Y32549D01*
X25346Y32599D01*
X25337Y32659D01*
Y32754D01*
X25341Y32789D01*
X25346Y32839D01*
X25352Y32894D01*
X25361Y32954D01*
X25381Y33014D01*
X25401Y33079D01*
X25407Y33084D01*
X25411Y33104D01*
X25427Y33139D01*
X25451Y33179D01*
X25482Y33224D01*
X25517Y33279D01*
X25561Y33334D01*
X25616Y33389D01*
X25622Y33394D01*
X25642Y33409D01*
X25671Y33434D01*
X25712Y33469D01*
X25767Y33504D01*
X25831Y33539D01*
X25907Y33574D01*
X25991Y33609D01*
X25997D01*
X26002Y33614D01*
X26017Y33619D01*
X26032Y33624D01*
X26081Y33634D01*
X26147Y33649D01*
X26232Y33669D01*
X26327Y33679D01*
X26432Y33689D01*
X26546Y33694D01*
X26551D01*
X26561D01*
X26577D01*
X26601D01*
X26632Y33689D01*
X26667D01*
X26741Y33684D01*
X26831Y33674D01*
X26926Y33659D01*
X27022Y33639D01*
X27112Y33609D01*
X27121Y33604D01*
X27152Y33594D01*
X27191Y33574D01*
X27242Y33544D01*
X27301Y33514D01*
X27367Y33474D01*
X27426Y33424D01*
X27481Y33374D01*
X27487Y33369D01*
X27501Y33349D01*
X27527Y33319D01*
X27556Y33279D01*
X27586Y33234D01*
X27621Y33179D01*
X27652Y33119D01*
X27676Y33059D01*
Y33049D01*
X27687Y33029D01*
X27696Y32994D01*
X27707Y32949D01*
X27716Y32899D01*
X27727Y32839D01*
X27731Y32779D01*
X27736Y32714D01*
Y32684D01*
X27731Y32649D01*
Y32604D01*
X27722Y32554D01*
X27711Y32494D01*
X27702Y32434D01*
X27681Y32374D01*
X27676Y32369D01*
X27672Y32344D01*
X27656Y32314D01*
X27641Y32279D01*
X27621Y32234D01*
X27602Y32189D01*
X27571Y32144D01*
X27547Y32099D01*
X27542Y32094D01*
X27531Y32079D01*
X27516Y32054D01*
X27501Y32024D01*
X27452Y31954D01*
X27397Y31884D01*
X27391Y31879D01*
X27382Y31869D01*
X27371Y31854D01*
X27351Y31829D01*
X27307Y31779D01*
X27257Y31724D01*
Y31639D01*
X28416D01*
Y32994D01*
Y32899D01*
X28411Y32944D01*
X28407Y32999D01*
X28401Y33069D01*
X28392Y33149D01*
X28376Y33234D01*
X28357Y33329D01*
X28332Y33434D01*
X28297Y33539D01*
X28256Y33644D01*
X28212Y33754D01*
X28152Y33859D01*
X28087Y33964D01*
X28012Y34059D01*
X27926Y34154D01*
X27922Y34159D01*
X27902Y34174D01*
X27876Y34199D01*
X27836Y34229D01*
X27786Y34264D01*
X27727Y34304D01*
X27652Y34349D01*
X27571Y34389D01*
X27477Y34434D01*
X27371Y34479D01*
X27261Y34519D01*
X27136Y34554D01*
X27002Y34584D01*
X26856Y34609D01*
X26706Y34624D01*
X26542Y34629D01*
X28416D01*
X24656D01*
Y38189D01*
X28416D01*
Y28324D01*
D02*
G37*
G36*
X26456Y31309D02*
X26397Y31304D01*
X26327Y31299D01*
X26241Y31289D01*
X26147Y31274D01*
X26046Y31254D01*
X25942Y31229D01*
X25826Y31199D01*
X25717Y31159D01*
X25602Y31114D01*
X25486Y31059D01*
X25376Y30994D01*
X25271Y30924D01*
X25172Y30839D01*
X25166Y30834D01*
X25152Y30819D01*
X25122Y30789D01*
X25091Y30749D01*
X25052Y30704D01*
X25006Y30644D01*
X24961Y30574D01*
X24912Y30499D01*
X24867Y30409D01*
X24822Y30314D01*
X24777Y30209D01*
X24736Y30094D01*
X24701Y29969D01*
X24677Y29839D01*
X24661Y29699D01*
X24656Y29549D01*
Y31314D01*
X26502D01*
X26456Y31309D01*
D02*
G37*
G36*
X26632Y30374D02*
X26667D01*
X26741Y30369D01*
X26831Y30359D01*
X26926Y30344D01*
X27022Y30324D01*
X27112Y30294D01*
X27121Y30289D01*
X27152Y30279D01*
X27191Y30259D01*
X27242Y30229D01*
X27301Y30199D01*
X27367Y30159D01*
X27426Y30109D01*
X27481Y30059D01*
X27487Y30054D01*
X27501Y30034D01*
X27527Y30004D01*
X27556Y29964D01*
X27586Y29919D01*
X27621Y29864D01*
X27652Y29804D01*
X27676Y29744D01*
Y29734D01*
X27687Y29714D01*
X27696Y29679D01*
X27707Y29634D01*
X27716Y29584D01*
X27727Y29524D01*
X27731Y29464D01*
X27736Y29399D01*
Y29369D01*
X27731Y29334D01*
Y29289D01*
X27722Y29239D01*
X27711Y29179D01*
X27702Y29119D01*
X27681Y29059D01*
X27676Y29054D01*
X27672Y29029D01*
X27656Y28999D01*
X27641Y28964D01*
X27621Y28919D01*
X27602Y28874D01*
X27571Y28829D01*
X27547Y28784D01*
X27542Y28779D01*
X27531Y28764D01*
X27516Y28739D01*
X27501Y28709D01*
X27452Y28639D01*
X27397Y28569D01*
X27391Y28564D01*
X27382Y28554D01*
X27371Y28539D01*
X27351Y28514D01*
X27307Y28464D01*
X27257Y28409D01*
Y28324D01*
X25817D01*
Y28419D01*
X25811Y28424D01*
X25806Y28429D01*
X25796Y28444D01*
X25776Y28464D01*
X25736Y28514D01*
X25681Y28584D01*
X25677Y28589D01*
X25666Y28599D01*
X25651Y28624D01*
X25631Y28649D01*
X25607Y28684D01*
X25581Y28719D01*
X25521Y28809D01*
X25517Y28814D01*
X25506Y28829D01*
X25497Y28859D01*
X25477Y28889D01*
X25457Y28934D01*
X25436Y28979D01*
X25411Y29034D01*
X25392Y29089D01*
X25387Y29094D01*
X25381Y29114D01*
X25372Y29144D01*
X25361Y29184D01*
X25352Y29234D01*
X25346Y29284D01*
X25337Y29344D01*
Y29439D01*
X25341Y29474D01*
X25346Y29524D01*
X25352Y29579D01*
X25361Y29639D01*
X25381Y29699D01*
X25401Y29764D01*
X25407Y29769D01*
X25411Y29789D01*
X25427Y29824D01*
X25451Y29864D01*
X25482Y29909D01*
X25517Y29964D01*
X25561Y30019D01*
X25616Y30074D01*
X25622Y30079D01*
X25642Y30094D01*
X25671Y30119D01*
X25712Y30154D01*
X25767Y30189D01*
X25831Y30224D01*
X25907Y30259D01*
X25991Y30294D01*
X25997D01*
X26002Y30299D01*
X26017Y30304D01*
X26032Y30309D01*
X26081Y30319D01*
X26147Y30334D01*
X26232Y30354D01*
X26327Y30364D01*
X26432Y30374D01*
X26546Y30379D01*
X26551D01*
X26561D01*
X26577D01*
X26601D01*
X26632Y30374D01*
D02*
G37*
G36*
X24661Y29419D02*
Y29359D01*
X24667Y29294D01*
X24681Y29164D01*
Y29154D01*
X24687Y29134D01*
X24691Y29099D01*
X24701Y29054D01*
X24712Y29004D01*
X24722Y28949D01*
X24751Y28829D01*
Y28824D01*
X24757Y28809D01*
X24767Y28784D01*
X24777Y28749D01*
X24791Y28709D01*
X24806Y28664D01*
X24851Y28564D01*
X24857Y28559D01*
X24861Y28539D01*
X24871Y28514D01*
X24886Y28479D01*
X24922Y28399D01*
X24941Y28359D01*
X24961Y28324D01*
X24656D01*
Y29474D01*
X24661Y29419D01*
D02*
G37*
%LPC*%
G36*
X28346Y14589D02*
X24732D01*
Y13479D01*
X26807Y12324D01*
X24732D01*
Y11494D01*
X28346D01*
Y12369D01*
X25826Y13759D01*
X28346D01*
Y14589D01*
D02*
G37*
G36*
Y38189D02*
Y36949D01*
X24732Y38189D01*
Y37249D01*
X27191Y36459D01*
X24732Y35669D01*
Y34754D01*
X28346Y35999D01*
Y34754D01*
X24732D01*
X28346D01*
Y38189D01*
D02*
G37*
%LPD*%
M02*
