G04*
G04 #@! TF.GenerationSoftware,Altium Limited,Altium Designer,19.1.8 (144)*
G04*
G04 Layer_Color=65535*
%FSLAX25Y25*%
%MOIN*%
G70*
G01*
G75*
%ADD10C,0.00787*%
G36*
X13780Y23899D02*
X13149D01*
Y24659D01*
X11240D01*
Y23899D01*
X10650D01*
Y23959D01*
X10644Y24004D01*
Y24054D01*
X10639Y24109D01*
X10629Y24229D01*
Y24234D01*
X10625Y24259D01*
X10620Y24289D01*
X10615Y24324D01*
X10589Y24409D01*
X10575Y24454D01*
X10560Y24494D01*
X10554Y24499D01*
X10549Y24514D01*
X10535Y24534D01*
X10520Y24559D01*
X10469Y24619D01*
X10405Y24674D01*
X10400Y24679D01*
X10385Y24684D01*
X10364Y24694D01*
X10334Y24709D01*
X10300Y24719D01*
X10255Y24729D01*
X10210Y24739D01*
X10154Y24744D01*
Y25539D01*
X13149D01*
Y26284D01*
X13780D01*
Y23899D01*
D02*
G37*
G36*
X12585Y23094D02*
X12640Y23089D01*
X12705Y23079D01*
X12775Y23069D01*
X12849Y23049D01*
X12934Y23029D01*
X13014Y23004D01*
X13104Y22974D01*
X13190Y22939D01*
X13270Y22894D01*
X13350Y22839D01*
X13430Y22784D01*
X13499Y22714D01*
X13505Y22709D01*
X13514Y22694D01*
X13534Y22674D01*
X13555Y22644D01*
X13579Y22604D01*
X13610Y22554D01*
X13645Y22499D01*
X13675Y22429D01*
X13710Y22354D01*
X13745Y22269D01*
X13774Y22179D01*
X13800Y22079D01*
X13819Y21969D01*
X13839Y21849D01*
X13849Y21719D01*
X13855Y21584D01*
Y21514D01*
X13849Y21464D01*
X13845Y21404D01*
X13835Y21334D01*
X13825Y21259D01*
X13810Y21174D01*
X13794Y21084D01*
X13769Y20994D01*
X13739Y20899D01*
X13704Y20809D01*
X13665Y20719D01*
X13620Y20629D01*
X13565Y20544D01*
X13505Y20469D01*
X13499Y20464D01*
X13489Y20454D01*
X13469Y20434D01*
X13440Y20409D01*
X13405Y20379D01*
X13360Y20344D01*
X13305Y20309D01*
X13244Y20274D01*
X13174Y20239D01*
X13100Y20204D01*
X13014Y20169D01*
X12924Y20139D01*
X12820Y20114D01*
X12715Y20094D01*
X12599Y20084D01*
X12474Y20079D01*
X10165D01*
Y20989D01*
X12420D01*
X12425D01*
X12434D01*
X12455D01*
X12479D01*
X12515Y20994D01*
X12550Y20999D01*
X12634Y21009D01*
X12724Y21024D01*
X12820Y21049D01*
X12904Y21084D01*
X12984Y21129D01*
X12994Y21134D01*
X13014Y21154D01*
X13039Y21189D01*
X13074Y21239D01*
X13110Y21304D01*
X13135Y21379D01*
X13155Y21474D01*
X13164Y21584D01*
Y21614D01*
X13160Y21634D01*
X13155Y21689D01*
X13145Y21759D01*
X13119Y21829D01*
X13090Y21909D01*
X13049Y21979D01*
X12990Y22039D01*
X12979Y22044D01*
X12955Y22064D01*
X12914Y22089D01*
X12855Y22114D01*
X12775Y22144D01*
X12675Y22164D01*
X12619Y22174D01*
X12560Y22184D01*
X12489Y22189D01*
X12420D01*
X10165D01*
Y23099D01*
X12474D01*
X12479D01*
X12505D01*
X12539D01*
X12585Y23094D01*
D02*
G37*
D10*
X10236Y39921D02*
X17323D01*
X10236Y5906D02*
X17323D01*
X25197Y40079D02*
X26378D01*
Y6063D02*
Y40079D01*
X25197Y6063D02*
X26378D01*
M02*
