G04*
G04 #@! TF.GenerationSoftware,Altium Limited,Altium Designer,19.1.8 (144)*
G04*
G04 Layer_Physical_Order=1*
G04 Layer_Color=255*
%FSLAX25Y25*%
%MOIN*%
G70*
G01*
G75*
%ADD15R,0.05512X0.02756*%
%ADD16R,0.05512X0.03150*%
%ADD17O,0.06299X0.03937*%
%ADD18C,0.01968*%
%ADD19R,0.11811X0.13780*%
G36*
X17395Y41198D02*
X17187Y40696D01*
X17150Y40421D01*
X21260D01*
Y39421D01*
X17151D01*
X17187Y39146D01*
X17486Y38424D01*
X17962Y37804D01*
X18582Y37328D01*
X19304Y37029D01*
X20079Y36927D01*
X20175D01*
Y36315D01*
X18646D01*
Y34240D01*
X22402D01*
Y33240D01*
X18646D01*
Y31476D01*
X18446D01*
Y31125D01*
X15720D01*
X15720Y31125D01*
X14868Y30955D01*
X14145Y30472D01*
X14145Y30472D01*
X12992Y29319D01*
X12509Y28597D01*
X12340Y27744D01*
X12340Y27744D01*
Y18082D01*
X12340Y18082D01*
X12509Y17230D01*
X12992Y16508D01*
X14145Y15354D01*
X14145Y15354D01*
X14868Y14872D01*
X15720Y14702D01*
X15720Y14702D01*
X18446D01*
Y14351D01*
X18646D01*
Y12587D01*
X22402D01*
Y11587D01*
X18646D01*
Y9512D01*
X20175D01*
Y8900D01*
X20079D01*
X19304Y8798D01*
X18582Y8499D01*
X17962Y8023D01*
X17486Y7403D01*
X17187Y6680D01*
X17150Y6406D01*
X21260D01*
X25369D01*
X25333Y6680D01*
X25034Y7403D01*
X24629Y7931D01*
Y9512D01*
X26158D01*
Y9860D01*
X28134D01*
Y4866D01*
X34539D01*
Y12756D01*
Y20646D01*
X28134D01*
Y14314D01*
X26842D01*
X26357Y14351D01*
Y18367D01*
Y22304D01*
Y26671D01*
X27934D01*
Y25296D01*
X40124D01*
Y20646D01*
X35539D01*
Y12756D01*
Y4866D01*
X40124D01*
Y3971D01*
X25250D01*
X25060Y4471D01*
X25333Y5131D01*
X25369Y5406D01*
X21260D01*
X17150D01*
X17187Y5131D01*
X17460Y4471D01*
X17270Y3971D01*
X10289D01*
X10099Y4471D01*
X10372Y5131D01*
X10409Y5406D01*
X6299D01*
Y5906D01*
X5799D01*
Y8900D01*
X5118D01*
X4471Y8814D01*
X3971Y9116D01*
Y36711D01*
X4471Y37012D01*
X5118Y36927D01*
X5799D01*
Y39921D01*
X6299D01*
Y40421D01*
X10409D01*
X10372Y40696D01*
X10164Y41198D01*
X10447Y41698D01*
X17112D01*
X17395Y41198D01*
D02*
G37*
%LPC*%
G36*
X10409Y39421D02*
X6799D01*
Y36927D01*
X7480D01*
X8255Y37029D01*
X8977Y37328D01*
X9597Y37804D01*
X10073Y38424D01*
X10372Y39146D01*
X10409Y39421D01*
D02*
G37*
G36*
X7480Y8900D02*
X6799D01*
Y6406D01*
X10409D01*
X10372Y6680D01*
X10073Y7403D01*
X9597Y8023D01*
X8977Y8499D01*
X8255Y8798D01*
X7480Y8900D01*
D02*
G37*
%LPD*%
D15*
X22402Y16929D02*
D03*
Y20945D02*
D03*
Y24882D02*
D03*
Y28898D02*
D03*
D16*
Y12087D02*
D03*
Y33740D02*
D03*
D17*
X6299Y39921D02*
D03*
D03*
Y5906D02*
D03*
X21260D02*
D03*
Y39921D02*
D03*
D18*
X15720Y16929D02*
X22402D01*
Y6815D02*
Y12087D01*
Y33740D02*
Y39012D01*
Y28898D02*
X30551D01*
X35039Y33386D01*
X15720Y28898D02*
X22402D01*
X14567Y27744D02*
X15720Y28898D01*
X14567Y18082D02*
Y27744D01*
Y18082D02*
X15720Y16929D01*
X22402Y12087D02*
X34370D01*
X35039Y12756D01*
D19*
Y33386D02*
D03*
Y12756D02*
D03*
M02*
