G04*
G04 #@! TF.GenerationSoftware,Altium Limited,Altium Designer,19.1.8 (144)*
G04*
G04 Layer_Color=65535*
%FSLAX25Y25*%
%MOIN*%
G70*
G01*
G75*
G36*
X28670Y12987D02*
X28825Y12972D01*
X28970Y12947D01*
X29105Y12912D01*
X29230Y12877D01*
X29345Y12832D01*
X29450Y12787D01*
X29540Y12737D01*
X29625Y12692D01*
X29695Y12647D01*
X29760Y12602D01*
X29810Y12567D01*
X29850Y12532D01*
X29875Y12507D01*
X29895Y12492D01*
X29900Y12487D01*
X29985Y12387D01*
X30060Y12282D01*
X30125Y12172D01*
X30185Y12062D01*
X30230Y11947D01*
X30270Y11837D01*
X30305Y11727D01*
X30330Y11622D01*
X30350Y11522D01*
X30365Y11427D01*
X30375Y11342D01*
X30380Y11272D01*
X30385Y11212D01*
X30390Y11167D01*
Y11132D01*
X30385Y10992D01*
X30375Y10857D01*
X30360Y10732D01*
X30345Y10617D01*
X30335Y10567D01*
X30330Y10522D01*
X30320Y10482D01*
X30315Y10447D01*
X30310Y10417D01*
X30305Y10397D01*
X30300Y10387D01*
Y10382D01*
X30265Y10247D01*
X30230Y10127D01*
X30200Y10017D01*
X30170Y9927D01*
X30145Y9857D01*
X30135Y9827D01*
X30125Y9807D01*
X30120Y9787D01*
X30115Y9772D01*
X30110Y9767D01*
Y9762D01*
X28325D01*
Y11342D01*
X29005D01*
Y10642D01*
X29725D01*
X29730Y10682D01*
Y10872D01*
X29725Y10972D01*
X29715Y11067D01*
X29700Y11157D01*
X29685Y11242D01*
X29660Y11317D01*
X29635Y11387D01*
X29610Y11452D01*
X29580Y11512D01*
X29550Y11567D01*
X29525Y11612D01*
X29500Y11652D01*
X29475Y11682D01*
X29460Y11707D01*
X29445Y11727D01*
X29435Y11737D01*
X29430Y11742D01*
X29370Y11797D01*
X29305Y11847D01*
X29230Y11887D01*
X29155Y11922D01*
X29080Y11952D01*
X29000Y11982D01*
X28845Y12017D01*
X28775Y12032D01*
X28710Y12042D01*
X28645Y12047D01*
X28595Y12052D01*
X28550Y12057D01*
X28520D01*
X28495D01*
X28490D01*
X28385Y12052D01*
X28285Y12042D01*
X28195Y12032D01*
X28120Y12017D01*
X28055Y12002D01*
X28010Y11987D01*
X27980Y11982D01*
X27970Y11977D01*
X27890Y11942D01*
X27815Y11907D01*
X27755Y11867D01*
X27700Y11832D01*
X27660Y11797D01*
X27625Y11772D01*
X27605Y11752D01*
X27600Y11747D01*
X27545Y11687D01*
X27500Y11632D01*
X27465Y11572D01*
X27430Y11522D01*
X27405Y11477D01*
X27390Y11437D01*
X27380Y11417D01*
X27375Y11407D01*
X27350Y11332D01*
X27330Y11257D01*
X27320Y11187D01*
X27310Y11122D01*
X27305Y11067D01*
X27300Y11022D01*
Y10907D01*
X27310Y10837D01*
X27320Y10777D01*
X27330Y10717D01*
X27340Y10672D01*
X27350Y10637D01*
X27355Y10617D01*
X27360Y10607D01*
X27380Y10542D01*
X27405Y10482D01*
X27425Y10427D01*
X27445Y10377D01*
X27465Y10342D01*
X27475Y10312D01*
X27485Y10292D01*
X27490Y10287D01*
X27540Y10202D01*
X27570Y10162D01*
X27595Y10127D01*
X27615Y10097D01*
X27635Y10072D01*
X27645Y10057D01*
X27650Y10052D01*
X27680Y10007D01*
X27710Y9967D01*
X27735Y9937D01*
X27755Y9912D01*
X27770Y9887D01*
X27780Y9872D01*
X27790Y9867D01*
Y9777D01*
X26945D01*
X26895Y9892D01*
X26850Y9997D01*
X26810Y10097D01*
X26775Y10187D01*
X26750Y10262D01*
X26740Y10292D01*
X26730Y10317D01*
X26725Y10337D01*
X26720Y10352D01*
X26715Y10362D01*
Y10367D01*
X26685Y10482D01*
X26665Y10602D01*
X26645Y10727D01*
X26635Y10842D01*
X26630Y10897D01*
Y10987D01*
X26625Y11027D01*
Y11102D01*
X26630Y11262D01*
X26645Y11412D01*
X26670Y11557D01*
X26705Y11687D01*
X26745Y11812D01*
X26790Y11927D01*
X26835Y12032D01*
X26880Y12122D01*
X26930Y12207D01*
X26975Y12282D01*
X27020Y12342D01*
X27060Y12392D01*
X27090Y12432D01*
X27120Y12462D01*
X27135Y12482D01*
X27140Y12487D01*
X27240Y12577D01*
X27345Y12652D01*
X27455Y12722D01*
X27570Y12777D01*
X27685Y12827D01*
X27800Y12867D01*
X27910Y12902D01*
X28015Y12927D01*
X28115Y12952D01*
X28210Y12967D01*
X28290Y12977D01*
X28365Y12982D01*
X28425Y12987D01*
X28465Y12992D01*
X28495D01*
X28505D01*
X28670Y12987D01*
D02*
G37*
G36*
X30315Y8247D02*
X27795D01*
X30315Y6857D01*
Y5982D01*
X26700D01*
Y6812D01*
X28775D01*
X26700Y7967D01*
Y9077D01*
X30315D01*
Y8247D01*
D02*
G37*
G36*
Y3982D02*
X30305Y3852D01*
X30300Y3732D01*
X30290Y3627D01*
X30285Y3582D01*
X30280Y3542D01*
X30275Y3507D01*
Y3472D01*
X30270Y3452D01*
X30265Y3432D01*
Y3417D01*
X30240Y3292D01*
X30205Y3177D01*
X30170Y3077D01*
X30130Y2982D01*
X30090Y2907D01*
X30075Y2877D01*
X30060Y2852D01*
X30045Y2832D01*
X30040Y2817D01*
X30030Y2807D01*
Y2802D01*
X29940Y2682D01*
X29845Y2572D01*
X29740Y2477D01*
X29645Y2397D01*
X29555Y2332D01*
X29520Y2307D01*
X29485Y2287D01*
X29460Y2267D01*
X29435Y2257D01*
X29425Y2247D01*
X29420D01*
X29345Y2207D01*
X29265Y2172D01*
X29110Y2117D01*
X28960Y2077D01*
X28815Y2052D01*
X28755Y2042D01*
X28695Y2032D01*
X28645Y2027D01*
X28600D01*
X28565Y2022D01*
X28535D01*
X28520D01*
X28515D01*
X28325Y2032D01*
X28150Y2057D01*
X28070Y2072D01*
X27995Y2087D01*
X27925Y2107D01*
X27865Y2127D01*
X27805Y2147D01*
X27755Y2167D01*
X27710Y2182D01*
X27675Y2197D01*
X27645Y2212D01*
X27620Y2222D01*
X27610Y2227D01*
X27605Y2232D01*
X27465Y2317D01*
X27345Y2407D01*
X27235Y2497D01*
X27150Y2587D01*
X27080Y2667D01*
X27050Y2702D01*
X27025Y2732D01*
X27010Y2757D01*
X26995Y2777D01*
X26990Y2787D01*
X26985Y2792D01*
X26920Y2902D01*
X26870Y3012D01*
X26830Y3117D01*
X26800Y3212D01*
X26775Y3297D01*
X26765Y3332D01*
X26760Y3362D01*
X26755Y3382D01*
X26750Y3402D01*
Y3417D01*
X26735Y3542D01*
X26720Y3667D01*
X26710Y3787D01*
X26705Y3897D01*
Y3947D01*
X26700Y3987D01*
Y5247D01*
X30315D01*
Y3982D01*
D02*
G37*
G36*
X30118Y42854D02*
Y41905D01*
X26503Y40659D01*
Y41574D01*
X28963Y42364D01*
X26503Y43154D01*
Y44094D01*
X30118Y42854D01*
D02*
G37*
G36*
X28478Y40530D02*
X28628Y40514D01*
X28773Y40490D01*
X28908Y40459D01*
X29033Y40424D01*
X29143Y40385D01*
X29248Y40339D01*
X29343Y40295D01*
X29423Y40255D01*
X29498Y40209D01*
X29558Y40170D01*
X29608Y40135D01*
X29648Y40104D01*
X29673Y40080D01*
X29693Y40064D01*
X29698Y40060D01*
X29783Y39965D01*
X29858Y39869D01*
X29923Y39764D01*
X29983Y39660D01*
X30028Y39549D01*
X30068Y39445D01*
X30103Y39340D01*
X30128Y39235D01*
X30148Y39140D01*
X30163Y39055D01*
X30173Y38974D01*
X30178Y38905D01*
X30183Y38849D01*
X30188Y38805D01*
Y38680D01*
X30183Y38594D01*
X30178Y38524D01*
X30173Y38469D01*
X30168Y38425D01*
X30163Y38390D01*
X30158Y38370D01*
Y38364D01*
X30138Y38249D01*
X30123Y38199D01*
X30113Y38149D01*
X30103Y38105D01*
X30093Y38074D01*
X30088Y38050D01*
Y38045D01*
X30053Y37944D01*
X30038Y37900D01*
X30023Y37859D01*
X30008Y37830D01*
X29998Y37800D01*
X29988Y37784D01*
Y37780D01*
X29943Y37685D01*
X29928Y37644D01*
X29908Y37609D01*
X29898Y37584D01*
X29888Y37565D01*
X29878Y37549D01*
Y37545D01*
X29028D01*
Y37630D01*
X29078Y37685D01*
X29123Y37734D01*
X29143Y37760D01*
X29153Y37775D01*
X29163Y37784D01*
X29168Y37789D01*
X29223Y37859D01*
X29273Y37929D01*
X29288Y37960D01*
X29303Y37984D01*
X29313Y37999D01*
X29318Y38004D01*
X29343Y38050D01*
X29373Y38094D01*
X29393Y38140D01*
X29413Y38184D01*
X29428Y38219D01*
X29443Y38249D01*
X29448Y38274D01*
X29453Y38280D01*
X29473Y38339D01*
X29483Y38399D01*
X29493Y38460D01*
X29503Y38510D01*
Y38554D01*
X29508Y38590D01*
Y38620D01*
X29503Y38684D01*
X29498Y38745D01*
X29488Y38805D01*
X29478Y38855D01*
X29468Y38899D01*
X29458Y38934D01*
X29448Y38954D01*
Y38965D01*
X29423Y39024D01*
X29393Y39085D01*
X29358Y39140D01*
X29328Y39184D01*
X29298Y39224D01*
X29273Y39255D01*
X29258Y39274D01*
X29253Y39279D01*
X29198Y39329D01*
X29138Y39380D01*
X29073Y39419D01*
X29013Y39450D01*
X28963Y39480D01*
X28923Y39500D01*
X28893Y39509D01*
X28883Y39514D01*
X28793Y39544D01*
X28698Y39564D01*
X28603Y39579D01*
X28513Y39590D01*
X28438Y39595D01*
X28403D01*
X28373Y39599D01*
X28348D01*
X28333D01*
X28323D01*
X28318D01*
X28203Y39595D01*
X28098Y39584D01*
X28003Y39575D01*
X27918Y39555D01*
X27853Y39540D01*
X27803Y39529D01*
X27788Y39524D01*
X27773Y39520D01*
X27768Y39514D01*
X27763D01*
X27678Y39480D01*
X27603Y39445D01*
X27538Y39410D01*
X27483Y39375D01*
X27443Y39340D01*
X27413Y39314D01*
X27393Y39299D01*
X27388Y39294D01*
X27333Y39239D01*
X27288Y39184D01*
X27253Y39129D01*
X27223Y39085D01*
X27198Y39044D01*
X27183Y39009D01*
X27178Y38989D01*
X27173Y38985D01*
X27153Y38919D01*
X27133Y38860D01*
X27123Y38800D01*
X27118Y38745D01*
X27113Y38695D01*
X27108Y38660D01*
Y38565D01*
X27118Y38504D01*
X27123Y38454D01*
X27133Y38405D01*
X27143Y38364D01*
X27153Y38335D01*
X27158Y38315D01*
X27163Y38309D01*
X27183Y38254D01*
X27208Y38199D01*
X27228Y38155D01*
X27248Y38109D01*
X27268Y38080D01*
X27278Y38050D01*
X27288Y38034D01*
X27293Y38030D01*
X27353Y37940D01*
X27378Y37905D01*
X27403Y37870D01*
X27423Y37844D01*
X27438Y37819D01*
X27448Y37810D01*
X27453Y37804D01*
X27508Y37734D01*
X27548Y37685D01*
X27568Y37664D01*
X27578Y37650D01*
X27583Y37644D01*
X27588Y37639D01*
Y37545D01*
X26733D01*
X26713Y37580D01*
X26693Y37620D01*
X26658Y37699D01*
X26643Y37734D01*
X26633Y37760D01*
X26628Y37780D01*
X26623Y37784D01*
X26578Y37885D01*
X26563Y37929D01*
X26548Y37969D01*
X26538Y38004D01*
X26528Y38030D01*
X26523Y38045D01*
Y38050D01*
X26493Y38170D01*
X26483Y38225D01*
X26473Y38274D01*
X26463Y38320D01*
X26458Y38355D01*
X26453Y38375D01*
Y38385D01*
X26438Y38515D01*
X26433Y38579D01*
Y38640D01*
X26428Y38695D01*
Y38770D01*
X26433Y38919D01*
X26448Y39059D01*
X26473Y39189D01*
X26508Y39314D01*
X26548Y39430D01*
X26593Y39535D01*
X26638Y39630D01*
X26683Y39720D01*
X26733Y39794D01*
X26778Y39865D01*
X26823Y39924D01*
X26863Y39970D01*
X26893Y40009D01*
X26923Y40040D01*
X26938Y40055D01*
X26943Y40060D01*
X27043Y40145D01*
X27148Y40214D01*
X27258Y40279D01*
X27373Y40334D01*
X27488Y40380D01*
X27598Y40420D01*
X27713Y40450D01*
X27818Y40475D01*
X27918Y40494D01*
X28013Y40510D01*
X28098Y40519D01*
X28168Y40525D01*
X28228Y40530D01*
X28273Y40534D01*
X28303D01*
X28308D01*
X28313D01*
X28478Y40530D01*
D02*
G37*
G36*
Y37214D02*
X28628Y37200D01*
X28773Y37174D01*
X28908Y37145D01*
X29033Y37110D01*
X29143Y37069D01*
X29248Y37025D01*
X29343Y36979D01*
X29423Y36939D01*
X29498Y36895D01*
X29558Y36854D01*
X29608Y36819D01*
X29648Y36790D01*
X29673Y36764D01*
X29693Y36750D01*
X29698Y36744D01*
X29783Y36650D01*
X29858Y36555D01*
X29923Y36450D01*
X29983Y36345D01*
X30028Y36235D01*
X30068Y36130D01*
X30103Y36024D01*
X30128Y35919D01*
X30148Y35824D01*
X30163Y35739D01*
X30173Y35660D01*
X30178Y35590D01*
X30183Y35535D01*
X30188Y35489D01*
Y35364D01*
X30183Y35280D01*
X30178Y35210D01*
X30173Y35155D01*
X30168Y35109D01*
X30163Y35074D01*
X30158Y35054D01*
Y35050D01*
X30138Y34934D01*
X30123Y34885D01*
X30113Y34835D01*
X30103Y34789D01*
X30093Y34760D01*
X30088Y34734D01*
Y34729D01*
X30053Y34629D01*
X30038Y34585D01*
X30023Y34545D01*
X30008Y34514D01*
X29998Y34484D01*
X29988Y34470D01*
Y34464D01*
X29943Y34370D01*
X29928Y34330D01*
X29908Y34295D01*
X29898Y34269D01*
X29888Y34249D01*
X29878Y34234D01*
Y34229D01*
X29028D01*
Y34315D01*
X29078Y34370D01*
X29123Y34420D01*
X29143Y34444D01*
X29153Y34459D01*
X29163Y34470D01*
X29168Y34475D01*
X29223Y34545D01*
X29273Y34615D01*
X29288Y34644D01*
X29303Y34670D01*
X29313Y34685D01*
X29318Y34690D01*
X29343Y34734D01*
X29373Y34780D01*
X29393Y34824D01*
X29413Y34870D01*
X29428Y34905D01*
X29443Y34934D01*
X29448Y34960D01*
X29453Y34964D01*
X29473Y35024D01*
X29483Y35085D01*
X29493Y35144D01*
X29503Y35195D01*
Y35239D01*
X29508Y35274D01*
Y35304D01*
X29503Y35370D01*
X29498Y35429D01*
X29488Y35489D01*
X29478Y35539D01*
X29468Y35585D01*
X29458Y35620D01*
X29448Y35640D01*
Y35649D01*
X29423Y35710D01*
X29393Y35770D01*
X29358Y35824D01*
X29328Y35870D01*
X29298Y35910D01*
X29273Y35939D01*
X29258Y35960D01*
X29253Y35965D01*
X29198Y36015D01*
X29138Y36064D01*
X29073Y36105D01*
X29013Y36134D01*
X28963Y36165D01*
X28923Y36184D01*
X28893Y36195D01*
X28883Y36200D01*
X28793Y36230D01*
X28698Y36250D01*
X28603Y36265D01*
X28513Y36274D01*
X28438Y36279D01*
X28403D01*
X28373Y36285D01*
X28348D01*
X28333D01*
X28323D01*
X28318D01*
X28203Y36279D01*
X28098Y36270D01*
X28003Y36259D01*
X27918Y36239D01*
X27853Y36224D01*
X27803Y36215D01*
X27788Y36209D01*
X27773Y36204D01*
X27768Y36200D01*
X27763D01*
X27678Y36165D01*
X27603Y36130D01*
X27538Y36094D01*
X27483Y36059D01*
X27443Y36024D01*
X27413Y36000D01*
X27393Y35985D01*
X27388Y35980D01*
X27333Y35925D01*
X27288Y35870D01*
X27253Y35814D01*
X27223Y35770D01*
X27198Y35730D01*
X27183Y35695D01*
X27178Y35675D01*
X27173Y35669D01*
X27153Y35605D01*
X27133Y35544D01*
X27123Y35484D01*
X27118Y35429D01*
X27113Y35379D01*
X27108Y35344D01*
Y35250D01*
X27118Y35190D01*
X27123Y35140D01*
X27133Y35089D01*
X27143Y35050D01*
X27153Y35019D01*
X27158Y34999D01*
X27163Y34995D01*
X27183Y34940D01*
X27208Y34885D01*
X27228Y34839D01*
X27248Y34795D01*
X27268Y34765D01*
X27278Y34734D01*
X27288Y34719D01*
X27293Y34714D01*
X27353Y34624D01*
X27378Y34589D01*
X27403Y34554D01*
X27423Y34530D01*
X27438Y34505D01*
X27448Y34495D01*
X27453Y34490D01*
X27508Y34420D01*
X27548Y34370D01*
X27568Y34350D01*
X27578Y34334D01*
X27583Y34330D01*
X27588Y34324D01*
Y34229D01*
X26733D01*
X26713Y34264D01*
X26693Y34304D01*
X26658Y34385D01*
X26643Y34420D01*
X26633Y34444D01*
X26628Y34464D01*
X26623Y34470D01*
X26578Y34569D01*
X26563Y34615D01*
X26548Y34655D01*
X26538Y34690D01*
X26528Y34714D01*
X26523Y34729D01*
Y34734D01*
X26493Y34855D01*
X26483Y34909D01*
X26473Y34960D01*
X26463Y35004D01*
X26458Y35039D01*
X26453Y35059D01*
Y35070D01*
X26438Y35199D01*
X26433Y35265D01*
Y35324D01*
X26428Y35379D01*
Y35454D01*
X26433Y35605D01*
X26448Y35745D01*
X26473Y35875D01*
X26508Y36000D01*
X26548Y36114D01*
X26593Y36219D01*
X26638Y36314D01*
X26683Y36404D01*
X26733Y36479D01*
X26778Y36549D01*
X26823Y36610D01*
X26863Y36654D01*
X26893Y36694D01*
X26923Y36724D01*
X26938Y36740D01*
X26943Y36744D01*
X27043Y36830D01*
X27148Y36900D01*
X27258Y36964D01*
X27373Y37020D01*
X27488Y37064D01*
X27598Y37104D01*
X27713Y37135D01*
X27818Y37159D01*
X27918Y37179D01*
X28013Y37194D01*
X28098Y37205D01*
X28168Y37209D01*
X28228Y37214D01*
X28273Y37220D01*
X28303D01*
X28308D01*
X28313D01*
X28478Y37214D01*
D02*
G37*
%LPC*%
G36*
X29635Y4337D02*
X27375D01*
Y4127D01*
X27380Y4047D01*
Y3922D01*
X27385Y3877D01*
Y3842D01*
X27395Y3767D01*
X27405Y3697D01*
X27425Y3632D01*
X27445Y3572D01*
X27465Y3527D01*
X27485Y3487D01*
X27495Y3467D01*
X27500Y3457D01*
X27555Y3367D01*
X27620Y3292D01*
X27685Y3227D01*
X27750Y3172D01*
X27805Y3132D01*
X27855Y3107D01*
X27885Y3087D01*
X27890Y3082D01*
X27895D01*
X27995Y3042D01*
X28100Y3012D01*
X28200Y2987D01*
X28295Y2972D01*
X28380Y2962D01*
X28415D01*
X28445Y2957D01*
X28470D01*
X28490D01*
X28500D01*
X28505D01*
X28635Y2962D01*
X28750Y2977D01*
X28850Y2997D01*
X28940Y3017D01*
X29010Y3037D01*
X29040Y3047D01*
X29065Y3057D01*
X29085Y3067D01*
X29100Y3072D01*
X29105Y3077D01*
X29110D01*
X29195Y3122D01*
X29275Y3177D01*
X29340Y3232D01*
X29395Y3287D01*
X29440Y3337D01*
X29470Y3377D01*
X29490Y3402D01*
X29495Y3407D01*
Y3412D01*
X29535Y3482D01*
X29565Y3552D01*
X29590Y3622D01*
X29605Y3682D01*
X29615Y3737D01*
X29620Y3777D01*
X29625Y3802D01*
Y3812D01*
X29630Y3892D01*
Y4062D01*
X29635Y4142D01*
Y4337D01*
D02*
G37*
%LPD*%
M02*
