G04*
G04 #@! TF.GenerationSoftware,Altium Limited,Altium Designer,19.1.8 (144)*
G04*
G04 Layer_Color=16711935*
%FSLAX25Y25*%
%MOIN*%
G70*
G01*
G75*
%ADD11C,0.00787*%
%ADD22C,0.01000*%
G36*
X21526Y-6875D02*
X21601D01*
X21691Y-6885D01*
X21786Y-6895D01*
X21881Y-6910D01*
X21971Y-6930D01*
X21981D01*
X22011Y-6940D01*
X22056Y-6955D01*
X22111Y-6970D01*
X22171Y-6995D01*
X22241Y-7020D01*
X22311Y-7055D01*
X22376Y-7090D01*
X22386Y-7095D01*
X22406Y-7110D01*
X22441Y-7135D01*
X22481Y-7170D01*
X22526Y-7210D01*
X22571Y-7260D01*
X22616Y-7315D01*
X22651Y-7380D01*
X22656Y-7390D01*
X22666Y-7410D01*
X22681Y-7445D01*
X22701Y-7495D01*
X22716Y-7555D01*
X22731Y-7620D01*
X22741Y-7695D01*
X22746Y-7775D01*
Y-7780D01*
Y-7790D01*
Y-7805D01*
X22741Y-7825D01*
X22736Y-7885D01*
X22726Y-7960D01*
X22701Y-8045D01*
X22671Y-8135D01*
X22626Y-8225D01*
X22566Y-8315D01*
X22556Y-8325D01*
X22536Y-8350D01*
X22496Y-8390D01*
X22441Y-8440D01*
X22371Y-8490D01*
X22291Y-8540D01*
X22201Y-8580D01*
X22096Y-8615D01*
Y-8650D01*
X22101D01*
X22116Y-8655D01*
X22146Y-8660D01*
X22176Y-8665D01*
X22216Y-8675D01*
X22256Y-8685D01*
X22346Y-8715D01*
X22351D01*
X22366Y-8725D01*
X22391Y-8735D01*
X22421Y-8750D01*
X22461Y-8770D01*
X22501Y-8795D01*
X22541Y-8830D01*
X22586Y-8865D01*
X22591Y-8870D01*
X22606Y-8880D01*
X22626Y-8905D01*
X22651Y-8930D01*
X22676Y-8965D01*
X22711Y-9010D01*
X22736Y-9055D01*
X22766Y-9110D01*
X22771Y-9115D01*
X22776Y-9135D01*
X22791Y-9170D01*
X22806Y-9210D01*
X22816Y-9260D01*
X22831Y-9325D01*
X22836Y-9390D01*
X22841Y-9465D01*
Y-9470D01*
Y-9475D01*
Y-9490D01*
Y-9510D01*
X22836Y-9560D01*
X22831Y-9625D01*
X22816Y-9700D01*
X22801Y-9780D01*
X22776Y-9865D01*
X22741Y-9950D01*
X22736Y-9960D01*
X22721Y-9985D01*
X22701Y-10025D01*
X22666Y-10080D01*
X22626Y-10135D01*
X22576Y-10200D01*
X22516Y-10260D01*
X22451Y-10320D01*
X22441Y-10325D01*
X22416Y-10345D01*
X22376Y-10375D01*
X22326Y-10405D01*
X22256Y-10445D01*
X22181Y-10485D01*
X22096Y-10520D01*
X22001Y-10555D01*
X21996D01*
X21991Y-10560D01*
X21976D01*
X21956Y-10565D01*
X21931Y-10575D01*
X21901Y-10580D01*
X21826Y-10595D01*
X21736Y-10610D01*
X21631Y-10620D01*
X21511Y-10630D01*
X21376Y-10635D01*
X21266D01*
X21226Y-10630D01*
X21176D01*
X21126Y-10625D01*
X21011Y-10620D01*
X20891Y-10605D01*
X20766Y-10590D01*
X20646Y-10565D01*
X20641D01*
X20631Y-10560D01*
X20616D01*
X20596Y-10555D01*
X20541Y-10540D01*
X20471Y-10520D01*
X20396Y-10495D01*
X20316Y-10470D01*
X20236Y-10440D01*
X20161Y-10410D01*
Y-9625D01*
X20246D01*
X20256Y-9630D01*
X20281Y-9645D01*
X20321Y-9670D01*
X20381Y-9700D01*
X20446Y-9735D01*
X20526Y-9775D01*
X20616Y-9815D01*
X20711Y-9850D01*
X20716D01*
X20721Y-9855D01*
X20736Y-9860D01*
X20756Y-9865D01*
X20806Y-9880D01*
X20876Y-9895D01*
X20951Y-9910D01*
X21031Y-9925D01*
X21116Y-9935D01*
X21201Y-9940D01*
X21251D01*
X21286Y-9935D01*
X21331D01*
X21376Y-9930D01*
X21486Y-9920D01*
X21491D01*
X21511Y-9915D01*
X21541Y-9910D01*
X21576Y-9895D01*
X21661Y-9865D01*
X21706Y-9840D01*
X21746Y-9815D01*
X21751Y-9810D01*
X21761Y-9805D01*
X21776Y-9790D01*
X21796Y-9775D01*
X21841Y-9725D01*
X21881Y-9665D01*
Y-9660D01*
X21891Y-9650D01*
X21896Y-9630D01*
X21906Y-9600D01*
X21916Y-9565D01*
X21921Y-9520D01*
X21931Y-9470D01*
Y-9410D01*
Y-9405D01*
Y-9385D01*
X21926Y-9355D01*
X21921Y-9320D01*
X21911Y-9280D01*
X21901Y-9240D01*
X21881Y-9200D01*
X21856Y-9165D01*
X21851Y-9160D01*
X21841Y-9150D01*
X21826Y-9135D01*
X21806Y-9115D01*
X21781Y-9095D01*
X21751Y-9070D01*
X21671Y-9035D01*
X21666D01*
X21651Y-9030D01*
X21626Y-9020D01*
X21591Y-9010D01*
X21551Y-9005D01*
X21506Y-8995D01*
X21451Y-8990D01*
X21391Y-8985D01*
X21331D01*
X21296Y-8980D01*
X20951D01*
Y-8350D01*
X21191D01*
X21236Y-8345D01*
X21286D01*
X21391Y-8340D01*
X21396D01*
X21416Y-8335D01*
X21441D01*
X21471Y-8325D01*
X21551Y-8310D01*
X21626Y-8280D01*
X21631D01*
X21641Y-8270D01*
X21661Y-8260D01*
X21681Y-8245D01*
X21736Y-8210D01*
X21781Y-8155D01*
X21786Y-8150D01*
X21791Y-8140D01*
X21801Y-8120D01*
X21811Y-8095D01*
X21821Y-8060D01*
X21826Y-8020D01*
X21836Y-7975D01*
Y-7925D01*
Y-7920D01*
Y-7905D01*
X21831Y-7890D01*
Y-7865D01*
X21811Y-7805D01*
X21801Y-7775D01*
X21781Y-7750D01*
Y-7745D01*
X21771Y-7740D01*
X21746Y-7710D01*
X21706Y-7675D01*
X21656Y-7640D01*
X21651D01*
X21641Y-7635D01*
X21621Y-7625D01*
X21601Y-7615D01*
X21571Y-7605D01*
X21536Y-7595D01*
X21451Y-7580D01*
X21446D01*
X21431Y-7575D01*
X21411D01*
X21386Y-7570D01*
X21321Y-7565D01*
X21206D01*
X21171Y-7570D01*
X21131Y-7575D01*
X21081Y-7580D01*
X20981Y-7600D01*
X20976D01*
X20956Y-7605D01*
X20931Y-7610D01*
X20896Y-7620D01*
X20856Y-7635D01*
X20811Y-7645D01*
X20716Y-7680D01*
X20711D01*
X20701Y-7685D01*
X20676Y-7695D01*
X20651Y-7705D01*
X20621Y-7720D01*
X20581Y-7740D01*
X20501Y-7780D01*
X20496D01*
X20481Y-7790D01*
X20466Y-7800D01*
X20441Y-7815D01*
X20386Y-7845D01*
X20361Y-7855D01*
X20341Y-7870D01*
X20266D01*
Y-7100D01*
X20276Y-7095D01*
X20301Y-7085D01*
X20341Y-7070D01*
X20396Y-7050D01*
X20471Y-7025D01*
X20556Y-7000D01*
X20656Y-6975D01*
X20766Y-6945D01*
X20771D01*
X20781Y-6940D01*
X20796D01*
X20821Y-6935D01*
X20851Y-6925D01*
X20881Y-6920D01*
X20966Y-6905D01*
X21061Y-6895D01*
X21171Y-6880D01*
X21291Y-6875D01*
X21411Y-6870D01*
X21496D01*
X21526Y-6875D01*
D02*
G37*
G36*
X14141Y-9930D02*
X14886D01*
Y-10560D01*
X12501D01*
Y-9930D01*
X13261D01*
Y-8020D01*
X12501D01*
Y-7430D01*
X12561D01*
X12606Y-7425D01*
X12656D01*
X12711Y-7420D01*
X12831Y-7410D01*
X12836D01*
X12861Y-7405D01*
X12891Y-7400D01*
X12926Y-7395D01*
X13011Y-7370D01*
X13056Y-7355D01*
X13096Y-7340D01*
X13101Y-7335D01*
X13116Y-7330D01*
X13136Y-7315D01*
X13161Y-7300D01*
X13221Y-7250D01*
X13276Y-7185D01*
X13281Y-7180D01*
X13286Y-7165D01*
X13296Y-7145D01*
X13311Y-7115D01*
X13321Y-7080D01*
X13331Y-7035D01*
X13341Y-6990D01*
X13346Y-6935D01*
X14141D01*
Y-9930D01*
D02*
G37*
G36*
X24756Y-6875D02*
X24791D01*
X24886Y-6885D01*
X24986Y-6900D01*
X25096Y-6925D01*
X25206Y-6955D01*
X25306Y-6995D01*
X25311D01*
X25316Y-7000D01*
X25331Y-7010D01*
X25351Y-7020D01*
X25396Y-7045D01*
X25456Y-7085D01*
X25526Y-7140D01*
X25596Y-7200D01*
X25671Y-7275D01*
X25736Y-7360D01*
Y-7365D01*
X25741Y-7370D01*
X25751Y-7385D01*
X25761Y-7405D01*
X25791Y-7455D01*
X25826Y-7525D01*
X25866Y-7610D01*
X25906Y-7710D01*
X25946Y-7825D01*
X25976Y-7950D01*
Y-7955D01*
X25981Y-7965D01*
Y-7985D01*
X25986Y-8010D01*
X25996Y-8045D01*
X26001Y-8085D01*
X26006Y-8130D01*
X26016Y-8180D01*
X26021Y-8240D01*
X26026Y-8300D01*
X26041Y-8435D01*
X26046Y-8590D01*
X26051Y-8755D01*
Y-8760D01*
Y-8775D01*
Y-8800D01*
Y-8835D01*
Y-8875D01*
X26046Y-8920D01*
Y-8975D01*
X26041Y-9030D01*
X26031Y-9160D01*
X26016Y-9295D01*
X25996Y-9440D01*
X25971Y-9575D01*
Y-9580D01*
X25966Y-9590D01*
X25961Y-9610D01*
X25956Y-9635D01*
X25951Y-9665D01*
X25941Y-9700D01*
X25911Y-9780D01*
X25881Y-9870D01*
X25836Y-9970D01*
X25791Y-10065D01*
X25731Y-10160D01*
Y-10165D01*
X25726Y-10170D01*
X25701Y-10200D01*
X25666Y-10240D01*
X25616Y-10290D01*
X25556Y-10350D01*
X25481Y-10410D01*
X25396Y-10465D01*
X25301Y-10515D01*
X25296D01*
X25291Y-10520D01*
X25276Y-10525D01*
X25256Y-10535D01*
X25231Y-10545D01*
X25201Y-10555D01*
X25121Y-10575D01*
X25031Y-10595D01*
X24921Y-10615D01*
X24796Y-10630D01*
X24656Y-10635D01*
X24591D01*
X24561Y-10630D01*
X24521D01*
X24431Y-10620D01*
X24331Y-10605D01*
X24226Y-10585D01*
X24116Y-10555D01*
X24011Y-10515D01*
X24006D01*
X24001Y-10510D01*
X23986Y-10500D01*
X23966Y-10490D01*
X23921Y-10465D01*
X23856Y-10425D01*
X23791Y-10375D01*
X23716Y-10310D01*
X23646Y-10240D01*
X23581Y-10155D01*
Y-10150D01*
X23576Y-10145D01*
X23566Y-10130D01*
X23556Y-10115D01*
X23526Y-10060D01*
X23491Y-9995D01*
X23451Y-9910D01*
X23411Y-9810D01*
X23371Y-9695D01*
X23341Y-9570D01*
Y-9565D01*
X23336Y-9555D01*
Y-9535D01*
X23331Y-9510D01*
X23326Y-9475D01*
X23316Y-9435D01*
X23311Y-9390D01*
X23306Y-9335D01*
X23296Y-9280D01*
X23291Y-9215D01*
X23276Y-9080D01*
X23271Y-8925D01*
X23266Y-8755D01*
Y-8750D01*
Y-8735D01*
Y-8710D01*
Y-8675D01*
Y-8635D01*
X23271Y-8585D01*
Y-8530D01*
X23276Y-8470D01*
X23281Y-8345D01*
X23296Y-8205D01*
X23311Y-8070D01*
X23336Y-7935D01*
Y-7930D01*
X23341Y-7920D01*
X23346Y-7900D01*
X23351Y-7880D01*
X23361Y-7850D01*
X23371Y-7815D01*
X23396Y-7735D01*
X23431Y-7645D01*
X23471Y-7545D01*
X23526Y-7445D01*
X23586Y-7350D01*
Y-7345D01*
X23596Y-7340D01*
X23616Y-7310D01*
X23656Y-7270D01*
X23706Y-7215D01*
X23766Y-7155D01*
X23841Y-7095D01*
X23926Y-7040D01*
X24021Y-6990D01*
X24026D01*
X24031Y-6985D01*
X24046Y-6980D01*
X24066Y-6970D01*
X24096Y-6960D01*
X24126Y-6950D01*
X24201Y-6930D01*
X24291Y-6910D01*
X24401Y-6890D01*
X24521Y-6875D01*
X24656Y-6870D01*
X24721D01*
X24756Y-6875D01*
D02*
G37*
G36*
X16871D02*
X16906D01*
X17001Y-6885D01*
X17101Y-6900D01*
X17211Y-6925D01*
X17321Y-6955D01*
X17421Y-6995D01*
X17426D01*
X17431Y-7000D01*
X17446Y-7010D01*
X17466Y-7020D01*
X17511Y-7045D01*
X17571Y-7085D01*
X17641Y-7140D01*
X17711Y-7200D01*
X17786Y-7275D01*
X17851Y-7360D01*
Y-7365D01*
X17856Y-7370D01*
X17866Y-7385D01*
X17876Y-7405D01*
X17906Y-7455D01*
X17941Y-7525D01*
X17981Y-7610D01*
X18021Y-7710D01*
X18061Y-7825D01*
X18091Y-7950D01*
Y-7955D01*
X18096Y-7965D01*
Y-7985D01*
X18101Y-8010D01*
X18111Y-8045D01*
X18116Y-8085D01*
X18121Y-8130D01*
X18131Y-8180D01*
X18136Y-8240D01*
X18141Y-8300D01*
X18156Y-8435D01*
X18161Y-8590D01*
X18166Y-8755D01*
Y-8760D01*
Y-8775D01*
Y-8800D01*
Y-8835D01*
Y-8875D01*
X18161Y-8920D01*
Y-8975D01*
X18156Y-9030D01*
X18146Y-9160D01*
X18131Y-9295D01*
X18111Y-9440D01*
X18086Y-9575D01*
Y-9580D01*
X18081Y-9590D01*
X18076Y-9610D01*
X18071Y-9635D01*
X18066Y-9665D01*
X18056Y-9700D01*
X18026Y-9780D01*
X17996Y-9870D01*
X17951Y-9970D01*
X17906Y-10065D01*
X17846Y-10160D01*
Y-10165D01*
X17841Y-10170D01*
X17816Y-10200D01*
X17781Y-10240D01*
X17731Y-10290D01*
X17671Y-10350D01*
X17596Y-10410D01*
X17511Y-10465D01*
X17416Y-10515D01*
X17411D01*
X17406Y-10520D01*
X17391Y-10525D01*
X17371Y-10535D01*
X17346Y-10545D01*
X17316Y-10555D01*
X17236Y-10575D01*
X17146Y-10595D01*
X17036Y-10615D01*
X16911Y-10630D01*
X16771Y-10635D01*
X16706D01*
X16676Y-10630D01*
X16636D01*
X16546Y-10620D01*
X16446Y-10605D01*
X16341Y-10585D01*
X16231Y-10555D01*
X16126Y-10515D01*
X16121D01*
X16116Y-10510D01*
X16101Y-10500D01*
X16081Y-10490D01*
X16036Y-10465D01*
X15971Y-10425D01*
X15906Y-10375D01*
X15831Y-10310D01*
X15761Y-10240D01*
X15696Y-10155D01*
Y-10150D01*
X15691Y-10145D01*
X15681Y-10130D01*
X15671Y-10115D01*
X15641Y-10060D01*
X15606Y-9995D01*
X15566Y-9910D01*
X15526Y-9810D01*
X15486Y-9695D01*
X15456Y-9570D01*
Y-9565D01*
X15451Y-9555D01*
Y-9535D01*
X15446Y-9510D01*
X15441Y-9475D01*
X15431Y-9435D01*
X15426Y-9390D01*
X15421Y-9335D01*
X15411Y-9280D01*
X15406Y-9215D01*
X15391Y-9080D01*
X15386Y-8925D01*
X15381Y-8755D01*
Y-8750D01*
Y-8735D01*
Y-8710D01*
Y-8675D01*
Y-8635D01*
X15386Y-8585D01*
Y-8530D01*
X15391Y-8470D01*
X15396Y-8345D01*
X15411Y-8205D01*
X15426Y-8070D01*
X15451Y-7935D01*
Y-7930D01*
X15456Y-7920D01*
X15461Y-7900D01*
X15466Y-7880D01*
X15476Y-7850D01*
X15486Y-7815D01*
X15511Y-7735D01*
X15546Y-7645D01*
X15586Y-7545D01*
X15641Y-7445D01*
X15701Y-7350D01*
Y-7345D01*
X15711Y-7340D01*
X15731Y-7310D01*
X15771Y-7270D01*
X15821Y-7215D01*
X15881Y-7155D01*
X15956Y-7095D01*
X16041Y-7040D01*
X16136Y-6990D01*
X16141D01*
X16146Y-6985D01*
X16161Y-6980D01*
X16181Y-6970D01*
X16211Y-6960D01*
X16241Y-6950D01*
X16316Y-6930D01*
X16406Y-6910D01*
X16516Y-6890D01*
X16636Y-6875D01*
X16771Y-6870D01*
X16836D01*
X16871Y-6875D01*
D02*
G37*
G36*
X18861Y-11455D02*
X18346D01*
X18821Y-9605D01*
X19711D01*
X18861Y-11455D01*
D02*
G37*
G36*
X49865Y28605D02*
X49920D01*
X49975Y28600D01*
X50105Y28590D01*
X50240Y28575D01*
X50385Y28555D01*
X50520Y28530D01*
X50525D01*
X50535Y28525D01*
X50555Y28520D01*
X50580Y28515D01*
X50610Y28510D01*
X50645Y28500D01*
X50725Y28470D01*
X50815Y28440D01*
X50915Y28395D01*
X51010Y28350D01*
X51105Y28290D01*
X51110D01*
X51115Y28285D01*
X51145Y28260D01*
X51185Y28225D01*
X51235Y28175D01*
X51295Y28115D01*
X51355Y28040D01*
X51410Y27955D01*
X51460Y27860D01*
Y27855D01*
X51465Y27850D01*
X51470Y27835D01*
X51480Y27815D01*
X51490Y27790D01*
X51500Y27760D01*
X51520Y27680D01*
X51540Y27590D01*
X51560Y27480D01*
X51575Y27355D01*
X51580Y27215D01*
Y27150D01*
X51575Y27120D01*
Y27080D01*
X51565Y26990D01*
X51550Y26890D01*
X51530Y26785D01*
X51500Y26675D01*
X51460Y26570D01*
Y26565D01*
X51455Y26560D01*
X51445Y26545D01*
X51435Y26525D01*
X51410Y26480D01*
X51370Y26415D01*
X51320Y26350D01*
X51255Y26275D01*
X51185Y26205D01*
X51100Y26140D01*
X51095D01*
X51090Y26135D01*
X51075Y26125D01*
X51060Y26115D01*
X51005Y26085D01*
X50940Y26050D01*
X50855Y26010D01*
X50755Y25970D01*
X50640Y25930D01*
X50515Y25900D01*
X50510D01*
X50500Y25895D01*
X50480D01*
X50455Y25890D01*
X50420Y25885D01*
X50380Y25875D01*
X50335Y25870D01*
X50280Y25865D01*
X50225Y25855D01*
X50160Y25850D01*
X50025Y25835D01*
X49870Y25830D01*
X49700Y25825D01*
X49695D01*
X49680D01*
X49655D01*
X49620D01*
X49580D01*
X49530Y25830D01*
X49475D01*
X49415Y25835D01*
X49290Y25840D01*
X49150Y25855D01*
X49015Y25870D01*
X48880Y25895D01*
X48875D01*
X48865Y25900D01*
X48845Y25905D01*
X48825Y25910D01*
X48795Y25920D01*
X48760Y25930D01*
X48680Y25955D01*
X48590Y25990D01*
X48490Y26030D01*
X48390Y26085D01*
X48295Y26145D01*
X48290D01*
X48285Y26155D01*
X48255Y26175D01*
X48215Y26215D01*
X48160Y26265D01*
X48100Y26325D01*
X48040Y26400D01*
X47985Y26485D01*
X47935Y26580D01*
Y26585D01*
X47930Y26590D01*
X47925Y26605D01*
X47915Y26625D01*
X47905Y26655D01*
X47895Y26685D01*
X47875Y26760D01*
X47855Y26850D01*
X47835Y26960D01*
X47820Y27080D01*
X47815Y27215D01*
Y27280D01*
X47820Y27315D01*
Y27350D01*
X47830Y27445D01*
X47845Y27545D01*
X47870Y27655D01*
X47900Y27765D01*
X47940Y27865D01*
Y27870D01*
X47945Y27875D01*
X47955Y27890D01*
X47965Y27910D01*
X47990Y27955D01*
X48030Y28015D01*
X48085Y28085D01*
X48145Y28155D01*
X48220Y28230D01*
X48305Y28295D01*
X48310D01*
X48315Y28300D01*
X48330Y28310D01*
X48350Y28320D01*
X48400Y28350D01*
X48470Y28385D01*
X48555Y28425D01*
X48655Y28465D01*
X48770Y28505D01*
X48895Y28535D01*
X48900D01*
X48910Y28540D01*
X48930D01*
X48955Y28545D01*
X48990Y28555D01*
X49030Y28560D01*
X49075Y28565D01*
X49125Y28575D01*
X49185Y28580D01*
X49245Y28585D01*
X49380Y28600D01*
X49535Y28605D01*
X49700Y28610D01*
X49705D01*
X49720D01*
X49745D01*
X49780D01*
X49820D01*
X49865Y28605D01*
D02*
G37*
G36*
X50375Y25465D02*
X50425Y25460D01*
X50480Y25450D01*
X50540Y25440D01*
X50610Y25425D01*
X50685Y25405D01*
X50760Y25380D01*
X50835Y25350D01*
X50915Y25315D01*
X50995Y25275D01*
X51070Y25225D01*
X51145Y25170D01*
X51215Y25105D01*
X51220Y25100D01*
X51230Y25090D01*
X51250Y25070D01*
X51270Y25040D01*
X51300Y25000D01*
X51330Y24960D01*
X51365Y24905D01*
X51395Y24845D01*
X51430Y24780D01*
X51465Y24705D01*
X51495Y24625D01*
X51525Y24535D01*
X51545Y24440D01*
X51565Y24340D01*
X51575Y24230D01*
X51580Y24115D01*
Y24060D01*
X51575Y24035D01*
Y24000D01*
X51570Y23925D01*
X51560Y23840D01*
X51540Y23745D01*
X51520Y23645D01*
X51490Y23550D01*
Y23545D01*
X51485Y23540D01*
X51475Y23510D01*
X51450Y23465D01*
X51425Y23405D01*
X51385Y23340D01*
X51340Y23270D01*
X51285Y23200D01*
X51225Y23130D01*
X51215Y23120D01*
X51185Y23095D01*
X51140Y23060D01*
X51080Y23015D01*
X51000Y22965D01*
X50910Y22910D01*
X50805Y22860D01*
X50685Y22815D01*
X50680D01*
X50670Y22810D01*
X50650Y22805D01*
X50625Y22800D01*
X50595Y22790D01*
X50555Y22780D01*
X50510Y22770D01*
X50460Y22765D01*
X50405Y22755D01*
X50345Y22745D01*
X50210Y22725D01*
X50060Y22715D01*
X49895Y22710D01*
X49890D01*
X49875D01*
X49850D01*
X49815D01*
X49775Y22715D01*
X49725D01*
X49670Y22720D01*
X49610Y22725D01*
X49480Y22735D01*
X49340Y22750D01*
X49195Y22775D01*
X49055Y22810D01*
X49050D01*
X49040Y22815D01*
X49020Y22820D01*
X48995Y22830D01*
X48960Y22840D01*
X48925Y22855D01*
X48835Y22890D01*
X48730Y22935D01*
X48620Y22990D01*
X48510Y23060D01*
X48400Y23140D01*
X48395Y23145D01*
X48390Y23150D01*
X48375Y23165D01*
X48355Y23180D01*
X48305Y23230D01*
X48245Y23295D01*
X48180Y23380D01*
X48110Y23480D01*
X48040Y23595D01*
X47980Y23720D01*
Y23725D01*
X47975Y23735D01*
X47965Y23755D01*
X47955Y23785D01*
X47945Y23815D01*
X47930Y23860D01*
X47915Y23905D01*
X47900Y23960D01*
X47890Y24020D01*
X47875Y24080D01*
X47860Y24150D01*
X47850Y24225D01*
X47830Y24390D01*
X47825Y24565D01*
Y24630D01*
X47830Y24675D01*
Y24730D01*
X47835Y24785D01*
X47850Y24915D01*
Y24925D01*
X47855Y24945D01*
X47860Y24975D01*
X47865Y25015D01*
X47875Y25095D01*
X47885Y25135D01*
X47890Y25165D01*
X48595D01*
Y25090D01*
X48590Y25085D01*
X48585Y25070D01*
X48575Y25045D01*
X48565Y25020D01*
X48555Y24985D01*
X48540Y24940D01*
X48525Y24890D01*
Y24885D01*
X48520Y24865D01*
X48510Y24835D01*
X48505Y24795D01*
X48495Y24745D01*
X48490Y24690D01*
X48485Y24625D01*
Y24515D01*
X48490Y24485D01*
Y24450D01*
X48495Y24410D01*
X48515Y24315D01*
X48540Y24210D01*
X48580Y24100D01*
X48635Y23995D01*
X48670Y23945D01*
X48710Y23900D01*
X48720Y23890D01*
X48735Y23880D01*
X48750Y23865D01*
X48775Y23845D01*
X48805Y23825D01*
X48875Y23780D01*
X48965Y23730D01*
X49075Y23685D01*
X49205Y23645D01*
X49350Y23615D01*
X49345Y23625D01*
X49330Y23645D01*
X49310Y23680D01*
X49285Y23730D01*
X49260Y23780D01*
X49225Y23845D01*
X49170Y23975D01*
X49165Y23985D01*
X49160Y24010D01*
X49150Y24045D01*
X49135Y24095D01*
X49120Y24160D01*
X49110Y24230D01*
X49105Y24305D01*
X49100Y24390D01*
Y24425D01*
X49105Y24460D01*
Y24510D01*
X49115Y24565D01*
X49125Y24625D01*
X49135Y24690D01*
X49155Y24755D01*
Y24765D01*
X49165Y24785D01*
X49175Y24815D01*
X49190Y24855D01*
X49215Y24905D01*
X49240Y24955D01*
X49305Y25060D01*
X49310Y25070D01*
X49330Y25090D01*
X49365Y25125D01*
X49405Y25165D01*
X49460Y25215D01*
X49525Y25265D01*
X49600Y25310D01*
X49685Y25355D01*
X49690D01*
X49695Y25360D01*
X49710Y25365D01*
X49725Y25375D01*
X49775Y25390D01*
X49845Y25415D01*
X49930Y25435D01*
X50035Y25450D01*
X50150Y25465D01*
X50280Y25470D01*
X50285D01*
X50305D01*
X50335D01*
X50375Y25465D01*
D02*
G37*
G36*
X52400Y21420D02*
Y20905D01*
X50550Y21380D01*
Y22270D01*
X52400Y21420D01*
D02*
G37*
G36*
X51505Y18225D02*
X50875D01*
Y18985D01*
X48965D01*
Y18225D01*
X48375D01*
Y18285D01*
X48370Y18330D01*
Y18380D01*
X48365Y18435D01*
X48355Y18555D01*
Y18560D01*
X48350Y18585D01*
X48345Y18615D01*
X48340Y18650D01*
X48315Y18735D01*
X48300Y18780D01*
X48285Y18820D01*
X48280Y18825D01*
X48275Y18840D01*
X48260Y18860D01*
X48245Y18885D01*
X48195Y18945D01*
X48130Y19000D01*
X48125Y19005D01*
X48110Y19010D01*
X48090Y19020D01*
X48060Y19035D01*
X48025Y19045D01*
X47980Y19055D01*
X47935Y19065D01*
X47880Y19070D01*
Y19865D01*
X50875D01*
Y20610D01*
X51505D01*
Y18225D01*
D02*
G37*
G36*
Y15060D02*
X50875D01*
Y15820D01*
X48965D01*
Y15060D01*
X48375D01*
Y15120D01*
X48370Y15165D01*
Y15215D01*
X48365Y15270D01*
X48355Y15390D01*
Y15395D01*
X48350Y15420D01*
X48345Y15450D01*
X48340Y15485D01*
X48315Y15570D01*
X48300Y15615D01*
X48285Y15655D01*
X48280Y15660D01*
X48275Y15675D01*
X48260Y15695D01*
X48245Y15720D01*
X48195Y15780D01*
X48130Y15835D01*
X48125Y15840D01*
X48110Y15845D01*
X48090Y15855D01*
X48060Y15870D01*
X48025Y15880D01*
X47980Y15890D01*
X47935Y15900D01*
X47880Y15905D01*
Y16700D01*
X50875D01*
Y17445D01*
X51505D01*
Y15060D01*
D02*
G37*
%LPC*%
G36*
X24656Y-7535D02*
X24646D01*
X24616Y-7540D01*
X24566Y-7550D01*
X24511Y-7570D01*
X24451Y-7600D01*
X24391Y-7650D01*
X24361Y-7680D01*
X24336Y-7720D01*
X24306Y-7760D01*
X24286Y-7810D01*
Y-7815D01*
X24281Y-7825D01*
X24276Y-7840D01*
X24271Y-7865D01*
X24261Y-7895D01*
X24251Y-7930D01*
X24241Y-7975D01*
X24231Y-8030D01*
X24221Y-8090D01*
X24211Y-8160D01*
X24201Y-8235D01*
X24191Y-8320D01*
X24186Y-8415D01*
X24181Y-8520D01*
X24176Y-8635D01*
Y-8755D01*
Y-8760D01*
Y-8785D01*
Y-8820D01*
Y-8865D01*
X24181Y-8915D01*
Y-8980D01*
X24186Y-9050D01*
X24191Y-9120D01*
X24201Y-9275D01*
X24221Y-9430D01*
X24236Y-9505D01*
X24251Y-9575D01*
X24266Y-9640D01*
X24286Y-9695D01*
Y-9700D01*
X24291Y-9705D01*
X24306Y-9740D01*
X24336Y-9780D01*
X24376Y-9830D01*
X24426Y-9885D01*
X24491Y-9925D01*
X24566Y-9960D01*
X24611Y-9965D01*
X24656Y-9970D01*
X24666D01*
X24701Y-9965D01*
X24746Y-9955D01*
X24801Y-9935D01*
X24861Y-9905D01*
X24921Y-9855D01*
X24951Y-9820D01*
X24981Y-9785D01*
X25006Y-9745D01*
X25026Y-9695D01*
Y-9690D01*
X25031Y-9680D01*
X25036Y-9665D01*
X25046Y-9640D01*
X25051Y-9610D01*
X25061Y-9575D01*
X25071Y-9525D01*
X25086Y-9475D01*
X25096Y-9415D01*
X25106Y-9345D01*
X25116Y-9270D01*
X25121Y-9180D01*
X25131Y-9090D01*
X25136Y-8985D01*
X25141Y-8875D01*
Y-8755D01*
Y-8745D01*
Y-8725D01*
Y-8690D01*
Y-8645D01*
X25136Y-8590D01*
Y-8525D01*
X25131Y-8460D01*
X25126Y-8385D01*
X25111Y-8225D01*
X25091Y-8070D01*
X25081Y-7995D01*
X25066Y-7930D01*
X25046Y-7865D01*
X25026Y-7810D01*
Y-7805D01*
X25021Y-7800D01*
X25006Y-7765D01*
X24976Y-7725D01*
X24941Y-7670D01*
X24886Y-7620D01*
X24826Y-7580D01*
X24746Y-7545D01*
X24701Y-7540D01*
X24656Y-7535D01*
D02*
G37*
G36*
X16771D02*
X16761D01*
X16731Y-7540D01*
X16681Y-7550D01*
X16626Y-7570D01*
X16566Y-7600D01*
X16506Y-7650D01*
X16476Y-7680D01*
X16451Y-7720D01*
X16421Y-7760D01*
X16401Y-7810D01*
Y-7815D01*
X16396Y-7825D01*
X16391Y-7840D01*
X16386Y-7865D01*
X16376Y-7895D01*
X16366Y-7930D01*
X16356Y-7975D01*
X16346Y-8030D01*
X16336Y-8090D01*
X16326Y-8160D01*
X16316Y-8235D01*
X16306Y-8320D01*
X16301Y-8415D01*
X16296Y-8520D01*
X16291Y-8635D01*
Y-8755D01*
Y-8760D01*
Y-8785D01*
Y-8820D01*
Y-8865D01*
X16296Y-8915D01*
Y-8980D01*
X16301Y-9050D01*
X16306Y-9120D01*
X16316Y-9275D01*
X16336Y-9430D01*
X16351Y-9505D01*
X16366Y-9575D01*
X16381Y-9640D01*
X16401Y-9695D01*
Y-9700D01*
X16406Y-9705D01*
X16421Y-9740D01*
X16451Y-9780D01*
X16491Y-9830D01*
X16541Y-9885D01*
X16606Y-9925D01*
X16681Y-9960D01*
X16726Y-9965D01*
X16771Y-9970D01*
X16781D01*
X16816Y-9965D01*
X16861Y-9955D01*
X16916Y-9935D01*
X16976Y-9905D01*
X17036Y-9855D01*
X17066Y-9820D01*
X17096Y-9785D01*
X17121Y-9745D01*
X17141Y-9695D01*
Y-9690D01*
X17146Y-9680D01*
X17151Y-9665D01*
X17161Y-9640D01*
X17166Y-9610D01*
X17176Y-9575D01*
X17186Y-9525D01*
X17201Y-9475D01*
X17211Y-9415D01*
X17221Y-9345D01*
X17231Y-9270D01*
X17236Y-9180D01*
X17246Y-9090D01*
X17251Y-8985D01*
X17256Y-8875D01*
Y-8755D01*
Y-8745D01*
Y-8725D01*
Y-8690D01*
Y-8645D01*
X17251Y-8590D01*
Y-8525D01*
X17246Y-8460D01*
X17241Y-8385D01*
X17226Y-8225D01*
X17206Y-8070D01*
X17196Y-7995D01*
X17181Y-7930D01*
X17161Y-7865D01*
X17141Y-7810D01*
Y-7805D01*
X17136Y-7800D01*
X17121Y-7765D01*
X17091Y-7725D01*
X17056Y-7670D01*
X17001Y-7620D01*
X16941Y-7580D01*
X16861Y-7545D01*
X16816Y-7540D01*
X16771Y-7535D01*
D02*
G37*
G36*
X49820Y27700D02*
X49700D01*
X49690D01*
X49670D01*
X49635D01*
X49590D01*
X49535Y27695D01*
X49470D01*
X49405Y27690D01*
X49330Y27685D01*
X49170Y27670D01*
X49015Y27650D01*
X48940Y27640D01*
X48875Y27625D01*
X48810Y27605D01*
X48755Y27585D01*
X48750D01*
X48745Y27580D01*
X48710Y27565D01*
X48670Y27535D01*
X48615Y27500D01*
X48565Y27445D01*
X48525Y27385D01*
X48490Y27305D01*
X48485Y27260D01*
X48480Y27215D01*
Y27205D01*
X48485Y27175D01*
X48495Y27125D01*
X48515Y27070D01*
X48545Y27010D01*
X48595Y26950D01*
X48625Y26920D01*
X48665Y26895D01*
X48705Y26865D01*
X48755Y26845D01*
X48760D01*
X48770Y26840D01*
X48785Y26835D01*
X48810Y26830D01*
X48840Y26820D01*
X48875Y26810D01*
X48920Y26800D01*
X48975Y26790D01*
X49035Y26780D01*
X49105Y26770D01*
X49180Y26760D01*
X49265Y26750D01*
X49360Y26745D01*
X49465Y26740D01*
X49580Y26735D01*
X49700D01*
X49705D01*
X49730D01*
X49765D01*
X49810D01*
X49860Y26740D01*
X49925D01*
X49995Y26745D01*
X50065Y26750D01*
X50220Y26760D01*
X50375Y26780D01*
X50450Y26795D01*
X50520Y26810D01*
X50585Y26825D01*
X50640Y26845D01*
X50645D01*
X50650Y26850D01*
X50685Y26865D01*
X50725Y26895D01*
X50775Y26935D01*
X50830Y26985D01*
X50870Y27050D01*
X50905Y27125D01*
X50910Y27170D01*
X50915Y27215D01*
Y27225D01*
X50910Y27260D01*
X50900Y27305D01*
X50880Y27360D01*
X50850Y27420D01*
X50800Y27480D01*
X50765Y27510D01*
X50730Y27540D01*
X50690Y27565D01*
X50640Y27585D01*
X50635D01*
X50625Y27590D01*
X50610Y27595D01*
X50585Y27605D01*
X50555Y27610D01*
X50520Y27620D01*
X50470Y27630D01*
X50420Y27645D01*
X50360Y27655D01*
X50290Y27665D01*
X50215Y27675D01*
X50125Y27680D01*
X50035Y27690D01*
X49930Y27695D01*
X49820Y27700D01*
D02*
G37*
G36*
X50395Y24560D02*
X50320D01*
X50310D01*
X50290D01*
X50260D01*
X50220Y24555D01*
X50175Y24550D01*
X50125Y24540D01*
X50080Y24530D01*
X50035Y24515D01*
X50030D01*
X50015Y24505D01*
X49995Y24495D01*
X49970Y24485D01*
X49910Y24445D01*
X49850Y24390D01*
X49845Y24385D01*
X49840Y24375D01*
X49830Y24360D01*
X49815Y24340D01*
X49785Y24280D01*
X49760Y24210D01*
Y24205D01*
X49755Y24195D01*
X49750Y24170D01*
X49745Y24145D01*
X49740Y24115D01*
X49735Y24075D01*
X49730Y23995D01*
Y23960D01*
X49735Y23935D01*
X49740Y23875D01*
X49755Y23800D01*
Y23795D01*
X49760Y23785D01*
X49765Y23765D01*
X49770Y23740D01*
X49790Y23680D01*
X49815Y23610D01*
X49820D01*
X49835D01*
X49860D01*
X49900D01*
X49910D01*
X49940D01*
X49980D01*
X50040D01*
X50045D01*
X50055D01*
X50070D01*
X50090D01*
X50150Y23615D01*
X50220D01*
X50300Y23620D01*
X50380Y23630D01*
X50465Y23645D01*
X50540Y23660D01*
X50550Y23665D01*
X50570Y23670D01*
X50605Y23680D01*
X50645Y23700D01*
X50735Y23740D01*
X50780Y23770D01*
X50820Y23800D01*
X50825Y23805D01*
X50835Y23810D01*
X50865Y23840D01*
X50900Y23885D01*
X50935Y23940D01*
Y23945D01*
X50940Y23955D01*
X50945Y23970D01*
X50950Y23995D01*
X50960Y24050D01*
X50965Y24115D01*
Y24140D01*
X50960Y24160D01*
X50950Y24210D01*
X50930Y24270D01*
Y24275D01*
X50925Y24285D01*
X50915Y24300D01*
X50905Y24320D01*
X50870Y24365D01*
X50820Y24415D01*
X50815Y24420D01*
X50805Y24425D01*
X50790Y24440D01*
X50765Y24455D01*
X50705Y24490D01*
X50635Y24520D01*
X50630D01*
X50615Y24525D01*
X50590Y24535D01*
X50555Y24540D01*
X50510Y24550D01*
X50460Y24555D01*
X50395Y24560D01*
D02*
G37*
%LPD*%
D11*
X40551Y0D02*
Y45669D01*
X0D02*
X40551D01*
X0Y0D02*
X40551D01*
X0D02*
Y45669D01*
D22*
Y-8268D02*
X6000Y-6268D01*
X0Y-8268D02*
X6000Y-10268D01*
X34551D02*
X40551Y-8268D01*
X34551Y-6268D02*
X40551Y-8268D01*
X0D02*
X11501D01*
X27051D02*
X40551D01*
X0Y-9268D02*
Y-1394D01*
X40551Y-9268D02*
Y-1394D01*
X49213Y45669D02*
X51213Y39669D01*
X47213D02*
X49213Y45669D01*
X47213Y6000D02*
X49213Y0D01*
X51213Y6000D01*
X49213Y29610D02*
Y45669D01*
Y0D02*
Y14060D01*
X42520Y45669D02*
X50213D01*
X41945Y0D02*
X50213D01*
M02*
