M48
;Layer_Color=9474304
;FILE_FORMAT=2:4
INCH,TZ
;TYPE=PLATED
T1F00S00C0.0138
T3F00S00C0.0394
T4F00S00C0.0591
%
T01
X-6693Y8169
Y10532
X98Y10630
X591Y11220
X2264Y12874
X3346Y12578
X4331Y11122
X3150Y9449
X-1870Y3248
X-295Y1673
X7874Y1811
X9547Y3445
X14764Y8268
Y10433
X14961Y16461
Y18602
X9843Y22672
X8268Y24311
X5203Y22672
X2335Y23075
X2236Y21678
Y21193
X812Y21112
Y21903
X738Y24193
X354Y24193
X-492
X-2165Y22539
X287Y17028
X893
X1673
X5638Y16461
X7186
X8071Y15846
X8297Y14001
X3870Y13681
X-2165Y13189
X-6693Y16240
Y18602
T03
X3248Y1329
X2756Y2313
X5512
X5020Y1329
X5770Y8636
X6770
Y9636
X5770
Y10636
X6770
T04
X14764Y13189
X-6693
M30
