G04*
G04 #@! TF.GenerationSoftware,Altium Limited,Altium Designer,25.5.2 (35)*
G04*
G04 Layer_Color=65535*
%FSLAX25Y25*%
%MOIN*%
G70*
G04*
G04 #@! TF.SameCoordinates,C1035640-1C05-4D54-A290-4328996D6F79*
G04*
G04*
G04 #@! TF.FilePolarity,Positive*
G04*
G01*
G75*
%ADD10C,0.01000*%
%ADD11C,0.00591*%
%ADD12C,0.00787*%
G36*
X21312Y28696D02*
X22564D01*
Y28065D01*
X21312D01*
Y26812D01*
X20665D01*
Y28065D01*
X19413D01*
Y28696D01*
X20665D01*
Y29948D01*
X21312D01*
Y28696D01*
D02*
G37*
G36*
X17383Y30418D02*
X17479Y30413D01*
X17580Y30408D01*
X17676Y30398D01*
X17761Y30387D01*
X17772D01*
X17797Y30382D01*
X17837Y30372D01*
X17888Y30362D01*
X17948Y30342D01*
X18014Y30322D01*
X18080Y30297D01*
X18150Y30261D01*
X18160Y30256D01*
X18181Y30241D01*
X18216Y30221D01*
X18261Y30185D01*
X18307Y30145D01*
X18357Y30100D01*
X18403Y30039D01*
X18443Y29978D01*
X18448Y29968D01*
X18458Y29948D01*
X18474Y29913D01*
X18494Y29862D01*
X18514Y29802D01*
X18529Y29731D01*
X18539Y29655D01*
X18544Y29569D01*
Y29564D01*
Y29559D01*
Y29544D01*
Y29524D01*
X18539Y29473D01*
X18529Y29408D01*
X18509Y29337D01*
X18489Y29256D01*
X18453Y29175D01*
X18408Y29095D01*
X18403Y29085D01*
X18383Y29059D01*
X18352Y29024D01*
X18312Y28978D01*
X18261Y28928D01*
X18196Y28877D01*
X18125Y28827D01*
X18039Y28787D01*
Y28766D01*
X18044D01*
X18054Y28761D01*
X18069Y28756D01*
X18095Y28751D01*
X18125Y28741D01*
X18155Y28731D01*
X18236Y28706D01*
X18322Y28665D01*
X18408Y28615D01*
X18499Y28549D01*
X18580Y28473D01*
X18590Y28463D01*
X18610Y28433D01*
X18645Y28388D01*
X18686Y28317D01*
X18721Y28236D01*
X18756Y28135D01*
X18777Y28019D01*
X18787Y27888D01*
Y27883D01*
Y27878D01*
Y27863D01*
Y27842D01*
X18781Y27792D01*
X18771Y27726D01*
X18761Y27650D01*
X18741Y27570D01*
X18716Y27489D01*
X18680Y27408D01*
X18676Y27398D01*
X18660Y27373D01*
X18640Y27337D01*
X18610Y27287D01*
X18570Y27236D01*
X18519Y27176D01*
X18463Y27120D01*
X18403Y27070D01*
X18393Y27065D01*
X18367Y27044D01*
X18327Y27014D01*
X18271Y26979D01*
X18206Y26943D01*
X18130Y26903D01*
X18044Y26868D01*
X17953Y26837D01*
X17948D01*
X17943Y26832D01*
X17928D01*
X17908Y26827D01*
X17883Y26822D01*
X17857Y26817D01*
X17782Y26807D01*
X17691Y26792D01*
X17585Y26782D01*
X17463Y26777D01*
X17327Y26772D01*
X15868D01*
Y30423D01*
X17292D01*
X17383Y30418D01*
D02*
G37*
G36*
X20827Y9934D02*
X19201D01*
Y10611D01*
X20827D01*
Y9934D01*
D02*
G37*
G36*
X17383Y12308D02*
X17479Y12303D01*
X17580Y12297D01*
X17676Y12287D01*
X17761Y12277D01*
X17772D01*
X17797Y12272D01*
X17837Y12262D01*
X17888Y12252D01*
X17948Y12232D01*
X18014Y12212D01*
X18080Y12186D01*
X18150Y12151D01*
X18160Y12146D01*
X18181Y12131D01*
X18216Y12111D01*
X18261Y12075D01*
X18307Y12035D01*
X18357Y11989D01*
X18403Y11929D01*
X18443Y11868D01*
X18448Y11858D01*
X18458Y11838D01*
X18474Y11802D01*
X18494Y11752D01*
X18514Y11691D01*
X18529Y11621D01*
X18539Y11545D01*
X18544Y11459D01*
Y11454D01*
Y11449D01*
Y11434D01*
Y11414D01*
X18539Y11363D01*
X18529Y11298D01*
X18509Y11227D01*
X18489Y11146D01*
X18453Y11065D01*
X18408Y10984D01*
X18403Y10974D01*
X18383Y10949D01*
X18352Y10914D01*
X18312Y10868D01*
X18261Y10818D01*
X18196Y10767D01*
X18125Y10717D01*
X18039Y10676D01*
Y10656D01*
X18044D01*
X18054Y10651D01*
X18069Y10646D01*
X18095Y10641D01*
X18125Y10631D01*
X18155Y10621D01*
X18236Y10596D01*
X18322Y10555D01*
X18408Y10505D01*
X18499Y10439D01*
X18580Y10363D01*
X18590Y10353D01*
X18610Y10323D01*
X18645Y10277D01*
X18686Y10207D01*
X18721Y10126D01*
X18756Y10025D01*
X18777Y9909D01*
X18787Y9777D01*
Y9772D01*
Y9767D01*
Y9752D01*
Y9732D01*
X18781Y9681D01*
X18771Y9616D01*
X18761Y9540D01*
X18741Y9459D01*
X18716Y9379D01*
X18680Y9298D01*
X18676Y9288D01*
X18660Y9262D01*
X18640Y9227D01*
X18610Y9177D01*
X18570Y9126D01*
X18519Y9065D01*
X18463Y9010D01*
X18403Y8959D01*
X18393Y8954D01*
X18367Y8934D01*
X18327Y8904D01*
X18271Y8868D01*
X18206Y8833D01*
X18130Y8793D01*
X18044Y8757D01*
X17953Y8727D01*
X17948D01*
X17943Y8722D01*
X17928D01*
X17908Y8717D01*
X17883Y8712D01*
X17857Y8707D01*
X17782Y8697D01*
X17691Y8682D01*
X17585Y8671D01*
X17463Y8666D01*
X17327Y8661D01*
X15868D01*
Y12313D01*
X17292D01*
X17383Y12308D01*
D02*
G37*
%LPC*%
G36*
X17120Y29756D02*
X16782D01*
Y28978D01*
X17236D01*
X17256Y28984D01*
X17282Y28989D01*
X17347Y29004D01*
X17418Y29034D01*
X17423D01*
X17438Y29044D01*
X17453Y29054D01*
X17479Y29069D01*
X17529Y29115D01*
X17549Y29145D01*
X17570Y29175D01*
Y29180D01*
X17575Y29191D01*
X17585Y29211D01*
X17595Y29236D01*
X17600Y29266D01*
X17610Y29302D01*
X17615Y29388D01*
Y29393D01*
Y29403D01*
Y29423D01*
X17610Y29443D01*
X17595Y29504D01*
X17570Y29569D01*
Y29574D01*
X17560Y29585D01*
X17549Y29600D01*
X17534Y29625D01*
X17489Y29665D01*
X17463Y29691D01*
X17428Y29706D01*
X17423D01*
X17413Y29711D01*
X17393Y29721D01*
X17368Y29726D01*
X17337Y29736D01*
X17297Y29741D01*
X17211Y29751D01*
X17161D01*
X17120Y29756D01*
D02*
G37*
G36*
X17236Y28352D02*
X16782D01*
Y27438D01*
X17347D01*
X17373Y27443D01*
X17408Y27448D01*
X17448Y27459D01*
X17499Y27469D01*
X17549Y27489D01*
X17600Y27509D01*
X17605Y27514D01*
X17620Y27519D01*
X17645Y27529D01*
X17671Y27549D01*
X17701Y27570D01*
X17731Y27595D01*
X17756Y27630D01*
X17782Y27665D01*
X17787Y27671D01*
X17792Y27686D01*
X17802Y27706D01*
X17812Y27736D01*
X17822Y27772D01*
X17832Y27812D01*
X17842Y27857D01*
Y27903D01*
Y27908D01*
Y27928D01*
X17837Y27958D01*
X17832Y27999D01*
X17812Y28085D01*
X17797Y28125D01*
X17772Y28166D01*
X17766Y28170D01*
X17756Y28181D01*
X17741Y28201D01*
X17721Y28221D01*
X17691Y28241D01*
X17655Y28267D01*
X17615Y28292D01*
X17564Y28312D01*
X17560D01*
X17549Y28317D01*
X17529Y28322D01*
X17504Y28327D01*
X17474Y28332D01*
X17433Y28342D01*
X17388D01*
X17337Y28347D01*
X17277D01*
X17236Y28352D01*
D02*
G37*
G36*
X17120Y11646D02*
X16782D01*
Y10868D01*
X17236D01*
X17256Y10873D01*
X17282Y10878D01*
X17347Y10893D01*
X17418Y10924D01*
X17423D01*
X17438Y10934D01*
X17453Y10944D01*
X17479Y10959D01*
X17529Y11005D01*
X17549Y11035D01*
X17570Y11065D01*
Y11070D01*
X17575Y11080D01*
X17585Y11101D01*
X17595Y11126D01*
X17600Y11156D01*
X17610Y11191D01*
X17615Y11277D01*
Y11282D01*
Y11293D01*
Y11313D01*
X17610Y11333D01*
X17595Y11394D01*
X17570Y11459D01*
Y11464D01*
X17560Y11474D01*
X17549Y11489D01*
X17534Y11515D01*
X17489Y11555D01*
X17463Y11580D01*
X17428Y11596D01*
X17423D01*
X17413Y11601D01*
X17393Y11611D01*
X17368Y11616D01*
X17337Y11626D01*
X17297Y11631D01*
X17211Y11641D01*
X17161D01*
X17120Y11646D01*
D02*
G37*
G36*
X17236Y10242D02*
X16782D01*
Y9328D01*
X17347D01*
X17373Y9333D01*
X17408Y9338D01*
X17448Y9348D01*
X17499Y9358D01*
X17549Y9379D01*
X17600Y9399D01*
X17605Y9404D01*
X17620Y9409D01*
X17645Y9419D01*
X17671Y9439D01*
X17701Y9459D01*
X17731Y9485D01*
X17756Y9520D01*
X17782Y9555D01*
X17787Y9560D01*
X17792Y9576D01*
X17802Y9596D01*
X17812Y9626D01*
X17822Y9661D01*
X17832Y9702D01*
X17842Y9747D01*
Y9793D01*
Y9798D01*
Y9818D01*
X17837Y9848D01*
X17832Y9889D01*
X17812Y9974D01*
X17797Y10015D01*
X17772Y10055D01*
X17766Y10060D01*
X17756Y10070D01*
X17741Y10091D01*
X17721Y10111D01*
X17691Y10131D01*
X17655Y10156D01*
X17615Y10182D01*
X17564Y10202D01*
X17560D01*
X17549Y10207D01*
X17529Y10212D01*
X17504Y10217D01*
X17474Y10222D01*
X17433Y10232D01*
X17388D01*
X17337Y10237D01*
X17277D01*
X17236Y10242D01*
D02*
G37*
%LPD*%
D10*
X33465Y14173D02*
X32677D01*
X33465D01*
D11*
X45945Y14992D02*
Y15748D01*
X35945D02*
X45945D01*
X35945Y14992D02*
Y15748D01*
Y10236D02*
Y10992D01*
Y10236D02*
X45945D01*
Y10992D01*
X40945Y10236D02*
Y15748D01*
X37402Y16535D02*
X38976D01*
X37402D02*
Y29921D01*
X38976D01*
X42913D02*
X44488D01*
Y16535D02*
Y29921D01*
X42913Y16535D02*
X44488D01*
X37402Y23228D02*
X44488D01*
D12*
X20591Y13878D02*
Y14878D01*
Y13878D02*
X30591D01*
X30787D02*
Y14878D01*
X20591Y24492D02*
Y25492D01*
X20787D02*
X30787D01*
Y24492D02*
Y25492D01*
M02*
