G04*
G04 #@! TF.GenerationSoftware,Altium Limited,Altium Designer,25.5.2 (35)*
G04*
G04 Layer_Physical_Order=1*
G04 Layer_Color=255*
%FSLAX25Y25*%
%MOIN*%
G70*
G04*
G04 #@! TF.SameCoordinates,C1035640-1C05-4D54-A290-4328996D6F79*
G04*
G04*
G04 #@! TF.FilePolarity,Positive*
G04*
G01*
G75*
%ADD20R,0.03347X0.03740*%
%ADD21R,0.03937X0.03150*%
%ADD22R,0.03937X0.01181*%
%ADD23R,0.13780X0.11811*%
%ADD24R,0.05512X0.05118*%
%ADD25C,0.00984*%
%ADD26C,0.01968*%
G04:AMPARAMS|DCode=27|XSize=236.22mil|YSize=78.74mil|CornerRadius=19.68mil|HoleSize=0mil|Usage=FLASHONLY|Rotation=0.000|XOffset=0mil|YOffset=0mil|HoleType=Round|Shape=RoundedRectangle|*
%AMROUNDEDRECTD27*
21,1,0.23622,0.03937,0,0,0.0*
21,1,0.19685,0.07874,0,0,0.0*
1,1,0.03937,0.09843,-0.01968*
1,1,0.03937,-0.09843,-0.01968*
1,1,0.03937,-0.09843,0.01968*
1,1,0.03937,0.09843,0.01968*
%
%ADD27ROUNDEDRECTD27*%
%ADD28C,0.02756*%
G36*
X61989Y26378D02*
X44901D01*
Y30137D01*
X36989D01*
Y26606D01*
X22083D01*
X21870Y26564D01*
X21656Y26529D01*
X21636Y26517D01*
X21614Y26513D01*
X21434Y26392D01*
X21410Y26378D01*
X1003D01*
Y38189D01*
X61989D01*
Y26378D01*
D02*
G37*
G36*
Y1003D02*
X48253D01*
Y9563D01*
X48219Y9731D01*
X48205Y9903D01*
X48173Y9964D01*
X48160Y10031D01*
X48064Y10174D01*
X47985Y10327D01*
X47932Y10371D01*
X47894Y10429D01*
X47751Y10524D01*
X47620Y10635D01*
X47610Y10640D01*
Y13949D01*
X48031Y14370D01*
X48031Y14370D01*
X48514Y15093D01*
X48684Y15945D01*
X48684Y15945D01*
Y23622D01*
X61989D01*
Y1003D01*
D02*
G37*
G36*
X44230Y23838D02*
X36989D01*
Y18900D01*
X36424Y18334D01*
X30087D01*
Y14753D01*
X31531D01*
Y14382D01*
X31662Y13722D01*
X32036Y13162D01*
X33426Y11772D01*
X33985Y11398D01*
X34646Y11267D01*
X35513D01*
Y9922D01*
X46377D01*
X47028Y9563D01*
Y1003D01*
X15964D01*
Y13953D01*
X15964Y14192D01*
X16532Y14753D01*
X22054D01*
Y19044D01*
Y24582D01*
X22054Y24594D01*
X22083Y25382D01*
X44230D01*
Y23838D01*
D02*
G37*
G36*
X20830Y19044D02*
Y15977D01*
X16532D01*
X16302Y15931D01*
X16070Y15887D01*
X16067Y15885D01*
X16063Y15884D01*
X15868Y15753D01*
X15671Y15624D01*
X15104Y15063D01*
X15101Y15060D01*
X15098Y15058D01*
X14967Y14862D01*
X14836Y14668D01*
X14835Y14664D01*
X14833Y14661D01*
X14787Y14431D01*
X14739Y14200D01*
X14740Y14196D01*
X14739Y14192D01*
X14739Y13953D01*
Y13953D01*
Y13953D01*
Y1003D01*
X1003D01*
Y23622D01*
X20830D01*
Y19044D01*
D02*
G37*
D20*
X43504Y12992D02*
D03*
X38386D02*
D03*
D21*
X18886Y17528D02*
D03*
Y21819D02*
D03*
D22*
X33256Y18630D02*
D03*
Y22803D02*
D03*
Y16543D02*
D03*
D23*
X55118Y7087D02*
D03*
Y32283D02*
D03*
X7874Y7087D02*
D03*
Y32283D02*
D03*
D24*
X40945Y20079D02*
D03*
Y26378D02*
D03*
D25*
X38681Y17815D02*
Y18012D01*
X40748Y20079D01*
X40945D01*
X33256Y16543D02*
X37409D01*
X38681Y17815D01*
X33256Y22803D02*
X34634D01*
X34732Y22902D02*
Y22915D01*
X34634Y22803D02*
X34732Y22902D01*
X34646Y12992D02*
X38386D01*
X33256Y14382D02*
Y16543D01*
Y14382D02*
X34646Y12992D01*
D26*
X43504D02*
Y13189D01*
X44390Y13878D02*
X46457Y15945D01*
X43504Y13189D02*
X44193Y13878D01*
X46457Y15945D02*
Y30612D01*
X44193Y13878D02*
X44390D01*
X46457Y30612D02*
X48128Y32283D01*
X55118D01*
X47610Y27362D02*
X50197D01*
D27*
X31496Y5118D02*
D03*
Y34252D02*
D03*
D28*
X50394Y21260D02*
D03*
X54724D02*
D03*
X59055D02*
D03*
Y17323D02*
D03*
X54724D02*
D03*
X50394D02*
D03*
X8268Y21260D02*
D03*
X12598D02*
D03*
X3937D02*
D03*
Y17323D02*
D03*
X8268D02*
D03*
X12598D02*
D03*
M02*
