G04*
G04 #@! TF.GenerationSoftware,Altium Limited,Altium Designer,25.5.2 (35)*
G04*
G04 Layer_Color=16711935*
%FSLAX25Y25*%
%MOIN*%
G70*
G04*
G04 #@! TF.SameCoordinates,60885573-F3C6-4070-B52C-B727696974C1*
G04*
G04*
G04 #@! TF.FilePolarity,Positive*
G04*
G01*
G75*
%ADD10C,0.01000*%
%ADD12C,0.00787*%
G36*
X28616Y-16432D02*
X28671D01*
X28726Y-16438D01*
X28856Y-16453D01*
X28866D01*
X28886Y-16457D01*
X28916Y-16463D01*
X28956Y-16467D01*
X29036Y-16477D01*
X29076Y-16488D01*
X29106Y-16492D01*
Y-17198D01*
X29031D01*
X29026Y-17192D01*
X29011Y-17188D01*
X28986Y-17177D01*
X28961Y-17167D01*
X28926Y-17157D01*
X28881Y-17142D01*
X28831Y-17128D01*
X28826D01*
X28806Y-17122D01*
X28776Y-17112D01*
X28736Y-17108D01*
X28686Y-17097D01*
X28631Y-17093D01*
X28566Y-17087D01*
X28456D01*
X28426Y-17093D01*
X28391D01*
X28351Y-17097D01*
X28256Y-17118D01*
X28151Y-17142D01*
X28041Y-17183D01*
X27936Y-17237D01*
X27886Y-17273D01*
X27841Y-17312D01*
X27831Y-17323D01*
X27821Y-17337D01*
X27806Y-17353D01*
X27786Y-17378D01*
X27766Y-17408D01*
X27721Y-17478D01*
X27671Y-17568D01*
X27626Y-17677D01*
X27586Y-17808D01*
X27556Y-17953D01*
X27566Y-17947D01*
X27586Y-17932D01*
X27621Y-17912D01*
X27671Y-17887D01*
X27721Y-17863D01*
X27786Y-17828D01*
X27916Y-17773D01*
X27926Y-17767D01*
X27951Y-17763D01*
X27986Y-17752D01*
X28036Y-17738D01*
X28101Y-17722D01*
X28171Y-17713D01*
X28246Y-17707D01*
X28331Y-17703D01*
X28366D01*
X28401Y-17707D01*
X28451D01*
X28506Y-17718D01*
X28566Y-17728D01*
X28631Y-17738D01*
X28696Y-17758D01*
X28706D01*
X28726Y-17767D01*
X28756Y-17777D01*
X28796Y-17793D01*
X28846Y-17818D01*
X28896Y-17842D01*
X29001Y-17908D01*
X29011Y-17912D01*
X29031Y-17932D01*
X29066Y-17967D01*
X29106Y-18008D01*
X29156Y-18063D01*
X29206Y-18127D01*
X29251Y-18203D01*
X29296Y-18288D01*
Y-18293D01*
X29301Y-18297D01*
X29306Y-18313D01*
X29316Y-18327D01*
X29331Y-18377D01*
X29356Y-18448D01*
X29376Y-18532D01*
X29391Y-18638D01*
X29406Y-18753D01*
X29411Y-18882D01*
Y-18888D01*
Y-18907D01*
Y-18937D01*
X29406Y-18978D01*
X29401Y-19027D01*
X29391Y-19083D01*
X29381Y-19142D01*
X29366Y-19212D01*
X29346Y-19287D01*
X29321Y-19363D01*
X29291Y-19437D01*
X29256Y-19518D01*
X29216Y-19598D01*
X29166Y-19672D01*
X29111Y-19748D01*
X29046Y-19817D01*
X29041Y-19823D01*
X29031Y-19832D01*
X29011Y-19852D01*
X28981Y-19873D01*
X28941Y-19903D01*
X28901Y-19932D01*
X28846Y-19967D01*
X28786Y-19997D01*
X28721Y-20032D01*
X28646Y-20067D01*
X28566Y-20098D01*
X28476Y-20128D01*
X28381Y-20147D01*
X28281Y-20167D01*
X28171Y-20177D01*
X28056Y-20182D01*
X28001D01*
X27976Y-20177D01*
X27941D01*
X27866Y-20173D01*
X27781Y-20163D01*
X27686Y-20143D01*
X27586Y-20122D01*
X27491Y-20092D01*
X27486D01*
X27481Y-20087D01*
X27451Y-20077D01*
X27406Y-20053D01*
X27346Y-20028D01*
X27281Y-19987D01*
X27211Y-19942D01*
X27141Y-19887D01*
X27071Y-19827D01*
X27061Y-19817D01*
X27036Y-19787D01*
X27001Y-19742D01*
X26956Y-19682D01*
X26906Y-19602D01*
X26851Y-19512D01*
X26801Y-19408D01*
X26756Y-19287D01*
Y-19283D01*
X26751Y-19273D01*
X26746Y-19252D01*
X26741Y-19228D01*
X26731Y-19197D01*
X26721Y-19158D01*
X26711Y-19113D01*
X26706Y-19062D01*
X26696Y-19007D01*
X26686Y-18947D01*
X26666Y-18812D01*
X26656Y-18663D01*
X26651Y-18497D01*
Y-18493D01*
Y-18477D01*
Y-18452D01*
Y-18417D01*
X26656Y-18377D01*
Y-18327D01*
X26661Y-18272D01*
X26666Y-18213D01*
X26676Y-18082D01*
X26691Y-17943D01*
X26716Y-17797D01*
X26751Y-17658D01*
Y-17652D01*
X26756Y-17642D01*
X26761Y-17623D01*
X26771Y-17597D01*
X26781Y-17562D01*
X26796Y-17527D01*
X26831Y-17437D01*
X26876Y-17333D01*
X26931Y-17222D01*
X27001Y-17112D01*
X27081Y-17003D01*
X27086Y-16997D01*
X27091Y-16993D01*
X27106Y-16977D01*
X27121Y-16958D01*
X27171Y-16907D01*
X27236Y-16848D01*
X27321Y-16782D01*
X27421Y-16713D01*
X27536Y-16643D01*
X27661Y-16582D01*
X27666D01*
X27676Y-16578D01*
X27696Y-16567D01*
X27726Y-16557D01*
X27756Y-16547D01*
X27801Y-16533D01*
X27846Y-16518D01*
X27901Y-16502D01*
X27961Y-16492D01*
X28021Y-16477D01*
X28091Y-16463D01*
X28166Y-16453D01*
X28331Y-16432D01*
X28506Y-16428D01*
X28571D01*
X28616Y-16432D01*
D02*
G37*
G36*
X25361Y-19478D02*
X26106D01*
Y-20108D01*
X23721D01*
Y-19478D01*
X24481D01*
Y-17568D01*
X23721D01*
Y-16977D01*
X23781D01*
X23826Y-16973D01*
X23876D01*
X23931Y-16967D01*
X24051Y-16958D01*
X24056D01*
X24081Y-16952D01*
X24111Y-16948D01*
X24146Y-16942D01*
X24231Y-16917D01*
X24276Y-16903D01*
X24316Y-16887D01*
X24321Y-16883D01*
X24336Y-16878D01*
X24356Y-16862D01*
X24381Y-16848D01*
X24441Y-16797D01*
X24496Y-16733D01*
X24501Y-16727D01*
X24506Y-16713D01*
X24516Y-16692D01*
X24531Y-16662D01*
X24541Y-16627D01*
X24551Y-16582D01*
X24561Y-16537D01*
X24566Y-16483D01*
X25361D01*
Y-19478D01*
D02*
G37*
G36*
X35976Y-16422D02*
X36011D01*
X36106Y-16432D01*
X36206Y-16447D01*
X36316Y-16473D01*
X36426Y-16502D01*
X36526Y-16543D01*
X36531D01*
X36536Y-16547D01*
X36551Y-16557D01*
X36571Y-16567D01*
X36616Y-16592D01*
X36676Y-16633D01*
X36746Y-16688D01*
X36816Y-16748D01*
X36891Y-16823D01*
X36956Y-16907D01*
Y-16913D01*
X36961Y-16917D01*
X36971Y-16932D01*
X36981Y-16952D01*
X37011Y-17003D01*
X37046Y-17073D01*
X37086Y-17157D01*
X37126Y-17257D01*
X37166Y-17372D01*
X37196Y-17497D01*
Y-17503D01*
X37201Y-17513D01*
Y-17533D01*
X37206Y-17558D01*
X37216Y-17593D01*
X37221Y-17632D01*
X37226Y-17677D01*
X37236Y-17728D01*
X37241Y-17787D01*
X37246Y-17848D01*
X37261Y-17982D01*
X37266Y-18137D01*
X37271Y-18303D01*
Y-18307D01*
Y-18323D01*
Y-18348D01*
Y-18383D01*
Y-18422D01*
X37266Y-18467D01*
Y-18522D01*
X37261Y-18577D01*
X37251Y-18708D01*
X37236Y-18843D01*
X37216Y-18988D01*
X37191Y-19123D01*
Y-19128D01*
X37186Y-19138D01*
X37181Y-19158D01*
X37176Y-19183D01*
X37171Y-19212D01*
X37161Y-19248D01*
X37131Y-19328D01*
X37101Y-19418D01*
X37056Y-19518D01*
X37011Y-19613D01*
X36951Y-19707D01*
Y-19713D01*
X36946Y-19717D01*
X36921Y-19748D01*
X36886Y-19787D01*
X36836Y-19838D01*
X36776Y-19897D01*
X36701Y-19958D01*
X36616Y-20012D01*
X36521Y-20063D01*
X36516D01*
X36511Y-20067D01*
X36496Y-20073D01*
X36476Y-20083D01*
X36451Y-20092D01*
X36421Y-20102D01*
X36341Y-20122D01*
X36251Y-20143D01*
X36141Y-20163D01*
X36016Y-20177D01*
X35876Y-20182D01*
X35811D01*
X35781Y-20177D01*
X35741D01*
X35651Y-20167D01*
X35551Y-20153D01*
X35446Y-20132D01*
X35336Y-20102D01*
X35231Y-20063D01*
X35226D01*
X35221Y-20057D01*
X35206Y-20048D01*
X35186Y-20038D01*
X35141Y-20012D01*
X35076Y-19973D01*
X35011Y-19922D01*
X34936Y-19858D01*
X34866Y-19787D01*
X34801Y-19703D01*
Y-19697D01*
X34796Y-19692D01*
X34786Y-19678D01*
X34776Y-19662D01*
X34746Y-19608D01*
X34711Y-19543D01*
X34671Y-19457D01*
X34631Y-19357D01*
X34591Y-19242D01*
X34561Y-19117D01*
Y-19113D01*
X34556Y-19103D01*
Y-19083D01*
X34551Y-19058D01*
X34546Y-19023D01*
X34536Y-18982D01*
X34531Y-18937D01*
X34526Y-18882D01*
X34516Y-18827D01*
X34511Y-18763D01*
X34496Y-18628D01*
X34491Y-18473D01*
X34486Y-18303D01*
Y-18297D01*
Y-18282D01*
Y-18258D01*
Y-18223D01*
Y-18182D01*
X34491Y-18133D01*
Y-18078D01*
X34496Y-18018D01*
X34501Y-17892D01*
X34516Y-17752D01*
X34531Y-17617D01*
X34556Y-17482D01*
Y-17478D01*
X34561Y-17468D01*
X34566Y-17447D01*
X34571Y-17427D01*
X34581Y-17398D01*
X34591Y-17363D01*
X34616Y-17282D01*
X34651Y-17192D01*
X34691Y-17093D01*
X34746Y-16993D01*
X34806Y-16897D01*
Y-16893D01*
X34816Y-16887D01*
X34836Y-16858D01*
X34876Y-16817D01*
X34926Y-16762D01*
X34986Y-16702D01*
X35061Y-16643D01*
X35146Y-16588D01*
X35241Y-16537D01*
X35246D01*
X35251Y-16533D01*
X35266Y-16527D01*
X35286Y-16518D01*
X35316Y-16508D01*
X35346Y-16498D01*
X35421Y-16477D01*
X35511Y-16457D01*
X35621Y-16438D01*
X35741Y-16422D01*
X35876Y-16418D01*
X35941D01*
X35976Y-16422D01*
D02*
G37*
G36*
X32811D02*
X32846D01*
X32941Y-16432D01*
X33041Y-16447D01*
X33151Y-16473D01*
X33261Y-16502D01*
X33361Y-16543D01*
X33366D01*
X33371Y-16547D01*
X33386Y-16557D01*
X33406Y-16567D01*
X33451Y-16592D01*
X33511Y-16633D01*
X33581Y-16688D01*
X33651Y-16748D01*
X33726Y-16823D01*
X33791Y-16907D01*
Y-16913D01*
X33796Y-16917D01*
X33806Y-16932D01*
X33816Y-16952D01*
X33846Y-17003D01*
X33881Y-17073D01*
X33921Y-17157D01*
X33961Y-17257D01*
X34001Y-17372D01*
X34031Y-17497D01*
Y-17503D01*
X34036Y-17513D01*
Y-17533D01*
X34041Y-17558D01*
X34051Y-17593D01*
X34056Y-17632D01*
X34061Y-17677D01*
X34071Y-17728D01*
X34076Y-17787D01*
X34081Y-17848D01*
X34096Y-17982D01*
X34101Y-18137D01*
X34106Y-18303D01*
Y-18307D01*
Y-18323D01*
Y-18348D01*
Y-18383D01*
Y-18422D01*
X34101Y-18467D01*
Y-18522D01*
X34096Y-18577D01*
X34086Y-18708D01*
X34071Y-18843D01*
X34051Y-18988D01*
X34026Y-19123D01*
Y-19128D01*
X34021Y-19138D01*
X34016Y-19158D01*
X34011Y-19183D01*
X34006Y-19212D01*
X33996Y-19248D01*
X33966Y-19328D01*
X33936Y-19418D01*
X33891Y-19518D01*
X33846Y-19613D01*
X33786Y-19707D01*
Y-19713D01*
X33781Y-19717D01*
X33756Y-19748D01*
X33721Y-19787D01*
X33671Y-19838D01*
X33611Y-19897D01*
X33536Y-19958D01*
X33451Y-20012D01*
X33356Y-20063D01*
X33351D01*
X33346Y-20067D01*
X33331Y-20073D01*
X33311Y-20083D01*
X33286Y-20092D01*
X33256Y-20102D01*
X33176Y-20122D01*
X33086Y-20143D01*
X32976Y-20163D01*
X32851Y-20177D01*
X32711Y-20182D01*
X32646D01*
X32616Y-20177D01*
X32576D01*
X32486Y-20167D01*
X32386Y-20153D01*
X32281Y-20132D01*
X32171Y-20102D01*
X32066Y-20063D01*
X32061D01*
X32056Y-20057D01*
X32041Y-20048D01*
X32021Y-20038D01*
X31976Y-20012D01*
X31911Y-19973D01*
X31846Y-19922D01*
X31771Y-19858D01*
X31701Y-19787D01*
X31636Y-19703D01*
Y-19697D01*
X31631Y-19692D01*
X31621Y-19678D01*
X31611Y-19662D01*
X31581Y-19608D01*
X31546Y-19543D01*
X31506Y-19457D01*
X31466Y-19357D01*
X31426Y-19242D01*
X31396Y-19117D01*
Y-19113D01*
X31391Y-19103D01*
Y-19083D01*
X31386Y-19058D01*
X31381Y-19023D01*
X31371Y-18982D01*
X31366Y-18937D01*
X31361Y-18882D01*
X31351Y-18827D01*
X31346Y-18763D01*
X31331Y-18628D01*
X31326Y-18473D01*
X31321Y-18303D01*
Y-18297D01*
Y-18282D01*
Y-18258D01*
Y-18223D01*
Y-18182D01*
X31326Y-18133D01*
Y-18078D01*
X31331Y-18018D01*
X31336Y-17892D01*
X31351Y-17752D01*
X31366Y-17617D01*
X31391Y-17482D01*
Y-17478D01*
X31396Y-17468D01*
X31401Y-17447D01*
X31406Y-17427D01*
X31416Y-17398D01*
X31426Y-17363D01*
X31451Y-17282D01*
X31486Y-17192D01*
X31526Y-17093D01*
X31581Y-16993D01*
X31641Y-16897D01*
Y-16893D01*
X31651Y-16887D01*
X31671Y-16858D01*
X31711Y-16817D01*
X31761Y-16762D01*
X31821Y-16702D01*
X31896Y-16643D01*
X31981Y-16588D01*
X32076Y-16537D01*
X32081D01*
X32086Y-16533D01*
X32101Y-16527D01*
X32121Y-16518D01*
X32151Y-16508D01*
X32181Y-16498D01*
X32256Y-16477D01*
X32346Y-16457D01*
X32456Y-16438D01*
X32576Y-16422D01*
X32711Y-16418D01*
X32776D01*
X32811Y-16422D01*
D02*
G37*
G36*
X30081Y-21002D02*
X29566D01*
X30041Y-19152D01*
X30931D01*
X30081Y-21002D01*
D02*
G37*
G36*
X78195Y25455D02*
X78250D01*
X78305Y25450D01*
X78435Y25440D01*
X78570Y25425D01*
X78715Y25405D01*
X78850Y25380D01*
X78855D01*
X78865Y25375D01*
X78885Y25370D01*
X78910Y25365D01*
X78940Y25360D01*
X78975Y25350D01*
X79055Y25320D01*
X79145Y25290D01*
X79245Y25245D01*
X79340Y25200D01*
X79435Y25140D01*
X79440D01*
X79445Y25135D01*
X79475Y25110D01*
X79515Y25075D01*
X79565Y25025D01*
X79625Y24965D01*
X79685Y24890D01*
X79740Y24805D01*
X79790Y24710D01*
Y24705D01*
X79795Y24700D01*
X79800Y24685D01*
X79810Y24665D01*
X79820Y24640D01*
X79830Y24610D01*
X79850Y24530D01*
X79870Y24440D01*
X79890Y24330D01*
X79905Y24205D01*
X79910Y24065D01*
Y24000D01*
X79905Y23970D01*
Y23930D01*
X79895Y23840D01*
X79880Y23740D01*
X79860Y23635D01*
X79830Y23525D01*
X79790Y23420D01*
Y23415D01*
X79785Y23410D01*
X79775Y23395D01*
X79765Y23375D01*
X79740Y23330D01*
X79700Y23265D01*
X79650Y23200D01*
X79585Y23125D01*
X79515Y23055D01*
X79430Y22990D01*
X79425D01*
X79420Y22985D01*
X79405Y22975D01*
X79390Y22965D01*
X79335Y22935D01*
X79270Y22900D01*
X79185Y22860D01*
X79085Y22820D01*
X78970Y22780D01*
X78845Y22750D01*
X78840D01*
X78830Y22745D01*
X78810D01*
X78785Y22740D01*
X78750Y22735D01*
X78710Y22725D01*
X78665Y22720D01*
X78610Y22715D01*
X78555Y22705D01*
X78490Y22700D01*
X78355Y22685D01*
X78200Y22680D01*
X78030Y22675D01*
X78025D01*
X78010D01*
X77985D01*
X77950D01*
X77910D01*
X77860Y22680D01*
X77805D01*
X77745Y22685D01*
X77620Y22690D01*
X77480Y22705D01*
X77345Y22720D01*
X77210Y22745D01*
X77205D01*
X77195Y22750D01*
X77175Y22755D01*
X77155Y22760D01*
X77125Y22770D01*
X77090Y22780D01*
X77010Y22805D01*
X76920Y22840D01*
X76820Y22880D01*
X76720Y22935D01*
X76625Y22995D01*
X76620D01*
X76615Y23005D01*
X76585Y23025D01*
X76545Y23065D01*
X76490Y23115D01*
X76430Y23175D01*
X76370Y23250D01*
X76315Y23335D01*
X76265Y23430D01*
Y23435D01*
X76260Y23440D01*
X76255Y23455D01*
X76245Y23475D01*
X76235Y23505D01*
X76225Y23535D01*
X76205Y23610D01*
X76185Y23700D01*
X76165Y23810D01*
X76150Y23930D01*
X76145Y24065D01*
Y24130D01*
X76150Y24165D01*
Y24200D01*
X76160Y24295D01*
X76175Y24395D01*
X76200Y24505D01*
X76230Y24615D01*
X76270Y24715D01*
Y24720D01*
X76275Y24725D01*
X76285Y24740D01*
X76295Y24760D01*
X76320Y24805D01*
X76360Y24865D01*
X76415Y24935D01*
X76475Y25005D01*
X76550Y25080D01*
X76635Y25145D01*
X76640D01*
X76645Y25150D01*
X76660Y25160D01*
X76680Y25170D01*
X76730Y25200D01*
X76800Y25235D01*
X76885Y25275D01*
X76985Y25315D01*
X77100Y25355D01*
X77225Y25385D01*
X77230D01*
X77240Y25390D01*
X77260D01*
X77285Y25395D01*
X77320Y25405D01*
X77360Y25410D01*
X77405Y25415D01*
X77455Y25425D01*
X77515Y25430D01*
X77575Y25435D01*
X77710Y25450D01*
X77865Y25455D01*
X78030Y25460D01*
X78035D01*
X78050D01*
X78075D01*
X78110D01*
X78150D01*
X78195Y25455D01*
D02*
G37*
G36*
Y22290D02*
X78250D01*
X78305Y22285D01*
X78435Y22275D01*
X78570Y22260D01*
X78715Y22240D01*
X78850Y22215D01*
X78855D01*
X78865Y22210D01*
X78885Y22205D01*
X78910Y22200D01*
X78940Y22195D01*
X78975Y22185D01*
X79055Y22155D01*
X79145Y22125D01*
X79245Y22080D01*
X79340Y22035D01*
X79435Y21975D01*
X79440D01*
X79445Y21970D01*
X79475Y21945D01*
X79515Y21910D01*
X79565Y21860D01*
X79625Y21800D01*
X79685Y21725D01*
X79740Y21640D01*
X79790Y21545D01*
Y21540D01*
X79795Y21535D01*
X79800Y21520D01*
X79810Y21500D01*
X79820Y21475D01*
X79830Y21445D01*
X79850Y21365D01*
X79870Y21275D01*
X79890Y21165D01*
X79905Y21040D01*
X79910Y20900D01*
Y20835D01*
X79905Y20805D01*
Y20765D01*
X79895Y20675D01*
X79880Y20575D01*
X79860Y20470D01*
X79830Y20360D01*
X79790Y20255D01*
Y20250D01*
X79785Y20245D01*
X79775Y20230D01*
X79765Y20210D01*
X79740Y20165D01*
X79700Y20100D01*
X79650Y20035D01*
X79585Y19960D01*
X79515Y19890D01*
X79430Y19825D01*
X79425D01*
X79420Y19820D01*
X79405Y19810D01*
X79390Y19800D01*
X79335Y19770D01*
X79270Y19735D01*
X79185Y19695D01*
X79085Y19655D01*
X78970Y19615D01*
X78845Y19585D01*
X78840D01*
X78830Y19580D01*
X78810D01*
X78785Y19575D01*
X78750Y19570D01*
X78710Y19560D01*
X78665Y19555D01*
X78610Y19550D01*
X78555Y19540D01*
X78490Y19535D01*
X78355Y19520D01*
X78200Y19515D01*
X78030Y19510D01*
X78025D01*
X78010D01*
X77985D01*
X77950D01*
X77910D01*
X77860Y19515D01*
X77805D01*
X77745Y19520D01*
X77620Y19525D01*
X77480Y19540D01*
X77345Y19555D01*
X77210Y19580D01*
X77205D01*
X77195Y19585D01*
X77175Y19590D01*
X77155Y19595D01*
X77125Y19605D01*
X77090Y19615D01*
X77010Y19640D01*
X76920Y19675D01*
X76820Y19715D01*
X76720Y19770D01*
X76625Y19830D01*
X76620D01*
X76615Y19840D01*
X76585Y19860D01*
X76545Y19900D01*
X76490Y19950D01*
X76430Y20010D01*
X76370Y20085D01*
X76315Y20170D01*
X76265Y20265D01*
Y20270D01*
X76260Y20275D01*
X76255Y20290D01*
X76245Y20310D01*
X76235Y20340D01*
X76225Y20370D01*
X76205Y20445D01*
X76185Y20535D01*
X76165Y20645D01*
X76150Y20765D01*
X76145Y20900D01*
Y20965D01*
X76150Y21000D01*
Y21035D01*
X76160Y21130D01*
X76175Y21230D01*
X76200Y21340D01*
X76230Y21450D01*
X76270Y21550D01*
Y21555D01*
X76275Y21560D01*
X76285Y21575D01*
X76295Y21595D01*
X76320Y21640D01*
X76360Y21700D01*
X76415Y21770D01*
X76475Y21840D01*
X76550Y21915D01*
X76635Y21980D01*
X76640D01*
X76645Y21985D01*
X76660Y21995D01*
X76680Y22005D01*
X76730Y22035D01*
X76800Y22070D01*
X76885Y22110D01*
X76985Y22150D01*
X77100Y22190D01*
X77225Y22220D01*
X77230D01*
X77240Y22225D01*
X77260D01*
X77285Y22230D01*
X77320Y22240D01*
X77360Y22245D01*
X77405Y22250D01*
X77455Y22260D01*
X77515Y22265D01*
X77575Y22270D01*
X77710Y22285D01*
X77865Y22290D01*
X78030Y22295D01*
X78035D01*
X78050D01*
X78075D01*
X78110D01*
X78150D01*
X78195Y22290D01*
D02*
G37*
G36*
X79835Y18110D02*
X78880D01*
Y18970D01*
X79835D01*
Y18110D01*
D02*
G37*
G36*
X78195Y17570D02*
X78250D01*
X78305Y17565D01*
X78435Y17555D01*
X78570Y17540D01*
X78715Y17520D01*
X78850Y17495D01*
X78855D01*
X78865Y17490D01*
X78885Y17485D01*
X78910Y17480D01*
X78940Y17475D01*
X78975Y17465D01*
X79055Y17435D01*
X79145Y17405D01*
X79245Y17360D01*
X79340Y17315D01*
X79435Y17255D01*
X79440D01*
X79445Y17250D01*
X79475Y17225D01*
X79515Y17190D01*
X79565Y17140D01*
X79625Y17080D01*
X79685Y17005D01*
X79740Y16920D01*
X79790Y16825D01*
Y16820D01*
X79795Y16815D01*
X79800Y16800D01*
X79810Y16780D01*
X79820Y16755D01*
X79830Y16725D01*
X79850Y16645D01*
X79870Y16555D01*
X79890Y16445D01*
X79905Y16320D01*
X79910Y16180D01*
Y16115D01*
X79905Y16085D01*
Y16045D01*
X79895Y15955D01*
X79880Y15855D01*
X79860Y15750D01*
X79830Y15640D01*
X79790Y15535D01*
Y15530D01*
X79785Y15525D01*
X79775Y15510D01*
X79765Y15490D01*
X79740Y15445D01*
X79700Y15380D01*
X79650Y15315D01*
X79585Y15240D01*
X79515Y15170D01*
X79430Y15105D01*
X79425D01*
X79420Y15100D01*
X79405Y15090D01*
X79390Y15080D01*
X79335Y15050D01*
X79270Y15015D01*
X79185Y14975D01*
X79085Y14935D01*
X78970Y14895D01*
X78845Y14865D01*
X78840D01*
X78830Y14860D01*
X78810D01*
X78785Y14855D01*
X78750Y14850D01*
X78710Y14840D01*
X78665Y14835D01*
X78610Y14830D01*
X78555Y14820D01*
X78490Y14815D01*
X78355Y14800D01*
X78200Y14795D01*
X78030Y14790D01*
X78025D01*
X78010D01*
X77985D01*
X77950D01*
X77910D01*
X77860Y14795D01*
X77805D01*
X77745Y14800D01*
X77620Y14805D01*
X77480Y14820D01*
X77345Y14835D01*
X77210Y14860D01*
X77205D01*
X77195Y14865D01*
X77175Y14870D01*
X77155Y14875D01*
X77125Y14885D01*
X77090Y14895D01*
X77010Y14920D01*
X76920Y14955D01*
X76820Y14995D01*
X76720Y15050D01*
X76625Y15110D01*
X76620D01*
X76615Y15120D01*
X76585Y15140D01*
X76545Y15180D01*
X76490Y15230D01*
X76430Y15290D01*
X76370Y15365D01*
X76315Y15450D01*
X76265Y15545D01*
Y15550D01*
X76260Y15555D01*
X76255Y15570D01*
X76245Y15590D01*
X76235Y15620D01*
X76225Y15650D01*
X76205Y15725D01*
X76185Y15815D01*
X76165Y15925D01*
X76150Y16045D01*
X76145Y16180D01*
Y16245D01*
X76150Y16280D01*
Y16315D01*
X76160Y16410D01*
X76175Y16510D01*
X76200Y16620D01*
X76230Y16730D01*
X76270Y16830D01*
Y16835D01*
X76275Y16840D01*
X76285Y16855D01*
X76295Y16875D01*
X76320Y16920D01*
X76360Y16980D01*
X76415Y17050D01*
X76475Y17120D01*
X76550Y17195D01*
X76635Y17260D01*
X76640D01*
X76645Y17265D01*
X76660Y17275D01*
X76680Y17285D01*
X76730Y17315D01*
X76800Y17350D01*
X76885Y17390D01*
X76985Y17430D01*
X77100Y17470D01*
X77225Y17500D01*
X77230D01*
X77240Y17505D01*
X77260D01*
X77285Y17510D01*
X77320Y17520D01*
X77360Y17525D01*
X77405Y17530D01*
X77455Y17540D01*
X77515Y17545D01*
X77575Y17550D01*
X77710Y17565D01*
X77865Y17570D01*
X78030Y17575D01*
X78035D01*
X78050D01*
X78075D01*
X78110D01*
X78150D01*
X78195Y17570D01*
D02*
G37*
G36*
X79835Y11910D02*
X79205D01*
Y12670D01*
X77295D01*
Y11910D01*
X76705D01*
Y11970D01*
X76700Y12015D01*
Y12065D01*
X76695Y12120D01*
X76685Y12240D01*
Y12245D01*
X76680Y12270D01*
X76675Y12300D01*
X76670Y12335D01*
X76645Y12420D01*
X76630Y12465D01*
X76615Y12505D01*
X76610Y12510D01*
X76605Y12525D01*
X76590Y12545D01*
X76575Y12570D01*
X76525Y12630D01*
X76460Y12685D01*
X76455Y12690D01*
X76440Y12695D01*
X76420Y12705D01*
X76390Y12720D01*
X76355Y12730D01*
X76310Y12740D01*
X76265Y12750D01*
X76210Y12755D01*
Y13550D01*
X79205D01*
Y14295D01*
X79835D01*
Y11910D01*
D02*
G37*
%LPC*%
G36*
X27936Y-18332D02*
X27901D01*
X27876Y-18338D01*
X27816Y-18342D01*
X27741Y-18358D01*
X27736D01*
X27726Y-18362D01*
X27706Y-18368D01*
X27681Y-18372D01*
X27621Y-18393D01*
X27551Y-18417D01*
Y-18422D01*
Y-18438D01*
Y-18462D01*
Y-18503D01*
Y-18512D01*
Y-18542D01*
Y-18583D01*
Y-18643D01*
Y-18647D01*
Y-18657D01*
Y-18673D01*
Y-18692D01*
X27556Y-18753D01*
Y-18823D01*
X27561Y-18902D01*
X27571Y-18982D01*
X27586Y-19068D01*
X27601Y-19142D01*
X27606Y-19152D01*
X27611Y-19173D01*
X27621Y-19207D01*
X27641Y-19248D01*
X27681Y-19338D01*
X27711Y-19383D01*
X27741Y-19422D01*
X27746Y-19428D01*
X27751Y-19437D01*
X27781Y-19467D01*
X27826Y-19502D01*
X27881Y-19537D01*
X27886D01*
X27896Y-19543D01*
X27911Y-19547D01*
X27936Y-19553D01*
X27991Y-19563D01*
X28056Y-19568D01*
X28081D01*
X28101Y-19563D01*
X28151Y-19553D01*
X28211Y-19533D01*
X28216D01*
X28226Y-19527D01*
X28241Y-19518D01*
X28261Y-19508D01*
X28306Y-19473D01*
X28356Y-19422D01*
X28361Y-19418D01*
X28366Y-19408D01*
X28381Y-19392D01*
X28396Y-19367D01*
X28431Y-19308D01*
X28461Y-19238D01*
Y-19232D01*
X28466Y-19218D01*
X28476Y-19193D01*
X28481Y-19158D01*
X28491Y-19113D01*
X28496Y-19062D01*
X28501Y-18997D01*
Y-18923D01*
Y-18913D01*
Y-18892D01*
Y-18862D01*
X28496Y-18823D01*
X28491Y-18778D01*
X28481Y-18728D01*
X28471Y-18683D01*
X28456Y-18638D01*
Y-18632D01*
X28446Y-18618D01*
X28436Y-18598D01*
X28426Y-18573D01*
X28386Y-18512D01*
X28331Y-18452D01*
X28326Y-18448D01*
X28316Y-18442D01*
X28301Y-18432D01*
X28281Y-18417D01*
X28221Y-18387D01*
X28151Y-18362D01*
X28146D01*
X28136Y-18358D01*
X28111Y-18352D01*
X28086Y-18348D01*
X28056Y-18342D01*
X28016Y-18338D01*
X27936Y-18332D01*
D02*
G37*
G36*
X35876Y-17083D02*
X35866D01*
X35836Y-17087D01*
X35786Y-17097D01*
X35731Y-17118D01*
X35671Y-17147D01*
X35611Y-17198D01*
X35581Y-17228D01*
X35556Y-17267D01*
X35526Y-17308D01*
X35506Y-17357D01*
Y-17363D01*
X35501Y-17372D01*
X35496Y-17388D01*
X35491Y-17413D01*
X35481Y-17443D01*
X35471Y-17478D01*
X35461Y-17523D01*
X35451Y-17578D01*
X35441Y-17638D01*
X35431Y-17707D01*
X35421Y-17783D01*
X35411Y-17867D01*
X35406Y-17963D01*
X35401Y-18067D01*
X35396Y-18182D01*
Y-18303D01*
Y-18307D01*
Y-18332D01*
Y-18368D01*
Y-18413D01*
X35401Y-18462D01*
Y-18528D01*
X35406Y-18598D01*
X35411Y-18667D01*
X35421Y-18823D01*
X35441Y-18978D01*
X35456Y-19052D01*
X35471Y-19123D01*
X35486Y-19187D01*
X35506Y-19242D01*
Y-19248D01*
X35511Y-19252D01*
X35526Y-19287D01*
X35556Y-19328D01*
X35596Y-19377D01*
X35646Y-19433D01*
X35711Y-19473D01*
X35786Y-19508D01*
X35831Y-19512D01*
X35876Y-19518D01*
X35886D01*
X35921Y-19512D01*
X35966Y-19502D01*
X36021Y-19482D01*
X36081Y-19453D01*
X36141Y-19402D01*
X36171Y-19367D01*
X36201Y-19332D01*
X36226Y-19293D01*
X36246Y-19242D01*
Y-19238D01*
X36251Y-19228D01*
X36256Y-19212D01*
X36266Y-19187D01*
X36271Y-19158D01*
X36281Y-19123D01*
X36291Y-19072D01*
X36306Y-19023D01*
X36316Y-18962D01*
X36326Y-18892D01*
X36336Y-18817D01*
X36341Y-18728D01*
X36351Y-18638D01*
X36356Y-18532D01*
X36361Y-18422D01*
Y-18303D01*
Y-18293D01*
Y-18272D01*
Y-18237D01*
Y-18192D01*
X36356Y-18137D01*
Y-18072D01*
X36351Y-18008D01*
X36346Y-17932D01*
X36331Y-17773D01*
X36311Y-17617D01*
X36301Y-17542D01*
X36286Y-17478D01*
X36266Y-17413D01*
X36246Y-17357D01*
Y-17353D01*
X36241Y-17347D01*
X36226Y-17312D01*
X36196Y-17273D01*
X36161Y-17218D01*
X36106Y-17167D01*
X36046Y-17128D01*
X35966Y-17093D01*
X35921Y-17087D01*
X35876Y-17083D01*
D02*
G37*
G36*
X32711D02*
X32701D01*
X32671Y-17087D01*
X32621Y-17097D01*
X32566Y-17118D01*
X32506Y-17147D01*
X32446Y-17198D01*
X32416Y-17228D01*
X32391Y-17267D01*
X32361Y-17308D01*
X32341Y-17357D01*
Y-17363D01*
X32336Y-17372D01*
X32331Y-17388D01*
X32326Y-17413D01*
X32316Y-17443D01*
X32306Y-17478D01*
X32296Y-17523D01*
X32286Y-17578D01*
X32276Y-17638D01*
X32266Y-17707D01*
X32256Y-17783D01*
X32246Y-17867D01*
X32241Y-17963D01*
X32236Y-18067D01*
X32231Y-18182D01*
Y-18303D01*
Y-18307D01*
Y-18332D01*
Y-18368D01*
Y-18413D01*
X32236Y-18462D01*
Y-18528D01*
X32241Y-18598D01*
X32246Y-18667D01*
X32256Y-18823D01*
X32276Y-18978D01*
X32291Y-19052D01*
X32306Y-19123D01*
X32321Y-19187D01*
X32341Y-19242D01*
Y-19248D01*
X32346Y-19252D01*
X32361Y-19287D01*
X32391Y-19328D01*
X32431Y-19377D01*
X32481Y-19433D01*
X32546Y-19473D01*
X32621Y-19508D01*
X32666Y-19512D01*
X32711Y-19518D01*
X32721D01*
X32756Y-19512D01*
X32801Y-19502D01*
X32856Y-19482D01*
X32916Y-19453D01*
X32976Y-19402D01*
X33006Y-19367D01*
X33036Y-19332D01*
X33061Y-19293D01*
X33081Y-19242D01*
Y-19238D01*
X33086Y-19228D01*
X33091Y-19212D01*
X33101Y-19187D01*
X33106Y-19158D01*
X33116Y-19123D01*
X33126Y-19072D01*
X33141Y-19023D01*
X33151Y-18962D01*
X33161Y-18892D01*
X33171Y-18817D01*
X33176Y-18728D01*
X33186Y-18638D01*
X33191Y-18532D01*
X33196Y-18422D01*
Y-18303D01*
Y-18293D01*
Y-18272D01*
Y-18237D01*
Y-18192D01*
X33191Y-18137D01*
Y-18072D01*
X33186Y-18008D01*
X33181Y-17932D01*
X33166Y-17773D01*
X33146Y-17617D01*
X33136Y-17542D01*
X33121Y-17478D01*
X33101Y-17413D01*
X33081Y-17357D01*
Y-17353D01*
X33076Y-17347D01*
X33061Y-17312D01*
X33031Y-17273D01*
X32996Y-17218D01*
X32941Y-17167D01*
X32881Y-17128D01*
X32801Y-17093D01*
X32756Y-17087D01*
X32711Y-17083D01*
D02*
G37*
G36*
X78150Y24550D02*
X78030D01*
X78020D01*
X78000D01*
X77965D01*
X77920D01*
X77865Y24545D01*
X77800D01*
X77735Y24540D01*
X77660Y24535D01*
X77500Y24520D01*
X77345Y24500D01*
X77270Y24490D01*
X77205Y24475D01*
X77140Y24455D01*
X77085Y24435D01*
X77080D01*
X77075Y24430D01*
X77040Y24415D01*
X77000Y24385D01*
X76945Y24350D01*
X76895Y24295D01*
X76855Y24235D01*
X76820Y24155D01*
X76815Y24110D01*
X76810Y24065D01*
Y24055D01*
X76815Y24025D01*
X76825Y23975D01*
X76845Y23920D01*
X76875Y23860D01*
X76925Y23800D01*
X76955Y23770D01*
X76995Y23745D01*
X77035Y23715D01*
X77085Y23695D01*
X77090D01*
X77100Y23690D01*
X77115Y23685D01*
X77140Y23680D01*
X77170Y23670D01*
X77205Y23660D01*
X77250Y23650D01*
X77305Y23640D01*
X77365Y23630D01*
X77435Y23620D01*
X77510Y23610D01*
X77595Y23600D01*
X77690Y23595D01*
X77795Y23590D01*
X77910Y23585D01*
X78030D01*
X78035D01*
X78060D01*
X78095D01*
X78140D01*
X78190Y23590D01*
X78255D01*
X78325Y23595D01*
X78395Y23600D01*
X78550Y23610D01*
X78705Y23630D01*
X78780Y23645D01*
X78850Y23660D01*
X78915Y23675D01*
X78970Y23695D01*
X78975D01*
X78980Y23700D01*
X79015Y23715D01*
X79055Y23745D01*
X79105Y23785D01*
X79160Y23835D01*
X79200Y23900D01*
X79235Y23975D01*
X79240Y24020D01*
X79245Y24065D01*
Y24075D01*
X79240Y24110D01*
X79230Y24155D01*
X79210Y24210D01*
X79180Y24270D01*
X79130Y24330D01*
X79095Y24360D01*
X79060Y24390D01*
X79020Y24415D01*
X78970Y24435D01*
X78965D01*
X78955Y24440D01*
X78940Y24445D01*
X78915Y24455D01*
X78885Y24460D01*
X78850Y24470D01*
X78800Y24480D01*
X78750Y24495D01*
X78690Y24505D01*
X78620Y24515D01*
X78545Y24525D01*
X78455Y24530D01*
X78365Y24540D01*
X78260Y24545D01*
X78150Y24550D01*
D02*
G37*
G36*
Y21385D02*
X78030D01*
X78020D01*
X78000D01*
X77965D01*
X77920D01*
X77865Y21380D01*
X77800D01*
X77735Y21375D01*
X77660Y21370D01*
X77500Y21355D01*
X77345Y21335D01*
X77270Y21325D01*
X77205Y21310D01*
X77140Y21290D01*
X77085Y21270D01*
X77080D01*
X77075Y21265D01*
X77040Y21250D01*
X77000Y21220D01*
X76945Y21185D01*
X76895Y21130D01*
X76855Y21070D01*
X76820Y20990D01*
X76815Y20945D01*
X76810Y20900D01*
Y20890D01*
X76815Y20860D01*
X76825Y20810D01*
X76845Y20755D01*
X76875Y20695D01*
X76925Y20635D01*
X76955Y20605D01*
X76995Y20580D01*
X77035Y20550D01*
X77085Y20530D01*
X77090D01*
X77100Y20525D01*
X77115Y20520D01*
X77140Y20515D01*
X77170Y20505D01*
X77205Y20495D01*
X77250Y20485D01*
X77305Y20475D01*
X77365Y20465D01*
X77435Y20455D01*
X77510Y20445D01*
X77595Y20435D01*
X77690Y20430D01*
X77795Y20425D01*
X77910Y20420D01*
X78030D01*
X78035D01*
X78060D01*
X78095D01*
X78140D01*
X78190Y20425D01*
X78255D01*
X78325Y20430D01*
X78395Y20435D01*
X78550Y20445D01*
X78705Y20465D01*
X78780Y20480D01*
X78850Y20495D01*
X78915Y20510D01*
X78970Y20530D01*
X78975D01*
X78980Y20535D01*
X79015Y20550D01*
X79055Y20580D01*
X79105Y20620D01*
X79160Y20670D01*
X79200Y20735D01*
X79235Y20810D01*
X79240Y20855D01*
X79245Y20900D01*
Y20910D01*
X79240Y20945D01*
X79230Y20990D01*
X79210Y21045D01*
X79180Y21105D01*
X79130Y21165D01*
X79095Y21195D01*
X79060Y21225D01*
X79020Y21250D01*
X78970Y21270D01*
X78965D01*
X78955Y21275D01*
X78940Y21280D01*
X78915Y21290D01*
X78885Y21295D01*
X78850Y21305D01*
X78800Y21315D01*
X78750Y21330D01*
X78690Y21340D01*
X78620Y21350D01*
X78545Y21360D01*
X78455Y21365D01*
X78365Y21375D01*
X78260Y21380D01*
X78150Y21385D01*
D02*
G37*
G36*
Y16665D02*
X78030D01*
X78020D01*
X78000D01*
X77965D01*
X77920D01*
X77865Y16660D01*
X77800D01*
X77735Y16655D01*
X77660Y16650D01*
X77500Y16635D01*
X77345Y16615D01*
X77270Y16605D01*
X77205Y16590D01*
X77140Y16570D01*
X77085Y16550D01*
X77080D01*
X77075Y16545D01*
X77040Y16530D01*
X77000Y16500D01*
X76945Y16465D01*
X76895Y16410D01*
X76855Y16350D01*
X76820Y16270D01*
X76815Y16225D01*
X76810Y16180D01*
Y16170D01*
X76815Y16140D01*
X76825Y16090D01*
X76845Y16035D01*
X76875Y15975D01*
X76925Y15915D01*
X76955Y15885D01*
X76995Y15860D01*
X77035Y15830D01*
X77085Y15810D01*
X77090D01*
X77100Y15805D01*
X77115Y15800D01*
X77140Y15795D01*
X77170Y15785D01*
X77205Y15775D01*
X77250Y15765D01*
X77305Y15755D01*
X77365Y15745D01*
X77435Y15735D01*
X77510Y15725D01*
X77595Y15715D01*
X77690Y15710D01*
X77795Y15705D01*
X77910Y15700D01*
X78030D01*
X78035D01*
X78060D01*
X78095D01*
X78140D01*
X78190Y15705D01*
X78255D01*
X78325Y15710D01*
X78395Y15715D01*
X78550Y15725D01*
X78705Y15745D01*
X78780Y15760D01*
X78850Y15775D01*
X78915Y15790D01*
X78970Y15810D01*
X78975D01*
X78980Y15815D01*
X79015Y15830D01*
X79055Y15860D01*
X79105Y15900D01*
X79160Y15950D01*
X79200Y16015D01*
X79235Y16090D01*
X79240Y16135D01*
X79245Y16180D01*
Y16190D01*
X79240Y16225D01*
X79230Y16270D01*
X79210Y16325D01*
X79180Y16385D01*
X79130Y16445D01*
X79095Y16475D01*
X79060Y16505D01*
X79020Y16530D01*
X78970Y16550D01*
X78965D01*
X78955Y16555D01*
X78940Y16560D01*
X78915Y16570D01*
X78885Y16575D01*
X78850Y16585D01*
X78800Y16595D01*
X78750Y16610D01*
X78690Y16620D01*
X78620Y16630D01*
X78545Y16640D01*
X78455Y16645D01*
X78365Y16655D01*
X78260Y16660D01*
X78150Y16665D01*
D02*
G37*
%LPD*%
D10*
X62992Y-18815D02*
Y-1394D01*
X0Y-18815D02*
Y-1394D01*
X38271Y-17815D02*
X62992D01*
X0D02*
X22721D01*
X56992Y-15815D02*
X62992Y-17815D01*
X56992Y-19815D02*
X62992Y-17815D01*
X0D02*
X6000Y-19815D01*
X0Y-17815D02*
X6000Y-15815D01*
X64386Y0D02*
X78953D01*
X64386Y39370D02*
X78953D01*
X77953Y0D02*
Y10910D01*
Y26460D02*
Y39370D01*
Y0D02*
X79953Y6000D01*
X75953D02*
X77953Y0D01*
X75953Y33370D02*
X77953Y39370D01*
X79953Y33370D01*
D12*
X62992Y0D02*
Y39370D01*
X0Y0D02*
X62992D01*
X0Y39370D02*
X62992D01*
X0Y0D02*
Y39370D01*
M02*
