G04*
G04 #@! TF.GenerationSoftware,Altium Limited,Altium Designer,25.5.2 (35)*
G04*
G04 Layer_Color=16711935*
%FSLAX25Y25*%
%MOIN*%
G70*
G04*
G04 #@! TF.SameCoordinates,C1035640-1C05-4D54-A290-4328996D6F79*
G04*
G04*
G04 #@! TF.FilePolarity,Positive*
G04*
G01*
G75*
%ADD10C,0.01000*%
%ADD12C,0.00787*%
G36*
X28616Y-16432D02*
X28671D01*
X28726Y-16438D01*
X28856Y-16453D01*
X28866D01*
X28886Y-16457D01*
X28916Y-16463D01*
X28956Y-16467D01*
X29036Y-16477D01*
X29076Y-16488D01*
X29106Y-16492D01*
Y-17198D01*
X29031D01*
X29026Y-17192D01*
X29011Y-17188D01*
X28986Y-17177D01*
X28961Y-17167D01*
X28926Y-17157D01*
X28881Y-17142D01*
X28831Y-17128D01*
X28826D01*
X28806Y-17122D01*
X28776Y-17112D01*
X28736Y-17108D01*
X28686Y-17097D01*
X28631Y-17093D01*
X28566Y-17087D01*
X28456D01*
X28426Y-17093D01*
X28391D01*
X28351Y-17097D01*
X28256Y-17118D01*
X28151Y-17142D01*
X28041Y-17183D01*
X27936Y-17237D01*
X27886Y-17273D01*
X27841Y-17312D01*
X27831Y-17323D01*
X27821Y-17337D01*
X27806Y-17353D01*
X27786Y-17378D01*
X27766Y-17408D01*
X27721Y-17478D01*
X27671Y-17568D01*
X27626Y-17677D01*
X27586Y-17808D01*
X27556Y-17953D01*
X27566Y-17947D01*
X27586Y-17932D01*
X27621Y-17912D01*
X27671Y-17887D01*
X27721Y-17863D01*
X27786Y-17828D01*
X27916Y-17773D01*
X27926Y-17767D01*
X27951Y-17763D01*
X27986Y-17752D01*
X28036Y-17738D01*
X28101Y-17722D01*
X28171Y-17713D01*
X28246Y-17707D01*
X28331Y-17703D01*
X28366D01*
X28401Y-17707D01*
X28451D01*
X28506Y-17718D01*
X28566Y-17728D01*
X28631Y-17738D01*
X28696Y-17758D01*
X28706D01*
X28726Y-17767D01*
X28756Y-17777D01*
X28796Y-17793D01*
X28846Y-17818D01*
X28896Y-17842D01*
X29001Y-17908D01*
X29011Y-17912D01*
X29031Y-17932D01*
X29066Y-17967D01*
X29106Y-18008D01*
X29156Y-18063D01*
X29206Y-18127D01*
X29251Y-18203D01*
X29296Y-18288D01*
Y-18293D01*
X29301Y-18297D01*
X29306Y-18313D01*
X29316Y-18327D01*
X29331Y-18377D01*
X29356Y-18448D01*
X29376Y-18532D01*
X29391Y-18638D01*
X29406Y-18753D01*
X29411Y-18882D01*
Y-18888D01*
Y-18907D01*
Y-18937D01*
X29406Y-18978D01*
X29401Y-19027D01*
X29391Y-19083D01*
X29381Y-19142D01*
X29366Y-19212D01*
X29346Y-19287D01*
X29321Y-19363D01*
X29291Y-19437D01*
X29256Y-19518D01*
X29216Y-19598D01*
X29166Y-19672D01*
X29111Y-19748D01*
X29046Y-19817D01*
X29041Y-19823D01*
X29031Y-19832D01*
X29011Y-19852D01*
X28981Y-19873D01*
X28941Y-19903D01*
X28901Y-19932D01*
X28846Y-19967D01*
X28786Y-19997D01*
X28721Y-20032D01*
X28646Y-20067D01*
X28566Y-20098D01*
X28476Y-20128D01*
X28381Y-20147D01*
X28281Y-20167D01*
X28171Y-20177D01*
X28056Y-20182D01*
X28001D01*
X27976Y-20177D01*
X27941D01*
X27866Y-20173D01*
X27781Y-20163D01*
X27686Y-20143D01*
X27586Y-20122D01*
X27491Y-20092D01*
X27486D01*
X27481Y-20087D01*
X27451Y-20077D01*
X27406Y-20053D01*
X27346Y-20028D01*
X27281Y-19987D01*
X27211Y-19942D01*
X27141Y-19887D01*
X27071Y-19827D01*
X27061Y-19817D01*
X27036Y-19787D01*
X27001Y-19742D01*
X26956Y-19682D01*
X26906Y-19602D01*
X26851Y-19512D01*
X26801Y-19408D01*
X26756Y-19287D01*
Y-19283D01*
X26751Y-19273D01*
X26746Y-19252D01*
X26741Y-19228D01*
X26731Y-19197D01*
X26721Y-19158D01*
X26711Y-19113D01*
X26706Y-19062D01*
X26696Y-19007D01*
X26686Y-18947D01*
X26666Y-18812D01*
X26656Y-18663D01*
X26651Y-18497D01*
Y-18493D01*
Y-18477D01*
Y-18452D01*
Y-18417D01*
X26656Y-18377D01*
Y-18327D01*
X26661Y-18272D01*
X26666Y-18213D01*
X26676Y-18082D01*
X26691Y-17943D01*
X26716Y-17797D01*
X26751Y-17658D01*
Y-17652D01*
X26756Y-17642D01*
X26761Y-17623D01*
X26771Y-17597D01*
X26781Y-17562D01*
X26796Y-17527D01*
X26831Y-17437D01*
X26876Y-17333D01*
X26931Y-17222D01*
X27001Y-17112D01*
X27081Y-17003D01*
X27086Y-16997D01*
X27091Y-16993D01*
X27106Y-16977D01*
X27121Y-16958D01*
X27171Y-16907D01*
X27236Y-16848D01*
X27321Y-16782D01*
X27421Y-16713D01*
X27536Y-16643D01*
X27661Y-16582D01*
X27666D01*
X27676Y-16578D01*
X27696Y-16567D01*
X27726Y-16557D01*
X27756Y-16547D01*
X27801Y-16533D01*
X27846Y-16518D01*
X27901Y-16502D01*
X27961Y-16492D01*
X28021Y-16477D01*
X28091Y-16463D01*
X28166Y-16453D01*
X28331Y-16432D01*
X28506Y-16428D01*
X28571D01*
X28616Y-16432D01*
D02*
G37*
G36*
X25361Y-19478D02*
X26106D01*
Y-20108D01*
X23721D01*
Y-19478D01*
X24481D01*
Y-17568D01*
X23721D01*
Y-16977D01*
X23781D01*
X23826Y-16973D01*
X23876D01*
X23931Y-16967D01*
X24051Y-16958D01*
X24056D01*
X24081Y-16952D01*
X24111Y-16948D01*
X24146Y-16942D01*
X24231Y-16917D01*
X24276Y-16903D01*
X24316Y-16887D01*
X24321Y-16883D01*
X24336Y-16878D01*
X24356Y-16862D01*
X24381Y-16848D01*
X24441Y-16797D01*
X24496Y-16733D01*
X24501Y-16727D01*
X24506Y-16713D01*
X24516Y-16692D01*
X24531Y-16662D01*
X24541Y-16627D01*
X24551Y-16582D01*
X24561Y-16537D01*
X24566Y-16483D01*
X25361D01*
Y-19478D01*
D02*
G37*
G36*
X35976Y-16422D02*
X36011D01*
X36106Y-16432D01*
X36206Y-16447D01*
X36316Y-16473D01*
X36426Y-16502D01*
X36526Y-16543D01*
X36531D01*
X36536Y-16547D01*
X36551Y-16557D01*
X36571Y-16567D01*
X36616Y-16592D01*
X36676Y-16633D01*
X36746Y-16688D01*
X36816Y-16748D01*
X36891Y-16823D01*
X36956Y-16907D01*
Y-16913D01*
X36961Y-16917D01*
X36971Y-16932D01*
X36981Y-16952D01*
X37011Y-17003D01*
X37046Y-17073D01*
X37086Y-17157D01*
X37126Y-17257D01*
X37166Y-17372D01*
X37196Y-17497D01*
Y-17503D01*
X37201Y-17513D01*
Y-17533D01*
X37206Y-17558D01*
X37216Y-17593D01*
X37221Y-17632D01*
X37226Y-17677D01*
X37236Y-17728D01*
X37241Y-17787D01*
X37246Y-17848D01*
X37261Y-17982D01*
X37266Y-18137D01*
X37271Y-18303D01*
Y-18307D01*
Y-18323D01*
Y-18348D01*
Y-18383D01*
Y-18422D01*
X37266Y-18467D01*
Y-18522D01*
X37261Y-18577D01*
X37251Y-18708D01*
X37236Y-18843D01*
X37216Y-18988D01*
X37191Y-19123D01*
Y-19128D01*
X37186Y-19138D01*
X37181Y-19158D01*
X37176Y-19183D01*
X37171Y-19212D01*
X37161Y-19248D01*
X37131Y-19328D01*
X37101Y-19418D01*
X37056Y-19518D01*
X37011Y-19613D01*
X36951Y-19707D01*
Y-19713D01*
X36946Y-19717D01*
X36921Y-19748D01*
X36886Y-19787D01*
X36836Y-19838D01*
X36776Y-19897D01*
X36701Y-19958D01*
X36616Y-20012D01*
X36521Y-20063D01*
X36516D01*
X36511Y-20067D01*
X36496Y-20073D01*
X36476Y-20083D01*
X36451Y-20092D01*
X36421Y-20102D01*
X36341Y-20122D01*
X36251Y-20143D01*
X36141Y-20163D01*
X36016Y-20177D01*
X35876Y-20182D01*
X35811D01*
X35781Y-20177D01*
X35741D01*
X35651Y-20167D01*
X35551Y-20153D01*
X35446Y-20132D01*
X35336Y-20102D01*
X35231Y-20063D01*
X35226D01*
X35221Y-20057D01*
X35206Y-20048D01*
X35186Y-20038D01*
X35141Y-20012D01*
X35076Y-19973D01*
X35011Y-19922D01*
X34936Y-19858D01*
X34866Y-19787D01*
X34801Y-19703D01*
Y-19697D01*
X34796Y-19692D01*
X34786Y-19678D01*
X34776Y-19662D01*
X34746Y-19608D01*
X34711Y-19543D01*
X34671Y-19457D01*
X34631Y-19357D01*
X34591Y-19242D01*
X34561Y-19117D01*
Y-19113D01*
X34556Y-19103D01*
Y-19083D01*
X34551Y-19058D01*
X34546Y-19023D01*
X34536Y-18982D01*
X34531Y-18937D01*
X34526Y-18882D01*
X34516Y-18827D01*
X34511Y-18763D01*
X34496Y-18628D01*
X34491Y-18473D01*
X34486Y-18303D01*
Y-18297D01*
Y-18282D01*
Y-18258D01*
Y-18223D01*
Y-18182D01*
X34491Y-18133D01*
Y-18078D01*
X34496Y-18018D01*
X34501Y-17892D01*
X34516Y-17752D01*
X34531Y-17617D01*
X34556Y-17482D01*
Y-17478D01*
X34561Y-17468D01*
X34566Y-17447D01*
X34571Y-17427D01*
X34581Y-17398D01*
X34591Y-17363D01*
X34616Y-17282D01*
X34651Y-17192D01*
X34691Y-17093D01*
X34746Y-16993D01*
X34806Y-16897D01*
Y-16893D01*
X34816Y-16887D01*
X34836Y-16858D01*
X34876Y-16817D01*
X34926Y-16762D01*
X34986Y-16702D01*
X35061Y-16643D01*
X35146Y-16588D01*
X35241Y-16537D01*
X35246D01*
X35251Y-16533D01*
X35266Y-16527D01*
X35286Y-16518D01*
X35316Y-16508D01*
X35346Y-16498D01*
X35421Y-16477D01*
X35511Y-16457D01*
X35621Y-16438D01*
X35741Y-16422D01*
X35876Y-16418D01*
X35941D01*
X35976Y-16422D01*
D02*
G37*
G36*
X32811D02*
X32846D01*
X32941Y-16432D01*
X33041Y-16447D01*
X33151Y-16473D01*
X33261Y-16502D01*
X33361Y-16543D01*
X33366D01*
X33371Y-16547D01*
X33386Y-16557D01*
X33406Y-16567D01*
X33451Y-16592D01*
X33511Y-16633D01*
X33581Y-16688D01*
X33651Y-16748D01*
X33726Y-16823D01*
X33791Y-16907D01*
Y-16913D01*
X33796Y-16917D01*
X33806Y-16932D01*
X33816Y-16952D01*
X33846Y-17003D01*
X33881Y-17073D01*
X33921Y-17157D01*
X33961Y-17257D01*
X34001Y-17372D01*
X34031Y-17497D01*
Y-17503D01*
X34036Y-17513D01*
Y-17533D01*
X34041Y-17558D01*
X34051Y-17593D01*
X34056Y-17632D01*
X34061Y-17677D01*
X34071Y-17728D01*
X34076Y-17787D01*
X34081Y-17848D01*
X34096Y-17982D01*
X34101Y-18137D01*
X34106Y-18303D01*
Y-18307D01*
Y-18323D01*
Y-18348D01*
Y-18383D01*
Y-18422D01*
X34101Y-18467D01*
Y-18522D01*
X34096Y-18577D01*
X34086Y-18708D01*
X34071Y-18843D01*
X34051Y-18988D01*
X34026Y-19123D01*
Y-19128D01*
X34021Y-19138D01*
X34016Y-19158D01*
X34011Y-19183D01*
X34006Y-19212D01*
X33996Y-19248D01*
X33966Y-19328D01*
X33936Y-19418D01*
X33891Y-19518D01*
X33846Y-19613D01*
X33786Y-19707D01*
Y-19713D01*
X33781Y-19717D01*
X33756Y-19748D01*
X33721Y-19787D01*
X33671Y-19838D01*
X33611Y-19897D01*
X33536Y-19958D01*
X33451Y-20012D01*
X33356Y-20063D01*
X33351D01*
X33346Y-20067D01*
X33331Y-20073D01*
X33311Y-20083D01*
X33286Y-20092D01*
X33256Y-20102D01*
X33176Y-20122D01*
X33086Y-20143D01*
X32976Y-20163D01*
X32851Y-20177D01*
X32711Y-20182D01*
X32646D01*
X32616Y-20177D01*
X32576D01*
X32486Y-20167D01*
X32386Y-20153D01*
X32281Y-20132D01*
X32171Y-20102D01*
X32066Y-20063D01*
X32061D01*
X32056Y-20057D01*
X32041Y-20048D01*
X32021Y-20038D01*
X31976Y-20012D01*
X31911Y-19973D01*
X31846Y-19922D01*
X31771Y-19858D01*
X31701Y-19787D01*
X31636Y-19703D01*
Y-19697D01*
X31631Y-19692D01*
X31621Y-19678D01*
X31611Y-19662D01*
X31581Y-19608D01*
X31546Y-19543D01*
X31506Y-19457D01*
X31466Y-19357D01*
X31426Y-19242D01*
X31396Y-19117D01*
Y-19113D01*
X31391Y-19103D01*
Y-19083D01*
X31386Y-19058D01*
X31381Y-19023D01*
X31371Y-18982D01*
X31366Y-18937D01*
X31361Y-18882D01*
X31351Y-18827D01*
X31346Y-18763D01*
X31331Y-18628D01*
X31326Y-18473D01*
X31321Y-18303D01*
Y-18297D01*
Y-18282D01*
Y-18258D01*
Y-18223D01*
Y-18182D01*
X31326Y-18133D01*
Y-18078D01*
X31331Y-18018D01*
X31336Y-17892D01*
X31351Y-17752D01*
X31366Y-17617D01*
X31391Y-17482D01*
Y-17478D01*
X31396Y-17468D01*
X31401Y-17447D01*
X31406Y-17427D01*
X31416Y-17398D01*
X31426Y-17363D01*
X31451Y-17282D01*
X31486Y-17192D01*
X31526Y-17093D01*
X31581Y-16993D01*
X31641Y-16897D01*
Y-16893D01*
X31651Y-16887D01*
X31671Y-16858D01*
X31711Y-16817D01*
X31761Y-16762D01*
X31821Y-16702D01*
X31896Y-16643D01*
X31981Y-16588D01*
X32076Y-16537D01*
X32081D01*
X32086Y-16533D01*
X32101Y-16527D01*
X32121Y-16518D01*
X32151Y-16508D01*
X32181Y-16498D01*
X32256Y-16477D01*
X32346Y-16457D01*
X32456Y-16438D01*
X32576Y-16422D01*
X32711Y-16418D01*
X32776D01*
X32811Y-16422D01*
D02*
G37*
G36*
X30081Y-21002D02*
X29566D01*
X30041Y-19152D01*
X30931D01*
X30081Y-21002D01*
D02*
G37*
G36*
X78605Y25455D02*
X78660D01*
X78715Y25450D01*
X78845Y25440D01*
X78980Y25425D01*
X79125Y25405D01*
X79260Y25380D01*
X79265D01*
X79275Y25375D01*
X79295Y25370D01*
X79320Y25365D01*
X79350Y25360D01*
X79385Y25350D01*
X79465Y25320D01*
X79555Y25290D01*
X79655Y25245D01*
X79750Y25200D01*
X79845Y25140D01*
X79850D01*
X79855Y25135D01*
X79885Y25110D01*
X79925Y25075D01*
X79975Y25025D01*
X80035Y24965D01*
X80095Y24890D01*
X80150Y24805D01*
X80200Y24710D01*
Y24705D01*
X80205Y24700D01*
X80210Y24685D01*
X80220Y24665D01*
X80230Y24640D01*
X80240Y24610D01*
X80260Y24530D01*
X80280Y24440D01*
X80300Y24330D01*
X80315Y24205D01*
X80320Y24065D01*
Y24000D01*
X80315Y23970D01*
Y23930D01*
X80305Y23840D01*
X80290Y23740D01*
X80270Y23635D01*
X80240Y23525D01*
X80200Y23420D01*
Y23415D01*
X80195Y23410D01*
X80185Y23395D01*
X80175Y23375D01*
X80150Y23330D01*
X80110Y23265D01*
X80060Y23200D01*
X79995Y23125D01*
X79925Y23055D01*
X79840Y22990D01*
X79835D01*
X79830Y22985D01*
X79815Y22975D01*
X79800Y22965D01*
X79745Y22935D01*
X79680Y22900D01*
X79595Y22860D01*
X79495Y22820D01*
X79380Y22780D01*
X79255Y22750D01*
X79250D01*
X79240Y22745D01*
X79220D01*
X79195Y22740D01*
X79160Y22735D01*
X79120Y22725D01*
X79075Y22720D01*
X79020Y22715D01*
X78965Y22705D01*
X78900Y22700D01*
X78765Y22685D01*
X78610Y22680D01*
X78440Y22675D01*
X78435D01*
X78420D01*
X78395D01*
X78360D01*
X78320D01*
X78270Y22680D01*
X78215D01*
X78155Y22685D01*
X78030Y22690D01*
X77890Y22705D01*
X77755Y22720D01*
X77620Y22745D01*
X77615D01*
X77605Y22750D01*
X77585Y22755D01*
X77565Y22760D01*
X77535Y22770D01*
X77500Y22780D01*
X77420Y22805D01*
X77330Y22840D01*
X77230Y22880D01*
X77130Y22935D01*
X77035Y22995D01*
X77030D01*
X77025Y23005D01*
X76995Y23025D01*
X76955Y23065D01*
X76900Y23115D01*
X76840Y23175D01*
X76780Y23250D01*
X76725Y23335D01*
X76675Y23430D01*
Y23435D01*
X76670Y23440D01*
X76665Y23455D01*
X76655Y23475D01*
X76645Y23505D01*
X76635Y23535D01*
X76615Y23610D01*
X76595Y23700D01*
X76575Y23810D01*
X76560Y23930D01*
X76555Y24065D01*
Y24130D01*
X76560Y24165D01*
Y24200D01*
X76570Y24295D01*
X76585Y24395D01*
X76610Y24505D01*
X76640Y24615D01*
X76680Y24715D01*
Y24720D01*
X76685Y24725D01*
X76695Y24740D01*
X76705Y24760D01*
X76730Y24805D01*
X76770Y24865D01*
X76825Y24935D01*
X76885Y25005D01*
X76960Y25080D01*
X77045Y25145D01*
X77050D01*
X77055Y25150D01*
X77070Y25160D01*
X77090Y25170D01*
X77140Y25200D01*
X77210Y25235D01*
X77295Y25275D01*
X77395Y25315D01*
X77510Y25355D01*
X77635Y25385D01*
X77640D01*
X77650Y25390D01*
X77670D01*
X77695Y25395D01*
X77730Y25405D01*
X77770Y25410D01*
X77815Y25415D01*
X77865Y25425D01*
X77925Y25430D01*
X77985Y25435D01*
X78120Y25450D01*
X78275Y25455D01*
X78440Y25460D01*
X78445D01*
X78460D01*
X78485D01*
X78520D01*
X78560D01*
X78605Y25455D01*
D02*
G37*
G36*
Y22290D02*
X78660D01*
X78715Y22285D01*
X78845Y22275D01*
X78980Y22260D01*
X79125Y22240D01*
X79260Y22215D01*
X79265D01*
X79275Y22210D01*
X79295Y22205D01*
X79320Y22200D01*
X79350Y22195D01*
X79385Y22185D01*
X79465Y22155D01*
X79555Y22125D01*
X79655Y22080D01*
X79750Y22035D01*
X79845Y21975D01*
X79850D01*
X79855Y21970D01*
X79885Y21945D01*
X79925Y21910D01*
X79975Y21860D01*
X80035Y21800D01*
X80095Y21725D01*
X80150Y21640D01*
X80200Y21545D01*
Y21540D01*
X80205Y21535D01*
X80210Y21520D01*
X80220Y21500D01*
X80230Y21475D01*
X80240Y21445D01*
X80260Y21365D01*
X80280Y21275D01*
X80300Y21165D01*
X80315Y21040D01*
X80320Y20900D01*
Y20835D01*
X80315Y20805D01*
Y20765D01*
X80305Y20675D01*
X80290Y20575D01*
X80270Y20470D01*
X80240Y20360D01*
X80200Y20255D01*
Y20250D01*
X80195Y20245D01*
X80185Y20230D01*
X80175Y20210D01*
X80150Y20165D01*
X80110Y20100D01*
X80060Y20035D01*
X79995Y19960D01*
X79925Y19890D01*
X79840Y19825D01*
X79835D01*
X79830Y19820D01*
X79815Y19810D01*
X79800Y19800D01*
X79745Y19770D01*
X79680Y19735D01*
X79595Y19695D01*
X79495Y19655D01*
X79380Y19615D01*
X79255Y19585D01*
X79250D01*
X79240Y19580D01*
X79220D01*
X79195Y19575D01*
X79160Y19570D01*
X79120Y19560D01*
X79075Y19555D01*
X79020Y19550D01*
X78965Y19540D01*
X78900Y19535D01*
X78765Y19520D01*
X78610Y19515D01*
X78440Y19510D01*
X78435D01*
X78420D01*
X78395D01*
X78360D01*
X78320D01*
X78270Y19515D01*
X78215D01*
X78155Y19520D01*
X78030Y19525D01*
X77890Y19540D01*
X77755Y19555D01*
X77620Y19580D01*
X77615D01*
X77605Y19585D01*
X77585Y19590D01*
X77565Y19595D01*
X77535Y19605D01*
X77500Y19615D01*
X77420Y19640D01*
X77330Y19675D01*
X77230Y19715D01*
X77130Y19770D01*
X77035Y19830D01*
X77030D01*
X77025Y19840D01*
X76995Y19860D01*
X76955Y19900D01*
X76900Y19950D01*
X76840Y20010D01*
X76780Y20085D01*
X76725Y20170D01*
X76675Y20265D01*
Y20270D01*
X76670Y20275D01*
X76665Y20290D01*
X76655Y20310D01*
X76645Y20340D01*
X76635Y20370D01*
X76615Y20445D01*
X76595Y20535D01*
X76575Y20645D01*
X76560Y20765D01*
X76555Y20900D01*
Y20965D01*
X76560Y21000D01*
Y21035D01*
X76570Y21130D01*
X76585Y21230D01*
X76610Y21340D01*
X76640Y21450D01*
X76680Y21550D01*
Y21555D01*
X76685Y21560D01*
X76695Y21575D01*
X76705Y21595D01*
X76730Y21640D01*
X76770Y21700D01*
X76825Y21770D01*
X76885Y21840D01*
X76960Y21915D01*
X77045Y21980D01*
X77050D01*
X77055Y21985D01*
X77070Y21995D01*
X77090Y22005D01*
X77140Y22035D01*
X77210Y22070D01*
X77295Y22110D01*
X77395Y22150D01*
X77510Y22190D01*
X77635Y22220D01*
X77640D01*
X77650Y22225D01*
X77670D01*
X77695Y22230D01*
X77730Y22240D01*
X77770Y22245D01*
X77815Y22250D01*
X77865Y22260D01*
X77925Y22265D01*
X77985Y22270D01*
X78120Y22285D01*
X78275Y22290D01*
X78440Y22295D01*
X78445D01*
X78460D01*
X78485D01*
X78520D01*
X78560D01*
X78605Y22290D01*
D02*
G37*
G36*
X81140Y18270D02*
Y17755D01*
X79290Y18230D01*
Y19120D01*
X81140Y18270D01*
D02*
G37*
G36*
X78605Y17570D02*
X78660D01*
X78715Y17565D01*
X78845Y17555D01*
X78980Y17540D01*
X79125Y17520D01*
X79260Y17495D01*
X79265D01*
X79275Y17490D01*
X79295Y17485D01*
X79320Y17480D01*
X79350Y17475D01*
X79385Y17465D01*
X79465Y17435D01*
X79555Y17405D01*
X79655Y17360D01*
X79750Y17315D01*
X79845Y17255D01*
X79850D01*
X79855Y17250D01*
X79885Y17225D01*
X79925Y17190D01*
X79975Y17140D01*
X80035Y17080D01*
X80095Y17005D01*
X80150Y16920D01*
X80200Y16825D01*
Y16820D01*
X80205Y16815D01*
X80210Y16800D01*
X80220Y16780D01*
X80230Y16755D01*
X80240Y16725D01*
X80260Y16645D01*
X80280Y16555D01*
X80300Y16445D01*
X80315Y16320D01*
X80320Y16180D01*
Y16115D01*
X80315Y16085D01*
Y16045D01*
X80305Y15955D01*
X80290Y15855D01*
X80270Y15750D01*
X80240Y15640D01*
X80200Y15535D01*
Y15530D01*
X80195Y15525D01*
X80185Y15510D01*
X80175Y15490D01*
X80150Y15445D01*
X80110Y15380D01*
X80060Y15315D01*
X79995Y15240D01*
X79925Y15170D01*
X79840Y15105D01*
X79835D01*
X79830Y15100D01*
X79815Y15090D01*
X79800Y15080D01*
X79745Y15050D01*
X79680Y15015D01*
X79595Y14975D01*
X79495Y14935D01*
X79380Y14895D01*
X79255Y14865D01*
X79250D01*
X79240Y14860D01*
X79220D01*
X79195Y14855D01*
X79160Y14850D01*
X79120Y14840D01*
X79075Y14835D01*
X79020Y14830D01*
X78965Y14820D01*
X78900Y14815D01*
X78765Y14800D01*
X78610Y14795D01*
X78440Y14790D01*
X78435D01*
X78420D01*
X78395D01*
X78360D01*
X78320D01*
X78270Y14795D01*
X78215D01*
X78155Y14800D01*
X78030Y14805D01*
X77890Y14820D01*
X77755Y14835D01*
X77620Y14860D01*
X77615D01*
X77605Y14865D01*
X77585Y14870D01*
X77565Y14875D01*
X77535Y14885D01*
X77500Y14895D01*
X77420Y14920D01*
X77330Y14955D01*
X77230Y14995D01*
X77130Y15050D01*
X77035Y15110D01*
X77030D01*
X77025Y15120D01*
X76995Y15140D01*
X76955Y15180D01*
X76900Y15230D01*
X76840Y15290D01*
X76780Y15365D01*
X76725Y15450D01*
X76675Y15545D01*
Y15550D01*
X76670Y15555D01*
X76665Y15570D01*
X76655Y15590D01*
X76645Y15620D01*
X76635Y15650D01*
X76615Y15725D01*
X76595Y15815D01*
X76575Y15925D01*
X76560Y16045D01*
X76555Y16180D01*
Y16245D01*
X76560Y16280D01*
Y16315D01*
X76570Y16410D01*
X76585Y16510D01*
X76610Y16620D01*
X76640Y16730D01*
X76680Y16830D01*
Y16835D01*
X76685Y16840D01*
X76695Y16855D01*
X76705Y16875D01*
X76730Y16920D01*
X76770Y16980D01*
X76825Y17050D01*
X76885Y17120D01*
X76960Y17195D01*
X77045Y17260D01*
X77050D01*
X77055Y17265D01*
X77070Y17275D01*
X77090Y17285D01*
X77140Y17315D01*
X77210Y17350D01*
X77295Y17390D01*
X77395Y17430D01*
X77510Y17470D01*
X77635Y17500D01*
X77640D01*
X77650Y17505D01*
X77670D01*
X77695Y17510D01*
X77730Y17520D01*
X77770Y17525D01*
X77815Y17530D01*
X77865Y17540D01*
X77925Y17545D01*
X77985Y17550D01*
X78120Y17565D01*
X78275Y17570D01*
X78440Y17575D01*
X78445D01*
X78460D01*
X78485D01*
X78520D01*
X78560D01*
X78605Y17570D01*
D02*
G37*
G36*
X80245Y11910D02*
X79615D01*
Y12670D01*
X77705D01*
Y11910D01*
X77115D01*
Y11970D01*
X77110Y12015D01*
Y12065D01*
X77105Y12120D01*
X77095Y12240D01*
Y12245D01*
X77090Y12270D01*
X77085Y12300D01*
X77080Y12335D01*
X77055Y12420D01*
X77040Y12465D01*
X77025Y12505D01*
X77020Y12510D01*
X77015Y12525D01*
X77000Y12545D01*
X76985Y12570D01*
X76935Y12630D01*
X76870Y12685D01*
X76865Y12690D01*
X76850Y12695D01*
X76830Y12705D01*
X76800Y12720D01*
X76765Y12730D01*
X76720Y12740D01*
X76675Y12750D01*
X76620Y12755D01*
Y13550D01*
X79615D01*
Y14295D01*
X80245D01*
Y11910D01*
D02*
G37*
%LPC*%
G36*
X27936Y-18332D02*
X27901D01*
X27876Y-18338D01*
X27816Y-18342D01*
X27741Y-18358D01*
X27736D01*
X27726Y-18362D01*
X27706Y-18368D01*
X27681Y-18372D01*
X27621Y-18393D01*
X27551Y-18417D01*
Y-18422D01*
Y-18438D01*
Y-18462D01*
Y-18503D01*
Y-18512D01*
Y-18542D01*
Y-18583D01*
Y-18643D01*
Y-18647D01*
Y-18657D01*
Y-18673D01*
Y-18692D01*
X27556Y-18753D01*
Y-18823D01*
X27561Y-18902D01*
X27571Y-18982D01*
X27586Y-19068D01*
X27601Y-19142D01*
X27606Y-19152D01*
X27611Y-19173D01*
X27621Y-19207D01*
X27641Y-19248D01*
X27681Y-19338D01*
X27711Y-19383D01*
X27741Y-19422D01*
X27746Y-19428D01*
X27751Y-19437D01*
X27781Y-19467D01*
X27826Y-19502D01*
X27881Y-19537D01*
X27886D01*
X27896Y-19543D01*
X27911Y-19547D01*
X27936Y-19553D01*
X27991Y-19563D01*
X28056Y-19568D01*
X28081D01*
X28101Y-19563D01*
X28151Y-19553D01*
X28211Y-19533D01*
X28216D01*
X28226Y-19527D01*
X28241Y-19518D01*
X28261Y-19508D01*
X28306Y-19473D01*
X28356Y-19422D01*
X28361Y-19418D01*
X28366Y-19408D01*
X28381Y-19392D01*
X28396Y-19367D01*
X28431Y-19308D01*
X28461Y-19238D01*
Y-19232D01*
X28466Y-19218D01*
X28476Y-19193D01*
X28481Y-19158D01*
X28491Y-19113D01*
X28496Y-19062D01*
X28501Y-18997D01*
Y-18923D01*
Y-18913D01*
Y-18892D01*
Y-18862D01*
X28496Y-18823D01*
X28491Y-18778D01*
X28481Y-18728D01*
X28471Y-18683D01*
X28456Y-18638D01*
Y-18632D01*
X28446Y-18618D01*
X28436Y-18598D01*
X28426Y-18573D01*
X28386Y-18512D01*
X28331Y-18452D01*
X28326Y-18448D01*
X28316Y-18442D01*
X28301Y-18432D01*
X28281Y-18417D01*
X28221Y-18387D01*
X28151Y-18362D01*
X28146D01*
X28136Y-18358D01*
X28111Y-18352D01*
X28086Y-18348D01*
X28056Y-18342D01*
X28016Y-18338D01*
X27936Y-18332D01*
D02*
G37*
G36*
X35876Y-17083D02*
X35866D01*
X35836Y-17087D01*
X35786Y-17097D01*
X35731Y-17118D01*
X35671Y-17147D01*
X35611Y-17198D01*
X35581Y-17228D01*
X35556Y-17267D01*
X35526Y-17308D01*
X35506Y-17357D01*
Y-17363D01*
X35501Y-17372D01*
X35496Y-17388D01*
X35491Y-17413D01*
X35481Y-17443D01*
X35471Y-17478D01*
X35461Y-17523D01*
X35451Y-17578D01*
X35441Y-17638D01*
X35431Y-17707D01*
X35421Y-17783D01*
X35411Y-17867D01*
X35406Y-17963D01*
X35401Y-18067D01*
X35396Y-18182D01*
Y-18303D01*
Y-18307D01*
Y-18332D01*
Y-18368D01*
Y-18413D01*
X35401Y-18462D01*
Y-18528D01*
X35406Y-18598D01*
X35411Y-18667D01*
X35421Y-18823D01*
X35441Y-18978D01*
X35456Y-19052D01*
X35471Y-19123D01*
X35486Y-19187D01*
X35506Y-19242D01*
Y-19248D01*
X35511Y-19252D01*
X35526Y-19287D01*
X35556Y-19328D01*
X35596Y-19377D01*
X35646Y-19433D01*
X35711Y-19473D01*
X35786Y-19508D01*
X35831Y-19512D01*
X35876Y-19518D01*
X35886D01*
X35921Y-19512D01*
X35966Y-19502D01*
X36021Y-19482D01*
X36081Y-19453D01*
X36141Y-19402D01*
X36171Y-19367D01*
X36201Y-19332D01*
X36226Y-19293D01*
X36246Y-19242D01*
Y-19238D01*
X36251Y-19228D01*
X36256Y-19212D01*
X36266Y-19187D01*
X36271Y-19158D01*
X36281Y-19123D01*
X36291Y-19072D01*
X36306Y-19023D01*
X36316Y-18962D01*
X36326Y-18892D01*
X36336Y-18817D01*
X36341Y-18728D01*
X36351Y-18638D01*
X36356Y-18532D01*
X36361Y-18422D01*
Y-18303D01*
Y-18293D01*
Y-18272D01*
Y-18237D01*
Y-18192D01*
X36356Y-18137D01*
Y-18072D01*
X36351Y-18008D01*
X36346Y-17932D01*
X36331Y-17773D01*
X36311Y-17617D01*
X36301Y-17542D01*
X36286Y-17478D01*
X36266Y-17413D01*
X36246Y-17357D01*
Y-17353D01*
X36241Y-17347D01*
X36226Y-17312D01*
X36196Y-17273D01*
X36161Y-17218D01*
X36106Y-17167D01*
X36046Y-17128D01*
X35966Y-17093D01*
X35921Y-17087D01*
X35876Y-17083D01*
D02*
G37*
G36*
X32711D02*
X32701D01*
X32671Y-17087D01*
X32621Y-17097D01*
X32566Y-17118D01*
X32506Y-17147D01*
X32446Y-17198D01*
X32416Y-17228D01*
X32391Y-17267D01*
X32361Y-17308D01*
X32341Y-17357D01*
Y-17363D01*
X32336Y-17372D01*
X32331Y-17388D01*
X32326Y-17413D01*
X32316Y-17443D01*
X32306Y-17478D01*
X32296Y-17523D01*
X32286Y-17578D01*
X32276Y-17638D01*
X32266Y-17707D01*
X32256Y-17783D01*
X32246Y-17867D01*
X32241Y-17963D01*
X32236Y-18067D01*
X32231Y-18182D01*
Y-18303D01*
Y-18307D01*
Y-18332D01*
Y-18368D01*
Y-18413D01*
X32236Y-18462D01*
Y-18528D01*
X32241Y-18598D01*
X32246Y-18667D01*
X32256Y-18823D01*
X32276Y-18978D01*
X32291Y-19052D01*
X32306Y-19123D01*
X32321Y-19187D01*
X32341Y-19242D01*
Y-19248D01*
X32346Y-19252D01*
X32361Y-19287D01*
X32391Y-19328D01*
X32431Y-19377D01*
X32481Y-19433D01*
X32546Y-19473D01*
X32621Y-19508D01*
X32666Y-19512D01*
X32711Y-19518D01*
X32721D01*
X32756Y-19512D01*
X32801Y-19502D01*
X32856Y-19482D01*
X32916Y-19453D01*
X32976Y-19402D01*
X33006Y-19367D01*
X33036Y-19332D01*
X33061Y-19293D01*
X33081Y-19242D01*
Y-19238D01*
X33086Y-19228D01*
X33091Y-19212D01*
X33101Y-19187D01*
X33106Y-19158D01*
X33116Y-19123D01*
X33126Y-19072D01*
X33141Y-19023D01*
X33151Y-18962D01*
X33161Y-18892D01*
X33171Y-18817D01*
X33176Y-18728D01*
X33186Y-18638D01*
X33191Y-18532D01*
X33196Y-18422D01*
Y-18303D01*
Y-18293D01*
Y-18272D01*
Y-18237D01*
Y-18192D01*
X33191Y-18137D01*
Y-18072D01*
X33186Y-18008D01*
X33181Y-17932D01*
X33166Y-17773D01*
X33146Y-17617D01*
X33136Y-17542D01*
X33121Y-17478D01*
X33101Y-17413D01*
X33081Y-17357D01*
Y-17353D01*
X33076Y-17347D01*
X33061Y-17312D01*
X33031Y-17273D01*
X32996Y-17218D01*
X32941Y-17167D01*
X32881Y-17128D01*
X32801Y-17093D01*
X32756Y-17087D01*
X32711Y-17083D01*
D02*
G37*
G36*
X78560Y24550D02*
X78440D01*
X78430D01*
X78410D01*
X78375D01*
X78330D01*
X78275Y24545D01*
X78210D01*
X78145Y24540D01*
X78070Y24535D01*
X77910Y24520D01*
X77755Y24500D01*
X77680Y24490D01*
X77615Y24475D01*
X77550Y24455D01*
X77495Y24435D01*
X77490D01*
X77485Y24430D01*
X77450Y24415D01*
X77410Y24385D01*
X77355Y24350D01*
X77305Y24295D01*
X77265Y24235D01*
X77230Y24155D01*
X77225Y24110D01*
X77220Y24065D01*
Y24055D01*
X77225Y24025D01*
X77235Y23975D01*
X77255Y23920D01*
X77285Y23860D01*
X77335Y23800D01*
X77365Y23770D01*
X77405Y23745D01*
X77445Y23715D01*
X77495Y23695D01*
X77500D01*
X77510Y23690D01*
X77525Y23685D01*
X77550Y23680D01*
X77580Y23670D01*
X77615Y23660D01*
X77660Y23650D01*
X77715Y23640D01*
X77775Y23630D01*
X77845Y23620D01*
X77920Y23610D01*
X78005Y23600D01*
X78100Y23595D01*
X78205Y23590D01*
X78320Y23585D01*
X78440D01*
X78445D01*
X78470D01*
X78505D01*
X78550D01*
X78600Y23590D01*
X78665D01*
X78735Y23595D01*
X78805Y23600D01*
X78960Y23610D01*
X79115Y23630D01*
X79190Y23645D01*
X79260Y23660D01*
X79325Y23675D01*
X79380Y23695D01*
X79385D01*
X79390Y23700D01*
X79425Y23715D01*
X79465Y23745D01*
X79515Y23785D01*
X79570Y23835D01*
X79610Y23900D01*
X79645Y23975D01*
X79650Y24020D01*
X79655Y24065D01*
Y24075D01*
X79650Y24110D01*
X79640Y24155D01*
X79620Y24210D01*
X79590Y24270D01*
X79540Y24330D01*
X79505Y24360D01*
X79470Y24390D01*
X79430Y24415D01*
X79380Y24435D01*
X79375D01*
X79365Y24440D01*
X79350Y24445D01*
X79325Y24455D01*
X79295Y24460D01*
X79260Y24470D01*
X79210Y24480D01*
X79160Y24495D01*
X79100Y24505D01*
X79030Y24515D01*
X78955Y24525D01*
X78865Y24530D01*
X78775Y24540D01*
X78670Y24545D01*
X78560Y24550D01*
D02*
G37*
G36*
Y21385D02*
X78440D01*
X78430D01*
X78410D01*
X78375D01*
X78330D01*
X78275Y21380D01*
X78210D01*
X78145Y21375D01*
X78070Y21370D01*
X77910Y21355D01*
X77755Y21335D01*
X77680Y21325D01*
X77615Y21310D01*
X77550Y21290D01*
X77495Y21270D01*
X77490D01*
X77485Y21265D01*
X77450Y21250D01*
X77410Y21220D01*
X77355Y21185D01*
X77305Y21130D01*
X77265Y21070D01*
X77230Y20990D01*
X77225Y20945D01*
X77220Y20900D01*
Y20890D01*
X77225Y20860D01*
X77235Y20810D01*
X77255Y20755D01*
X77285Y20695D01*
X77335Y20635D01*
X77365Y20605D01*
X77405Y20580D01*
X77445Y20550D01*
X77495Y20530D01*
X77500D01*
X77510Y20525D01*
X77525Y20520D01*
X77550Y20515D01*
X77580Y20505D01*
X77615Y20495D01*
X77660Y20485D01*
X77715Y20475D01*
X77775Y20465D01*
X77845Y20455D01*
X77920Y20445D01*
X78005Y20435D01*
X78100Y20430D01*
X78205Y20425D01*
X78320Y20420D01*
X78440D01*
X78445D01*
X78470D01*
X78505D01*
X78550D01*
X78600Y20425D01*
X78665D01*
X78735Y20430D01*
X78805Y20435D01*
X78960Y20445D01*
X79115Y20465D01*
X79190Y20480D01*
X79260Y20495D01*
X79325Y20510D01*
X79380Y20530D01*
X79385D01*
X79390Y20535D01*
X79425Y20550D01*
X79465Y20580D01*
X79515Y20620D01*
X79570Y20670D01*
X79610Y20735D01*
X79645Y20810D01*
X79650Y20855D01*
X79655Y20900D01*
Y20910D01*
X79650Y20945D01*
X79640Y20990D01*
X79620Y21045D01*
X79590Y21105D01*
X79540Y21165D01*
X79505Y21195D01*
X79470Y21225D01*
X79430Y21250D01*
X79380Y21270D01*
X79375D01*
X79365Y21275D01*
X79350Y21280D01*
X79325Y21290D01*
X79295Y21295D01*
X79260Y21305D01*
X79210Y21315D01*
X79160Y21330D01*
X79100Y21340D01*
X79030Y21350D01*
X78955Y21360D01*
X78865Y21365D01*
X78775Y21375D01*
X78670Y21380D01*
X78560Y21385D01*
D02*
G37*
G36*
Y16665D02*
X78440D01*
X78430D01*
X78410D01*
X78375D01*
X78330D01*
X78275Y16660D01*
X78210D01*
X78145Y16655D01*
X78070Y16650D01*
X77910Y16635D01*
X77755Y16615D01*
X77680Y16605D01*
X77615Y16590D01*
X77550Y16570D01*
X77495Y16550D01*
X77490D01*
X77485Y16545D01*
X77450Y16530D01*
X77410Y16500D01*
X77355Y16465D01*
X77305Y16410D01*
X77265Y16350D01*
X77230Y16270D01*
X77225Y16225D01*
X77220Y16180D01*
Y16170D01*
X77225Y16140D01*
X77235Y16090D01*
X77255Y16035D01*
X77285Y15975D01*
X77335Y15915D01*
X77365Y15885D01*
X77405Y15860D01*
X77445Y15830D01*
X77495Y15810D01*
X77500D01*
X77510Y15805D01*
X77525Y15800D01*
X77550Y15795D01*
X77580Y15785D01*
X77615Y15775D01*
X77660Y15765D01*
X77715Y15755D01*
X77775Y15745D01*
X77845Y15735D01*
X77920Y15725D01*
X78005Y15715D01*
X78100Y15710D01*
X78205Y15705D01*
X78320Y15700D01*
X78440D01*
X78445D01*
X78470D01*
X78505D01*
X78550D01*
X78600Y15705D01*
X78665D01*
X78735Y15710D01*
X78805Y15715D01*
X78960Y15725D01*
X79115Y15745D01*
X79190Y15760D01*
X79260Y15775D01*
X79325Y15790D01*
X79380Y15810D01*
X79385D01*
X79390Y15815D01*
X79425Y15830D01*
X79465Y15860D01*
X79515Y15900D01*
X79570Y15950D01*
X79610Y16015D01*
X79645Y16090D01*
X79650Y16135D01*
X79655Y16180D01*
Y16190D01*
X79650Y16225D01*
X79640Y16270D01*
X79620Y16325D01*
X79590Y16385D01*
X79540Y16445D01*
X79505Y16475D01*
X79470Y16505D01*
X79430Y16530D01*
X79380Y16550D01*
X79375D01*
X79365Y16555D01*
X79350Y16560D01*
X79325Y16570D01*
X79295Y16575D01*
X79260Y16585D01*
X79210Y16595D01*
X79160Y16610D01*
X79100Y16620D01*
X79030Y16630D01*
X78955Y16640D01*
X78865Y16645D01*
X78775Y16655D01*
X78670Y16660D01*
X78560Y16665D01*
D02*
G37*
%LPD*%
D10*
X0Y-17815D02*
X6000Y-15815D01*
X0Y-17815D02*
X6000Y-19815D01*
X56992D02*
X62992Y-17815D01*
X56992Y-15815D02*
X62992Y-17815D01*
X0D02*
X22721D01*
X38271D02*
X62992D01*
X0Y-18815D02*
Y-1394D01*
X62992Y-18815D02*
Y-1394D01*
X77953Y39370D02*
X79953Y33370D01*
X75953D02*
X77953Y39370D01*
X75953Y6000D02*
X77953Y0D01*
X79953Y6000D01*
X77953Y26460D02*
Y39370D01*
Y0D02*
Y10910D01*
X64386Y39370D02*
X78953D01*
X64386Y0D02*
X78953D01*
D12*
X62992D02*
Y39370D01*
X0Y0D02*
X62992D01*
X0Y39370D02*
X62992D01*
X0Y0D02*
Y39370D01*
M02*
