G04*
G04 #@! TF.GenerationSoftware,Altium Limited,Altium Designer,25.5.2 (35)*
G04*
G04 Layer_Color=65535*
%FSLAX25Y25*%
%MOIN*%
G70*
G04*
G04 #@! TF.SameCoordinates,60885573-F3C6-4070-B52C-B727696974C1*
G04*
G04*
G04 #@! TF.FilePolarity,Positive*
G04*
G01*
G75*
%ADD10C,0.01000*%
%ADD11C,0.00591*%
%ADD12C,0.00787*%
G36*
X23322Y34783D02*
X24949D01*
Y33963D01*
X23322D01*
Y32336D01*
X22482D01*
Y33963D01*
X20855D01*
Y34783D01*
X22482D01*
Y36410D01*
X23322D01*
Y34783D01*
D02*
G37*
G36*
X18218Y37020D02*
X18343Y37013D01*
X18474Y37007D01*
X18599Y36994D01*
X18710Y36980D01*
X18723D01*
X18756Y36974D01*
X18809Y36961D01*
X18874Y36948D01*
X18953Y36921D01*
X19038Y36895D01*
X19123Y36862D01*
X19215Y36816D01*
X19228Y36810D01*
X19255Y36790D01*
X19300Y36764D01*
X19360Y36718D01*
X19419Y36665D01*
X19484Y36606D01*
X19543Y36528D01*
X19596Y36449D01*
X19602Y36436D01*
X19615Y36410D01*
X19635Y36364D01*
X19661Y36298D01*
X19688Y36219D01*
X19707Y36128D01*
X19720Y36029D01*
X19727Y35918D01*
Y35911D01*
Y35905D01*
Y35885D01*
Y35859D01*
X19720Y35793D01*
X19707Y35708D01*
X19681Y35616D01*
X19655Y35511D01*
X19609Y35406D01*
X19550Y35301D01*
X19543Y35288D01*
X19517Y35255D01*
X19478Y35209D01*
X19425Y35150D01*
X19360Y35085D01*
X19274Y35019D01*
X19182Y34953D01*
X19071Y34901D01*
Y34875D01*
X19077D01*
X19091Y34868D01*
X19110Y34861D01*
X19143Y34855D01*
X19182Y34842D01*
X19222Y34829D01*
X19327Y34796D01*
X19438Y34743D01*
X19550Y34678D01*
X19668Y34593D01*
X19773Y34494D01*
X19786Y34481D01*
X19812Y34442D01*
X19858Y34383D01*
X19911Y34291D01*
X19956Y34186D01*
X20002Y34055D01*
X20029Y33904D01*
X20042Y33733D01*
Y33727D01*
Y33720D01*
Y33700D01*
Y33674D01*
X20035Y33609D01*
X20022Y33523D01*
X20009Y33425D01*
X19983Y33320D01*
X19950Y33215D01*
X19904Y33110D01*
X19897Y33097D01*
X19878Y33064D01*
X19851Y33018D01*
X19812Y32953D01*
X19760Y32887D01*
X19694Y32808D01*
X19622Y32736D01*
X19543Y32671D01*
X19530Y32664D01*
X19497Y32638D01*
X19445Y32598D01*
X19373Y32552D01*
X19287Y32506D01*
X19189Y32454D01*
X19077Y32408D01*
X18959Y32369D01*
X18953D01*
X18946Y32362D01*
X18927D01*
X18900Y32356D01*
X18868Y32349D01*
X18835Y32342D01*
X18736Y32329D01*
X18618Y32310D01*
X18481Y32297D01*
X18323Y32290D01*
X18146Y32283D01*
X16250D01*
Y37026D01*
X18100D01*
X18218Y37020D01*
D02*
G37*
G36*
X22692Y4803D02*
X20580D01*
Y5682D01*
X22692D01*
Y4803D01*
D02*
G37*
G36*
X18218Y7886D02*
X18343Y7879D01*
X18474Y7873D01*
X18599Y7860D01*
X18710Y7847D01*
X18723D01*
X18756Y7840D01*
X18809Y7827D01*
X18874Y7814D01*
X18953Y7788D01*
X19038Y7761D01*
X19123Y7728D01*
X19215Y7683D01*
X19228Y7676D01*
X19255Y7656D01*
X19300Y7630D01*
X19360Y7584D01*
X19419Y7532D01*
X19484Y7473D01*
X19543Y7394D01*
X19596Y7315D01*
X19602Y7302D01*
X19615Y7276D01*
X19635Y7230D01*
X19661Y7164D01*
X19688Y7086D01*
X19707Y6994D01*
X19720Y6895D01*
X19727Y6784D01*
Y6777D01*
Y6771D01*
Y6751D01*
Y6725D01*
X19720Y6659D01*
X19707Y6574D01*
X19681Y6482D01*
X19655Y6377D01*
X19609Y6272D01*
X19550Y6167D01*
X19543Y6154D01*
X19517Y6121D01*
X19478Y6075D01*
X19425Y6016D01*
X19360Y5951D01*
X19274Y5885D01*
X19182Y5819D01*
X19071Y5767D01*
Y5741D01*
X19077D01*
X19091Y5734D01*
X19110Y5728D01*
X19143Y5721D01*
X19182Y5708D01*
X19222Y5695D01*
X19327Y5662D01*
X19438Y5610D01*
X19550Y5544D01*
X19668Y5459D01*
X19773Y5360D01*
X19786Y5347D01*
X19812Y5308D01*
X19858Y5249D01*
X19911Y5157D01*
X19956Y5052D01*
X20002Y4921D01*
X20029Y4770D01*
X20042Y4599D01*
Y4593D01*
Y4586D01*
Y4567D01*
Y4540D01*
X20035Y4475D01*
X20022Y4389D01*
X20009Y4291D01*
X19983Y4186D01*
X19950Y4081D01*
X19904Y3976D01*
X19897Y3963D01*
X19878Y3930D01*
X19851Y3884D01*
X19812Y3819D01*
X19760Y3753D01*
X19694Y3674D01*
X19622Y3602D01*
X19543Y3537D01*
X19530Y3530D01*
X19497Y3504D01*
X19445Y3464D01*
X19373Y3419D01*
X19287Y3373D01*
X19189Y3320D01*
X19077Y3274D01*
X18959Y3235D01*
X18953D01*
X18946Y3228D01*
X18927D01*
X18900Y3222D01*
X18868Y3215D01*
X18835Y3209D01*
X18736Y3196D01*
X18618Y3176D01*
X18481Y3163D01*
X18323Y3156D01*
X18146Y3150D01*
X16250D01*
Y7892D01*
X18100D01*
X18218Y7886D01*
D02*
G37*
%LPC*%
G36*
X17877Y36160D02*
X17437D01*
Y35150D01*
X18028D01*
X18054Y35157D01*
X18087Y35163D01*
X18172Y35183D01*
X18264Y35222D01*
X18271D01*
X18290Y35236D01*
X18310Y35249D01*
X18343Y35268D01*
X18408Y35327D01*
X18435Y35367D01*
X18461Y35406D01*
Y35413D01*
X18467Y35426D01*
X18481Y35452D01*
X18494Y35485D01*
X18500Y35524D01*
X18513Y35570D01*
X18520Y35682D01*
Y35688D01*
Y35701D01*
Y35728D01*
X18513Y35754D01*
X18494Y35832D01*
X18461Y35918D01*
Y35924D01*
X18448Y35937D01*
X18435Y35957D01*
X18415Y35990D01*
X18356Y36042D01*
X18323Y36075D01*
X18277Y36095D01*
X18271D01*
X18257Y36101D01*
X18231Y36114D01*
X18198Y36121D01*
X18159Y36134D01*
X18107Y36141D01*
X17995Y36154D01*
X17929D01*
X17877Y36160D01*
D02*
G37*
G36*
X18028Y34337D02*
X17437D01*
Y33149D01*
X18172D01*
X18205Y33156D01*
X18251Y33163D01*
X18303Y33176D01*
X18369Y33189D01*
X18435Y33215D01*
X18500Y33241D01*
X18507Y33248D01*
X18526Y33254D01*
X18559Y33268D01*
X18592Y33294D01*
X18631Y33320D01*
X18671Y33353D01*
X18703Y33399D01*
X18736Y33445D01*
X18743Y33451D01*
X18749Y33471D01*
X18763Y33497D01*
X18776Y33536D01*
X18789Y33582D01*
X18802Y33635D01*
X18815Y33694D01*
Y33753D01*
Y33759D01*
Y33786D01*
X18809Y33825D01*
X18802Y33878D01*
X18776Y33989D01*
X18756Y34042D01*
X18723Y34094D01*
X18717Y34101D01*
X18703Y34114D01*
X18684Y34140D01*
X18658Y34166D01*
X18618Y34192D01*
X18572Y34225D01*
X18520Y34258D01*
X18454Y34284D01*
X18448D01*
X18435Y34291D01*
X18408Y34297D01*
X18375Y34304D01*
X18336Y34310D01*
X18284Y34324D01*
X18225D01*
X18159Y34330D01*
X18080D01*
X18028Y34337D01*
D02*
G37*
G36*
X17877Y7027D02*
X17437D01*
Y6016D01*
X18028D01*
X18054Y6023D01*
X18087Y6029D01*
X18172Y6049D01*
X18264Y6089D01*
X18271D01*
X18290Y6102D01*
X18310Y6115D01*
X18343Y6134D01*
X18408Y6193D01*
X18435Y6233D01*
X18461Y6272D01*
Y6279D01*
X18467Y6292D01*
X18481Y6318D01*
X18494Y6351D01*
X18500Y6390D01*
X18513Y6436D01*
X18520Y6548D01*
Y6554D01*
Y6567D01*
Y6594D01*
X18513Y6620D01*
X18494Y6699D01*
X18461Y6784D01*
Y6790D01*
X18448Y6803D01*
X18435Y6823D01*
X18415Y6856D01*
X18356Y6909D01*
X18323Y6941D01*
X18277Y6961D01*
X18271D01*
X18257Y6967D01*
X18231Y6981D01*
X18198Y6987D01*
X18159Y7000D01*
X18107Y7007D01*
X17995Y7020D01*
X17929D01*
X17877Y7027D01*
D02*
G37*
G36*
X18028Y5203D02*
X17437D01*
Y4016D01*
X18172D01*
X18205Y4022D01*
X18251Y4029D01*
X18303Y4042D01*
X18369Y4055D01*
X18435Y4081D01*
X18500Y4107D01*
X18507Y4114D01*
X18526Y4121D01*
X18559Y4134D01*
X18592Y4160D01*
X18631Y4186D01*
X18671Y4219D01*
X18703Y4265D01*
X18736Y4311D01*
X18743Y4317D01*
X18749Y4337D01*
X18763Y4363D01*
X18776Y4403D01*
X18789Y4448D01*
X18802Y4501D01*
X18815Y4560D01*
Y4619D01*
Y4626D01*
Y4652D01*
X18809Y4691D01*
X18802Y4744D01*
X18776Y4855D01*
X18756Y4908D01*
X18723Y4960D01*
X18717Y4967D01*
X18703Y4980D01*
X18684Y5006D01*
X18658Y5032D01*
X18618Y5059D01*
X18572Y5091D01*
X18520Y5124D01*
X18454Y5150D01*
X18448D01*
X18435Y5157D01*
X18408Y5164D01*
X18375Y5170D01*
X18336Y5177D01*
X18284Y5190D01*
X18225D01*
X18159Y5196D01*
X18080D01*
X18028Y5203D01*
D02*
G37*
%LPD*%
D10*
X33465Y14173D02*
X32677D01*
X33465D01*
D11*
X45945Y14992D02*
Y15748D01*
X35945D02*
X45945D01*
X35945Y14992D02*
Y15748D01*
Y10236D02*
Y10992D01*
Y10236D02*
X45945D01*
Y10992D01*
X40945Y10236D02*
Y15748D01*
X37402Y16929D02*
X38976D01*
X37402D02*
Y30315D01*
X38976D01*
X42913D02*
X44488D01*
Y16929D02*
Y30315D01*
X42913Y16929D02*
X44488D01*
X37402Y23622D02*
X44488D01*
D12*
X20591Y13878D02*
Y14878D01*
Y13878D02*
X30591D01*
X30787D02*
Y14878D01*
X20591Y24492D02*
Y25492D01*
X20787D02*
X30787D01*
Y24492D02*
Y25492D01*
M02*
