G04*
G04 #@! TF.GenerationSoftware,Altium Limited,Altium Designer,25.5.2 (35)*
G04*
G04 Layer_Physical_Order=2*
G04 Layer_Color=16711680*
%FSLAX25Y25*%
%MOIN*%
G70*
G04*
G04 #@! TF.SameCoordinates,C1035640-1C05-4D54-A290-4328996D6F79*
G04*
G04*
G04 #@! TF.FilePolarity,Positive*
G04*
G01*
G75*
G04:AMPARAMS|DCode=27|XSize=236.22mil|YSize=78.74mil|CornerRadius=19.68mil|HoleSize=0mil|Usage=FLASHONLY|Rotation=0.000|XOffset=0mil|YOffset=0mil|HoleType=Round|Shape=RoundedRectangle|*
%AMROUNDEDRECTD27*
21,1,0.23622,0.03937,0,0,0.0*
21,1,0.19685,0.07874,0,0,0.0*
1,1,0.03937,0.09843,-0.01968*
1,1,0.03937,-0.09843,-0.01968*
1,1,0.03937,-0.09843,0.01968*
1,1,0.03937,0.09843,0.01968*
%
%ADD27ROUNDEDRECTD27*%
%ADD28C,0.02756*%
G36*
X61989Y1003D02*
X44251D01*
X44030Y1452D01*
X44106Y1552D01*
X44425Y2323D01*
X44534Y3150D01*
Y7087D01*
X44425Y7914D01*
X44106Y8685D01*
X43598Y9346D01*
X42937Y9854D01*
X42166Y10174D01*
X41339Y10283D01*
X21654D01*
X20826Y10174D01*
X20056Y9854D01*
X19394Y9346D01*
X18886Y8685D01*
X18567Y7914D01*
X18458Y7087D01*
Y3150D01*
X18567Y2323D01*
X18886Y1552D01*
X18962Y1452D01*
X18741Y1003D01*
X1003D01*
Y38367D01*
X18741D01*
X18962Y37918D01*
X18886Y37818D01*
X18567Y37048D01*
X18458Y36220D01*
Y32283D01*
X18567Y31456D01*
X18886Y30685D01*
X19394Y30024D01*
X20056Y29516D01*
X20826Y29197D01*
X21654Y29088D01*
X41339D01*
X42166Y29197D01*
X42937Y29516D01*
X43598Y30024D01*
X44106Y30685D01*
X44425Y31456D01*
X44534Y32283D01*
Y36220D01*
X44425Y37048D01*
X44106Y37818D01*
X44030Y37918D01*
X44251Y38367D01*
X61989D01*
Y1003D01*
D02*
G37*
D27*
X31496Y5118D02*
D03*
Y34252D02*
D03*
D28*
X50394Y21260D02*
D03*
X54724D02*
D03*
X59055D02*
D03*
Y17323D02*
D03*
X54724D02*
D03*
X50394D02*
D03*
X8268Y21260D02*
D03*
X12598D02*
D03*
X3937D02*
D03*
Y17323D02*
D03*
X8268D02*
D03*
X12598D02*
D03*
M02*
