M48
;Layer_Color=9474304
;FILE_FORMAT=2:4
INCH,TZ
;TYPE=PLATED
T1F00S00C0.0138
T3F00S00C0.0591
%
T01
X2005Y737
X2757
X2367Y1270
X2247Y2456
X1772Y2021
X787Y2554
X1220Y3218
X2855Y3013
X3013Y3837
X4134Y2321
X6071Y2205
X6469Y1693
X5794Y1270
X5486Y737
X6142
X7239Y2205
X6988Y4840
X6868Y5336
X2732Y6359
X1979Y8071
X905
X6303
X7186
X7172Y7427
T03
X984Y787
X4134
X7283
M30
