G04*
G04 #@! TF.GenerationSoftware,Altium Limited,Altium Designer,19.1.8 (144)*
G04*
G04 Layer_Physical_Order=1*
G04 Layer_Color=255*
%FSLAX25Y25*%
%MOIN*%
G70*
G01*
G75*
%ADD23R,0.03740X0.03347*%
%ADD24R,0.03543X0.03150*%
%ADD25O,0.08661X0.03150*%
%ADD26R,0.02756X0.05512*%
%ADD27R,0.03150X0.05512*%
%ADD28O,0.03937X0.06299*%
%ADD29R,0.21654X0.08465*%
%ADD30R,0.05118X0.05512*%
%ADD31C,0.01968*%
%ADD32C,0.01000*%
G04:AMPARAMS|DCode=33|XSize=98.43mil|YSize=137.8mil|CornerRadius=49.21mil|HoleSize=0mil|Usage=FLASHONLY|Rotation=90.000|XOffset=0mil|YOffset=0mil|HoleType=Round|Shape=RoundedRectangle|*
%AMROUNDEDRECTD33*
21,1,0.09843,0.03937,0,0,90.0*
21,1,0.00000,0.13780,0,0,90.0*
1,1,0.09843,0.01968,0.00000*
1,1,0.09843,0.01968,0.00000*
1,1,0.09843,-0.01968,0.00000*
1,1,0.09843,-0.01968,0.00000*
%
%ADD33ROUNDEDRECTD33*%
%ADD34C,0.02756*%
G36*
X44595Y44285D02*
Y42069D01*
X38048Y35522D01*
X24668D01*
X23816Y35353D01*
X23093Y34870D01*
X23093Y34870D01*
X7480Y19257D01*
X6998Y18535D01*
X6828Y17682D01*
X6828Y17682D01*
Y13922D01*
X6674Y13907D01*
X5520Y13557D01*
X4457Y12988D01*
X4423Y12960D01*
X3971Y13174D01*
Y36300D01*
X27775D01*
Y41155D01*
X32139D01*
X32396Y40958D01*
X33071Y40678D01*
X33795Y40583D01*
X39307D01*
X40031Y40678D01*
X40706Y40958D01*
X41286Y41403D01*
X41731Y41982D01*
X42010Y42657D01*
X42106Y43382D01*
X42010Y44106D01*
X41731Y44781D01*
X41286Y45361D01*
X41088Y45512D01*
X41071Y46031D01*
X41442Y46381D01*
X42499D01*
X44595Y44285D01*
D02*
G37*
G36*
X78706Y3971D02*
X48608D01*
X48394Y4423D01*
X48422Y4457D01*
X48990Y5520D01*
X49340Y6674D01*
X49458Y7874D01*
X49340Y9074D01*
X48990Y10228D01*
X48928Y10345D01*
X52953Y14370D01*
X52953Y14370D01*
X53435Y15092D01*
X53605Y15945D01*
X53605Y15945D01*
Y27358D01*
X54546D01*
Y29758D01*
X57742Y32954D01*
X57742Y32954D01*
X58225Y33677D01*
X58395Y34529D01*
X58395Y34529D01*
Y35583D01*
X61905D01*
X62630Y35678D01*
X63305Y35958D01*
X63884Y36403D01*
X64329Y36982D01*
X64609Y37657D01*
X64704Y38382D01*
X64609Y39106D01*
X64329Y39781D01*
X63884Y40361D01*
X63882Y40363D01*
X63848Y40983D01*
X64101Y41233D01*
X70749D01*
Y35547D01*
X71592D01*
Y33450D01*
X69124D01*
Y25539D01*
X76643D01*
Y33450D01*
X76046D01*
Y35547D01*
X76889D01*
Y40666D01*
Y46412D01*
X76046D01*
Y66777D01*
X76046Y66777D01*
X75876Y67629D01*
X75394Y68352D01*
X75394Y68352D01*
X63135Y80610D01*
X62413Y81093D01*
X61560Y81262D01*
X61560Y81262D01*
X47786D01*
X47786Y81262D01*
X47786Y81262D01*
X36909D01*
X36909Y81262D01*
X36057Y81093D01*
X35335Y80610D01*
X35335Y80610D01*
X33898Y79173D01*
X33415Y78451D01*
X33246Y77599D01*
X33246Y77599D01*
Y74468D01*
X32895D01*
Y66556D01*
X37755D01*
Y66222D01*
X37887Y65558D01*
X38263Y64996D01*
X38859Y64400D01*
Y59430D01*
X44802D01*
Y63038D01*
X45264Y63230D01*
X45966Y62528D01*
Y59430D01*
X51909D01*
Y64979D01*
X48417D01*
X47302Y66094D01*
X47494Y66556D01*
X50019D01*
Y74468D01*
X49668D01*
Y76808D01*
X60638D01*
X71592Y65854D01*
Y54387D01*
X71092Y54287D01*
X70936Y54663D01*
X70523Y55201D01*
X69985Y55615D01*
X69358Y55874D01*
X68685Y55963D01*
X68011Y55874D01*
X67384Y55615D01*
X67364Y55599D01*
X63573D01*
X63305Y55805D01*
X62630Y56085D01*
X61905Y56180D01*
X56393D01*
X55669Y56085D01*
X54994Y55805D01*
X54414Y55361D01*
X53970Y54781D01*
X53690Y54106D01*
X53595Y53382D01*
X53690Y52657D01*
X53970Y51982D01*
X54414Y51403D01*
X54683Y51197D01*
Y50567D01*
X54414Y50361D01*
X53970Y49781D01*
X53690Y49106D01*
X53595Y48382D01*
X53690Y47657D01*
X53970Y46982D01*
X54414Y46403D01*
X54683Y46197D01*
Y45567D01*
X54414Y45361D01*
X53970Y44781D01*
X53690Y44106D01*
X53595Y43382D01*
X53690Y42657D01*
X53970Y41982D01*
X54414Y41403D01*
X54683Y41197D01*
Y40567D01*
X54414Y40361D01*
X53970Y39781D01*
X53690Y39106D01*
X53595Y38382D01*
X53690Y37657D01*
X53940Y37053D01*
Y35451D01*
X51397Y32908D01*
X48603D01*
Y27358D01*
X49151D01*
Y16867D01*
X45778Y13494D01*
X45661Y13557D01*
X44507Y13907D01*
X43307Y14025D01*
X39370D01*
X38170Y13907D01*
X37017Y13557D01*
X35953Y12988D01*
X35021Y12223D01*
X34256Y11291D01*
X33688Y10228D01*
X33338Y9074D01*
X33220Y7874D01*
X33338Y6674D01*
X33688Y5520D01*
X34256Y4457D01*
X34284Y4423D01*
X34070Y3971D01*
X17111D01*
X16897Y4423D01*
X16925Y4457D01*
X17494Y5520D01*
X17844Y6674D01*
X17962Y7874D01*
X17844Y9074D01*
X17494Y10228D01*
X16925Y11291D01*
X16160Y12223D01*
X15228Y12988D01*
X14165Y13557D01*
X13011Y13907D01*
X11811Y14025D01*
X11282D01*
Y16760D01*
X25268Y30746D01*
X25559Y30721D01*
X25958Y30217D01*
X25947Y30133D01*
X26035Y29460D01*
X26295Y28833D01*
X26708Y28295D01*
X27247Y27881D01*
X27874Y27621D01*
X28547Y27533D01*
X29220Y27621D01*
X29847Y27881D01*
X29879Y27906D01*
X41910D01*
Y27358D01*
X47853D01*
Y32908D01*
X42440D01*
X42233Y33408D01*
X48397Y39572D01*
X48397Y39572D01*
X48880Y40294D01*
X49049Y41146D01*
X49049Y41147D01*
Y45207D01*
X49049Y45208D01*
X48880Y46060D01*
X48397Y46782D01*
X48397Y46782D01*
X44997Y50182D01*
X44274Y50665D01*
X43422Y50835D01*
X43422Y50835D01*
X41367D01*
X41197Y51335D01*
X41286Y51403D01*
X41731Y51982D01*
X42010Y52657D01*
X42106Y53382D01*
X42010Y54106D01*
X41731Y54781D01*
X41286Y55361D01*
X40706Y55805D01*
X40031Y56085D01*
X39307Y56180D01*
X33795D01*
X33071Y56085D01*
X32632Y55904D01*
X32154Y56208D01*
X32148Y56217D01*
Y60988D01*
X32148Y60988D01*
X31979Y61840D01*
X31496Y62563D01*
X31496Y62563D01*
X29833Y64226D01*
X29828Y64266D01*
X29568Y64894D01*
X29155Y65432D01*
X28616Y65845D01*
X27989Y66105D01*
X27316Y66194D01*
X26643Y66105D01*
X26016Y65845D01*
X25477Y65432D01*
X25064Y64894D01*
X24804Y64266D01*
X24716Y63594D01*
X24804Y62920D01*
X24927Y62625D01*
X24593Y62125D01*
X20798D01*
X20688Y62580D01*
X20688D01*
Y70491D01*
X13170D01*
Y62580D01*
X13170D01*
X13060Y62125D01*
X3971D01*
Y90517D01*
X78706D01*
Y3971D01*
D02*
G37*
D23*
X73819Y38421D02*
D03*
Y43539D02*
D03*
D24*
X35138Y62205D02*
D03*
X41831D02*
D03*
X55630D02*
D03*
X48937D02*
D03*
X51575Y30133D02*
D03*
X44882D02*
D03*
D25*
X36551Y53382D02*
D03*
Y48382D02*
D03*
Y43382D02*
D03*
Y38382D02*
D03*
X59149Y53382D02*
D03*
Y48382D02*
D03*
Y43382D02*
D03*
Y38382D02*
D03*
D26*
X35473Y70512D02*
D03*
X39489D02*
D03*
X43426D02*
D03*
X47441D02*
D03*
D27*
X30630D02*
D03*
X52284D02*
D03*
D28*
X58465Y86614D02*
D03*
D03*
X24449D02*
D03*
Y71653D02*
D03*
X58465D02*
D03*
D29*
X15748Y56693D02*
D03*
Y41732D02*
D03*
D30*
X66584Y29495D02*
D03*
X72883D02*
D03*
X10630Y66535D02*
D03*
X16929D02*
D03*
D31*
X73819Y43539D02*
Y66777D01*
X61560Y79035D02*
X73819Y66777D01*
X47786Y79035D02*
X61560D01*
X73819Y30430D02*
Y38421D01*
X72883Y29495D02*
X73819Y30430D01*
X73740Y43460D02*
X73819Y43539D01*
X59228Y43460D02*
X73740D01*
X59149Y43382D02*
X59228Y43460D01*
X36909Y79035D02*
X47786D01*
X47441Y78690D02*
X47786Y79035D01*
X47441Y70512D02*
Y78690D01*
X35473Y77599D02*
X36909Y79035D01*
X35473Y70512D02*
Y77599D01*
X31559Y53382D02*
X36551D01*
X29921Y55020D02*
X31559Y53382D01*
X29921Y55020D02*
Y60988D01*
X27316Y63594D02*
X29921Y60988D01*
X30428Y48608D02*
X43422D01*
X7874Y7874D02*
X9055Y9055D01*
Y17682D02*
X24668Y33295D01*
X9055Y9055D02*
Y17682D01*
X43422Y48608D02*
X46822Y45208D01*
X51378Y30133D02*
X51772D01*
X56713Y38382D02*
X59149D01*
X56168Y37836D02*
X56713Y38382D01*
X56168Y34529D02*
Y37836D01*
X51772Y30133D02*
X56168Y34529D01*
X68675Y53372D02*
X68685Y53363D01*
X59159Y53372D02*
X68675D01*
X59149Y53382D02*
X59159Y53372D01*
X59149Y48382D02*
X59165Y48397D01*
X69874Y48390D02*
X69882Y48397D01*
X59157Y48390D02*
X69874D01*
X59149Y48382D02*
X59157Y48390D01*
X22343Y56693D02*
X30428Y48608D01*
X15748Y56693D02*
X22343D01*
X17397Y43382D02*
X36551D01*
X15748Y41732D02*
X17397Y43382D01*
X46822Y41146D02*
Y45208D01*
X38971Y33295D02*
X46822Y41146D01*
X24668Y33295D02*
X38971D01*
X30130Y38366D02*
X30138Y38374D01*
X36543D02*
X36551Y38382D01*
X16929Y57874D02*
Y66535D01*
X15748Y56693D02*
X16929Y57874D01*
X51378Y15945D02*
Y30133D01*
X43307Y7874D02*
X51378Y15945D01*
X41339Y7874D02*
X43307D01*
X28547Y30133D02*
X44882D01*
D32*
X41831Y62205D02*
X41831D01*
X41142Y62893D02*
X41831Y62205D01*
X41142Y62893D02*
Y64568D01*
X39489Y66222D02*
X41142Y64568D01*
X43426Y67520D02*
Y70512D01*
Y67520D02*
X48741Y62205D01*
X48937D01*
X39489Y66222D02*
Y70512D01*
D33*
X9843Y7874D02*
D03*
X72835D02*
D03*
X41339D02*
D03*
D34*
X27316Y63594D02*
D03*
X30130Y38366D02*
D03*
X69882Y48397D02*
D03*
X68685Y53363D02*
D03*
X41339Y23209D02*
D03*
X60709Y22047D02*
D03*
X12196Y32180D02*
D03*
X22469Y24558D02*
D03*
X17717Y20209D02*
D03*
X7874Y25539D02*
D03*
X72394Y22047D02*
D03*
X71720Y74268D02*
D03*
Y80709D02*
D03*
X19791D02*
D03*
X9055D02*
D03*
X54859Y7374D02*
D03*
X61417D02*
D03*
X57939Y12702D02*
D03*
X20052Y7374D02*
D03*
X27575D02*
D03*
X23674Y12702D02*
D03*
X28547Y30133D02*
D03*
M02*
