G04*
G04 #@! TF.GenerationSoftware,Altium Limited,Altium Designer,19.1.8 (144)*
G04*
G04 Layer_Color=8388736*
%FSLAX25Y25*%
%MOIN*%
G70*
G01*
G75*
%ADD13R,0.04134X0.03740*%
%ADD14R,0.03937X0.03543*%
%ADD15O,0.09055X0.03543*%
%ADD16R,0.03150X0.05906*%
%ADD17R,0.03543X0.05906*%
%ADD18O,0.04331X0.06693*%
%ADD19R,0.22047X0.08858*%
%ADD20R,0.05512X0.05906*%
G04:AMPARAMS|DCode=21|XSize=102.36mil|YSize=141.73mil|CornerRadius=51.18mil|HoleSize=0mil|Usage=FLASHONLY|Rotation=90.000|XOffset=0mil|YOffset=0mil|HoleType=Round|Shape=RoundedRectangle|*
%AMROUNDEDRECTD21*
21,1,0.10236,0.03937,0,0,90.0*
21,1,0.00000,0.14173,0,0,90.0*
1,1,0.10236,0.01968,0.00000*
1,1,0.10236,0.01968,0.00000*
1,1,0.10236,-0.01968,0.00000*
1,1,0.10236,-0.01968,0.00000*
%
%ADD21ROUNDEDRECTD21*%
%ADD22C,0.03150*%
D13*
X73819Y38421D02*
D03*
Y43539D02*
D03*
D14*
X35138Y62205D02*
D03*
X41831D02*
D03*
X55630D02*
D03*
X48937D02*
D03*
X51575Y30133D02*
D03*
X44882D02*
D03*
D15*
X36551Y53382D02*
D03*
Y48382D02*
D03*
Y43382D02*
D03*
Y38382D02*
D03*
X59149Y53382D02*
D03*
Y48382D02*
D03*
Y43382D02*
D03*
Y38382D02*
D03*
D16*
X35473Y70512D02*
D03*
X39489D02*
D03*
X43426D02*
D03*
X47441D02*
D03*
D17*
X30630D02*
D03*
X52284D02*
D03*
D18*
X58465Y86614D02*
D03*
D03*
X24449D02*
D03*
Y71653D02*
D03*
X58465D02*
D03*
D19*
X15748Y56693D02*
D03*
Y41732D02*
D03*
D20*
X66584Y29495D02*
D03*
X72883D02*
D03*
X10630Y66535D02*
D03*
X16929D02*
D03*
D21*
X9843Y7874D02*
D03*
X72835D02*
D03*
X41339D02*
D03*
D22*
X27316Y63594D02*
D03*
X30130Y38366D02*
D03*
X69882Y48397D02*
D03*
X68685Y53363D02*
D03*
X41339Y23209D02*
D03*
X60709Y22047D02*
D03*
X12196Y32180D02*
D03*
X22469Y24558D02*
D03*
X17717Y20209D02*
D03*
X7874Y25539D02*
D03*
X72394Y22047D02*
D03*
X71720Y74268D02*
D03*
Y80709D02*
D03*
X19791D02*
D03*
X9055D02*
D03*
X54859Y7374D02*
D03*
X61417D02*
D03*
X57939Y12702D02*
D03*
X20052Y7374D02*
D03*
X27575D02*
D03*
X23674Y12702D02*
D03*
X28547Y30133D02*
D03*
M02*
