G04*
G04 #@! TF.GenerationSoftware,Altium Limited,Altium Designer,19.1.8 (144)*
G04*
G04 Layer_Color=16711935*
%FSLAX25Y25*%
%MOIN*%
G70*
G01*
G75*
%ADD18O,0.04331X0.06693*%
G04:AMPARAMS|DCode=21|XSize=102.36mil|YSize=141.73mil|CornerRadius=51.18mil|HoleSize=0mil|Usage=FLASHONLY|Rotation=90.000|XOffset=0mil|YOffset=0mil|HoleType=Round|Shape=RoundedRectangle|*
%AMROUNDEDRECTD21*
21,1,0.10236,0.03937,0,0,90.0*
21,1,0.00000,0.14173,0,0,90.0*
1,1,0.10236,0.01968,0.00000*
1,1,0.10236,0.01968,0.00000*
1,1,0.10236,-0.01968,0.00000*
1,1,0.10236,-0.01968,0.00000*
%
%ADD21ROUNDEDRECTD21*%
%ADD22C,0.03150*%
%ADD38R,0.04900X0.02600*%
%ADD41R,0.03543X0.02953*%
%ADD42R,0.05315X0.14764*%
%ADD43R,0.14173X0.08268*%
%ADD44R,0.05906X0.05512*%
D18*
X58465Y86614D02*
D03*
X24449D02*
D03*
Y71653D02*
D03*
X58465D02*
D03*
D21*
X9843Y7874D02*
D03*
X72835D02*
D03*
X41339D02*
D03*
D22*
X27316Y63594D02*
D03*
X30130Y38366D02*
D03*
X69882Y48397D02*
D03*
X68685Y53363D02*
D03*
X41339Y23209D02*
D03*
X60709Y22047D02*
D03*
X12196Y32180D02*
D03*
X22469Y24558D02*
D03*
X17717Y20209D02*
D03*
X7874Y25539D02*
D03*
X72394Y22047D02*
D03*
X71720Y74268D02*
D03*
Y80709D02*
D03*
X19791D02*
D03*
X9055D02*
D03*
X54859Y7374D02*
D03*
X61417D02*
D03*
X57939Y12702D02*
D03*
X20052Y7374D02*
D03*
X27575D02*
D03*
X23674Y12702D02*
D03*
X28547Y30133D02*
D03*
D38*
X33339Y20709D02*
D03*
Y26535D02*
D03*
X49339D02*
D03*
Y20709D02*
D03*
D41*
X44291Y36713D02*
D03*
X38386D02*
D03*
X44291Y40059D02*
D03*
X38386D02*
D03*
D42*
X27559Y54134D02*
D03*
X45276Y54085D02*
D03*
X37402D02*
D03*
X55118Y54035D02*
D03*
D43*
X71358Y65010D02*
D03*
Y88632D02*
D03*
X11319Y65010D02*
D03*
Y88632D02*
D03*
D44*
X19291Y44094D02*
D03*
Y50394D02*
D03*
X10236Y44094D02*
D03*
Y50394D02*
D03*
M02*
