G04*
G04 #@! TF.GenerationSoftware,Altium Limited,Altium Designer,19.1.8 (144)*
G04*
G04 Layer_Physical_Order=2*
G04 Layer_Color=16711680*
%FSLAX25Y25*%
%MOIN*%
G70*
G01*
G75*
%ADD26O,0.03937X0.06299*%
%ADD31C,0.01968*%
G04:AMPARAMS|DCode=32|XSize=98.43mil|YSize=137.8mil|CornerRadius=49.21mil|HoleSize=0mil|Usage=FLASHONLY|Rotation=90.000|XOffset=0mil|YOffset=0mil|HoleType=Round|Shape=RoundedRectangle|*
%AMROUNDEDRECTD32*
21,1,0.09843,0.03937,0,0,90.0*
21,1,0.00000,0.13780,0,0,90.0*
1,1,0.09843,0.01968,0.00000*
1,1,0.09843,0.01968,0.00000*
1,1,0.09843,-0.01968,0.00000*
1,1,0.09843,-0.01968,0.00000*
%
%ADD32ROUNDEDRECTD32*%
%ADD33C,0.02756*%
%ADD34R,0.03150X0.02559*%
%ADD35R,0.04921X0.14370*%
%ADD36R,0.13780X0.07874*%
%ADD37R,0.04900X0.02600*%
%ADD38R,0.05512X0.05118*%
%ADD39C,0.02756*%
G36*
X63468Y89132D02*
X71358D01*
Y88632D01*
X71858D01*
Y83695D01*
X78706D01*
Y69947D01*
X71858D01*
Y65010D01*
Y60073D01*
X78706D01*
Y12916D01*
X78254Y12702D01*
X78109Y12821D01*
X77080Y13371D01*
X75964Y13710D01*
X74803Y13824D01*
X73335D01*
Y7874D01*
X72835D01*
Y7374D01*
X64965D01*
X65031Y6713D01*
X65369Y5597D01*
X65919Y4568D01*
X66038Y4423D01*
X65825Y3971D01*
X48608D01*
X48394Y4423D01*
X48422Y4457D01*
X48990Y5520D01*
X49340Y6674D01*
X49458Y7874D01*
X49340Y9074D01*
X48990Y10228D01*
X48422Y11291D01*
X47657Y12223D01*
X46725Y12988D01*
X45661Y13557D01*
X44507Y13907D01*
X43307Y14025D01*
X39370D01*
X38170Y13907D01*
X37017Y13557D01*
X35953Y12988D01*
X35021Y12223D01*
X34256Y11291D01*
X33688Y10228D01*
X33338Y9074D01*
X33220Y7874D01*
X33338Y6674D01*
X33688Y5520D01*
X34256Y4457D01*
X34284Y4423D01*
X34070Y3971D01*
X17111D01*
X16897Y4423D01*
X16925Y4457D01*
X17494Y5520D01*
X17844Y6674D01*
X17962Y7874D01*
X17844Y9074D01*
X17494Y10228D01*
X16925Y11291D01*
X16160Y12223D01*
X15228Y12988D01*
X14165Y13557D01*
X13011Y13907D01*
X11811Y14025D01*
X7874D01*
X6674Y13907D01*
X5520Y13557D01*
X4457Y12988D01*
X4423Y12960D01*
X3971Y13174D01*
Y60073D01*
X10819D01*
Y65010D01*
Y69947D01*
X3971D01*
Y83695D01*
X10819D01*
Y88632D01*
X11319D01*
Y89132D01*
X19209D01*
Y90517D01*
X22299D01*
X22469Y90017D01*
X22332Y89912D01*
X21856Y89292D01*
X21557Y88570D01*
X21455Y87795D01*
Y87114D01*
X24449D01*
X27443D01*
Y87795D01*
X27341Y88570D01*
X27042Y89292D01*
X26566Y89912D01*
X26430Y90017D01*
X26599Y90517D01*
X56315D01*
X56484Y90017D01*
X56348Y89912D01*
X55872Y89292D01*
X55573Y88570D01*
X55471Y87795D01*
Y87114D01*
X58465D01*
X61459D01*
Y87795D01*
X61357Y88570D01*
X61058Y89292D01*
X60582Y89912D01*
X60445Y90017D01*
X60615Y90517D01*
X63468D01*
Y89132D01*
D02*
G37*
%LPC*%
G36*
X70858Y88132D02*
X63468D01*
Y83695D01*
X70858D01*
Y88132D01*
D02*
G37*
G36*
X19209D02*
X11819D01*
Y83695D01*
X19209D01*
Y88132D01*
D02*
G37*
G36*
X27443Y86114D02*
X24949D01*
Y82505D01*
X25224Y82541D01*
X25946Y82840D01*
X26566Y83316D01*
X27042Y83936D01*
X27341Y84658D01*
X27443Y85433D01*
Y86114D01*
D02*
G37*
G36*
X57965D02*
X55471D01*
Y85433D01*
X55573Y84658D01*
X55872Y83936D01*
X56348Y83316D01*
X56968Y82840D01*
X57690Y82541D01*
X57965Y82505D01*
Y86114D01*
D02*
G37*
G36*
X61459D02*
X58965D01*
Y82505D01*
X59240Y82541D01*
X59962Y82840D01*
X60582Y83316D01*
X61058Y83936D01*
X61357Y84658D01*
X61459Y85433D01*
Y86114D01*
D02*
G37*
G36*
X23949D02*
X21455D01*
Y85433D01*
X21557Y84658D01*
X21856Y83936D01*
X22332Y83316D01*
X22952Y82840D01*
X23674Y82541D01*
X23949Y82505D01*
Y86114D01*
D02*
G37*
G36*
X24949Y75763D02*
Y72154D01*
X27443D01*
Y72835D01*
X27341Y73610D01*
X27042Y74332D01*
X26566Y74952D01*
X25946Y75428D01*
X25224Y75727D01*
X24949Y75763D01*
D02*
G37*
G36*
X58965Y75763D02*
Y72154D01*
X61459D01*
Y72835D01*
X61357Y73610D01*
X61058Y74332D01*
X60582Y74952D01*
X59962Y75428D01*
X59240Y75727D01*
X58965Y75763D01*
D02*
G37*
G36*
X57965Y75763D02*
X57690Y75727D01*
X56968Y75428D01*
X56348Y74952D01*
X55872Y74332D01*
X55573Y73610D01*
X55471Y72835D01*
Y72154D01*
X57965D01*
Y75763D01*
D02*
G37*
G36*
X23949Y75763D02*
X23674Y75727D01*
X22952Y75428D01*
X22332Y74952D01*
X21856Y74332D01*
X21557Y73610D01*
X21455Y72835D01*
Y72154D01*
X23949D01*
Y75763D01*
D02*
G37*
G36*
X27443Y71153D02*
X24949D01*
Y67544D01*
X25224Y67580D01*
X25946Y67879D01*
X26566Y68355D01*
X27042Y68975D01*
X27341Y69697D01*
X27443Y70472D01*
Y71153D01*
D02*
G37*
G36*
X57965D02*
X55471D01*
Y70472D01*
X55573Y69697D01*
X55872Y68975D01*
X56348Y68355D01*
X56968Y67879D01*
X57690Y67580D01*
X57965Y67544D01*
Y71153D01*
D02*
G37*
G36*
X61459D02*
X58965D01*
Y67544D01*
X59240Y67580D01*
X59962Y67879D01*
X60582Y68355D01*
X61058Y68975D01*
X61357Y69697D01*
X61459Y70472D01*
Y71153D01*
D02*
G37*
G36*
X23949D02*
X21455D01*
Y70472D01*
X21557Y69697D01*
X21856Y68975D01*
X22332Y68355D01*
X22952Y67879D01*
X23674Y67580D01*
X23949Y67544D01*
Y71153D01*
D02*
G37*
G36*
X70858Y69947D02*
X63468D01*
Y65510D01*
X70858D01*
Y69947D01*
D02*
G37*
G36*
X19209D02*
X11819D01*
Y65510D01*
X19209D01*
Y69947D01*
D02*
G37*
G36*
X70858Y64510D02*
X63468D01*
Y60073D01*
X70858D01*
Y64510D01*
D02*
G37*
G36*
X19209D02*
X11819D01*
Y60073D01*
X19209D01*
Y64510D01*
D02*
G37*
G36*
X58579Y62221D02*
X55618D01*
Y54535D01*
X58579D01*
Y62221D01*
D02*
G37*
G36*
X54618D02*
X51657D01*
Y54535D01*
X54618D01*
Y62221D01*
D02*
G37*
G36*
X27316Y66194D02*
X26643Y66105D01*
X26016Y65845D01*
X25477Y65432D01*
X25064Y64894D01*
X24804Y64266D01*
X24716Y63594D01*
Y62519D01*
X23898D01*
Y52994D01*
X23247D01*
Y54153D01*
X15335D01*
Y52994D01*
X14192D01*
Y54153D01*
X6280D01*
Y46635D01*
X6480D01*
Y44594D01*
X13992D01*
Y46635D01*
X14192D01*
Y47793D01*
X15335D01*
Y46635D01*
X15535D01*
Y44594D01*
X23047D01*
Y46635D01*
X23247D01*
Y47793D01*
X23898D01*
Y45749D01*
X31220D01*
Y62519D01*
X29916D01*
Y63594D01*
X29828Y64266D01*
X29568Y64894D01*
X29155Y65432D01*
X28616Y65845D01*
X27989Y66105D01*
X27316Y66194D01*
D02*
G37*
G36*
X48936Y62470D02*
X41615D01*
Y50772D01*
X41062D01*
Y62470D01*
X33741D01*
Y45700D01*
X41062D01*
Y46318D01*
X41615D01*
Y45700D01*
X48936D01*
Y62470D01*
D02*
G37*
G36*
X68685Y55963D02*
X68011Y55874D01*
X67384Y55615D01*
X66846Y55201D01*
X66433Y54663D01*
X66173Y54036D01*
X66168Y53995D01*
X59041Y46868D01*
X58579Y47060D01*
Y53535D01*
X55618D01*
Y45850D01*
X57369D01*
X57561Y45388D01*
X54458Y42286D01*
X47066D01*
Y42539D01*
X41517D01*
Y37580D01*
Y34233D01*
X47066D01*
Y34486D01*
X58197D01*
X58197Y34486D01*
X59049Y34655D01*
X59772Y35138D01*
X70515Y45880D01*
X70555Y45886D01*
X71182Y46145D01*
X71720Y46559D01*
X72134Y47097D01*
X72394Y47724D01*
X72482Y48397D01*
X72394Y49070D01*
X72134Y49697D01*
X71720Y50236D01*
X71182Y50649D01*
X70555Y50909D01*
X70544Y50910D01*
X70404Y51433D01*
X70523Y51524D01*
X70936Y52063D01*
X71196Y52690D01*
X71285Y53363D01*
X71196Y54036D01*
X70936Y54663D01*
X70523Y55201D01*
X69985Y55615D01*
X69358Y55874D01*
X68685Y55963D01*
D02*
G37*
G36*
X54618Y53535D02*
X51657D01*
Y45850D01*
X54618D01*
Y53535D01*
D02*
G37*
G36*
X40961Y42339D02*
X38886D01*
Y40559D01*
X40961D01*
Y42339D01*
D02*
G37*
G36*
X37886D02*
X35811D01*
Y40559D01*
X37886D01*
Y42339D01*
D02*
G37*
G36*
X23047Y43595D02*
X19791D01*
Y40535D01*
X23047D01*
Y43595D01*
D02*
G37*
G36*
X18791D02*
X15535D01*
Y40535D01*
X18791D01*
Y43595D01*
D02*
G37*
G36*
X13992D02*
X10736D01*
Y40535D01*
X13992D01*
Y43595D01*
D02*
G37*
G36*
X9736D02*
X6480D01*
Y40535D01*
X9736D01*
Y43595D01*
D02*
G37*
G36*
X40961Y39559D02*
X35811D01*
Y38992D01*
X35811D01*
Y37213D01*
X40961D01*
Y37780D01*
X40961D01*
Y39559D01*
D02*
G37*
G36*
X40961Y36213D02*
X38886D01*
Y34433D01*
X40961D01*
Y36213D01*
D02*
G37*
G36*
X37886D02*
X35811D01*
Y34433D01*
X37886D01*
Y36213D01*
D02*
G37*
G36*
X52989Y29035D02*
X45689D01*
Y24035D01*
X52989D01*
Y29035D01*
D02*
G37*
G36*
X28547Y32733D02*
X27874Y32645D01*
X27247Y32385D01*
X26708Y31972D01*
X26295Y31433D01*
X26035Y30806D01*
X25947Y30133D01*
X26035Y29460D01*
X26295Y28833D01*
X26708Y28295D01*
X27247Y27881D01*
X27874Y27621D01*
X27965Y27610D01*
X29689Y25886D01*
Y24035D01*
X36989D01*
Y29035D01*
X32838D01*
X31052Y30822D01*
X30799Y31433D01*
X30385Y31972D01*
X29847Y32385D01*
X29220Y32645D01*
X28547Y32733D01*
D02*
G37*
G36*
X36789Y23009D02*
X33839D01*
Y21209D01*
X36789D01*
Y23009D01*
D02*
G37*
G36*
X32839D02*
X29889D01*
Y21209D01*
X32839D01*
Y23009D01*
D02*
G37*
G36*
X36789Y20209D02*
X33839D01*
Y18409D01*
X36789D01*
Y20209D01*
D02*
G37*
G36*
X32839D02*
X29889D01*
Y18409D01*
X32839D01*
Y20209D01*
D02*
G37*
G36*
X52989Y23209D02*
X45689D01*
Y18209D01*
X52989D01*
Y23209D01*
D02*
G37*
G36*
X72335Y13824D02*
X70866D01*
X69705Y13710D01*
X68589Y13371D01*
X67561Y12821D01*
X66659Y12081D01*
X65919Y11180D01*
X65369Y10151D01*
X65031Y9035D01*
X64965Y8374D01*
X72335D01*
Y13824D01*
D02*
G37*
%LPD*%
D26*
X58465Y86614D02*
D03*
X24449D02*
D03*
Y71653D02*
D03*
X58465D02*
D03*
D31*
X37402Y48545D02*
X45276D01*
X55381Y40059D02*
X68685Y53363D01*
X44291Y40059D02*
X55381D01*
X58197Y36713D02*
X69882Y48397D01*
X44291Y36713D02*
X58197D01*
X28547Y30133D02*
X28591D01*
X32189Y26535D01*
X33339D01*
D32*
X9843Y7874D02*
D03*
X72835D02*
D03*
X41339D02*
D03*
D33*
X27316Y63594D02*
D03*
X30130Y38366D02*
D03*
X69882Y48397D02*
D03*
X68685Y53363D02*
D03*
X41339Y23209D02*
D03*
X60709Y22047D02*
D03*
X64688Y16929D02*
D03*
X12196Y32180D02*
D03*
X22469Y24558D02*
D03*
X17717Y20209D02*
D03*
X7874Y25539D02*
D03*
X72394Y22047D02*
D03*
X71720Y74268D02*
D03*
X71858Y80709D02*
D03*
X63025D02*
D03*
X19791D02*
D03*
X9055D02*
D03*
X54859Y7374D02*
D03*
X61417D02*
D03*
X57939Y12702D02*
D03*
X20052Y7374D02*
D03*
X27575D02*
D03*
X23674Y12702D02*
D03*
X28547Y30133D02*
D03*
D34*
X44291Y36713D02*
D03*
X38386D02*
D03*
X44291Y40059D02*
D03*
X38386D02*
D03*
D35*
X27559Y54134D02*
D03*
X45276Y54085D02*
D03*
X37402D02*
D03*
X55118Y54035D02*
D03*
D36*
X71358Y65010D02*
D03*
Y88632D02*
D03*
X11319Y65010D02*
D03*
Y88632D02*
D03*
D37*
X33339Y20709D02*
D03*
Y26535D02*
D03*
X49339D02*
D03*
Y20709D02*
D03*
D38*
X19291Y44094D02*
D03*
Y50394D02*
D03*
X10236Y44094D02*
D03*
Y50394D02*
D03*
D39*
X27316Y54377D02*
Y63594D01*
X27559Y50787D02*
Y54134D01*
X27165Y50394D02*
X27559Y50787D01*
X19291Y50394D02*
X27165D01*
X10236D02*
X19291D01*
X27316Y54377D02*
X27559Y54134D01*
M02*
