G04*
G04 #@! TF.GenerationSoftware,Altium Limited,Altium Designer,19.1.8 (144)*
G04*
G04 Layer_Color=2752767*
%FSLAX25Y25*%
%MOIN*%
G70*
G01*
G75*
%ADD51C,0.00200*%
%ADD52C,0.00267*%
D51*
X57665Y85814D02*
Y87414D01*
X59265D01*
Y85814D01*
X57665D01*
X23649D02*
Y87414D01*
X25249D01*
Y85814D01*
X23649D01*
Y70854D02*
Y72453D01*
X25249D01*
Y70854D01*
X23649D01*
X57665D02*
Y72453D01*
X59265D01*
Y70854D01*
X57665D01*
X27316Y62793D02*
X26516Y64394D01*
X28116D01*
X27316Y62793D01*
X30130Y37566D02*
X29330Y39166D01*
X30930D01*
X30130Y37566D01*
X69882Y47597D02*
X69082Y49197D01*
X70682D01*
X69882Y47597D01*
X68685Y52563D02*
X67884Y54163D01*
X69485D01*
X68685Y52563D01*
X41339Y22409D02*
X40539Y24009D01*
X42139D01*
X41339Y22409D01*
X60709Y21247D02*
X59909Y22847D01*
X61509D01*
X60709Y21247D01*
X12196Y31380D02*
X11396Y32980D01*
X12996D01*
X12196Y31380D01*
X22469Y23758D02*
X21669Y25358D01*
X23269D01*
X22469Y23758D01*
X17717Y19409D02*
X16917Y21009D01*
X18517D01*
X17717Y19409D01*
X7874Y24739D02*
X7074Y26339D01*
X8674D01*
X7874Y24739D01*
X72394Y21247D02*
X71593Y22847D01*
X73194D01*
X72394Y21247D01*
X71720Y73468D02*
X70920Y75068D01*
X72521D01*
X71720Y73468D01*
Y79909D02*
X70920Y81509D01*
X72521D01*
X71720Y79909D01*
X19791D02*
X18991Y81509D01*
X20591D01*
X19791Y79909D01*
X9055D02*
X8255Y81509D01*
X9855D01*
X9055Y79909D01*
X54859Y6574D02*
X54059Y8174D01*
X55659D01*
X54859Y6574D01*
X61417D02*
X60617Y8174D01*
X62217D01*
X61417Y6574D01*
X57939Y11902D02*
X57139Y13502D01*
X58739D01*
X57939Y11902D01*
X20052Y6574D02*
X19252Y8174D01*
X20852D01*
X20052Y6574D01*
X27575D02*
X26775Y8174D01*
X28375D01*
X27575Y6574D01*
X23674Y11902D02*
X22874Y13502D01*
X24474D01*
X23674Y11902D01*
X28547Y29333D02*
X27747Y30933D01*
X29347D01*
X28547Y29333D01*
D52*
X10643Y7874D02*
X10090Y8635D01*
X9195Y8344D01*
Y7404D01*
X10090Y7113D01*
X10643Y7874D01*
X73635D02*
X73082Y8635D01*
X72187Y8344D01*
Y7404D01*
X73082Y7113D01*
X73635Y7874D01*
X42139D02*
X41586Y8635D01*
X40692Y8344D01*
Y7404D01*
X41586Y7113D01*
X42139Y7874D01*
M02*
