G04*
G04 #@! TF.GenerationSoftware,Altium Limited,Altium Designer,19.1.8 (144)*
G04*
G04 Layer_Physical_Order=2*
G04 Layer_Color=16711680*
%FSLAX25Y25*%
%MOIN*%
G70*
G01*
G75*
%ADD28O,0.03937X0.06299*%
%ADD31C,0.01968*%
G04:AMPARAMS|DCode=33|XSize=98.43mil|YSize=137.8mil|CornerRadius=49.21mil|HoleSize=0mil|Usage=FLASHONLY|Rotation=90.000|XOffset=0mil|YOffset=0mil|HoleType=Round|Shape=RoundedRectangle|*
%AMROUNDEDRECTD33*
21,1,0.09843,0.03937,0,0,90.0*
21,1,0.00000,0.13780,0,0,90.0*
1,1,0.09843,0.01968,0.00000*
1,1,0.09843,0.01968,0.00000*
1,1,0.09843,-0.01968,0.00000*
1,1,0.09843,-0.01968,0.00000*
%
%ADD33ROUNDEDRECTD33*%
%ADD34C,0.02756*%
%ADD35R,0.03150X0.02559*%
%ADD36R,0.04921X0.14370*%
%ADD37R,0.13780X0.07874*%
%ADD38R,0.04900X0.02600*%
%ADD39R,0.05512X0.05118*%
%ADD40C,0.02756*%
G36*
X78706Y3971D02*
X48608D01*
X48394Y4423D01*
X48422Y4457D01*
X48990Y5520D01*
X49340Y6674D01*
X49458Y7874D01*
X49340Y9074D01*
X48990Y10228D01*
X48422Y11291D01*
X47657Y12223D01*
X46725Y12988D01*
X45661Y13557D01*
X44507Y13907D01*
X43307Y14025D01*
X39370D01*
X38170Y13907D01*
X37017Y13557D01*
X35953Y12988D01*
X35021Y12223D01*
X34256Y11291D01*
X33688Y10228D01*
X33338Y9074D01*
X33220Y7874D01*
X33338Y6674D01*
X33688Y5520D01*
X34256Y4457D01*
X34284Y4423D01*
X34070Y3971D01*
X17111D01*
X16897Y4423D01*
X16925Y4457D01*
X17494Y5520D01*
X17844Y6674D01*
X17962Y7874D01*
X17844Y9074D01*
X17494Y10228D01*
X16925Y11291D01*
X16160Y12223D01*
X15228Y12988D01*
X14165Y13557D01*
X13011Y13907D01*
X11811Y14025D01*
X7874D01*
X6674Y13907D01*
X5520Y13557D01*
X4457Y12988D01*
X4423Y12960D01*
X3971Y13174D01*
Y90517D01*
X78706D01*
Y3971D01*
D02*
G37*
%LPC*%
G36*
X27316Y66194D02*
X26643Y66105D01*
X26016Y65845D01*
X25477Y65432D01*
X25064Y64894D01*
X24804Y64266D01*
X24716Y63594D01*
Y62519D01*
X23898D01*
Y52994D01*
X23247D01*
Y54153D01*
X15335D01*
Y52994D01*
X14192D01*
Y54153D01*
X6280D01*
Y46635D01*
X14192D01*
Y47793D01*
X15335D01*
Y46635D01*
X23247D01*
Y47793D01*
X23898D01*
Y45749D01*
X31220D01*
Y62519D01*
X29916D01*
Y63594D01*
X29828Y64266D01*
X29568Y64894D01*
X29155Y65432D01*
X28616Y65845D01*
X27989Y66105D01*
X27316Y66194D01*
D02*
G37*
G36*
X48936Y62470D02*
X41615D01*
Y50772D01*
X41062D01*
Y62470D01*
X33741D01*
Y45700D01*
X41062D01*
Y46318D01*
X41615D01*
Y45700D01*
X48936D01*
Y62470D01*
D02*
G37*
G36*
X68685Y55963D02*
X68011Y55874D01*
X67384Y55615D01*
X66846Y55201D01*
X66433Y54663D01*
X66173Y54036D01*
X66168Y53995D01*
X54458Y42286D01*
X47066D01*
Y42539D01*
X41517D01*
Y37580D01*
Y34233D01*
X47066D01*
Y34486D01*
X58197D01*
X58197Y34486D01*
X59049Y34655D01*
X59772Y35138D01*
X70515Y45880D01*
X70555Y45886D01*
X71182Y46145D01*
X71720Y46559D01*
X72134Y47097D01*
X72394Y47724D01*
X72482Y48397D01*
X72394Y49070D01*
X72134Y49697D01*
X71720Y50236D01*
X71182Y50649D01*
X70555Y50909D01*
X70544Y50910D01*
X70404Y51433D01*
X70523Y51524D01*
X70936Y52063D01*
X71196Y52690D01*
X71285Y53363D01*
X71196Y54036D01*
X70936Y54663D01*
X70523Y55201D01*
X69985Y55615D01*
X69358Y55874D01*
X68685Y55963D01*
D02*
G37*
G36*
X52989Y29035D02*
X45689D01*
Y24035D01*
X52989D01*
Y29035D01*
D02*
G37*
G36*
X28547Y32733D02*
X27874Y32645D01*
X27247Y32385D01*
X26708Y31972D01*
X26295Y31433D01*
X26035Y30806D01*
X25947Y30133D01*
X26035Y29460D01*
X26295Y28833D01*
X26708Y28295D01*
X27247Y27881D01*
X27874Y27621D01*
X27965Y27610D01*
X29689Y25886D01*
Y24035D01*
X36989D01*
Y29035D01*
X32838D01*
X31052Y30822D01*
X30799Y31433D01*
X30385Y31972D01*
X29847Y32385D01*
X29220Y32645D01*
X28547Y32733D01*
D02*
G37*
G36*
X52989Y23209D02*
X45689D01*
Y18209D01*
X52989D01*
Y23209D01*
D02*
G37*
%LPD*%
D28*
X58465Y86614D02*
D03*
X24449D02*
D03*
Y71653D02*
D03*
X58465D02*
D03*
D31*
X37402Y48545D02*
X45276D01*
X55381Y40059D02*
X68685Y53363D01*
X44291Y40059D02*
X55381D01*
X58197Y36713D02*
X69882Y48397D01*
X44291Y36713D02*
X58197D01*
X28547Y30133D02*
X28591D01*
X32189Y26535D01*
X33339D01*
D33*
X9843Y7874D02*
D03*
X72835D02*
D03*
X41339D02*
D03*
D34*
X27316Y63594D02*
D03*
X30130Y38366D02*
D03*
X69882Y48397D02*
D03*
X68685Y53363D02*
D03*
X41339Y23209D02*
D03*
X60709Y22047D02*
D03*
X12196Y32180D02*
D03*
X22469Y24558D02*
D03*
X17717Y20209D02*
D03*
X7874Y25539D02*
D03*
X72394Y22047D02*
D03*
X71720Y74268D02*
D03*
Y80709D02*
D03*
X19791D02*
D03*
X9055D02*
D03*
X54859Y7374D02*
D03*
X61417D02*
D03*
X57939Y12702D02*
D03*
X20052Y7374D02*
D03*
X27575D02*
D03*
X23674Y12702D02*
D03*
X28547Y30133D02*
D03*
D35*
X44291Y36713D02*
D03*
X38386D02*
D03*
X44291Y40059D02*
D03*
X38386D02*
D03*
D36*
X27559Y54134D02*
D03*
X45276Y54085D02*
D03*
X37402D02*
D03*
X55118Y54035D02*
D03*
D37*
X71358Y65010D02*
D03*
Y88632D02*
D03*
X11319Y65010D02*
D03*
Y88632D02*
D03*
D38*
X33339Y20709D02*
D03*
Y26535D02*
D03*
X49339D02*
D03*
Y20709D02*
D03*
D39*
X19291Y44094D02*
D03*
Y50394D02*
D03*
X10236Y44094D02*
D03*
Y50394D02*
D03*
D40*
X27316Y54377D02*
Y63594D01*
X27559Y50787D02*
Y54134D01*
X27165Y50394D02*
X27559Y50787D01*
X19291Y50394D02*
X27165D01*
X10236D02*
X19291D01*
X27316Y54377D02*
X27559Y54134D01*
M02*
