G04*
G04 #@! TF.GenerationSoftware,Altium Limited,Altium Designer,19.1.8 (144)*
G04*
G04 Layer_Color=65535*
%FSLAX25Y25*%
%MOIN*%
G70*
G01*
G75*
%ADD11C,0.00787*%
%ADD12C,0.00591*%
%ADD44C,0.01000*%
%ADD45C,0.00600*%
G36*
X48739Y79061D02*
X48734Y78936D01*
X48724Y78821D01*
X48704Y78716D01*
X48679Y78611D01*
X48649Y78521D01*
X48614Y78436D01*
X48579Y78361D01*
X48544Y78291D01*
X48509Y78231D01*
X48474Y78176D01*
X48439Y78131D01*
X48409Y78096D01*
X48384Y78066D01*
X48364Y78046D01*
X48354Y78036D01*
X48349Y78031D01*
X48274Y77971D01*
X48189Y77916D01*
X48099Y77871D01*
X48009Y77831D01*
X47919Y77796D01*
X47824Y77766D01*
X47734Y77741D01*
X47644Y77726D01*
X47559Y77711D01*
X47484Y77701D01*
X47414Y77691D01*
X47354Y77686D01*
X47304Y77681D01*
X47234D01*
X47099Y77686D01*
X46969Y77696D01*
X46849Y77716D01*
X46739Y77736D01*
X46639Y77761D01*
X46549Y77791D01*
X46464Y77826D01*
X46389Y77861D01*
X46319Y77891D01*
X46264Y77926D01*
X46214Y77956D01*
X46174Y77981D01*
X46144Y78001D01*
X46124Y78021D01*
X46109Y78031D01*
X46104Y78036D01*
X46034Y78106D01*
X45979Y78186D01*
X45924Y78266D01*
X45879Y78346D01*
X45844Y78431D01*
X45814Y78521D01*
X45789Y78601D01*
X45769Y78686D01*
X45749Y78761D01*
X45739Y78831D01*
X45729Y78896D01*
X45724Y78951D01*
X45719Y78996D01*
Y79031D01*
Y79056D01*
Y79061D01*
Y81371D01*
X46629D01*
Y79116D01*
Y79046D01*
X46634Y78976D01*
X46644Y78916D01*
X46654Y78861D01*
X46674Y78761D01*
X46704Y78681D01*
X46729Y78621D01*
X46754Y78581D01*
X46774Y78556D01*
X46779Y78546D01*
X46839Y78486D01*
X46909Y78446D01*
X46989Y78416D01*
X47059Y78391D01*
X47129Y78381D01*
X47184Y78376D01*
X47204Y78371D01*
X47234D01*
X47344Y78381D01*
X47439Y78401D01*
X47514Y78426D01*
X47579Y78461D01*
X47629Y78496D01*
X47664Y78521D01*
X47684Y78541D01*
X47689Y78551D01*
X47734Y78631D01*
X47769Y78716D01*
X47794Y78811D01*
X47809Y78901D01*
X47819Y78986D01*
X47824Y79021D01*
X47829Y79056D01*
Y79081D01*
Y79101D01*
Y79111D01*
Y79116D01*
Y81371D01*
X48739D01*
Y79061D01*
D02*
G37*
G36*
X41869Y77756D02*
X40424D01*
X40289Y77761D01*
X40169Y77766D01*
X40064Y77776D01*
X39974Y77791D01*
X39899Y77801D01*
X39874Y77806D01*
X39849Y77811D01*
X39829Y77816D01*
X39814D01*
X39809Y77821D01*
X39804D01*
X39714Y77851D01*
X39629Y77886D01*
X39554Y77926D01*
X39489Y77961D01*
X39434Y77996D01*
X39394Y78026D01*
X39369Y78046D01*
X39359Y78051D01*
X39299Y78101D01*
X39244Y78156D01*
X39194Y78216D01*
X39154Y78266D01*
X39124Y78316D01*
X39104Y78351D01*
X39089Y78376D01*
X39084Y78386D01*
X39049Y78466D01*
X39024Y78546D01*
X39004Y78626D01*
X38994Y78701D01*
X38984Y78766D01*
X38979Y78816D01*
Y78836D01*
Y78851D01*
Y78856D01*
Y78861D01*
X38989Y78991D01*
X39009Y79106D01*
X39044Y79206D01*
X39079Y79286D01*
X39119Y79356D01*
X39154Y79401D01*
X39174Y79431D01*
X39184Y79441D01*
X39264Y79516D01*
X39354Y79581D01*
X39439Y79631D01*
X39524Y79671D01*
X39604Y79696D01*
X39634Y79706D01*
X39664Y79716D01*
X39689Y79721D01*
X39704Y79726D01*
X39714Y79731D01*
X39719D01*
Y79751D01*
X39634Y79791D01*
X39564Y79841D01*
X39499Y79891D01*
X39449Y79941D01*
X39409Y79986D01*
X39379Y80021D01*
X39359Y80046D01*
X39354Y80056D01*
X39309Y80136D01*
X39274Y80216D01*
X39254Y80296D01*
X39234Y80366D01*
X39224Y80431D01*
X39219Y80481D01*
Y80501D01*
Y80516D01*
Y80521D01*
Y80526D01*
X39224Y80611D01*
X39234Y80686D01*
X39249Y80756D01*
X39269Y80816D01*
X39289Y80866D01*
X39304Y80901D01*
X39314Y80921D01*
X39319Y80931D01*
X39359Y80991D01*
X39404Y81051D01*
X39454Y81096D01*
X39499Y81136D01*
X39544Y81171D01*
X39579Y81191D01*
X39599Y81206D01*
X39609Y81211D01*
X39679Y81246D01*
X39744Y81271D01*
X39809Y81291D01*
X39869Y81311D01*
X39919Y81321D01*
X39959Y81331D01*
X39984Y81336D01*
X39994D01*
X40079Y81346D01*
X40174Y81356D01*
X40274Y81361D01*
X40369Y81366D01*
X40459Y81371D01*
X41869D01*
Y77756D01*
D02*
G37*
G36*
X37394D02*
X36489D01*
X36264Y78491D01*
X35124D01*
X34899Y77756D01*
X33964D01*
X35189Y81371D01*
X36174D01*
X37394Y77756D01*
D02*
G37*
G36*
X43814Y81431D02*
X43924Y81421D01*
X44034Y81406D01*
X44134Y81386D01*
X44229Y81361D01*
X44319Y81336D01*
X44399Y81306D01*
X44474Y81281D01*
X44539Y81251D01*
X44599Y81221D01*
X44649Y81196D01*
X44694Y81171D01*
X44724Y81151D01*
X44749Y81136D01*
X44764Y81126D01*
X44769Y81121D01*
X44844Y81061D01*
X44909Y80996D01*
X44964Y80926D01*
X45014Y80861D01*
X45054Y80791D01*
X45089Y80721D01*
X45119Y80656D01*
X45139Y80591D01*
X45159Y80531D01*
X45169Y80476D01*
X45179Y80426D01*
X45189Y80381D01*
Y80346D01*
X45194Y80321D01*
Y80301D01*
Y80296D01*
X45184Y80161D01*
X45164Y80041D01*
X45139Y79936D01*
X45104Y79841D01*
X45069Y79771D01*
X45054Y79741D01*
X45044Y79716D01*
X45029Y79696D01*
X45024Y79681D01*
X45014Y79676D01*
Y79671D01*
X44979Y79626D01*
X44934Y79581D01*
X44844Y79501D01*
X44744Y79436D01*
X44644Y79376D01*
X44554Y79331D01*
X44514Y79316D01*
X44479Y79301D01*
X44449Y79286D01*
X44429Y79276D01*
X44414Y79271D01*
X44409D01*
X44274Y79231D01*
X44204Y79211D01*
X44144Y79196D01*
X44094Y79186D01*
X44054Y79176D01*
X44029Y79166D01*
X44019D01*
X43944Y79151D01*
X43869Y79131D01*
X43804Y79116D01*
X43744Y79106D01*
X43694Y79091D01*
X43654Y79086D01*
X43634Y79076D01*
X43624D01*
X43569Y79061D01*
X43519Y79041D01*
X43479Y79021D01*
X43439Y79001D01*
X43409Y78981D01*
X43389Y78966D01*
X43374Y78956D01*
X43369Y78951D01*
X43334Y78916D01*
X43304Y78881D01*
X43284Y78846D01*
X43274Y78811D01*
X43264Y78776D01*
X43259Y78756D01*
Y78736D01*
Y78731D01*
X43264Y78686D01*
X43269Y78646D01*
X43279Y78611D01*
X43294Y78586D01*
X43309Y78561D01*
X43319Y78546D01*
X43324Y78536D01*
X43329Y78531D01*
X43379Y78486D01*
X43434Y78451D01*
X43454Y78436D01*
X43474Y78431D01*
X43484Y78421D01*
X43489D01*
X43519Y78406D01*
X43554Y78396D01*
X43619Y78381D01*
X43649Y78371D01*
X43674D01*
X43689Y78366D01*
X43694D01*
X43739Y78361D01*
X43779Y78356D01*
X43814D01*
X43844Y78351D01*
X43899D01*
X44014Y78356D01*
X44129Y78371D01*
X44234Y78391D01*
X44329Y78411D01*
X44414Y78431D01*
X44449Y78441D01*
X44479Y78451D01*
X44499Y78461D01*
X44519Y78466D01*
X44529Y78471D01*
X44534D01*
X44654Y78521D01*
X44769Y78581D01*
X44869Y78641D01*
X44959Y78696D01*
X45029Y78751D01*
X45059Y78771D01*
X45084Y78791D01*
X45109Y78811D01*
X45124Y78821D01*
X45129Y78826D01*
X45134Y78831D01*
X45214D01*
Y77966D01*
X45009Y77886D01*
X44914Y77856D01*
X44824Y77826D01*
X44749Y77801D01*
X44714Y77791D01*
X44689Y77786D01*
X44664Y77781D01*
X44649Y77776D01*
X44639Y77771D01*
X44634D01*
X44514Y77746D01*
X44389Y77726D01*
X44264Y77711D01*
X44149Y77701D01*
X44099Y77696D01*
X44009D01*
X43974Y77691D01*
X43904D01*
X43774Y77696D01*
X43649Y77706D01*
X43529Y77721D01*
X43419Y77741D01*
X43319Y77766D01*
X43224Y77796D01*
X43139Y77821D01*
X43059Y77856D01*
X42994Y77886D01*
X42929Y77911D01*
X42879Y77941D01*
X42834Y77966D01*
X42804Y77986D01*
X42779Y78001D01*
X42764Y78011D01*
X42759Y78016D01*
X42684Y78081D01*
X42619Y78146D01*
X42564Y78221D01*
X42514Y78291D01*
X42474Y78361D01*
X42439Y78436D01*
X42409Y78506D01*
X42389Y78571D01*
X42369Y78636D01*
X42354Y78696D01*
X42349Y78746D01*
X42339Y78791D01*
Y78831D01*
X42334Y78856D01*
Y78876D01*
Y78881D01*
X42344Y79016D01*
X42364Y79136D01*
X42394Y79241D01*
X42424Y79326D01*
X42459Y79396D01*
X42489Y79446D01*
X42504Y79461D01*
X42509Y79476D01*
X42519Y79486D01*
X42594Y79566D01*
X42684Y79641D01*
X42779Y79706D01*
X42869Y79756D01*
X42949Y79801D01*
X42984Y79816D01*
X43019Y79831D01*
X43044Y79841D01*
X43064Y79851D01*
X43074Y79856D01*
X43079D01*
X43149Y79881D01*
X43219Y79901D01*
X43279Y79916D01*
X43334Y79931D01*
X43379Y79946D01*
X43414Y79956D01*
X43434Y79961D01*
X43444D01*
X43569Y79991D01*
X43629Y80006D01*
X43679Y80016D01*
X43729Y80026D01*
X43764Y80036D01*
X43784Y80041D01*
X43794D01*
X43889Y80066D01*
X43969Y80091D01*
X44039Y80116D01*
X44089Y80136D01*
X44129Y80156D01*
X44154Y80171D01*
X44169Y80181D01*
X44174Y80186D01*
X44204Y80221D01*
X44229Y80256D01*
X44244Y80291D01*
X44259Y80326D01*
X44264Y80361D01*
X44269Y80386D01*
Y80401D01*
Y80406D01*
X44264Y80441D01*
X44259Y80471D01*
X44239Y80526D01*
X44229Y80546D01*
X44219Y80561D01*
X44209Y80571D01*
Y80576D01*
X44159Y80626D01*
X44114Y80661D01*
X44094Y80676D01*
X44079Y80686D01*
X44069Y80691D01*
X44064D01*
X43989Y80721D01*
X43924Y80741D01*
X43899Y80751D01*
X43879D01*
X43869Y80756D01*
X43864D01*
X43789Y80766D01*
X43719Y80776D01*
X43649D01*
X43534Y80771D01*
X43429Y80756D01*
X43329Y80736D01*
X43239Y80716D01*
X43164Y80696D01*
X43129Y80686D01*
X43104Y80676D01*
X43084Y80666D01*
X43069Y80661D01*
X43059Y80656D01*
X43054D01*
X42949Y80611D01*
X42854Y80561D01*
X42769Y80511D01*
X42699Y80466D01*
X42644Y80426D01*
X42599Y80396D01*
X42574Y80376D01*
X42564Y80366D01*
X42479D01*
Y81191D01*
X42579Y81231D01*
X42674Y81266D01*
X42774Y81296D01*
X42864Y81321D01*
X42939Y81341D01*
X42974Y81346D01*
X42999Y81356D01*
X43024Y81361D01*
X43039D01*
X43049Y81366D01*
X43054D01*
X43174Y81391D01*
X43289Y81406D01*
X43399Y81421D01*
X43494Y81426D01*
X43574Y81431D01*
X43609Y81436D01*
X43694D01*
X43814Y81431D01*
D02*
G37*
G36*
X24545Y21979D02*
X24555Y21934D01*
X24565Y21889D01*
X24575Y21854D01*
X24590Y21824D01*
X24600Y21804D01*
X24605Y21789D01*
X24610Y21784D01*
X24665Y21719D01*
X24725Y21669D01*
X24750Y21654D01*
X24770Y21639D01*
X24785Y21634D01*
X24790Y21629D01*
X24830Y21614D01*
X24875Y21599D01*
X24960Y21574D01*
X24995Y21569D01*
X25025Y21564D01*
X25050Y21559D01*
X25055D01*
X25175Y21549D01*
X25230Y21544D01*
X25280D01*
X25325Y21539D01*
X25385D01*
Y20949D01*
X24625D01*
Y19039D01*
X25385D01*
Y18409D01*
X23000D01*
Y19039D01*
X23745D01*
Y22034D01*
X24540D01*
X24545Y21979D01*
D02*
G37*
G36*
X27430Y22084D02*
X27540Y22074D01*
X27650Y22059D01*
X27750Y22039D01*
X27845Y22014D01*
X27935Y21989D01*
X28015Y21959D01*
X28090Y21934D01*
X28155Y21904D01*
X28215Y21874D01*
X28265Y21849D01*
X28310Y21824D01*
X28340Y21804D01*
X28365Y21789D01*
X28380Y21779D01*
X28385Y21774D01*
X28460Y21714D01*
X28525Y21649D01*
X28580Y21579D01*
X28630Y21514D01*
X28670Y21444D01*
X28705Y21374D01*
X28735Y21309D01*
X28755Y21244D01*
X28775Y21184D01*
X28785Y21129D01*
X28795Y21079D01*
X28805Y21034D01*
Y20999D01*
X28810Y20974D01*
Y20954D01*
Y20949D01*
X28800Y20814D01*
X28780Y20694D01*
X28755Y20589D01*
X28720Y20494D01*
X28685Y20424D01*
X28670Y20394D01*
X28660Y20369D01*
X28645Y20349D01*
X28640Y20334D01*
X28630Y20329D01*
Y20324D01*
X28595Y20279D01*
X28550Y20234D01*
X28460Y20154D01*
X28360Y20089D01*
X28260Y20029D01*
X28170Y19984D01*
X28130Y19969D01*
X28095Y19954D01*
X28065Y19939D01*
X28045Y19929D01*
X28030Y19924D01*
X28025D01*
X27890Y19884D01*
X27820Y19864D01*
X27760Y19849D01*
X27710Y19839D01*
X27670Y19829D01*
X27645Y19819D01*
X27635D01*
X27560Y19804D01*
X27485Y19784D01*
X27420Y19769D01*
X27360Y19759D01*
X27310Y19744D01*
X27270Y19739D01*
X27250Y19729D01*
X27240D01*
X27185Y19714D01*
X27135Y19694D01*
X27095Y19674D01*
X27055Y19654D01*
X27025Y19634D01*
X27005Y19619D01*
X26990Y19609D01*
X26985Y19604D01*
X26950Y19569D01*
X26920Y19534D01*
X26900Y19499D01*
X26890Y19464D01*
X26880Y19429D01*
X26875Y19409D01*
Y19389D01*
Y19384D01*
X26880Y19339D01*
X26885Y19299D01*
X26895Y19264D01*
X26910Y19239D01*
X26925Y19214D01*
X26935Y19199D01*
X26940Y19189D01*
X26945Y19184D01*
X26995Y19139D01*
X27050Y19104D01*
X27070Y19089D01*
X27090Y19084D01*
X27100Y19074D01*
X27105D01*
X27135Y19059D01*
X27170Y19049D01*
X27235Y19034D01*
X27265Y19024D01*
X27290D01*
X27305Y19019D01*
X27310D01*
X27355Y19014D01*
X27395Y19009D01*
X27430D01*
X27460Y19004D01*
X27515D01*
X27630Y19009D01*
X27745Y19024D01*
X27850Y19044D01*
X27945Y19064D01*
X28030Y19084D01*
X28065Y19094D01*
X28095Y19104D01*
X28115Y19114D01*
X28135Y19119D01*
X28145Y19124D01*
X28150D01*
X28270Y19174D01*
X28385Y19234D01*
X28485Y19294D01*
X28575Y19349D01*
X28645Y19404D01*
X28675Y19424D01*
X28700Y19444D01*
X28725Y19464D01*
X28740Y19474D01*
X28745Y19479D01*
X28750Y19484D01*
X28830D01*
Y18619D01*
X28625Y18539D01*
X28530Y18509D01*
X28440Y18479D01*
X28365Y18454D01*
X28330Y18444D01*
X28305Y18439D01*
X28280Y18434D01*
X28265Y18429D01*
X28255Y18424D01*
X28250D01*
X28130Y18399D01*
X28005Y18379D01*
X27880Y18364D01*
X27765Y18354D01*
X27715Y18349D01*
X27625D01*
X27590Y18344D01*
X27520D01*
X27390Y18349D01*
X27265Y18359D01*
X27145Y18374D01*
X27035Y18394D01*
X26935Y18419D01*
X26840Y18449D01*
X26755Y18474D01*
X26675Y18509D01*
X26610Y18539D01*
X26545Y18564D01*
X26495Y18594D01*
X26450Y18619D01*
X26420Y18639D01*
X26395Y18654D01*
X26380Y18664D01*
X26375Y18669D01*
X26300Y18734D01*
X26235Y18799D01*
X26180Y18874D01*
X26130Y18944D01*
X26090Y19014D01*
X26055Y19089D01*
X26025Y19159D01*
X26005Y19224D01*
X25985Y19289D01*
X25970Y19349D01*
X25965Y19399D01*
X25955Y19444D01*
Y19484D01*
X25950Y19509D01*
Y19529D01*
Y19534D01*
X25960Y19669D01*
X25980Y19789D01*
X26010Y19894D01*
X26040Y19979D01*
X26075Y20049D01*
X26105Y20099D01*
X26120Y20114D01*
X26125Y20129D01*
X26135Y20139D01*
X26210Y20219D01*
X26300Y20294D01*
X26395Y20359D01*
X26485Y20409D01*
X26565Y20454D01*
X26600Y20469D01*
X26635Y20484D01*
X26660Y20494D01*
X26680Y20504D01*
X26690Y20509D01*
X26695D01*
X26765Y20534D01*
X26835Y20554D01*
X26895Y20569D01*
X26950Y20584D01*
X26995Y20599D01*
X27030Y20609D01*
X27050Y20614D01*
X27060D01*
X27185Y20644D01*
X27245Y20659D01*
X27295Y20669D01*
X27345Y20679D01*
X27380Y20689D01*
X27400Y20694D01*
X27410D01*
X27505Y20719D01*
X27585Y20744D01*
X27655Y20769D01*
X27705Y20789D01*
X27745Y20809D01*
X27770Y20824D01*
X27785Y20834D01*
X27790Y20839D01*
X27820Y20874D01*
X27845Y20909D01*
X27860Y20944D01*
X27875Y20979D01*
X27880Y21014D01*
X27885Y21039D01*
Y21054D01*
Y21059D01*
X27880Y21094D01*
X27875Y21124D01*
X27855Y21179D01*
X27845Y21199D01*
X27835Y21214D01*
X27825Y21224D01*
Y21229D01*
X27775Y21279D01*
X27730Y21314D01*
X27710Y21329D01*
X27695Y21339D01*
X27685Y21344D01*
X27680D01*
X27605Y21374D01*
X27540Y21394D01*
X27515Y21404D01*
X27495D01*
X27485Y21409D01*
X27480D01*
X27405Y21419D01*
X27335Y21429D01*
X27265D01*
X27150Y21424D01*
X27045Y21409D01*
X26945Y21389D01*
X26855Y21369D01*
X26780Y21349D01*
X26745Y21339D01*
X26720Y21329D01*
X26700Y21319D01*
X26685Y21314D01*
X26675Y21309D01*
X26670D01*
X26565Y21264D01*
X26470Y21214D01*
X26385Y21164D01*
X26315Y21119D01*
X26260Y21079D01*
X26215Y21049D01*
X26190Y21029D01*
X26180Y21019D01*
X26095D01*
Y21844D01*
X26195Y21884D01*
X26290Y21919D01*
X26390Y21949D01*
X26480Y21974D01*
X26555Y21994D01*
X26590Y21999D01*
X26615Y22009D01*
X26640Y22014D01*
X26655D01*
X26665Y22019D01*
X26670D01*
X26790Y22044D01*
X26905Y22059D01*
X27015Y22074D01*
X27110Y22079D01*
X27190Y22084D01*
X27225Y22089D01*
X27310D01*
X27430Y22084D01*
D02*
G37*
G36*
X60630Y36713D02*
X58220D01*
Y37403D01*
X59720D01*
Y40328D01*
X60630D01*
Y36713D01*
D02*
G37*
G36*
X57785D02*
X55340D01*
Y37403D01*
X56880D01*
Y38313D01*
X55460D01*
Y39003D01*
X56880D01*
Y39638D01*
X55340D01*
Y40328D01*
X57785D01*
Y36713D01*
D02*
G37*
G36*
X54725D02*
X53460D01*
X53330Y36723D01*
X53210Y36728D01*
X53105Y36738D01*
X53060Y36743D01*
X53020Y36748D01*
X52985Y36753D01*
X52950D01*
X52930Y36758D01*
X52910Y36763D01*
X52895D01*
X52770Y36788D01*
X52655Y36823D01*
X52555Y36858D01*
X52460Y36898D01*
X52385Y36938D01*
X52355Y36953D01*
X52330Y36968D01*
X52310Y36983D01*
X52295Y36988D01*
X52285Y36998D01*
X52280D01*
X52160Y37088D01*
X52050Y37183D01*
X51955Y37288D01*
X51875Y37383D01*
X51810Y37473D01*
X51785Y37508D01*
X51765Y37543D01*
X51745Y37568D01*
X51735Y37593D01*
X51725Y37603D01*
Y37608D01*
X51685Y37683D01*
X51650Y37763D01*
X51595Y37918D01*
X51555Y38068D01*
X51530Y38213D01*
X51520Y38273D01*
X51510Y38333D01*
X51505Y38383D01*
Y38428D01*
X51500Y38463D01*
Y38493D01*
Y38508D01*
Y38513D01*
X51510Y38703D01*
X51535Y38878D01*
X51550Y38958D01*
X51565Y39033D01*
X51585Y39103D01*
X51605Y39163D01*
X51625Y39223D01*
X51645Y39273D01*
X51660Y39318D01*
X51675Y39353D01*
X51690Y39383D01*
X51700Y39408D01*
X51705Y39418D01*
X51710Y39423D01*
X51795Y39563D01*
X51885Y39683D01*
X51975Y39793D01*
X52065Y39878D01*
X52145Y39948D01*
X52180Y39978D01*
X52210Y40003D01*
X52235Y40018D01*
X52255Y40033D01*
X52265Y40038D01*
X52270Y40043D01*
X52380Y40108D01*
X52490Y40158D01*
X52595Y40198D01*
X52690Y40228D01*
X52775Y40253D01*
X52810Y40263D01*
X52840Y40268D01*
X52860Y40273D01*
X52880Y40278D01*
X52895D01*
X53020Y40293D01*
X53145Y40308D01*
X53265Y40318D01*
X53375Y40323D01*
X53425D01*
X53465Y40328D01*
X54725D01*
Y36713D01*
D02*
G37*
G36*
X50020Y40283D02*
X50030Y40238D01*
X50040Y40193D01*
X50050Y40158D01*
X50065Y40128D01*
X50075Y40108D01*
X50080Y40093D01*
X50085Y40088D01*
X50140Y40023D01*
X50200Y39973D01*
X50225Y39958D01*
X50245Y39943D01*
X50260Y39938D01*
X50265Y39933D01*
X50305Y39918D01*
X50350Y39903D01*
X50435Y39878D01*
X50470Y39873D01*
X50500Y39868D01*
X50525Y39863D01*
X50530D01*
X50650Y39853D01*
X50705Y39848D01*
X50755D01*
X50800Y39843D01*
X50860D01*
Y39253D01*
X50100D01*
Y37343D01*
X50860D01*
Y36713D01*
X48475D01*
Y37343D01*
X49220D01*
Y40338D01*
X50015D01*
X50020Y40283D01*
D02*
G37*
G36*
X9091Y38429D02*
X9201Y38424D01*
X9306Y38409D01*
X9401Y38394D01*
X9481Y38379D01*
X9516Y38374D01*
X9546Y38369D01*
X9571Y38364D01*
X9586Y38359D01*
X9596Y38354D01*
X9601D01*
X9716Y38324D01*
X9811Y38299D01*
X9896Y38274D01*
X9961Y38249D01*
X10011Y38234D01*
X10046Y38219D01*
X10071Y38209D01*
X10076Y38204D01*
Y37419D01*
X10006D01*
X9971Y37444D01*
X9926Y37469D01*
X9896Y37489D01*
X9886Y37499D01*
X9881D01*
X9811Y37544D01*
X9741Y37579D01*
X9711Y37594D01*
X9686Y37604D01*
X9671Y37614D01*
X9666D01*
X9576Y37649D01*
X9531Y37669D01*
X9496Y37679D01*
X9461Y37689D01*
X9436Y37699D01*
X9421Y37704D01*
X9416D01*
X9321Y37724D01*
X9281Y37729D01*
X9241Y37734D01*
X9206Y37739D01*
X9156D01*
X9061Y37734D01*
X8976Y37719D01*
X8906Y37694D01*
X8846Y37674D01*
X8796Y37649D01*
X8761Y37624D01*
X8741Y37609D01*
X8736Y37604D01*
X8686Y37549D01*
X8646Y37484D01*
X8621Y37419D01*
X8601Y37359D01*
X8591Y37304D01*
X8581Y37254D01*
Y37224D01*
Y37219D01*
Y37214D01*
X8586Y37129D01*
X8601Y37049D01*
X8621Y36979D01*
X8641Y36914D01*
X8661Y36859D01*
X8681Y36814D01*
X8696Y36789D01*
X8701Y36779D01*
X8751Y36699D01*
X8811Y36614D01*
X8876Y36534D01*
X8936Y36454D01*
X8996Y36389D01*
X9041Y36334D01*
X9061Y36314D01*
X9076Y36304D01*
X9081Y36294D01*
X9086Y36289D01*
X9166Y36209D01*
X9246Y36129D01*
X9326Y36049D01*
X9401Y35979D01*
X9466Y35919D01*
X9516Y35874D01*
X9536Y35859D01*
X9551Y35844D01*
X9556Y35839D01*
X9561Y35834D01*
X9666Y35744D01*
X9771Y35654D01*
X9871Y35569D01*
X9966Y35494D01*
X10046Y35429D01*
X10081Y35399D01*
X10111Y35374D01*
X10131Y35354D01*
X10151Y35339D01*
X10161Y35334D01*
X10166Y35329D01*
Y34744D01*
X7506D01*
Y35424D01*
X9046D01*
X9006Y35454D01*
X8961Y35489D01*
X8861Y35569D01*
X8816Y35604D01*
X8781Y35634D01*
X8756Y35654D01*
X8746Y35659D01*
X8591Y35794D01*
X8521Y35859D01*
X8456Y35919D01*
X8401Y35969D01*
X8356Y36014D01*
X8331Y36039D01*
X8321Y36049D01*
X8201Y36179D01*
X8096Y36299D01*
X8011Y36409D01*
X7941Y36509D01*
X7886Y36589D01*
X7866Y36624D01*
X7851Y36649D01*
X7836Y36674D01*
X7826Y36689D01*
X7821Y36699D01*
Y36704D01*
X7771Y36819D01*
X7731Y36934D01*
X7706Y37039D01*
X7686Y37139D01*
X7676Y37219D01*
X7671Y37254D01*
X7666Y37284D01*
Y37309D01*
Y37324D01*
Y37334D01*
Y37339D01*
X7671Y37434D01*
X7681Y37524D01*
X7696Y37609D01*
X7716Y37684D01*
X7746Y37754D01*
X7771Y37824D01*
X7801Y37884D01*
X7831Y37939D01*
X7866Y37984D01*
X7896Y38029D01*
X7921Y38064D01*
X7946Y38094D01*
X7971Y38114D01*
X7986Y38129D01*
X7996Y38139D01*
X8001Y38144D01*
X8066Y38194D01*
X8136Y38239D01*
X8211Y38279D01*
X8291Y38314D01*
X8371Y38339D01*
X8456Y38364D01*
X8611Y38399D01*
X8686Y38409D01*
X8756Y38419D01*
X8816Y38424D01*
X8871Y38429D01*
X8916Y38434D01*
X8976D01*
X9091Y38429D01*
D02*
G37*
G36*
X12066D02*
X12206Y38414D01*
X12336Y38389D01*
X12461Y38354D01*
X12576Y38314D01*
X12681Y38269D01*
X12776Y38224D01*
X12866Y38179D01*
X12941Y38129D01*
X13011Y38084D01*
X13071Y38039D01*
X13116Y37999D01*
X13156Y37969D01*
X13186Y37939D01*
X13201Y37924D01*
X13206Y37919D01*
X13291Y37819D01*
X13361Y37714D01*
X13426Y37604D01*
X13481Y37489D01*
X13526Y37374D01*
X13566Y37264D01*
X13596Y37149D01*
X13621Y37044D01*
X13641Y36944D01*
X13656Y36849D01*
X13666Y36764D01*
X13671Y36694D01*
X13676Y36634D01*
X13681Y36589D01*
Y36559D01*
Y36554D01*
Y36549D01*
X13676Y36384D01*
X13661Y36234D01*
X13636Y36089D01*
X13606Y35954D01*
X13571Y35829D01*
X13531Y35719D01*
X13486Y35614D01*
X13441Y35519D01*
X13401Y35439D01*
X13356Y35364D01*
X13316Y35304D01*
X13281Y35254D01*
X13251Y35214D01*
X13226Y35189D01*
X13211Y35169D01*
X13206Y35164D01*
X13111Y35079D01*
X13016Y35004D01*
X12911Y34939D01*
X12806Y34879D01*
X12696Y34834D01*
X12591Y34794D01*
X12486Y34759D01*
X12381Y34734D01*
X12286Y34714D01*
X12201Y34699D01*
X12121Y34689D01*
X12051Y34684D01*
X11996Y34679D01*
X11951Y34674D01*
X11826D01*
X11741Y34679D01*
X11671Y34684D01*
X11616Y34689D01*
X11571Y34694D01*
X11536Y34699D01*
X11516Y34704D01*
X11511D01*
X11396Y34724D01*
X11346Y34739D01*
X11296Y34749D01*
X11251Y34759D01*
X11221Y34769D01*
X11196Y34774D01*
X11191D01*
X11091Y34809D01*
X11046Y34824D01*
X11006Y34839D01*
X10976Y34854D01*
X10946Y34864D01*
X10931Y34874D01*
X10926D01*
X10831Y34919D01*
X10791Y34934D01*
X10756Y34954D01*
X10731Y34964D01*
X10711Y34974D01*
X10696Y34984D01*
X10691D01*
Y35834D01*
X10776D01*
X10831Y35784D01*
X10881Y35739D01*
X10906Y35719D01*
X10921Y35709D01*
X10931Y35699D01*
X10936Y35694D01*
X11006Y35639D01*
X11076Y35589D01*
X11106Y35574D01*
X11131Y35559D01*
X11146Y35549D01*
X11151Y35544D01*
X11196Y35519D01*
X11241Y35489D01*
X11286Y35469D01*
X11331Y35449D01*
X11366Y35434D01*
X11396Y35419D01*
X11421Y35414D01*
X11426Y35409D01*
X11486Y35389D01*
X11546Y35379D01*
X11606Y35369D01*
X11656Y35359D01*
X11701D01*
X11736Y35354D01*
X11766D01*
X11831Y35359D01*
X11891Y35364D01*
X11951Y35374D01*
X12001Y35384D01*
X12046Y35394D01*
X12081Y35404D01*
X12101Y35414D01*
X12111D01*
X12171Y35439D01*
X12231Y35469D01*
X12286Y35504D01*
X12331Y35534D01*
X12371Y35564D01*
X12401Y35589D01*
X12421Y35604D01*
X12426Y35609D01*
X12476Y35664D01*
X12526Y35724D01*
X12566Y35789D01*
X12596Y35849D01*
X12626Y35899D01*
X12646Y35939D01*
X12656Y35969D01*
X12661Y35979D01*
X12691Y36069D01*
X12711Y36164D01*
X12726Y36259D01*
X12736Y36349D01*
X12741Y36424D01*
Y36459D01*
X12746Y36489D01*
Y36514D01*
Y36529D01*
Y36539D01*
Y36544D01*
X12741Y36659D01*
X12731Y36764D01*
X12721Y36859D01*
X12701Y36944D01*
X12686Y37009D01*
X12676Y37059D01*
X12671Y37074D01*
X12666Y37089D01*
X12661Y37094D01*
Y37099D01*
X12626Y37184D01*
X12591Y37259D01*
X12556Y37324D01*
X12521Y37379D01*
X12486Y37419D01*
X12461Y37449D01*
X12446Y37469D01*
X12441Y37474D01*
X12386Y37529D01*
X12331Y37574D01*
X12276Y37609D01*
X12231Y37639D01*
X12191Y37664D01*
X12156Y37679D01*
X12136Y37684D01*
X12131Y37689D01*
X12066Y37709D01*
X12006Y37729D01*
X11946Y37739D01*
X11891Y37744D01*
X11841Y37749D01*
X11806Y37754D01*
X11711D01*
X11651Y37744D01*
X11601Y37739D01*
X11551Y37729D01*
X11511Y37719D01*
X11481Y37709D01*
X11461Y37704D01*
X11456Y37699D01*
X11401Y37679D01*
X11346Y37654D01*
X11301Y37634D01*
X11256Y37614D01*
X11226Y37594D01*
X11196Y37584D01*
X11181Y37574D01*
X11176Y37569D01*
X11086Y37509D01*
X11051Y37484D01*
X11016Y37459D01*
X10991Y37439D01*
X10966Y37424D01*
X10956Y37414D01*
X10951Y37409D01*
X10881Y37354D01*
X10831Y37314D01*
X10811Y37294D01*
X10796Y37284D01*
X10791Y37279D01*
X10786Y37274D01*
X10691D01*
Y38129D01*
X10726Y38149D01*
X10766Y38169D01*
X10846Y38204D01*
X10881Y38219D01*
X10906Y38229D01*
X10926Y38234D01*
X10931Y38239D01*
X11031Y38284D01*
X11076Y38299D01*
X11116Y38314D01*
X11151Y38324D01*
X11176Y38334D01*
X11191Y38339D01*
X11196D01*
X11316Y38369D01*
X11371Y38379D01*
X11421Y38389D01*
X11466Y38399D01*
X11501Y38404D01*
X11521Y38409D01*
X11531D01*
X11661Y38424D01*
X11726Y38429D01*
X11786D01*
X11841Y38434D01*
X11916D01*
X12066Y38429D01*
D02*
G37*
G36*
X21220D02*
X21360Y38414D01*
X21490Y38389D01*
X21615Y38354D01*
X21730Y38314D01*
X21835Y38269D01*
X21930Y38224D01*
X22020Y38179D01*
X22095Y38129D01*
X22165Y38084D01*
X22225Y38039D01*
X22270Y37999D01*
X22310Y37969D01*
X22340Y37939D01*
X22355Y37924D01*
X22360Y37919D01*
X22445Y37819D01*
X22515Y37714D01*
X22580Y37604D01*
X22635Y37489D01*
X22680Y37374D01*
X22720Y37264D01*
X22750Y37149D01*
X22775Y37044D01*
X22795Y36944D01*
X22810Y36849D01*
X22820Y36764D01*
X22825Y36694D01*
X22830Y36634D01*
X22835Y36589D01*
Y36559D01*
Y36554D01*
Y36549D01*
X22830Y36384D01*
X22815Y36234D01*
X22790Y36089D01*
X22760Y35954D01*
X22725Y35829D01*
X22685Y35719D01*
X22640Y35614D01*
X22595Y35519D01*
X22555Y35439D01*
X22510Y35364D01*
X22470Y35304D01*
X22435Y35254D01*
X22405Y35214D01*
X22380Y35189D01*
X22365Y35169D01*
X22360Y35164D01*
X22265Y35079D01*
X22170Y35004D01*
X22065Y34939D01*
X21960Y34879D01*
X21850Y34834D01*
X21745Y34794D01*
X21640Y34759D01*
X21535Y34734D01*
X21440Y34714D01*
X21355Y34699D01*
X21275Y34689D01*
X21205Y34684D01*
X21150Y34679D01*
X21105Y34674D01*
X20980D01*
X20895Y34679D01*
X20825Y34684D01*
X20770Y34689D01*
X20725Y34694D01*
X20690Y34699D01*
X20670Y34704D01*
X20665D01*
X20550Y34724D01*
X20500Y34739D01*
X20450Y34749D01*
X20405Y34759D01*
X20375Y34769D01*
X20350Y34774D01*
X20345D01*
X20245Y34809D01*
X20200Y34824D01*
X20160Y34839D01*
X20130Y34854D01*
X20100Y34864D01*
X20085Y34874D01*
X20080D01*
X19985Y34919D01*
X19945Y34934D01*
X19910Y34954D01*
X19885Y34964D01*
X19865Y34974D01*
X19850Y34984D01*
X19845D01*
Y35834D01*
X19930D01*
X19985Y35784D01*
X20035Y35739D01*
X20060Y35719D01*
X20075Y35709D01*
X20085Y35699D01*
X20090Y35694D01*
X20160Y35639D01*
X20230Y35589D01*
X20260Y35574D01*
X20285Y35559D01*
X20300Y35549D01*
X20305Y35544D01*
X20350Y35519D01*
X20395Y35489D01*
X20440Y35469D01*
X20485Y35449D01*
X20520Y35434D01*
X20550Y35419D01*
X20575Y35414D01*
X20580Y35409D01*
X20640Y35389D01*
X20700Y35379D01*
X20760Y35369D01*
X20810Y35359D01*
X20855D01*
X20890Y35354D01*
X20920D01*
X20985Y35359D01*
X21045Y35364D01*
X21105Y35374D01*
X21155Y35384D01*
X21200Y35394D01*
X21235Y35404D01*
X21255Y35414D01*
X21265D01*
X21325Y35439D01*
X21385Y35469D01*
X21440Y35504D01*
X21485Y35534D01*
X21525Y35564D01*
X21555Y35589D01*
X21575Y35604D01*
X21580Y35609D01*
X21630Y35664D01*
X21680Y35724D01*
X21720Y35789D01*
X21750Y35849D01*
X21780Y35899D01*
X21800Y35939D01*
X21810Y35969D01*
X21815Y35979D01*
X21845Y36069D01*
X21865Y36164D01*
X21880Y36259D01*
X21890Y36349D01*
X21895Y36424D01*
Y36459D01*
X21900Y36489D01*
Y36514D01*
Y36529D01*
Y36539D01*
Y36544D01*
X21895Y36659D01*
X21885Y36764D01*
X21875Y36859D01*
X21855Y36944D01*
X21840Y37009D01*
X21830Y37059D01*
X21825Y37074D01*
X21820Y37089D01*
X21815Y37094D01*
Y37099D01*
X21780Y37184D01*
X21745Y37259D01*
X21710Y37324D01*
X21675Y37379D01*
X21640Y37419D01*
X21615Y37449D01*
X21600Y37469D01*
X21595Y37474D01*
X21540Y37529D01*
X21485Y37574D01*
X21430Y37609D01*
X21385Y37639D01*
X21345Y37664D01*
X21310Y37679D01*
X21290Y37684D01*
X21285Y37689D01*
X21220Y37709D01*
X21160Y37729D01*
X21100Y37739D01*
X21045Y37744D01*
X20995Y37749D01*
X20960Y37754D01*
X20865D01*
X20805Y37744D01*
X20755Y37739D01*
X20705Y37729D01*
X20665Y37719D01*
X20635Y37709D01*
X20615Y37704D01*
X20610Y37699D01*
X20555Y37679D01*
X20500Y37654D01*
X20455Y37634D01*
X20410Y37614D01*
X20380Y37594D01*
X20350Y37584D01*
X20335Y37574D01*
X20330Y37569D01*
X20240Y37509D01*
X20205Y37484D01*
X20170Y37459D01*
X20145Y37439D01*
X20120Y37424D01*
X20110Y37414D01*
X20105Y37409D01*
X20035Y37354D01*
X19985Y37314D01*
X19965Y37294D01*
X19950Y37284D01*
X19945Y37279D01*
X19940Y37274D01*
X19845D01*
Y38129D01*
X19880Y38149D01*
X19920Y38169D01*
X20000Y38204D01*
X20035Y38219D01*
X20060Y38229D01*
X20080Y38234D01*
X20085Y38239D01*
X20185Y38284D01*
X20230Y38299D01*
X20270Y38314D01*
X20305Y38324D01*
X20330Y38334D01*
X20345Y38339D01*
X20350D01*
X20470Y38369D01*
X20525Y38379D01*
X20575Y38389D01*
X20620Y38399D01*
X20655Y38404D01*
X20675Y38409D01*
X20685D01*
X20815Y38424D01*
X20880Y38429D01*
X20940D01*
X20995Y38434D01*
X21070D01*
X21220Y38429D01*
D02*
G37*
G36*
X18370Y38314D02*
X18380Y38269D01*
X18390Y38224D01*
X18400Y38189D01*
X18415Y38159D01*
X18425Y38139D01*
X18430Y38124D01*
X18435Y38119D01*
X18490Y38054D01*
X18550Y38004D01*
X18575Y37989D01*
X18595Y37974D01*
X18610Y37969D01*
X18615Y37964D01*
X18655Y37949D01*
X18700Y37934D01*
X18785Y37909D01*
X18820Y37904D01*
X18850Y37899D01*
X18875Y37894D01*
X18880D01*
X19000Y37884D01*
X19055Y37879D01*
X19105D01*
X19150Y37874D01*
X19210D01*
Y37284D01*
X18450D01*
Y35374D01*
X19210D01*
Y34744D01*
X16825D01*
Y35374D01*
X17570D01*
Y38369D01*
X18365D01*
X18370Y38314D01*
D02*
G37*
%LPC*%
G36*
X40964Y80711D02*
X40629D01*
X40589Y80706D01*
X40539D01*
X40454Y80696D01*
X40414Y80691D01*
X40384Y80681D01*
X40359Y80676D01*
X40339Y80666D01*
X40329Y80661D01*
X40324D01*
X40289Y80646D01*
X40264Y80621D01*
X40219Y80581D01*
X40204Y80556D01*
X40194Y80541D01*
X40184Y80531D01*
Y80526D01*
X40159Y80461D01*
X40144Y80401D01*
X40139Y80381D01*
Y80361D01*
Y80351D01*
Y80346D01*
X40144Y80261D01*
X40154Y80226D01*
X40159Y80196D01*
X40169Y80171D01*
X40179Y80151D01*
X40184Y80141D01*
Y80136D01*
X40204Y80106D01*
X40224Y80076D01*
X40274Y80031D01*
X40299Y80016D01*
X40314Y80006D01*
X40329Y79996D01*
X40334D01*
X40404Y79966D01*
X40469Y79951D01*
X40494Y79946D01*
X40514Y79941D01*
X40964D01*
Y80711D01*
D02*
G37*
G36*
Y79321D02*
X40514D01*
X40474Y79316D01*
X40414D01*
X40364Y79311D01*
X40319D01*
X40279Y79301D01*
X40249Y79296D01*
X40224Y79291D01*
X40204Y79286D01*
X40194Y79281D01*
X40189D01*
X40139Y79261D01*
X40099Y79236D01*
X40064Y79211D01*
X40034Y79191D01*
X40014Y79171D01*
X39999Y79151D01*
X39989Y79141D01*
X39984Y79136D01*
X39959Y79096D01*
X39944Y79056D01*
X39924Y78971D01*
X39919Y78931D01*
X39914Y78901D01*
Y78881D01*
Y78876D01*
Y78831D01*
X39924Y78786D01*
X39934Y78746D01*
X39944Y78711D01*
X39954Y78681D01*
X39964Y78661D01*
X39969Y78646D01*
X39974Y78641D01*
X39999Y78606D01*
X40024Y78571D01*
X40054Y78546D01*
X40084Y78526D01*
X40109Y78506D01*
X40134Y78496D01*
X40149Y78491D01*
X40154Y78486D01*
X40204Y78466D01*
X40254Y78446D01*
X40304Y78436D01*
X40344Y78426D01*
X40379Y78421D01*
X40404Y78416D01*
X40964D01*
Y79321D01*
D02*
G37*
G36*
X35694Y80341D02*
X35324Y79151D01*
X36064D01*
X35694Y80341D01*
D02*
G37*
G36*
X53815Y39653D02*
X53605D01*
X53525Y39648D01*
X53400D01*
X53355Y39643D01*
X53320D01*
X53245Y39633D01*
X53175Y39623D01*
X53110Y39603D01*
X53050Y39583D01*
X53005Y39563D01*
X52965Y39543D01*
X52945Y39533D01*
X52935Y39528D01*
X52845Y39473D01*
X52770Y39408D01*
X52705Y39343D01*
X52650Y39278D01*
X52610Y39223D01*
X52585Y39173D01*
X52565Y39143D01*
X52560Y39138D01*
Y39133D01*
X52520Y39033D01*
X52490Y38928D01*
X52465Y38828D01*
X52450Y38733D01*
X52440Y38648D01*
Y38613D01*
X52435Y38583D01*
Y38558D01*
Y38538D01*
Y38528D01*
Y38523D01*
X52440Y38393D01*
X52455Y38278D01*
X52475Y38178D01*
X52495Y38088D01*
X52515Y38018D01*
X52525Y37988D01*
X52535Y37963D01*
X52545Y37943D01*
X52550Y37928D01*
X52555Y37923D01*
Y37918D01*
X52600Y37833D01*
X52655Y37753D01*
X52710Y37688D01*
X52765Y37633D01*
X52815Y37588D01*
X52855Y37558D01*
X52880Y37538D01*
X52885Y37533D01*
X52890D01*
X52960Y37493D01*
X53030Y37463D01*
X53100Y37438D01*
X53160Y37423D01*
X53215Y37413D01*
X53255Y37408D01*
X53280Y37403D01*
X53290D01*
X53370Y37398D01*
X53540D01*
X53620Y37393D01*
X53815D01*
Y39653D01*
D02*
G37*
%LPD*%
D11*
X35433Y34055D02*
Y42717D01*
Y34055D02*
X47244D01*
Y42717D01*
X35433D02*
X47244D01*
X61417Y56964D02*
X66929D01*
X15354D02*
X20866D01*
X15354D02*
Y59129D01*
X66929Y56964D02*
Y58932D01*
X15354Y71334D02*
Y82751D01*
X67126Y71334D02*
Y82751D01*
D12*
X15748Y47244D02*
X22835D01*
X21260Y53937D02*
X22835D01*
Y40551D02*
Y53937D01*
X21260Y40551D02*
X22835D01*
X15748D02*
X17323D01*
X15748D02*
Y53937D01*
X17323D01*
X6693Y47244D02*
X13779D01*
X12205Y53937D02*
X13779D01*
Y40551D02*
Y53937D01*
X12205Y40551D02*
X13779D01*
X6693D02*
X8268D01*
X6693D02*
Y53937D01*
X8268D01*
D44*
X33997Y34941D02*
D03*
D45*
X36227Y29724D02*
X35627Y30071D01*
Y29378D01*
X36227Y29724D01*
X48739Y16122D02*
Y18099D01*
X33939Y31122D02*
X48739D01*
Y29145D02*
Y31122D01*
X33939Y16122D02*
X48739D01*
X33939D02*
Y18099D01*
Y23319D02*
Y23925D01*
Y29145D02*
Y31122D01*
X48739Y23319D02*
Y23925D01*
M02*
