G04*
G04 #@! TF.GenerationSoftware,Altium Limited,Altium Designer,19.1.8 (144)*
G04*
G04 Layer_Color=65535*
%FSLAX25Y25*%
%MOIN*%
G70*
G01*
G75*
%ADD10C,0.00984*%
%ADD11C,0.00787*%
%ADD12C,0.00591*%
G36*
X42350Y55382D02*
X45850D01*
Y55037D01*
X45716Y54361D01*
X45452Y53724D01*
X45069Y53151D01*
X44581Y52663D01*
X44008Y52280D01*
X43371Y52016D01*
X42695Y51882D01*
X42350D01*
D01*
Y55382D01*
D02*
G37*
G36*
X77080Y51559D02*
X76495D01*
X76490Y51564D01*
X76485Y51574D01*
X76470Y51594D01*
X76450Y51614D01*
X76425Y51644D01*
X76395Y51679D01*
X76330Y51759D01*
X76255Y51854D01*
X76170Y51954D01*
X76080Y52059D01*
X75990Y52164D01*
X75985Y52169D01*
X75980Y52174D01*
X75965Y52189D01*
X75950Y52209D01*
X75905Y52259D01*
X75845Y52324D01*
X75775Y52399D01*
X75695Y52479D01*
X75615Y52559D01*
X75535Y52639D01*
X75530Y52644D01*
X75520Y52649D01*
X75510Y52664D01*
X75490Y52684D01*
X75435Y52729D01*
X75370Y52789D01*
X75290Y52849D01*
X75210Y52914D01*
X75125Y52974D01*
X75045Y53024D01*
X75035Y53029D01*
X75010Y53044D01*
X74965Y53064D01*
X74910Y53084D01*
X74845Y53104D01*
X74775Y53124D01*
X74695Y53139D01*
X74610Y53144D01*
X74605D01*
X74600D01*
X74570D01*
X74520Y53134D01*
X74465Y53124D01*
X74405Y53104D01*
X74340Y53079D01*
X74275Y53039D01*
X74220Y52989D01*
X74215Y52984D01*
X74200Y52964D01*
X74175Y52929D01*
X74150Y52879D01*
X74130Y52819D01*
X74105Y52749D01*
X74090Y52664D01*
X74085Y52569D01*
Y52519D01*
X74090Y52484D01*
X74095Y52444D01*
X74100Y52404D01*
X74120Y52309D01*
Y52304D01*
X74125Y52289D01*
X74135Y52264D01*
X74145Y52229D01*
X74155Y52194D01*
X74175Y52149D01*
X74210Y52059D01*
Y52054D01*
X74220Y52039D01*
X74230Y52014D01*
X74245Y51984D01*
X74280Y51914D01*
X74325Y51844D01*
Y51839D01*
X74335Y51829D01*
X74355Y51799D01*
X74380Y51754D01*
X74405Y51719D01*
Y51649D01*
X73620D01*
X73615Y51654D01*
X73605Y51679D01*
X73590Y51714D01*
X73575Y51764D01*
X73550Y51829D01*
X73525Y51914D01*
X73500Y52009D01*
X73470Y52124D01*
Y52129D01*
X73465Y52139D01*
X73460Y52154D01*
X73455Y52179D01*
X73450Y52209D01*
X73445Y52244D01*
X73430Y52324D01*
X73415Y52419D01*
X73400Y52524D01*
X73395Y52634D01*
X73390Y52749D01*
Y52809D01*
X73395Y52854D01*
X73400Y52909D01*
X73405Y52969D01*
X73415Y53039D01*
X73425Y53114D01*
X73460Y53269D01*
X73485Y53354D01*
X73510Y53434D01*
X73545Y53514D01*
X73585Y53589D01*
X73630Y53659D01*
X73680Y53724D01*
X73685Y53729D01*
X73695Y53739D01*
X73710Y53754D01*
X73730Y53779D01*
X73760Y53804D01*
X73795Y53829D01*
X73840Y53859D01*
X73885Y53894D01*
X73940Y53924D01*
X74000Y53954D01*
X74070Y53979D01*
X74140Y54009D01*
X74215Y54029D01*
X74300Y54044D01*
X74390Y54054D01*
X74485Y54059D01*
X74490D01*
X74500D01*
X74515D01*
X74540D01*
X74570Y54054D01*
X74605Y54049D01*
X74685Y54039D01*
X74785Y54019D01*
X74890Y53994D01*
X75005Y53954D01*
X75120Y53904D01*
X75125D01*
X75135Y53899D01*
X75150Y53889D01*
X75175Y53874D01*
X75200Y53859D01*
X75235Y53839D01*
X75315Y53784D01*
X75415Y53714D01*
X75525Y53629D01*
X75645Y53524D01*
X75775Y53404D01*
X75785Y53394D01*
X75810Y53369D01*
X75855Y53324D01*
X75905Y53269D01*
X75965Y53204D01*
X76030Y53134D01*
X76165Y52979D01*
X76170Y52969D01*
X76190Y52944D01*
X76220Y52909D01*
X76255Y52864D01*
X76335Y52764D01*
X76370Y52719D01*
X76400Y52679D01*
Y54219D01*
X77080D01*
Y51559D01*
D02*
G37*
G36*
Y50189D02*
X75755Y49184D01*
Y48864D01*
X77080D01*
Y47959D01*
X73465D01*
Y49514D01*
X73470Y49589D01*
X73475Y49669D01*
X73480Y49754D01*
X73490Y49844D01*
X73505Y49929D01*
Y49939D01*
X73515Y49969D01*
X73525Y50009D01*
X73540Y50064D01*
X73560Y50129D01*
X73585Y50199D01*
X73620Y50274D01*
X73660Y50344D01*
X73665Y50354D01*
X73680Y50374D01*
X73710Y50414D01*
X73745Y50454D01*
X73790Y50504D01*
X73845Y50559D01*
X73905Y50609D01*
X73975Y50654D01*
X73985Y50659D01*
X74010Y50674D01*
X74050Y50689D01*
X74105Y50714D01*
X74175Y50734D01*
X74260Y50749D01*
X74355Y50764D01*
X74460Y50769D01*
X74465D01*
X74480D01*
X74500D01*
X74530Y50764D01*
X74565D01*
X74605Y50759D01*
X74700Y50744D01*
X74805Y50724D01*
X74920Y50689D01*
X75030Y50644D01*
X75135Y50579D01*
X75140D01*
X75145Y50569D01*
X75160Y50559D01*
X75180Y50544D01*
X75225Y50504D01*
X75285Y50449D01*
X75350Y50374D01*
X75415Y50289D01*
X75485Y50189D01*
X75545Y50079D01*
X77080Y51299D01*
Y50189D01*
D02*
G37*
G36*
X71364Y64240D02*
X71444Y64235D01*
X71529Y64230D01*
X71619Y64220D01*
X71704Y64205D01*
X71714D01*
X71744Y64195D01*
X71784Y64185D01*
X71839Y64170D01*
X71904Y64150D01*
X71974Y64125D01*
X72049Y64090D01*
X72119Y64050D01*
X72129Y64045D01*
X72149Y64030D01*
X72189Y64000D01*
X72229Y63965D01*
X72279Y63920D01*
X72334Y63865D01*
X72384Y63805D01*
X72429Y63735D01*
X72434Y63725D01*
X72449Y63700D01*
X72464Y63660D01*
X72489Y63605D01*
X72509Y63535D01*
X72524Y63450D01*
X72539Y63355D01*
X72544Y63250D01*
Y63245D01*
Y63230D01*
Y63210D01*
X72539Y63180D01*
Y63145D01*
X72534Y63105D01*
X72519Y63010D01*
X72499Y62905D01*
X72464Y62790D01*
X72419Y62680D01*
X72354Y62575D01*
Y62570D01*
X72344Y62565D01*
X72334Y62550D01*
X72319Y62530D01*
X72279Y62485D01*
X72224Y62425D01*
X72149Y62360D01*
X72064Y62295D01*
X71964Y62225D01*
X71854Y62165D01*
X73074Y60630D01*
X71964D01*
X70959Y61955D01*
X70639D01*
Y60630D01*
X69734D01*
Y64245D01*
X71289D01*
X71364Y64240D01*
D02*
G37*
G36*
X75544Y62120D02*
X76034D01*
Y61470D01*
X75544D01*
Y60620D01*
X74664D01*
Y61470D01*
X73079D01*
Y62140D01*
X74634Y64245D01*
X75544D01*
Y62120D01*
D02*
G37*
G36*
X65559Y64283D02*
X65634D01*
X65724Y64273D01*
X65819Y64263D01*
X65914Y64248D01*
X66004Y64228D01*
X66014D01*
X66044Y64218D01*
X66089Y64203D01*
X66144Y64188D01*
X66204Y64163D01*
X66274Y64138D01*
X66344Y64103D01*
X66409Y64068D01*
X66419Y64063D01*
X66439Y64048D01*
X66474Y64023D01*
X66514Y63988D01*
X66559Y63948D01*
X66604Y63898D01*
X66649Y63843D01*
X66684Y63778D01*
X66689Y63768D01*
X66699Y63748D01*
X66714Y63713D01*
X66734Y63663D01*
X66749Y63603D01*
X66764Y63538D01*
X66774Y63463D01*
X66779Y63383D01*
Y63378D01*
Y63368D01*
Y63353D01*
X66774Y63333D01*
X66769Y63273D01*
X66759Y63198D01*
X66734Y63113D01*
X66704Y63023D01*
X66659Y62933D01*
X66599Y62843D01*
X66589Y62833D01*
X66569Y62808D01*
X66529Y62768D01*
X66474Y62718D01*
X66404Y62668D01*
X66324Y62618D01*
X66234Y62578D01*
X66129Y62543D01*
Y62508D01*
X66134D01*
X66149Y62503D01*
X66179Y62498D01*
X66209Y62493D01*
X66249Y62483D01*
X66289Y62473D01*
X66379Y62443D01*
X66384D01*
X66399Y62433D01*
X66424Y62423D01*
X66454Y62408D01*
X66494Y62388D01*
X66534Y62363D01*
X66574Y62328D01*
X66619Y62293D01*
X66624Y62288D01*
X66639Y62278D01*
X66659Y62253D01*
X66684Y62228D01*
X66709Y62193D01*
X66744Y62148D01*
X66769Y62103D01*
X66799Y62048D01*
X66804Y62043D01*
X66809Y62023D01*
X66824Y61988D01*
X66839Y61948D01*
X66849Y61898D01*
X66864Y61833D01*
X66869Y61768D01*
X66874Y61693D01*
Y61688D01*
Y61683D01*
Y61668D01*
Y61648D01*
X66869Y61598D01*
X66864Y61533D01*
X66849Y61458D01*
X66834Y61378D01*
X66809Y61293D01*
X66774Y61208D01*
X66769Y61198D01*
X66754Y61173D01*
X66734Y61133D01*
X66699Y61078D01*
X66659Y61023D01*
X66609Y60958D01*
X66549Y60898D01*
X66484Y60838D01*
X66474Y60833D01*
X66449Y60813D01*
X66409Y60783D01*
X66359Y60753D01*
X66289Y60713D01*
X66214Y60673D01*
X66129Y60638D01*
X66034Y60603D01*
X66029D01*
X66024Y60598D01*
X66009D01*
X65989Y60593D01*
X65964Y60583D01*
X65934Y60578D01*
X65859Y60563D01*
X65769Y60548D01*
X65664Y60538D01*
X65544Y60528D01*
X65409Y60523D01*
X65299D01*
X65259Y60528D01*
X65209D01*
X65159Y60533D01*
X65044Y60538D01*
X64924Y60553D01*
X64799Y60568D01*
X64679Y60593D01*
X64674D01*
X64664Y60598D01*
X64649D01*
X64629Y60603D01*
X64574Y60618D01*
X64504Y60638D01*
X64429Y60663D01*
X64349Y60688D01*
X64269Y60718D01*
X64194Y60748D01*
Y61533D01*
X64279D01*
X64289Y61528D01*
X64314Y61513D01*
X64354Y61488D01*
X64414Y61458D01*
X64479Y61423D01*
X64559Y61383D01*
X64649Y61343D01*
X64744Y61308D01*
X64749D01*
X64754Y61303D01*
X64769Y61298D01*
X64789Y61293D01*
X64839Y61278D01*
X64909Y61263D01*
X64984Y61248D01*
X65064Y61233D01*
X65149Y61223D01*
X65234Y61218D01*
X65284D01*
X65319Y61223D01*
X65364D01*
X65409Y61228D01*
X65519Y61238D01*
X65524D01*
X65544Y61243D01*
X65574Y61248D01*
X65609Y61263D01*
X65694Y61293D01*
X65739Y61318D01*
X65779Y61343D01*
X65784Y61348D01*
X65794Y61353D01*
X65809Y61368D01*
X65829Y61383D01*
X65874Y61433D01*
X65914Y61493D01*
Y61498D01*
X65924Y61508D01*
X65929Y61528D01*
X65939Y61558D01*
X65949Y61593D01*
X65954Y61638D01*
X65964Y61688D01*
Y61748D01*
Y61753D01*
Y61773D01*
X65959Y61803D01*
X65954Y61838D01*
X65944Y61878D01*
X65934Y61918D01*
X65914Y61958D01*
X65889Y61993D01*
X65884Y61998D01*
X65874Y62008D01*
X65859Y62023D01*
X65839Y62043D01*
X65814Y62063D01*
X65784Y62088D01*
X65704Y62123D01*
X65699D01*
X65684Y62128D01*
X65659Y62138D01*
X65624Y62148D01*
X65584Y62153D01*
X65539Y62163D01*
X65484Y62168D01*
X65424Y62173D01*
X65364D01*
X65329Y62178D01*
X64984D01*
Y62808D01*
X65224D01*
X65269Y62813D01*
X65319D01*
X65424Y62818D01*
X65429D01*
X65449Y62823D01*
X65474D01*
X65504Y62833D01*
X65584Y62848D01*
X65659Y62878D01*
X65664D01*
X65674Y62888D01*
X65694Y62898D01*
X65714Y62913D01*
X65769Y62948D01*
X65814Y63003D01*
X65819Y63008D01*
X65824Y63018D01*
X65834Y63038D01*
X65844Y63063D01*
X65854Y63098D01*
X65859Y63138D01*
X65869Y63183D01*
Y63233D01*
Y63238D01*
Y63253D01*
X65864Y63268D01*
Y63293D01*
X65844Y63353D01*
X65834Y63383D01*
X65814Y63408D01*
Y63413D01*
X65804Y63418D01*
X65779Y63448D01*
X65739Y63483D01*
X65689Y63518D01*
X65684D01*
X65674Y63523D01*
X65654Y63533D01*
X65634Y63543D01*
X65604Y63553D01*
X65569Y63563D01*
X65484Y63578D01*
X65479D01*
X65464Y63583D01*
X65444D01*
X65419Y63588D01*
X65354Y63593D01*
X65239D01*
X65204Y63588D01*
X65164Y63583D01*
X65114Y63578D01*
X65014Y63558D01*
X65009D01*
X64989Y63553D01*
X64964Y63548D01*
X64929Y63538D01*
X64889Y63523D01*
X64844Y63513D01*
X64749Y63478D01*
X64744D01*
X64734Y63473D01*
X64709Y63463D01*
X64684Y63453D01*
X64654Y63438D01*
X64614Y63418D01*
X64534Y63378D01*
X64529D01*
X64514Y63368D01*
X64499Y63358D01*
X64474Y63343D01*
X64419Y63313D01*
X64394Y63303D01*
X64374Y63288D01*
X64299D01*
Y64058D01*
X64309Y64063D01*
X64334Y64073D01*
X64374Y64088D01*
X64429Y64108D01*
X64504Y64133D01*
X64589Y64158D01*
X64689Y64183D01*
X64799Y64213D01*
X64804D01*
X64814Y64218D01*
X64829D01*
X64854Y64223D01*
X64884Y64233D01*
X64914Y64238D01*
X64999Y64253D01*
X65094Y64263D01*
X65204Y64278D01*
X65324Y64283D01*
X65444Y64288D01*
X65529D01*
X65559Y64283D01*
D02*
G37*
G36*
X62339Y64208D02*
X62419Y64203D01*
X62504Y64198D01*
X62594Y64188D01*
X62679Y64173D01*
X62689D01*
X62719Y64163D01*
X62759Y64153D01*
X62814Y64138D01*
X62879Y64118D01*
X62949Y64093D01*
X63024Y64058D01*
X63094Y64018D01*
X63104Y64013D01*
X63124Y63998D01*
X63164Y63968D01*
X63204Y63933D01*
X63254Y63888D01*
X63309Y63833D01*
X63359Y63773D01*
X63404Y63703D01*
X63409Y63693D01*
X63424Y63668D01*
X63439Y63628D01*
X63464Y63573D01*
X63484Y63503D01*
X63499Y63418D01*
X63514Y63323D01*
X63519Y63218D01*
Y63213D01*
Y63198D01*
Y63178D01*
X63514Y63148D01*
Y63113D01*
X63509Y63073D01*
X63494Y62978D01*
X63474Y62873D01*
X63439Y62758D01*
X63394Y62648D01*
X63329Y62543D01*
Y62538D01*
X63319Y62533D01*
X63309Y62518D01*
X63294Y62498D01*
X63254Y62453D01*
X63199Y62393D01*
X63124Y62328D01*
X63039Y62263D01*
X62939Y62193D01*
X62829Y62133D01*
X64049Y60598D01*
X62939D01*
X61934Y61923D01*
X61614D01*
Y60598D01*
X60709D01*
Y64213D01*
X62264D01*
X62339Y64208D01*
D02*
G37*
G36*
X49339Y47692D02*
X48709D01*
Y48452D01*
X46799D01*
Y47692D01*
X46209D01*
Y47752D01*
X46204Y47797D01*
Y47847D01*
X46199Y47902D01*
X46189Y48022D01*
Y48027D01*
X46184Y48052D01*
X46179Y48082D01*
X46174Y48117D01*
X46149Y48202D01*
X46134Y48247D01*
X46119Y48287D01*
X46114Y48292D01*
X46109Y48307D01*
X46094Y48327D01*
X46079Y48352D01*
X46029Y48412D01*
X45964Y48467D01*
X45959Y48472D01*
X45944Y48477D01*
X45924Y48487D01*
X45894Y48502D01*
X45859Y48512D01*
X45814Y48522D01*
X45769Y48532D01*
X45714Y48537D01*
Y49332D01*
X48709D01*
Y50077D01*
X49339D01*
Y47692D01*
D02*
G37*
G36*
X49099Y47052D02*
X49109Y47037D01*
X49119Y47017D01*
X49129Y46992D01*
X49149Y46957D01*
X49164Y46917D01*
X49209Y46822D01*
Y46817D01*
X49219Y46802D01*
X49229Y46772D01*
X49244Y46742D01*
X49259Y46702D01*
X49274Y46657D01*
X49309Y46557D01*
Y46552D01*
X49314Y46527D01*
X49324Y46497D01*
X49334Y46452D01*
X49344Y46402D01*
X49359Y46352D01*
X49379Y46237D01*
Y46232D01*
X49384Y46212D01*
X49389Y46177D01*
X49394Y46132D01*
X49399Y46077D01*
X49404Y46007D01*
X49409Y45922D01*
Y45797D01*
X49404Y45752D01*
X49399Y45697D01*
X49394Y45627D01*
X49384Y45547D01*
X49369Y45462D01*
X49349Y45367D01*
X49324Y45262D01*
X49289Y45157D01*
X49249Y45052D01*
X49204Y44942D01*
X49144Y44837D01*
X49079Y44732D01*
X49004Y44637D01*
X48919Y44542D01*
X48914Y44537D01*
X48894Y44522D01*
X48869Y44497D01*
X48829Y44467D01*
X48779Y44432D01*
X48719Y44392D01*
X48644Y44347D01*
X48564Y44307D01*
X48469Y44262D01*
X48364Y44217D01*
X48254Y44177D01*
X48129Y44142D01*
X47994Y44112D01*
X47849Y44087D01*
X47699Y44072D01*
X47534Y44067D01*
X47529D01*
X47524D01*
X47494D01*
X47449Y44072D01*
X47389Y44077D01*
X47319Y44082D01*
X47234Y44092D01*
X47139Y44107D01*
X47039Y44127D01*
X46934Y44152D01*
X46819Y44182D01*
X46709Y44222D01*
X46594Y44267D01*
X46479Y44322D01*
X46369Y44387D01*
X46264Y44457D01*
X46164Y44542D01*
X46159Y44547D01*
X46144Y44562D01*
X46114Y44592D01*
X46084Y44632D01*
X46044Y44677D01*
X45999Y44737D01*
X45954Y44807D01*
X45904Y44882D01*
X45859Y44972D01*
X45814Y45067D01*
X45769Y45172D01*
X45729Y45287D01*
X45694Y45412D01*
X45669Y45542D01*
X45654Y45682D01*
X45649Y45832D01*
Y45907D01*
X45654Y45962D01*
Y46022D01*
X45659Y46087D01*
X45674Y46217D01*
Y46227D01*
X45679Y46247D01*
X45684Y46282D01*
X45694Y46327D01*
X45704Y46377D01*
X45714Y46432D01*
X45744Y46552D01*
Y46557D01*
X45749Y46572D01*
X45759Y46597D01*
X45769Y46632D01*
X45784Y46672D01*
X45799Y46717D01*
X45844Y46817D01*
X45849Y46822D01*
X45854Y46842D01*
X45864Y46867D01*
X45879Y46902D01*
X45914Y46982D01*
X45934Y47022D01*
X45954Y47057D01*
X46809D01*
Y46962D01*
X46804Y46957D01*
X46799Y46952D01*
X46789Y46937D01*
X46769Y46917D01*
X46729Y46867D01*
X46674Y46797D01*
X46669Y46792D01*
X46659Y46782D01*
X46644Y46757D01*
X46624Y46732D01*
X46599Y46697D01*
X46574Y46662D01*
X46514Y46572D01*
X46509Y46567D01*
X46499Y46552D01*
X46489Y46522D01*
X46469Y46492D01*
X46449Y46447D01*
X46429Y46402D01*
X46404Y46347D01*
X46384Y46292D01*
X46379Y46287D01*
X46374Y46267D01*
X46364Y46237D01*
X46354Y46197D01*
X46344Y46147D01*
X46339Y46097D01*
X46329Y46037D01*
Y45942D01*
X46334Y45907D01*
X46339Y45857D01*
X46344Y45802D01*
X46354Y45742D01*
X46374Y45682D01*
X46394Y45617D01*
X46399Y45612D01*
X46404Y45592D01*
X46419Y45557D01*
X46444Y45517D01*
X46474Y45472D01*
X46509Y45417D01*
X46554Y45362D01*
X46609Y45307D01*
X46614Y45302D01*
X46634Y45287D01*
X46664Y45262D01*
X46704Y45227D01*
X46759Y45192D01*
X46824Y45157D01*
X46899Y45122D01*
X46984Y45087D01*
X46989D01*
X46994Y45082D01*
X47009Y45077D01*
X47024Y45072D01*
X47074Y45062D01*
X47139Y45047D01*
X47224Y45027D01*
X47319Y45017D01*
X47424Y45007D01*
X47539Y45002D01*
X47544D01*
X47554D01*
X47569D01*
X47594D01*
X47624Y45007D01*
X47659D01*
X47734Y45012D01*
X47824Y45022D01*
X47919Y45037D01*
X48014Y45057D01*
X48104Y45087D01*
X48114Y45092D01*
X48144Y45102D01*
X48184Y45122D01*
X48234Y45152D01*
X48294Y45182D01*
X48359Y45222D01*
X48419Y45272D01*
X48474Y45322D01*
X48479Y45327D01*
X48494Y45347D01*
X48519Y45377D01*
X48549Y45417D01*
X48579Y45462D01*
X48614Y45517D01*
X48644Y45577D01*
X48669Y45637D01*
Y45647D01*
X48679Y45667D01*
X48689Y45702D01*
X48699Y45747D01*
X48709Y45797D01*
X48719Y45857D01*
X48724Y45917D01*
X48729Y45982D01*
Y46012D01*
X48724Y46047D01*
Y46092D01*
X48714Y46142D01*
X48704Y46202D01*
X48694Y46262D01*
X48674Y46322D01*
X48669Y46327D01*
X48664Y46352D01*
X48649Y46382D01*
X48634Y46417D01*
X48614Y46462D01*
X48594Y46507D01*
X48564Y46552D01*
X48539Y46597D01*
X48534Y46602D01*
X48524Y46617D01*
X48509Y46642D01*
X48494Y46672D01*
X48444Y46742D01*
X48389Y46812D01*
X48384Y46817D01*
X48374Y46827D01*
X48364Y46842D01*
X48344Y46867D01*
X48299Y46917D01*
X48249Y46972D01*
Y47057D01*
X49099D01*
Y47052D01*
D02*
G37*
G36*
X49339Y41732D02*
X48709D01*
Y42252D01*
X46354D01*
Y41732D01*
X45724D01*
Y43682D01*
X46354D01*
Y43162D01*
X48709D01*
Y43682D01*
X49339D01*
Y41732D01*
D02*
G37*
G36*
X39556Y29157D02*
X40301D01*
Y28527D01*
X37916D01*
Y29157D01*
X38676D01*
Y31067D01*
X37916D01*
Y31657D01*
X37976D01*
X38021Y31662D01*
X38071D01*
X38126Y31667D01*
X38246Y31677D01*
X38251D01*
X38276Y31682D01*
X38306Y31687D01*
X38341Y31692D01*
X38426Y31717D01*
X38471Y31732D01*
X38511Y31747D01*
X38516Y31752D01*
X38531Y31757D01*
X38551Y31772D01*
X38576Y31787D01*
X38636Y31837D01*
X38691Y31902D01*
X38696Y31907D01*
X38701Y31922D01*
X38711Y31942D01*
X38726Y31972D01*
X38736Y32007D01*
X38746Y32052D01*
X38756Y32097D01*
X38761Y32152D01*
X39556D01*
Y29157D01*
D02*
G37*
G36*
X35836Y32137D02*
X35916Y32132D01*
X36001Y32127D01*
X36091Y32117D01*
X36176Y32102D01*
X36186D01*
X36216Y32092D01*
X36256Y32082D01*
X36311Y32067D01*
X36376Y32047D01*
X36446Y32022D01*
X36521Y31987D01*
X36591Y31947D01*
X36601Y31942D01*
X36621Y31927D01*
X36661Y31897D01*
X36701Y31862D01*
X36751Y31817D01*
X36806Y31762D01*
X36856Y31702D01*
X36901Y31632D01*
X36906Y31622D01*
X36921Y31597D01*
X36936Y31557D01*
X36961Y31502D01*
X36981Y31432D01*
X36996Y31347D01*
X37011Y31252D01*
X37016Y31147D01*
Y31142D01*
Y31127D01*
Y31107D01*
X37011Y31077D01*
Y31042D01*
X37006Y31002D01*
X36991Y30907D01*
X36971Y30802D01*
X36936Y30687D01*
X36891Y30577D01*
X36826Y30472D01*
Y30467D01*
X36816Y30462D01*
X36806Y30447D01*
X36791Y30427D01*
X36751Y30382D01*
X36696Y30322D01*
X36621Y30257D01*
X36536Y30192D01*
X36436Y30122D01*
X36326Y30062D01*
X37546Y28527D01*
X36436D01*
X35431Y29852D01*
X35111D01*
Y28527D01*
X34206D01*
Y32142D01*
X35761D01*
X35836Y32137D01*
D02*
G37*
G36*
X8617Y31236D02*
X9362D01*
Y30606D01*
X6977D01*
Y31236D01*
X7737D01*
Y33146D01*
X6977D01*
Y33736D01*
X7036D01*
X7081Y33741D01*
X7131D01*
X7186Y33746D01*
X7306Y33756D01*
X7311D01*
X7337Y33761D01*
X7367Y33766D01*
X7401Y33771D01*
X7486Y33796D01*
X7531Y33811D01*
X7571Y33826D01*
X7576Y33831D01*
X7592Y33836D01*
X7611Y33851D01*
X7637Y33866D01*
X7696Y33916D01*
X7751Y33981D01*
X7756Y33986D01*
X7762Y34001D01*
X7772Y34021D01*
X7786Y34051D01*
X7796Y34086D01*
X7807Y34131D01*
X7817Y34176D01*
X7822Y34231D01*
X8617D01*
Y31236D01*
D02*
G37*
G36*
X4941Y31296D02*
X6442D01*
Y30606D01*
X4031D01*
Y34221D01*
X4941D01*
Y31296D01*
D02*
G37*
G36*
X41246Y18759D02*
X41336D01*
X41391Y18754D01*
X41506Y18744D01*
X41631Y18724D01*
X41751Y18704D01*
X41866Y18674D01*
X41871D01*
X41881Y18669D01*
X41896Y18664D01*
X41916Y18659D01*
X41941Y18649D01*
X41971Y18639D01*
X42046Y18614D01*
X42136Y18579D01*
X42236Y18539D01*
X42341Y18494D01*
X42456Y18444D01*
Y17599D01*
X42366D01*
X42361Y17609D01*
X42346Y17619D01*
X42321Y17634D01*
X42296Y17654D01*
X42266Y17679D01*
X42226Y17709D01*
X42181Y17739D01*
X42176Y17744D01*
X42161Y17754D01*
X42136Y17774D01*
X42106Y17794D01*
X42071Y17819D01*
X42031Y17849D01*
X41946Y17899D01*
X41941Y17904D01*
X41921Y17914D01*
X41891Y17924D01*
X41856Y17944D01*
X41806Y17964D01*
X41751Y17984D01*
X41691Y18009D01*
X41626Y18029D01*
X41616Y18034D01*
X41596Y18039D01*
X41561Y18049D01*
X41516Y18059D01*
X41456Y18069D01*
X41396Y18079D01*
X41326Y18089D01*
X41211D01*
X41166Y18084D01*
X41111Y18079D01*
X41046Y18069D01*
X40976Y18059D01*
X40901Y18039D01*
X40826Y18014D01*
X40816Y18009D01*
X40796Y17999D01*
X40756Y17984D01*
X40711Y17959D01*
X40661Y17924D01*
X40601Y17889D01*
X40546Y17844D01*
X40486Y17789D01*
X40481Y17784D01*
X40461Y17764D01*
X40436Y17729D01*
X40401Y17689D01*
X40366Y17634D01*
X40326Y17574D01*
X40291Y17499D01*
X40256Y17419D01*
X40251Y17409D01*
X40246Y17379D01*
X40231Y17334D01*
X40216Y17269D01*
X40201Y17194D01*
X40191Y17104D01*
X40181Y17004D01*
X40176Y16899D01*
Y16894D01*
Y16869D01*
Y16839D01*
X40181Y16794D01*
X40186Y16744D01*
X40191Y16679D01*
X40201Y16614D01*
X40216Y16544D01*
X40251Y16389D01*
X40281Y16309D01*
X40311Y16234D01*
X40346Y16159D01*
X40386Y16084D01*
X40436Y16019D01*
X40491Y15959D01*
X40496Y15954D01*
X40506Y15944D01*
X40526Y15929D01*
X40551Y15914D01*
X40581Y15889D01*
X40621Y15864D01*
X40666Y15839D01*
X40721Y15809D01*
X40781Y15779D01*
X40846Y15754D01*
X40916Y15729D01*
X40991Y15704D01*
X41076Y15689D01*
X41166Y15674D01*
X41261Y15664D01*
X41361Y15659D01*
X41551D01*
X41591Y15664D01*
Y16384D01*
X40891D01*
Y17064D01*
X42471D01*
Y15279D01*
X42466D01*
X42461Y15274D01*
X42446Y15269D01*
X42426Y15264D01*
X42406Y15254D01*
X42376Y15244D01*
X42306Y15219D01*
X42216Y15189D01*
X42106Y15159D01*
X41986Y15124D01*
X41851Y15089D01*
X41846D01*
X41836Y15084D01*
X41816Y15079D01*
X41786Y15074D01*
X41751Y15069D01*
X41711Y15059D01*
X41666Y15054D01*
X41616Y15044D01*
X41501Y15029D01*
X41376Y15014D01*
X41241Y15004D01*
X41101Y14999D01*
X41066D01*
X41021Y15004D01*
X40961Y15009D01*
X40891Y15014D01*
X40806Y15024D01*
X40711Y15039D01*
X40611Y15059D01*
X40506Y15084D01*
X40396Y15119D01*
X40286Y15159D01*
X40171Y15204D01*
X40061Y15264D01*
X39951Y15329D01*
X39846Y15404D01*
X39746Y15489D01*
X39741Y15494D01*
X39726Y15514D01*
X39701Y15539D01*
X39666Y15579D01*
X39631Y15629D01*
X39586Y15694D01*
X39541Y15764D01*
X39496Y15849D01*
X39446Y15939D01*
X39401Y16044D01*
X39356Y16159D01*
X39321Y16284D01*
X39286Y16419D01*
X39261Y16564D01*
X39246Y16719D01*
X39241Y16884D01*
Y16894D01*
Y16924D01*
X39246Y16964D01*
X39251Y17024D01*
X39256Y17099D01*
X39266Y17179D01*
X39281Y17274D01*
X39306Y17374D01*
X39331Y17479D01*
X39366Y17589D01*
X39406Y17704D01*
X39456Y17819D01*
X39511Y17934D01*
X39581Y18044D01*
X39656Y18149D01*
X39746Y18249D01*
X39751Y18254D01*
X39771Y18269D01*
X39801Y18299D01*
X39841Y18329D01*
X39891Y18369D01*
X39951Y18414D01*
X40026Y18459D01*
X40111Y18509D01*
X40201Y18554D01*
X40306Y18599D01*
X40421Y18644D01*
X40546Y18684D01*
X40676Y18719D01*
X40821Y18744D01*
X40971Y18759D01*
X41131Y18764D01*
X41206D01*
X41246Y18759D01*
D02*
G37*
G36*
X46206Y15074D02*
X45296D01*
Y16674D01*
X44066D01*
Y15074D01*
X43156D01*
Y18689D01*
X44066D01*
Y17364D01*
X45296D01*
Y18689D01*
X46206D01*
Y15074D01*
D02*
G37*
G36*
X49631Y17999D02*
X48561D01*
Y15074D01*
X47651D01*
Y17999D01*
X46581D01*
Y18689D01*
X49631D01*
Y17999D01*
D02*
G37*
G36*
X38856Y18059D02*
X38336D01*
Y15704D01*
X38856D01*
Y15074D01*
X36906D01*
Y15704D01*
X37426D01*
Y18059D01*
X36906D01*
Y18689D01*
X38856D01*
Y18059D01*
D02*
G37*
G36*
X35116Y15764D02*
X36616D01*
Y15074D01*
X34206D01*
Y18689D01*
X35116D01*
Y15764D01*
D02*
G37*
G36*
X79061Y16234D02*
X77451D01*
Y16904D01*
X79061D01*
Y16234D01*
D02*
G37*
G36*
X77191Y17899D02*
X76121D01*
Y14974D01*
X75211D01*
Y17899D01*
X74141D01*
Y18589D01*
X77191D01*
Y17899D01*
D02*
G37*
G36*
X74156Y14974D02*
X73221D01*
X72996Y15709D01*
X71856D01*
X71631Y14974D01*
X70726D01*
X71946Y18589D01*
X72931D01*
X74156Y14974D01*
D02*
G37*
G36*
X69206Y18584D02*
X69301Y18579D01*
X69401Y18574D01*
X69496Y18564D01*
X69581Y18554D01*
X69591D01*
X69616Y18549D01*
X69656Y18539D01*
X69706Y18529D01*
X69766Y18509D01*
X69831Y18489D01*
X69896Y18464D01*
X69966Y18429D01*
X69976Y18424D01*
X69996Y18409D01*
X70031Y18389D01*
X70076Y18354D01*
X70121Y18314D01*
X70171Y18269D01*
X70216Y18209D01*
X70256Y18149D01*
X70261Y18139D01*
X70271Y18119D01*
X70286Y18084D01*
X70306Y18034D01*
X70326Y17974D01*
X70341Y17904D01*
X70351Y17829D01*
X70356Y17744D01*
Y17739D01*
Y17734D01*
Y17719D01*
Y17699D01*
X70351Y17649D01*
X70341Y17584D01*
X70321Y17514D01*
X70301Y17434D01*
X70266Y17354D01*
X70221Y17274D01*
X70216Y17264D01*
X70196Y17239D01*
X70166Y17204D01*
X70126Y17159D01*
X70076Y17109D01*
X70011Y17059D01*
X69941Y17009D01*
X69856Y16969D01*
Y16949D01*
X69861D01*
X69871Y16944D01*
X69886Y16939D01*
X69911Y16934D01*
X69941Y16924D01*
X69971Y16914D01*
X70051Y16889D01*
X70136Y16849D01*
X70221Y16799D01*
X70311Y16734D01*
X70391Y16659D01*
X70401Y16649D01*
X70421Y16619D01*
X70456Y16574D01*
X70496Y16504D01*
X70531Y16424D01*
X70566Y16324D01*
X70586Y16209D01*
X70596Y16079D01*
Y16074D01*
Y16069D01*
Y16054D01*
Y16034D01*
X70591Y15984D01*
X70581Y15919D01*
X70571Y15844D01*
X70551Y15764D01*
X70526Y15684D01*
X70491Y15604D01*
X70486Y15594D01*
X70471Y15569D01*
X70451Y15534D01*
X70421Y15484D01*
X70381Y15434D01*
X70331Y15374D01*
X70276Y15319D01*
X70216Y15269D01*
X70206Y15264D01*
X70181Y15244D01*
X70141Y15214D01*
X70086Y15179D01*
X70021Y15144D01*
X69946Y15104D01*
X69861Y15069D01*
X69771Y15039D01*
X69766D01*
X69761Y15034D01*
X69746D01*
X69726Y15029D01*
X69701Y15024D01*
X69676Y15019D01*
X69601Y15009D01*
X69511Y14994D01*
X69406Y14984D01*
X69286Y14979D01*
X69151Y14974D01*
X67706D01*
Y18589D01*
X69116D01*
X69206Y18584D01*
D02*
G37*
G36*
X15867Y16275D02*
X17107D01*
Y15650D01*
X15867D01*
Y14410D01*
X15226D01*
Y15650D01*
X13986D01*
Y16275D01*
X15226D01*
Y17515D01*
X15867D01*
Y16275D01*
D02*
G37*
G36*
X13517Y17295D02*
X12447D01*
Y14370D01*
X11536D01*
Y17295D01*
X10467D01*
Y17985D01*
X13517D01*
Y17295D01*
D02*
G37*
G36*
X10481Y14370D02*
X9546D01*
X9322Y15105D01*
X8181D01*
X7957Y14370D01*
X7051D01*
X8271Y17985D01*
X9257D01*
X10481Y14370D01*
D02*
G37*
G36*
X5531Y17980D02*
X5627Y17975D01*
X5726Y17970D01*
X5821Y17960D01*
X5906Y17950D01*
X5917D01*
X5942Y17945D01*
X5982Y17935D01*
X6032Y17925D01*
X6092Y17905D01*
X6157Y17885D01*
X6222Y17860D01*
X6291Y17825D01*
X6301Y17820D01*
X6322Y17805D01*
X6357Y17785D01*
X6402Y17750D01*
X6447Y17710D01*
X6497Y17665D01*
X6542Y17605D01*
X6582Y17545D01*
X6587Y17535D01*
X6596Y17515D01*
X6611Y17480D01*
X6632Y17430D01*
X6651Y17370D01*
X6667Y17300D01*
X6677Y17225D01*
X6681Y17140D01*
Y17135D01*
Y17130D01*
Y17115D01*
Y17095D01*
X6677Y17045D01*
X6667Y16980D01*
X6646Y16910D01*
X6627Y16830D01*
X6592Y16750D01*
X6547Y16670D01*
X6542Y16660D01*
X6521Y16635D01*
X6492Y16600D01*
X6452Y16555D01*
X6402Y16505D01*
X6336Y16455D01*
X6267Y16405D01*
X6182Y16365D01*
Y16345D01*
X6186D01*
X6196Y16340D01*
X6211Y16335D01*
X6236Y16330D01*
X6267Y16320D01*
X6296Y16310D01*
X6376Y16285D01*
X6461Y16245D01*
X6547Y16195D01*
X6637Y16130D01*
X6717Y16055D01*
X6726Y16045D01*
X6746Y16015D01*
X6781Y15970D01*
X6821Y15900D01*
X6857Y15820D01*
X6892Y15720D01*
X6911Y15605D01*
X6921Y15475D01*
Y15470D01*
Y15465D01*
Y15450D01*
Y15430D01*
X6916Y15380D01*
X6906Y15315D01*
X6897Y15240D01*
X6876Y15160D01*
X6852Y15080D01*
X6816Y15000D01*
X6812Y14990D01*
X6797Y14965D01*
X6776Y14930D01*
X6746Y14880D01*
X6707Y14830D01*
X6656Y14770D01*
X6601Y14715D01*
X6542Y14665D01*
X6532Y14660D01*
X6506Y14640D01*
X6466Y14610D01*
X6412Y14575D01*
X6346Y14540D01*
X6272Y14500D01*
X6186Y14465D01*
X6097Y14435D01*
X6092D01*
X6086Y14430D01*
X6072D01*
X6052Y14425D01*
X6027Y14420D01*
X6002Y14415D01*
X5926Y14405D01*
X5836Y14390D01*
X5731Y14380D01*
X5612Y14375D01*
X5477Y14370D01*
X4031D01*
Y17985D01*
X5441D01*
X5531Y17980D01*
D02*
G37*
G36*
X39371Y84384D02*
X39451Y84379D01*
X39546Y84374D01*
X39656Y84359D01*
X39771Y84344D01*
X39891Y84319D01*
X39896D01*
X39906Y84314D01*
X39921D01*
X39946Y84309D01*
X39971Y84299D01*
X40006Y84294D01*
X40081Y84274D01*
X40171Y84249D01*
X40271Y84219D01*
X40366Y84184D01*
X40466Y84144D01*
Y83319D01*
X40381D01*
X40371Y83329D01*
X40346Y83349D01*
X40301Y83379D01*
X40246Y83419D01*
X40176Y83464D01*
X40091Y83514D01*
X39996Y83564D01*
X39891Y83609D01*
X39886D01*
X39876Y83614D01*
X39861Y83619D01*
X39841Y83629D01*
X39816Y83639D01*
X39781Y83649D01*
X39706Y83669D01*
X39616Y83689D01*
X39516Y83709D01*
X39411Y83724D01*
X39296Y83729D01*
X39226D01*
X39156Y83719D01*
X39081Y83709D01*
X39076D01*
X39066Y83704D01*
X39046D01*
X39021Y83694D01*
X38956Y83674D01*
X38881Y83644D01*
X38876D01*
X38866Y83639D01*
X38851Y83629D01*
X38831Y83614D01*
X38786Y83579D01*
X38736Y83529D01*
Y83524D01*
X38726Y83514D01*
X38716Y83499D01*
X38706Y83479D01*
X38686Y83424D01*
X38681Y83394D01*
X38676Y83359D01*
Y83354D01*
Y83339D01*
X38681Y83314D01*
X38686Y83279D01*
X38701Y83244D01*
X38716Y83209D01*
X38741Y83174D01*
X38771Y83139D01*
X38776Y83134D01*
X38791Y83124D01*
X38816Y83109D01*
X38856Y83089D01*
X38906Y83069D01*
X38976Y83044D01*
X39056Y83019D01*
X39151Y82994D01*
X39161D01*
X39181Y82989D01*
X39216Y82979D01*
X39266Y82969D01*
X39316Y82959D01*
X39376Y82944D01*
X39501Y82914D01*
X39511D01*
X39531Y82909D01*
X39566Y82899D01*
X39611Y82884D01*
X39666Y82869D01*
X39726Y82854D01*
X39796Y82834D01*
X39866Y82809D01*
X39871D01*
X39881Y82804D01*
X39901Y82794D01*
X39926Y82784D01*
X39961Y82769D01*
X39996Y82754D01*
X40076Y82709D01*
X40166Y82659D01*
X40261Y82594D01*
X40351Y82519D01*
X40426Y82439D01*
X40436Y82429D01*
X40441Y82414D01*
X40456Y82399D01*
X40486Y82349D01*
X40521Y82279D01*
X40551Y82194D01*
X40581Y82089D01*
X40601Y81969D01*
X40611Y81834D01*
Y81829D01*
Y81809D01*
X40606Y81784D01*
Y81744D01*
X40596Y81699D01*
X40591Y81649D01*
X40576Y81589D01*
X40556Y81524D01*
X40536Y81459D01*
X40506Y81389D01*
X40471Y81314D01*
X40431Y81244D01*
X40381Y81174D01*
X40326Y81099D01*
X40261Y81034D01*
X40186Y80969D01*
X40181Y80964D01*
X40166Y80954D01*
X40141Y80939D01*
X40111Y80919D01*
X40066Y80894D01*
X40016Y80864D01*
X39951Y80839D01*
X39886Y80809D01*
X39806Y80774D01*
X39721Y80749D01*
X39626Y80719D01*
X39526Y80694D01*
X39416Y80674D01*
X39296Y80659D01*
X39171Y80649D01*
X39041Y80644D01*
X38971D01*
X38936Y80649D01*
X38846D01*
X38796Y80654D01*
X38681Y80664D01*
X38556Y80679D01*
X38431Y80699D01*
X38311Y80724D01*
X38306D01*
X38296Y80729D01*
X38281Y80734D01*
X38256Y80739D01*
X38231Y80744D01*
X38196Y80754D01*
X38121Y80779D01*
X38031Y80809D01*
X37936Y80839D01*
X37731Y80919D01*
Y81784D01*
X37811D01*
X37816Y81779D01*
X37821Y81774D01*
X37836Y81764D01*
X37861Y81744D01*
X37886Y81724D01*
X37916Y81704D01*
X37986Y81649D01*
X38076Y81594D01*
X38176Y81534D01*
X38291Y81474D01*
X38411Y81424D01*
X38416D01*
X38426Y81419D01*
X38446Y81414D01*
X38466Y81404D01*
X38496Y81394D01*
X38531Y81384D01*
X38616Y81364D01*
X38711Y81344D01*
X38816Y81324D01*
X38931Y81309D01*
X39046Y81304D01*
X39101D01*
X39131Y81309D01*
X39166D01*
X39206Y81314D01*
X39251Y81319D01*
X39256D01*
X39271Y81324D01*
X39296D01*
X39326Y81334D01*
X39391Y81349D01*
X39426Y81359D01*
X39456Y81374D01*
X39461D01*
X39471Y81384D01*
X39491Y81389D01*
X39511Y81404D01*
X39566Y81439D01*
X39616Y81484D01*
X39621Y81489D01*
X39626Y81499D01*
X39636Y81514D01*
X39651Y81539D01*
X39666Y81564D01*
X39676Y81599D01*
X39681Y81639D01*
X39686Y81684D01*
Y81689D01*
Y81709D01*
X39681Y81729D01*
X39671Y81764D01*
X39661Y81799D01*
X39641Y81834D01*
X39611Y81869D01*
X39576Y81904D01*
X39571Y81909D01*
X39556Y81919D01*
X39536Y81934D01*
X39506Y81954D01*
X39466Y81974D01*
X39426Y81994D01*
X39376Y82014D01*
X39321Y82029D01*
X39311D01*
X39291Y82039D01*
X39251Y82044D01*
X39201Y82059D01*
X39141Y82069D01*
X39076Y82084D01*
X39001Y82104D01*
X38926Y82119D01*
X38916D01*
X38891Y82129D01*
X38851Y82139D01*
X38801Y82149D01*
X38741Y82164D01*
X38671Y82184D01*
X38536Y82224D01*
X38531D01*
X38516Y82229D01*
X38496Y82239D01*
X38466Y82254D01*
X38431Y82269D01*
X38391Y82284D01*
X38301Y82329D01*
X38201Y82389D01*
X38101Y82454D01*
X38011Y82534D01*
X37966Y82579D01*
X37931Y82624D01*
Y82629D01*
X37921Y82634D01*
X37916Y82649D01*
X37901Y82669D01*
X37891Y82694D01*
X37876Y82724D01*
X37841Y82794D01*
X37806Y82889D01*
X37781Y82994D01*
X37761Y83114D01*
X37751Y83249D01*
Y83254D01*
Y83274D01*
X37756Y83299D01*
Y83334D01*
X37766Y83379D01*
X37776Y83429D01*
X37786Y83484D01*
X37806Y83544D01*
X37826Y83609D01*
X37856Y83674D01*
X37891Y83744D01*
X37931Y83814D01*
X37981Y83879D01*
X38036Y83949D01*
X38101Y84014D01*
X38176Y84074D01*
X38181Y84079D01*
X38196Y84089D01*
X38221Y84104D01*
X38251Y84124D01*
X38296Y84149D01*
X38346Y84174D01*
X38406Y84204D01*
X38471Y84234D01*
X38546Y84259D01*
X38626Y84289D01*
X38716Y84314D01*
X38811Y84339D01*
X38911Y84359D01*
X39021Y84374D01*
X39131Y84384D01*
X39251Y84389D01*
X39336D01*
X39371Y84384D01*
D02*
G37*
G36*
X47626Y84394D02*
X47686D01*
X47751Y84389D01*
X47881Y84374D01*
X47891D01*
X47911Y84369D01*
X47946Y84364D01*
X47991Y84354D01*
X48041Y84344D01*
X48096Y84334D01*
X48216Y84304D01*
X48221D01*
X48236Y84299D01*
X48261Y84289D01*
X48296Y84279D01*
X48336Y84264D01*
X48381Y84249D01*
X48481Y84204D01*
X48486Y84199D01*
X48506Y84194D01*
X48531Y84184D01*
X48566Y84169D01*
X48646Y84134D01*
X48686Y84114D01*
X48721Y84094D01*
Y83239D01*
X48626D01*
X48621Y83244D01*
X48616Y83249D01*
X48601Y83259D01*
X48581Y83279D01*
X48531Y83319D01*
X48461Y83374D01*
X48456Y83379D01*
X48446Y83389D01*
X48421Y83404D01*
X48396Y83424D01*
X48361Y83449D01*
X48326Y83474D01*
X48236Y83534D01*
X48231Y83539D01*
X48216Y83549D01*
X48186Y83559D01*
X48156Y83579D01*
X48111Y83599D01*
X48066Y83619D01*
X48011Y83644D01*
X47956Y83664D01*
X47951Y83669D01*
X47931Y83674D01*
X47901Y83684D01*
X47861Y83694D01*
X47811Y83704D01*
X47761Y83709D01*
X47701Y83719D01*
X47606D01*
X47571Y83714D01*
X47521Y83709D01*
X47466Y83704D01*
X47406Y83694D01*
X47346Y83674D01*
X47281Y83654D01*
X47276Y83649D01*
X47256Y83644D01*
X47221Y83629D01*
X47181Y83604D01*
X47136Y83574D01*
X47081Y83539D01*
X47026Y83494D01*
X46971Y83439D01*
X46966Y83434D01*
X46951Y83414D01*
X46926Y83384D01*
X46891Y83344D01*
X46856Y83289D01*
X46821Y83224D01*
X46786Y83149D01*
X46751Y83064D01*
Y83059D01*
X46746Y83054D01*
X46741Y83039D01*
X46736Y83024D01*
X46726Y82974D01*
X46711Y82909D01*
X46691Y82824D01*
X46681Y82729D01*
X46671Y82624D01*
X46666Y82509D01*
Y82504D01*
Y82494D01*
Y82479D01*
Y82454D01*
X46671Y82424D01*
Y82389D01*
X46676Y82314D01*
X46686Y82224D01*
X46701Y82129D01*
X46721Y82034D01*
X46751Y81944D01*
X46756Y81934D01*
X46766Y81904D01*
X46786Y81864D01*
X46816Y81814D01*
X46846Y81754D01*
X46886Y81689D01*
X46936Y81629D01*
X46986Y81574D01*
X46991Y81569D01*
X47011Y81554D01*
X47041Y81529D01*
X47081Y81499D01*
X47126Y81469D01*
X47181Y81434D01*
X47241Y81404D01*
X47301Y81379D01*
X47311D01*
X47331Y81369D01*
X47366Y81359D01*
X47411Y81349D01*
X47461Y81339D01*
X47521Y81329D01*
X47581Y81324D01*
X47646Y81319D01*
X47676D01*
X47711Y81324D01*
X47756D01*
X47806Y81334D01*
X47866Y81344D01*
X47926Y81354D01*
X47986Y81374D01*
X47991Y81379D01*
X48016Y81384D01*
X48046Y81399D01*
X48081Y81414D01*
X48126Y81434D01*
X48171Y81454D01*
X48216Y81484D01*
X48261Y81509D01*
X48266Y81514D01*
X48281Y81524D01*
X48306Y81539D01*
X48336Y81554D01*
X48406Y81604D01*
X48476Y81659D01*
X48481Y81664D01*
X48491Y81674D01*
X48506Y81684D01*
X48531Y81704D01*
X48581Y81749D01*
X48636Y81799D01*
X48721D01*
Y80949D01*
X48716D01*
X48701Y80939D01*
X48681Y80929D01*
X48656Y80919D01*
X48621Y80899D01*
X48581Y80884D01*
X48486Y80839D01*
X48481D01*
X48466Y80829D01*
X48436Y80819D01*
X48406Y80804D01*
X48366Y80789D01*
X48321Y80774D01*
X48221Y80739D01*
X48216D01*
X48191Y80734D01*
X48161Y80724D01*
X48116Y80714D01*
X48066Y80704D01*
X48016Y80689D01*
X47901Y80669D01*
X47896D01*
X47876Y80664D01*
X47841Y80659D01*
X47796Y80654D01*
X47741Y80649D01*
X47671Y80644D01*
X47586Y80639D01*
X47461D01*
X47416Y80644D01*
X47361Y80649D01*
X47291Y80654D01*
X47211Y80664D01*
X47126Y80679D01*
X47031Y80699D01*
X46926Y80724D01*
X46821Y80759D01*
X46716Y80799D01*
X46606Y80844D01*
X46501Y80904D01*
X46396Y80969D01*
X46301Y81044D01*
X46206Y81129D01*
X46201Y81134D01*
X46186Y81154D01*
X46161Y81179D01*
X46131Y81219D01*
X46096Y81269D01*
X46056Y81329D01*
X46011Y81404D01*
X45971Y81484D01*
X45926Y81579D01*
X45881Y81684D01*
X45841Y81794D01*
X45806Y81919D01*
X45776Y82054D01*
X45751Y82199D01*
X45736Y82349D01*
X45731Y82514D01*
Y82519D01*
Y82524D01*
Y82554D01*
X45736Y82599D01*
X45741Y82659D01*
X45746Y82729D01*
X45756Y82814D01*
X45771Y82909D01*
X45791Y83009D01*
X45816Y83114D01*
X45846Y83229D01*
X45886Y83339D01*
X45931Y83454D01*
X45986Y83569D01*
X46051Y83679D01*
X46121Y83784D01*
X46206Y83884D01*
X46211Y83889D01*
X46226Y83904D01*
X46256Y83934D01*
X46296Y83964D01*
X46341Y84004D01*
X46401Y84049D01*
X46471Y84094D01*
X46546Y84144D01*
X46636Y84189D01*
X46731Y84234D01*
X46836Y84279D01*
X46951Y84319D01*
X47076Y84354D01*
X47206Y84379D01*
X47346Y84394D01*
X47496Y84399D01*
X47571D01*
X47626Y84394D01*
D02*
G37*
G36*
X37226Y82014D02*
Y82009D01*
Y81984D01*
Y81949D01*
X37221Y81904D01*
X37216Y81849D01*
X37206Y81784D01*
X37196Y81714D01*
X37176Y81639D01*
X37156Y81554D01*
X37131Y81474D01*
X37101Y81384D01*
X37066Y81299D01*
X37021Y81219D01*
X36966Y81139D01*
X36911Y81059D01*
X36841Y80989D01*
X36836Y80984D01*
X36821Y80974D01*
X36801Y80954D01*
X36771Y80934D01*
X36731Y80909D01*
X36681Y80879D01*
X36626Y80844D01*
X36556Y80814D01*
X36481Y80779D01*
X36396Y80744D01*
X36306Y80714D01*
X36206Y80689D01*
X36096Y80669D01*
X35976Y80649D01*
X35846Y80639D01*
X35711Y80634D01*
X35641D01*
X35591Y80639D01*
X35531Y80644D01*
X35461Y80654D01*
X35386Y80664D01*
X35301Y80679D01*
X35211Y80694D01*
X35121Y80719D01*
X35026Y80749D01*
X34936Y80784D01*
X34846Y80824D01*
X34756Y80869D01*
X34671Y80924D01*
X34596Y80984D01*
X34591Y80989D01*
X34581Y80999D01*
X34561Y81019D01*
X34536Y81049D01*
X34506Y81084D01*
X34471Y81129D01*
X34436Y81184D01*
X34401Y81244D01*
X34366Y81314D01*
X34331Y81389D01*
X34296Y81474D01*
X34266Y81564D01*
X34241Y81669D01*
X34221Y81774D01*
X34211Y81889D01*
X34206Y82014D01*
Y84324D01*
X35116D01*
Y82069D01*
Y82064D01*
Y82054D01*
Y82034D01*
Y82009D01*
X35121Y81974D01*
X35126Y81939D01*
X35136Y81854D01*
X35151Y81764D01*
X35176Y81669D01*
X35211Y81584D01*
X35256Y81504D01*
X35261Y81494D01*
X35281Y81474D01*
X35316Y81449D01*
X35366Y81414D01*
X35431Y81379D01*
X35506Y81354D01*
X35601Y81334D01*
X35711Y81324D01*
X35741D01*
X35761Y81329D01*
X35816Y81334D01*
X35886Y81344D01*
X35956Y81369D01*
X36036Y81399D01*
X36106Y81439D01*
X36166Y81499D01*
X36171Y81509D01*
X36191Y81534D01*
X36216Y81574D01*
X36241Y81634D01*
X36271Y81714D01*
X36291Y81814D01*
X36301Y81869D01*
X36311Y81929D01*
X36316Y81999D01*
Y82069D01*
Y84324D01*
X37226D01*
Y82014D01*
D02*
G37*
G36*
X42576Y84319D02*
X42671Y84314D01*
X42771Y84309D01*
X42866Y84299D01*
X42951Y84289D01*
X42961D01*
X42986Y84284D01*
X43026Y84274D01*
X43076Y84264D01*
X43136Y84244D01*
X43201Y84224D01*
X43266Y84199D01*
X43336Y84164D01*
X43346Y84159D01*
X43366Y84144D01*
X43401Y84124D01*
X43446Y84089D01*
X43491Y84049D01*
X43541Y84004D01*
X43586Y83944D01*
X43626Y83884D01*
X43631Y83874D01*
X43641Y83854D01*
X43656Y83819D01*
X43676Y83769D01*
X43696Y83709D01*
X43711Y83639D01*
X43721Y83564D01*
X43726Y83479D01*
Y83474D01*
Y83469D01*
Y83454D01*
Y83434D01*
X43721Y83384D01*
X43711Y83319D01*
X43691Y83249D01*
X43671Y83169D01*
X43636Y83089D01*
X43591Y83009D01*
X43586Y82999D01*
X43566Y82974D01*
X43536Y82939D01*
X43496Y82894D01*
X43446Y82844D01*
X43381Y82794D01*
X43311Y82744D01*
X43226Y82704D01*
Y82684D01*
X43231D01*
X43241Y82679D01*
X43256Y82674D01*
X43281Y82669D01*
X43311Y82659D01*
X43341Y82649D01*
X43421Y82624D01*
X43506Y82584D01*
X43591Y82534D01*
X43681Y82469D01*
X43761Y82394D01*
X43771Y82384D01*
X43791Y82354D01*
X43826Y82309D01*
X43866Y82239D01*
X43901Y82159D01*
X43936Y82059D01*
X43956Y81944D01*
X43966Y81814D01*
Y81809D01*
Y81804D01*
Y81789D01*
Y81769D01*
X43961Y81719D01*
X43951Y81654D01*
X43941Y81579D01*
X43921Y81499D01*
X43896Y81419D01*
X43861Y81339D01*
X43856Y81329D01*
X43841Y81304D01*
X43821Y81269D01*
X43791Y81219D01*
X43751Y81169D01*
X43701Y81109D01*
X43646Y81054D01*
X43586Y81004D01*
X43576Y80999D01*
X43551Y80979D01*
X43511Y80949D01*
X43456Y80914D01*
X43391Y80879D01*
X43316Y80839D01*
X43231Y80804D01*
X43141Y80774D01*
X43136D01*
X43131Y80769D01*
X43116D01*
X43096Y80764D01*
X43071Y80759D01*
X43046Y80754D01*
X42971Y80744D01*
X42881Y80729D01*
X42776Y80719D01*
X42656Y80714D01*
X42521Y80709D01*
X41076D01*
Y84324D01*
X42486D01*
X42576Y84319D01*
D02*
G37*
G36*
X56964Y28243D02*
X57024D01*
X57089Y28238D01*
X57219Y28223D01*
X57229D01*
X57249Y28218D01*
X57284Y28213D01*
X57329Y28203D01*
X57379Y28193D01*
X57434Y28183D01*
X57554Y28153D01*
X57559D01*
X57574Y28148D01*
X57599Y28138D01*
X57634Y28128D01*
X57674Y28113D01*
X57719Y28098D01*
X57819Y28053D01*
X57824Y28048D01*
X57844Y28043D01*
X57869Y28033D01*
X57904Y28018D01*
X57984Y27983D01*
X58024Y27963D01*
X58059Y27943D01*
Y27088D01*
X57964D01*
X57959Y27093D01*
X57954Y27098D01*
X57939Y27108D01*
X57919Y27128D01*
X57869Y27168D01*
X57799Y27223D01*
X57794Y27228D01*
X57784Y27238D01*
X57759Y27253D01*
X57734Y27273D01*
X57699Y27298D01*
X57664Y27323D01*
X57574Y27383D01*
X57569Y27388D01*
X57554Y27398D01*
X57524Y27408D01*
X57494Y27428D01*
X57449Y27448D01*
X57404Y27468D01*
X57349Y27493D01*
X57294Y27513D01*
X57289Y27518D01*
X57269Y27523D01*
X57239Y27533D01*
X57199Y27543D01*
X57149Y27553D01*
X57099Y27558D01*
X57039Y27568D01*
X56944D01*
X56909Y27563D01*
X56859Y27558D01*
X56804Y27553D01*
X56744Y27543D01*
X56684Y27523D01*
X56619Y27503D01*
X56614Y27498D01*
X56594Y27493D01*
X56559Y27478D01*
X56519Y27453D01*
X56474Y27423D01*
X56419Y27388D01*
X56364Y27343D01*
X56309Y27288D01*
X56304Y27283D01*
X56289Y27263D01*
X56264Y27233D01*
X56229Y27193D01*
X56194Y27138D01*
X56159Y27073D01*
X56124Y26998D01*
X56089Y26913D01*
Y26908D01*
X56084Y26903D01*
X56079Y26888D01*
X56074Y26873D01*
X56064Y26823D01*
X56049Y26758D01*
X56029Y26673D01*
X56019Y26578D01*
X56009Y26473D01*
X56004Y26358D01*
Y26353D01*
Y26343D01*
Y26328D01*
Y26303D01*
X56009Y26273D01*
Y26238D01*
X56014Y26163D01*
X56024Y26073D01*
X56039Y25978D01*
X56059Y25883D01*
X56089Y25793D01*
X56094Y25783D01*
X56104Y25753D01*
X56124Y25713D01*
X56154Y25663D01*
X56184Y25603D01*
X56224Y25538D01*
X56274Y25478D01*
X56324Y25423D01*
X56329Y25418D01*
X56349Y25403D01*
X56379Y25378D01*
X56419Y25348D01*
X56464Y25318D01*
X56519Y25283D01*
X56579Y25253D01*
X56639Y25228D01*
X56649D01*
X56669Y25218D01*
X56704Y25208D01*
X56749Y25198D01*
X56799Y25188D01*
X56859Y25178D01*
X56919Y25173D01*
X56984Y25168D01*
X57014D01*
X57049Y25173D01*
X57094D01*
X57144Y25183D01*
X57204Y25193D01*
X57264Y25203D01*
X57324Y25223D01*
X57329Y25228D01*
X57354Y25233D01*
X57384Y25248D01*
X57419Y25263D01*
X57464Y25283D01*
X57509Y25303D01*
X57554Y25333D01*
X57599Y25358D01*
X57604Y25363D01*
X57619Y25373D01*
X57644Y25388D01*
X57674Y25403D01*
X57744Y25453D01*
X57814Y25508D01*
X57819Y25513D01*
X57829Y25523D01*
X57844Y25533D01*
X57869Y25553D01*
X57919Y25598D01*
X57974Y25648D01*
X58059D01*
Y24798D01*
X58054D01*
X58039Y24788D01*
X58019Y24778D01*
X57994Y24768D01*
X57959Y24748D01*
X57919Y24733D01*
X57824Y24688D01*
X57819D01*
X57804Y24678D01*
X57774Y24668D01*
X57744Y24653D01*
X57704Y24638D01*
X57659Y24623D01*
X57559Y24588D01*
X57554D01*
X57529Y24583D01*
X57499Y24573D01*
X57454Y24563D01*
X57404Y24553D01*
X57354Y24538D01*
X57239Y24518D01*
X57234D01*
X57214Y24513D01*
X57179Y24508D01*
X57134Y24503D01*
X57079Y24498D01*
X57009Y24493D01*
X56924Y24488D01*
X56799D01*
X56754Y24493D01*
X56699Y24498D01*
X56629Y24503D01*
X56549Y24513D01*
X56464Y24528D01*
X56369Y24548D01*
X56264Y24573D01*
X56159Y24608D01*
X56054Y24648D01*
X55944Y24693D01*
X55839Y24753D01*
X55734Y24818D01*
X55639Y24893D01*
X55544Y24978D01*
X55539Y24983D01*
X55524Y25003D01*
X55499Y25028D01*
X55469Y25068D01*
X55434Y25118D01*
X55394Y25178D01*
X55349Y25253D01*
X55309Y25333D01*
X55264Y25428D01*
X55219Y25533D01*
X55179Y25643D01*
X55144Y25768D01*
X55114Y25903D01*
X55089Y26048D01*
X55074Y26198D01*
X55069Y26363D01*
Y26368D01*
Y26373D01*
Y26403D01*
X55074Y26448D01*
X55079Y26508D01*
X55084Y26578D01*
X55094Y26663D01*
X55109Y26758D01*
X55129Y26858D01*
X55154Y26963D01*
X55184Y27078D01*
X55224Y27188D01*
X55269Y27303D01*
X55324Y27418D01*
X55389Y27528D01*
X55459Y27633D01*
X55544Y27733D01*
X55549Y27738D01*
X55564Y27753D01*
X55594Y27783D01*
X55634Y27813D01*
X55679Y27853D01*
X55739Y27898D01*
X55809Y27943D01*
X55884Y27993D01*
X55974Y28038D01*
X56069Y28083D01*
X56174Y28128D01*
X56289Y28168D01*
X56414Y28203D01*
X56544Y28228D01*
X56684Y28243D01*
X56834Y28248D01*
X56909D01*
X56964Y28243D01*
D02*
G37*
G36*
X60794Y26048D02*
X61284D01*
Y25398D01*
X60794D01*
Y24548D01*
X59914D01*
Y25398D01*
X58329D01*
Y26068D01*
X59884Y28173D01*
X60794D01*
Y26048D01*
D02*
G37*
G36*
X6600Y74945D02*
X6661D01*
X6725Y74940D01*
X6855Y74925D01*
X6866D01*
X6886Y74920D01*
X6921Y74915D01*
X6966Y74905D01*
X7016Y74895D01*
X7071Y74885D01*
X7191Y74855D01*
X7196D01*
X7211Y74850D01*
X7236Y74840D01*
X7271Y74830D01*
X7311Y74815D01*
X7356Y74800D01*
X7456Y74755D01*
X7461Y74750D01*
X7480Y74745D01*
X7506Y74735D01*
X7541Y74720D01*
X7621Y74685D01*
X7661Y74665D01*
X7696Y74645D01*
Y73790D01*
X7600D01*
X7596Y73795D01*
X7591Y73800D01*
X7576Y73810D01*
X7555Y73830D01*
X7506Y73870D01*
X7436Y73925D01*
X7430Y73930D01*
X7421Y73940D01*
X7396Y73955D01*
X7371Y73975D01*
X7336Y74000D01*
X7300Y74025D01*
X7211Y74085D01*
X7205Y74090D01*
X7191Y74100D01*
X7161Y74110D01*
X7130Y74130D01*
X7086Y74150D01*
X7041Y74170D01*
X6986Y74195D01*
X6931Y74215D01*
X6926Y74220D01*
X6905Y74225D01*
X6876Y74235D01*
X6836Y74245D01*
X6786Y74255D01*
X6736Y74260D01*
X6675Y74270D01*
X6581D01*
X6546Y74265D01*
X6496Y74260D01*
X6441Y74255D01*
X6381Y74245D01*
X6321Y74225D01*
X6256Y74205D01*
X6250Y74200D01*
X6231Y74195D01*
X6196Y74180D01*
X6156Y74155D01*
X6111Y74125D01*
X6056Y74090D01*
X6001Y74045D01*
X5946Y73990D01*
X5941Y73985D01*
X5926Y73965D01*
X5900Y73935D01*
X5866Y73895D01*
X5831Y73840D01*
X5796Y73775D01*
X5760Y73700D01*
X5725Y73615D01*
Y73610D01*
X5721Y73605D01*
X5716Y73590D01*
X5711Y73575D01*
X5700Y73525D01*
X5686Y73460D01*
X5666Y73375D01*
X5656Y73280D01*
X5646Y73175D01*
X5641Y73060D01*
Y73055D01*
Y73045D01*
Y73030D01*
Y73005D01*
X5646Y72975D01*
Y72940D01*
X5650Y72865D01*
X5661Y72775D01*
X5675Y72680D01*
X5696Y72585D01*
X5725Y72495D01*
X5731Y72485D01*
X5741Y72455D01*
X5760Y72415D01*
X5791Y72365D01*
X5821Y72305D01*
X5861Y72240D01*
X5911Y72180D01*
X5960Y72125D01*
X5966Y72120D01*
X5985Y72105D01*
X6016Y72080D01*
X6056Y72050D01*
X6101Y72020D01*
X6156Y71985D01*
X6216Y71955D01*
X6276Y71930D01*
X6285D01*
X6306Y71920D01*
X6341Y71910D01*
X6385Y71900D01*
X6436Y71890D01*
X6496Y71880D01*
X6555Y71875D01*
X6621Y71870D01*
X6650D01*
X6686Y71875D01*
X6730D01*
X6780Y71885D01*
X6841Y71895D01*
X6900Y71905D01*
X6961Y71925D01*
X6966Y71930D01*
X6991Y71935D01*
X7021Y71950D01*
X7056Y71965D01*
X7101Y71985D01*
X7146Y72005D01*
X7191Y72035D01*
X7236Y72060D01*
X7241Y72065D01*
X7255Y72075D01*
X7281Y72090D01*
X7311Y72105D01*
X7380Y72155D01*
X7451Y72210D01*
X7456Y72215D01*
X7466Y72225D01*
X7480Y72235D01*
X7506Y72255D01*
X7555Y72300D01*
X7611Y72350D01*
X7696D01*
Y71500D01*
X7691D01*
X7676Y71490D01*
X7655Y71480D01*
X7631Y71470D01*
X7596Y71450D01*
X7555Y71435D01*
X7461Y71390D01*
X7456D01*
X7441Y71380D01*
X7411Y71370D01*
X7380Y71355D01*
X7341Y71340D01*
X7296Y71325D01*
X7196Y71290D01*
X7191D01*
X7166Y71285D01*
X7136Y71275D01*
X7091Y71265D01*
X7041Y71255D01*
X6991Y71240D01*
X6876Y71220D01*
X6871D01*
X6850Y71215D01*
X6816Y71210D01*
X6771Y71205D01*
X6716Y71200D01*
X6646Y71195D01*
X6561Y71190D01*
X6436D01*
X6391Y71195D01*
X6335Y71200D01*
X6266Y71205D01*
X6185Y71215D01*
X6101Y71230D01*
X6006Y71250D01*
X5900Y71275D01*
X5796Y71310D01*
X5691Y71350D01*
X5581Y71395D01*
X5475Y71455D01*
X5371Y71520D01*
X5275Y71595D01*
X5181Y71680D01*
X5175Y71685D01*
X5161Y71705D01*
X5136Y71730D01*
X5106Y71770D01*
X5071Y71820D01*
X5031Y71880D01*
X4986Y71955D01*
X4946Y72035D01*
X4901Y72130D01*
X4856Y72235D01*
X4816Y72345D01*
X4781Y72470D01*
X4750Y72605D01*
X4725Y72750D01*
X4710Y72900D01*
X4706Y73065D01*
Y73070D01*
Y73075D01*
Y73105D01*
X4710Y73150D01*
X4716Y73210D01*
X4721Y73280D01*
X4731Y73365D01*
X4746Y73460D01*
X4766Y73560D01*
X4791Y73665D01*
X4821Y73780D01*
X4860Y73890D01*
X4906Y74005D01*
X4961Y74120D01*
X5026Y74230D01*
X5096Y74335D01*
X5181Y74435D01*
X5186Y74440D01*
X5201Y74455D01*
X5231Y74485D01*
X5271Y74515D01*
X5316Y74555D01*
X5376Y74600D01*
X5446Y74645D01*
X5521Y74695D01*
X5610Y74740D01*
X5706Y74785D01*
X5810Y74830D01*
X5926Y74870D01*
X6050Y74905D01*
X6181Y74930D01*
X6321Y74945D01*
X6471Y74950D01*
X6546D01*
X6600Y74945D01*
D02*
G37*
G36*
X9471D02*
X9546D01*
X9636Y74935D01*
X9730Y74925D01*
X9826Y74910D01*
X9916Y74890D01*
X9926D01*
X9956Y74880D01*
X10001Y74865D01*
X10056Y74850D01*
X10116Y74825D01*
X10186Y74800D01*
X10255Y74765D01*
X10321Y74730D01*
X10330Y74725D01*
X10351Y74710D01*
X10386Y74685D01*
X10425Y74650D01*
X10471Y74610D01*
X10516Y74560D01*
X10561Y74505D01*
X10596Y74440D01*
X10600Y74430D01*
X10611Y74410D01*
X10626Y74375D01*
X10646Y74325D01*
X10661Y74265D01*
X10676Y74200D01*
X10686Y74125D01*
X10691Y74045D01*
Y74040D01*
Y74030D01*
Y74015D01*
X10686Y73995D01*
X10680Y73935D01*
X10671Y73860D01*
X10646Y73775D01*
X10616Y73685D01*
X10571Y73595D01*
X10511Y73505D01*
X10501Y73495D01*
X10481Y73470D01*
X10441Y73430D01*
X10386Y73380D01*
X10316Y73330D01*
X10236Y73280D01*
X10146Y73240D01*
X10041Y73205D01*
Y73170D01*
X10046D01*
X10061Y73165D01*
X10091Y73160D01*
X10121Y73155D01*
X10161Y73145D01*
X10200Y73135D01*
X10291Y73105D01*
X10296D01*
X10311Y73095D01*
X10336Y73085D01*
X10366Y73070D01*
X10406Y73050D01*
X10446Y73025D01*
X10486Y72990D01*
X10531Y72955D01*
X10536Y72950D01*
X10550Y72940D01*
X10571Y72915D01*
X10596Y72890D01*
X10621Y72855D01*
X10655Y72810D01*
X10680Y72765D01*
X10711Y72710D01*
X10716Y72705D01*
X10721Y72685D01*
X10736Y72650D01*
X10751Y72610D01*
X10761Y72560D01*
X10775Y72495D01*
X10780Y72430D01*
X10786Y72355D01*
Y72350D01*
Y72345D01*
Y72330D01*
Y72310D01*
X10780Y72260D01*
X10775Y72195D01*
X10761Y72120D01*
X10746Y72040D01*
X10721Y71955D01*
X10686Y71870D01*
X10680Y71860D01*
X10666Y71835D01*
X10646Y71795D01*
X10611Y71740D01*
X10571Y71685D01*
X10521Y71620D01*
X10461Y71560D01*
X10396Y71500D01*
X10386Y71495D01*
X10361Y71475D01*
X10321Y71445D01*
X10271Y71415D01*
X10200Y71375D01*
X10125Y71335D01*
X10041Y71300D01*
X9946Y71265D01*
X9941D01*
X9936Y71260D01*
X9921D01*
X9900Y71255D01*
X9876Y71245D01*
X9846Y71240D01*
X9771Y71225D01*
X9680Y71210D01*
X9576Y71200D01*
X9455Y71190D01*
X9321Y71185D01*
X9211D01*
X9171Y71190D01*
X9121D01*
X9071Y71195D01*
X8956Y71200D01*
X8836Y71215D01*
X8711Y71230D01*
X8591Y71255D01*
X8586D01*
X8575Y71260D01*
X8561D01*
X8541Y71265D01*
X8486Y71280D01*
X8416Y71300D01*
X8341Y71325D01*
X8261Y71350D01*
X8180Y71380D01*
X8106Y71410D01*
Y72195D01*
X8191D01*
X8201Y72190D01*
X8225Y72175D01*
X8266Y72150D01*
X8326Y72120D01*
X8391Y72085D01*
X8471Y72045D01*
X8561Y72005D01*
X8655Y71970D01*
X8661D01*
X8666Y71965D01*
X8681Y71960D01*
X8700Y71955D01*
X8750Y71940D01*
X8821Y71925D01*
X8896Y71910D01*
X8975Y71895D01*
X9061Y71885D01*
X9146Y71880D01*
X9196D01*
X9230Y71885D01*
X9275D01*
X9321Y71890D01*
X9431Y71900D01*
X9436D01*
X9455Y71905D01*
X9486Y71910D01*
X9521Y71925D01*
X9606Y71955D01*
X9651Y71980D01*
X9691Y72005D01*
X9696Y72010D01*
X9706Y72015D01*
X9721Y72030D01*
X9741Y72045D01*
X9786Y72095D01*
X9826Y72155D01*
Y72160D01*
X9836Y72170D01*
X9841Y72190D01*
X9850Y72220D01*
X9861Y72255D01*
X9866Y72300D01*
X9876Y72350D01*
Y72410D01*
Y72415D01*
Y72435D01*
X9871Y72465D01*
X9866Y72500D01*
X9855Y72540D01*
X9846Y72580D01*
X9826Y72620D01*
X9800Y72655D01*
X9796Y72660D01*
X9786Y72670D01*
X9771Y72685D01*
X9751Y72705D01*
X9725Y72725D01*
X9696Y72750D01*
X9616Y72785D01*
X9611D01*
X9596Y72790D01*
X9571Y72800D01*
X9536Y72810D01*
X9496Y72815D01*
X9450Y72825D01*
X9396Y72830D01*
X9336Y72835D01*
X9275D01*
X9241Y72840D01*
X8896D01*
Y73470D01*
X9136D01*
X9181Y73475D01*
X9230D01*
X9336Y73480D01*
X9341D01*
X9361Y73485D01*
X9386D01*
X9416Y73495D01*
X9496Y73510D01*
X9571Y73540D01*
X9576D01*
X9586Y73550D01*
X9606Y73560D01*
X9625Y73575D01*
X9680Y73610D01*
X9725Y73665D01*
X9730Y73670D01*
X9736Y73680D01*
X9746Y73700D01*
X9755Y73725D01*
X9766Y73760D01*
X9771Y73800D01*
X9781Y73845D01*
Y73895D01*
Y73900D01*
Y73915D01*
X9775Y73930D01*
Y73955D01*
X9755Y74015D01*
X9746Y74045D01*
X9725Y74070D01*
Y74075D01*
X9716Y74080D01*
X9691Y74110D01*
X9651Y74145D01*
X9601Y74180D01*
X9596D01*
X9586Y74185D01*
X9566Y74195D01*
X9546Y74205D01*
X9516Y74215D01*
X9481Y74225D01*
X9396Y74240D01*
X9391D01*
X9375Y74245D01*
X9356D01*
X9330Y74250D01*
X9266Y74255D01*
X9150D01*
X9116Y74250D01*
X9076Y74245D01*
X9025Y74240D01*
X8925Y74220D01*
X8921D01*
X8901Y74215D01*
X8875Y74210D01*
X8841Y74200D01*
X8800Y74185D01*
X8755Y74175D01*
X8661Y74140D01*
X8655D01*
X8646Y74135D01*
X8621Y74125D01*
X8596Y74115D01*
X8566Y74100D01*
X8525Y74080D01*
X8446Y74040D01*
X8441D01*
X8426Y74030D01*
X8411Y74020D01*
X8386Y74005D01*
X8331Y73975D01*
X8305Y73965D01*
X8286Y73950D01*
X8211D01*
Y74720D01*
X8221Y74725D01*
X8246Y74735D01*
X8286Y74750D01*
X8341Y74770D01*
X8416Y74795D01*
X8501Y74820D01*
X8601Y74845D01*
X8711Y74875D01*
X8716D01*
X8726Y74880D01*
X8741D01*
X8766Y74885D01*
X8796Y74895D01*
X8826Y74900D01*
X8911Y74915D01*
X9005Y74925D01*
X9116Y74940D01*
X9236Y74945D01*
X9356Y74950D01*
X9441D01*
X9471Y74945D01*
D02*
G37*
%LPC*%
G36*
X74625Y49834D02*
X74570D01*
X74565D01*
X74545D01*
X74520Y49829D01*
X74490D01*
X74415Y49809D01*
X74375Y49799D01*
X74335Y49779D01*
X74330D01*
X74320Y49769D01*
X74300Y49759D01*
X74280Y49739D01*
X74255Y49714D01*
X74230Y49684D01*
X74205Y49649D01*
X74185Y49609D01*
Y49604D01*
X74180Y49594D01*
X74170Y49579D01*
X74165Y49554D01*
X74145Y49494D01*
X74135Y49419D01*
Y49399D01*
X74130Y49379D01*
Y49309D01*
X74125Y49269D01*
Y48864D01*
X75105D01*
Y49184D01*
X75100Y49229D01*
Y49279D01*
X75095Y49334D01*
X75090Y49389D01*
X75085Y49439D01*
Y49444D01*
X75080Y49459D01*
X75075Y49484D01*
X75065Y49514D01*
X75030Y49589D01*
X74985Y49659D01*
X74980Y49664D01*
X74970Y49674D01*
X74960Y49689D01*
X74940Y49709D01*
X74885Y49754D01*
X74820Y49789D01*
X74815D01*
X74805Y49794D01*
X74780Y49804D01*
X74755Y49814D01*
X74715Y49819D01*
X74675Y49829D01*
X74625Y49834D01*
D02*
G37*
G36*
X71044Y63585D02*
X70639D01*
Y62605D01*
X70959D01*
X71004Y62610D01*
X71054D01*
X71109Y62615D01*
X71164Y62620D01*
X71214Y62625D01*
X71219D01*
X71234Y62630D01*
X71259Y62635D01*
X71289Y62645D01*
X71364Y62680D01*
X71434Y62725D01*
X71439Y62730D01*
X71449Y62740D01*
X71464Y62750D01*
X71484Y62770D01*
X71529Y62825D01*
X71564Y62890D01*
Y62895D01*
X71569Y62905D01*
X71579Y62930D01*
X71589Y62955D01*
X71594Y62995D01*
X71604Y63035D01*
X71609Y63085D01*
Y63140D01*
Y63145D01*
Y63165D01*
X71604Y63190D01*
Y63220D01*
X71584Y63295D01*
X71574Y63335D01*
X71554Y63375D01*
Y63380D01*
X71544Y63390D01*
X71534Y63410D01*
X71514Y63430D01*
X71489Y63455D01*
X71459Y63480D01*
X71424Y63505D01*
X71384Y63525D01*
X71379D01*
X71369Y63530D01*
X71354Y63540D01*
X71329Y63545D01*
X71269Y63565D01*
X71194Y63575D01*
X71174D01*
X71154Y63580D01*
X71084D01*
X71044Y63585D01*
D02*
G37*
G36*
X74664Y63350D02*
X73749Y62120D01*
X74664D01*
Y63350D01*
D02*
G37*
G36*
X62019Y63553D02*
X61614D01*
Y62573D01*
X61934D01*
X61979Y62578D01*
X62029D01*
X62084Y62583D01*
X62139Y62588D01*
X62189Y62593D01*
X62194D01*
X62209Y62598D01*
X62234Y62603D01*
X62264Y62613D01*
X62339Y62648D01*
X62409Y62693D01*
X62414Y62698D01*
X62424Y62708D01*
X62439Y62718D01*
X62459Y62738D01*
X62504Y62793D01*
X62539Y62858D01*
Y62863D01*
X62544Y62873D01*
X62554Y62898D01*
X62564Y62923D01*
X62569Y62963D01*
X62579Y63003D01*
X62584Y63053D01*
Y63108D01*
Y63113D01*
Y63133D01*
X62579Y63158D01*
Y63188D01*
X62559Y63263D01*
X62549Y63303D01*
X62529Y63343D01*
Y63348D01*
X62519Y63358D01*
X62509Y63378D01*
X62489Y63398D01*
X62464Y63423D01*
X62434Y63448D01*
X62399Y63473D01*
X62359Y63493D01*
X62354D01*
X62344Y63498D01*
X62329Y63508D01*
X62304Y63513D01*
X62244Y63533D01*
X62169Y63543D01*
X62149D01*
X62129Y63548D01*
X62059D01*
X62019Y63553D01*
D02*
G37*
G36*
X35516Y31482D02*
X35111D01*
Y30502D01*
X35431D01*
X35476Y30507D01*
X35526D01*
X35581Y30512D01*
X35636Y30517D01*
X35686Y30522D01*
X35691D01*
X35706Y30527D01*
X35731Y30532D01*
X35761Y30542D01*
X35836Y30577D01*
X35906Y30622D01*
X35911Y30627D01*
X35921Y30637D01*
X35936Y30647D01*
X35956Y30667D01*
X36001Y30722D01*
X36036Y30787D01*
Y30792D01*
X36041Y30802D01*
X36051Y30827D01*
X36061Y30852D01*
X36066Y30892D01*
X36076Y30932D01*
X36081Y30982D01*
Y31037D01*
Y31042D01*
Y31062D01*
X36076Y31087D01*
Y31117D01*
X36056Y31192D01*
X36046Y31232D01*
X36026Y31272D01*
Y31277D01*
X36016Y31287D01*
X36006Y31307D01*
X35986Y31327D01*
X35961Y31352D01*
X35931Y31377D01*
X35896Y31402D01*
X35856Y31422D01*
X35851D01*
X35841Y31427D01*
X35826Y31437D01*
X35801Y31442D01*
X35741Y31462D01*
X35666Y31472D01*
X35646D01*
X35626Y31477D01*
X35556D01*
X35516Y31482D01*
D02*
G37*
G36*
X72426Y17559D02*
X72056Y16369D01*
X72796D01*
X72426Y17559D01*
D02*
G37*
G36*
X68946Y17929D02*
X68611D01*
Y17159D01*
X69061D01*
X69081Y17164D01*
X69106Y17169D01*
X69171Y17184D01*
X69241Y17214D01*
X69246D01*
X69261Y17224D01*
X69276Y17234D01*
X69301Y17249D01*
X69351Y17294D01*
X69371Y17324D01*
X69391Y17354D01*
Y17359D01*
X69396Y17369D01*
X69406Y17389D01*
X69416Y17414D01*
X69421Y17444D01*
X69431Y17479D01*
X69436Y17564D01*
Y17569D01*
Y17579D01*
Y17599D01*
X69431Y17619D01*
X69416Y17679D01*
X69391Y17744D01*
Y17749D01*
X69381Y17759D01*
X69371Y17774D01*
X69356Y17799D01*
X69311Y17839D01*
X69286Y17864D01*
X69251Y17879D01*
X69246D01*
X69236Y17884D01*
X69216Y17894D01*
X69191Y17899D01*
X69161Y17909D01*
X69121Y17914D01*
X69036Y17924D01*
X68986D01*
X68946Y17929D01*
D02*
G37*
G36*
X69061Y16539D02*
X68611D01*
Y15634D01*
X69171D01*
X69196Y15639D01*
X69231Y15644D01*
X69271Y15654D01*
X69321Y15664D01*
X69371Y15684D01*
X69421Y15704D01*
X69426Y15709D01*
X69441Y15714D01*
X69466Y15724D01*
X69491Y15744D01*
X69521Y15764D01*
X69551Y15789D01*
X69576Y15824D01*
X69601Y15859D01*
X69606Y15864D01*
X69611Y15879D01*
X69621Y15899D01*
X69631Y15929D01*
X69641Y15964D01*
X69651Y16004D01*
X69661Y16049D01*
Y16094D01*
Y16099D01*
Y16119D01*
X69656Y16149D01*
X69651Y16189D01*
X69631Y16274D01*
X69616Y16314D01*
X69591Y16354D01*
X69586Y16359D01*
X69576Y16369D01*
X69561Y16389D01*
X69541Y16409D01*
X69511Y16429D01*
X69476Y16454D01*
X69436Y16479D01*
X69386Y16499D01*
X69381D01*
X69371Y16504D01*
X69351Y16509D01*
X69326Y16514D01*
X69296Y16519D01*
X69256Y16529D01*
X69211D01*
X69161Y16534D01*
X69101D01*
X69061Y16539D01*
D02*
G37*
G36*
X8751Y16955D02*
X8382Y15765D01*
X9121D01*
X8751Y16955D01*
D02*
G37*
G36*
X5271Y17325D02*
X4936D01*
Y16555D01*
X5387D01*
X5407Y16560D01*
X5432Y16565D01*
X5497Y16580D01*
X5567Y16610D01*
X5571D01*
X5587Y16620D01*
X5601Y16630D01*
X5627Y16645D01*
X5677Y16690D01*
X5697Y16720D01*
X5717Y16750D01*
Y16755D01*
X5722Y16765D01*
X5731Y16785D01*
X5742Y16810D01*
X5746Y16840D01*
X5756Y16875D01*
X5762Y16960D01*
Y16965D01*
Y16975D01*
Y16995D01*
X5756Y17015D01*
X5742Y17075D01*
X5717Y17140D01*
Y17145D01*
X5706Y17155D01*
X5697Y17170D01*
X5681Y17195D01*
X5636Y17235D01*
X5612Y17260D01*
X5576Y17275D01*
X5571D01*
X5562Y17280D01*
X5542Y17290D01*
X5517Y17295D01*
X5486Y17305D01*
X5446Y17310D01*
X5362Y17320D01*
X5311D01*
X5271Y17325D01*
D02*
G37*
G36*
X5387Y15935D02*
X4936D01*
Y15030D01*
X5497D01*
X5522Y15035D01*
X5556Y15040D01*
X5596Y15050D01*
X5646Y15060D01*
X5697Y15080D01*
X5746Y15100D01*
X5751Y15105D01*
X5767Y15110D01*
X5791Y15120D01*
X5816Y15140D01*
X5847Y15160D01*
X5877Y15185D01*
X5901Y15220D01*
X5926Y15255D01*
X5931Y15260D01*
X5937Y15275D01*
X5946Y15295D01*
X5957Y15325D01*
X5966Y15360D01*
X5976Y15400D01*
X5987Y15445D01*
Y15490D01*
Y15495D01*
Y15515D01*
X5982Y15545D01*
X5976Y15585D01*
X5957Y15670D01*
X5942Y15710D01*
X5917Y15750D01*
X5912Y15755D01*
X5901Y15765D01*
X5886Y15785D01*
X5866Y15805D01*
X5836Y15825D01*
X5802Y15850D01*
X5762Y15875D01*
X5711Y15895D01*
X5706D01*
X5697Y15900D01*
X5677Y15905D01*
X5652Y15910D01*
X5621Y15915D01*
X5582Y15925D01*
X5536D01*
X5486Y15930D01*
X5426D01*
X5387Y15935D01*
D02*
G37*
G36*
X42316Y83664D02*
X41981D01*
Y82894D01*
X42431D01*
X42451Y82899D01*
X42476Y82904D01*
X42541Y82919D01*
X42611Y82949D01*
X42616D01*
X42631Y82959D01*
X42646Y82969D01*
X42671Y82984D01*
X42721Y83029D01*
X42741Y83059D01*
X42761Y83089D01*
Y83094D01*
X42766Y83104D01*
X42776Y83124D01*
X42786Y83149D01*
X42791Y83179D01*
X42801Y83214D01*
X42806Y83299D01*
Y83304D01*
Y83314D01*
Y83334D01*
X42801Y83354D01*
X42786Y83414D01*
X42761Y83479D01*
Y83484D01*
X42751Y83494D01*
X42741Y83509D01*
X42726Y83534D01*
X42681Y83574D01*
X42656Y83599D01*
X42621Y83614D01*
X42616D01*
X42606Y83619D01*
X42586Y83629D01*
X42561Y83634D01*
X42531Y83644D01*
X42491Y83649D01*
X42406Y83659D01*
X42356D01*
X42316Y83664D01*
D02*
G37*
G36*
X42431Y82274D02*
X41981D01*
Y81369D01*
X42541D01*
X42566Y81374D01*
X42601Y81379D01*
X42641Y81389D01*
X42691Y81399D01*
X42741Y81419D01*
X42791Y81439D01*
X42796Y81444D01*
X42811Y81449D01*
X42836Y81459D01*
X42861Y81479D01*
X42891Y81499D01*
X42921Y81524D01*
X42946Y81559D01*
X42971Y81594D01*
X42976Y81599D01*
X42981Y81614D01*
X42991Y81634D01*
X43001Y81664D01*
X43011Y81699D01*
X43021Y81739D01*
X43031Y81784D01*
Y81829D01*
Y81834D01*
Y81854D01*
X43026Y81884D01*
X43021Y81924D01*
X43001Y82009D01*
X42986Y82049D01*
X42961Y82089D01*
X42956Y82094D01*
X42946Y82104D01*
X42931Y82124D01*
X42911Y82144D01*
X42881Y82164D01*
X42846Y82189D01*
X42806Y82214D01*
X42756Y82234D01*
X42751D01*
X42741Y82239D01*
X42721Y82244D01*
X42696Y82249D01*
X42666Y82254D01*
X42626Y82264D01*
X42581D01*
X42531Y82269D01*
X42471D01*
X42431Y82274D01*
D02*
G37*
G36*
X59914Y27278D02*
X58999Y26048D01*
X59914D01*
Y27278D01*
D02*
G37*
%LPD*%
D10*
X37043Y57122D02*
X36305Y57548D01*
Y56696D01*
X37043Y57122D01*
X2067Y38976D02*
X1329Y39403D01*
Y38550D01*
X2067Y38976D01*
D11*
X42350Y51882D02*
X43432Y52053D01*
X44407Y52550D01*
X45182Y53324D01*
X45679Y54300D01*
X45850Y55382D01*
X53350Y36039D02*
Y55724D01*
X42350Y36039D02*
X53350D01*
X42350D02*
Y55724D01*
X53350D01*
X58465Y75590D02*
Y82677D01*
X24449Y75591D02*
Y82677D01*
X58622Y66535D02*
Y67716D01*
X24607Y66535D02*
X58622D01*
X24607D02*
Y67716D01*
X27953Y38976D02*
Y59449D01*
X3543Y39370D02*
Y59842D01*
D12*
X71063Y40980D02*
X76575D01*
X71063Y35980D02*
X71819D01*
X71063D02*
Y45980D01*
X71819D01*
X75819D02*
X76575D01*
Y35980D02*
Y45980D01*
X75819Y35980D02*
X76575D01*
X32579Y63811D02*
Y64567D01*
X44390D01*
Y63811D02*
Y64567D01*
Y59842D02*
Y60598D01*
X32579Y59842D02*
Y60598D01*
Y59842D02*
X44390D01*
X38484D02*
Y64567D01*
X58189Y59842D02*
Y60598D01*
X46378Y59842D02*
X58189D01*
X46378D02*
Y60598D01*
Y63811D02*
Y64567D01*
X58189Y63811D02*
Y64567D01*
X46378D02*
X58189D01*
X52284Y59842D02*
Y64567D01*
X54134Y27771D02*
Y28527D01*
X42323Y27771D02*
X54134D01*
X42323D02*
Y28527D01*
Y31739D02*
Y32495D01*
X54134Y31739D02*
Y32495D01*
X42323D02*
X54134D01*
X48228Y27771D02*
Y32495D01*
X69734Y25951D02*
Y33038D01*
X76427Y31463D02*
Y33038D01*
X63041D02*
X76427D01*
X63041Y31463D02*
Y33038D01*
Y25951D02*
Y27526D01*
Y25951D02*
X76427D01*
Y27526D01*
X13780Y62992D02*
Y70079D01*
X20472Y68504D02*
Y70079D01*
X7087D02*
X20472D01*
X7087Y68504D02*
Y70079D01*
Y62992D02*
Y64567D01*
Y62992D02*
X20472D01*
Y64567D01*
M02*
