G04*
G04 #@! TF.GenerationSoftware,Altium Limited,Altium Designer,19.1.8 (144)*
G04*
G04 Layer_Color=16711935*
%FSLAX25Y25*%
%MOIN*%
G70*
G01*
G75*
%ADD11C,0.00787*%
%ADD32C,0.01000*%
G36*
X100496Y57614D02*
X100588D01*
X100680Y57606D01*
X100896Y57590D01*
X101121Y57565D01*
X101363Y57531D01*
X101588Y57490D01*
X101596D01*
X101613Y57481D01*
X101646Y57473D01*
X101688Y57465D01*
X101738Y57456D01*
X101796Y57440D01*
X101929Y57390D01*
X102079Y57340D01*
X102246Y57265D01*
X102404Y57190D01*
X102562Y57090D01*
X102571D01*
X102579Y57081D01*
X102629Y57040D01*
X102696Y56981D01*
X102779Y56898D01*
X102879Y56798D01*
X102979Y56673D01*
X103070Y56532D01*
X103154Y56373D01*
Y56365D01*
X103162Y56357D01*
X103170Y56332D01*
X103187Y56298D01*
X103204Y56257D01*
X103220Y56207D01*
X103254Y56073D01*
X103287Y55924D01*
X103320Y55740D01*
X103345Y55532D01*
X103354Y55299D01*
Y55190D01*
X103345Y55141D01*
Y55074D01*
X103329Y54924D01*
X103304Y54757D01*
X103270Y54582D01*
X103220Y54399D01*
X103154Y54224D01*
Y54216D01*
X103146Y54208D01*
X103129Y54183D01*
X103112Y54149D01*
X103070Y54074D01*
X103004Y53966D01*
X102920Y53858D01*
X102812Y53733D01*
X102696Y53616D01*
X102554Y53508D01*
X102546D01*
X102537Y53500D01*
X102512Y53483D01*
X102487Y53466D01*
X102396Y53416D01*
X102287Y53358D01*
X102146Y53291D01*
X101979Y53225D01*
X101788Y53158D01*
X101579Y53108D01*
X101571D01*
X101554Y53100D01*
X101521D01*
X101479Y53091D01*
X101421Y53083D01*
X101355Y53066D01*
X101279Y53058D01*
X101188Y53050D01*
X101096Y53033D01*
X100988Y53025D01*
X100763Y53000D01*
X100505Y52991D01*
X100222Y52983D01*
X100213D01*
X100188D01*
X100147D01*
X100088D01*
X100022D01*
X99938Y52991D01*
X99847D01*
X99747Y53000D01*
X99539Y53008D01*
X99305Y53033D01*
X99080Y53058D01*
X98856Y53100D01*
X98847D01*
X98830Y53108D01*
X98797Y53116D01*
X98764Y53125D01*
X98714Y53141D01*
X98656Y53158D01*
X98522Y53200D01*
X98372Y53258D01*
X98206Y53325D01*
X98039Y53416D01*
X97881Y53516D01*
X97873D01*
X97864Y53533D01*
X97814Y53566D01*
X97748Y53633D01*
X97656Y53716D01*
X97556Y53816D01*
X97456Y53941D01*
X97364Y54083D01*
X97281Y54241D01*
Y54249D01*
X97273Y54258D01*
X97264Y54282D01*
X97248Y54316D01*
X97231Y54366D01*
X97215Y54416D01*
X97181Y54541D01*
X97148Y54691D01*
X97114Y54874D01*
X97089Y55074D01*
X97081Y55299D01*
Y55407D01*
X97089Y55465D01*
Y55524D01*
X97106Y55682D01*
X97131Y55849D01*
X97173Y56032D01*
X97223Y56215D01*
X97290Y56382D01*
Y56390D01*
X97298Y56398D01*
X97314Y56423D01*
X97331Y56457D01*
X97373Y56532D01*
X97439Y56632D01*
X97531Y56748D01*
X97631Y56865D01*
X97756Y56990D01*
X97898Y57098D01*
X97906D01*
X97914Y57106D01*
X97939Y57123D01*
X97973Y57140D01*
X98056Y57190D01*
X98172Y57248D01*
X98314Y57315D01*
X98481Y57381D01*
X98672Y57448D01*
X98880Y57498D01*
X98889D01*
X98905Y57506D01*
X98939D01*
X98980Y57515D01*
X99039Y57531D01*
X99105Y57540D01*
X99180Y57548D01*
X99264Y57565D01*
X99364Y57573D01*
X99464Y57581D01*
X99689Y57606D01*
X99947Y57614D01*
X100222Y57623D01*
X100230D01*
X100255D01*
X100297D01*
X100355D01*
X100422D01*
X100496Y57614D01*
D02*
G37*
G36*
Y52342D02*
X100588D01*
X100680Y52333D01*
X100896Y52317D01*
X101121Y52292D01*
X101363Y52258D01*
X101588Y52217D01*
X101596D01*
X101613Y52208D01*
X101646Y52200D01*
X101688Y52192D01*
X101738Y52183D01*
X101796Y52167D01*
X101929Y52117D01*
X102079Y52067D01*
X102246Y51992D01*
X102404Y51917D01*
X102562Y51817D01*
X102571D01*
X102579Y51809D01*
X102629Y51767D01*
X102696Y51709D01*
X102779Y51625D01*
X102879Y51525D01*
X102979Y51400D01*
X103070Y51259D01*
X103154Y51100D01*
Y51092D01*
X103162Y51084D01*
X103170Y51059D01*
X103187Y51025D01*
X103204Y50984D01*
X103220Y50934D01*
X103254Y50801D01*
X103287Y50651D01*
X103320Y50467D01*
X103345Y50259D01*
X103354Y50026D01*
Y49918D01*
X103345Y49868D01*
Y49801D01*
X103329Y49651D01*
X103304Y49485D01*
X103270Y49310D01*
X103220Y49126D01*
X103154Y48951D01*
Y48943D01*
X103146Y48935D01*
X103129Y48910D01*
X103112Y48876D01*
X103070Y48801D01*
X103004Y48693D01*
X102920Y48585D01*
X102812Y48460D01*
X102696Y48343D01*
X102554Y48235D01*
X102546D01*
X102537Y48227D01*
X102512Y48210D01*
X102487Y48193D01*
X102396Y48143D01*
X102287Y48085D01*
X102146Y48018D01*
X101979Y47952D01*
X101788Y47885D01*
X101579Y47835D01*
X101571D01*
X101554Y47827D01*
X101521D01*
X101479Y47818D01*
X101421Y47810D01*
X101355Y47793D01*
X101279Y47785D01*
X101188Y47777D01*
X101096Y47760D01*
X100988Y47752D01*
X100763Y47727D01*
X100505Y47719D01*
X100222Y47710D01*
X100213D01*
X100188D01*
X100147D01*
X100088D01*
X100022D01*
X99938Y47719D01*
X99847D01*
X99747Y47727D01*
X99539Y47735D01*
X99305Y47760D01*
X99080Y47785D01*
X98856Y47827D01*
X98847D01*
X98830Y47835D01*
X98797Y47844D01*
X98764Y47852D01*
X98714Y47868D01*
X98656Y47885D01*
X98522Y47927D01*
X98372Y47985D01*
X98206Y48052D01*
X98039Y48143D01*
X97881Y48243D01*
X97873D01*
X97864Y48260D01*
X97814Y48293D01*
X97748Y48360D01*
X97656Y48443D01*
X97556Y48543D01*
X97456Y48668D01*
X97364Y48810D01*
X97281Y48968D01*
Y48976D01*
X97273Y48985D01*
X97264Y49010D01*
X97248Y49043D01*
X97231Y49093D01*
X97215Y49143D01*
X97181Y49268D01*
X97148Y49418D01*
X97114Y49601D01*
X97089Y49801D01*
X97081Y50026D01*
Y50134D01*
X97089Y50192D01*
Y50251D01*
X97106Y50409D01*
X97131Y50576D01*
X97173Y50759D01*
X97223Y50942D01*
X97290Y51109D01*
Y51117D01*
X97298Y51126D01*
X97314Y51151D01*
X97331Y51184D01*
X97373Y51259D01*
X97439Y51359D01*
X97531Y51475D01*
X97631Y51592D01*
X97756Y51717D01*
X97898Y51825D01*
X97906D01*
X97914Y51833D01*
X97939Y51850D01*
X97973Y51867D01*
X98056Y51917D01*
X98172Y51975D01*
X98314Y52042D01*
X98481Y52108D01*
X98672Y52175D01*
X98880Y52225D01*
X98889D01*
X98905Y52233D01*
X98939D01*
X98980Y52242D01*
X99039Y52258D01*
X99105Y52267D01*
X99180Y52275D01*
X99264Y52292D01*
X99364Y52300D01*
X99464Y52308D01*
X99689Y52333D01*
X99947Y52342D01*
X100222Y52350D01*
X100230D01*
X100255D01*
X100297D01*
X100355D01*
X100422D01*
X100496Y52342D01*
D02*
G37*
G36*
X104720Y45644D02*
Y44786D01*
X101638Y45578D01*
Y47060D01*
X104720Y45644D01*
D02*
G37*
G36*
X101829Y43820D02*
X103245D01*
Y42354D01*
X101829D01*
Y39713D01*
X100713D01*
X97206Y42304D01*
Y43820D01*
X100746D01*
Y44636D01*
X101829D01*
Y43820D01*
D02*
G37*
G36*
X103229Y34865D02*
X102254D01*
X102246Y34874D01*
X102237Y34890D01*
X102213Y34924D01*
X102179Y34957D01*
X102137Y35007D01*
X102087Y35065D01*
X101979Y35199D01*
X101854Y35357D01*
X101713Y35523D01*
X101563Y35698D01*
X101413Y35873D01*
X101405Y35882D01*
X101396Y35890D01*
X101371Y35915D01*
X101346Y35948D01*
X101271Y36031D01*
X101171Y36140D01*
X101055Y36265D01*
X100921Y36398D01*
X100788Y36531D01*
X100655Y36665D01*
X100646Y36673D01*
X100630Y36681D01*
X100613Y36706D01*
X100580Y36740D01*
X100488Y36814D01*
X100380Y36915D01*
X100247Y37014D01*
X100113Y37123D01*
X99972Y37223D01*
X99838Y37306D01*
X99822Y37314D01*
X99780Y37339D01*
X99705Y37373D01*
X99613Y37406D01*
X99505Y37439D01*
X99389Y37473D01*
X99255Y37498D01*
X99114Y37506D01*
X99105D01*
X99097D01*
X99047D01*
X98964Y37489D01*
X98872Y37473D01*
X98772Y37439D01*
X98664Y37398D01*
X98556Y37331D01*
X98464Y37248D01*
X98456Y37239D01*
X98431Y37206D01*
X98389Y37148D01*
X98347Y37064D01*
X98314Y36964D01*
X98272Y36848D01*
X98247Y36706D01*
X98239Y36548D01*
Y36465D01*
X98247Y36406D01*
X98256Y36340D01*
X98264Y36273D01*
X98297Y36115D01*
Y36107D01*
X98306Y36081D01*
X98322Y36040D01*
X98339Y35982D01*
X98356Y35923D01*
X98389Y35848D01*
X98447Y35698D01*
Y35690D01*
X98464Y35665D01*
X98481Y35623D01*
X98506Y35573D01*
X98564Y35457D01*
X98639Y35340D01*
Y35332D01*
X98656Y35315D01*
X98689Y35265D01*
X98731Y35190D01*
X98772Y35132D01*
Y35015D01*
X97464D01*
X97456Y35024D01*
X97439Y35065D01*
X97414Y35124D01*
X97389Y35207D01*
X97348Y35315D01*
X97306Y35457D01*
X97264Y35615D01*
X97215Y35807D01*
Y35815D01*
X97206Y35832D01*
X97198Y35857D01*
X97189Y35898D01*
X97181Y35948D01*
X97173Y36007D01*
X97148Y36140D01*
X97123Y36298D01*
X97098Y36473D01*
X97089Y36656D01*
X97081Y36848D01*
Y36948D01*
X97089Y37023D01*
X97098Y37114D01*
X97106Y37214D01*
X97123Y37331D01*
X97140Y37456D01*
X97198Y37714D01*
X97240Y37856D01*
X97281Y37989D01*
X97339Y38122D01*
X97406Y38247D01*
X97481Y38364D01*
X97564Y38472D01*
X97573Y38480D01*
X97589Y38497D01*
X97614Y38522D01*
X97648Y38564D01*
X97698Y38605D01*
X97756Y38647D01*
X97831Y38697D01*
X97906Y38755D01*
X97997Y38805D01*
X98097Y38855D01*
X98214Y38897D01*
X98331Y38947D01*
X98456Y38980D01*
X98597Y39005D01*
X98747Y39022D01*
X98905Y39030D01*
X98914D01*
X98931D01*
X98956D01*
X98997D01*
X99047Y39022D01*
X99105Y39014D01*
X99239Y38997D01*
X99405Y38964D01*
X99580Y38922D01*
X99772Y38855D01*
X99963Y38772D01*
X99972D01*
X99988Y38764D01*
X100013Y38747D01*
X100055Y38722D01*
X100097Y38697D01*
X100155Y38664D01*
X100288Y38572D01*
X100455Y38456D01*
X100638Y38314D01*
X100838Y38139D01*
X101055Y37939D01*
X101071Y37922D01*
X101113Y37881D01*
X101188Y37806D01*
X101271Y37714D01*
X101371Y37606D01*
X101479Y37489D01*
X101704Y37231D01*
X101713Y37214D01*
X101746Y37173D01*
X101796Y37114D01*
X101854Y37039D01*
X101988Y36873D01*
X102046Y36798D01*
X102096Y36731D01*
Y39297D01*
X103229D01*
Y34865D01*
D02*
G37*
G36*
X37148Y-19502D02*
X38389D01*
Y-20552D01*
X34416D01*
Y-19502D01*
X35682D01*
Y-16320D01*
X34416D01*
Y-15337D01*
X34516D01*
X34591Y-15329D01*
X34674D01*
X34766Y-15320D01*
X34966Y-15304D01*
X34974D01*
X35016Y-15295D01*
X35066Y-15287D01*
X35124Y-15279D01*
X35266Y-15237D01*
X35341Y-15212D01*
X35407Y-15187D01*
X35416Y-15179D01*
X35440Y-15170D01*
X35474Y-15145D01*
X35515Y-15120D01*
X35616Y-15037D01*
X35707Y-14929D01*
X35715Y-14920D01*
X35724Y-14896D01*
X35740Y-14862D01*
X35765Y-14812D01*
X35782Y-14754D01*
X35799Y-14679D01*
X35815Y-14604D01*
X35824Y-14512D01*
X37148D01*
Y-19502D01*
D02*
G37*
G36*
X31117Y-14412D02*
X31209Y-14421D01*
X31309Y-14429D01*
X31425Y-14446D01*
X31550Y-14462D01*
X31809Y-14521D01*
X31950Y-14562D01*
X32084Y-14604D01*
X32217Y-14662D01*
X32342Y-14729D01*
X32458Y-14804D01*
X32567Y-14887D01*
X32575Y-14896D01*
X32592Y-14912D01*
X32617Y-14937D01*
X32658Y-14970D01*
X32700Y-15021D01*
X32742Y-15079D01*
X32792Y-15154D01*
X32850Y-15229D01*
X32900Y-15320D01*
X32950Y-15420D01*
X32991Y-15537D01*
X33042Y-15653D01*
X33075Y-15778D01*
X33100Y-15920D01*
X33116Y-16070D01*
X33125Y-16228D01*
Y-16237D01*
Y-16253D01*
Y-16278D01*
Y-16320D01*
X33116Y-16370D01*
X33108Y-16428D01*
X33092Y-16562D01*
X33058Y-16728D01*
X33016Y-16903D01*
X32950Y-17095D01*
X32867Y-17286D01*
Y-17295D01*
X32858Y-17311D01*
X32842Y-17336D01*
X32817Y-17378D01*
X32792Y-17420D01*
X32758Y-17478D01*
X32667Y-17611D01*
X32550Y-17778D01*
X32408Y-17961D01*
X32234Y-18161D01*
X32034Y-18377D01*
X32017Y-18394D01*
X31975Y-18436D01*
X31900Y-18511D01*
X31809Y-18594D01*
X31700Y-18694D01*
X31584Y-18802D01*
X31326Y-19027D01*
X31309Y-19036D01*
X31267Y-19069D01*
X31209Y-19119D01*
X31134Y-19177D01*
X30967Y-19310D01*
X30892Y-19369D01*
X30826Y-19419D01*
X33391D01*
Y-20552D01*
X28960D01*
Y-19577D01*
X28968Y-19569D01*
X28985Y-19560D01*
X29018Y-19535D01*
X29051Y-19502D01*
X29101Y-19460D01*
X29160Y-19410D01*
X29293Y-19302D01*
X29451Y-19177D01*
X29618Y-19036D01*
X29793Y-18886D01*
X29968Y-18736D01*
X29976Y-18727D01*
X29984Y-18719D01*
X30009Y-18694D01*
X30043Y-18669D01*
X30126Y-18594D01*
X30234Y-18494D01*
X30359Y-18377D01*
X30492Y-18244D01*
X30626Y-18111D01*
X30759Y-17978D01*
X30767Y-17969D01*
X30776Y-17953D01*
X30801Y-17936D01*
X30834Y-17903D01*
X30909Y-17811D01*
X31009Y-17703D01*
X31109Y-17569D01*
X31217Y-17436D01*
X31317Y-17295D01*
X31400Y-17161D01*
X31409Y-17145D01*
X31434Y-17103D01*
X31467Y-17028D01*
X31501Y-16936D01*
X31534Y-16828D01*
X31567Y-16711D01*
X31592Y-16578D01*
X31600Y-16437D01*
Y-16428D01*
Y-16420D01*
Y-16370D01*
X31584Y-16287D01*
X31567Y-16195D01*
X31534Y-16095D01*
X31492Y-15987D01*
X31425Y-15879D01*
X31342Y-15787D01*
X31334Y-15778D01*
X31301Y-15754D01*
X31242Y-15712D01*
X31159Y-15670D01*
X31059Y-15637D01*
X30942Y-15595D01*
X30801Y-15570D01*
X30643Y-15562D01*
X30559D01*
X30501Y-15570D01*
X30434Y-15579D01*
X30368Y-15587D01*
X30209Y-15620D01*
X30201D01*
X30176Y-15629D01*
X30134Y-15645D01*
X30076Y-15662D01*
X30018Y-15678D01*
X29943Y-15712D01*
X29793Y-15770D01*
X29785D01*
X29759Y-15787D01*
X29718Y-15803D01*
X29668Y-15829D01*
X29551Y-15887D01*
X29435Y-15962D01*
X29426D01*
X29410Y-15978D01*
X29360Y-16012D01*
X29285Y-16053D01*
X29226Y-16095D01*
X29110D01*
Y-14787D01*
X29118Y-14779D01*
X29160Y-14762D01*
X29218Y-14737D01*
X29301Y-14712D01*
X29410Y-14671D01*
X29551Y-14629D01*
X29710Y-14587D01*
X29901Y-14537D01*
X29909D01*
X29926Y-14529D01*
X29951Y-14521D01*
X29993Y-14512D01*
X30043Y-14504D01*
X30101Y-14496D01*
X30234Y-14471D01*
X30393Y-14446D01*
X30567Y-14421D01*
X30751Y-14412D01*
X30942Y-14404D01*
X31042D01*
X31117Y-14412D01*
D02*
G37*
G36*
X49560D02*
X49618D01*
X49777Y-14429D01*
X49943Y-14454D01*
X50126Y-14496D01*
X50310Y-14546D01*
X50476Y-14612D01*
X50485D01*
X50493Y-14621D01*
X50518Y-14637D01*
X50551Y-14654D01*
X50626Y-14696D01*
X50726Y-14762D01*
X50843Y-14854D01*
X50959Y-14954D01*
X51084Y-15079D01*
X51193Y-15220D01*
Y-15229D01*
X51201Y-15237D01*
X51218Y-15262D01*
X51234Y-15295D01*
X51284Y-15379D01*
X51342Y-15495D01*
X51409Y-15637D01*
X51476Y-15803D01*
X51542Y-15995D01*
X51592Y-16203D01*
Y-16212D01*
X51601Y-16228D01*
Y-16262D01*
X51609Y-16303D01*
X51626Y-16362D01*
X51634Y-16428D01*
X51642Y-16503D01*
X51659Y-16587D01*
X51667Y-16687D01*
X51676Y-16786D01*
X51701Y-17011D01*
X51709Y-17270D01*
X51717Y-17545D01*
Y-17553D01*
Y-17578D01*
Y-17619D01*
Y-17678D01*
Y-17744D01*
X51709Y-17819D01*
Y-17911D01*
X51701Y-18003D01*
X51684Y-18219D01*
X51659Y-18444D01*
X51626Y-18686D01*
X51584Y-18911D01*
Y-18919D01*
X51576Y-18936D01*
X51567Y-18969D01*
X51559Y-19011D01*
X51551Y-19060D01*
X51534Y-19119D01*
X51484Y-19252D01*
X51434Y-19402D01*
X51359Y-19569D01*
X51284Y-19727D01*
X51184Y-19885D01*
Y-19894D01*
X51176Y-19902D01*
X51134Y-19952D01*
X51076Y-20019D01*
X50993Y-20102D01*
X50893Y-20202D01*
X50768Y-20302D01*
X50626Y-20393D01*
X50468Y-20477D01*
X50459D01*
X50451Y-20485D01*
X50426Y-20493D01*
X50393Y-20510D01*
X50351Y-20527D01*
X50301Y-20543D01*
X50168Y-20577D01*
X50018Y-20610D01*
X49835Y-20643D01*
X49626Y-20668D01*
X49393Y-20676D01*
X49285D01*
X49235Y-20668D01*
X49168D01*
X49018Y-20651D01*
X48852Y-20627D01*
X48677Y-20593D01*
X48494Y-20543D01*
X48319Y-20477D01*
X48310D01*
X48302Y-20468D01*
X48277Y-20452D01*
X48244Y-20435D01*
X48169Y-20393D01*
X48061Y-20327D01*
X47952Y-20243D01*
X47827Y-20135D01*
X47711Y-20019D01*
X47602Y-19877D01*
Y-19869D01*
X47594Y-19860D01*
X47577Y-19835D01*
X47561Y-19810D01*
X47511Y-19719D01*
X47452Y-19610D01*
X47386Y-19469D01*
X47319Y-19302D01*
X47253Y-19110D01*
X47203Y-18902D01*
Y-18894D01*
X47194Y-18877D01*
Y-18844D01*
X47186Y-18802D01*
X47177Y-18744D01*
X47161Y-18677D01*
X47153Y-18602D01*
X47144Y-18511D01*
X47128Y-18419D01*
X47119Y-18311D01*
X47094Y-18086D01*
X47086Y-17828D01*
X47078Y-17545D01*
Y-17536D01*
Y-17511D01*
Y-17470D01*
Y-17411D01*
Y-17345D01*
X47086Y-17261D01*
Y-17170D01*
X47094Y-17070D01*
X47102Y-16861D01*
X47128Y-16628D01*
X47153Y-16403D01*
X47194Y-16178D01*
Y-16170D01*
X47203Y-16153D01*
X47211Y-16120D01*
X47219Y-16087D01*
X47236Y-16037D01*
X47253Y-15978D01*
X47294Y-15845D01*
X47352Y-15695D01*
X47419Y-15529D01*
X47511Y-15362D01*
X47611Y-15204D01*
Y-15195D01*
X47627Y-15187D01*
X47661Y-15137D01*
X47727Y-15070D01*
X47811Y-14979D01*
X47911Y-14879D01*
X48035Y-14779D01*
X48177Y-14687D01*
X48335Y-14604D01*
X48344D01*
X48352Y-14596D01*
X48377Y-14587D01*
X48410Y-14571D01*
X48460Y-14554D01*
X48510Y-14537D01*
X48635Y-14504D01*
X48785Y-14471D01*
X48968Y-14437D01*
X49168Y-14412D01*
X49393Y-14404D01*
X49502D01*
X49560Y-14412D01*
D02*
G37*
G36*
X44287D02*
X44345D01*
X44504Y-14429D01*
X44670Y-14454D01*
X44853Y-14496D01*
X45037Y-14546D01*
X45203Y-14612D01*
X45212D01*
X45220Y-14621D01*
X45245Y-14637D01*
X45278Y-14654D01*
X45353Y-14696D01*
X45453Y-14762D01*
X45570Y-14854D01*
X45686Y-14954D01*
X45811Y-15079D01*
X45920Y-15220D01*
Y-15229D01*
X45928Y-15237D01*
X45945Y-15262D01*
X45961Y-15295D01*
X46011Y-15379D01*
X46070Y-15495D01*
X46136Y-15637D01*
X46203Y-15803D01*
X46270Y-15995D01*
X46319Y-16203D01*
Y-16212D01*
X46328Y-16228D01*
Y-16262D01*
X46336Y-16303D01*
X46353Y-16362D01*
X46361Y-16428D01*
X46369Y-16503D01*
X46386Y-16587D01*
X46395Y-16687D01*
X46403Y-16786D01*
X46428Y-17011D01*
X46436Y-17270D01*
X46444Y-17545D01*
Y-17553D01*
Y-17578D01*
Y-17619D01*
Y-17678D01*
Y-17744D01*
X46436Y-17819D01*
Y-17911D01*
X46428Y-18003D01*
X46411Y-18219D01*
X46386Y-18444D01*
X46353Y-18686D01*
X46311Y-18911D01*
Y-18919D01*
X46303Y-18936D01*
X46295Y-18969D01*
X46286Y-19011D01*
X46278Y-19060D01*
X46261Y-19119D01*
X46211Y-19252D01*
X46161Y-19402D01*
X46086Y-19569D01*
X46011Y-19727D01*
X45911Y-19885D01*
Y-19894D01*
X45903Y-19902D01*
X45861Y-19952D01*
X45803Y-20019D01*
X45720Y-20102D01*
X45620Y-20202D01*
X45495Y-20302D01*
X45353Y-20393D01*
X45195Y-20477D01*
X45187D01*
X45178Y-20485D01*
X45153Y-20493D01*
X45120Y-20510D01*
X45078Y-20527D01*
X45028Y-20543D01*
X44895Y-20577D01*
X44745Y-20610D01*
X44562Y-20643D01*
X44354Y-20668D01*
X44120Y-20676D01*
X44012D01*
X43962Y-20668D01*
X43896D01*
X43745Y-20651D01*
X43579Y-20627D01*
X43404Y-20593D01*
X43221Y-20543D01*
X43046Y-20477D01*
X43038D01*
X43029Y-20468D01*
X43004Y-20452D01*
X42971Y-20435D01*
X42896Y-20393D01*
X42788Y-20327D01*
X42679Y-20243D01*
X42554Y-20135D01*
X42438Y-20019D01*
X42329Y-19877D01*
Y-19869D01*
X42321Y-19860D01*
X42305Y-19835D01*
X42288Y-19810D01*
X42238Y-19719D01*
X42180Y-19610D01*
X42113Y-19469D01*
X42046Y-19302D01*
X41980Y-19110D01*
X41930Y-18902D01*
Y-18894D01*
X41921Y-18877D01*
Y-18844D01*
X41913Y-18802D01*
X41905Y-18744D01*
X41888Y-18677D01*
X41880Y-18602D01*
X41871Y-18511D01*
X41855Y-18419D01*
X41846Y-18311D01*
X41821Y-18086D01*
X41813Y-17828D01*
X41805Y-17545D01*
Y-17536D01*
Y-17511D01*
Y-17470D01*
Y-17411D01*
Y-17345D01*
X41813Y-17261D01*
Y-17170D01*
X41821Y-17070D01*
X41830Y-16861D01*
X41855Y-16628D01*
X41880Y-16403D01*
X41921Y-16178D01*
Y-16170D01*
X41930Y-16153D01*
X41938Y-16120D01*
X41946Y-16087D01*
X41963Y-16037D01*
X41980Y-15978D01*
X42021Y-15845D01*
X42080Y-15695D01*
X42146Y-15529D01*
X42238Y-15362D01*
X42338Y-15204D01*
Y-15195D01*
X42354Y-15187D01*
X42388Y-15137D01*
X42454Y-15070D01*
X42538Y-14979D01*
X42638Y-14879D01*
X42763Y-14779D01*
X42904Y-14687D01*
X43062Y-14604D01*
X43071D01*
X43079Y-14596D01*
X43104Y-14587D01*
X43137Y-14571D01*
X43187Y-14554D01*
X43237Y-14537D01*
X43362Y-14504D01*
X43512Y-14471D01*
X43696Y-14437D01*
X43896Y-14412D01*
X44120Y-14404D01*
X44229D01*
X44287Y-14412D01*
D02*
G37*
G36*
X39739Y-22043D02*
X38881D01*
X39672Y-18961D01*
X41155D01*
X39739Y-22043D01*
D02*
G37*
%LPC*%
G36*
X100422Y56107D02*
X100222D01*
X100205D01*
X100172D01*
X100113D01*
X100038D01*
X99947Y56099D01*
X99838D01*
X99730Y56090D01*
X99605Y56082D01*
X99339Y56057D01*
X99080Y56024D01*
X98956Y56007D01*
X98847Y55982D01*
X98739Y55949D01*
X98647Y55915D01*
X98639D01*
X98631Y55907D01*
X98572Y55882D01*
X98506Y55832D01*
X98414Y55774D01*
X98331Y55682D01*
X98264Y55582D01*
X98206Y55449D01*
X98197Y55374D01*
X98189Y55299D01*
Y55282D01*
X98197Y55232D01*
X98214Y55149D01*
X98247Y55057D01*
X98297Y54957D01*
X98381Y54857D01*
X98431Y54807D01*
X98497Y54766D01*
X98564Y54716D01*
X98647Y54682D01*
X98656D01*
X98672Y54674D01*
X98697Y54666D01*
X98739Y54657D01*
X98789Y54641D01*
X98847Y54624D01*
X98922Y54607D01*
X99014Y54591D01*
X99114Y54574D01*
X99230Y54557D01*
X99355Y54541D01*
X99497Y54524D01*
X99655Y54516D01*
X99830Y54507D01*
X100022Y54499D01*
X100222D01*
X100230D01*
X100272D01*
X100330D01*
X100405D01*
X100488Y54507D01*
X100596D01*
X100713Y54516D01*
X100830Y54524D01*
X101088Y54541D01*
X101346Y54574D01*
X101471Y54599D01*
X101588Y54624D01*
X101696Y54649D01*
X101788Y54682D01*
X101796D01*
X101804Y54691D01*
X101863Y54716D01*
X101929Y54766D01*
X102013Y54832D01*
X102104Y54916D01*
X102171Y55024D01*
X102229Y55149D01*
X102237Y55224D01*
X102246Y55299D01*
Y55316D01*
X102237Y55374D01*
X102221Y55449D01*
X102188Y55540D01*
X102137Y55640D01*
X102054Y55740D01*
X101996Y55790D01*
X101938Y55840D01*
X101871Y55882D01*
X101788Y55915D01*
X101779D01*
X101763Y55924D01*
X101738Y55932D01*
X101696Y55949D01*
X101646Y55957D01*
X101588Y55974D01*
X101504Y55990D01*
X101421Y56015D01*
X101321Y56032D01*
X101205Y56049D01*
X101080Y56065D01*
X100930Y56073D01*
X100780Y56090D01*
X100605Y56099D01*
X100422Y56107D01*
D02*
G37*
G36*
Y50834D02*
X100222D01*
X100205D01*
X100172D01*
X100113D01*
X100038D01*
X99947Y50826D01*
X99838D01*
X99730Y50817D01*
X99605Y50809D01*
X99339Y50784D01*
X99080Y50751D01*
X98956Y50734D01*
X98847Y50709D01*
X98739Y50676D01*
X98647Y50642D01*
X98639D01*
X98631Y50634D01*
X98572Y50609D01*
X98506Y50559D01*
X98414Y50501D01*
X98331Y50409D01*
X98264Y50309D01*
X98206Y50176D01*
X98197Y50101D01*
X98189Y50026D01*
Y50009D01*
X98197Y49959D01*
X98214Y49876D01*
X98247Y49784D01*
X98297Y49684D01*
X98381Y49584D01*
X98431Y49534D01*
X98497Y49493D01*
X98564Y49443D01*
X98647Y49409D01*
X98656D01*
X98672Y49401D01*
X98697Y49393D01*
X98739Y49384D01*
X98789Y49368D01*
X98847Y49351D01*
X98922Y49334D01*
X99014Y49318D01*
X99114Y49301D01*
X99230Y49284D01*
X99355Y49268D01*
X99497Y49251D01*
X99655Y49243D01*
X99830Y49235D01*
X100022Y49226D01*
X100222D01*
X100230D01*
X100272D01*
X100330D01*
X100405D01*
X100488Y49235D01*
X100596D01*
X100713Y49243D01*
X100830Y49251D01*
X101088Y49268D01*
X101346Y49301D01*
X101471Y49326D01*
X101588Y49351D01*
X101696Y49376D01*
X101788Y49409D01*
X101796D01*
X101804Y49418D01*
X101863Y49443D01*
X101929Y49493D01*
X102013Y49559D01*
X102104Y49643D01*
X102171Y49751D01*
X102229Y49876D01*
X102237Y49951D01*
X102246Y50026D01*
Y50043D01*
X102237Y50101D01*
X102221Y50176D01*
X102188Y50267D01*
X102137Y50367D01*
X102054Y50467D01*
X101996Y50517D01*
X101938Y50567D01*
X101871Y50609D01*
X101788Y50642D01*
X101779D01*
X101763Y50651D01*
X101738Y50659D01*
X101696Y50676D01*
X101646Y50684D01*
X101588Y50701D01*
X101504Y50717D01*
X101421Y50742D01*
X101321Y50759D01*
X101205Y50776D01*
X101080Y50792D01*
X100930Y50801D01*
X100780Y50817D01*
X100605Y50826D01*
X100422Y50834D01*
D02*
G37*
G36*
X100746Y42354D02*
X98697D01*
X100746Y40830D01*
Y42354D01*
D02*
G37*
G36*
X49393Y-15512D02*
X49377D01*
X49327Y-15520D01*
X49243Y-15537D01*
X49152Y-15570D01*
X49052Y-15620D01*
X48952Y-15703D01*
X48902Y-15754D01*
X48860Y-15820D01*
X48810Y-15887D01*
X48777Y-15970D01*
Y-15978D01*
X48768Y-15995D01*
X48760Y-16020D01*
X48752Y-16062D01*
X48735Y-16112D01*
X48719Y-16170D01*
X48702Y-16245D01*
X48685Y-16337D01*
X48669Y-16437D01*
X48652Y-16553D01*
X48635Y-16678D01*
X48619Y-16820D01*
X48610Y-16978D01*
X48602Y-17153D01*
X48594Y-17345D01*
Y-17545D01*
Y-17553D01*
Y-17594D01*
Y-17653D01*
Y-17728D01*
X48602Y-17811D01*
Y-17919D01*
X48610Y-18036D01*
X48619Y-18153D01*
X48635Y-18411D01*
X48669Y-18669D01*
X48694Y-18794D01*
X48719Y-18911D01*
X48744Y-19019D01*
X48777Y-19110D01*
Y-19119D01*
X48785Y-19127D01*
X48810Y-19185D01*
X48860Y-19252D01*
X48927Y-19335D01*
X49010Y-19427D01*
X49118Y-19494D01*
X49243Y-19552D01*
X49318Y-19560D01*
X49393Y-19569D01*
X49410D01*
X49468Y-19560D01*
X49543Y-19544D01*
X49635Y-19510D01*
X49735Y-19460D01*
X49835Y-19377D01*
X49885Y-19319D01*
X49935Y-19260D01*
X49976Y-19194D01*
X50010Y-19110D01*
Y-19102D01*
X50018Y-19085D01*
X50026Y-19060D01*
X50043Y-19019D01*
X50051Y-18969D01*
X50068Y-18911D01*
X50085Y-18827D01*
X50110Y-18744D01*
X50126Y-18644D01*
X50143Y-18527D01*
X50160Y-18402D01*
X50168Y-18252D01*
X50185Y-18103D01*
X50193Y-17928D01*
X50201Y-17744D01*
Y-17545D01*
Y-17528D01*
Y-17494D01*
Y-17436D01*
Y-17361D01*
X50193Y-17270D01*
Y-17161D01*
X50185Y-17053D01*
X50176Y-16928D01*
X50151Y-16661D01*
X50118Y-16403D01*
X50101Y-16278D01*
X50076Y-16170D01*
X50043Y-16062D01*
X50010Y-15970D01*
Y-15962D01*
X50001Y-15953D01*
X49976Y-15895D01*
X49926Y-15829D01*
X49868Y-15737D01*
X49777Y-15653D01*
X49676Y-15587D01*
X49543Y-15529D01*
X49468Y-15520D01*
X49393Y-15512D01*
D02*
G37*
G36*
X44120D02*
X44104D01*
X44054Y-15520D01*
X43971Y-15537D01*
X43879Y-15570D01*
X43779Y-15620D01*
X43679Y-15703D01*
X43629Y-15754D01*
X43587Y-15820D01*
X43537Y-15887D01*
X43504Y-15970D01*
Y-15978D01*
X43496Y-15995D01*
X43487Y-16020D01*
X43479Y-16062D01*
X43462Y-16112D01*
X43446Y-16170D01*
X43429Y-16245D01*
X43412Y-16337D01*
X43396Y-16437D01*
X43379Y-16553D01*
X43362Y-16678D01*
X43346Y-16820D01*
X43337Y-16978D01*
X43329Y-17153D01*
X43321Y-17345D01*
Y-17545D01*
Y-17553D01*
Y-17594D01*
Y-17653D01*
Y-17728D01*
X43329Y-17811D01*
Y-17919D01*
X43337Y-18036D01*
X43346Y-18153D01*
X43362Y-18411D01*
X43396Y-18669D01*
X43421Y-18794D01*
X43446Y-18911D01*
X43471Y-19019D01*
X43504Y-19110D01*
Y-19119D01*
X43512Y-19127D01*
X43537Y-19185D01*
X43587Y-19252D01*
X43654Y-19335D01*
X43737Y-19427D01*
X43845Y-19494D01*
X43971Y-19552D01*
X44045Y-19560D01*
X44120Y-19569D01*
X44137D01*
X44195Y-19560D01*
X44270Y-19544D01*
X44362Y-19510D01*
X44462Y-19460D01*
X44562Y-19377D01*
X44612Y-19319D01*
X44662Y-19260D01*
X44704Y-19194D01*
X44737Y-19110D01*
Y-19102D01*
X44745Y-19085D01*
X44754Y-19060D01*
X44770Y-19019D01*
X44778Y-18969D01*
X44795Y-18911D01*
X44812Y-18827D01*
X44837Y-18744D01*
X44853Y-18644D01*
X44870Y-18527D01*
X44887Y-18402D01*
X44895Y-18252D01*
X44912Y-18103D01*
X44920Y-17928D01*
X44928Y-17744D01*
Y-17545D01*
Y-17528D01*
Y-17494D01*
Y-17436D01*
Y-17361D01*
X44920Y-17270D01*
Y-17161D01*
X44912Y-17053D01*
X44903Y-16928D01*
X44878Y-16661D01*
X44845Y-16403D01*
X44828Y-16278D01*
X44804Y-16170D01*
X44770Y-16062D01*
X44737Y-15970D01*
Y-15962D01*
X44728Y-15953D01*
X44704Y-15895D01*
X44653Y-15829D01*
X44595Y-15737D01*
X44504Y-15653D01*
X44404Y-15587D01*
X44270Y-15529D01*
X44195Y-15520D01*
X44120Y-15512D01*
D02*
G37*
%LPD*%
D11*
X0Y94488D02*
X82677D01*
Y0D02*
Y94488D01*
X0Y0D02*
X82677D01*
X0D02*
Y94488D01*
D32*
X97409Y6000D02*
X99410Y0D01*
X101409Y6000D01*
X99410Y94488D02*
X101409Y88488D01*
X97409D02*
X99410Y94488D01*
Y0D02*
Y33865D01*
Y58623D02*
Y94488D01*
X84071Y0D02*
X100409D01*
X84071Y94488D02*
X100409D01*
X0Y-16732D02*
X6000Y-14732D01*
X0Y-16732D02*
X6000Y-18732D01*
X76677D02*
X82677Y-16732D01*
X76677Y-14732D02*
X82677Y-16732D01*
X0D02*
X27960D01*
X52717D02*
X82677D01*
X0Y-17732D02*
Y-1394D01*
X82677Y-17732D02*
Y-1394D01*
M02*
