G04*
G04 #@! TF.GenerationSoftware,Altium Limited,Altium Designer,19.1.8 (144)*
G04*
G04 Layer_Color=32768*
%FSLAX25Y25*%
%MOIN*%
G70*
G01*
G75*
%ADD47C,0.00394*%
%ADD50C,0.00197*%
D47*
X46358Y30133D02*
X50098D01*
X48228Y28263D02*
Y32003D01*
X41536Y81102D02*
Y83071D01*
X43504D01*
X39567D02*
X41536D01*
Y85039D01*
X73819Y39469D02*
Y43209D01*
X71949Y41339D02*
X75689D01*
X67765Y29495D02*
X71702D01*
X69734Y27526D02*
Y31463D01*
X47850Y43913D02*
Y47850D01*
X45882Y45882D02*
X49819D01*
X11811Y66535D02*
X15748D01*
X13780Y64567D02*
Y68504D01*
D50*
X54134Y27377D02*
Y32889D01*
X42323Y27377D02*
Y32889D01*
Y27377D02*
X54134D01*
X42323Y32889D02*
X54134D01*
X60827Y65354D02*
Y98032D01*
X21851D02*
X60827D01*
X21851Y65354D02*
Y98032D01*
Y65354D02*
X60827D01*
X70866Y36024D02*
X76772D01*
X70866Y46654D02*
X76772D01*
X70866Y36024D02*
Y46654D01*
X76772Y36024D02*
Y46654D01*
X26772Y37402D02*
Y61024D01*
X4724Y37303D02*
X26772D01*
X4724Y37402D02*
Y61024D01*
X26772D01*
X63041Y25754D02*
Y33235D01*
X76427Y25754D02*
Y33235D01*
X63041D02*
X76427D01*
X63041Y25754D02*
X76427D01*
X31315Y35252D02*
X64386D01*
X31315Y56512D02*
X64386D01*
Y35252D02*
Y56512D01*
X31315Y35252D02*
Y56512D01*
X7087Y62795D02*
Y70276D01*
X20472Y62795D02*
Y70276D01*
X7087D02*
X20472D01*
X7087Y62795D02*
X20472D01*
M02*
