G04*
G04 #@! TF.GenerationSoftware,Altium Limited,Altium Designer,19.1.8 (144)*
G04*
G04 Layer_Physical_Order=1*
G04 Layer_Color=255*
%FSLAX25Y25*%
%MOIN*%
G70*
G01*
G75*
%ADD23R,0.03543X0.03150*%
%ADD24R,0.02756X0.05512*%
%ADD25R,0.03150X0.05512*%
%ADD26O,0.03937X0.06299*%
%ADD27R,0.03740X0.03347*%
%ADD28R,0.21654X0.08465*%
%ADD29R,0.05118X0.05512*%
%ADD30O,0.08661X0.03150*%
%ADD31C,0.01968*%
G04:AMPARAMS|DCode=32|XSize=98.43mil|YSize=137.8mil|CornerRadius=49.21mil|HoleSize=0mil|Usage=FLASHONLY|Rotation=90.000|XOffset=0mil|YOffset=0mil|HoleType=Round|Shape=RoundedRectangle|*
%AMROUNDEDRECTD32*
21,1,0.09843,0.03937,0,0,90.0*
21,1,0.00000,0.13780,0,0,90.0*
1,1,0.09843,0.01968,0.00000*
1,1,0.09843,0.01968,0.00000*
1,1,0.09843,-0.01968,0.00000*
1,1,0.09843,-0.01968,0.00000*
%
%ADD32ROUNDEDRECTD32*%
%ADD33C,0.02756*%
G36*
X78706Y12916D02*
X78254Y12702D01*
X78109Y12821D01*
X77080Y13371D01*
X75964Y13710D01*
X74803Y13824D01*
X73335D01*
Y7874D01*
X72835D01*
Y7374D01*
X64965D01*
X65031Y6713D01*
X65369Y5597D01*
X65919Y4568D01*
X66038Y4423D01*
X65825Y3971D01*
X48608D01*
X48394Y4423D01*
X48422Y4457D01*
X48990Y5520D01*
X49340Y6674D01*
X49458Y7874D01*
X49340Y9074D01*
X48990Y10228D01*
X48928Y10345D01*
X52953Y14370D01*
X52953Y14370D01*
X53435Y15092D01*
X53605Y15945D01*
X53605Y15945D01*
Y27358D01*
X54546D01*
Y29758D01*
X57742Y32954D01*
X57742Y32954D01*
X58225Y33677D01*
X58395Y34529D01*
X58395Y34529D01*
Y35583D01*
X61905D01*
X62630Y35678D01*
X63305Y35958D01*
X63884Y36403D01*
X64329Y36982D01*
X64609Y37657D01*
X64704Y38382D01*
X64609Y39106D01*
X64329Y39781D01*
X63884Y40361D01*
X63687Y40512D01*
X63670Y41030D01*
X64040Y41381D01*
X70749D01*
Y35906D01*
X71592D01*
Y33450D01*
X69124D01*
Y33250D01*
X67084D01*
Y29495D01*
Y25739D01*
X69124D01*
Y25539D01*
X76643D01*
Y33450D01*
X76046D01*
Y35906D01*
X76889D01*
Y41024D01*
Y46771D01*
X76046D01*
Y54134D01*
X76046Y54134D01*
X75876Y54986D01*
X75394Y55709D01*
X75394Y55709D01*
X70737Y60365D01*
X70015Y60848D01*
X69162Y61017D01*
X69162Y61017D01*
X53679D01*
X49668Y65028D01*
Y66556D01*
X50019D01*
Y66756D01*
X51784D01*
Y70512D01*
Y74268D01*
X50019D01*
Y74468D01*
X32895D01*
Y74268D01*
X31130D01*
Y70512D01*
Y66756D01*
X32895D01*
Y66556D01*
X33246D01*
Y65168D01*
X33246Y65168D01*
X33415Y64316D01*
X33898Y63594D01*
X34961Y62531D01*
X34961Y62531D01*
X35683Y62048D01*
X36535Y61879D01*
X36536Y61879D01*
X46519D01*
X51182Y57216D01*
X51182Y57216D01*
X51904Y56733D01*
X52756Y56563D01*
X52757Y56563D01*
X55574D01*
X55669Y56085D01*
X54994Y55805D01*
X54414Y55361D01*
X53970Y54781D01*
X53690Y54106D01*
X53595Y53382D01*
X53690Y52657D01*
X53970Y51982D01*
X54414Y51403D01*
X54683Y51197D01*
Y50567D01*
X54414Y50361D01*
X53970Y49781D01*
X53690Y49106D01*
X53595Y48382D01*
X53690Y47657D01*
X53970Y46982D01*
X54414Y46403D01*
X54683Y46197D01*
Y45567D01*
X54414Y45361D01*
X53970Y44781D01*
X53690Y44106D01*
X53595Y43382D01*
X53690Y42657D01*
X53970Y41982D01*
X54414Y41403D01*
X54683Y41197D01*
Y40567D01*
X54414Y40361D01*
X53970Y39781D01*
X53690Y39106D01*
X53595Y38382D01*
X53690Y37657D01*
X53940Y37053D01*
Y35451D01*
X51397Y32908D01*
X48603D01*
Y27358D01*
X49151D01*
Y16867D01*
X45778Y13494D01*
X45661Y13557D01*
X44507Y13907D01*
X43307Y14025D01*
X39370D01*
X38170Y13907D01*
X37017Y13557D01*
X35953Y12988D01*
X35021Y12223D01*
X34256Y11291D01*
X33688Y10228D01*
X33338Y9074D01*
X33220Y7874D01*
X33338Y6674D01*
X33688Y5520D01*
X34256Y4457D01*
X34284Y4423D01*
X34070Y3971D01*
X17111D01*
X16897Y4423D01*
X16925Y4457D01*
X17494Y5520D01*
X17844Y6674D01*
X17962Y7874D01*
X17844Y9074D01*
X17494Y10228D01*
X16925Y11291D01*
X16160Y12223D01*
X15228Y12988D01*
X14165Y13557D01*
X13011Y13907D01*
X11811Y14025D01*
X11282D01*
Y16760D01*
X25268Y30746D01*
X25559Y30721D01*
X25958Y30217D01*
X25947Y30133D01*
X26035Y29460D01*
X26295Y28833D01*
X26708Y28295D01*
X27247Y27881D01*
X27874Y27621D01*
X28547Y27533D01*
X29220Y27621D01*
X29847Y27881D01*
X29879Y27906D01*
X41910D01*
Y27358D01*
X47853D01*
Y32908D01*
X42440D01*
X42233Y33408D01*
X48397Y39572D01*
X48397Y39572D01*
X48880Y40294D01*
X49049Y41146D01*
X49049Y41147D01*
Y45207D01*
X49049Y45208D01*
X48880Y46060D01*
X48397Y46782D01*
X48397Y46782D01*
X44997Y50182D01*
X44274Y50665D01*
X43422Y50835D01*
X43422Y50835D01*
X41367D01*
X41197Y51335D01*
X41286Y51403D01*
X41731Y51982D01*
X42010Y52657D01*
X42106Y53382D01*
X42010Y54106D01*
X41731Y54781D01*
X41286Y55361D01*
X40706Y55805D01*
X40031Y56085D01*
X39307Y56180D01*
X36022D01*
Y57114D01*
X36022Y57114D01*
X35853Y57967D01*
X35370Y58689D01*
X35370Y58689D01*
X29833Y64226D01*
X29828Y64266D01*
X29568Y64894D01*
X29155Y65432D01*
X28616Y65845D01*
X27989Y66105D01*
X27316Y66194D01*
X26643Y66105D01*
X26016Y65845D01*
X25477Y65432D01*
X25064Y64894D01*
X24804Y64266D01*
X24716Y63594D01*
X24804Y62920D01*
X24927Y62625D01*
X24593Y62125D01*
X20798D01*
X20688Y62580D01*
X20688D01*
Y70491D01*
X13170D01*
Y70291D01*
X11130D01*
Y66535D01*
Y62779D01*
X12744D01*
X12853Y62625D01*
X12594Y62125D01*
X3971D01*
Y90517D01*
X22299D01*
X22469Y90017D01*
X22332Y89912D01*
X21856Y89292D01*
X21557Y88570D01*
X21455Y87795D01*
Y87114D01*
X24449D01*
X27443D01*
Y87795D01*
X27341Y88570D01*
X27042Y89292D01*
X26566Y89912D01*
X26430Y90017D01*
X26599Y90517D01*
X56315D01*
X56484Y90017D01*
X56348Y89912D01*
X55872Y89292D01*
X55573Y88570D01*
X55471Y87795D01*
Y87114D01*
X58465D01*
X61459D01*
Y87795D01*
X61357Y88570D01*
X61058Y89292D01*
X60582Y89912D01*
X60445Y90017D01*
X60615Y90517D01*
X78706D01*
Y12916D01*
D02*
G37*
G36*
X32268Y41056D02*
X32277Y41040D01*
X32315Y40612D01*
X32280Y40465D01*
X31959Y40218D01*
X31546Y39680D01*
X31286Y39054D01*
X31264Y38882D01*
X36551D01*
Y37882D01*
X31264D01*
X31286Y37710D01*
X31546Y37083D01*
X31959Y36545D01*
X32497Y36133D01*
X32763Y36022D01*
X32663Y35522D01*
X24668D01*
X23816Y35353D01*
X23093Y34870D01*
X23093Y34870D01*
X7480Y19257D01*
X6998Y18535D01*
X6828Y17682D01*
X6828Y17682D01*
Y13922D01*
X6674Y13907D01*
X5520Y13557D01*
X4457Y12988D01*
X4423Y12960D01*
X3971Y13174D01*
Y36300D01*
X27775D01*
Y41155D01*
X32139D01*
X32268Y41056D01*
D02*
G37*
%LPC*%
G36*
X27443Y86114D02*
X24949D01*
Y82505D01*
X25224Y82541D01*
X25946Y82840D01*
X26566Y83316D01*
X27042Y83936D01*
X27341Y84658D01*
X27443Y85433D01*
Y86114D01*
D02*
G37*
G36*
X57965D02*
X55471D01*
Y85433D01*
X55573Y84658D01*
X55872Y83936D01*
X56348Y83316D01*
X56968Y82840D01*
X57690Y82541D01*
X57965Y82505D01*
Y86114D01*
D02*
G37*
G36*
X61459D02*
X58965D01*
Y82505D01*
X59240Y82541D01*
X59962Y82840D01*
X60582Y83316D01*
X61058Y83936D01*
X61357Y84658D01*
X61459Y85433D01*
Y86114D01*
D02*
G37*
G36*
X23949D02*
X21455D01*
Y85433D01*
X21557Y84658D01*
X21856Y83936D01*
X22332Y83316D01*
X22952Y82840D01*
X23674Y82541D01*
X23949Y82505D01*
Y86114D01*
D02*
G37*
G36*
X24949Y75763D02*
Y72154D01*
X27443D01*
Y72835D01*
X27341Y73610D01*
X27042Y74332D01*
X26566Y74952D01*
X25946Y75428D01*
X25224Y75727D01*
X24949Y75763D01*
D02*
G37*
G36*
X58965Y75763D02*
Y72154D01*
X61459D01*
Y72835D01*
X61357Y73610D01*
X61058Y74332D01*
X60582Y74952D01*
X59962Y75428D01*
X59240Y75727D01*
X58965Y75763D01*
D02*
G37*
G36*
X57965Y75763D02*
X57690Y75727D01*
X56968Y75428D01*
X56348Y74952D01*
X55872Y74332D01*
X55573Y73610D01*
X55471Y72835D01*
Y72154D01*
X57965D01*
Y75763D01*
D02*
G37*
G36*
X23949Y75763D02*
X23674Y75727D01*
X22952Y75428D01*
X22332Y74952D01*
X21856Y74332D01*
X21557Y73610D01*
X21455Y72835D01*
Y72154D01*
X23949D01*
Y75763D01*
D02*
G37*
G36*
X54859Y74268D02*
X52784D01*
Y71012D01*
X54859D01*
Y74268D01*
D02*
G37*
G36*
X30130D02*
X28056D01*
Y71012D01*
X30130D01*
Y74268D01*
D02*
G37*
G36*
X27443Y71153D02*
X24949D01*
Y67544D01*
X25224Y67580D01*
X25946Y67879D01*
X26566Y68355D01*
X27042Y68975D01*
X27341Y69697D01*
X27443Y70472D01*
Y71153D01*
D02*
G37*
G36*
X57965D02*
X55471D01*
Y70472D01*
X55573Y69697D01*
X55872Y68975D01*
X56348Y68355D01*
X56968Y67879D01*
X57690Y67580D01*
X57965Y67544D01*
Y71153D01*
D02*
G37*
G36*
X61459D02*
X58965D01*
Y67544D01*
X59240Y67580D01*
X59962Y67879D01*
X60582Y68355D01*
X61058Y68975D01*
X61357Y69697D01*
X61459Y70472D01*
Y71153D01*
D02*
G37*
G36*
X23949D02*
X21455D01*
Y70472D01*
X21557Y69697D01*
X21856Y68975D01*
X22332Y68355D01*
X22952Y67879D01*
X23674Y67580D01*
X23949Y67544D01*
Y71153D01*
D02*
G37*
G36*
X10130Y70291D02*
X7071D01*
Y67035D01*
X10130D01*
Y70291D01*
D02*
G37*
G36*
X54859Y70012D02*
X52784D01*
Y66756D01*
X54859D01*
Y70012D01*
D02*
G37*
G36*
X30130D02*
X28056D01*
Y66756D01*
X30130D01*
Y70012D01*
D02*
G37*
G36*
X10130Y66035D02*
X7071D01*
Y62779D01*
X10130D01*
Y66035D01*
D02*
G37*
G36*
X66084Y33250D02*
X63025D01*
Y29994D01*
X66084D01*
Y33250D01*
D02*
G37*
G36*
Y28995D02*
X63025D01*
Y25739D01*
X66084D01*
Y28995D01*
D02*
G37*
G36*
X72335Y13824D02*
X70866D01*
X69705Y13710D01*
X68589Y13371D01*
X67561Y12821D01*
X66659Y12081D01*
X65919Y11180D01*
X65369Y10151D01*
X65031Y9035D01*
X64965Y8374D01*
X72335D01*
Y13824D01*
D02*
G37*
%LPD*%
D23*
X51575Y30133D02*
D03*
X44882D02*
D03*
D24*
X35473Y70512D02*
D03*
X39489D02*
D03*
X43426D02*
D03*
X47441D02*
D03*
D25*
X30630D02*
D03*
X52284D02*
D03*
D26*
X58465Y86614D02*
D03*
D03*
X24449D02*
D03*
Y71653D02*
D03*
X58465D02*
D03*
D27*
X73819Y38780D02*
D03*
Y43898D02*
D03*
D28*
X15748Y56693D02*
D03*
Y41732D02*
D03*
D29*
X66584Y29495D02*
D03*
X72883D02*
D03*
X10630Y66535D02*
D03*
X16929D02*
D03*
D30*
X59149Y38382D02*
D03*
Y43382D02*
D03*
Y48382D02*
D03*
Y53382D02*
D03*
X36551Y38382D02*
D03*
Y43382D02*
D03*
Y48382D02*
D03*
Y53382D02*
D03*
D31*
X30428Y48608D02*
X43422D01*
X7874Y7874D02*
X9055Y9055D01*
Y17682D02*
X24668Y33295D01*
X9055Y9055D02*
Y17682D01*
X43422Y48608D02*
X46822Y45208D01*
X33795Y53382D02*
Y57114D01*
X51378Y30133D02*
X51772D01*
X56713Y38382D02*
X59149D01*
X56168Y37836D02*
X56713Y38382D01*
X56168Y34529D02*
Y37836D01*
X51772Y30133D02*
X56168Y34529D01*
X68675Y53372D02*
X68685Y53363D01*
X59159Y53372D02*
X68675D01*
X59149Y53382D02*
X59159Y53372D01*
X59149Y48382D02*
X59165Y48397D01*
X59149Y43382D02*
X59360Y43592D01*
X69874Y48390D02*
X69882Y48397D01*
X59157Y48390D02*
X69874D01*
X59149Y48382D02*
X59157Y48390D01*
X22343Y56693D02*
X30428Y48608D01*
X15748Y56693D02*
X22343D01*
X59149Y43382D02*
X59375Y43608D01*
X73529D01*
X73819Y43898D01*
X17397Y43382D02*
X36551D01*
X15748Y41732D02*
X17397Y43382D01*
X46822Y41146D02*
Y45208D01*
X38971Y33295D02*
X46822Y41146D01*
X24668Y33295D02*
X38971D01*
X30130Y38366D02*
X30138Y38374D01*
X36543D02*
X36551Y38382D01*
X27316Y63594D02*
X33795Y57114D01*
Y53382D02*
X36551D01*
X16929Y57874D02*
Y66535D01*
X15748Y56693D02*
X16929Y57874D01*
X73819Y30430D02*
Y38780D01*
X72883Y29495D02*
X73819Y30430D01*
X35473Y65168D02*
Y70512D01*
Y65168D02*
X36535Y64106D01*
X47441D01*
X52756Y58790D02*
X69162D01*
X73819Y43898D02*
Y54134D01*
X69162Y58790D02*
X73819Y54134D01*
X47441Y64106D02*
X52756Y58790D01*
X51378Y15945D02*
Y30133D01*
X43307Y7874D02*
X51378Y15945D01*
X41339Y7874D02*
X43307D01*
X28547Y30133D02*
X44882D01*
X47441Y64106D02*
Y70512D01*
D32*
X9843Y7874D02*
D03*
X72835D02*
D03*
X41339D02*
D03*
D33*
X27316Y63594D02*
D03*
X30130Y38366D02*
D03*
X69882Y48397D02*
D03*
X68685Y53363D02*
D03*
X41339Y23209D02*
D03*
X60709Y22047D02*
D03*
X64688Y16929D02*
D03*
X12196Y32180D02*
D03*
X22469Y24558D02*
D03*
X17717Y20209D02*
D03*
X7874Y25539D02*
D03*
X72394Y22047D02*
D03*
X71720Y74268D02*
D03*
X71858Y80709D02*
D03*
X63025D02*
D03*
X19791D02*
D03*
X9055D02*
D03*
X54859Y7374D02*
D03*
X61417D02*
D03*
X57939Y12702D02*
D03*
X20052Y7374D02*
D03*
X27575D02*
D03*
X23674Y12702D02*
D03*
X28547Y30133D02*
D03*
M02*
