G04*
G04 #@! TF.GenerationSoftware,Altium Limited,Altium Designer,19.1.8 (144)*
G04*
G04 Layer_Color=255*
%FSLAX25Y25*%
%MOIN*%
G70*
G01*
G75*
%ADD23R,0.03543X0.03150*%
%ADD24R,0.02756X0.05512*%
%ADD25R,0.03150X0.05512*%
%ADD26O,0.03937X0.06299*%
%ADD27R,0.03740X0.03347*%
%ADD28R,0.21654X0.08465*%
%ADD29R,0.05118X0.05512*%
%ADD30O,0.08661X0.03150*%
G04:AMPARAMS|DCode=32|XSize=98.43mil|YSize=137.8mil|CornerRadius=49.21mil|HoleSize=0mil|Usage=FLASHONLY|Rotation=90.000|XOffset=0mil|YOffset=0mil|HoleType=Round|Shape=RoundedRectangle|*
%AMROUNDEDRECTD32*
21,1,0.09843,0.03937,0,0,90.0*
21,1,0.00000,0.13780,0,0,90.0*
1,1,0.09843,0.01968,0.00000*
1,1,0.09843,0.01968,0.00000*
1,1,0.09843,-0.01968,0.00000*
1,1,0.09843,-0.01968,0.00000*
%
%ADD32ROUNDEDRECTD32*%
D23*
X51575Y30133D02*
D03*
X44882D02*
D03*
D24*
X35473Y70512D02*
D03*
X39489D02*
D03*
X43426D02*
D03*
X47441D02*
D03*
D25*
X30630D02*
D03*
X52284D02*
D03*
D26*
X58465Y86614D02*
D03*
D03*
X24449D02*
D03*
Y71653D02*
D03*
X58465D02*
D03*
D27*
X73819Y38780D02*
D03*
Y43898D02*
D03*
D28*
X15748Y56693D02*
D03*
Y41732D02*
D03*
D29*
X66584Y29495D02*
D03*
X72883D02*
D03*
X10630Y66535D02*
D03*
X16929D02*
D03*
D30*
X59149Y38382D02*
D03*
Y43382D02*
D03*
Y48382D02*
D03*
Y53382D02*
D03*
X36551Y38382D02*
D03*
Y43382D02*
D03*
Y48382D02*
D03*
Y53382D02*
D03*
D32*
X9843Y7874D02*
D03*
X72835D02*
D03*
X41339D02*
D03*
M02*
