G04*
G04 #@! TF.GenerationSoftware,Altium Limited,Altium Designer,19.1.8 (144)*
G04*
G04 Layer_Color=0*
%FSLAX25Y25*%
%MOIN*%
G70*
G01*
G75*
%ADD11C,0.00787*%
%ADD45C,0.00600*%
%ADD47C,0.00394*%
%ADD50C,0.00197*%
G36*
X33439Y28835D02*
X29889D01*
Y18409D01*
X33439D01*
Y15622D01*
X49239D01*
Y18409D01*
X52789D01*
Y28835D01*
X49239D01*
Y31622D01*
X33439D01*
Y28835D01*
D02*
G37*
D11*
X1969Y43775D02*
Y49680D01*
Y43775D02*
X80709D01*
Y98893D01*
X1969D02*
X80709D01*
X1969Y49680D02*
Y98893D01*
D45*
X29889Y18409D02*
Y28835D01*
Y18409D02*
X33439D01*
X49239D02*
X52789D01*
Y28835D01*
X49239D02*
X52789D01*
X29889D02*
X33439D01*
Y31622D01*
Y15622D02*
Y18409D01*
Y15622D02*
X49239D01*
Y18409D01*
Y28835D02*
Y31622D01*
X33439D02*
X49239D01*
D47*
X19291Y45276D02*
Y49213D01*
X17323Y47244D02*
X21260D01*
X10236Y45276D02*
Y49213D01*
X8268Y47244D02*
X12205D01*
D50*
X15551Y40551D02*
X23031D01*
X15551Y53937D02*
X23031D01*
Y40551D02*
Y53937D01*
X15551Y40551D02*
Y53937D01*
X6496Y40551D02*
X13976D01*
X6496Y53937D02*
X13976D01*
Y40551D02*
Y53937D01*
X6496Y40551D02*
Y53937D01*
M02*
