G04*
G04 #@! TF.GenerationSoftware,Altium Limited,Altium Designer,19.1.8 (144)*
G04*
G04 Layer_Color=255*
%FSLAX25Y25*%
%MOIN*%
G70*
G01*
G75*
%ADD21R,0.09894X0.13394*%
%ADD46R,0.03150X0.03543*%
%ADD47O,0.03937X0.06299*%
%ADD48R,0.03150X0.05512*%
%ADD49R,0.02756X0.05512*%
%ADD50R,0.09500X0.13000*%
G04:AMPARAMS|DCode=51|XSize=77.56mil|YSize=23.62mil|CornerRadius=2.95mil|HoleSize=0mil|Usage=FLASHONLY|Rotation=180.000|XOffset=0mil|YOffset=0mil|HoleType=Round|Shape=RoundedRectangle|*
%AMROUNDEDRECTD51*
21,1,0.07756,0.01772,0,0,180.0*
21,1,0.07165,0.02362,0,0,180.0*
1,1,0.00591,-0.03583,0.00886*
1,1,0.00591,0.03583,0.00886*
1,1,0.00591,0.03583,-0.00886*
1,1,0.00591,-0.03583,-0.00886*
%
%ADD51ROUNDEDRECTD51*%
%ADD52R,0.06890X0.02559*%
%ADD53R,0.03937X0.03150*%
%ADD54R,0.03937X0.01181*%
G04:AMPARAMS|DCode=55|XSize=23.62mil|YSize=94.49mil|CornerRadius=0mil|HoleSize=0mil|Usage=FLASHONLY|Rotation=135.000|XOffset=0mil|YOffset=0mil|HoleType=Round|Shape=Rectangle|*
%AMROTATEDRECTD55*
4,1,4,0.04176,0.02506,-0.02506,-0.04176,-0.04176,-0.02506,0.02506,0.04176,0.04176,0.02506,0.0*
%
%ADD55ROTATEDRECTD55*%

G04:AMPARAMS|DCode=56|XSize=62.99mil|YSize=94.49mil|CornerRadius=0mil|HoleSize=0mil|Usage=FLASHONLY|Rotation=315.000|XOffset=0mil|YOffset=0mil|HoleType=Round|Shape=Rectangle|*
%AMROTATEDRECTD56*
4,1,4,-0.05568,-0.01114,0.01114,0.05568,0.05568,0.01114,-0.01114,-0.05568,-0.05568,-0.01114,0.0*
%
%ADD56ROTATEDRECTD56*%

%ADD57R,0.02559X0.03150*%
%ADD58R,0.07087X0.08780*%
%ADD59R,0.05512X0.05118*%
%ADD60O,0.08661X0.03150*%
%ADD61R,0.08780X0.07087*%
%ADD62R,0.06299X0.09449*%
%ADD63R,0.02362X0.09449*%
G04:AMPARAMS|DCode=64|XSize=23.62mil|YSize=94.49mil|CornerRadius=0mil|HoleSize=0mil|Usage=FLASHONLY|Rotation=225.000|XOffset=0mil|YOffset=0mil|HoleType=Round|Shape=Rectangle|*
%AMROTATEDRECTD64*
4,1,4,-0.02506,0.04176,0.04176,-0.02506,0.02506,-0.04176,-0.04176,0.02506,-0.02506,0.04176,0.0*
%
%ADD64ROTATEDRECTD64*%

G04:AMPARAMS|DCode=65|XSize=62.99mil|YSize=94.49mil|CornerRadius=0mil|HoleSize=0mil|Usage=FLASHONLY|Rotation=45.000|XOffset=0mil|YOffset=0mil|HoleType=Round|Shape=Rectangle|*
%AMROTATEDRECTD65*
4,1,4,0.01114,-0.05568,-0.05568,0.01114,-0.01114,0.05568,0.05568,-0.01114,0.01114,-0.05568,0.0*
%
%ADD65ROTATEDRECTD65*%

%ADD66R,0.03543X0.03150*%
G04:AMPARAMS|DCode=76|XSize=98.43mil|YSize=137.8mil|CornerRadius=49.21mil|HoleSize=0mil|Usage=FLASHONLY|Rotation=0.000|XOffset=0mil|YOffset=0mil|HoleType=Round|Shape=RoundedRectangle|*
%AMROUNDEDRECTD76*
21,1,0.09843,0.03937,0,0,0.0*
21,1,0.00000,0.13780,0,0,0.0*
1,1,0.09843,0.00000,-0.01968*
1,1,0.09843,0.00000,-0.01968*
1,1,0.09843,0.00000,0.01968*
1,1,0.09843,0.00000,0.01968*
%
%ADD76ROUNDEDRECTD76*%
G04:AMPARAMS|DCode=77|XSize=60mil|YSize=70mil|CornerRadius=0mil|HoleSize=0mil|Usage=FLASHONLY|Rotation=270.000|XOffset=0mil|YOffset=0mil|HoleType=Round|Shape=Octagon|*
%AMOCTAGOND77*
4,1,8,0.03500,0.01500,0.03500,-0.01500,0.02000,-0.03000,-0.02000,-0.03000,-0.03500,-0.01500,-0.03500,0.01500,-0.02000,0.03000,0.02000,0.03000,0.03500,0.01500,0.0*
%
%ADD77OCTAGOND77*%

%ADD78C,0.05906*%
D21*
X5630Y155709D02*
D03*
D46*
X26890Y141142D02*
D03*
Y147835D02*
D03*
X57774Y211795D02*
D03*
Y218488D02*
D03*
X31496Y106422D02*
D03*
Y99730D02*
D03*
X15354Y253937D02*
D03*
Y247244D02*
D03*
D47*
X56378Y256260D02*
D03*
Y241299D02*
D03*
X22362D02*
D03*
Y256260D02*
D03*
X56378D02*
D03*
D48*
X50197Y240158D02*
D03*
X28543D02*
D03*
D49*
X45354D02*
D03*
X41339D02*
D03*
X37402D02*
D03*
X33386D02*
D03*
D50*
X38701Y214426D02*
D03*
D51*
X28957Y206926D02*
D03*
Y211926D02*
D03*
Y216926D02*
D03*
Y221926D02*
D03*
X48445D02*
D03*
Y216926D02*
D03*
Y211926D02*
D03*
Y206926D02*
D03*
D52*
X13091Y130785D02*
D03*
Y125785D02*
D03*
Y120785D02*
D03*
Y115785D02*
D03*
X41634D02*
D03*
Y120785D02*
D03*
Y125785D02*
D03*
Y130785D02*
D03*
D53*
X49985Y152796D02*
D03*
Y157087D02*
D03*
D54*
X64355Y151812D02*
D03*
Y153898D02*
D03*
Y158071D02*
D03*
D55*
X-9186Y229923D02*
D03*
X83005Y30184D02*
D03*
D56*
X-13780Y234517D02*
D03*
X87598Y25591D02*
D03*
D57*
X3543Y253937D02*
D03*
Y248031D02*
D03*
X6890Y253937D02*
D03*
Y248031D02*
D03*
D58*
X9843Y103325D02*
D03*
X21339D02*
D03*
D59*
X74803Y130671D02*
D03*
Y124372D02*
D03*
X71330Y151639D02*
D03*
Y157938D02*
D03*
X16340Y215650D02*
D03*
Y221949D02*
D03*
X65748Y130671D02*
D03*
Y124372D02*
D03*
D60*
X-5669Y163209D02*
D03*
Y158209D02*
D03*
Y153209D02*
D03*
Y148209D02*
D03*
X16929Y163209D02*
D03*
Y158209D02*
D03*
Y153209D02*
D03*
Y148209D02*
D03*
D61*
X54331Y119525D02*
D03*
Y131021D02*
D03*
X38701Y155157D02*
D03*
Y143661D02*
D03*
D62*
X-68839Y174803D02*
D03*
X-68839Y93248D02*
D03*
X150256Y93642D02*
D03*
X150256Y175197D02*
D03*
D63*
X-62343Y174803D02*
D03*
X-62343Y93248D02*
D03*
X143760Y93642D02*
D03*
X143760Y175197D02*
D03*
D64*
X-6058Y29118D02*
D03*
X86614Y230989D02*
D03*
D65*
X-10652Y24525D02*
D03*
X91208Y235582D02*
D03*
D66*
X9647Y139496D02*
D03*
X16340D02*
D03*
X-4470D02*
D03*
X2222D02*
D03*
X-5341Y130785D02*
D03*
X1352D02*
D03*
X-5315Y117091D02*
D03*
X1378D02*
D03*
X1352Y122982D02*
D03*
X-5341D02*
D03*
X54331Y143701D02*
D03*
X61024D02*
D03*
X28150Y230989D02*
D03*
X34843D02*
D03*
X47835Y230989D02*
D03*
X41142D02*
D03*
D76*
X147638Y131890D02*
D03*
X-66929D02*
D03*
D77*
X67698Y86360D02*
D03*
X57698D02*
D03*
X67698Y96360D02*
D03*
X57698D02*
D03*
X67698Y106360D02*
D03*
X57698D02*
D03*
D78*
X27559Y23130D02*
D03*
X55118D02*
D03*
X32480Y13287D02*
D03*
X50197D02*
D03*
M02*
