G04*
G04 #@! TF.GenerationSoftware,Altium Limited,Altium Designer,19.1.8 (144)*
G04*
G04 Layer_Color=16711935*
%FSLAX25Y25*%
%MOIN*%
G70*
G01*
G75*
%ADD18O,0.04331X0.06693*%
G04:AMPARAMS|DCode=42|XSize=102.36mil|YSize=141.73mil|CornerRadius=51.18mil|HoleSize=0mil|Usage=FLASHONLY|Rotation=0.000|XOffset=0mil|YOffset=0mil|HoleType=Round|Shape=RoundedRectangle|*
%AMROUNDEDRECTD42*
21,1,0.10236,0.03937,0,0,0.0*
21,1,0.00000,0.14173,0,0,0.0*
1,1,0.10236,0.00000,-0.01968*
1,1,0.10236,0.00000,-0.01968*
1,1,0.10236,0.00000,0.01968*
1,1,0.10236,0.00000,0.01968*
%
%ADD42ROUNDEDRECTD42*%
G04:AMPARAMS|DCode=43|XSize=63.94mil|YSize=73.94mil|CornerRadius=0mil|HoleSize=0mil|Usage=FLASHONLY|Rotation=270.000|XOffset=0mil|YOffset=0mil|HoleType=Round|Shape=Octagon|*
%AMOCTAGOND43*
4,1,8,0.03697,0.01598,0.03697,-0.01598,0.02098,-0.03197,-0.02098,-0.03197,-0.03697,-0.01598,-0.03697,0.01598,-0.02098,0.03197,0.02098,0.03197,0.03697,0.01598,0.0*
%
%ADD43OCTAGOND43*%

%ADD44C,0.06299*%
%ADD45C,0.03150*%
D18*
X56378Y241299D02*
D03*
X22362D02*
D03*
Y256260D02*
D03*
X56378D02*
D03*
D42*
X147638Y131890D02*
D03*
X-66929D02*
D03*
D43*
X67698Y86360D02*
D03*
X57698D02*
D03*
X67698Y96360D02*
D03*
X57698D02*
D03*
X67698Y106360D02*
D03*
X57698D02*
D03*
D44*
X27559Y23130D02*
D03*
X55118D02*
D03*
X32480Y13287D02*
D03*
X50197D02*
D03*
D45*
X149606Y186024D02*
D03*
Y164608D02*
D03*
X98425Y226716D02*
D03*
X82677Y243110D02*
D03*
X-21654Y225394D02*
D03*
X-4921Y241929D02*
D03*
X95472Y34449D02*
D03*
X78740Y18108D02*
D03*
X147638Y104331D02*
D03*
Y82677D02*
D03*
X-66929Y162402D02*
D03*
Y186024D02*
D03*
Y105315D02*
D03*
Y81693D02*
D03*
X-18701Y32480D02*
D03*
X-2953Y16732D02*
D03*
X23346Y230746D02*
D03*
X71856Y164608D02*
D03*
X56378D02*
D03*
X38701Y136811D02*
D03*
X5906Y112205D02*
D03*
X984Y106299D02*
D03*
X8928Y170276D02*
D03*
X2870D02*
D03*
X82968Y140009D02*
D03*
X52027Y226716D02*
D03*
X8123Y211117D02*
D03*
X80709Y158465D02*
D03*
X31496Y94488D02*
D03*
X8123Y219029D02*
D03*
X-21654Y131890D02*
D03*
X16732Y170276D02*
D03*
X33465Y125785D02*
D03*
X7382Y241929D02*
D03*
X3543Y241929D02*
D03*
X22362Y211926D02*
D03*
Y216784D02*
D03*
X43307Y111221D02*
D03*
X22638Y128737D02*
D03*
M02*
