G04*
G04 #@! TF.GenerationSoftware,Altium Limited,Altium Designer,19.1.8 (144)*
G04*
G04 Layer_Physical_Order=1*
G04 Layer_Color=255*
%FSLAX25Y25*%
%MOIN*%
G70*
G01*
G75*
%ADD11C,0.01000*%
%ADD21R,0.09894X0.13394*%
%ADD46R,0.03150X0.03543*%
%ADD47O,0.03937X0.06299*%
%ADD48R,0.03150X0.05512*%
%ADD49R,0.02756X0.05512*%
%ADD50R,0.09500X0.13000*%
G04:AMPARAMS|DCode=51|XSize=77.56mil|YSize=23.62mil|CornerRadius=2.95mil|HoleSize=0mil|Usage=FLASHONLY|Rotation=180.000|XOffset=0mil|YOffset=0mil|HoleType=Round|Shape=RoundedRectangle|*
%AMROUNDEDRECTD51*
21,1,0.07756,0.01772,0,0,180.0*
21,1,0.07165,0.02362,0,0,180.0*
1,1,0.00591,-0.03583,0.00886*
1,1,0.00591,0.03583,0.00886*
1,1,0.00591,0.03583,-0.00886*
1,1,0.00591,-0.03583,-0.00886*
%
%ADD51ROUNDEDRECTD51*%
%ADD52R,0.06890X0.02559*%
%ADD53R,0.03937X0.03150*%
%ADD54R,0.03937X0.01181*%
G04:AMPARAMS|DCode=55|XSize=23.62mil|YSize=94.49mil|CornerRadius=0mil|HoleSize=0mil|Usage=FLASHONLY|Rotation=135.000|XOffset=0mil|YOffset=0mil|HoleType=Round|Shape=Rectangle|*
%AMROTATEDRECTD55*
4,1,4,0.04176,0.02506,-0.02506,-0.04176,-0.04176,-0.02506,0.02506,0.04176,0.04176,0.02506,0.0*
%
%ADD55ROTATEDRECTD55*%

G04:AMPARAMS|DCode=56|XSize=62.99mil|YSize=94.49mil|CornerRadius=0mil|HoleSize=0mil|Usage=FLASHONLY|Rotation=315.000|XOffset=0mil|YOffset=0mil|HoleType=Round|Shape=Rectangle|*
%AMROTATEDRECTD56*
4,1,4,-0.05568,-0.01114,0.01114,0.05568,0.05568,0.01114,-0.01114,-0.05568,-0.05568,-0.01114,0.0*
%
%ADD56ROTATEDRECTD56*%

%ADD57R,0.02559X0.03150*%
%ADD58R,0.07087X0.08780*%
%ADD59R,0.05512X0.05118*%
%ADD60O,0.08661X0.03150*%
%ADD61R,0.08780X0.07087*%
%ADD62R,0.06299X0.09449*%
%ADD63R,0.02362X0.09449*%
G04:AMPARAMS|DCode=64|XSize=23.62mil|YSize=94.49mil|CornerRadius=0mil|HoleSize=0mil|Usage=FLASHONLY|Rotation=225.000|XOffset=0mil|YOffset=0mil|HoleType=Round|Shape=Rectangle|*
%AMROTATEDRECTD64*
4,1,4,-0.02506,0.04176,0.04176,-0.02506,0.02506,-0.04176,-0.04176,0.02506,-0.02506,0.04176,0.0*
%
%ADD64ROTATEDRECTD64*%

G04:AMPARAMS|DCode=65|XSize=62.99mil|YSize=94.49mil|CornerRadius=0mil|HoleSize=0mil|Usage=FLASHONLY|Rotation=45.000|XOffset=0mil|YOffset=0mil|HoleType=Round|Shape=Rectangle|*
%AMROTATEDRECTD65*
4,1,4,0.01114,-0.05568,-0.05568,0.01114,-0.01114,0.05568,0.05568,-0.01114,0.01114,-0.05568,0.0*
%
%ADD65ROTATEDRECTD65*%

%ADD66R,0.03543X0.03150*%
%ADD67C,0.02756*%
%ADD68C,0.01299*%
%ADD69C,0.02126*%
%ADD70C,0.03937*%
%ADD71C,0.01968*%
%ADD72C,0.01063*%
G04:AMPARAMS|DCode=73|XSize=13.78mil|YSize=19.68mil|CornerRadius=0mil|HoleSize=0mil|Usage=FLASHONLY|Rotation=315.000|XOffset=0mil|YOffset=0mil|HoleType=Round|Shape=Rectangle|*
%AMROTATEDRECTD73*
4,1,4,-0.01183,-0.00209,0.00209,0.01183,0.01183,0.00209,-0.00209,-0.01183,-0.01183,-0.00209,0.0*
%
%ADD73ROTATEDRECTD73*%

%ADD74R,0.01378X0.01968*%
G04:AMPARAMS|DCode=75|XSize=13.78mil|YSize=19.68mil|CornerRadius=0mil|HoleSize=0mil|Usage=FLASHONLY|Rotation=45.000|XOffset=0mil|YOffset=0mil|HoleType=Round|Shape=Rectangle|*
%AMROTATEDRECTD75*
4,1,4,0.00209,-0.01183,-0.01183,0.00209,-0.00209,0.01183,0.01183,-0.00209,0.00209,-0.01183,0.0*
%
%ADD75ROTATEDRECTD75*%

G04:AMPARAMS|DCode=76|XSize=98.43mil|YSize=137.8mil|CornerRadius=49.21mil|HoleSize=0mil|Usage=FLASHONLY|Rotation=0.000|XOffset=0mil|YOffset=0mil|HoleType=Round|Shape=RoundedRectangle|*
%AMROUNDEDRECTD76*
21,1,0.09843,0.03937,0,0,0.0*
21,1,0.00000,0.13780,0,0,0.0*
1,1,0.09843,0.00000,-0.01968*
1,1,0.09843,0.00000,-0.01968*
1,1,0.09843,0.00000,0.01968*
1,1,0.09843,0.00000,0.01968*
%
%ADD76ROUNDEDRECTD76*%
G04:AMPARAMS|DCode=77|XSize=60mil|YSize=70mil|CornerRadius=0mil|HoleSize=0mil|Usage=FLASHONLY|Rotation=270.000|XOffset=0mil|YOffset=0mil|HoleType=Round|Shape=Octagon|*
%AMOCTAGOND77*
4,1,8,0.03500,0.01500,0.03500,-0.01500,0.02000,-0.03000,-0.02000,-0.03000,-0.03500,-0.01500,-0.03500,0.01500,-0.02000,0.03000,0.02000,0.03000,0.03500,0.01500,0.0*
%
%ADD77OCTAGOND77*%

%ADD78C,0.05906*%
%ADD79C,0.02756*%
G36*
X81864Y258768D02*
X88262Y256466D01*
X94535Y253843D01*
X100666Y250905D01*
X106641Y247658D01*
X112442Y244113D01*
X118056Y240278D01*
X123469Y236163D01*
X128665Y231778D01*
X133632Y227135D01*
X138357Y222246D01*
X142828Y217123D01*
X147032Y211780D01*
X150960Y206230D01*
X154601Y200488D01*
X157946Y194569D01*
X160986Y188487D01*
X163714Y182259D01*
X166121Y175900D01*
X168203Y169428D01*
X169953Y162858D01*
X171368Y156207D01*
X172442Y149494D01*
X173175Y142734D01*
X173179Y142670D01*
X172112Y142201D01*
X171785Y142003D01*
X171445Y141827D01*
X170200Y140963D01*
X169917Y140706D01*
X169617Y140468D01*
X168560Y139381D01*
X168332Y139075D01*
X168083Y138784D01*
X167254Y137515D01*
X167088Y137170D01*
X166900Y136837D01*
X166329Y135432D01*
X166233Y135062D01*
X166112Y134700D01*
X165821Y133212D01*
X165797Y132830D01*
X165747Y132451D01*
Y130935D01*
X165797Y130556D01*
X165821Y130174D01*
X166112Y128686D01*
X166233Y128323D01*
X166329Y127953D01*
X166900Y126549D01*
X167088Y126216D01*
X167254Y125871D01*
X168083Y124602D01*
X168332Y124311D01*
X168560Y124005D01*
X169617Y122917D01*
X169917Y122680D01*
X170200Y122423D01*
X171445Y121558D01*
X171785Y121383D01*
X172112Y121185D01*
X173179Y120716D01*
X173175Y120652D01*
X172442Y113892D01*
X171368Y107178D01*
X169953Y100528D01*
X168203Y93958D01*
X166121Y87485D01*
X163714Y81127D01*
X160986Y74899D01*
X157946Y68817D01*
X154601Y62897D01*
X150960Y57156D01*
X147032Y51606D01*
X142828Y46262D01*
X138357Y41140D01*
X133632Y36251D01*
X128665Y31608D01*
X123469Y27223D01*
X118056Y23108D01*
X112442Y19272D01*
X106640Y15727D01*
X100666Y12481D01*
X94535Y9543D01*
X88262Y6919D01*
X81864Y4618D01*
X79175Y3802D01*
X353Y3802D01*
X-2337Y4618D01*
X-8734Y6919D01*
X-15007Y9543D01*
X-21138Y12481D01*
X-27113Y15727D01*
X-32915Y19272D01*
X-38529Y23108D01*
X-43941Y27223D01*
X-49137Y31607D01*
X-54105Y36250D01*
X-58830Y41140D01*
X-63300Y46262D01*
X-67505Y51605D01*
X-71433Y57156D01*
X-75074Y62897D01*
X-78419Y68817D01*
X-81459Y74899D01*
X-84186Y81127D01*
X-86594Y87485D01*
X-88675Y93958D01*
X-90426Y100528D01*
X-91840Y107179D01*
X-92915Y113892D01*
X-93648Y120652D01*
X-93651Y120716D01*
X-92585Y121185D01*
X-92257Y121383D01*
X-91918Y121558D01*
X-90672Y122423D01*
X-90389Y122680D01*
X-90089Y122917D01*
X-89033Y124005D01*
X-88804Y124311D01*
X-88555Y124602D01*
X-87726Y125871D01*
X-87561Y126216D01*
X-87372Y126549D01*
X-86802Y127953D01*
X-86705Y128323D01*
X-86584Y128686D01*
X-86294Y130174D01*
X-86270Y130556D01*
X-86220Y130935D01*
Y132451D01*
X-86270Y132830D01*
X-86294Y133212D01*
X-86584Y134700D01*
X-86706Y135063D01*
X-86802Y135432D01*
X-87372Y136837D01*
X-87561Y137170D01*
X-87726Y137515D01*
X-88555Y138784D01*
X-88804Y139075D01*
X-89033Y139381D01*
X-90089Y140468D01*
X-90389Y140706D01*
X-90672Y140963D01*
X-91918Y141827D01*
X-92257Y142003D01*
X-92585Y142201D01*
X-93651Y142670D01*
X-93648Y142734D01*
X-92915Y149494D01*
X-91840Y156207D01*
X-90426Y162858D01*
X-88675Y169428D01*
X-86594Y175900D01*
X-84186Y182259D01*
X-81459Y188487D01*
X-78419Y194569D01*
X-75074Y200488D01*
X-71433Y206230D01*
X-67505Y211780D01*
X-63300Y217123D01*
X-58830Y222246D01*
X-54105Y227135D01*
X-49138Y231778D01*
X-43941Y236163D01*
X-38529Y240278D01*
X-32915Y244113D01*
X-27113Y247658D01*
X-21138Y250905D01*
X-15007Y253843D01*
X-8734Y256466D01*
X-2337Y258768D01*
X353Y259584D01*
X79175D01*
X81864Y258768D01*
D02*
G37*
%LPC*%
G36*
X18129Y256909D02*
X12580D01*
Y255823D01*
X9369D01*
Y256712D01*
X1064D01*
Y251306D01*
X1064Y251162D01*
Y250806D01*
X1064Y250662D01*
Y245257D01*
X1657D01*
Y243706D01*
X1292Y243229D01*
X1032Y242602D01*
X943Y241929D01*
X1032Y241256D01*
X1292Y240629D01*
X1705Y240090D01*
X2243Y239677D01*
X2870Y239417D01*
X3543Y239329D01*
X4216Y239417D01*
X4843Y239677D01*
X5382Y240090D01*
X5806Y239889D01*
X6082Y239677D01*
X6709Y239418D01*
X7211Y239351D01*
X7430Y238864D01*
X2210Y233643D01*
X1801Y233031D01*
X1657Y232310D01*
Y212657D01*
X1196Y212466D01*
X-2658Y216319D01*
X-1114Y217863D01*
X-701Y218401D01*
X-441Y219028D01*
X-353Y219701D01*
Y223829D01*
X-441Y224502D01*
X-701Y225129D01*
X-1114Y225668D01*
X-5594Y230148D01*
X-3313Y232429D01*
X-6681Y235796D01*
X-15059Y227418D01*
X-11692Y224050D01*
X-9272Y226470D01*
X-5553Y222752D01*
Y220778D01*
X-44176Y182155D01*
X-44589Y181617D01*
X-44849Y180990D01*
X-44937Y180317D01*
Y177403D01*
X-59961D01*
Y180728D01*
X-64724D01*
Y168879D01*
X-59961D01*
Y172203D01*
X-44937D01*
Y158209D01*
Y101456D01*
X-49083Y97311D01*
X-50605Y95788D01*
X-59961D01*
Y99172D01*
X-64724D01*
Y87324D01*
X-59961D01*
Y90588D01*
X-49528D01*
X-48856Y90676D01*
X-48228Y90936D01*
X-47690Y91350D01*
X-47244Y91795D01*
X353Y44199D01*
Y39576D01*
X-6398Y32825D01*
X-8564Y34991D01*
X-11931Y31624D01*
X-3553Y23245D01*
X-186Y26613D01*
X-2721Y29148D01*
X4030Y35899D01*
X73683D01*
X79518Y30064D01*
X77132Y27678D01*
X80500Y24311D01*
X83990Y27802D01*
X84305Y27932D01*
X84844Y28345D01*
X85257Y28884D01*
X85387Y29199D01*
X88878Y32689D01*
X85510Y36057D01*
X83195Y33741D01*
X77360Y39576D01*
Y43766D01*
X124635Y91041D01*
X141379D01*
Y87717D01*
X146141D01*
Y92654D01*
X146272Y92969D01*
X146360Y93642D01*
X146272Y94315D01*
X146141Y94630D01*
Y99566D01*
X141379D01*
Y96242D01*
X126158D01*
Y164804D01*
X133951Y172597D01*
X141379D01*
Y169272D01*
X146141D01*
Y181121D01*
X141379D01*
Y177797D01*
X132874D01*
X132201Y177708D01*
X131574Y177449D01*
X131035Y177035D01*
X123558Y169558D01*
X90222Y202894D01*
X89683Y203308D01*
X89056Y203568D01*
X88383Y203656D01*
X82364D01*
Y223061D01*
X86769Y227467D01*
X89120Y225116D01*
X92487Y228483D01*
X88996Y231974D01*
X88866Y232289D01*
X88453Y232827D01*
X87914Y233241D01*
X87599Y233371D01*
X84109Y236862D01*
X80741Y233494D01*
X83092Y231144D01*
X77925Y225977D01*
X77512Y225439D01*
X77252Y224812D01*
X77164Y224138D01*
Y203656D01*
X10005D01*
X9083Y204578D01*
X9275Y205040D01*
X24244D01*
X24296Y204962D01*
X24791Y204631D01*
X25374Y204515D01*
X32539D01*
X33123Y204631D01*
X33617Y204962D01*
X33948Y205456D01*
X34064Y206040D01*
Y207811D01*
X33948Y208395D01*
X33617Y208890D01*
X33231Y209148D01*
X33192Y209323D01*
Y209528D01*
X33231Y209703D01*
X33617Y209962D01*
X33948Y210456D01*
X34064Y211040D01*
Y212811D01*
X33948Y213395D01*
X33617Y213890D01*
X33231Y214148D01*
X33192Y214323D01*
Y214528D01*
X33231Y214703D01*
X33617Y214962D01*
X33948Y215456D01*
X34064Y216040D01*
Y217811D01*
X33948Y218395D01*
X33617Y218889D01*
X33231Y219148D01*
X33192Y219323D01*
Y219528D01*
X33231Y219703D01*
X33617Y219962D01*
X33948Y220456D01*
X34064Y221040D01*
Y222811D01*
X33948Y223395D01*
X33617Y223889D01*
X33583Y223912D01*
X33735Y224412D01*
X40595D01*
X43338Y221669D01*
Y221040D01*
X43454Y220456D01*
X43784Y219962D01*
X44279Y219631D01*
X44862Y219515D01*
X52027D01*
X52611Y219631D01*
X53106Y219962D01*
X53158Y220040D01*
X54097D01*
X54819Y220183D01*
X55431Y220592D01*
X57618Y222779D01*
X58027Y223391D01*
X58170Y224113D01*
Y233781D01*
X58027Y234503D01*
X57618Y235115D01*
X56857Y235876D01*
X56245Y236285D01*
X55523Y236428D01*
X47932D01*
Y244113D01*
X35272D01*
Y244173D01*
X35128Y244895D01*
X34719Y245507D01*
X31648Y248578D01*
X31037Y248986D01*
X30315Y249130D01*
X18129D01*
Y250216D01*
X12580D01*
Y244272D01*
X12580Y244272D01*
X12580D01*
X12404Y243838D01*
X10447Y241881D01*
X9960Y242100D01*
X9894Y242602D01*
X9634Y243229D01*
X9221Y243768D01*
X8776Y244109D01*
Y245257D01*
X9369D01*
Y250662D01*
X9369Y250806D01*
Y251162D01*
X9369Y251306D01*
Y252051D01*
X12580D01*
Y250965D01*
X18129D01*
Y256909D01*
D02*
G37*
G36*
X119188Y222873D02*
X117820D01*
X117690Y222847D01*
X117558Y222856D01*
X116202Y222677D01*
X116077Y222635D01*
X115945Y222626D01*
X114624Y222272D01*
X114505Y222214D01*
X114375Y222188D01*
X113111Y221665D01*
X113002Y221591D01*
X112876Y221549D01*
X111692Y220865D01*
X111592Y220777D01*
X111473Y220719D01*
X110388Y219886D01*
X110301Y219787D01*
X110191Y219713D01*
X109224Y218746D01*
X109150Y218636D01*
X109051Y218549D01*
X108218Y217464D01*
X108160Y217345D01*
X108072Y217245D01*
X107388Y216061D01*
X107346Y215935D01*
X107272Y215826D01*
X106749Y214562D01*
X106723Y214432D01*
X106665Y214313D01*
X106311Y212992D01*
X106302Y212860D01*
X106260Y212735D01*
X106081Y211379D01*
X106090Y211247D01*
X106064Y211117D01*
Y209749D01*
X106090Y209619D01*
X106081Y209487D01*
X106260Y208131D01*
X106302Y208006D01*
X106311Y207874D01*
X106665Y206553D01*
X106723Y206434D01*
X106749Y206304D01*
X107272Y205041D01*
X107346Y204931D01*
X107388Y204805D01*
X108072Y203621D01*
X108160Y203521D01*
X108218Y203402D01*
X109051Y202318D01*
X109150Y202230D01*
X109224Y202120D01*
X110191Y201153D01*
X110301Y201080D01*
X110388Y200980D01*
X111473Y200147D01*
X111592Y200089D01*
X111692Y200002D01*
X112876Y199318D01*
X113002Y199275D01*
X113111Y199202D01*
X114375Y198678D01*
X114505Y198652D01*
X114624Y198594D01*
X115945Y198240D01*
X116077Y198231D01*
X116202Y198189D01*
X117558Y198010D01*
X117690Y198019D01*
X117820Y197993D01*
X119188D01*
X119318Y198019D01*
X119450Y198010D01*
X120806Y198189D01*
X120931Y198231D01*
X121063Y198240D01*
X122384Y198594D01*
X122503Y198652D01*
X122633Y198678D01*
X123896Y199202D01*
X124006Y199275D01*
X124132Y199318D01*
X125316Y200002D01*
X125416Y200089D01*
X125534Y200147D01*
X126620Y200980D01*
X126707Y201080D01*
X126817Y201153D01*
X127784Y202120D01*
X127857Y202230D01*
X127957Y202318D01*
X128790Y203402D01*
X128848Y203521D01*
X128936Y203621D01*
X129619Y204805D01*
X129662Y204931D01*
X129735Y205041D01*
X130259Y206304D01*
X130285Y206434D01*
X130343Y206553D01*
X130697Y207874D01*
X130706Y208006D01*
X130748Y208131D01*
X130927Y209487D01*
X130918Y209619D01*
X130944Y209749D01*
Y211117D01*
X130918Y211247D01*
X130927Y211379D01*
X130748Y212735D01*
X130706Y212860D01*
X130697Y212992D01*
X130343Y214313D01*
X130285Y214432D01*
X130259Y214562D01*
X129735Y215826D01*
X129662Y215935D01*
X129619Y216061D01*
X128936Y217245D01*
X128848Y217345D01*
X128790Y217464D01*
X127957Y218549D01*
X127857Y218636D01*
X127784Y218746D01*
X126817Y219713D01*
X126707Y219787D01*
X126620Y219886D01*
X125534Y220719D01*
X125416Y220777D01*
X125316Y220865D01*
X124132Y221549D01*
X124006Y221591D01*
X123896Y221665D01*
X122633Y222188D01*
X122503Y222214D01*
X122384Y222272D01*
X121063Y222626D01*
X120931Y222635D01*
X120806Y222677D01*
X119450Y222856D01*
X119318Y222847D01*
X119188Y222873D01*
D02*
G37*
G36*
X-38293D02*
X-39660D01*
X-39790Y222847D01*
X-39922Y222856D01*
X-41278Y222677D01*
X-41403Y222635D01*
X-41536Y222626D01*
X-42857Y222272D01*
X-42975Y222214D01*
X-43105Y222188D01*
X-44369Y221665D01*
X-44479Y221591D01*
X-44604Y221549D01*
X-45789Y220865D01*
X-45888Y220777D01*
X-46007Y220719D01*
X-47092Y219886D01*
X-47179Y219787D01*
X-47289Y219713D01*
X-48256Y218746D01*
X-48330Y218636D01*
X-48430Y218549D01*
X-49262Y217464D01*
X-49321Y217345D01*
X-49408Y217245D01*
X-50092Y216061D01*
X-50134Y215935D01*
X-50208Y215826D01*
X-50731Y214562D01*
X-50757Y214432D01*
X-50816Y214313D01*
X-51170Y212992D01*
X-51178Y212860D01*
X-51221Y212735D01*
X-51399Y211379D01*
X-51391Y211247D01*
X-51416Y211117D01*
Y209749D01*
X-51391Y209619D01*
X-51399Y209487D01*
X-51221Y208131D01*
X-51178Y208006D01*
X-51170Y207874D01*
X-50816Y206553D01*
X-50757Y206434D01*
X-50731Y206304D01*
X-50208Y205041D01*
X-50134Y204931D01*
X-50092Y204805D01*
X-49408Y203621D01*
X-49321Y203521D01*
X-49262Y203402D01*
X-48430Y202318D01*
X-48330Y202230D01*
X-48256Y202120D01*
X-47289Y201153D01*
X-47179Y201080D01*
X-47092Y200980D01*
X-46007Y200147D01*
X-45888Y200089D01*
X-45789Y200002D01*
X-44604Y199318D01*
X-44479Y199275D01*
X-44369Y199202D01*
X-43105Y198678D01*
X-42975Y198652D01*
X-42857Y198594D01*
X-41536Y198240D01*
X-41403Y198231D01*
X-41278Y198189D01*
X-39922Y198010D01*
X-39790Y198019D01*
X-39660Y197993D01*
X-38293D01*
X-38163Y198019D01*
X-38031Y198010D01*
X-36675Y198189D01*
X-36549Y198231D01*
X-36417Y198240D01*
X-35096Y198594D01*
X-34977Y198652D01*
X-34848Y198678D01*
X-33584Y199202D01*
X-33474Y199275D01*
X-33349Y199318D01*
X-32164Y200002D01*
X-32065Y200089D01*
X-31946Y200147D01*
X-30861Y200980D01*
X-30773Y201080D01*
X-30663Y201153D01*
X-29696Y202120D01*
X-29623Y202230D01*
X-29523Y202318D01*
X-28691Y203402D01*
X-28632Y203521D01*
X-28545Y203621D01*
X-27861Y204805D01*
X-27818Y204931D01*
X-27745Y205041D01*
X-27222Y206304D01*
X-27196Y206434D01*
X-27137Y206553D01*
X-26783Y207874D01*
X-26774Y208006D01*
X-26732Y208131D01*
X-26553Y209487D01*
X-26562Y209619D01*
X-26536Y209749D01*
Y211117D01*
X-26562Y211247D01*
X-26553Y211379D01*
X-26732Y212735D01*
X-26774Y212860D01*
X-26783Y212992D01*
X-27137Y214313D01*
X-27196Y214432D01*
X-27222Y214562D01*
X-27745Y215826D01*
X-27818Y215935D01*
X-27861Y216061D01*
X-28545Y217245D01*
X-28632Y217345D01*
X-28691Y217464D01*
X-29523Y218549D01*
X-29623Y218636D01*
X-29696Y218746D01*
X-30663Y219713D01*
X-30773Y219787D01*
X-30861Y219886D01*
X-31946Y220719D01*
X-32065Y220777D01*
X-32164Y220865D01*
X-33349Y221549D01*
X-33474Y221591D01*
X-33584Y221665D01*
X-34848Y222188D01*
X-34977Y222214D01*
X-35096Y222272D01*
X-36417Y222626D01*
X-36549Y222635D01*
X-36675Y222677D01*
X-38031Y222856D01*
X-38163Y222847D01*
X-38293Y222873D01*
D02*
G37*
G36*
X60549Y214767D02*
X54999D01*
Y213746D01*
X53201D01*
X53106Y213890D01*
X52611Y214220D01*
X52027Y214336D01*
X44862D01*
X44279Y214220D01*
X43784Y213890D01*
X43454Y213395D01*
X43338Y212811D01*
Y211040D01*
X43454Y210456D01*
X43784Y209962D01*
X44279Y209631D01*
X44862Y209515D01*
X52027D01*
X52611Y209631D01*
X53106Y209962D01*
X53114Y209974D01*
X54999D01*
Y208823D01*
X60549D01*
Y214767D01*
D02*
G37*
G36*
X147638Y140009D02*
X146438Y139891D01*
X145284Y139541D01*
X144221Y138972D01*
X143289Y138208D01*
X142524Y137276D01*
X141955Y136212D01*
X141605Y135058D01*
X141487Y133858D01*
Y129921D01*
X141605Y128721D01*
X141955Y127567D01*
X142524Y126504D01*
X143289Y125572D01*
X144221Y124807D01*
X145284Y124239D01*
X146438Y123889D01*
X147638Y123770D01*
X148838Y123889D01*
X149992Y124239D01*
X151055Y124807D01*
X151987Y125572D01*
X152752Y126504D01*
X153321Y127567D01*
X153671Y128721D01*
X153789Y129921D01*
Y133858D01*
X153671Y135058D01*
X153321Y136212D01*
X152752Y137276D01*
X151987Y138208D01*
X151055Y138972D01*
X149992Y139541D01*
X148838Y139891D01*
X147638Y140009D01*
D02*
G37*
G36*
X-66929D02*
X-68129Y139891D01*
X-69283Y139541D01*
X-70346Y138972D01*
X-71279Y138208D01*
X-72043Y137276D01*
X-72612Y136212D01*
X-72962Y135058D01*
X-73080Y133858D01*
Y129921D01*
X-72962Y128721D01*
X-72612Y127567D01*
X-72043Y126504D01*
X-71279Y125572D01*
X-70346Y124807D01*
X-69283Y124239D01*
X-68129Y123889D01*
X-66929Y123770D01*
X-65729Y123889D01*
X-64575Y124239D01*
X-63512Y124807D01*
X-62580Y125572D01*
X-61815Y126504D01*
X-61247Y127567D01*
X-60896Y128721D01*
X-60778Y129921D01*
Y133858D01*
X-60896Y135058D01*
X-61247Y136212D01*
X-61815Y137276D01*
X-62580Y138208D01*
X-63512Y138972D01*
X-64575Y139541D01*
X-65729Y139891D01*
X-66929Y140009D01*
D02*
G37*
G36*
X119188Y65393D02*
X117820D01*
X117690Y65367D01*
X117558Y65376D01*
X116202Y65197D01*
X116077Y65155D01*
X115945Y65146D01*
X114624Y64792D01*
X114505Y64733D01*
X114375Y64708D01*
X113111Y64184D01*
X113002Y64111D01*
X112876Y64068D01*
X111692Y63384D01*
X111592Y63297D01*
X111473Y63239D01*
X110388Y62406D01*
X110301Y62306D01*
X110191Y62233D01*
X109224Y61266D01*
X109150Y61156D01*
X109051Y61068D01*
X108218Y59983D01*
X108160Y59865D01*
X108072Y59765D01*
X107388Y58581D01*
X107346Y58455D01*
X107272Y58345D01*
X106749Y57082D01*
X106723Y56952D01*
X106665Y56833D01*
X106311Y55512D01*
X106302Y55380D01*
X106260Y55255D01*
X106081Y53899D01*
X106090Y53766D01*
X106064Y53637D01*
Y52269D01*
X106090Y52139D01*
X106081Y52007D01*
X106260Y50651D01*
X106302Y50526D01*
X106311Y50393D01*
X106665Y49073D01*
X106723Y48954D01*
X106749Y48824D01*
X107272Y47560D01*
X107346Y47450D01*
X107388Y47325D01*
X108072Y46141D01*
X108160Y46041D01*
X108218Y45922D01*
X109051Y44837D01*
X109150Y44750D01*
X109224Y44640D01*
X110191Y43673D01*
X110301Y43599D01*
X110388Y43500D01*
X111473Y42667D01*
X111592Y42608D01*
X111692Y42521D01*
X112876Y41837D01*
X113002Y41795D01*
X113111Y41721D01*
X114375Y41198D01*
X114505Y41172D01*
X114624Y41113D01*
X115945Y40760D01*
X116077Y40751D01*
X116202Y40708D01*
X117558Y40530D01*
X117690Y40538D01*
X117820Y40513D01*
X119188D01*
X119318Y40538D01*
X119450Y40530D01*
X120806Y40708D01*
X120931Y40751D01*
X121063Y40760D01*
X122384Y41113D01*
X122503Y41172D01*
X122633Y41198D01*
X123896Y41721D01*
X124006Y41795D01*
X124132Y41837D01*
X125316Y42521D01*
X125416Y42608D01*
X125534Y42667D01*
X126620Y43500D01*
X126707Y43599D01*
X126817Y43673D01*
X127784Y44640D01*
X127857Y44750D01*
X127957Y44837D01*
X128790Y45922D01*
X128848Y46041D01*
X128936Y46141D01*
X129619Y47325D01*
X129662Y47450D01*
X129735Y47560D01*
X130259Y48824D01*
X130285Y48954D01*
X130343Y49073D01*
X130697Y50393D01*
X130706Y50526D01*
X130748Y50651D01*
X130927Y52007D01*
X130918Y52139D01*
X130944Y52269D01*
Y53637D01*
X130918Y53766D01*
X130927Y53899D01*
X130748Y55255D01*
X130706Y55380D01*
X130697Y55512D01*
X130343Y56833D01*
X130285Y56952D01*
X130259Y57082D01*
X129735Y58345D01*
X129662Y58455D01*
X129619Y58581D01*
X128936Y59765D01*
X128848Y59865D01*
X128790Y59983D01*
X127957Y61068D01*
X127857Y61156D01*
X127784Y61266D01*
X126817Y62233D01*
X126707Y62306D01*
X126620Y62406D01*
X125534Y63239D01*
X125416Y63297D01*
X125316Y63384D01*
X124132Y64068D01*
X124006Y64111D01*
X123896Y64184D01*
X122633Y64708D01*
X122503Y64733D01*
X122384Y64792D01*
X121063Y65146D01*
X120931Y65155D01*
X120806Y65197D01*
X119450Y65376D01*
X119318Y65367D01*
X119188Y65393D01*
D02*
G37*
G36*
X-38293D02*
X-39660D01*
X-39790Y65367D01*
X-39922Y65376D01*
X-41278Y65197D01*
X-41403Y65155D01*
X-41536Y65146D01*
X-42857Y64792D01*
X-42975Y64733D01*
X-43105Y64708D01*
X-44369Y64184D01*
X-44479Y64111D01*
X-44604Y64068D01*
X-45789Y63384D01*
X-45888Y63297D01*
X-46007Y63239D01*
X-47092Y62406D01*
X-47179Y62306D01*
X-47289Y62233D01*
X-48256Y61266D01*
X-48330Y61156D01*
X-48430Y61068D01*
X-49262Y59983D01*
X-49321Y59865D01*
X-49408Y59765D01*
X-50092Y58581D01*
X-50134Y58455D01*
X-50208Y58345D01*
X-50731Y57082D01*
X-50757Y56952D01*
X-50816Y56833D01*
X-51170Y55512D01*
X-51178Y55380D01*
X-51221Y55255D01*
X-51399Y53899D01*
X-51391Y53766D01*
X-51416Y53637D01*
Y52269D01*
X-51391Y52139D01*
X-51399Y52007D01*
X-51221Y50651D01*
X-51178Y50526D01*
X-51170Y50393D01*
X-50816Y49073D01*
X-50757Y48954D01*
X-50731Y48824D01*
X-50208Y47560D01*
X-50134Y47450D01*
X-50092Y47325D01*
X-49408Y46141D01*
X-49321Y46041D01*
X-49262Y45922D01*
X-48430Y44837D01*
X-48330Y44750D01*
X-48256Y44640D01*
X-47289Y43673D01*
X-47179Y43599D01*
X-47092Y43500D01*
X-46007Y42667D01*
X-45888Y42608D01*
X-45789Y42521D01*
X-44604Y41837D01*
X-44479Y41795D01*
X-44369Y41721D01*
X-43105Y41198D01*
X-42975Y41172D01*
X-42857Y41113D01*
X-41536Y40760D01*
X-41403Y40751D01*
X-41278Y40708D01*
X-39922Y40530D01*
X-39790Y40538D01*
X-39660Y40513D01*
X-38293D01*
X-38163Y40538D01*
X-38031Y40530D01*
X-36675Y40708D01*
X-36549Y40751D01*
X-36417Y40760D01*
X-35096Y41113D01*
X-34977Y41172D01*
X-34848Y41198D01*
X-33584Y41721D01*
X-33474Y41795D01*
X-33349Y41837D01*
X-32164Y42521D01*
X-32065Y42608D01*
X-31946Y42667D01*
X-30861Y43500D01*
X-30773Y43599D01*
X-30663Y43673D01*
X-29696Y44640D01*
X-29623Y44750D01*
X-29523Y44837D01*
X-28691Y45922D01*
X-28632Y46041D01*
X-28545Y46141D01*
X-27861Y47325D01*
X-27818Y47450D01*
X-27745Y47560D01*
X-27222Y48824D01*
X-27196Y48954D01*
X-27137Y49073D01*
X-26783Y50393D01*
X-26774Y50526D01*
X-26732Y50651D01*
X-26553Y52007D01*
X-26562Y52139D01*
X-26536Y52269D01*
Y53637D01*
X-26562Y53766D01*
X-26553Y53899D01*
X-26732Y55255D01*
X-26774Y55380D01*
X-26783Y55512D01*
X-27137Y56833D01*
X-27196Y56952D01*
X-27222Y57082D01*
X-27745Y58345D01*
X-27818Y58455D01*
X-27861Y58581D01*
X-28545Y59765D01*
X-28632Y59865D01*
X-28691Y59983D01*
X-29523Y61068D01*
X-29623Y61156D01*
X-29696Y61266D01*
X-30663Y62233D01*
X-30773Y62306D01*
X-30861Y62406D01*
X-31946Y63239D01*
X-32065Y63297D01*
X-32164Y63384D01*
X-33349Y64068D01*
X-33474Y64111D01*
X-33584Y64184D01*
X-34848Y64708D01*
X-34977Y64733D01*
X-35096Y64792D01*
X-36417Y65146D01*
X-36549Y65155D01*
X-36675Y65197D01*
X-38031Y65376D01*
X-38163Y65367D01*
X-38293Y65393D01*
D02*
G37*
G36*
X32480Y17476D02*
X31396Y17333D01*
X30386Y16915D01*
X29518Y16249D01*
X28853Y15382D01*
X28435Y14371D01*
X28292Y13287D01*
X28435Y12203D01*
X28853Y11193D01*
X29518Y10326D01*
X30386Y9660D01*
X31396Y9241D01*
X32480Y9099D01*
X33564Y9241D01*
X34575Y9660D01*
X35442Y10326D01*
X36108Y11193D01*
X36526Y12203D01*
X36669Y13287D01*
X36526Y14371D01*
X36108Y15382D01*
X35442Y16249D01*
X34575Y16915D01*
X33564Y17333D01*
X32480Y17476D01*
D02*
G37*
%LPD*%
G36*
X31871Y231650D02*
Y228214D01*
X31383Y228184D01*
X18858D01*
X15757Y231284D01*
X16601Y232127D01*
X31389D01*
X31871Y231650D01*
D02*
G37*
G36*
X30808Y244084D02*
Y236202D01*
X30433Y235899D01*
X15820D01*
X15098Y235755D01*
X14486Y235347D01*
X12295Y233156D01*
X11886Y232544D01*
X11743Y231822D01*
Y230746D01*
X11886Y230024D01*
X12295Y229413D01*
X15538Y226170D01*
X15347Y225708D01*
X12384D01*
Y224176D01*
X11256D01*
X11256Y224176D01*
X10403Y224006D01*
X9681Y223524D01*
X9681Y223523D01*
X7736Y221579D01*
X7450Y221541D01*
X6823Y221281D01*
X6284Y220868D01*
X5929Y220405D01*
X5641Y220440D01*
X5429Y220541D01*
Y231529D01*
X16688Y242787D01*
X17097Y243399D01*
X17240Y244121D01*
Y244272D01*
X18129D01*
Y245358D01*
X29534D01*
X30808Y244084D01*
D02*
G37*
G36*
X43626Y235233D02*
X44021Y234643D01*
X45455Y233209D01*
X46066Y232800D01*
X46788Y232656D01*
X54399D01*
Y224894D01*
X53577Y224072D01*
X53106Y223889D01*
X52611Y224220D01*
X52027Y224336D01*
X46005D01*
X42709Y227631D01*
X42586Y227714D01*
X42737Y228214D01*
X44113D01*
Y233764D01*
X43126D01*
Y235098D01*
X43589Y235241D01*
X43626Y235233D01*
D02*
G37*
G36*
X12384Y219220D02*
Y218190D01*
X19613D01*
X19947Y217690D01*
X19851Y217457D01*
X19762Y216784D01*
X19851Y216111D01*
X20110Y215484D01*
X20524Y214946D01*
X20904Y214653D01*
X20943Y214537D01*
Y214173D01*
X20904Y214057D01*
X20524Y213764D01*
X20110Y213226D01*
X19851Y212599D01*
X19762Y211926D01*
X19851Y211253D01*
X20110Y210626D01*
X20524Y210087D01*
X21062Y209674D01*
X21689Y209414D01*
X22362Y209325D01*
X23035Y209414D01*
X23662Y209674D01*
X23821Y209796D01*
X24257Y209948D01*
X24686Y209690D01*
X24722Y209528D01*
Y209323D01*
X24683Y209148D01*
X24296Y208890D01*
X24244Y208811D01*
X8143D01*
X5429Y211525D01*
Y217518D01*
X5641Y217619D01*
X5929Y217653D01*
X6284Y217191D01*
X6823Y216777D01*
X7450Y216518D01*
X8123Y216429D01*
X8796Y216518D01*
X9423Y216777D01*
X9962Y217191D01*
X10375Y217729D01*
X10509Y218052D01*
X11884Y219427D01*
X12384Y219220D01*
D02*
G37*
G36*
X5458Y200849D02*
X-7301Y188090D01*
X-7801Y187341D01*
X-7977Y186459D01*
Y166007D01*
X-8425D01*
X-9150Y165912D01*
X-9825Y165632D01*
X-10404Y165188D01*
X-10849Y164608D01*
X-11129Y163933D01*
X-11224Y163209D01*
X-11129Y162484D01*
X-10849Y161809D01*
X-10404Y161230D01*
X-10136Y161024D01*
X-10130Y161004D01*
X-10295Y160516D01*
X-39737D01*
Y174803D01*
Y179240D01*
X-6335Y212642D01*
X5458Y200849D01*
D02*
G37*
G36*
X120958Y164804D02*
Y94719D01*
X72921Y46682D01*
X72508Y46143D01*
X72248Y45516D01*
X72159Y44844D01*
Y41100D01*
X5553D01*
Y45276D01*
X5464Y45949D01*
X5205Y46576D01*
X4791Y47114D01*
X-43567Y95472D01*
X-40499Y98541D01*
X-40085Y99079D01*
X-39826Y99706D01*
X-39737Y100379D01*
Y155901D01*
X-10295D01*
X-10130Y155413D01*
X-10136Y155394D01*
X-10404Y155188D01*
X-10849Y154608D01*
X-11129Y153933D01*
X-11224Y153209D01*
X-11129Y152484D01*
X-10849Y151809D01*
X-10404Y151230D01*
X-10136Y151024D01*
Y150393D01*
X-10404Y150188D01*
X-10849Y149608D01*
X-11129Y148933D01*
X-11224Y148209D01*
X-11129Y147484D01*
X-10849Y146809D01*
X-10404Y146230D01*
X-9825Y145785D01*
X-9150Y145505D01*
X-8425Y145410D01*
X-6204D01*
Y142271D01*
X-7442D01*
Y136722D01*
X-1499D01*
Y142271D01*
X-2737D01*
Y145433D01*
X-2189Y145505D01*
X-1514Y145785D01*
X-934Y146230D01*
X-490Y146809D01*
X-210Y147484D01*
X-115Y148209D01*
X-210Y148933D01*
X-490Y149608D01*
X-934Y150188D01*
X-1203Y150393D01*
Y151024D01*
X-934Y151230D01*
X-490Y151809D01*
X-210Y152484D01*
X-115Y153209D01*
X-210Y153933D01*
X-490Y154608D01*
X-934Y155188D01*
X-1203Y155394D01*
Y156024D01*
X-934Y156230D01*
X-490Y156809D01*
X-210Y157484D01*
X-115Y158209D01*
X-210Y158933D01*
X-490Y159608D01*
X-934Y160188D01*
X-1203Y160394D01*
Y161024D01*
X-934Y161230D01*
X-490Y161809D01*
X-210Y162484D01*
X-115Y163209D01*
X-210Y163933D01*
X-490Y164608D01*
X-934Y165188D01*
X-1514Y165632D01*
X-2189Y165912D01*
X-2913Y166007D01*
X-3362D01*
Y185503D01*
X9591Y198456D01*
X87306D01*
X120958Y164804D01*
D02*
G37*
%LPC*%
G36*
X64077Y161755D02*
X63783Y161697D01*
X63609Y161662D01*
X63609Y161662D01*
X63608Y161662D01*
X63066Y161437D01*
X63066Y161437D01*
X62867Y161304D01*
X62669Y161172D01*
X62669Y161172D01*
X62255Y160757D01*
X62255Y160757D01*
X62255Y160757D01*
X62106Y160535D01*
X61989Y160360D01*
X61989Y160360D01*
X61989Y160360D01*
X61783Y159862D01*
X61187D01*
Y156281D01*
X61672D01*
Y155689D01*
X61187D01*
Y152108D01*
Y150021D01*
X62590D01*
Y146476D01*
X58052D01*
Y140926D01*
X63995D01*
Y142353D01*
X64144Y142452D01*
X65604Y143913D01*
X65987Y144485D01*
X66121Y145161D01*
Y150021D01*
X67374D01*
Y147880D01*
X75286D01*
Y154179D01*
Y155269D01*
X80709D01*
X81536Y155378D01*
X82307Y155697D01*
X82968Y156205D01*
X83476Y156867D01*
X83796Y157637D01*
X83904Y158465D01*
X83796Y159292D01*
X83476Y160063D01*
X82968Y160724D01*
X82307Y161232D01*
X81536Y161551D01*
X80709Y161660D01*
X75286D01*
Y161697D01*
X74204D01*
X74105Y161721D01*
X73961Y161727D01*
X73819Y161755D01*
X73356Y161755D01*
X73356Y161755D01*
X73356Y161755D01*
X64370Y161755D01*
X64077Y161755D01*
X64077Y161755D01*
X64077Y161755D01*
D02*
G37*
G36*
X19685Y151007D02*
X14173D01*
X13449Y150912D01*
X12774Y150632D01*
X12194Y150188D01*
X11749Y149608D01*
X11470Y148933D01*
X11374Y148209D01*
X11470Y147484D01*
X11749Y146809D01*
X12194Y146230D01*
X12774Y145785D01*
X13449Y145505D01*
X14173Y145410D01*
X17299D01*
Y145304D01*
X17442Y144582D01*
X17851Y143970D01*
X22013Y139808D01*
X22625Y139399D01*
X23346Y139256D01*
X24115D01*
Y138170D01*
X29665D01*
Y144113D01*
X24115D01*
Y143693D01*
X23653Y143502D01*
X21514Y145641D01*
X21547Y146140D01*
X21664Y146230D01*
X22109Y146809D01*
X22388Y147484D01*
X22484Y148209D01*
X22388Y148933D01*
X22109Y149608D01*
X21664Y150188D01*
X21084Y150632D01*
X20409Y150912D01*
X19685Y151007D01*
D02*
G37*
G36*
X16732Y172876D02*
X16059Y172787D01*
X15432Y172527D01*
X14894Y172114D01*
X14480Y171576D01*
X14221Y170949D01*
X14132Y170276D01*
Y166002D01*
X13449Y165912D01*
X12774Y165632D01*
X12194Y165188D01*
X11749Y164608D01*
X11470Y163933D01*
X11374Y163209D01*
X11470Y162484D01*
X11749Y161809D01*
X12194Y161230D01*
X12462Y161024D01*
Y160394D01*
X12194Y160188D01*
X11749Y159608D01*
X11470Y158933D01*
X11374Y158209D01*
X11470Y157484D01*
X11749Y156809D01*
X12194Y156230D01*
X12774Y155785D01*
X13449Y155505D01*
X14173Y155410D01*
X19685D01*
X20409Y155505D01*
X21084Y155785D01*
X21341Y155982D01*
X24566D01*
X26965Y153583D01*
X26965Y153583D01*
X27687Y153100D01*
X28539Y152930D01*
X28539Y152930D01*
X33111D01*
Y150414D01*
X41141D01*
X49429Y142126D01*
X49429Y142126D01*
X50152Y141643D01*
X51004Y141474D01*
X51359Y141155D01*
Y140926D01*
X52104D01*
Y135764D01*
X48741D01*
Y132670D01*
X46279D01*
Y133264D01*
X36989D01*
Y128764D01*
X36989Y128305D01*
Y128024D01*
X36635Y127671D01*
X35242D01*
X34765Y128036D01*
X34137Y128296D01*
X33465Y128385D01*
X32792Y128296D01*
X32164Y128036D01*
X31626Y127623D01*
X31213Y127085D01*
X30953Y126458D01*
X30864Y125785D01*
X30953Y125112D01*
X31213Y124485D01*
X31626Y123946D01*
X32164Y123533D01*
X32792Y123273D01*
X33465Y123185D01*
X34137Y123273D01*
X34765Y123533D01*
X35242Y123899D01*
X36635D01*
X36989Y123545D01*
Y123305D01*
X36989Y122805D01*
Y118764D01*
X36989Y118305D01*
X36989D01*
Y118264D01*
X36989D01*
Y117671D01*
X35033D01*
X28776Y123928D01*
Y128484D01*
X28632Y129206D01*
X28223Y129818D01*
X22468Y135573D01*
X21856Y135982D01*
X21134Y136126D01*
X15881D01*
X12618Y139389D01*
Y142271D01*
X6675D01*
Y141382D01*
X5194D01*
Y142271D01*
X-749D01*
Y136722D01*
X5194D01*
Y137610D01*
X6675D01*
Y136722D01*
X9951D01*
X12947Y133726D01*
X12755Y133264D01*
X8446D01*
Y132670D01*
X4323D01*
Y133560D01*
X-1620D01*
Y128010D01*
X4323D01*
Y128899D01*
X8092D01*
X8446Y128545D01*
Y128305D01*
X8446Y127805D01*
Y125972D01*
X7342Y124868D01*
X4323D01*
Y125757D01*
X-1620D01*
Y120355D01*
X-1620Y120208D01*
X-1620D01*
X-1594Y119866D01*
X-1594D01*
Y114316D01*
X4350D01*
Y119719D01*
X4350Y119866D01*
X4350D01*
X4323Y120208D01*
X4323D01*
Y121097D01*
X8123D01*
X8446Y120832D01*
Y118305D01*
X17735D01*
Y118899D01*
X19298D01*
X19453Y118744D01*
Y108915D01*
X16595D01*
Y97736D01*
X26082D01*
Y104537D01*
X28721D01*
Y103451D01*
X34271D01*
Y109394D01*
X28721D01*
Y108308D01*
X26082D01*
Y108915D01*
X23224D01*
Y119525D01*
X23081Y120247D01*
X22672Y120858D01*
X21412Y122118D01*
X20800Y122527D01*
X20079Y122670D01*
X17735D01*
Y123264D01*
X17736D01*
Y123305D01*
X17735D01*
Y127805D01*
X17735Y128264D01*
Y128545D01*
X18089Y128899D01*
X19809D01*
X20048Y128661D01*
X20126Y128065D01*
X20386Y127437D01*
X20799Y126899D01*
X21338Y126486D01*
X21965Y126226D01*
X22638Y126137D01*
X23311Y126226D01*
X23938Y126486D01*
X24476Y126899D01*
X24504Y126935D01*
X25004Y126765D01*
Y123147D01*
X25148Y122425D01*
X25556Y121813D01*
X32919Y114451D01*
X33530Y114042D01*
X34252Y113899D01*
X36989D01*
Y113305D01*
X39748D01*
Y112894D01*
X39892Y112172D01*
X40300Y111560D01*
X40717Y111144D01*
X40795Y110547D01*
X41055Y109920D01*
X41469Y109382D01*
X42007Y108969D01*
X42634Y108709D01*
X43307Y108620D01*
X43980Y108709D01*
X44607Y108969D01*
X45146Y109382D01*
X45559Y109920D01*
X45819Y110547D01*
X45907Y111221D01*
X45819Y111893D01*
X45559Y112521D01*
X45341Y112805D01*
X45587Y113305D01*
X46279D01*
X46606Y112941D01*
Y112715D01*
X46749Y111993D01*
X47158Y111381D01*
X52998Y105541D01*
Y104260D01*
X55098Y102160D01*
X60298D01*
X62398Y104260D01*
Y108460D01*
X60298Y110560D01*
X55098D01*
X54206Y109667D01*
X50377Y113496D01*
Y117847D01*
X50234Y118569D01*
X49825Y119181D01*
X46887Y122118D01*
X46279Y122525D01*
X46279Y123264D01*
X46279Y123764D01*
Y127805D01*
X46279Y128264D01*
Y128545D01*
X46632Y128899D01*
X48741D01*
Y126278D01*
X59921D01*
Y128785D01*
X61792D01*
Y126912D01*
X69704D01*
Y128785D01*
X70847D01*
Y126912D01*
X78759D01*
Y128785D01*
X79316D01*
X81119Y126982D01*
Y113314D01*
X76051Y108246D01*
X72398D01*
Y108460D01*
X70298Y110560D01*
X65098D01*
X62998Y108460D01*
Y104260D01*
X65098Y102160D01*
X70298D01*
X72398Y104260D01*
Y104474D01*
X76832D01*
X77554Y104618D01*
X78166Y105026D01*
X84339Y111199D01*
X84747Y111811D01*
X84891Y112533D01*
Y127763D01*
X84747Y128485D01*
X84339Y129097D01*
X81431Y132004D01*
X80819Y132413D01*
X80097Y132557D01*
X78759D01*
Y134430D01*
X70847D01*
Y132557D01*
X69704D01*
Y134430D01*
X61792D01*
Y132557D01*
X59921D01*
Y135764D01*
X56558D01*
Y140926D01*
X57302D01*
Y146476D01*
X51379D01*
X44291Y153564D01*
Y159901D01*
X33111D01*
Y157385D01*
X29462D01*
X27063Y159783D01*
X26340Y160266D01*
X25488Y160436D01*
X25488Y160436D01*
X21788D01*
X21639Y160611D01*
X21664Y161230D01*
X22109Y161809D01*
X22388Y162484D01*
X22484Y163209D01*
X22388Y163933D01*
X22109Y164608D01*
X21664Y165188D01*
X21084Y165632D01*
X20409Y165912D01*
X19685Y166007D01*
X19332D01*
Y170276D01*
X19244Y170949D01*
X18984Y171576D01*
X18571Y172114D01*
X18032Y172527D01*
X17405Y172787D01*
X16732Y172876D01*
D02*
G37*
G36*
X-21654Y134490D02*
X-22327Y134401D01*
X-22954Y134142D01*
X-23492Y133728D01*
X-23905Y133190D01*
X-24165Y132563D01*
X-24254Y131890D01*
X-24165Y131217D01*
X-23905Y130590D01*
X-23492Y130051D01*
X-22954Y129638D01*
X-22327Y129378D01*
X-22041Y129341D01*
X-21797Y129096D01*
X-21796Y129096D01*
X-21074Y128613D01*
X-20222Y128444D01*
X-20222Y128444D01*
X-8313D01*
Y128010D01*
X-7568D01*
Y125757D01*
X-8313D01*
Y120208D01*
X-2370D01*
Y125757D01*
X-3114D01*
Y128010D01*
X-2370D01*
Y133560D01*
X-8313D01*
Y132898D01*
X-19281D01*
X-19402Y133190D01*
X-19815Y133728D01*
X-20354Y134142D01*
X-20981Y134401D01*
X-21654Y134490D01*
D02*
G37*
G36*
X70298Y100560D02*
X65098D01*
X62998Y98460D01*
Y94260D01*
X65098Y92160D01*
X70298D01*
X72398Y94260D01*
Y98460D01*
X70298Y100560D01*
D02*
G37*
G36*
X60298D02*
X55098D01*
X52998Y98460D01*
Y94260D01*
X55098Y92160D01*
X60298D01*
X62398Y94260D01*
Y98460D01*
X60298Y100560D01*
D02*
G37*
G36*
X34271Y102701D02*
X28721D01*
Y96758D01*
X29269D01*
Y95821D01*
X29244Y95788D01*
X28984Y95161D01*
X28896Y94488D01*
X28984Y93815D01*
X29244Y93188D01*
X29657Y92650D01*
X30196Y92236D01*
X30823Y91977D01*
X31496Y91888D01*
X32169Y91977D01*
X32796Y92236D01*
X33335Y92650D01*
X33748Y93188D01*
X34008Y93815D01*
X34096Y94488D01*
X34008Y95161D01*
X33748Y95788D01*
X33723Y95821D01*
Y96758D01*
X34271D01*
Y102701D01*
D02*
G37*
G36*
X60298Y90560D02*
X55098D01*
X52998Y88460D01*
Y84260D01*
X55098Y82160D01*
X60298D01*
X62398Y84260D01*
Y88460D01*
X60298Y90560D01*
D02*
G37*
%LPD*%
G36*
X64370Y160531D02*
X73356Y160531D01*
X73819Y160531D01*
D01*
X74286Y160419D01*
X74376Y160382D01*
X74653Y160105D01*
X74803Y159743D01*
X74803Y159547D01*
X74803Y157283D01*
X74803Y157283D01*
X74803Y156970D01*
X74563Y156391D01*
X74120Y155948D01*
X73542Y155709D01*
X73228Y155709D01*
X66299D01*
X66299Y155709D01*
X66192Y155698D01*
X65993Y155616D01*
X65841Y155464D01*
X65759Y155265D01*
X65748Y155157D01*
X65748Y153602D01*
X62895D01*
Y159057D01*
X62895Y159350D01*
X63120Y159892D01*
X63535Y160307D01*
X64077Y160531D01*
X64370Y160531D01*
D02*
G37*
D11*
X-4470Y139496D02*
Y147216D01*
X-5463Y148209D02*
X-4470Y147216D01*
X-5669Y148209D02*
X-5463D01*
D21*
X5630Y155709D02*
D03*
D46*
X26890Y141142D02*
D03*
Y147835D02*
D03*
X57774Y211795D02*
D03*
Y218488D02*
D03*
X31496Y106422D02*
D03*
Y99730D02*
D03*
X15354Y253937D02*
D03*
Y247244D02*
D03*
D47*
X56378Y256260D02*
D03*
Y241299D02*
D03*
X22362D02*
D03*
Y256260D02*
D03*
X56378D02*
D03*
D48*
X50197Y240158D02*
D03*
X28543D02*
D03*
D49*
X45354D02*
D03*
X41339D02*
D03*
X37402D02*
D03*
X33386D02*
D03*
D50*
X38701Y214426D02*
D03*
D51*
X28957Y206926D02*
D03*
Y211926D02*
D03*
Y216926D02*
D03*
Y221926D02*
D03*
X48445D02*
D03*
Y216926D02*
D03*
Y211926D02*
D03*
Y206926D02*
D03*
D52*
X13091Y130785D02*
D03*
Y125785D02*
D03*
Y120785D02*
D03*
Y115785D02*
D03*
X41634D02*
D03*
Y120785D02*
D03*
Y125785D02*
D03*
Y130785D02*
D03*
D53*
X49985Y152796D02*
D03*
Y157087D02*
D03*
D54*
X64355Y151812D02*
D03*
Y153898D02*
D03*
Y158071D02*
D03*
D55*
X-9186Y229923D02*
D03*
X83005Y30184D02*
D03*
D56*
X-13780Y234517D02*
D03*
X87598Y25591D02*
D03*
D57*
X3543Y253937D02*
D03*
Y248031D02*
D03*
X6890Y253937D02*
D03*
Y248031D02*
D03*
D58*
X9843Y103325D02*
D03*
X21339D02*
D03*
D59*
X74803Y130671D02*
D03*
Y124372D02*
D03*
X71330Y151639D02*
D03*
Y157938D02*
D03*
X16340Y215650D02*
D03*
Y221949D02*
D03*
X65748Y130671D02*
D03*
Y124372D02*
D03*
D60*
X-5669Y163209D02*
D03*
Y158209D02*
D03*
Y153209D02*
D03*
Y148209D02*
D03*
X16929Y163209D02*
D03*
Y158209D02*
D03*
Y153209D02*
D03*
Y148209D02*
D03*
D61*
X54331Y119525D02*
D03*
Y131021D02*
D03*
X38701Y155157D02*
D03*
Y143661D02*
D03*
D62*
X-68839Y174803D02*
D03*
X-68839Y93248D02*
D03*
X150256Y93642D02*
D03*
X150256Y175197D02*
D03*
D63*
X-62343Y174803D02*
D03*
X-62343Y93248D02*
D03*
X143760Y93642D02*
D03*
X143760Y175197D02*
D03*
D64*
X-6058Y29118D02*
D03*
X86614Y230989D02*
D03*
D65*
X-10652Y24525D02*
D03*
X91208Y235582D02*
D03*
D66*
X9647Y139496D02*
D03*
X16340D02*
D03*
X-4470D02*
D03*
X2222D02*
D03*
X-5341Y130785D02*
D03*
X1352D02*
D03*
X-5315Y117091D02*
D03*
X1378D02*
D03*
X1352Y122982D02*
D03*
X-5341D02*
D03*
X54331Y143701D02*
D03*
X61024D02*
D03*
X28150Y230989D02*
D03*
X34843D02*
D03*
X47835Y230989D02*
D03*
X41142D02*
D03*
D67*
X-2953Y219701D02*
Y223829D01*
X-8636Y229512D02*
X-2953Y223829D01*
X-47244Y95472D02*
X2953Y45276D01*
Y38499D02*
Y45276D01*
X-6058Y29488D02*
X2953Y38499D01*
X-47244Y95472D02*
X-42337Y100379D01*
X-49528Y93188D02*
X-47244Y95472D01*
X-42337Y100379D02*
Y158209D01*
X-61358Y93188D02*
X-49528D01*
X-42337Y174803D02*
Y180317D01*
Y158209D02*
Y174803D01*
Y180317D02*
X-2953Y219701D01*
X-61358Y174803D02*
X-42337D01*
X8928Y201056D02*
X80097D01*
X-6335Y216319D02*
X8928Y201056D01*
X80097D02*
X88383D01*
X79764Y201389D02*
X80097Y201056D01*
X79764Y201389D02*
Y224138D01*
X88383Y201056D02*
X123558Y165881D01*
X79764Y224138D02*
X86614Y230989D01*
X123558Y165881D02*
X132874Y175197D01*
X142524D01*
X123558Y93642D02*
Y165881D01*
Y93642D02*
X143760D01*
X74760Y44844D02*
X123558Y93642D01*
X74760Y38499D02*
Y44844D01*
Y38499D02*
X83005Y30254D01*
Y30184D02*
Y30254D01*
X2953Y38499D02*
X74760D01*
X16732Y158405D02*
Y170276D01*
Y158405D02*
X16929Y158209D01*
D68*
X7362Y206926D02*
X28957D01*
X3543Y210744D02*
X7362Y206926D01*
X3543Y210744D02*
Y232310D01*
X13629Y230746D02*
X18077Y226298D01*
X13629Y230746D02*
Y231822D01*
X15820Y234013D01*
X33386Y235582D02*
Y240158D01*
X31817Y234013D02*
X33386Y235582D01*
X15820Y234013D02*
X31817D01*
X74803Y130671D02*
X80097D01*
X83005Y127763D01*
Y112533D02*
Y127763D01*
X76832Y106360D02*
X83005Y112533D01*
X67698Y106360D02*
X76832D01*
X3543Y232310D02*
X15354Y244121D01*
Y247244D01*
X33465Y125785D02*
X41634D01*
X48491Y112715D02*
Y117847D01*
X45554Y120785D02*
X48491Y117847D01*
X41634Y120785D02*
X45554D01*
X54846Y106360D02*
X57698D01*
X48491Y112715D02*
X54846Y106360D01*
X34252Y115785D02*
X41634D01*
X21134Y134240D02*
X26890Y128484D01*
Y123147D02*
Y128484D01*
Y123147D02*
X34252Y115785D01*
X65748Y130671D02*
X74803D01*
X9647Y139496D02*
X9844D01*
X2222D02*
X9647D01*
X54681Y130671D02*
X65748D01*
X54331Y131021D02*
X54681Y130671D01*
X15100Y134240D02*
X21134D01*
X54094Y130785D02*
X54331Y131021D01*
X41634Y130785D02*
X54094D01*
X41240Y237816D02*
Y240059D01*
Y231087D02*
Y237816D01*
X46788Y234542D02*
X55523D01*
X45354Y235976D02*
X46788Y234542D01*
X45354Y235976D02*
Y240158D01*
X48445Y221926D02*
X54097D01*
X56284Y224113D01*
Y233781D01*
X55523Y234542D02*
X56284Y233781D01*
X41376Y226298D02*
X45748Y221926D01*
X18077Y226298D02*
X41376D01*
X45748Y221926D02*
X48445D01*
X57709Y211860D02*
X57774Y211795D01*
X48510Y211860D02*
X57709D01*
X48445Y211926D02*
X48510Y211860D01*
X7087Y241929D02*
X7382D01*
X6890Y242126D02*
X7087Y241929D01*
X3543Y241929D02*
Y248031D01*
X6890Y242126D02*
Y248031D01*
X22362Y211926D02*
X28957D01*
X22362Y216784D02*
X22503Y216926D01*
X28957D01*
X9844Y139496D02*
X15100Y134240D01*
X23779Y106422D02*
X31496D01*
X21339Y103981D02*
X23779Y106422D01*
X19184Y145304D02*
Y148209D01*
Y145304D02*
X23346Y141142D01*
X26890D01*
X16929Y148209D02*
X19184D01*
X41634Y112894D02*
X43307Y111221D01*
X41634Y112894D02*
Y115785D01*
X41142Y230989D02*
X41240Y231087D01*
Y240059D02*
X41339Y240158D01*
X34843Y230989D02*
X35039D01*
X37402Y233351D01*
Y240158D01*
X33386D02*
Y244173D01*
X30315Y247244D02*
X33386Y244173D01*
X15354Y247244D02*
X30315D01*
X3543Y253937D02*
X6890D01*
X15354D01*
X21339Y103981D02*
Y119525D01*
Y103325D02*
Y103981D01*
X20591Y130785D02*
X22638Y128737D01*
X13091Y130785D02*
X20591D01*
X20079Y120785D02*
X21339Y119525D01*
X13091Y120785D02*
X20079D01*
X1352Y117117D02*
Y122982D01*
Y117117D02*
X1378Y117091D01*
X8123Y122982D02*
X10925Y125785D01*
X1352Y122982D02*
X8123D01*
X10925Y125785D02*
X13091D01*
X1352Y130785D02*
X13091D01*
D69*
X-5669Y186459D02*
X8928Y201056D01*
X-5669Y163209D02*
Y186459D01*
X-42337Y158209D02*
X-5669D01*
D70*
X71856Y158465D02*
X80709D01*
X71330Y157938D02*
X71856Y158465D01*
D71*
X19196Y221926D02*
Y221949D01*
X54331Y131021D02*
Y143701D01*
X51004D02*
X54331D01*
X39547Y155157D02*
X51004Y143701D01*
X38701Y155157D02*
X39547D01*
X31496Y94488D02*
Y99730D01*
X11256Y221949D02*
X16340D01*
X8336Y219029D02*
X11256Y221949D01*
X8123Y219029D02*
X8336D01*
X-5341Y122982D02*
Y130785D01*
X-20222Y130671D02*
X-5652D01*
X-5538Y130785D01*
X-5341D01*
X-21441Y131890D02*
X-20222Y130671D01*
X-21654Y131890D02*
X-21441D01*
X28539Y155157D02*
X38701D01*
X25488Y158209D02*
X28539Y155157D01*
X16929Y158209D02*
X25488D01*
X16340Y221949D02*
X19196D01*
Y221926D02*
X28957D01*
D72*
X62895Y143701D02*
X64355Y145161D01*
Y151812D01*
X61024Y143701D02*
X62895D01*
X71157Y151812D02*
X71330Y151639D01*
X64355Y151812D02*
X71157D01*
D73*
X-8003Y228740D02*
D03*
X81822Y31367D02*
D03*
D74*
X-60669Y174803D02*
D03*
X-60669Y93248D02*
D03*
X142087Y93642D02*
D03*
X142087Y175197D02*
D03*
D75*
X-4875Y30301D02*
D03*
X85431Y229806D02*
D03*
D76*
X147638Y131890D02*
D03*
X-66929D02*
D03*
D77*
X67698Y86360D02*
D03*
X57698D02*
D03*
X67698Y96360D02*
D03*
X57698D02*
D03*
X67698Y106360D02*
D03*
X57698D02*
D03*
D78*
X27559Y23130D02*
D03*
X55118D02*
D03*
X32480Y13287D02*
D03*
X50197D02*
D03*
D79*
X149606Y186024D02*
D03*
Y164608D02*
D03*
X98425Y226716D02*
D03*
X82677Y243110D02*
D03*
X-21654Y225394D02*
D03*
X-4921Y241929D02*
D03*
X95472Y34449D02*
D03*
X78740Y18108D02*
D03*
X147638Y104331D02*
D03*
Y82677D02*
D03*
X-66929Y162402D02*
D03*
Y186024D02*
D03*
Y105315D02*
D03*
Y81693D02*
D03*
X-18701Y32480D02*
D03*
X-2953Y16732D02*
D03*
X23346Y230746D02*
D03*
X71856Y164608D02*
D03*
X56378D02*
D03*
X38701Y136811D02*
D03*
X5906Y112205D02*
D03*
X984Y106299D02*
D03*
X8928Y170276D02*
D03*
X2870D02*
D03*
X82968Y140009D02*
D03*
X52027Y226716D02*
D03*
X8123Y211117D02*
D03*
X80709Y158465D02*
D03*
X31496Y94488D02*
D03*
X8123Y219029D02*
D03*
X-21654Y131890D02*
D03*
X16732Y170276D02*
D03*
X33465Y125785D02*
D03*
X7382Y241929D02*
D03*
X3543Y241929D02*
D03*
X22362Y211926D02*
D03*
Y216784D02*
D03*
X43307Y111221D02*
D03*
X22638Y128737D02*
D03*
M02*
