G04*
G04 #@! TF.GenerationSoftware,Altium Limited,Altium Designer,19.1.8 (144)*
G04*
G04 Layer_Color=32768*
%FSLAX25Y25*%
%MOIN*%
G70*
G01*
G75*
%ADD10C,0.00787*%
%ADD82C,0.00394*%
%ADD83C,0.00197*%
D10*
X-13181Y233918D02*
X-10397Y231134D01*
X-13181D02*
X-10397Y233918D01*
X-66024Y172835D02*
Y176772D01*
X-67992Y174803D02*
X-64055D01*
X-66024Y91280D02*
Y95217D01*
X-67992Y93248D02*
X-64055D01*
X-10053Y25123D02*
X-7270Y27907D01*
X-10053D02*
X-7270Y25123D01*
X84216Y28973D02*
X87000Y26189D01*
X84216D02*
X87000Y28973D01*
X145473Y93642D02*
X149409D01*
X147441Y91673D02*
Y95610D01*
X145473Y175197D02*
X149409D01*
X147441Y173228D02*
Y177165D01*
X87825Y232200D02*
X90609Y234984D01*
X87825D02*
X90609Y232200D01*
D82*
X25020Y144488D02*
X28760D01*
X26890Y142618D02*
Y146358D01*
X39449Y252716D02*
Y254685D01*
X37480Y252716D02*
X39449D01*
X41417D01*
X39449Y250748D02*
Y252716D01*
X51572Y149048D02*
X61808D01*
Y160859D01*
X51572D02*
X61808D01*
X51572Y149048D02*
Y160859D01*
X-12067Y242270D02*
X-2046Y232248D01*
X-21533Y232804D02*
X-12067Y242270D01*
X-21533Y232804D02*
X-11511Y222782D01*
X-2046Y232248D01*
X15590Y101357D02*
Y105294D01*
X13622Y103325D02*
X17559D01*
X72835Y127521D02*
X76772D01*
X74803Y125553D02*
Y129490D01*
X5630Y153740D02*
Y157677D01*
X3661Y155709D02*
X7598D01*
X69361Y154788D02*
X73298D01*
X71330Y152820D02*
Y156757D01*
X16340Y216831D02*
Y220768D01*
X14371Y218799D02*
X18308D01*
X63779Y127521D02*
X67716D01*
X65748Y125553D02*
Y129490D01*
X52362Y125273D02*
X56299D01*
X54331Y123304D02*
Y127241D01*
X38701Y147441D02*
Y151378D01*
X36732Y149409D02*
X40669D01*
X-58937Y168110D02*
Y181496D01*
X-73110Y168110D02*
X-58937D01*
X-73110D02*
Y181496D01*
X-58937D01*
X-58937Y86555D02*
Y99941D01*
X-73110Y86555D02*
X-58937D01*
X-73110D02*
Y99941D01*
X-58937D01*
X-18405Y26237D02*
X-8383Y36259D01*
X-18405Y26237D02*
X-8940Y16772D01*
X1082Y26794D01*
X-8383Y36259D02*
X1082Y26794D01*
X75864Y27859D02*
X85886Y17837D01*
X95351Y27303D01*
X85330Y37325D02*
X95351Y27303D01*
X75864Y27859D02*
X85330Y37325D01*
X140354Y86949D02*
X154528D01*
Y100335D01*
X140354D02*
X154528D01*
X140354Y86949D02*
Y100335D01*
X140354Y168504D02*
X154528D01*
Y181890D01*
X140354D02*
X154528D01*
X140354Y168504D02*
Y181890D01*
X11123Y139496D02*
X14863D01*
X12993Y137626D02*
Y141366D01*
X-2994Y139496D02*
X746D01*
X-1124Y137626D02*
Y141366D01*
X55904Y215141D02*
X59644D01*
X57774Y213271D02*
Y217011D01*
X-1995Y128915D02*
Y132655D01*
X-3865Y130785D02*
X-125D01*
X-1969Y115221D02*
Y118961D01*
X-3839Y117091D02*
X-98D01*
X-1995Y121112D02*
Y124853D01*
X-3865Y122982D02*
X-125D01*
X29626Y103076D02*
X33366D01*
X31496Y101206D02*
Y104946D01*
X88939Y223848D02*
X98961Y233870D01*
X89495Y243335D02*
X98961Y233870D01*
X79474Y233313D02*
X89495Y243335D01*
X79474Y233313D02*
X88939Y223848D01*
X55807Y143701D02*
X59547D01*
X57677Y141831D02*
Y145571D01*
X29626Y230989D02*
X33366D01*
X31496Y229119D02*
Y232859D01*
X42618Y230989D02*
X46358D01*
X44488Y229119D02*
Y232859D01*
X15354Y248721D02*
Y252461D01*
X13484Y250590D02*
X17224D01*
D83*
X24134Y138583D02*
Y150394D01*
X29646Y138583D02*
Y150394D01*
X24134Y138583D02*
X29646D01*
X24134Y150394D02*
X29646D01*
X19764Y235000D02*
X58740D01*
X19764D02*
Y267677D01*
X58740D01*
Y235000D02*
Y267677D01*
X24094Y203402D02*
Y225449D01*
X53307Y203402D02*
Y225449D01*
X24094D02*
X53307D01*
X24094Y203402D02*
X53307D01*
X5315Y110018D02*
X25866D01*
X5315Y96632D02*
X25866D01*
X5315D02*
Y110018D01*
X25866Y96632D02*
Y110018D01*
X78543Y120828D02*
Y134214D01*
X71063Y120828D02*
Y134214D01*
X78543D01*
X71063Y120828D02*
X78543D01*
X-10905Y166339D02*
X22165D01*
X-10905Y145079D02*
X22165D01*
X-10905D02*
Y166339D01*
X22165Y145079D02*
Y166339D01*
X23819Y98D02*
Y29823D01*
Y98D02*
X58858D01*
Y29823D01*
X23819D02*
X58858D01*
X41339Y7874D02*
Y11811D01*
X39370Y9843D02*
X43307D01*
X67590Y148096D02*
Y161481D01*
X75070Y148096D02*
Y161481D01*
X67590Y148096D02*
X75070D01*
X67590Y161481D02*
X75070D01*
X12599Y212106D02*
X20080D01*
X12599Y225492D02*
X20080D01*
X12599Y212106D02*
Y225492D01*
X20080Y212106D02*
Y225492D01*
X69488Y120828D02*
Y134214D01*
X62008Y120828D02*
Y134214D01*
X69488D01*
X62008Y120828D02*
X69488D01*
X47638Y114997D02*
Y135548D01*
X61024Y114997D02*
Y135548D01*
X47638Y114997D02*
X61024D01*
X47638Y135548D02*
X61024D01*
X32008Y159685D02*
X45394D01*
X32008Y139134D02*
X45394D01*
Y159685D01*
X32008Y139134D02*
Y159685D01*
X7088Y136740D02*
Y142252D01*
X18899Y136740D02*
Y142252D01*
X7088D02*
X18899D01*
X7088Y136740D02*
X18899D01*
X-7029D02*
Y142252D01*
X4781Y136740D02*
Y142252D01*
X-7029D02*
X4781D01*
X-7029Y136740D02*
X4781D01*
X55018Y209236D02*
Y221047D01*
X60530Y209236D02*
Y221047D01*
X55018Y209236D02*
X60530D01*
X55018Y221047D02*
X60530D01*
X-7900Y133541D02*
X3911D01*
X-7900Y128029D02*
X3911D01*
X-7900D02*
Y133541D01*
X3911Y128029D02*
Y133541D01*
X-7874Y119847D02*
X3937D01*
X-7874Y114335D02*
X3937D01*
X-7874D02*
Y119847D01*
X3937Y114335D02*
Y119847D01*
X-7900Y120227D02*
X3911D01*
X-7900Y125738D02*
X3911D01*
Y120227D02*
Y125738D01*
X-7900Y120227D02*
Y125738D01*
X34252Y97171D02*
Y108982D01*
X28740Y97171D02*
Y108982D01*
X34252D01*
X28740Y97171D02*
X34252D01*
X51772Y140945D02*
Y146457D01*
X63583Y140945D02*
Y146457D01*
X51772D02*
X63583D01*
X51772Y140945D02*
X63583D01*
X25591Y228233D02*
Y233745D01*
X37402Y228233D02*
Y233745D01*
X25591D02*
X37402D01*
X25591Y228233D02*
X37402D01*
X50394Y228233D02*
Y233745D01*
X38583Y228233D02*
Y233745D01*
Y228233D02*
X50394D01*
X38583Y233745D02*
X50394D01*
X12598Y256496D02*
X18110D01*
X12598Y244685D02*
X18110D01*
Y256496D01*
X12598Y244685D02*
Y256496D01*
M02*
