G04*
G04 #@! TF.GenerationSoftware,Altium Limited,Altium Designer,19.1.8 (144)*
G04*
G04 Layer_Color=16711935*
%FSLAX25Y25*%
%MOIN*%
G70*
G01*
G75*
%ADD11C,0.00787*%
%ADD15C,0.00500*%
%ADD82C,0.00394*%
%ADD83C,0.00197*%
%ADD84R,0.02559X0.11417*%
%ADD85R,0.11417X0.02559*%
G36*
X-5878Y20947D02*
X-11445Y20948D01*
X-8661Y18164D01*
X-5878Y20947D01*
D02*
G37*
G36*
X-67992Y87343D02*
X-71929Y91280D01*
X-71929Y87343D01*
X-67992D01*
D02*
G37*
G36*
X-67992Y168898D02*
X-71929Y172835D01*
X-71929Y168898D01*
X-67992Y168898D01*
D02*
G37*
G36*
X-17357Y229742D02*
X-17357Y235310D01*
X-20141Y232526D01*
X-17357Y229742D01*
D02*
G37*
G36*
X91176Y30365D02*
X91176Y24797D01*
X93960Y27581D01*
X91176Y30365D01*
D02*
G37*
G36*
X149409Y99547D02*
X153346Y95610D01*
X153347Y99547D01*
X149409D01*
D02*
G37*
G36*
X86433Y239160D02*
X92001Y239159D01*
X89217Y241944D01*
X86433Y239160D01*
D02*
G37*
G36*
X149409Y181102D02*
X153346Y177165D01*
X153347Y181102D01*
X149409D01*
D02*
G37*
D11*
X56595Y204563D02*
X55807D01*
X56595D01*
D15*
X30827Y204386D02*
Y224465D01*
X46575Y204386D02*
Y224465D01*
X30827D02*
X46575D01*
X30827Y204386D02*
X46575D01*
D82*
X9961Y147441D02*
X10945Y147705D01*
X11665Y148425D01*
X11929Y149409D01*
X11665Y150394D01*
X10945Y151114D01*
X9961Y151378D01*
X8976Y151114D01*
X8256Y150394D01*
X7992Y149409D01*
X16949Y128600D02*
X21949Y133600D01*
X16949Y112970D02*
Y133600D01*
Y112970D02*
X37776D01*
Y133600D01*
X16949D02*
X37776D01*
X25020Y141043D02*
Y147933D01*
X28760Y141043D02*
Y147933D01*
X25020Y141043D02*
X28760D01*
X25020Y147933D02*
X28760D01*
X-20141Y232526D02*
X-11789Y240878D01*
X-20141Y232526D02*
X-11789Y224174D01*
Y240878D02*
X-3437Y232526D01*
X-11789Y224174D02*
X-3437Y232526D01*
X8209Y97617D02*
X22972D01*
X8209D02*
Y109034D01*
X22972D01*
Y97617D02*
Y109034D01*
X77559Y123191D02*
Y131852D01*
X72047Y123191D02*
Y131852D01*
X77559D01*
X72047Y123191D02*
X77559D01*
X-2244Y165551D02*
X13504D01*
X-2244Y145866D02*
X13504D01*
X-2244D02*
Y165551D01*
X13504Y145866D02*
Y165551D01*
X68574Y150458D02*
Y159119D01*
X74086Y150458D02*
Y159119D01*
X68574Y150458D02*
X74086D01*
X68574Y159119D02*
X74086D01*
X13584Y214469D02*
X19096D01*
X13584Y223130D02*
X19096D01*
X13584Y214469D02*
Y223130D01*
X19096Y214469D02*
Y223130D01*
X68504Y123191D02*
Y131852D01*
X62992Y123191D02*
Y131852D01*
X68504D01*
X62992Y123191D02*
X68504D01*
X60039Y117891D02*
Y132655D01*
X48622Y117891D02*
X60039D01*
X48622D02*
Y132655D01*
X60039D01*
X32992Y156791D02*
X44409D01*
X32992Y142028D02*
Y156791D01*
Y142028D02*
X44409D01*
Y156791D01*
X-60118Y168898D02*
Y180709D01*
X-71929D02*
X-60118D01*
X-71929Y168898D02*
X-60118D01*
X-71929D02*
Y180709D01*
X-60118Y87343D02*
Y99154D01*
X-71929D02*
X-60118D01*
X-71929Y87343D02*
X-60118D01*
X-71929D02*
Y99154D01*
X-17013Y26515D02*
X-8661Y18164D01*
X-310Y26515D01*
X-17013D02*
X-8661Y34867D01*
X-310Y26515D01*
X85608Y19229D02*
X93960Y27581D01*
X85608Y35933D02*
X93960Y27581D01*
X77256D02*
X85608Y19229D01*
X77256Y27581D02*
X85608Y35933D01*
X153347Y87736D02*
Y99547D01*
X141535D02*
X153347D01*
X141535Y87736D02*
X153347D01*
X141535D02*
Y99547D01*
X153347Y169291D02*
Y181102D01*
X141535D02*
X153347D01*
X141535Y169291D02*
X153347D01*
X141535D02*
Y181102D01*
X9548Y137626D02*
Y141366D01*
X16438Y137626D02*
Y141366D01*
X9548D02*
X16438D01*
X9548Y137626D02*
X16438D01*
X-4569D02*
Y141366D01*
X2321Y137626D02*
Y141366D01*
X-4569D02*
X2321D01*
X-4569Y137626D02*
X2321D01*
X55904Y211696D02*
Y218586D01*
X59644Y211696D02*
Y218586D01*
X55904Y211696D02*
X59644D01*
X55904Y218586D02*
X59644D01*
X-5440Y132655D02*
X1450D01*
X-5440Y128915D02*
X1450D01*
X-5440D02*
Y132655D01*
X1450Y128915D02*
Y132655D01*
X-5413Y118961D02*
X1476D01*
X-5413Y115221D02*
X1476D01*
X-5413D02*
Y118961D01*
X1476Y115221D02*
Y118961D01*
X-5440Y121112D02*
X1450D01*
X-5440Y124853D02*
X1450D01*
Y121112D02*
Y124853D01*
X-5440Y121112D02*
Y124853D01*
X33366Y99631D02*
Y106521D01*
X29626Y99631D02*
Y106521D01*
X33366D01*
X29626Y99631D02*
X33366D01*
X89217Y241944D02*
X97569Y233592D01*
X80865D02*
X89217Y241944D01*
Y225240D02*
X97569Y233592D01*
X80865D02*
X89217Y225240D01*
X54232Y141831D02*
Y145571D01*
X61122Y141831D02*
Y145571D01*
X54232D02*
X61122D01*
X54232Y141831D02*
X61122D01*
X28051Y229119D02*
Y232859D01*
X34941Y229119D02*
Y232859D01*
X28051D02*
X34941D01*
X28051Y229119D02*
X34941D01*
X47933Y229119D02*
Y232859D01*
X41043Y229119D02*
Y232859D01*
Y229119D02*
X47933D01*
X41043Y232859D02*
X47933D01*
X13484Y254035D02*
X17224D01*
X13484Y247146D02*
X17224D01*
Y254035D01*
X13484Y247146D02*
Y254035D01*
D83*
X8661Y111769D02*
Y135489D01*
Y111769D02*
X46063D01*
Y135489D01*
X8661D02*
X46063D01*
D84*
X21693Y103325D02*
D03*
D85*
X54331Y131375D02*
D03*
X38700Y155512D02*
D03*
M02*
